<svg xmlns="http://www.w3.org/2000/svg" width="416" height="416" fill="none" viewBox="0 0 416 416"><g clip-path="url(#a)"><path fill="#feebd0" d="M116.499 81.365c5.729-6.42 26.781-24.148 34.61-26.856 5.655-1.957 12.548-3.9 18.444-4.909 5.153-.882 10.44-1.273 15.642-1.747 21.658-1.972 43.009-1.425 63.427 6.87 1.412.574 2.923.96 4.278 1.666.637.333 1.364.847 1.49 1.612.139.843-.452 1.44-.95 2.027.996.117 1.932.283 2.909.511 5.511 1.602 10.853 3.247 16.666 3.206.974-.006 2.018-.012 2.981-.154 1.666-.246 5.724-1.781 7.123-1.059l.014.393c-1.135 2.274-5.539 6.435-7.793 7.659-.28.152-.971.44-1.119.708 1.146.36 2.136 1.52 3.045 2.312 1.22 1.085 6.631 6.233 7.524 6.555 4.57 4.3 10.599 10.1 10.778 16.799.13 4.87-2.964 14.499-3.954 19.784-.816 4.361-.806 8.903-.855 13.323 2.586 2.522 5.645 5.454 6.494 9.087a52 52 0 0 1-1.069 3.208c-.828.719-2.617 1.65-3.182 2.338 3.331 4.216 5.264 9.521 6.011 14.792.182 1.29.427 2.673.272 3.976a2.5 2.5 0 0 1-.343 1.066c-.49-.032-.541-.156-.865-.512-.32-.354-.664-.9-.824-1.353a105 105 0 0 1-3.194-5.704c.855 5.667-1.684 12.609-5.035 17.121-1.611 2.168-3.608 3.794-5.627 5.55.423 2.544-.147 5.438-.342 8.001-.621 8.167-.887 19.948-5.808 26.818-2.843 3.972-8.275 6.917-13.05 7.692-.702.114-1.409.149-2.111.265-4.977.911-9.941 1.075-14.983 1.268q-9.864.338-19.733.374c-3.145.014-6.291-.002-9.435.048-1.632.025-3.342.193-4.963.137-.077.321-.025.46-.305.658-1.98 1.398-3.792 3.115-5.726 4.603l-.169.021c-1.252 0-2.595-.075-3.827.143l-.15.07c-.563.918-1.115 1.835-1.75 2.707l-1.051.019c-.325-.91-.796-1.794-1.205-2.67l-.102-.062q-2.288.01-4.575.054l-.11-.018c-4.515-.586-9.046-.717-13.58-1.055-3.068-.226-6.695-.892-9.746-.537-.417-.442-.77-1.156-1.112-1.673-.405-.824-.98-1.538-1.522-2.273-3.822-.182-7.639-.539-11.462-.753-2.695.083-5.422-.245-8.117-.382-4.59-.235-9.209-.297-13.737-1.169-1.748-.247-3.459-1.162-4.883-2.183-11.532-8.271-11.162-18.473-12.273-31.284-.158-1.825-.184-3.701-.477-5.504l-.042-.25c-.02-.018-.035-.043-.059-.055-.219-.103-.435-.125-.625-.3-.747-.687-.538-2.638-.55-3.598-3.537-4.753-9.738-5.764-13.224-10.717-2.414-3.429-2.935-7.688-2.23-11.756.689-3.973 2.428-6.885 4.856-10.038.607-.788 1.228-1.778 2.039-2.353.2-1.132-.974-2.57-1.048-3.893-.171-3.076 2.826-6.052 4.731-8.175-.454-3.45.395-10.066-.663-12.765-.327-1.094-.534-2.247-.735-3.37-1.109-3.615-3.572-15.212-3.345-18.752.31-4.852 6.683-12.29 10.301-15.562"/><path fill="#e79548" d="M116.498 81.364c5.73-6.42 26.782-24.147 34.611-26.856 5.654-1.956 12.548-3.9 18.444-4.908 5.153-.882 10.439-1.274 15.641-1.747 21.659-1.972 43.01-1.425 63.428 6.87 1.411.574 2.922.959 4.278 1.666.637.332 1.363.847 1.49 1.611.139.844-.453 1.44-.951 2.028.997.117 1.933.283 2.91.51 5.511 1.603 10.853 3.248 16.666 3.207.974-.007 2.018-.012 2.981-.154 1.666-.246 5.724-1.782 7.123-1.06l.014.393c-1.135 2.275-5.539 6.435-7.793 7.66-.281.151-.972.44-1.119.707 1.146.36 2.136 1.521 3.045 2.313 1.22 1.084 6.631 6.233 7.523 6.555-.438 1.442 2.798 13.326 3.14 16.163-.429 2.333-.5 4.716-.94 7.05-.687 3.635-1.706 7.187-2.291 10.846l-.089.005-.148.593c-.894.021-1.971-.903-2.712-1.4l-.067-.157c-2.073-.886-10.167-5.809-11.834-5.523l-.199-.458c-1.019-.163-2.238-.796-3.219-1.164l-.106-.071c-2.605-1.149-6.914-3.534-9.666-3.715l-1.019-.437c-2.424-2.038-5.911-3.488-8.771-4.838a98 98 0 0 0-3.088-1.374 100 100 0 0 0-6.301-2.443 110 110 0 0 0-3.209-1.067 100 100 0 0 0-4.873-1.4 107 107 0 0 0-3.283-.801 107 107 0 0 0-3.309-.693 102 102 0 0 0-6.674-1.06 104 104 0 0 0-11.799-.797 104 104 0 0 0-10.129.393c-13.116 1.144-25.403 5.187-37.433 10.369-2.237.963-7.317 4.46-9.201 4.767-2.678-.222-11.319 4.028-14.253 5.044l-.082.098-3.175 1.373-.098.166c-4.018 1.307-7.376 3.868-11.035 5.88l-.081.097c-1.036.633-1.993 1.341-2.961 2.07-.261-1.091-.509-2.149-.621-3.268l-.079-.001c-1.497 1.626-3.067 3.4-4.906 4.642-.327-1.094-.534-2.247-.735-3.369-1.11-3.616-3.572-15.213-3.346-18.752.311-4.852 6.683-12.291 10.301-15.563"/><path fill="#e79548" d="M125.415 75.962c1.916-1.86 4.007-3.874 6.182-5.415l.269.22c-.449 1.785-2.299 6.896-1.487 8.469.625.23.993.136 1.593-.153 1.452-.701 2.991-1.894 4.257-2.897-.751 1.96-3.307 6.924-3.136 8.755.301.23.227.287.558.202 1.652-.425 10.069-9.105 11.749-10.86a793 793 0 0 1-7.947 22.715c-1.355 3.654-2.935 7.292-4.137 10.993l-.082.098-3.175 1.373-.098.166c-4.018 1.307-7.376 3.868-11.035 5.88l-.081.097c-1.036.633-1.993 1.341-2.961 2.07-.261-1.091-.509-2.149-.621-3.268l-.079-.001c-1.497 1.626-3.067 3.4-4.906 4.642-.327-1.094-.534-2.247-.735-3.369-1.11-3.616-3.572-15.213-3.346-18.752.311-4.852 6.683-12.291 10.301-15.563.185 1.494-.552 3.338-.852 4.835.011.007.02.019.033.02.114.012.232.048.344.02.777-.192 7.532-8.715 9.303-10.107z"/><path fill="#fefefe" d="M125.416 75.962c1.916-1.86 4.006-3.874 6.182-5.415l.269.22c-.45 1.785-2.3 6.896-1.488 8.469.626.23.994.136 1.593-.153 1.453-.701 2.991-1.894 4.258-2.897-.751 1.96-3.307 6.924-3.136 8.755.3.23.227.287.558.202 1.651-.425 10.068-9.105 11.748-10.86a793 793 0 0 1-7.946 22.715c-1.355 3.654-2.936 7.292-4.137 10.993l-.082.098-3.176 1.373c.864-2.568 6.683-19.846 6.559-20.877-.047-.39-.001-.24-.366-.512-1.223.247-7.13 6.069-8.567 7.202.594-1.711 2.595-10.273 2.216-11.784l-.315.067c-1.421 1.52-2.406 3.833-3.443 5.656-2 3.517-3.958 7.069-6.047 10.533 1.438-7.93 3.786-15.692 5.23-23.615z"/><path fill="#d2c9c7" d="M116.498 81.363c.185 1.494-.552 3.338-.852 4.835l-.217.801-2.216 11.026-.258 1.528c.389.754.327 1.624.37 2.456a59.5 59.5 0 0 0 1.859 12.396c-1.497 1.626-3.067 3.4-4.906 4.642-.327-1.094-.534-2.247-.735-3.37-1.11-3.615-3.572-15.212-3.346-18.751.311-4.852 6.683-12.291 10.301-15.563"/><path fill="#cb7535" d="M112.956 99.555c.388.753.327 1.623.37 2.455a60 60 0 0 0 .6 6.247 59 59 0 0 0 1.259 6.149c-1.498 1.626-3.068 3.4-4.907 4.642-.327-1.094-.534-2.247-.735-3.37.522-1.937.393-9.818.503-12.446.635.75 1.186 1.529 1.736 2.34.466-1.978.768-4.023 1.174-6.017"/><path fill="#fefefe" d="M113.213 98.025c-.471-.83-.434-2.042-.397-2.986.096-2.469.765-6.325 2.614-8.04zm2.05 16.382c1.737-1.848 3.692-3.686 5.221-5.7l-1.557 6.801-.082.097c-1.035.632-1.993 1.341-2.961 2.069-.26-1.091-.509-2.148-.621-3.267"/><path fill="#e79548" d="M277.266 73.602c1.22 1.085 6.631 6.233 7.523 6.555-.438 1.442 2.798 13.326 3.14 16.164-.429 2.333-.5 4.715-.94 7.049-.687 3.635-1.706 7.187-2.291 10.847l-.089.004-.148.593c-.894.021-1.972-.902-2.712-1.4l-.067-.157c-2.073-.886-10.168-5.809-11.834-5.523l-.199-.458c-1.02-.163-2.238-.796-3.22-1.164l-.105-.071c-3.852-10.638-7.868-21.195-11.405-31.95 2.005 2.034 10.211 10.842 12.285 11.452.305.089.236.026.537-.187.384-1.283-2.663-7.62-3.304-9.116 1.285.862 4.29 3.373 5.741 3.279.34-.022.39-.189.608-.416.222-.885-.12-1.79-.332-2.657.585-.894 3.785-1.761 4.856-2.184l.098-.03c.631-.173 1.241-.408 1.858-.63"/><path fill="#fefefe" d="m275.31 74.262.098-.03 5.996 26.585c-2.383-3.922-4.568-7.968-6.841-11.954-.822-1.441-1.637-3.344-2.683-4.587-.249-.295-.463-.385-.814-.523l-.506.058c-.554.85-.2 2.237.002 3.197.6 2.885 1.496 5.744 2.287 8.582-1.285-1.139-7.044-6.779-8.383-7.048l-.378.267c-.147 1.503 4.82 16.083 5.561 18.468-1.02-.164-2.238-.797-3.22-1.165l-.105-.071c-3.852-10.638-7.868-21.195-11.405-31.949 2.005 2.033 10.211 10.842 12.285 11.45.305.09.236.027.537-.186.384-1.283-2.663-7.62-3.304-9.116 1.285.862 4.29 3.373 5.741 3.28.34-.023.39-.19.608-.417.222-.885-.12-1.79-.332-2.657.585-.894 3.785-1.761 4.856-2.184m5.743 36.105q1.762 1.943 3.556 3.854l-.148.594c-.894.02-1.972-.903-2.712-1.4l-.067-.157z"/><path fill="#cb7535" d="M116.499 81.364c5.73-6.42 26.782-24.147 34.611-26.856 5.654-1.956 12.548-3.9 18.444-4.908 5.153-.882 10.439-1.274 15.641-1.747 21.659-1.972 43.009-1.425 63.428 6.87 1.411.574 2.922.959 4.277 1.666.638.332 1.364.847 1.491 1.611.139.844-.453 1.44-.951 2.028.021.321.11.804-.054 1.09-9.545-6.074-20.871-7.803-31.844-9.612-4.958-.817-9.786-1.758-14.827-1.923-6.845-.225-13.464.493-20.267 1.062-9.443.79-18.825 1.491-28.111 3.54-9.736 2.15-14.212 6.095-21.591 12.214-1.28 1.062-3.031 2.864-4.583 3.407l-.296.961-.269-.22c-2.176 1.541-4.266 3.555-6.182 5.415l-.09.17c-1.77 1.393-8.526 9.915-9.302 10.107-.112.028-.23-.008-.345-.02-.012-.001-.022-.013-.033-.02.301-1.497 1.038-3.341.853-4.835"/><path fill="#d2c9c7" d="M125.416 75.962c.076-.483.142-.996.346-1.443.509-1.123 5.122-4.969 6.274-5.305l.127.591-.296.962-.269-.22c-2.176 1.54-4.266 3.554-6.182 5.415"/><path fill="#17616e" d="M253.44 60.028c.996.116 1.932.282 2.91.51 5.51 1.602 10.853 3.248 16.666 3.207.973-.007 2.017-.012 2.98-.154 1.667-.246 5.725-1.782 7.123-1.06l.015.393c-1.135 2.275-5.539 6.435-7.793 7.66-.281.151-.972.44-1.119.707 1.146.36 2.136 1.521 3.045 2.313-.617.221-1.227.457-1.858.63l-.097.03c-1.071.422-4.272 1.29-4.857 2.184l-.139-.523c-.606.678-2.719.757-3.618.891a99 99 0 0 1-1.893-3.389c0-.282.023-.111-.178-.504-1.395-2.72-2.455-5.674-4.068-8.271-1.353-.203-2.605-.23-3.966-.168-.772-.353-.951-1.123-1.463-1.727-.361-.424-1.144-.442-1.663-.518l-.295-.042c-.051-.337.125-.75.214-1.08.164-.285.075-.768.054-1.09"/><path fill="#144e55" d="M253.44 60.028c.996.116 1.932.282 2.91.51l-.552.21c-.137.974 1.073 2.35 1.617 3.136 1.145-.301 2.561-.917 3.663-.232.814.505 1.119 1.663 1.469 2.506.451 1.079 1.136 2.033 1.783 3.001 5.116.101 11.251.512 15.259-3.302 1.183-1.124 1.957-2.324 3.545-2.933-1.135 2.275-5.539 6.435-7.793 7.66-.281.151-.972.44-1.119.707 1.146.36 2.136 1.521 3.045 2.313-.617.221-1.227.457-1.858.63l-.097.03c-1.071.422-4.272 1.29-4.857 2.184l-.139-.523c-.606.678-2.719.757-3.618.891a99 99 0 0 1-1.893-3.389c0-.282.023-.111-.178-.504-1.395-2.72-2.455-5.674-4.068-8.271-1.353-.203-2.605-.23-3.966-.168-.772-.353-.951-1.123-1.463-1.727-.361-.424-1.144-.442-1.663-.518l-.295-.042c-.051-.337.125-.75.214-1.08.164-.285.075-.768.054-1.09"/><path fill="#cb7535" d="M274.221 71.29c1.146.36 2.136 1.52 3.045 2.313-.617.221-1.227.456-1.858.63l-.097.03c-1.071.422-4.272 1.29-4.857 2.183l-.139-.522c-.606.678-2.719.756-3.617.891a96 96 0 0 1-1.893-3.39l1.087.812c1.279-.042 7.221-2.303 8.329-2.947"/><path fill="#d2c9c7" d="M274.064 72.867c.514.443.88.824 1.247 1.396-1.071.422-4.271 1.29-4.857 2.184l-.139-.522-.245-1.193c.677-1.258 2.686-1.413 3.994-1.865"/><path fill="#fefefe" d="M284.789 80.158c4.571 4.3 10.6 10.1 10.778 16.798.131 4.87-2.963 14.5-3.953 19.784-.816 4.361-.806 8.903-.856 13.323 2.586 2.523 5.646 5.455 6.495 9.088a52 52 0 0 1-1.069 3.208c-.828.718-2.617 1.649-3.182 2.338-4.444 1.41-10.423 1.033-14.765-.534-.222-.203-.506-.368-.753-.54-.411 2.347-.953 4.363-2.051 6.484-1.044-.175-2.113-.252-3.167-.36-1.501-.551-2.964-1.355-4.408-2.042-3.265-1.554-6.461-3.132-9.628-4.886-3.944-2.185-7.92-4.65-12.14-6.27l-1.974 1.012c-.456-.952-.952-1.887-1.434-2.827-1.152-.635-2.351-1.335-3.68-1.46l-.182-.402-.884.274c-1.366-.839-6.449-1.428-8.284-1.785l-.34.057q-.258.111-.517.215c-8.468 3.334-20.09-.905-27.915-4.377-3.894-2.332-7.383-4.601-10.378-8.071-4.856-4.672-7.828-11.401-9.532-17.822-.327.163-.685.279-.907.575-4.216 5.351-16.362 16.478-22.704 19.444l-.201.19c-2.397 2.308-4.336 5.294-6.517 7.825-6.141 7.127-13.851 13.601-23.045 16.262-2.239.647-4.581.872-6.864 1.318-.334.059-.229.051-.582.068-2.877.138-10.777-1.242-12.892-3.164.2-1.132-.974-2.571-1.048-3.894-.171-3.076 2.826-6.052 4.731-8.174-.454-3.451.395-10.067-.663-12.766 1.839-1.242 3.409-3.016 4.906-4.643l.079.002c.112 1.119.36 2.177.621 3.268.968-.729 1.926-1.437 2.961-2.07l.081-.097c3.659-2.013 7.017-4.573 11.035-5.88l.098-.166 3.175-1.373.082-.098c2.934-1.016 11.575-5.266 14.253-5.044 1.884-.307 6.964-3.804 9.201-4.767 12.03-5.183 24.317-9.225 37.433-10.37a104 104 0 0 1 8.439-.395 106 106 0 0 1 5.069.093 104 104 0 0 1 10.095.931 106 106 0 0 1 4.999.836 103 103 0 0 1 9.849 2.4 100 100 0 0 1 3.225 1.014 111 111 0 0 1 3.19 1.118 104 104 0 0 1 7.799 3.246c2.86 1.35 6.347 2.8 8.771 4.838l1.019.437c2.753.18 7.061 2.565 9.666 3.715l.106.07c.981.368 2.2 1.002 3.219 1.165l.199.458c1.667-.286 9.761 4.636 11.834 5.523l.067.157c.741.497 1.818 1.421 2.712 1.4l.148-.593.089-.005c.585-3.66 1.604-7.211 2.291-10.846.44-2.335.511-4.717.941-7.05-.343-2.837-3.579-14.722-3.141-16.163"/><path fill="#144e55" d="M180.97 101.365c12.668-5.956 28.932-6.063 42.014-1.322 9.854 3.571 18.997 10.765 25.746 18.638 3.776 6.256 7.802 12.571 9.126 19.888-2.075-1.66-4.19-3.286-6.174-5.053-1.806 1.158-3.678 2.075-5.592 3.034l-1.974 1.012c-.456-.952-.952-1.887-1.434-2.826-1.152-.636-2.351-1.336-3.679-1.461l-.183-.402-.884.275c-1.366-.84-6.449-1.428-8.283-1.785l-.341.056q-.257.112-.517.215c-8.468 3.334-20.09-.905-27.915-4.377-3.894-2.332-7.383-4.6-10.378-8.07-4.856-4.672-7.828-11.402-9.532-17.822"/><path fill="#17616e" d="M190.502 119.186c1.74.223 3.434 1.676 4.973 2.498 4.918 2.623 9.897 4.1 15.486 4.378-1.272-1.274-2.648-2.524-3.69-3.998a119 119 0 0 1 14.256 5.519c2.707 1.257 4.801 3.21 7.785 3.836a17 17 0 0 1-.516.214c-8.468 3.335-20.091-.904-27.916-4.376-3.893-2.332-7.383-4.601-10.378-8.071"/><path fill="#e7bea3" d="M229.652 131.361c1.617-.813 2.553-1.481 3.334-3.15 1.687.445 3.399.817 5.097 1.216.216 1.154.398 2.319.737 3.445l-.884.274c-1.366-.839-6.449-1.428-8.284-1.785"/><path fill="#de9a80" d="m238.083 129.427 1.687.355c.413.733.783 1.496 1.366 2.11.598.929 1.09 1.838 1.546 2.842-1.152-.635-2.351-1.335-3.68-1.46l-.182-.402c-.338-1.126-.521-2.29-.737-3.445"/><path fill="#e7bea3" d="m239.771 129.782 3.424.735-2.059 1.375c-.583-.614-.952-1.377-1.365-2.11"/><path fill="#d2c9c7" d="M284.789 80.158c4.571 4.3 10.6 10.1 10.778 16.798.131 4.87-2.963 14.5-3.953 19.784-.816 4.361-.806 8.903-.856 13.323 2.586 2.523 5.646 5.455 6.495 9.088a52 52 0 0 1-1.069 3.208c-.828.718-2.617 1.649-3.182 2.338-4.444 1.41-10.423 1.033-14.765-.534-.222-.203-.506-.368-.753-.54-.411 2.347-.953 4.363-2.051 6.484-1.044-.175-2.113-.252-3.167-.36-1.501-.551-2.964-1.355-4.408-2.042-3.265-1.554-6.461-3.132-9.628-4.886-3.944-2.185-7.92-4.65-12.14-6.27 1.914-.959 3.786-1.876 5.591-3.035 1.985 1.767 4.1 3.394 6.175 5.053-1.324-7.317-5.351-13.632-9.126-19.888-6.749-7.872-15.892-15.066-25.746-18.637-13.082-4.741-29.347-4.635-42.014 1.321-.327.163-.685.279-.907.575-4.216 5.351-16.362 16.478-22.704 19.444l-.201.19c-2.397 2.308-4.336 5.294-6.517 7.825-6.141 7.127-13.851 13.601-23.045 16.262-2.239.647-4.581.872-6.864 1.318-.334.059-.229.051-.582.068-2.877.138-10.777-1.242-12.892-3.164.2-1.132-.974-2.571-1.048-3.894-.171-3.076 2.826-6.052 4.731-8.174-.454-3.451.395-10.067-.663-12.766 1.839-1.242 3.409-3.016 4.906-4.643l.079.002c.112 1.119.36 2.177.621 3.268.968-.729 1.926-1.437 2.961-2.07-.603 2.635-1.593 5.44-1.845 8.11l.136.165.501-.355c.285.519-.04 1.189-.012 1.789-.443.656-1.286 1.272-1.861 1.83-2.134 2.071-4.393 4.194-5.84 6.825-1.512 2.75-1.645 5.742-.761 8.692 3.445 2.929 8.015 2.842 12.329 2.51 15.615-1.2 29.6-20 39.045-30.91 8.953-10.341 23.964-17.633 37.611-18.573 14.496-.997 29.282 2.85 41.004 11.584 4.365 3.254 8.256 7.216 12.009 11.145 4.896 5.125 9.439 10.88 14.816 15.509 7.389 6.359 16.558 10.391 26.45 9.639.729-.447 1.472-.945 2.005-1.627 4.047-5.181-11.44-16.833-11.822-19.612.06-.237.16-.475.241-.706l.679.423.124-.156c-.272-2.8-1.247-5.722-1.905-8.471.741.497 1.818 1.421 2.712 1.4l.148-.593.089-.005c.585-3.66 1.604-7.211 2.291-10.846.44-2.335.511-4.717.941-7.05-.343-2.837-3.579-14.722-3.141-16.163"/><path fill="#e7bea3" d="M248.731 118.679c2.569 2.122 4.649 5.172 6.859 7.677 2.163 2.452 4.541 4.783 6.577 7.337 3.489 2.618 11.326 9.186 15.317 9.93-.411 2.346-.952 4.363-2.05 6.483-1.044-.174-2.113-.251-3.167-.359-1.501-.551-2.964-1.355-4.409-2.042-3.264-1.554-6.461-3.132-9.628-4.887-3.943-2.185-7.92-4.65-12.139-6.27 1.913-.958 3.785-1.875 5.591-3.034 1.984 1.767 4.099 3.394 6.175 5.053-1.324-7.317-5.351-13.632-9.126-19.888"/><path fill="#144e55" d="M262.167 133.693c3.489 2.619 11.326 9.187 15.317 9.93-.411 2.347-.953 4.364-2.051 6.484-1.044-.175-2.112-.251-3.167-.36-1.671-4.263-4.364-7.89-7.04-11.559-1.054-1.447-2.241-2.9-3.059-4.495"/><path fill="#cb7535" d="M287.93 96.322c.629 2.912 1.235 5.812 1.646 8.763l1.664-3.935c-.28 2.268-.212 4.599-.295 6.882a109 109 0 0 1-1.015 11.944c-1.581-2.068-3.532-3.795-5.232-5.758.586-3.66 1.605-7.211 2.292-10.846.44-2.335.51-4.717.94-7.05"/><path fill="#144e55" d="M180.063 101.939c-4.216 5.352-16.361 16.479-22.704 19.445 6.507-8.023 13.253-14.909 22.704-19.445"/><path fill="#d2c9c7" d="M133.316 107.991c2.934-1.016 11.575-5.266 14.253-5.044l-1.814 1.175c-.902 1.451-3.715 2.653-5.153 3.742-5.156 3.904-10.044 8.069-15.326 11.833-1.715 1.222-3.558 2.707-5.483 3.565l-2.168 2.052c-.029-.601.297-1.271.012-1.79l-.501.356-.136-.166c.252-2.669 1.242-5.475 1.845-8.11l.081-.096c3.658-2.013 7.017-4.574 11.035-5.88l.098-.166 3.175-1.373z"/><path fill="#cb7535" d="M118.926 115.508c3.658-2.013 7.017-4.574 11.035-5.88-.442 1.507-.819 3.152-1.479 4.576-1.704 3.677-5.983 6.105-8.689 9.058l-2.168 2.052c-.029-.601.297-1.271.012-1.79l-.501.356-.136-.166c.252-2.669 1.242-5.475 1.845-8.11zm14.39-7.517c2.934-1.016 11.575-5.266 14.253-5.044l-1.814 1.175c-2.316 1.328-4.642 2.663-6.91 4.074-2.293 1.427-4.477 3.034-6.972 4.087q-.106.047-.21.098a90 90 0 0 1 1.571-4.292zm136.532-.256c1.667-.286 9.761 4.637 11.834 5.523l.067.157c.658 2.749 1.633 5.671 1.905 8.471l-.125.157-.678-.424c-.081.231-.181.469-.241.706-3.653-2.929-7.177-6.89-11.264-9.157.094-1.668-.958-3.848-1.498-5.433"/><path fill="#d2c9c7" d="m255.64 101.891 1.019.437c2.752.181 7.06 2.566 9.665 3.715l.106.071c.982.368 2.2 1.001 3.219 1.164l.199.458c.54 1.585 1.592 3.765 1.499 5.433-2.329-.632-9.062-6.41-11.341-8.09-1.411-1.042-3.163-1.926-4.366-3.188"/><path fill="#cb7535" d="M256.659 102.329c2.752.18 7.061 2.565 9.666 3.714l.105.071c.264.752.943 2.133.75 2.898l-.559-.35c-.5-.007-.276.037-.68-.097-.135-.301-.305-.371-.563-.567l-.189.277.015-.152c-2.885-1.858-5.681-3.896-8.545-5.794"/><path fill="#e7bea3" d="M277.484 143.624c.247.173.531.338.754.54 4.341 1.568 10.321 1.944 14.764.534 3.332 4.216 5.264 9.521 6.011 14.792.183 1.29.428 2.673.272 3.976a2.5 2.5 0 0 1-.343 1.066c-.489-.032-.541-.156-.865-.512-.32-.354-.664-.9-.824-1.353a106 106 0 0 1-3.194-5.704c.855 5.667-1.683 12.609-5.035 17.121-1.611 2.168-3.607 3.794-5.627 5.55.424 2.544-.147 5.438-.342 8.001-.621 8.168-.886 19.948-5.807 26.818-2.844 3.972-8.275 6.917-13.051 7.692-.702.114-1.409.149-2.111.265-4.977.911-9.941 1.075-14.983 1.268q-9.864.338-19.733.374c-3.144.014-6.291-.002-9.435.048-1.632.025-3.342.193-4.963.137-.076.321-.025.46-.305.658-1.98 1.398-3.792 3.115-5.726 4.603l-.169.021c-1.251 0-2.595-.075-3.827.143l-.15.07c-.563.918-1.115 1.835-1.75 2.707l-1.051.019c-.324-.909-.796-1.794-1.205-2.669l-.102-.063q-2.288.01-4.575.054l-.11-.018c-4.515-.586-9.046-.716-13.58-1.055-3.068-.226-6.695-.892-9.746-.537-.417-.442-.77-1.156-1.111-1.673-.406-.824-.981-1.538-1.523-2.273-3.822-.182-7.639-.539-11.461-.753-2.696.083-5.423-.245-8.118-.382-4.589-.235-9.209-.297-13.737-1.169-1.748-.247-3.458-1.162-4.883-2.183-11.532-8.271-11.162-18.473-12.273-31.284-.158-1.825-.183-3.701-.477-5.504l-.042-.25c.584-1.038 1.351-1.974 1.949-3.019 1.637-2.858 2.504-5.777 3.338-8.936.97 4.436.647 8.066-.542 12.413 1.958-.519 3.771-.998 5.308-2.407l.739-.472c-.865 1.953-5.552 4.195-7.525 5.491.001 3.497-.026 7.013.411 10.488.753 5.981 3.411 14.8 7.727 19.242 1.357 1.397 2.793 2.665 4.65 3.327 10.149 3.611 29.926 3.609 41.076 3.653 2.203.008 4.408.236 6.609.203 2.991-.046 5.972-.344 8.968-.357l35.936.114c3.088.027 6.135-.452 9.215-.562 10.352-.372 30.796-.172 38.29-7.679 6.912-6.925 8.161-20.554 8.142-29.855-2.534 1.05-5.423 2.284-8.208 1.536-1.22-.328-3.503-1.622-4.008-2.824-.313-.744-.199-1.642.119-2.365.539-1.234 1.629-2.297 2.38-3.419 1.405-2.096 2.59-4.473 3.487-6.831 1.974-5.188 1.92-10.541 1.99-15.999.017-1.297.341-2.72-.209-3.933-.521-.382-.828-.34-1.459-.4 1.098-2.12 1.639-4.137 2.05-6.484"/><path fill="#17616e" d="M278.237 144.163c4.342 1.567 10.321 1.944 14.765.534 3.331 4.215 5.263 9.52 6.01 14.791.183 1.29.428 2.673.272 3.976a2.5 2.5 0 0 1-.342 1.067c-.49-.032-.542-.157-.866-.513-.319-.354-.664-.9-.824-1.352a107 107 0 0 1-3.194-5.704c.855 5.666-1.683 12.609-5.035 17.12-1.61 2.168-3.607 3.794-5.627 5.55-2.806 1.722-5.657 3.362-9.003 3.67-1.141.105-2.713.249-3.599-.629-.228-.225-.681-1.169-.564-1.513.438-1.293 2.845-4.197 3.69-5.516 1.056-1.655 1.899-3.414 2.646-5.228 2.175-5.289 2.675-12.958 2.404-18.658-.123-2.541-.515-5.061-.733-7.595"/><path fill="#144e55" d="M278.237 144.163c4.342 1.567 10.321 1.944 14.765.534 3.331 4.215 5.263 9.52 6.01 14.791.183 1.29.428 2.673.272 3.976a2.5 2.5 0 0 1-.342 1.067c-.49-.032-.542-.157-.866-.513-.319-.354-.664-.9-.824-1.352.745-3.478-2.808-11.464-4.503-14.741-4.905 2.335-7.443 2.639-12.812 2.576.259 2.322.23 4.726.249 7.061.077 9.177-1.457 15.807-6.314 23.673 4-1.057 8.041-3.465 11.137-6.186 1.893-1.661 4.078-3.758 5.311-5.977 2.576-4.631 2.325-13.484 2.7-18.854.272 1.663.256 5.535 1.038 6.744.855 5.666-1.683 12.609-5.035 17.12-1.61 2.168-3.607 3.794-5.627 5.55-2.806 1.722-5.657 3.362-9.003 3.67-1.141.105-2.713.249-3.599-.629-.228-.225-.681-1.169-.564-1.513.438-1.293 2.845-4.197 3.69-5.516 1.056-1.655 1.899-3.414 2.646-5.228 2.175-5.289 2.675-12.958 2.404-18.658-.123-2.541-.515-5.061-.733-7.595"/><path fill="#68797b" d="M168.042 224.223c7.015-.575 14.172.718 21.156-.021-.085.308-.266.561-.089.849.902 1.461 3.55 3.46 4.893 4.709-4.515-.585-9.046-.716-13.58-1.054-3.067-.226-6.694-.892-9.746-.537-.417-.443-.77-1.156-1.111-1.673-.405-.824-.98-1.538-1.523-2.273"/><path fill="#144e55" d="M189.198 224.203c2.57-.121 5.162.106 7.743.004.533 1.86 1.057 3.709 1.746 5.519q-2.288.01-4.575.054l-.11-.019c-1.343-1.25-3.991-3.248-4.893-4.709-.177-.289.004-.542.089-.849m13.748 5.458c.672-1.407 2.412-3.638 2.61-5.083l-.533-.157.363.02-.167-.095c2.584.042 5.17-.052 7.754-.11-.077.322-.025.461-.305.658-1.98 1.399-3.792 3.115-5.727 4.603l-.169.021c-1.251 0-2.595-.075-3.826.143"/><path fill="#feebd0" d="M198.789 229.787a44 44 0 0 1 4.006-.056c-.563.918-1.115 1.835-1.75 2.707l-1.051.018c-.325-.909-.796-1.793-1.205-2.669"/><path fill="#17616e" d="M115.817 178.745c-3.537-4.753-9.738-5.765-13.224-10.717-2.414-3.429-2.935-7.688-2.23-11.756.689-3.973 2.428-6.886 4.856-10.039.607-.787 1.228-1.777 2.039-2.352 2.115 1.922 10.016 3.302 12.893 3.164.353-.016.248-.008.581-.067l1.189 1.751.12.076c4.453 6.003 12.415 12.146 11.214 20.431-.632 4.361-2.497 7.828-5.412 11.041l-.739.472c-1.537 1.409-3.351 1.888-5.309 2.406 1.19-4.346 1.513-7.976.543-12.413-.834 3.16-1.701 6.079-3.338 8.937-.598 1.044-1.365 1.98-1.949 3.019-.02-.019-.035-.044-.059-.055-.219-.104-.435-.126-.625-.301-.747-.686-.538-2.638-.55-3.597"/><path fill="#144e55" d="M115.817 178.745c-3.537-4.753-9.738-5.765-13.224-10.717-2.414-3.429-2.935-7.688-2.23-11.756.689-3.973 2.428-6.886 4.856-10.039.607-.787 1.228-1.777 2.039-2.352 2.115 1.922 10.016 3.302 12.893 3.164.353-.016.248-.008.581-.067l1.189 1.751c-.917.655-2.375.323-3.449.148-1.27-.207-2.537-.477-3.814-.64-1.113-.142-2.425-.042-3.479-.365-1.178-.362-2.823-1.869-3.732-2.687-1.69 5.175-4.923 10.153-2.148 15.646 2.835 5.609 8.98 8.797 12.466 13.995.455-2.15 1.184-4.772 3.14-6.059.643-.424 1.389-.621 2.146-.419 1.221.326 2.068 1.517 2.6 2.59 1.577 3.185 1.432 6.356 1.453 9.811-1.537 1.409-3.351 1.888-5.309 2.406 1.19-4.346 1.513-7.976.543-12.413-.834 3.16-1.701 6.079-3.338 8.937-.598 1.044-1.365 1.98-1.949 3.019-.02-.019-.035-.044-.059-.055-.219-.104-.435-.126-.625-.301-.747-.686-.538-2.638-.55-3.597"/><path fill="#e7bea3" d="M180.063 101.939c.222-.296.579-.412.906-.574 1.705 6.42 4.677 13.15 9.532 17.822 2.996 3.47 6.485 5.738 10.379 8.07-2.439.374-5.115-.079-7.599.007-3.649.127-7.225.629-10.846 1.036-4.525.509-12.137.758-16.005 3.082-4.708-.654-8.731-.397-13.388.45-1.45.264-3.038.408-4.274 1.266-.282.482-.271.464-.164 1.014 1.243 1.611 3.867 2.359 5.721 3.049-1.149 1.067-2.587 1.846-3.915 2.669-7.547 4.673-13.136 6.456-21.828 8.012-2.122.38-4.388.909-6.542.964l-.12-.076-1.189-1.751c2.283-.446 4.626-.671 6.865-1.319 9.194-2.66 16.904-9.135 23.044-16.261 2.182-2.532 4.121-5.518 6.518-7.825l.201-.19c6.342-2.966 18.488-14.093 22.704-19.445"/><path fill="#144e55" d="M154.326 137.159c-1.854-.69-4.479-1.437-5.721-3.049-.107-.549-.118-.531.164-1.013 1.236-.859 2.824-1.002 4.274-1.266 4.656-.848 8.68-1.105 13.388-.451 6.398 1.225 16.794 3.77 21.784 7.756 1.436 1.148 2.868 2.941 3.931 4.44.408.576.581 1.026.445 1.742-.744.702-1.645.671-2.625.644-3.601-.099-7.419-1.143-10.924-1.931-8.317-1.871-16.739-3.823-24.716-6.872"/><path fill="#17616e" d="M163.479 132.86c3.362-.233 14.689 3.301 18.273 4.644 2.017.755 3.942 1.632 5.859 2.608.801 1.378 1.826 2.479 2.902 3.643a191 191 0 0 0-7.539-.789c-3.528-.061-7.35-1.56-10.742-2.42-3.034-.769-6.129-1.355-9.136-2.218-2.51-.721-5.109-1.832-7.722-1.978 2.62-1.274 5.611-2.061 8.105-3.49m75.342.013.182.402c.808 1.634 1.557 3.508 2.769 4.88q-.084.018-.166.038c-2.586.629-5.064 1.931-7.609 2.754-3.611 1.167-17.782 4.57-20.682 2.88-.236-.138-.461-.319-.676-.485 1.376-1.712 2.266-3.682 4.142-4.971 2.707-1.859 9.996-2.649 13.428-3.368a113 113 0 0 0 7.727-1.856z"/><path fill="#144e55" d="m241.772 138.154-.027.557c-.829.707-1.866 1.027-2.815 1.536-2.227.922-4.481 2.046-6.778 2.773-3.562 1.127-16.083 3.422-19.323 2.102-.288-.117-.305-.266-.448-.519.039-.461.095-.827.257-1.262.216.167.44.347.677.485 2.899 1.69 17.071-1.712 20.682-2.88 2.544-.822 5.023-2.124 7.609-2.754z"/><path fill="#e7bea3" d="M239.003 133.275c1.329.124 2.528.825 3.68 1.46.482.94.978 1.875 1.434 2.826.004.071.002.142.009.213.062.785.469 1.47.184 2.249-.213.145-.392.377-.664.303-.473-.129-.888-.652-1.233-.989-1.079-.141-2.283.826-3.482.911.948-.51 1.986-.829 2.814-1.536l.027-.557c-1.212-1.372-1.961-3.246-2.769-4.88"/><path fill="#17616e" d="M272.267 149.747c1.054.108 2.123.185 3.167.359-.424.663-.913 1.58-1.584 2.001-.295.186-.365.088-.674.011-.604-.643-.706-1.536-.909-2.371"/><path fill="#fefefe" d="M151.236 151.775c6.735-4.975 14.761-6.164 22.903-4.984 6.846.991 12.231 4.519 16.291 10.063 1.236 1.687 2.017 3.411 2.832 5.331.934 1.629 1.304 3.236 1.304 5.112 1.156 3.63-.117 10.463-1.861 13.814-1.053 2.024-2.778 4.678-4.861 5.717l.283.088c-.75 1.217-3.064 2.466-4.364 2.999-5.302 2.47-11.414 3.887-17.297 3.689-5.209-.175-8.536-1.033-12.904-3.88-1.852-1.207-3.447-2.402-4.96-4.015-.63-.624-1.216-1.2-1.706-1.946-.343-.732-.914-1.402-1.302-2.131-1.724-3.244-3.17-6.905-3.298-10.619-.152-4.406 2.548-12.485 5.512-15.65-.07-.076-.052-.201-.069-.303 1-1.246 2.16-2.404 3.497-3.285"/><path fill="#e7bea3" d="M151.236 151.775c6.734-4.975 14.761-6.164 22.903-4.984 6.846.991 12.231 4.519 16.291 10.063 1.236 1.687 2.017 3.411 2.832 5.331.934 1.629 1.304 3.236 1.304 5.112-.631-.351-1.241-.743-1.871-1.099-3.145-1.781-6.712-3.148-10.19-4.142-3.685-1.053-32.277-6.966-33.861-6.383-.529.195.19.041-.567.165l-.269-.475c-.07-.076-.052-.201-.069-.303 1-1.246 2.16-2.404 3.497-3.285"/><path fill="#de9a80" d="M151.236 151.775c6.735-4.975 14.761-6.164 22.903-4.984 6.846.991 12.231 4.519 16.291 10.063 1.236 1.687 2.017 3.411 2.832 5.331l-.308.062c-2.701-2.532-5.825-4.33-9.192-5.833-10.428-4.654-21.343-4.833-32.526-4.639"/><path fill="#e7bea3" d="M146.896 183.763c3.513-1.524 25.998.441 30.748 1.043 1.91.242 8.272 1.632 9.697 1.273.217.244.344.466.503.749l.282.089c-.75 1.217-3.063 2.465-4.363 2.998-5.303 2.47-11.414 3.887-17.298 3.689-5.208-.174-8.536-1.033-12.903-3.88-1.853-1.207-3.447-2.402-4.961-4.015-.629-.624-1.215-1.2-1.705-1.946"/><path fill="#de9a80" d="M148.602 185.708c7.526 2.44 15.359 4.535 23.338 4.485 3.377-.021 8.688-.811 11.823-.279-5.302 2.47-11.414 3.887-17.297 3.689-5.209-.175-8.536-1.033-12.904-3.88-1.853-1.207-3.447-2.403-4.96-4.015"/><path fill="#353332" d="M179.049 163.407a5 5 0 0 1 .51-.053q.085-.006.171-.007.085-.002.171-.001.086 0 .171.005a5 5 0 0 1 .848.107q.084.018.167.039.083.02.165.043.083.023.164.05a4 4 0 0 1 .322.114l.159.065.156.07a11 11 0 0 1 .304.156 6 6 0 0 1 .436.271 4 4 0 0 1 .275.204 5 5 0 0 1 .385.338q.062.06.121.121a5 5 0 0 1 .23.254l.108.133q.053.066.103.136l.1.139a4 4 0 0 1 .184.288 4 4 0 0 1 .165.3 4 4 0 0 1 .145.31l.065.158q.031.08.059.16a4 4 0 0 1 .103.327q.023.083.043.165.021.084.038.167.018.084.032.168a5 5 0 0 1 .048.339q.01.085.016.17l.01.171.004.171-.001.171-.007.171-.013.171q-.008.084-.019.17l-.023.169a5 5 0 0 1-.152.667 4 4 0 0 1-.108.325q-.03.08-.062.159a7 7 0 0 1-.14.312l-.077.153q-.04.075-.083.15a6 6 0 0 1-.18.291 4 4 0 0 1-.198.278l-.106.135-.11.13a7 7 0 0 1-.234.25q-.06.061-.123.119a5 5 0 0 1-.391.332 4 4 0 0 1-.422.292q-.072.046-.147.088a4 4 0 0 1-.302.161 7 7 0 0 1-.311.141 8 8 0 0 1-.321.119q-.08.028-.163.052-.082.024-.165.046a4.5 4.5 0 0 1-.671.131 5.2 5.2 0 0 1-1.507-.029 5 5 0 0 1-.972-.262 5 5 0 0 1-.463-.2 4 4 0 0 1-.44-.245 5 5 0 0 1-.612-.443 6 6 0 0 1-.369-.344 5 5 0 0 1-.63-.786 5 5 0 0 1-.465-.892 5.2 5.2 0 0 1-.377-1.969 5.3 5.3 0 0 1 .228-1.49 5.2 5.2 0 0 1 .512-1.148q.064-.11.135-.213.07-.105.145-.206a5 5 0 0 1 .676-.747 4 4 0 0 1 .389-.321 6 6 0 0 1 .418-.281 6 6 0 0 1 .443-.239q.114-.055.23-.103a5.2 5.2 0 0 1 1.21-.343"/><path fill="#fefefe" d="M209.452 158.127c2.078-2.918 4.135-5.378 7.136-7.403 5.853-3.95 14.823-5.426 21.703-4.063 5.936 1.177 13.36 5.102 16.795 10.226.311.383.379.365.427.883-.317.256-.328.265-.701.314.722.184 1.021.215 1.463.88 2.519 3.801 2.457 13.2 1.345 17.562-.525 2.063-2.171 6.729-3.979 7.901l-.234.001c-.212 1.135-1.736 2.595-2.655 3.333-.035.027-.075.043-.112.064-6.175 5.284-14.636 6.042-22.448 5.467-3.601-.265-7.422-1.133-10.444-3.198-1.218-.854-2.603-1.682-3.653-2.73l.135-.231c-2.435-1.011-4.649-5.205-5.687-7.515-1.457-3.24-3.117-9.507-1.797-12.957-.02-2.876 1.502-5.999 2.706-8.534"/><path fill="#e7bea3" d="M209.452 158.127c2.077-2.918 4.134-5.378 7.135-7.403 5.853-3.95 14.823-5.426 21.703-4.063 5.936 1.177 13.36 5.102 16.795 10.226.311.383.38.365.428.883-.318.256-.328.265-.702.314-3.906-.293-7.8-.062-11.701.16-9.668.549-18.385 1.705-27.629 4.787-3.103 1.035-5.859 2.625-8.736 3.63-.02-2.876 1.503-5.999 2.707-8.534"/><path fill="#de9a80" d="M209.452 158.127c2.078-2.918 4.134-5.378 7.136-7.403 5.852-3.95 14.823-5.426 21.703-4.063 5.936 1.177 13.36 5.102 16.795 10.226-.081-.026-.167-.05-.247-.078-1.343-.462-2.582-1.744-4.004-2.293-1.223-.472-2.601-.77-3.865-1.127-9.561-2.696-20.931-3.437-30.241.674-2.472 1.092-4.772 3.321-7.277 4.064"/><path fill="#e7bea3" d="M214.23 187.132c7.274-2.447 20.758-3.122 28.575-3 3.399.053 6.836.485 10.232.316l.369-.021c-.212 1.136-1.735 2.596-2.654 3.334-.036.027-.075.042-.112.064-6.175 5.284-14.637 6.041-22.449 5.466-3.601-.265-7.422-1.132-10.443-3.198-1.219-.854-2.603-1.681-3.653-2.73z"/><path fill="#de9a80" d="M217.748 190.094c6.278.984 18.061.713 24.239-.338 2.912-.495 5.741-1.434 8.653-1.931-6.174 5.284-14.636 6.042-22.448 5.467-3.601-.265-7.422-1.133-10.444-3.198"/><path fill="#353332" d="M219.469 163.486c1.174-.073 2.301.254 3.304.864a5.1 5.1 0 0 1 1.195.999q.085.097.168.199a5 5 0 0 1 .301.424 5 5 0 0 1 .372.688q.052.12.099.241a5 5 0 0 1 .222.749q.026.113.044.227.02.116.033.23.013.116.021.231.009.117.01.232a4 4 0 0 1-.002.233 4 4 0 0 1-.037.462 4.6 4.6 0 0 1-.38 1.335q-.048.106-.099.209a5 5 0 0 1-.233.402c-1.002 1.54-2.389 2.037-4.091 2.401-1.114-.076-2.1-.226-3.09-.773-1.264-.698-2.266-1.806-2.657-3.214a4 4 0 0 1-.132-.664 3 3 0 0 1-.032-.45v-.225a4 4 0 0 1 .04-.45 6 6 0 0 1 .085-.443 4 4 0 0 1 .131-.432 4 4 0 0 1 .39-.813c.986-1.592 2.613-2.212 4.338-2.662"/><path fill="#d2c9c7" d="m251.223 208.703-.299.237c-1.019.11-1.894.498-2.938.272-.893-.193-1.74-.681-2.207-1.49-.473-.817-.448-1.785-.174-2.663 1.16-3.713 12.106-15.524 15.751-17.353.915-.459 2.011-.78 3.009-.392.747.291 1.268.922 1.567 1.651.876 2.131.131 4.935-.722 6.987-1.135 2.727-5.222 8.283-8.009 9.25-.069.024-.141.033-.212.05-1.868 1.034-3.8 2.735-5.766 3.451"/><path fill="#fefefe" d="M251.129 199.267c2.81 1.675 5.932 2.433 9.091 3.116-1.025.982-2.327 1.786-3.232 2.868-1.868 1.034-3.8 2.735-5.765 3.451-.218-.07-.476-.064-.704-.074-1.158-.054-2.15-.094-3.099-.847-.487-.386-.784-.912-.797-1.547-.041-2.237 3.122-5.307 4.506-6.967m12.048-11.486c.43-.008.816.024 1.221.182.618.241 1.091.901 1.311 1.503.841 2.299-.435 5.45-1.338 7.565-.816-.773-1.698-1.475-2.561-2.193-1.684-.784-3.396-1.341-5.16-1.908 2.03-2.03 3.956-3.83 6.527-5.149"/><path fill="#353332" d="M183.994 197.5c-.039 1.153-1.679 3.188-2.404 4.112 9.615 2.533 19.886 4.141 29.851 4.042 3.943-.039 7.971-.45 11.9-.795-3.696 1.356-7.071 1.865-10.973 2.123-7.827.087-24.598-1.143-31.122-4.952a21.6 21.6 0 0 1-4.04 3.409c-.631.412-1.894 1.267-2.632 1.112.061-.497.185-.705.551-1.056 1.081-1.04 2.435-1.864 3.573-2.86 1.833-1.605 3.542-3.437 5.296-5.135"/><path fill="#76979d" d="M134.726 221.919c4.528.872 9.147.934 13.737 1.168 2.695.137 5.422.465 8.117.382 3.823.214 7.64.571 11.462.754.542.734 1.117 1.448 1.522 2.272.341.517.695 1.231 1.112 1.673 3.051-.355 6.678.311 9.745.538 4.535.338 9.065.469 13.581 1.054l.11.019q2.288-.043 4.575-.054l.102.062c.409.876.88 1.76 1.205 2.669l1.051-.019c.635-.871 1.187-1.789 1.75-2.706l.15-.071c1.232-.218 2.575-.143 3.827-.143l.169-.021c1.934-1.488 3.746-3.204 5.726-4.603.28-.197.228-.336.305-.658 1.621.056 3.331-.112 4.963-.137 3.144-.05 6.29-.033 9.435-.048a643 643 0 0 0 19.733-.373c5.042-.193 10.006-.357 14.983-1.268 2.922 1.502 5.558 3.511 8.296 5.319 2.499 1.65 5.18 3.018 7.673 4.672 2.864 1.901 5.354 4.325 7.716 6.803.615-.336 1.163-.479 1.843-.624.453-1.171.907-2.408 1.623-3.444 1.59-2.303 4.357-3.231 6.995-3.694 1.598.394 3.086.768 4.537 1.569 4.485 2.659 6.801 5.629 8.061 10.656 1.542 6.157.896 14.09-2.449 19.553-.65 1.062-1.395 2.058-2.348 2.868-1.726 1.471-5.917 3.516-8.084 4.159l-.296.274c-.795-.344-1.437-1.058-2.07-1.64-1.477-.012-3.053-.556-4.472-.934-1.25-.325-2.665-1.486-3.827-2.114-.372 1.149-.754 2.295-1.069 3.464-.7 2.449-1.248 5.043-2.128 7.428-8.829-.675-20.111-6.449-25.922-13.13-1.376-1.583-2.277-3.194-3.13-5.099.872 3.032.865 6.181 1.546 9.248.855 3.852 2.505 7.594 3.14 11.467-.799 1.756-1.538 3.223-3.337 4.13.27 2.37.519 4.739.948 7.088.484 2.657 1.312 5.444 1.335 8.146-1.503 1.816-3.383 3.064-5.303 4.402-.961.849-2.181 1.903-3.472 2.171l.07.478c-1.212-.088-2.185.635-3.254 1.12-10.043 4.56-20.848-1.799-30.165-5.313-4.252.208-8.524.303-12.769.534-2.049.112-4.09.392-6.141.462-2.957.102-5.937-.106-8.884-.332-2.05-.355-4.214-.392-6.286-.647-2.26-.276-4.484-.812-6.697-1.335-1.585-.629-3.366-.967-5.012-1.43-2.975-.836-6.102-1.891-8.907-3.192-.851-.394-1.195-.552-1.521-1.446-.323-.007-.677-.131-.908.132-.875 1.001-.578 2.833-1.835 3.693-.591.313-1.123.741-1.714 1.031-1.757.857-3.52.982-5.364.351-1.019 1.231-1.882 1.909-3.465 2.283-3.544.84-7.845-.635-10.535-2.985-1.604-1.403-2.651-2.955-4.509-4.124-.056.16-.145.438-.228.577-.248.413-.516.463-.941.613-.93-.075-1.698-.629-2.413-1.194-1.576-1.247-2.955-2.486-3.206-4.528-.664-.389-1.058-.909-1.575-1.455-.579-.611-1.142-.575-1.924-.586-.878.405-2.014.289-2.91-.029-3.102-1.096-6.287-5.122-7.68-8.015-1.077-2.235-1.744-4.51-2.43-6.889-2.437-8.455-1.981-14.387.957-22.682 4.412-12.457 15.192-22.455 26.931-28.055z"/><path fill="#76979d" d="M212.972 224.235c1.621.056 3.331-.112 4.963-.137 3.144-.05 6.29-.033 9.435-.048a643 643 0 0 0 19.733-.373c5.041-.193 10.006-.357 14.983-1.268 2.922 1.502 5.558 3.511 8.296 5.319 2.499 1.65 5.18 3.018 7.673 4.672 2.864 1.901 5.354 4.325 7.716 6.803.615-.336 1.163-.479 1.843-.624.453-1.171.907-2.408 1.623-3.444 1.59-2.303 4.357-3.231 6.995-3.694 1.598.394 3.086.768 4.537 1.569 4.485 2.659 6.801 5.629 8.061 10.656 1.542 6.157.896 14.09-2.449 19.553-.65 1.062-1.395 2.058-2.348 2.868-1.726 1.471-5.917 3.516-8.084 4.159l-.296.274c-.795-.345-1.437-1.058-2.07-1.64-1.477-.012-3.053-.556-4.472-.934-1.25-.325-2.665-1.486-3.827-2.114-.372 1.149-.754 2.295-1.069 3.463-.7 2.45-1.248 5.044-2.128 7.429-8.829-.675-20.111-6.449-25.922-13.13-1.376-1.583-2.277-3.194-3.13-5.099.872 3.032.865 6.18 1.546 9.248.855 3.852 2.505 7.594 3.14 11.467-.799 1.756-1.538 3.223-3.337 4.13-.961.615-1.737.874-2.866 1.007-.967-.106-1.694-.729-2.478-1.262l-1.204-.735-.901-.436c-7.075-3.976-16.884-6.71-24.804-8.47-2.951-.658-6.013-.639-8.816-1.868-3.981-1.743-9.187-6.201-12.871-8.816l.253-17.254-.032-.134c.144-1.352-.009-2.771.364-4.085l1.663-.28c.035-.054.077-.104.104-.16.717-1.484-1.135-4.452-1.502-5.981-.2-.833-.009-1.076.422-1.758l-.671-.671c.635-.871 1.187-1.789 1.75-2.706l.15-.071c1.232-.218 2.575-.143 3.827-.143l.169-.021c1.934-1.488 3.746-3.204 5.726-4.603.28-.197.228-.336.305-.658"/><path fill="#e7bea3" d="M296.232 231.441c1.598.394 3.086.768 4.537 1.569 4.485 2.659 6.801 5.629 8.061 10.655 1.542 6.158.897 14.091-2.449 19.553-.65 1.063-1.395 2.059-2.347 2.869-1.727 1.471-5.917 3.516-8.084 4.159l-.297.274c-.795-.345-1.436-1.059-2.069-1.64-1.478-.012-3.053-.556-4.473-.934-1.249-.326-2.665-1.486-3.827-2.115l-.78-.765c-2.283-2.211-3.354-4.388-3.888-7.512.009-.255.021-.51.048-.765.156-1.532 1.229-3.518 2.412-4.481.215-.175.375-.272.527-.513.11-.176.083-.122-.004-.307-.675-1.426-1.117-2.765-1.464-4.3.011-1.063.104-2.182.281-3.23.369-2.212 1.633-3.487 3.356-4.755.614-.336 1.162-.479 1.843-.625.452-1.17.907-2.407 1.623-3.443 1.59-2.304 4.356-3.231 6.994-3.694"/><path fill="#feebd0" d="M295.01 232.643c2.253-.05 4.802 1.007 6.691 2.181 3.592 2.236 5.73 6.218 6.656 10.251 1.085 4.726.699 11.455-1.951 15.639-1.607 2.532-4.066 4.126-6.982 4.75-4.626.992-9.879-.211-13.808-2.824-2.269-1.509-3.084-3.122-3.603-5.695-.145-.648.043-1.337.268-1.951.409-1.127 1.193-1.798 2.268-2.283 2.41-1.086 4.772-.764 7.175.087-.552-.65-1.114-1.318-1.789-1.843-2.43-1.895-5.386-2.358-6.347-5.78-.33-1.183-.201-2.381.417-3.448.635-1.091 1.806-1.774 3.006-2.077 4.526-1.144 8.465 2.565 12.008 4.711l.189.112c-.94-1.955-2.455-4.01-4.288-5.218-1.683-1.11-4.03-1.295-5.051-3.227-.034-.631-.061-.946.386-1.455 1.249-1.419 2.986-1.76 4.755-1.93"/><path fill="#68797b" d="M252.133 256.554c1.515 1.841 3.123 3.211 5.134 4.487 4.521 2.871 15.797 7.725 21.091 6.47.874-.21 2.173-.274 2.914-.76.071-1.249-1.505-3.076-1.791-4.483-.324-1.586.091-3.244 1.019-4.556q.056-.08.116-.157c.534 3.123 1.605 5.3 3.888 7.511l.78.766c-.371 1.149-.753 2.295-1.069 3.463-.699 2.45-1.247 5.044-2.127 7.429-8.829-.675-20.112-6.449-25.923-13.13-1.376-1.583-2.277-3.194-3.13-5.099.872 3.032.866 6.18 1.547 9.248.855 3.852 2.505 7.594 3.14 11.467-.799 1.756-1.538 3.223-3.338 4.13-.961.615-1.737.874-2.866 1.007-.967-.106-1.693-.729-2.478-1.262l-1.204-.735a5.2 5.2 0 0 0 2.161-.799c5.34-3.418 2.192-14.524 1.795-19.831-.133-1.768-.046-3.437.341-5.166m-39.16-32.319c1.621.056 3.331-.112 4.962-.137 3.144-.05 6.291-.033 9.435-.048a643 643 0 0 0 19.734-.373c5.041-.193 10.006-.357 14.982-1.268 2.923 1.502 5.559 3.511 8.296 5.319 2.499 1.65 5.181 3.018 7.673 4.672 2.864 1.901 5.355 4.325 7.717 6.803-1.723 1.268-2.987 2.543-3.356 4.755a21 21 0 0 0-.28 3.23l-.121.251c-.166-.922-.276-1.787-.236-2.73.093-2.256.836-3.698 2.453-5.211-3.788-3.788-8.171-7.295-12.81-10.01-2.617-1.532-5.463-2.771-7.976-4.462l-.216-.148c-2.692.339-5.402.492-8.09.893-2.787.415-5.56 1.075-8.362 1.382-3.769.415-7.605.573-11.386.876-9.502.762-18.918 1.415-28.451 1.467 1.935-1.488 3.746-3.204 5.726-4.603.281-.197.229-.336.306-.658m-10.281 16.772c.503.338 1.045.928 1.129 1.559.109.813-.479 1.529-1.02 2.06-.48.472-.895.58-1.53.731-.192.046-.382.1-.573.149l-.033-.134c.145-1.352-.009-2.771.365-4.085z"/><path fill="#17616e" d="M202.945 229.662c1.232-.218 2.575-.144 3.827-.144-1.671 1.208-3.519 2.219-5.055 3.591l-.672-.67c.635-.872 1.187-1.79 1.75-2.707z"/><path fill="#d2c9c7" d="M226.404 236.258c3.304-1.715 8.493-2.673 12.09-1.493 2.847.937 5.666 3.541 6.903 6.231 1.633 3.553 1.301 7.721-.106 11.295a11.4 11.4 0 0 1-1.216 2.287c.463.523.5 1.108.44 1.781-.116 1.299-.806 2.32-1.82 3.107-3.12 2.413-8.473 3.289-12.304 2.66-1.789-.294-6.471-2.55-7.413-4.142-.131-.22-.164-.363-.2-.602-3.291-3.086-2.953-4.354-4.505-8.294a4 4 0 0 1-.937-.186l.038-.399c.413-.228.739-.425 1.089-.749.086-.507.05-.615-.122-1.102a11 11 0 0 0-1.359-.231l-.135-.301c.382-.469.776-.394 1.355-.489.851-.741 1.353-2.456 1.851-3.481 1.279-2.638 3.549-4.921 6.351-5.892"/><path fill="#ab9f9b" d="M222.778 257.384c-3.291-3.087-2.953-4.355-4.505-8.294a4 4 0 0 1-.937-.187l.038-.398c.413-.229.739-.426 1.089-.75.086-.506.05-.614-.122-1.102a11 11 0 0 0-1.359-.23l-.135-.301c.382-.469.776-.394 1.355-.49.851-.741 1.353-2.455 1.851-3.48 1.279-2.638 3.549-4.921 6.351-5.893-2.988 3.182-6.618 6.625-6.492 11.376.079 2.953 2.013 6.789 4.168 8.806 2.299 2.153 5.278 2.842 8.341 2.676 4.111-.223 8.157-2.041 11.496-4.371l.158-.166c.463.523.5 1.108.44 1.78-.116 1.3-.806 2.321-1.82 3.107-3.12 2.414-8.473 3.29-12.304 2.661-1.789-.295-6.471-2.551-7.413-4.143-.131-.22-.164-.363-.2-.601"/><path fill="#68797b" d="M244.076 254.579c.463.523.5 1.109.44 1.781-.117 1.299-.806 2.321-1.821 3.107-3.119 2.414-8.472 3.29-12.303 2.661-1.789-.295-6.471-2.551-7.413-4.143-.131-.22-.164-.363-.2-.602a15.5 15.5 0 0 0 1.752 1.132c3.761 2.146 8.221 2.386 12.337 1.224 2.887-.816 5.539-2.304 7.05-4.994z"/><path fill="#e79548" d="M234.868 236.51c1.681-.104 3.991-.097 5.596.365l.118.457c-.259.818-7.119 8.233-8.225 9.765 1.762.206 3.516.311 5.282.461.587.05 1.339.07 1.729.533-.708 1.461-6.737 5.212-8.321 6.328-1.064.804-2.169 1.804-3.484 2.119l-.266-.284c.438-1.955 2.385-4.161 3.406-5.942-1.752.05-3.551.15-5.299.017-.882-.067-1.951-.079-2.563-.797.243-1.544 2.401-3.792 3.399-4.99.791-.948 6.312-7.694 7.045-7.889.45-.118 1.108-.099 1.583-.143"/><path fill="#68797b" d="M260.635 229.662c1.206.445 2.626 2.543 3.493 3.522.243-.369.502-.709.774-1.056.148.338-.265 1.09-.4 1.453.944 1.152 1.76 2.399 2.594 3.628l-2.91-2.69c-.085.131-.243.359-.288.504-.312 1.003 2.345 4.145 2.949 5.019-1.241-1.231-2.393-2.493-3.435-3.9-.585 1.482-1.121 3.001-1.98 4.35l-.112-.01-.116-.339c.222-1.66.938-3.1 1.668-4.584-.57-.822-1.141-1.629-1.778-2.404-.662 1.775-1.25 3.475-2.238 5.102q.023-.164.042-.328c.193-1.698.795-4.962 2.065-6.156l.367.029c.249.729.48 1.704 1.003 2.283.34.38.593.467 1.083.473l.256-.384c-.079-1.403-2.364-2.812-2.921-4.192-.041-.106-.076-.214-.116-.32"/><path fill="#033b63" d="M156.581 223.47c3.822.214 7.64.571 11.461.753.543.735 1.118 1.449 1.523 2.273.341.517.694 1.231 1.111 1.673 3.051-.355 6.679.311 9.746.537 4.534.339 9.065.469 13.58 1.055l.11.018q2.288-.043 4.575-.054l.103.063c.408.876.88 1.76 1.204 2.669l1.051-.019.672.67c-.432.683-.622.926-.423 1.758.367 1.53 2.219 4.498 1.503 5.982-.028.056-.07.106-.105.16l-1.662.28c-.374 1.314-.22 2.733-.365 4.084l.033.135-.253 17.254c3.683 2.615 8.889 7.073 12.87 8.816 2.804 1.229 5.865 1.21 8.817 1.868 7.92 1.76 17.728 4.494 24.804 8.47l.9.436 1.204.735c.785.533 1.511 1.156 2.478 1.262 1.129-.133 1.905-.393 2.866-1.007.27 2.37.519 4.738.949 7.088.483 2.656 1.312 5.444 1.334 8.146-1.502 1.816-3.383 3.063-5.302 4.402-.961.849-2.182 1.903-3.473 2.171l.071.477c-1.212-.087-2.186.635-3.254 1.121-10.044 4.56-20.849-1.799-30.165-5.313-.801-.463-1.36-1.15-1.976-1.827-2.157-2.586-4.471-5.226-6.29-8.061-2.058-3.298-2.331-6.998-2.085-10.79-.018-.224-.026-.444-.094-.662-.246-.795-1.107-1.237-1.798-1.565a27 27 0 0 1-2.072-1.098c-.006-.668.022-1.218.194-1.866l-1-.355c-.442-.811-2.451-1.787-3.281-2.337-3.123-2.063-6.212-4.169-8.998-6.681a152 152 0 0 1-14.153-14.8c-1.859-2.206-3.411-4.933-5.511-6.894-4.025-5.575-7.368-11.268-10.535-17.356-.413-.809-.998-1.6-1.36-2.413-.178-.403-.137-.648.035-1.044z"/><path fill="#76979d" d="M170.676 228.168c3.051-.355 6.678.311 9.745.538 4.535.338 9.065.469 13.581 1.054l.11.019q2.288-.043 4.575-.054l.102.062c.409.876.88 1.76 1.205 2.669l1.051-.019.671.671c-.431.683-.622.925-.422 1.758.367 1.529 2.219 4.497 1.502 5.981-.027.056-.07.106-.104.16l-1.663.28c-.373 1.314-.22 2.734-.365 4.085l.033.135-.253 17.253a11 11 0 0 1-1.043-.797c-1.651-1.536-3.439-2.928-5.087-4.477-4.835-4.543-9.066-9.288-13.286-14.393-1.572-1.903-3.2-3.748-4.633-5.762-2.083-2.926-3.752-6.151-5.719-9.163"/><path fill="#d2c9c7" d="m199.994 232.457 1.051-.019.671.67c-.432.683-.622.926-.422 1.758.367 1.53 2.219 4.498 1.502 5.982-.028.056-.07.106-.105.16l-1.662.28-1.148-.102c-.63-.222-1.184-.27-1.847-.307-.281-.191-.459-.382-.688-.629-.209-1.984 2.17-3.715 2.514-5.651.113-.633-.072-1.1-.416-1.632z"/><path fill="#17616e" d="m199.828 245.407.837-.035.032.135-.253 17.253a11 11 0 0 1-1.043-.797c.625-1.316.267-9.238.281-11.127.194-1.797.142-3.623.146-5.429"/><path fill="#68797b" d="M198.034 240.878c.664.037 1.218.085 1.847.307l1.148.102c-.373 1.314-.22 2.733-.364 4.084l-.837.036c-.004 1.805.048 3.632-.147 5.429-.111-1.783.009-3.601.052-5.386-.506-.209-1.073-.409-1.52-.728-.51-.365-.917-.961-.99-1.59-.104-.909.337-1.538.811-2.254"/><path fill="#144e55" d="m199.881 241.186 1.148.101c-.373 1.314-.22 2.734-.365 4.085l-.836.035z"/><path fill="#17616e" d="m198.687 229.725.103.062c.408.876.88 1.76 1.204 2.669l-.55.511-.366.145c-1.325-.025-3.989-2.414-4.966-3.333q2.288-.043 4.575-.054"/><path fill="#03304d" d="M156.581 223.47c3.822.214 7.64.571 11.461.753.543.735 1.118 1.449 1.523 2.273l.348 1.332-.163-.076-.176.137-.248-.229.134.231a231 231 0 0 1-10.024-.575c.86 1.976 2.203 3.536 3.266 5.381 1.342 2.333 2.535 4.778 3.986 7.043 1.709 2.669 3.721 5.157 5.655 7.662 2.232 2.893 4.412 5.909 6.823 8.651 3.949 4.489 10.335 10.118 15.106 13.795 3.879 2.993 9.139 4.674 12.487 8.23.027 1.606.31 3.169.568 4.75.866 5.312 2.383 9.749 6.376 13.582 2.267 2.175 18.484 7.7 21.828 7.677 3.748-.027 14.663-3.285 17.156-6.07.126-.144.247-.295.367-.444-.052-4.052-.934-8.599-.145-12.551l-.328-.014.199-.077c-.428-.179-.87-.334-1.262-.583 1.129-.133 1.905-.393 2.866-1.007.27 2.37.519 4.738.949 7.088.483 2.656 1.312 5.444 1.334 8.146-1.502 1.816-3.383 3.063-5.302 4.402-.961.849-2.182 1.903-3.473 2.171l.071.477c-1.212-.087-2.186.635-3.254 1.121-10.044 4.56-20.849-1.799-30.165-5.313-.801-.463-1.36-1.15-1.976-1.827-2.157-2.586-4.471-5.226-6.29-8.061-2.058-3.298-2.331-6.998-2.085-10.79-.018-.224-.026-.444-.094-.662-.246-.795-1.107-1.237-1.798-1.565a27 27 0 0 1-2.072-1.098c-.006-.668.022-1.218.194-1.866l-1-.355c-.442-.811-2.451-1.787-3.281-2.337-3.123-2.063-6.212-4.169-8.998-6.681a152 152 0 0 1-14.153-14.8c-1.859-2.206-3.411-4.933-5.511-6.894-4.025-5.575-7.368-11.268-10.535-17.356-.413-.809-.998-1.6-1.36-2.413-.178-.403-.137-.648.035-1.044z"/><path fill="#68797b" d="M200.228 277.43c-.006-.668.023-1.218.194-1.866 1.186.683 3.717 1.623 3.986 3.103.129.708-.063 1.399-.215 2.088-.019-.224-.027-.444-.094-.662-.247-.795-1.107-1.237-1.798-1.565a27 27 0 0 1-2.073-1.098"/><path fill="#033b63" d="M247.892 305.147c-.067-.355-.181-.502.01-.834.444-.772 1.312-1.246 2.146-1.492.581-.171.783-.108 1.316.155-.961.849-2.181 1.903-3.472 2.171"/><path fill="#feebd0" d="M215.834 277.758c2.113.442 4.319 1.87 6.291 2.783a48 48 0 0 0 5.506 2.128c2.798.896 5.676 1.635 8.54 2.291 2.811.645 11.534 1.936 13.52 3.294-5.803-.768-11.415-1.47-17.089-2.954-4.257-1.112-14.608-3.862-16.768-7.542m-3.014-.683c.405.156.822.413 1.165.679 1.251.969 1.768 2.654 1.961 4.161a4 4 0 0 1-.839-.299c-1.569-.797-1.797-3.011-2.287-4.541"/><path fill="#68797b" d="M134.726 221.919c4.528.872 9.147.934 13.737 1.168 2.695.137 5.422.465 8.117.382l-.96.214c-.173.396-.213.641-.035 1.044.361.813.946 1.604 1.36 2.414-3.529-.349-7.115-.5-10.622-.997-3.913-.552-7.772-1.564-11.615-2.465-3.633 1.675-7.295 3.653-10.317 6.303-5.346 4.686-9.114 12.247-11.544 18.829q-.247.684-.473 1.376a45.6 45.6 0 0 0-1.687 7.073 44 44 0 0 0-.353 2.889q-.065.724-.107 1.451a47 47 0 0 0-.072 2.91 47 47 0 0 0 .115 2.909 46 46 0 0 0 .523 4.334c.307 1.83.648 3.767 1.456 5.454.967 2.022 2.624 3.439 4.751 4.139 2.691.884 5.377.554 7.85-.781a42 42 0 0 0 4.391-2.754c.511-3.198 1.248-5.29 3.97-7.287 2.63-1.93 5.304-3.078 8.47-3.723.402-.083.937-.023 1.007-.455.705-4.354.252-6.658 2.557-10.784.413-.739.913-1.633 1.65-2.094.329-.205.652-.218 1.026-.241.468.301.549.538.644 1.09 1.045 6.019-1.771 12.314-.133 18.588.463.73.785 1.195.797 2.075 5.089 2.084 10.942 6.052 13.654 10.938.43 1.621.589 2.69-.084 4.298-.148.355-.419.768-.486 1.133-1.116 1.302-2.299 2.275-3.987 2.697-.323-.007-.677-.131-.908.132-.875 1.001-.578 2.833-1.835 3.693-.591.313-1.123.741-1.714 1.031-1.757.857-3.52.982-5.364.351-1.019 1.231-1.882 1.909-3.465 2.283-3.544.84-7.845-.635-10.535-2.985-1.604-1.403-2.651-2.955-4.509-4.124-.056.16-.145.438-.228.577-.248.413-.516.463-.941.613-.93-.075-1.698-.629-2.413-1.194-1.576-1.247-2.955-2.486-3.206-4.528-.664-.389-1.058-.909-1.575-1.455-.579-.61-1.142-.575-1.924-.586-.878.405-2.014.289-2.91-.029-3.102-1.096-6.287-5.122-7.68-8.015-1.077-2.235-1.744-4.51-2.43-6.889-2.437-8.455-1.981-14.387.957-22.682 4.412-12.457 15.192-22.455 26.931-28.055z"/><path fill="#feebd0" d="M145.847 273.745c.933.621 2.042 1.217 3.205 1.022l.177.213c5.09 2.084 10.942 6.052 13.655 10.938.43 1.621.588 2.69-.084 4.298-.149.355-.42.768-.487 1.134-1.116 1.301-2.298 2.274-3.987 2.696-.323-.007-.677-.131-.908.132-.875 1.001-.577 2.833-1.834 3.693-.592.313-1.124.741-1.715 1.031-1.756.857-3.519.982-5.364.351-1.019 1.231-1.881 1.909-3.464 2.283-3.545.841-7.846-.635-10.535-2.985-1.605-1.403-2.652-2.955-4.51-4.123.665-4.253 2.416-8.545 5.074-11.947l.087-.232.338-.525c1.137-.511 2.522-.274 3.741-.482 1.807-.309 5.03-2.445 6.119-3.891.27-.357.571-.689.864-1.028l.19-.473c-.392-.724-.502-1.287-.562-2.105"/><path fill="#e7bea3" d="M145.847 273.745c.933.621 2.042 1.217 3.205 1.022l.177.213c5.09 2.084 10.942 6.052 13.655 10.938.43 1.621.588 2.69-.084 4.298-.149.355-.42.768-.487 1.134-1.116 1.301-2.298 2.274-3.987 2.696-.323-.007-.677-.131-.908.132-.875 1.001-.577 2.833-1.834 3.693-.592.313-1.124.741-1.715 1.031-1.756.857-3.519.982-5.364.351-1.019 1.231-1.881 1.909-3.464 2.283-3.545.841-7.846-.635-10.535-2.985-1.605-1.403-2.652-2.955-4.51-4.123.665-4.253 2.416-8.545 5.074-11.947-.24.812-.722 1.586-1.074 2.358-.816 1.793-1.323 3.426-1.697 5.363 1.831 2.451 5.125 5.234 7.906 6.531 1.385.646 4.087 1.302 5.544.608.458-.217.836-.52.981-1.027.382-1.341-.817-2.742-1.522-3.767 1.649.984 2.967 3.213 4.988 3.394 1.824.161 3.622-1.414 4.919-2.52-.124-2.3-.767-3.055-2.019-4.886 1.596.307 3.263 2.673 4.719 3.537l.178.102c.666-.351 1.28-.727 1.816-1.262 1.469-1.472 1.585-3.047 1.534-5.006-2.967-4.622-9.778-8.412-14.934-10.056-.392-.724-.502-1.287-.562-2.105"/><path fill="#e7bea3" d="m135.156 282.249.339-.526c1.136-.51 2.522-.273 3.74-.481 1.807-.309 5.03-2.445 6.119-3.892.27-.357.571-.689.864-1.027-.76 2.279-2.346 3.634-4.459 4.695-2.072 1.04-4.288 1.565-6.603 1.231"/><path fill="#ab9f9b" d="M138.376 268.857c1.126-.254 2.113-.555 3.221-.046.451.207.81.513 1.309.6 2.3.201 4.084 1.807 5.525 3.495.463.73.786 1.195.798 2.075l-.178-.213c-1.163.195-2.272-.401-3.205-1.022.06.818.17 1.381.562 2.105l-.19.473c-.293.338-.594.671-.864 1.028-1.089 1.446-4.312 3.582-6.119 3.891-1.218.208-2.604-.029-3.74.482l-.339.525-.087.232c-2.658 3.402-4.409 7.694-5.074 11.946-.055.16-.145.438-.228.577-.248.413-.516.463-.941.613-.93-.075-1.698-.629-2.412-1.194-1.577-1.247-2.955-2.486-3.207-4.528.945-1.962 1.949-4.633 3.357-6.272 1.097-1.895 2.68-3.62 4.08-5.301l.167-.04c-.444-1.284-.173-2.872-.035-4.198 1.671-2.215 4.772-4.828 7.6-5.228"/><path fill="#d2c9c7" d="M130.812 278.283c.079-.45.154-.892.2-1.347q.057.125.118.247c.604 1.192 2.191 2.402 3.225 3.248-2.491 2.927-4.604 7.223-5.374 10.988-.085.419-.179 1.702-.747 1.708-.688.01-1.749-.654-2.399-.938l-1.418-2.192c.33-2.453 1.28-4.101 2.148-6.374 1.097-1.894 2.679-3.619 4.08-5.3z"/><path fill="#e79548" d="M132.158 274.279q.065-.09.132-.176c1.579-2.072 5.188-4.419 7.825-4.718.844-.097 1.263.293 1.891.776.057 1.584 1.376 2.85 2.12 4.189-1.497 1.515-4.164 3.605-6.341 3.75-.514.035-1.076-.129-1.573-.249-1.462-1.061-2.745-2.333-4.054-3.572"/><path fill="#d2c9c7" d="M138.377 268.857c1.126-.254 2.114-.555 3.221-.046.452.207.81.513 1.309.6 2.3.201 4.084 1.807 5.525 3.495.464.73.786 1.195.798 2.075l-.177-.213c-1.164.195-2.273-.401-3.205-1.022-.011-.01-.019-.024-.032-.031-1.07-.666-1.846-1.683-2.864-2.44l-.946-1.113c-.628-.484-1.047-.874-1.891-.776-2.637.299-6.246 2.646-7.825 4.717l-.131.177-.464-.251.001-.461c1.328-2.09 4.321-3.219 6.345-4.496z"/><path fill="#ab9f9b" d="M142.907 269.41c2.3.201 4.084 1.808 5.525 3.495.464.731.786 1.195.798 2.075l-.178-.213-.174-.505c-.671-.508-1.687-.66-2.494-.875-.806-1.711-2.032-2.827-3.477-3.977"/><path fill="#cb7535" d="m142.006 270.162.945 1.113c.738 1.245 1.557 2.48 2.175 3.787-2.239 1.742-4.639 3.008-7.151 4.292-.591-.494-1.208-.971-1.763-1.502.497.12 1.059.284 1.572.249 2.178-.146 4.845-2.235 6.342-3.751-.744-1.338-2.064-2.604-2.12-4.188"/><path fill="#144e55" d="M119.71 287.855c.504-.291.934-.552 1.281-1.032.131-.18.257-.365.392-.543 1.359-1.81 6.607-8.126 8.871-8.414l.391.456c-1.4 1.681-2.983 3.406-4.08 5.301-1.408 1.64-2.412 4.311-3.357 6.272-.663-.388-1.057-.909-1.574-1.455-.579-.61-1.143-.575-1.924-.585"/><path fill="#17616e" d="m199.422 275.208 1 .355c-.172.647-.2 1.197-.194 1.866.685.396 1.356.761 2.072 1.098.691.328 1.552.77 1.798 1.565.068.217.076.438.094.662-.246 3.792.027 7.492 2.085 10.79 1.819 2.835 4.134 5.475 6.29 8.061.616.677 1.175 1.364 1.976 1.827-4.253.207-8.524.303-12.769.533-2.049.112-4.091.392-6.141.463-2.957.101-5.937-.106-8.884-.332-2.05-.355-4.214-.393-6.287-.648-2.26-.276-4.483-.811-6.696-1.334-1.585-.629-3.367-.968-5.012-1.43-2.976-.837-6.102-1.891-8.908-3.192-.85-.395-1.194-.553-1.521-1.447 1.689-.421 2.871-1.395 3.988-2.696.067-.365.337-.778.486-1.133.672-1.609.514-2.678.084-4.299 2.938.575 6.48 2.217 9.63 2.972 8.855 2.124 18.044 2.759 27.121 2.856-.381-4.991-.436-9.835-.336-14.833z"/><path fill="#144e55" d="m162.313 291.35-.023.319a3.8 3.8 0 0 1-.188.868c-.134.43-.112.697-.021 1.144.427.676.92 1.039 1.651 1.369 1.6.723 3.497.986 5.196 1.437 2.157.572 4.288 1.282 6.467 1.766 6.801 1.511 15.912 2.254 22.925 2.129 2.508-.045 4.994-.394 7.497-.46 1.831-.048 5.133.4 6.75-.316.616.677 1.175 1.364 1.976 1.827-4.253.207-8.524.303-12.769.533-2.049.112-4.091.392-6.141.463-2.957.101-5.937-.106-8.884-.332-2.05-.355-4.214-.393-6.287-.648-2.26-.276-4.483-.811-6.696-1.334-1.585-.629-3.367-.968-5.012-1.43-2.976-.837-6.102-1.891-8.908-3.192-.85-.395-1.194-.553-1.521-1.447 1.689-.421 2.871-1.395 3.988-2.696"/><path fill="#76979d" d="M200.228 277.43c.686.396 1.356.761 2.073 1.098.691.328 1.551.77 1.798 1.565.067.217.075.437.094.662-.247 3.791.026 7.492 2.085 10.79-1.646.49-4.072.216-5.806.228-.062-2.499-.336-4.991-.406-7.49-.064-2.279.068-4.574.162-6.853"/><path fill="#68797b" d="M167.479 244.496c2.101 1.962 3.653 4.689 5.512 6.895q3.285 3.935 6.826 7.64a153 153 0 0 0 7.326 7.16c2.786 2.511 5.876 4.618 8.999 6.681.83.55 2.839 1.526 3.28 2.337l-.123 1.704a86 86 0 0 1-6.702-4.431 88 88 0 0 1-9.221-7.748 88 88 0 0 1-2.826-2.858 86 86 0 0 1-5.245-6.085c-1.338-1.727-2.396-3.682-3.664-5.463-1.351-1.897-3.206-3.707-4.162-5.832"/><path fill="#76979d" d="M155.584 297.871c1.256-.859.959-2.692 1.834-3.692.231-.264.585-.139.908-.133.326.894.67 1.052 1.521 1.446 2.805 1.302 5.932 2.356 8.907 3.192 1.646.463 3.427.802 5.012 1.43 2.213.523 4.437 1.059 6.697 1.335 2.072.255 4.236.293 6.286.648 2.947.226 5.927.433 8.884.332 2.051-.071 4.092-.351 6.141-.463 4.245-.231 8.517-.326 12.769-.534 9.317 3.514 20.122 9.873 30.165 5.314 1.069-.486 2.042-1.208 3.254-1.121.976 3.812 3.728 15.62 2.836 19.028-2.144 2.934-8.645 1.915-9.77 5.888a7 7 0 0 0-1.085-.314l-.166.507-.245.037a19 19 0 0 0-2.316-1.92c-1.771-.803-3.62-1.274-5.529-.583a4.3 4.3 0 0 0-1.708 1.146c-.829.691-1.76 1.453-2.232 2.441l-.805 1.901c-.427-.191-.764-.297-1.235-.299-1.403-.006-2.961.4-4.356.623q-3.03.488-6.096.591c-2.7.069-5.458-.237-8.12-.677-.459-.22-.998-.309-1.492-.435.17-1.445-.034-2.717-.286-4.135l-.057-1.6c-1.268-.978-2.834-1.849-3.359-3.435.118-1.366.683-2.6.939-3.935.424-2.21.755-7.301-.782-9.049-.52-.589-1.247-.971-2.039-.975-.605-.005-1.24.093-1.842.161-.19 4.062 1.61 9.168 1.254 12.275-.059.514-.353.934-.731 1.27-.668.596-1.624.975-2.428 1.357.354 1.042.815 2.086.51 3.19-.57.723-1.695.791-2.107 1.522-.991-.345-4.813.641-6.179.753-2.578.212-5.213.469-7.797.455-2.791-.017-5.569-.299-8.355-.378-.517-.747-1.401-1.667-2.178-2.142-2.739-1.671-4.854-.897-7.679-.349-.303.058-.13-.043-.385.303-.46.683-.958 1.675-1.677 2.09-.235-.402-.174-.207-.234-.566a26 26 0 0 1-.138-1.827c-.398-.49-.568-.425-1.173-.529-.235-.035-.475-.064-.703-.133-2.412-.741-4.437-2.766-5.614-4.923-1.047-1.92-1.965-4.174-1.881-6.392.105-2.777 1.836-5.652 2.616-8.31 1.005-3.419 1.247-6.995 2.246-10.386"/><path fill="#68797b" d="M155.584 297.871c1.256-.859.959-2.692 1.834-3.692.231-.264.585-.139.908-.133.326.894.67 1.052 1.521 1.446 2.805 1.302 5.932 2.356 8.907 3.192 1.646.463 3.427.802 5.012 1.43l-.221-.008c-2.711-.143-5.616-.842-8.252-1.467-1.738-.413-3.697-1.119-5.487-1.013a2.44 2.44 0 0 0-1.471.604c-.38.33-.715.751-.835 1.245-.601 2.449-.433 5.12-.79 7.619-.476 3.333-1.68 6.779-1.727 10.145-.023 1.615.394 3.147 1.109 4.587 2.867 1.826 6.772 2.511 10.057 3.24 2.592.575 5.196 1.299 7.813 1.737 4.55.764 11.596 1.28 16.1.278 1.393-.311 2.937-.938 3.734-2.196 2.807-4.431-1.656-14.605 4.945-16.186 1.289-.31 2.842-.169 3.984.535 1.236.762 1.914 2.127 2.195 3.512.72 3.547.015 7.735.024 11.355 2.835.666 5.706 1.417 8.588 1.851 5.708.857 20.923 1.743 26.347.926q.721-.104 1.432-.278.71-.175 1.396-.422a14.4 14.4 0 0 0 2.632-1.249c.76-.469 1.418-1.021 2.08-1.619.695-4.888-.05-9.757-.965-14.555-4.062 2.565-5.886 3.308-10.712 2.212-5.861-1.33-16.981-5.593-21.936-9.105-6.581 1.312-21.031 2.474-27.057.235 2.947.226 5.927.433 8.884.332 2.051-.071 4.092-.351 6.141-.463 4.245-.231 8.517-.326 12.769-.534 9.317 3.514 20.122 9.873 30.165 5.314 1.069-.486 2.042-1.208 3.254-1.121.976 3.812 3.728 15.62 2.836 19.028-2.144 2.934-8.645 1.915-9.77 5.888a7 7 0 0 0-1.085-.314l-.166.507-.245.037a19 19 0 0 0-2.316-1.92c-1.771-.803-3.62-1.274-5.529-.583a4.3 4.3 0 0 0-1.708 1.146c-.829.691-1.76 1.453-2.232 2.441l-.805 1.901c-.427-.191-.764-.297-1.235-.299-1.403-.006-2.961.4-4.356.623q-3.03.488-6.096.591c-2.7.069-5.458-.237-8.12-.677-.459-.22-.998-.309-1.492-.435.17-1.445-.034-2.717-.286-4.135l-.057-1.6c-1.268-.978-2.834-1.849-3.359-3.435.118-1.366.683-2.6.939-3.935.424-2.21.755-7.301-.782-9.049-.52-.589-1.247-.971-2.039-.975-.605-.005-1.24.093-1.842.161-.19 4.062 1.61 9.168 1.254 12.275-.059.514-.353.934-.731 1.27-.668.596-1.624.975-2.428 1.357.354 1.042.815 2.086.51 3.19-.57.723-1.695.791-2.107 1.522-.991-.345-4.813.641-6.179.753-2.578.212-5.213.469-7.797.455-2.791-.017-5.569-.299-8.355-.378-.517-.747-1.401-1.667-2.178-2.142-2.739-1.671-4.854-.897-7.679-.349-.303.058-.13-.043-.385.303-.46.683-.958 1.675-1.677 2.09-.235-.402-.174-.207-.234-.566a26 26 0 0 1-.138-1.827c-.398-.49-.568-.425-1.173-.529-.235-.035-.475-.064-.703-.133-2.412-.741-4.437-2.766-5.614-4.923-1.047-1.92-1.965-4.174-1.881-6.392.105-2.777 1.836-5.652 2.616-8.31 1.005-3.419 1.247-6.995 2.246-10.386"/><path fill="#e7bea3" d="M205.357 329.424c3.549 2.424 12.903 3.323 17.131 3.024 1.49-.106 3.86-1.025 5.259-.593l-.805 1.901c-.428-.191-.764-.297-1.235-.299-1.403-.006-2.962.4-4.356.622a49 49 0 0 1-6.096.592c-2.7.068-5.459-.237-8.12-.677-.459-.22-.998-.309-1.492-.436.17-1.444-.034-2.716-.286-4.134m-45.127.947c.01-.636-.007-1.161.275-1.748.637-.183 1.011.037 1.637.224-.46.683-.958 1.675-1.677 2.09-.235-.402-.174-.207-.235-.566"/><path fill="#033b63" d="M162.142 328.847c.255-.347.082-.245.385-.303 2.825-.548 4.94-1.322 7.679.349.777.475 1.661 1.394 2.178 2.142 2.786.078 5.564.361 8.355.377 2.584.015 5.219-.243 7.797-.454 1.366-.112 5.188-1.098 6.18-.754-.385.93-.636 1.478-.27 2.464.585 1.588.067 3.902.036 5.591 2.317 5.382 1.642 12.092 1.516 17.781.312 1.399.424 3.167.14 4.576-.233.231-9.984 1.781-11.389 1.947-2.157.255-4.331.384-6.495.56-2.425.343-4.976.305-7.426.401-6.291.243-12.52.268-18.811.18-2.08-.029-4.487.216-6.519-.168-4.656-.201-9.193-1.247-13.821-1.45-.296-1.661-.875-4.232-.664-5.878.082-.633.27-.695.736-1.098-.84-1.461-1.217-3.302-1.305-4.977-.088-1.681-.22-5.137.554-6.631 1.849-3.566 11.477-6.058 15.309-7.109.766-.209 2.78-.321 3.247-.846-.227-.096-.45-.185-.663-.314a1.7 1.7 0 0 1-.781-1.202c-.092-.686.079-1.253.477-1.816.965-1.361 2.42-2.114 4.02-2.428q.303-.059.608-.108c2.39-.396 3.985.43 5.872 1.791a55 55 0 0 0-.167-3.455c.605.103.775.039 1.173.529.022.614.073 1.216.138 1.826.06.359-.001.164.234.567.719-.415 1.218-1.407 1.677-2.09m-3.589 4.545c.377-.168.225-.027.399-.477-.445-1.005-1.46-1.513-2.366-2.044l-3.021.004c-1.3.255-2.95.863-3.734 2.015-.16.235-.126.43-.144.701l.304.44c2.959.204 5.628-1.382 8.562-.639"/><path fill="#03304d" d="M134.593 354.63c3.739-.514 8.22-.641 11.945.004 4.87.341 9.723 1.071 14.607 1.202l.585-.17c1.69.787 14.068.691 16.882.813q-.094.143-.185.287c-.18.295-.215.477-.24.813-.032.43-.119.795-.456 1.092-.446.395-.984.662-1.431 1.059l-.632.469.033.344a8.5 8.5 0 0 0 1.153.436c.509.156.86.365 1.301.658.269.556.158.88.099 1.486-2.424.343-4.975.305-7.425.401-6.291.242-12.52.267-18.811.18-2.08-.029-4.488.216-6.52-.168-4.655-.201-9.192-1.247-13.82-1.451-.296-1.66-.875-4.232-.664-5.877.081-.633.269-.696.735-1.098l.427.502c.681-.417 1.62-.585 2.388-.807z"/><path fill="#90564e" d="m161.145 355.837.585-.17c1.69.787 14.067.691 16.881.814-.061.095-.125.191-.184.286-.18.295-.216.478-.24.814-.032.429-.119.795-.456 1.092-.447.394-.984.662-1.432 1.058l-.631.469.033.345q.56.26 1.153.435c.509.156.86.366 1.301.658.269.557.158.88.099 1.486-2.424.343-4.975.305-7.425.401-6.292.243-12.521.268-18.811.181-2.08-.03-4.488.215-6.52-.169 1.395-.041 7.02.37 7.868-.137-.192-.431-.543-.78-.717-1.199-.23-.558.13-1.131.359-1.636.175-.382.134-.151.055-.655.316.06 5.803-.503 6.908-.542l.08-1.507c.058-.973.373-1.391 1.094-2.024"/><path fill="#d2c9c7" d="m131.749 355.11.427.502c1.746 2.36 3.718 3.294 6.601 3.721 4.681.695 9.562.544 14.287.575.078.504.119.274-.055.656-.23.504-.589 1.077-.359 1.635.173.42.524.768.716 1.2-.847.506-6.472.096-7.868.137-4.655-.201-9.192-1.247-13.82-1.451-.296-1.66-.875-4.232-.664-5.877.081-.633.269-.696.735-1.098"/><path fill="#90564e" d="M134.592 354.63c3.739-.514 8.221-.641 11.946.004-.337.609-.55 1.092-1.191 1.435-1.76.325-2.751-1.252-4.387-1.35-1.541-.093-2.437 2.929-5.4 1.061-.387-.245-.699-.631-.997-.975z"/><path fill="#03304d" d="M194.483 338.261c2.317 5.382 1.641 12.092 1.516 17.78.311 1.399.423 3.168.14 4.577-.233.23-9.985 1.781-11.389 1.947-2.158.255-4.331.384-6.496.56.059-.606.17-.93-.099-1.486-.441-.293-.792-.502-1.301-.658a8.4 8.4 0 0 1-1.153-.436l-.033-.344.632-.469c.447-.397.985-.665 1.431-1.059.337-.297.424-.662.456-1.092.024-.336.06-.518.24-.813.059-.096.123-.191.184-.287l.111-.037c1.74.459 3.816.465 5.619.65.695-.903 1.528-1.667 2.346-2.458l-.024-.487c.225-.306.296-.368.605-.55l.553.296c1.038-.251 2.209-.946 3.095-1.531l.321-.038c.232-.099.476-.197.626-.417 1.185-1.737 1.169-10.823 2.271-13.582z"/><path fill="#d2c9c7" d="M176.3 359.731c4.749-1.191 16.674-.175 19.699-3.69.311 1.399.423 3.167.14 4.576-.233.23-9.985 1.781-11.389 1.947-2.158.255-4.331.384-6.496.56.059-.606.17-.93-.099-1.486-.441-.292-.792-.502-1.301-.658a8.4 8.4 0 0 1-1.153-.436l-.033-.344z"/><path fill="#90564e" d="m190.915 352.363.321-.038c.502.511.709.629.861 1.345-.2.729-.494 1.21-1.16 1.607-.573.342-1.517.564-2.163.309-.505-.199-.703-.368-.865-.884-.072-.227-.071-.579-.089-.808 1.038-.251 2.21-.946 3.095-1.531"/><path fill="#e7bea3" d="M172.384 331.035c2.786.078 5.564.361 8.354.377 2.585.015 5.22-.242 7.798-.454 1.366-.112 5.187-1.098 6.179-.754-.385.93-.635 1.478-.269 2.464.584 1.588.067 3.902.036 5.591l-.348.067a32 32 0 0 1-6.419 1.353l-.563.162c-1.52-1.621-3.096-3.169-4.693-4.712l-.041-.062-.222.044c-1.76.072-6.419-.401-7.72-1.438-.352.016-.548.031-.883.157l-.267-.155c-.482-.81-.701-1.738-.942-2.64"/><path fill="#fefefe" d="M194.446 332.668c.585 1.587.067 3.902.036 5.591l-.348.066a32 32 0 0 1-6.418 1.354l-.564.162c-1.52-1.621-3.096-3.17-4.693-4.712 3.394-.259 7.103-.583 10.248-1.974l.241.521c.47-.39.977-.693 1.498-1.008"/><path fill="#17616e" d="M194.446 332.668c.585 1.587.067 3.902.036 5.591l-.348.066a32 32 0 0 1-3.174.843 32 32 0 0 1-3.244.511c1.915-1.762 3.249-4.201 5.232-6.003.47-.39.977-.693 1.498-1.008"/><path fill="#d2c9c7" d="M174.477 333.672c3.464.407 7.339.838 10.83.475 2.376-.249 5.028-1.123 7.4-.992-3.144 1.391-6.853 1.714-10.247 1.974l-.041-.062-.222.043c-1.76.073-6.42-.4-7.72-1.438"/><path fill="#cb7535" d="M162.143 328.847c.255-.347.082-.245.385-.303 2.825-.548 4.94-1.322 7.679.349.777.475 1.66 1.394 2.178 2.142.241.902.46 1.83.942 2.64l-.473.211c-.198.986-.232 1.976-.721 2.869-.345-.102-.732-.102-1.09-.131l-.086.091c-.157-.129-.208-.183-.418-.272-1.052-.442-3.96-1.183-4.939-.801-.699-.228-1.339-.442-2.08-.454-.635-.013-1.611.078-2.201-.154-.295-.114-.421-.677-.541-.963l-.422.326c.031.45.048.583-.133 1.011l-.18-.032c-.252-.373-.082-.726-.014-1.162l-1.475-.822c.377-.168.225-.027.399-.477-.446-1.005-1.46-1.513-2.366-2.044l-3.022.004-.016-.243c.888-.305 1.961-.046 2.894-.326-1.213-.307-2.446-.118-3.649-.463l-.187-.056q.304-.059.609-.108c2.39-.396 3.984.43 5.872 1.791a55 55 0 0 0-.167-3.455c.605.103.775.039 1.173.529.022.614.073 1.216.137 1.826.061.359 0 .164.235.567.719-.415 1.217-1.407 1.677-2.09"/><path fill="#03304d" d="M162.143 328.847c.255-.347.082-.245.385-.303 2.825-.548 4.94-1.322 7.679.349.777.475 1.66 1.394 2.178 2.142.241.902.46 1.83.942 2.64l-.473.211c-.198.986-.232 1.976-.721 2.869-.345-.102-.732-.102-1.09-.131.471-1.264.69-2.663.318-3.985-.386-1.374-1.373-2.466-2.613-3.138-1.928-1.048-3.458-.907-5.44-.278-.621.743-1.296 1.488-1.84 2.289-.653.961-.915 1.434-.69 2.559l-.422.326c.031.45.048.583-.133 1.011l-.18-.032c-.252-.373-.082-.726-.014-1.162l-1.475-.822c.377-.168.225-.027.399-.477-.446-1.005-1.46-1.513-2.366-2.044l-3.022.004-.016-.243c.888-.305 1.961-.046 2.894-.326-1.213-.307-2.446-.118-3.649-.463l-.187-.056q.304-.059.609-.108c2.39-.396 3.984.43 5.872 1.791a55 55 0 0 0-.167-3.455c.605.103.775.039 1.173.529.022.614.073 1.216.137 1.826.061.359 0 .164.235.567.719-.415 1.217-1.407 1.677-2.09"/><path fill="#17616e" d="m173.327 333.675.267.156c.335-.127.531-.141.883-.158 1.3 1.038 5.96 1.511 7.72 1.439l.222-.044.041.062c1.597 1.542 3.173 3.091 4.692 4.712-1.101.274-2.228.336-3.359.346-2.552.025-9.868-.384-11.585-2.357-.211-.241-.09-.762-.075-1.076.489-.892.523-1.882.721-2.868z"/><path fill="#fefefe" d="M173.594 333.831c.335-.127.531-.141.883-.158 1.3 1.038 5.96 1.511 7.72 1.439-1.659 1.21-3.294 2.409-4.637 3.976-1.16-1.118-3.772-3.698-3.966-5.257"/><path fill="#a56b64" d="M171.335 353.609c1.268.438 2.509.95 3.824.34 1.798-.834 2.913-2.999 5.199-2.22.505.17.846.365 1.128.832.123.795-.187 1.334-.641 1.955-.566.776-1.405 1.301-2.124 1.926l-.11.037c-2.814-.122-15.192-.027-16.882-.813 1.463-.424 3.008-.469 4.506-.727 1.747-.301 3.412-.803 5.1-1.33m-34.381-2.02c.205-.73.304-1.39.893-1.903.506-.128.781-.16 1.243.139.447.291.867.687 1.272 1.034 1.704.297 4.423.149 5.559 1.621.403.521.429 1.094.532 1.718.024.146.056.291.084.436-3.725-.645-8.206-.519-11.945-.004-.219-.627-.471-1.135-.266-1.804.591-.796 1.718-.967 2.628-1.237m49.708 2.557-.399.075-.301-.27c-.142-.855.043-1.621.545-2.326q.391.164.775.338c.889-.65.9-2.268 1.908-3.115.571-.129.681-.125 1.242.043.935 1.179-.11 2.256.483 3.471-.885.585-2.057 1.28-3.095 1.531l-.553-.297c-.309.183-.38.245-.605.55"/><path fill="#e79548" d="M165.6 335.643c.978-.382 3.886.359 4.938.801.21.089.261.143.418.272l-1.137 2.314c-1.332-1.399-2.493-2.49-4.219-3.387"/><path fill="#e79548" d="M147.543 337.289c3.18-1.39 6.501-2.258 9.941-2.712 2.813 1.376 5.303 3.752 6.485 6.714.598 1.496.984 3.08 1.625 4.558.546 1.261 1.374 2.745 2.749 3.233.752.266 1.764.222 2.453-.203.519-.322.813-.845.972-1.416.805-2.893-.594-6.187-2.06-8.611 7.036 2.273 9.205 4.734 17.137 5.357-.287.917-1.924 1.901-2.731 2.343-3.074 1.679-6.542 2.059-9.789 3.223-3.523 1.264-6.792 3.381-10.526 4.062-1.275.232-2.625-.087-3.852-.446-5.523-1.611-14.113-5.668-16.878-11.085-.35-.687-.517-1.488-.224-2.225.612-1.536 3.257-2.204 4.698-2.792"/><path fill="#033b63" d="M147.543 337.288c2.366.376 4.382 1.818 5.785 3.738.49.67.873 1.459 1.134 2.248-1.591-1.339-3.054-2.79-4.611-4.159-.734-.648-1.618-1.138-2.308-1.827m5.639-1.588c.642.056 1.184.218 1.788.447 2.296.869 3.426 2.337 4.398 4.497-2.256-1.359-3.948-3.482-6.186-4.944"/><path fill="#e79548" d="M161.298 336.212c1.012-.112 1.955-.038 2.93.276 2.444.788 4.474 2.741 5.61 5.016.997 1.993 1.266 3.993.529 6.108-.072.04-.143.083-.217.119-.54.255-1.044.28-1.593.024-2.254-1.039-3.026-5.927-3.869-8.102-.499-1.287-1.371-2.36-2.707-2.875-.475-.184-.405-.176-.683-.566"/><path fill="#fefefe" d="M314.176 173.784c.092-.567.119-.839.594-1.201 5.313-4.05 27.203-4.885 34.195-4.691 2.906.08 5.706.311 8.564.874 3.271.644 7.384 1.341 10.238 3.063 2.787 4.766 5.405 14.81 3.908 20.335-.463 1.706-1.453 3.518-3.071 4.373-.521.276-1.15.432-1.725.557-10.737.863-30.04-2.3-40.293-5.495-3.197-.996-6.154-2.623-9.33-3.639-.095 2.554-.84 13.684-1.803 15.314-.268.078-.561.235-.832.16-1.266-.041-2.41-.111-3.641-.444-.442 1.489-.826 3.031-1.357 4.488l-5.22-1.592c.39-1.263 1.54-3.865 1.274-5.059-.508-.284-.981-.624-1.465-.95-.38-.118-.351-.073-.65-.401.071-.952.631-1.867 1.034-2.721 2.507-7.862 6.264-15.431 9.58-22.971"/><path fill="#ab9f9b" d="M314.176 173.784c.091-.567.118-.839.593-1.201 5.314-4.05 27.204-4.885 34.196-4.691 2.905.08 5.705.311 8.563.874 3.271.644 7.385 1.341 10.238 3.063 2.788 4.766 5.405 14.81 3.909 20.335-.463 1.706-1.453 3.518-3.072 4.373-.521.276-1.15.432-1.725.557l-.066-1.264c1.218-6.269-1.636-15.517-5.039-20.841-4.479-2.18-14.487-3.757-19.599-4.219-1.907-.171-3.827-.124-5.737-.245-1.399-.088-2.93-.475-4.296-.026l-.164.435-.141-.291c-1.102-.7-4.265-.255-5.589-.071-.496.118-.992.229-1.476.393-.666.124-1.322.18-1.876.595-.336-.238-.548-.139-.951-.074-.93.15-2.243.384-3.009.938-.569-.141-.839.032-1.387.214-.958.422-2.241.805-2.843 1.704z"/><path fill="#d2c9c7" d="M314.454 202.659c.532-2.339 1.41-15.322 2.13-15.957 1.293.743 13.822 4.893 15.221 4.98.081.005.162.001.243.001 2.074.408 6.108 2.19 8.018 1.566 1.899.75 4.229.91 6.245 1.209 6.647.987 13.787 2.16 20.501 1.373l.067 1.264c-10.737.863-30.041-2.3-40.294-5.495-3.196-.995-6.153-2.623-9.329-3.639-.095 2.554-.84 13.684-1.803 15.314-.268.078-.561.235-.833.16-1.266-.041-2.409-.111-3.64-.443-.442 1.488-.826 3.031-1.357 4.487l-5.22-1.592c.39-1.263 1.54-3.865 1.274-5.059-.508-.283-.982-.624-1.465-.95 3.445.481 6.89 1.838 10.242 2.781"/><path fill="#ab9f9b" d="M305.678 200.825c.917.056 7.868 2.112 8.943 2.606-1.266-.04-2.41-.11-3.641-.443-.442 1.489-.826 3.031-1.357 4.488l-5.22-1.592c.391-1.263 1.54-3.865 1.275-5.059"/><path fill="#cb7535" d="M322.895 171.558c.554-.414 1.21-.47 1.876-.594l.324 1.185-.332.012c-.108.512.172 1.001.432 1.432.193.323.415.649.755.821.243.52.66 1.178.629 1.746l-.295-.036c-.352.823-.67 1.654-1.17 2.401l.311 2.079c.44-.204.833-.446 1.333-.381.18.254.348.503.502.775q.067.116.131.234c.216-.904.427-2.45 1.066-3.085l.198.287c-.175.762-.482 1.339-.862 2.018.308 1.717.716 3.453.727 5.201-1.013-.92-.652-3.56-1.895-4.586-.216-.179-.428-.114-.687-.035-1.017.313-1.32.288-2.298-.123-.498-.209-.932-.374-1.459-.491-1.143.643-1.878 2.361-2.982 3.206l-.274-.108c-.081-.989.544-2.198.884-3.126-.847.443-1.669.864-2.636.957-1.735.166-2.959-.564-4.242-1.643l-.054-.116.197-.447.17-.209c-.049-.534.185-.961.388-1.441.289-1.076.683-2.108 1.073-3.15.602-.899 1.885-1.282 2.844-1.704.548-.182.818-.355 1.386-.214.766-.554 2.08-.788 3.01-.938.402-.065.614-.164.95.073"/><path fill="#e5a61d" d="M322.895 171.558c.554-.414 1.21-.47 1.876-.594l.324 1.185-.332.012c-.108.512.172 1.001.431 1.432.193.323.415.649.756.821.243.52.66 1.178.629 1.746l-.295-.036c-.237-.348-.5-.655-.77-.975l-.378-.01-.585.668c.014-.582.097-1.266-.351-1.718-.357-.357-.54-.388-1.004-.406-.339.329-.469.601-.494 1.087-.038.769.552 1.461.961 2.077-.511.28-.934.373-1.497.466-.245.556-.334.93-.392 1.529l.255-.071-.432-.098.019-.373c.019-.445.038-.273-.021-.581-.149-.318-.267-.549-.276-.907-.018-.726-.002-1.241-.384-1.894l-.34-.087c-.608.645-.809 1.534-1.09 2.357-.01-.539.036-1.201-.076-1.727-.115-.535-.401-.687-.835-.968-.375.01-.562-.031-.903.153-.805.435-1.145 1.261-1.421 2.084-1.136-.028-1.513.544-2.472.944l-.166-.183c.288-1.076.683-2.108 1.073-3.15.602-.899 1.884-1.282 2.843-1.704.548-.182.818-.355 1.387-.214.765-.554 2.079-.788 3.009-.938.403-.065.614-.164.951.073"/><path fill="#feebd0" d="M318.935 172.425c.766-.554 2.08-.789 3.01-.938.402-.065.614-.164.95.073l.797 1.491-.174.038c-.471-.389-.668-.667-1.287-.736-.429.521-.492 1.245-.631 1.889l-.151-.026c-.15-.527-.137-.944-.606-1.256q-.255.335-.5.677l-.333-.751c-.454-.162-.273-.195-.645-.03-.749.332-1.478 1.112-2.1 1.647.552-.695 1.089-1.408 1.67-2.078"/><path fill="#e79548" d="M314.705 174.34c.602-.899 1.884-1.282 2.843-1.704-.492 1.494-2.582 4.002-3.916 4.854.288-1.076.683-2.108 1.073-3.15"/><path fill="#fefefe" d="m318.63 177.217.299.235c-.301.965-.703 1.98-.838 2.981l-.189.032c-2.009.285-3.221-.112-4.828-1.324l.17-.209c1.084.35 2.356.724 3.479.344 1-.339 1.438-1.183 1.907-2.059"/><path fill="#e79548" d="M316.636 177.045c.465-.643.905-1.431 1.631-1.795l.436.025c.45.641.427 1.314.261 2.087-.006.032-.022.06-.035.09l-.299-.235c.079-.462.085-.239-.004-.668-.637.321-1.092.508-1.816.501q-.087-.001-.174-.005"/><path fill="#fefefe" d="m325.176 180.589-.22-.012c-.714-.044-1.745-.061-2.256-.634.422-.592 1.324-.646 2.018-.817z"/><path fill="#cb7535" d="M326.247 170.573c1.324-.184 4.487-.629 5.589.072l.141.29c-.388 1.338-.741 2.284-1.998 3.004q-.378.212-.766.401c.938.687 2.206 1.726 3.372 1.837-.043-.394-.114-.521-.305-.857.181-.381.359-.498.681-.743.681-.517 2.011-3.541 2.138-3.555-.087 1.852-.394 2.68-1.775 3.93q-.271.247-.55.487c1.127.964 2.356 1.714 3.52 2.612-2.515-.836-4.989-1.759-7.465-2.697.384.826 1.355 2.411 1.202 3.276-.492.07-1.785-.714-2.196-1.051-.179-.148-.202-.198-.32-.365l.139-.309.399-.1c.386.308.628.612.923 1.003l.272-.055c.164-.501-.039-1.007-.251-1.468-.415-.903-1.036-2.066-2.088-2.33-.282-.07-.336-.058-.598-.058-.346.279-.228.104-.361.519-.34-.172-.562-.498-.755-.821-.26-.431-.54-.92-.432-1.432l.332-.012-.324-1.185c.484-.164.98-.275 1.476-.393"/><path fill="#e79548" d="M324.771 170.965c.484-.164.98-.275 1.476-.393.93.284 1.847.501 2.648 1.071l.169.395c-.322.508-.812.731-1.374.948q-.442-.655-.918-1.285c-.681-.106-1.054.177-1.677.449z"/><path fill="#353332" d="M336.367 185.491c.34-.173.365-.279.749-.177-.33.481-.795.89-.668 1.513.519 2.542 4.472 2.156 3.617 6.422-1.909.624-5.944-1.158-8.017-1.566.643-2.543 2.127-1.832 2.839-3.655.168-.43.284-.717.585-1.071.388-.456.631-.932.895-1.466"/><path fill="#d2c9c7" d="m314.176 173.782.529.558c-.39 1.042-.784 2.075-1.073 3.151-.203.479-.438.906-.388 1.441l-.17.209-.197.446.054.117c-.824 2.771-6.617 14.845-8.335 17.049 2.507-7.861 6.263-15.43 9.58-22.971"/><path fill="#cb7535" d="M338.465 179.42c-.234 1.03-.84 2.581-.562 3.567.434.549.892 1.045 1.384 1.543l-.153-.116c.29.553.298.618.242 1.242l-.267.163a16 16 0 0 1-1.729-.643l-.264.137c-.384-.102-.409.004-.749.177-.596.151-.913.332-1.503.12a27 27 0 0 1-.763-2.074l.213-.208.885.151c.053-.506-.086-.804-.245-1.275l.197-.326c.672-.011 1.187.854 1.741.261.664-.71 1.057-1.876 1.573-2.719"/><path fill="#353332" d="M348.449 175.123c2.32.107 4.753.133 7.011.699l-.033.134a44 44 0 0 0-6.175-.336c-.647.333-1.137.79-1.677 1.272 2.291-.81 5.548-.418 7.735.659.941.462 1.715 1.151 2.005 2.187.312 1.114.127 3.082-.575 4.028-.408.551-1.083.852-1.672 1.171l-.469 1.034c1.374-.615 2.594-1.698 3.789-2.612-.67 1.141-1.243 2.054-2.407 2.77-1.775 1.093-4.025 1.306-6.017.742-1.833-.52-3.532-1.795-4.398-3.513-.728-1.444-.832-3.199-.317-4.729.556-1.656 1.693-2.718 3.2-3.506"/><path fill="#fefefe" d="M347.561 178.076c.847-.806 1.403-1.035 2.582-1.001 1.652.049 5.054.482 6.183 1.752.375.424.44.886.359 1.432-.158 1.07-.455 2.148-.662 3.212-.555.338-.766.003-1.254.169-.583.197-.521 1.151-1.077 1.583l-.349-.149c-.131-.383-.261-.739-.33-1.14-.921-.28-1.002.583-1.785.906l-.338-.149c-.064-.46-.12-.811-.318-1.237l-.411-.118a9 9 0 0 1-1.232.665c-.509-.105-.536-.126-.891-.504.015-.124.033-.248.046-.373.073-.741-.27-1.174-.708-1.72-.274-.341-.479-.612-.649-1.023.072-.854.467-1.545.834-2.305"/><path fill="#033b63" d="M229.979 329.415a4.3 4.3 0 0 1 1.708-1.146c1.909-.691 3.758-.22 5.529.583a19 19 0 0 1 2.316 1.92l.245-.037.166-.507a6.7 6.7 0 0 1 1.085.314c.046.581.102 1.158.108 1.741l.04.212.535.22-.18.687c.122.108.216.269.369.323 1.042.368 3.458.119 5.527.855.772.196 1.6.418 2.393.478.558.041.797-.044 1.221-.386.066-.546-.038-.752-.303-1.225l.971-.585.185.241c.475.631 1.004 1.162.84 2.013-.066.347-.272.61-.577.791-.342.205-.762.34-1.135.481l.05.177c3.736.996 7.556 2.156 11.018 3.897-.84 3.57-1.922 7.011-3.051 10.498-.635 1.961-1.623 4.203-1.88 6.237-.305.737-.897 1.357-1.164 2.036.315 1.351-.999 2.771-1.117 4.12-6.096.691-12.546.328-18.683.292-1.802-.01-4.101-.355-5.828-.022-.021 0-.042.004-.062-.003-1.582-.462-3.817-.292-5.494-.386a185 185 0 0 1-9.336-.709c-3.408-.359-7.93-2.124-11.189-1.636l-.237-.23c-.236-1.522-.11-4.083.412-5.531-1.06-3.935-.336-8.56.18-12.526.109-1.428.053-2.835 1.021-3.981-.238-1.598-.444-3.486-.019-5.062.494.127 1.033.216 1.492.436 2.662.44 5.42.745 8.12.677a49 49 0 0 0 6.096-.592c1.395-.222 2.953-.629 4.356-.622.472.002.808.108 1.235.299l.806-1.902c.471-.988 1.403-1.749 2.231-2.44"/><path fill="#e79548" d="M229.978 329.415a4.3 4.3 0 0 1 1.708-1.146c1.91-.691 3.759-.22 5.529.583a19 19 0 0 1 2.317 1.92l.245-.037.166-.507a6.7 6.7 0 0 1 1.085.314c.046.581.102 1.158.108 1.741l.039.212.536.22-.181.687c.123.108.216.269.37.323 1.042.368 3.458.119 5.527.855-.255.407-.496.893-.814 1.25 2.14.654 4.35 1.241 6.295 2.38 1.494.476 3.923.918 4.684 2.447.337.675.252 1.433-.039 2.101-1.934 4.431-10.323 8.005-14.508 9.524-4.429 1.613-8.914 1.515-13.212-.529-1.391-.662-2.719-1.484-4.186-1.972-4.973-1.652-8.551-1.799-12.646-5.471 2.989-.174 5.849-.508 8.615-1.729 3.022-1.334 5.345-3.148 8.736-3.555a8 8 0 0 0-1.117-1.849l-.34-.218-.88.089c-.222.307-.305.521-.386.891l-.365-.99-.274-.598c.025-.864-.023-1.731-.048-2.594l.805-1.902c.471-.988 1.403-1.749 2.231-2.44"/><path fill="#cb7535" d="M229.979 329.415a4.3 4.3 0 0 1 1.708-1.146c1.909-.691 3.759-.22 5.529.583a19 19 0 0 1 2.316 1.92l.245-.037.166-.507a7 7 0 0 1 1.086.314c.045.581.101 1.158.108 1.741l.039.212.535.22-.18.687c.122.108.216.269.369.323 1.042.368 3.458.119 5.527.855-.255.407-.496.893-.813 1.25l-.673-.11c-1.644.604-3.327.977-5.062 1.212-.077.527-.05.714-.378 1.144-.018-.534-.045-1.003-.193-1.522l-.251.283-.838-.104c-.617-.473-1.216-.465-1.959-.374-.972.116-2.061.5-2.946.918l-1.789-.258-.614.388c-.513.542-1.011 1.117-1.559 1.619a8 8 0 0 0-1.116-1.849l-.341-.218-.88.089c-.222.307-.305.521-.386.891l-.365-.99-.274-.598c.025-.864-.023-1.731-.048-2.594l.806-1.902c.471-.988 1.403-1.749 2.231-2.44"/><path fill="#03304d" d="M229.979 329.415a4.3 4.3 0 0 1 1.708-1.146c1.909-.691 3.759-.22 5.529.583a19 19 0 0 1 2.316 1.92l.245-.037.166-.507a7 7 0 0 1 1.086.314c.045.581.101 1.158.108 1.741l.039.212.535.22-.18.687c.122.108.216.269.369.323 1.042.368 3.458.119 5.527.855-.255.407-.496.893-.813 1.25l-.673-.11c-1.644.604-3.327.977-5.062 1.212-.077.527-.05.714-.378 1.144-.018-.534-.045-1.003-.193-1.522l-.251.283-.838-.104c-.617-.473-1.216-.465-1.959-.374-.972.116-2.061.5-2.946.918l-1.789-.258c3.813-2.696 4.351-.921 6.405-1.766.667-.274.903-1.154 1.198-1.77-1.015-1.416-1.86-2.715-3.188-3.865-1.337-.778-2.725-1.193-4.265-.822-.936.226-1.497.633-2.167 1.301l-.189.185c-1.021 1.559-2.241 3.431-1.841 5.39.092.44.253.87.417 1.287l-.88.089c-.222.307-.305.521-.386.891l-.365-.99-.274-.598c.025-.864-.023-1.731-.048-2.594l.806-1.902c.471-.988 1.403-1.749 2.231-2.44"/><path fill="#cb7535" d="m243.264 334.997 2.677.722c-1.644.604-3.327.978-5.062 1.212.058-.276.16-.564.239-.836.577-.625 1.365-.818 2.146-1.098"/><path fill="#e79548" d="M229.236 337.177c.921-.064 1.822-.207 2.675.23-.512.542-1.011 1.117-1.558 1.619a8 8 0 0 0-1.117-1.849m5.079.1c.884-.417 1.973-.801 2.945-.918.743-.091 1.343-.099 1.959.374l-.226.037c-1.36.256-2.086.895-2.852 2.038-1.351 2.012-2.758 8.676-5.074 9.203-.364.083-.872-.114-1.175-.324a2 2 0 0 1-.882-1.504c-.222-2.277 1.496-5.316 2.943-6.972.664-.764 1.515-1.386 2.362-1.934"/><path fill="#033b63" d="m239.218 336.731.839.104-.187.131c-1.268.909-2.275 1.829-3.08 3.178-1.573 2.635-2.505 9.819-6.731 9.086-.653-.112-1.135-.407-1.515-.961-.878-1.278-.492-3.761-.095-5.162.419-1.484 1.106-2.772 1.903-4.082.548-.502 1.046-1.077 1.559-1.619l.614-.388 1.789.257c-.847.548-1.698 1.171-2.362 1.935-1.446 1.656-3.165 4.694-2.943 6.971.062.637.359 1.14.882 1.505.303.209.812.407 1.175.324 2.316-.528 3.723-7.192 5.075-9.203.765-1.144 1.492-1.783 2.851-2.038zm6.605 6.69c.188-.561.527-1.119.859-1.609 1.392-2.044 3.854-3.217 6.226-3.603-.128.5-1.116.837-1.561 1.098-1.93 1.133-3.69 2.81-5.524 4.114m.963-7.046.319.029c-.037.101-5.456 3.916-6.023 4.26-.087.119-.025.065-.214.123q.312-.613.648-1.21c1.133-2.001 3.182-2.638 5.27-3.202"/><path fill="#90564e" d="m211.202 350.088.135.108c.51.224.865.259 1.058.847.299.903-.218 1.664.452 2.53.499.267.758.423 1.331.29 1.507-.353 2.538-2.056 4.211-1.762.747.434 1.164 1.333 1.403 2.144.183.619.178 1.318.201 1.959-.498.795-1.631 1.92-1.847 2.786 5.037.367 10.12.703 15.172.693-1.144.751-2.595 1.693-2.866 3.142-.05.262-.069.532-.085.797-.021 0-.042.004-.063-.002-1.581-.463-3.817-.293-5.493-.386q-4.677-.237-9.336-.71c-3.408-.359-7.931-2.123-11.189-1.635l-.237-.231c-.236-1.521-.111-4.082.412-5.531.532.669.766 1.21.982 2.034.013-.023.029-.041.038-.064.314-.764.442-1.189 1.1-1.727 2.302-1.88 1.063-3.964 4.621-5.282"/><path fill="#d2c9c7" d="M204.461 355.127c.532.668.766 1.21.982 2.034.141.162.043.075.335.207.334.737.935 1.711.981 2.516l-.358.394c.968.66 6.183-.087 7.737-.037q.928.02 1.856.052c.6-.449 1.409-1.254 2.152-1.304 5.037.368 10.12.704 15.172.694-1.144.751-2.595 1.693-2.866 3.142-.05.261-.069.531-.085.797-.021 0-.042.004-.063-.002-1.581-.463-3.817-.293-5.493-.386q-4.677-.237-9.336-.71c-3.408-.359-7.931-2.123-11.189-1.636l-.237-.23c-.236-1.521-.111-4.082.412-5.531"/><path fill="#a56b64" d="M211.337 350.196c.51.224.865.259 1.058.846.299.903-.218 1.665.453 2.53.498.268.757.424 1.33.291 1.507-.353 2.538-2.057 4.211-1.762.747.434 1.164 1.332 1.403 2.144.183.618.179 1.318.201 1.959-2.941-.048-5.917.197-8.868.206.027-1.378-.365-5.199.212-6.214"/><path fill="#90564e" d="M249.142 356.383c.826-.475 1.581-.859 2.553-.583.473.135.876.465 1.249.772 1.316.052 3.026.021 4.215.625-.305.737-.896 1.357-1.164 2.036.316 1.351-.998 2.771-1.117 4.12-6.095.691-12.546.327-18.683.292-1.801-.01-4.101-.355-5.828-.023a7 7 0 0 1 .085-.797c.272-1.448 1.723-2.391 2.867-3.142 1.598-.046 3.179.006 4.775.079 2.725-3.092 7.196-.635 11.048-3.379"/><path fill="#03304d" d="M252.944 356.571c1.316.051 3.026.02 4.216.624-.305.737-.897 1.358-1.165 2.036-.438.108-.911.27-1.363.204-.65-.094-1.212-2.074-1.561-2.657z"/><path fill="#d2c9c7" d="M205.663 338.622c-.238-1.598-.445-3.487-.019-5.062.494.126 1.032.216 1.491.436 2.662.44 5.42.745 8.121.676a49 49 0 0 0 6.095-.591c1.395-.222 2.954-.629 4.357-.623.471.002.807.108 1.235.299.025.863.072 1.731.047 2.594l.274.598.366.99.025.237c-1.559.826-6.605 1.735-8.454 1.71l-.193.056c-2.783.658-10.774-.318-13.345-1.32"/><path fill="#17616e" d="M205.663 338.621c-.238-1.598-.445-3.487-.019-5.062.494.126 1.032.216 1.491.436.367.46.738.913 1.058 1.407.88-.297 4.414.639 5.604.751.344-.427.274-.531.846-.604.337.297.409.28.532.735l.13.112c1.24 1.175 2.497 2.337 3.703 3.545-2.783.658-10.774-.318-13.345-1.32"/><path fill="#fefefe" d="M208.192 335.402c.88-.296 4.415.64 5.604.752a255 255 0 0 0-2.677 3.188c-1.03-1.26-1.962-2.626-2.927-3.94"/><path fill="#17616e" d="M221.791 336.661q2.73.27 5.473.286l.366.99.025.237c-1.559.826-6.605 1.735-8.454 1.71.851-1.015 1.644-2.079 2.445-3.134z"/><path fill="#fefefe" d="M215.305 336.396c2.025-.193 4.323.11 6.34.355-.801 1.054-1.594 2.119-2.445 3.134l-.193.056c-1.206-1.208-2.463-2.371-3.702-3.545"/><path fill="#144e55" d="M221.791 336.661c.133-.202.272-.399.403-.6.361-.552.62-1.079 1.313-1.262 1.125-.299 2.597.961 3.483 1.55l.274.598a59 59 0 0 1-5.473-.286"/><path fill="#03304d" d="M219.994 356.204c8.206-.733 21.099-.808 29.148.178-3.853 2.744-8.323.286-11.048 3.379-1.596-.073-3.178-.125-4.776-.079-5.052.01-10.134-.326-15.172-.693.216-.866 1.349-1.991 1.848-2.785m-15.353-13.603c1.368-.145 2.765.01 3.894.876 2.051 1.573 2.16 4.306 2.667 6.61-3.557 1.318-2.318 3.402-4.62 5.282-.659.538-.787.963-1.1 1.727-.01.023-.026.042-.038.064-.217-.824-.451-1.365-.983-2.034-1.06-3.935-.336-8.559.18-12.525"/><path fill="#d2c9c7" d="M285.283 265.832c1.163.629 2.578 1.789 3.828 2.115 1.419.377 2.995.921 4.472.934.633.581 1.275 1.295 2.07 1.639l.296-.274.249.364c-.558 1.023-2.476 1.537-3.387 2.253-1.386 1.09-.286 2.979-3.491 3.815-.95.247-1.967.339-2.941.473-2.389 7.447-4.312 15.033-6.724 22.48-2.79 8.617-6.069 17.079-8.748 25.736-1.727 5.572-2.889 11.323-4.691 16.859 1.912.685 3.03 2.025 3.946 3.781-.115 3.356-.515 5.818-1.752 8.975.903 1.257.249 4.08.008 5.597-.062.396-.182.737-.33 1.108-.847.573-7.38 1.434-8.349 1.25-.237-.044-.239-.05-.434-.108-.681 1.152-1.185 2.837-2.597 3.262-.448.135-.967.092-1.367-.161-.428-.27-.723-.671-.774-1.177-.044-.436.159-1.007.311-1.401.118-1.349 1.432-2.769 1.116-4.12.268-.679.86-1.299 1.165-2.036.257-2.034 1.245-4.275 1.88-6.237 1.129-3.487 2.211-6.928 3.051-10.497 1.137-1.312 2.64-7.414 3.232-9.284 1.55-4.906 2.816-9.904 4.468-14.773 1.453-4.276 3.313-8.445 4.585-12.775l5.581-19.669c.705-2.403 1.247-4.894 2.131-7.237.88-2.385 1.428-4.979 2.128-7.428.315-1.169.697-2.314 1.068-3.464"/><path fill="#033b63" d="M266.216 342.226c1.912.685 3.03 2.026 3.945 3.782-.114 3.356-.514 5.818-1.751 8.974.903 1.258.249 4.081.008 5.598-.062.396-.183.737-.33 1.108-.847.573-7.38 1.434-8.35 1.25-.236-.044-.238-.05-.433-.108.122-1.271.546-2.379 1.201-3.468.071-.704.445-1.439.694-2.101 1.915-4.91 3.383-10.022 5.016-15.035"/><path fill="#d2c9c7" d="M268.41 354.983c.903 1.258.249 4.08.008 5.597-.062.397-.183.737-.33 1.109-.847.573-7.38 1.434-8.35 1.249-.236-.043-.238-.05-.433-.108.122-1.27.546-2.378 1.201-3.468.071-.703.445-1.438.694-2.1 1.623-.488 4.964-1.953 6.506-1.422z"/><path fill="#03304d" d="M261.2 357.261c1.623-.488 4.965-1.953 6.507-1.422-1.188 1.814-2.505 2.607-4.629 3.045q-1.28.263-2.571.477c.07-.704.444-1.438.693-2.1"/><path fill="#68797b" d="M289.11 267.947c1.42.378 2.995.922 4.473.934.633.581 1.274 1.295 2.069 1.64l.297-.274.249.363c-.558 1.023-2.476 1.538-3.387 2.254-1.387 1.09-.287 2.978-3.491 3.815-.951.247-1.968.338-2.941.473.386-1.019.647-2.148.961-3.196.915-1.91 1.307-3.958 1.77-6.009"/><path fill="#ab9f9b" d="M285.284 265.832c1.162.629 2.577 1.789 3.827 2.115-.463 2.05-.855 4.099-1.771 6.008.22-1.283.563-2.536.887-3.796-1.324-.228-2.676-1.044-4.012-.863.315-1.169.697-2.315 1.069-3.464"/><path fill="#d2c9c7" d="m304.403 205.887 5.219 1.592c-1.741 5.21-6.238 21.909-8.854 25.533-1.45-.801-2.938-1.175-4.537-1.569.465-2.117 1.335-4.186 1.991-6.255 2.038-6.43 4.381-12.804 6.181-19.301"/><path fill="#03304d" fill-opacity=".988" d="M241.137 332.283c1.834-1.347 3.727-1.973 6.031-1.594 1.762.291 3.159 1.086 4.541 2.173l-.971.586c-.513-.372-1.038-.77-1.609-1.053-1.998-.988-3.854-.755-5.89-.058-.402.137-.774.272-1.195.334q-.166.024-.332.044l-.536-.22z"/><path fill="#fff" d="M346.84 176.87c.81 0 1.52 0 2.12.03 2.91.08 5.71.31 8.56.87 3.27.64 7.38 1.34 10.24 3.06 2.79 4.77 5.4 14.81 3.91 20.33a9 9 0 0 1-.75 1.91c-.55 1.02-1.31 1.93-2.32 2.47-.52.28-1.15.43-1.72.56-1.22.1-2.55.15-3.96.15-11.04 0-27.24-2.81-36.33-5.64-3.2-.99-6.15-2.62-9.33-3.64-.1 2.55-.84 13.68-1.8 15.31-.22.06-.45.18-.68.18-.05 0-.1 0-.15-.02-1.27-.04-2.41-.11-3.64-.44-.44 1.49-.83 3.03-1.36 4.49l-5.22-1.59c.24-.79.78-2.1 1.09-3.27.12-.47.21-.91.22-1.28 0-.19 0-.36-.04-.51-.51-.28-.98-.62-1.46-.95-.38-.12-.35-.07-.65-.4.07-.95.63-1.87 1.03-2.72 2.51-7.86 6.26-15.43 9.58-22.97.09-.57.12-.84.59-1.2 3.99-3.04 17.3-4.27 26.65-4.61 2.04-.07 3.89-.11 5.42-.11m0-12.01c-1.77 0-3.8.04-5.86.12-25.45.93-31.29 5.38-33.48 7.06-2.33 1.77-3.91 4.08-4.73 6.88-.63 1.41-1.27 2.83-1.91 4.25-2.61 5.76-5.31 11.71-7.4 18.06-.64 1.3-1.64 3.49-1.85 6.36-.14 1.93.18 3.85.93 5.6a12.04 12.04 0 0 0 1.16 7.09 12 12 0 0 0 7.22 6.09l5.22 1.59c1.17.36 2.34.53 3.51.53 3.77 0 7.35-1.79 9.61-4.82 2.74-.91 5.07-2.79 6.55-5.28.81-1.37 1.38-2.87 1.84-5.03 10.05 2.57 24.52 4.89 35.29 4.89 1.76 0 3.42-.06 4.93-.18.54-.04 1.08-.12 1.61-.24 1.28-.28 2.98-.72 4.77-1.68 3.03-1.6 5.56-4.17 7.29-7.42.73-1.38 1.32-2.86 1.74-4.41 2.65-9.79-1.4-23.16-5.13-29.54a12 12 0 0 0-4.16-4.22c-4.45-2.68-9.59-3.68-13.35-4.41l-.77-.15c-3.24-.64-6.59-.99-10.55-1.1-.73-.02-1.55-.03-2.45-.03z"/><path fill="#fff" d="M204.51 55.9h.88c14.72.08 29.19 2.12 43.23 7.82 1.41.57 2.92.96 4.28 1.67.64.33 1.36.85 1.49 1.61.09.53-.11.96-.39 1.35-.17.24-.37.46-.56.68 1 .12 1.93.28 2.91.51 5.44 1.58 10.72 3.21 16.45 3.21h.21c.97 0 2.02-.01 2.98-.15.67-.1 1.71-.4 2.82-.68.39-.1.79-.2 1.18-.28.76-.16 1.49-.28 2.09-.28.41 0 .77.06 1.03.19v.39c-1.05 2.13-4.99 5.92-7.33 7.4-.16.1-.31.19-.45.26-.23.13-.73.34-.98.57-.05.05-.11.09-.14.14 1.15.36 2.13 1.52 3.04 2.31 1.22 1.08 6.63 6.23 7.52 6.55 3.71 3.49 8.39 7.98 10.11 13.13.4 1.19.64 2.41.67 3.67.13 4.87-2.96 14.5-3.95 19.78-.82 4.36-.81 8.9-.86 13.32 2.59 2.52 5.65 5.45 6.49 9.09-.33 1.08-.67 2.15-1.07 3.21-.83.72-2.62 1.65-3.18 2.34 1.46 1.85 2.64 3.92 3.58 6.09.93 2.16 1.64 4.43 2.09 6.72.13.66.24 1.32.34 1.98.18 1.29.43 2.67.27 3.98-.05.4-.13.71-.34 1.07-.49-.03-.54-.16-.86-.51-.24-.27-.49-.64-.67-1-.06-.12-.11-.24-.15-.35-.4-.66-.78-1.33-1.16-2-.27-.48-.55-.96-.81-1.45-.41-.75-.82-1.5-1.22-2.25q.075.525.12 1.08c.41 5.45-2.01 11.81-5.16 16.04-1.61 2.17-3.61 3.79-5.63 5.55.42 2.54-.15 5.44-.34 8-.62 8.17-.89 19.95-5.81 26.82-2.84 3.97-8.27 6.92-13.05 7.69-.7.11-1.41.15-2.11.26 2.92 1.5 5.56 3.51 8.29 5.32 2.5 1.65 5.18 3.02 7.67 4.67 2.86 1.9 5.35 4.32 7.72 6.8.28-.16.55-.27.83-.36.32-.11.65-.19 1.01-.27.45-1.17.91-2.41 1.62-3.44.6-.86 1.36-1.53 2.22-2.06 1.43-.87 3.13-1.35 4.78-1.63.47-2.12 1.33-4.18 1.99-6.25 2.04-6.43 4.38-12.8 6.18-19.3l5.22 1.59c-1.74 5.21-6.24 21.9-8.85 25.53 1.12.66 2.11 1.35 2.97 2.08 2.6 2.19 4.14 4.81 5.09 8.58 1.35 5.39 1.02 12.14-1.32 17.4-.33.75-.71 1.47-1.13 2.16-.31.51-.64 1-1.01 1.46-.4.51-.84.98-1.34 1.41-1.73 1.47-5.92 3.52-8.08 4.16l.25.36c-.56 1.02-2.48 1.54-3.39 2.25-.26.2-.43.44-.56.68-.39.74-.4 1.63-1.23 2.33-.37.31-.9.59-1.7.8-.95.25-1.97.34-2.94.47-2.39 7.45-4.31 15.03-6.72 22.48-2.79 8.62-6.07 17.08-8.75 25.74-1.73 5.57-2.89 11.32-4.69 16.86 1.91.69 3.03 2.03 3.95 3.78-.05 1.58-.18 2.95-.41 4.3-.27 1.52-.68 3-1.34 4.68.34.47.46 1.16.46 1.92 0 1.01-.19 2.15-.35 3.05-.04.22-.08.43-.11.62s-.08.37-.13.55v.01c-.06.18-.12.36-.2.55-.77.52-6.2 1.27-7.94 1.27-.18 0-.32 0-.41-.03-.24-.04-.24-.05-.43-.11-.68 1.15-1.18 2.84-2.6 3.26-.16.05-.34.08-.51.08-.3 0-.6-.08-.85-.24-.43-.27-.72-.67-.77-1.18-.04-.44.16-1.01.31-1.4-1.08.12-2.18.2-3.28.27-1.89.11-3.81.15-5.73.15-3.25 0-6.5-.1-9.67-.12-1.22 0-2.66-.17-4.01-.17-.64 0-1.26.04-1.82.14h-.06c-.12-.04-.26-.06-.39-.09-1.55-.34-3.56-.21-5.1-.29-3.12-.16-6.23-.39-9.34-.71-3-.32-6.86-1.72-9.97-1.72-.42 0-.83.03-1.22.08l-.24-.23c-.03-.19-.05-.4-.07-.62-.13-1.53.03-3.65.48-4.92-.4-1.48-.54-3.05-.54-4.65 0-2.66.4-5.4.72-7.88.11-1.43.05-2.83 1.02-3.98-.24-1.6-.44-3.49-.02-5.06.04-.36.06-.71.06-1.06 0-.69-.07-1.35-.17-2.04-.05-.34-.11-.69-.17-1.04l-.06-1.6c-1.27-.98-2.83-1.85-3.36-3.43.12-1.37.68-2.6.94-3.93.42-2.21.76-7.3-.78-9.05-.52-.59-1.25-.97-2.04-.97h-.04c-.59 0-1.21.09-1.8.16-.19 4.06 1.61 9.17 1.25 12.27-.06.51-.35.93-.73 1.27-.67.6-1.62.97-2.43 1.36.35 1.04.82 2.09.51 3.19-.57.72-1.69.79-2.11 1.52-.39.93-.64 1.48-.27 2.46.22.6.28 1.29.28 2.02 0 .97-.15 2-.21 2.91q-.03.345-.03.66c2.32 5.38 1.64 12.09 1.52 17.78.16.7.26 1.49.29 2.28s-.01 1.59-.15 2.29c-.23.23-9.99 1.78-11.39 1.95-2.16.26-4.33.38-6.5.56-2.42.34-4.98.31-7.43.4-4.18.16-8.34.23-12.5.23-2.1 0-4.2-.02-6.31-.05h-.38c-1.03 0-2.13.05-3.22.05-1.01 0-2-.05-2.92-.22-4.66-.2-9.19-1.25-13.82-1.45-.3-1.66-.88-4.23-.66-5.88.04-.31.11-.48.22-.62.12-.15.28-.27.52-.48-.84-1.46-1.22-3.3-1.3-4.98-.09-1.68-.22-5.14.55-6.63 1.85-3.57 11.48-6.06 15.31-7.11.77-.21 2.78-.32 3.25-.85-.23-.1-.45-.18-.66-.31-.41-.25-.72-.72-.78-1.2-.09-.69.08-1.25.48-1.82.97-1.36 2.42-2.11 4.02-2.43.2-.04.4-.08.61-.11.3-.05.59-.08.86-.09h.3c1.78 0 3.15.76 4.71 1.89-.02-1.15-.07-2.3-.17-3.45-.24-.03-.48-.06-.7-.13-2.41-.74-4.44-2.77-5.61-4.92-1.05-1.92-1.96-4.17-1.88-6.39.1-2.78 1.84-5.65 2.62-8.31 1.01-3.42 1.25-7 2.25-10.39.15-.11.29-.23.4-.36-.11.13-.24.25-.4.36-.59.31-1.12.74-1.71 1.03-1.02.5-2.04.75-3.08.75h-.24q-1.005-.045-2.04-.39c-1.02 1.23-1.88 1.91-3.46 2.28-.68.16-1.39.24-2.11.24-2.03 0-4.15-.6-5.99-1.57-.9-.47-1.73-1.03-2.44-1.65-.8-.7-1.46-1.44-2.16-2.15-.69-.71-1.42-1.39-2.35-1.97-.06.16-.15.44-.23.58-.06.1-.13.18-.19.25-.2.2-.43.25-.75.36-.93-.07-1.7-.63-2.41-1.19-1.58-1.25-2.95-2.49-3.21-4.53-.66-.39-1.06-.91-1.57-1.45-.29-.31-.57-.45-.89-.52-.31-.07-.65-.06-1.04-.07-.4.18-.84.26-1.3.26-.55 0-1.12-.11-1.61-.29-3.1-1.1-6.29-5.12-7.68-8.01-1.08-2.24-1.74-4.51-2.43-6.89-2.44-8.45-1.98-14.39.96-22.68 4.41-12.46 15.19-22.46 26.93-28.05l.15-.26c-.22-.03-.44-.07-.65-.12-1.52-.35-2.98-1.17-4.23-2.06-11.53-8.27-11.16-18.47-12.27-31.28-.16-1.82-.18-3.7-.48-5.5l-.04-.25s-.03-.04-.06-.06c-.22-.1-.43-.12-.62-.3-.47-.43-.56-1.35-.57-2.22 0-.52.02-1.02.02-1.38-3.54-4.75-9.74-5.76-13.22-10.72-1.81-2.57-2.56-5.61-2.52-8.69.01-1.03.11-2.05.29-3.07.69-3.97 2.43-6.89 4.86-10.04.61-.79 1.23-1.78 2.04-2.35.02-.14.03-.29.02-.44-.09-1.05-1-2.3-1.06-3.45-.17-3.08 2.83-6.05 4.73-8.17-.11-.86-.15-1.92-.15-3.07 0-1.43.05-3.01.05-4.5 0-2.09-.1-4.02-.56-5.2-.33-1.09-.53-2.25-.74-3.37-1.04-3.39-3.27-13.8-3.36-18 0-.28 0-.53.01-.75.31-4.85 6.68-12.29 10.3-15.56 5.73-6.42 26.78-24.15 34.61-26.86 5.65-1.96 12.55-3.9 18.44-4.91 5.15-.88 10.44-1.27 15.64-1.75 6.47-.59 12.91-.95 19.31-.95m-.03-12.03c-6.32 0-12.99.33-20.4 1l-2.32.21c-4.62.41-9.39.83-14.25 1.66-5.97 1.02-13.38 2.99-20.34 5.4-10.85 3.75-32.99 23.05-39.18 29.71-3.01 2.8-13.12 12.94-13.78 23.28-.04.56-.05 1.14-.03 1.78.12 5.62 2.48 16.28 3.66 20.49.22 1.19.49 2.58.94 4.06 0 .01 0 .03.01.04.02.27.05.8.05 1.73 0 .69-.01 1.4-.02 2.1 0 .39-.01.78-.02 1.16-2.41 3.14-4.86 7.52-4.58 13.04v.09c0 .08 0 .16.02.24-2.41 3.42-4.72 7.66-5.7 13.32-.29 1.66-.44 3.34-.46 4.98-.07 5.82 1.56 11.27 4.71 15.74 3.23 4.59 7.35 7.08 10.36 8.89.36.22.78.47 1.2.73.28 1.07.66 2.08 1.14 3.01.04.64.08 1.28.14 1.91.1 1.19.19 2.36.28 3.51.7 9.12 1.48 19.17 8.27 28.16-8.26 6.98-14.49 15.63-17.83 25.08-3.9 11.01-4.23 19.42-1.18 30.01.72 2.48 1.61 5.57 3.15 8.77 2.41 5 7.65 11.7 14.49 14.12.64.23 1.29.41 1.96.56 1.58 2.05 3.28 3.4 4.21 4.13 1.03.82 3.59 2.84 7.41 3.55.07.07.15.13.23.2a25 25 0 0 0 4.73 3.23 25.9 25.9 0 0 0 7.68 2.63c-.15.85-.25 1.74-.28 2.67-.1 2.54.29 5.11 1.19 7.75-.4.45-.77.92-1.12 1.41-.22.32-.44.64-.63.97-7.57 2.33-14.58 5.49-17.82 11.74-2.04 3.93-2.11 8.47-1.88 12.78.06 1.23.23 2.74.6 4.37-.31 3.13.25 6.14.67 8.36.05.25.09.49.13.7.99 5.53 5.68 9.64 11.29 9.88 1.76.08 3.71.34 5.79.62 2.2.3 4.68.64 7.29.79 1.66.24 3.15.27 4.2.27.65 0 1.3-.01 1.94-.03.43-.01.86-.02 1.28-.02h.21c2.29.03 4.4.05 6.48.05 4.62 0 8.86-.08 12.97-.24.59-.02 1.18-.04 1.78-.05 1.94-.05 4.13-.1 6.45-.4.47-.04.94-.07 1.41-.11 1.68-.13 3.41-.26 5.23-.47 1.21-.14 4.74-.71 6.68-1.03 3.1-.51 5.26-.87 7-1.42 1.41.56 2.91.85 4.45.85.45 0 .9-.03 1.35-.08.62.06 2.07.39 3.04.62 1.67.38 3.56.82 5.55 1.03 3.34.34 6.67.59 9.95.76.76.04 1.48.05 2.11.06.39 0 .96 0 1.27.03q.66.15 1.35.24.72.09 1.44.09h.34a11 11 0 0 0 1.54-.14c.35 0 .88.03 1.39.07.75.05 1.6.1 2.51.1 1.36 0 2.75.03 4.14.06 1.82.03 3.69.06 5.6.06.89 0 1.75 0 2.57-.02.17.12.34.23.51.34 2.15 1.36 4.67 2.09 7.26 2.09 1.35 0 2.69-.2 3.98-.59 2.29-.69 4.06-1.82 5.43-3.05 3.08-.42 6.78-1.26 9.21-2.9a12 12 0 0 0 4.44-5.53c.13-.32.31-.81.49-1.39.03-.09.06-.18.08-.27.2-.67.34-1.33.45-2 .02-.1.04-.25.07-.42.22-1.24.54-3.1.53-5.18 0-.4-.02-.79-.04-1.18.3-1.09.55-2.17.74-3.27.32-1.84.51-3.73.59-5.96.07-2.07-.4-4.12-1.35-5.96-.33-.64-.69-1.25-1.06-1.84.21-.79.41-1.57.61-2.35.67-2.58 1.3-5.01 2.02-7.35 1.41-4.56 2.99-9.04 4.65-13.77 1.35-3.84 2.75-7.81 4.05-11.82 1.29-3.99 2.45-8 3.56-11.87.44-1.54.88-3.05 1.31-4.53 1.03-.53 1.97-1.16 2.83-1.88 1.33-1.13 2.29-2.34 2.98-3.45.67-.43 1.38-.95 2.09-1.59 2.75-1.26 5.84-2.97 7.98-4.79a21.5 21.5 0 0 0 2.98-3.11c.64-.81 1.25-1.69 1.82-2.63.68-1.11 1.31-2.3 1.86-3.54 3.33-7.47 4.08-16.89 2-25.19-1.07-4.27-2.81-7.91-5.26-11 1.18-3.41 2.51-7.67 4.12-13.04.66-2.2 1.29-4.28 1.67-5.43 1.03-3.07.77-6.43-.72-9.3a12.08 12.08 0 0 0-7.16-5.98l-5.22-1.59a12.02 12.02 0 0 0-9.28.96 11.93 11.93 0 0 0-4.51 4.35c.35-3.01.54-5.9.72-8.51.06-.92.12-1.81.19-2.66.04-.46.1-1.04.17-1.66.07-.6.14-1.24.2-1.91 1.1-1.09 2.22-2.32 3.27-3.74 1.08-1.45 2.15-3.16 3.15-5.05 3.09-.76 5.8-2.73 7.47-5.55 1.05-1.78 1.69-3.67 1.93-5.77.32-2.73-.02-5.1-.25-6.68l-.06-.38c-.12-.88-.28-1.77-.45-2.63-.62-3.13-1.58-6.2-2.84-9.12.37-1.02.73-2.13 1.13-3.43.61-2.02.68-4.16.2-6.21-1.09-4.66-3.6-8.31-6.1-11.14.07-2.27.21-4.4.57-6.33.26-1.4.78-3.47 1.34-5.67 1.45-5.77 2.95-11.74 2.82-16.64-.06-2.38-.5-4.79-1.28-7.15-2.72-8.14-9.07-14.12-13.27-18.07-.22-.21-.45-.4-.68-.59.6-.85 1.12-1.7 1.54-2.54.9-1.8 1.33-3.8 1.25-5.82v-.39a12.04 12.04 0 0 0-6.5-10.2c-1.96-1.01-4.16-1.53-6.54-1.53-1.42 0-2.89.18-4.64.56-.54.12-1.08.25-1.61.38-.31.08-.61.16-.91.24-.25.07-.56.15-.78.2-.3.02-.81.02-1.17.02h-.17c-2.83 0-5.79-.66-9.06-1.57-1.17-1.59-2.86-3.16-5.3-4.43-1.63-.85-3.16-1.38-4.28-1.77-.4-.14-.79-.27-1.03-.37-14.18-5.76-29.78-8.61-47.69-8.7h-.95zm82.01 187.19c.05-.07.1-.14.16-.21-.02.05-.03.1-.05.15-.04.02-.07.04-.11.05z"/></g><defs><clipPath id="a"><path fill="#fff" d="M0 .094h415.094v415.094H0z"/></clipPath></defs></svg>