<svg xmlns="http://www.w3.org/2000/svg" width="370" height="370" fill="none" viewBox="0 0 370 370"><g clip-path="url(#a)"><path fill="#e5b988" d="m173.29 39.207.332.28c1.274.054 14.481-7.49 16.458-8.668 1.852-1.104 3.921-2.846 5.932-3.538.156.054.245.073.384.19.772.65 1.132 2.23 1.344 3.184.674 4.063.39 8.16-.161 12.218-3.567 2.207-5.456 5.719-6.4 9.726-.227.968-.484 2.073-.345 3.067.626-.405 1.154-.916 1.704-1.417l.39.359c-.89 4.02.164 8.346.879 12.332l1.82-1.748c2.914-2.93 5.994-6.484 9.437-8.796-.065-3.53.867-6.23 2.585-9.276.351-.62 1.032-1.545 1.145-2.232.055-.328.055-.72.079-1.052.148.408.12 1.055.151 1.499 2.477-1.644 5.245-3.596 7.254-5.78.846-.918 1.44-2.166 2.369-2.974 1.01-.091 1.485.361 2.244.948 3.357 3.945 4.876 9.335 6.254 14.247 4.637-2.851 8.28-6.796 13.844-7.94l-.818 1.575c-1.453 4.495-.912 9.064-.231 13.65 2.083-1.684 4.24-3.446 5.963-5.505.398-.403.389-.483.943-.521 1.832.835 2.781 2.626 3.466 4.431 1.376 3.621 1.703 7.372 2.379 11.141 3.58-1.34 7.057-2.364 10.891-1.795.676.327 1.196.573 1.695 1.144-.174.871-1.599 1.908-2.142 2.677-1.37 1.94-4.219 7.23-4.537 9.537 1.889-.522 3.316-1.181 4.928-2.3l.844-.744.307.037c.99 1.61.404 4.495-.011 6.254-1.101 4.667-3.108 9.132-5.062 13.492 3.35-.707 7.662-1.173 10.698.787.712.46 1.257 1.046 1.756 1.722-3.705 2.598-5.919 6.886-8.048 10.771 2.652 1.63 5.564 3.41 8.799 2.83-.502 6.997-5.589 12.498-10.224 17.358l-1.888 1.792-2.618-.858-.722-.155-1.099 14.638c-.147 1.774-.129 3.806-.519 5.53q-.417 4.885-.949 9.76l-.114.999-.377 3.334c3.54-1.787 8.057-1.371 11.713-.162a34 34 0 0 1 1.342.492q.334.132.663.27a34 34 0 0 1 1.304.589q.321.156.641.318a29 29 0 0 1 1.872 1.048 32 32 0 0 1 1.202.773 28 28 0 0 1 2.286 1.718 30 30 0 0 1 1.6 1.431q.256.248.507.503a30 30 0 0 1 .981 1.041 30 30 0 0 1 1.372 1.65 30 30 0 0 1 .846 1.153q.204.294.4.592a29 29 0 0 1 1.116 1.832q.176.312.341.629.168.317.327.636c2.765 5.538 4.367 11.403 2.312 17.417l-.1.292c4.995 2.559 10.014 7.892 11.747 13.297 1.783 5.566.696 12.714-1.98 17.833-.851 1.628-1.889 2.934-3.206 4.206 4.098 3.671 6.101 10.053 6.445 15.399.192 2.988-.541 6.806-1.782 9.53-.432 1.243-1.136 2.234-1.926 3.27l.545.346c.978.271 2.184.426 2.973 1.074.183.453.26.663.092 1.138-.593 1.654-2.34 2.873-3.054 4.596a20.7 20.7 0 0 1 1.433 4.663q.146.8.227 1.612c.166.676.308 1.338.404 2.027l.366 2.192c-1.601-1.353-8.967-8.04-10.367-8.494-1.052 1.839-1.978 3.767-3.056 5.586l-.995 1.933a161 161 0 0 0-2.82-3.75c-1.645.085-3.632.057-5.194-.501-.541-.194-1.526-.783-2.05-.825-.646-.054-1.769.495-2.486.582-.716.088-1.665-.202-2.374-.342-.22.242-.27.281-.589.412l-.29-.63c-2.539-1.104-4.247-2.214-5.902-4.485q-.384-.087-.763-.191c-2.605-.72-4.297-2.204-5.621-4.5-.866.336-1.706.637-2.611.861-.408-1.439.909-10.733 1.435-12.394-1.97-1.757-3.163-4.273-3.719-6.82-.776-3.562-.547-6.939 1.503-10.049 2.186-3.316 5.106-4.282 8.779-5.067-.587-1.991-.719-4.018-.935-6.072-4.998-.657-8.871-2.105-13.084-4.902-.353 3.139-.859 6.293-1.635 9.356-.698 2.748-1.665 5.54-2.073 8.343.441.521 1.132 1.184 1.403 1.804 1.579 3.607-.009 24.458-.096 29.363 1.874 2.424 4.701 5.554 4.325 8.83-.109.964-.521 1.779-1.049 2.58.565 2.665 1.337 5.327-.253 7.805a16 16 0 0 1-.429.626c.798 3.433 1.225 6.637-.41 9.898l-.107.225c-.21 2.468-.683 4.835-1.252 7.243 1.524 1.47 3.11 3.793 3.175 5.973.013.409-.021.819-.052 1.225 1.924-.011 3.78.373 5.689.528 3.555.604 6.574 1.383 8.814 4.493 1.376 1.911 2.118 4.483 2.436 6.788a41 41 0 0 1 .275 3.098c.297 3.959.288 8.509-.722 12.367h-76.979c-.371-3.941-1.259-9.056-.103-12.887-.569-.351-1.147-.698-1.618-1.175-1.47-1.485-1.256-3.564-1.241-5.481q-.33-.333-.642-.685c-1.048-1.196-1.418-2.836-1.285-4.398.275-3.232 2.863-7.828 5.283-9.944-.458-1.771-.224-3.614-.663-5.388-.584-2.364-3.072-4.366-4.259-6.517l-.103-.19c-.592-.713-1.81-.87-2.677-.979-.681.076-1.358.135-2.022.308-1.475 2.623-4.243 5.213-4.83 8.066-.326 1.587-.241 3.226-.455 4.825 2.326 2.726 5.438 7.09 5.173 10.871-.114 1.64-.819 2.905-1.948 4.057-.009 1.886.193 4.065-1.297 5.494-.453.434-.986.772-1.515 1.104.927 4.081.228 8.764-.185 12.899l-76.893-.012c-1.03-3.49-.913-7.168-.986-10.774.108-1.014.13-2.054.192-3.071.264-2.68.882-5.582 2.347-7.883 1.83-2.875 4.476-4.065 7.669-4.765 2.212-.537 4.946-.775 7.217-.725a8 8 0 0 1-.052-.628c-.08-2.262 1.492-4.929 2.989-6.526l-.51-.342c-1.361-2.546-1.945-7.155-.972-9.923.411-1.171 1.353-2.09 1.727-3.298.452-1.459.55-3.148.746-4.665l-2.614.791a21 21 0 0 1-.505-.774c-1.464-2.389-.72-5.087-.144-7.623-.492-.77-.896-1.519-1.053-2.43-.571-3.313 2.538-6.646 4.362-9.118-.298-5.521-1.654-24.848-.201-29.054.253-.735 1.029-1.498 1.526-2.094-1.577-5.688-3.235-11.809-3.785-17.683-3.118 2.958-8.998 4.692-13.228 4.889-.065 2.157-.218 4.118-.775 6.207 3.371.526 6.321 1.695 8.413 4.533 2.022 2.744 2.621 5.968 2.085 9.3-.283 1.756-.752 3.532-1.638 5.089a22 22 0 0 1-1.542 2.308q.633 5.17.828 10.376l-2.093-.761c-.564 2.512-1.369 4.428-3.621 5.895-1.078.701-2.202 1.082-3.447 1.377l-.188.323-.204-.046.019.264c-1.94 2.408-4.698 4.09-7.818 4.423-1.304.138-2.219.016-3.353-.634-2.929 1.544-5.793 1.644-9.028 1.278l-.167.12c-.196.312-.354.528-.644.761-.644-.236-.988-1.287-1.295-1.893-1.787-1.102-3.249-2.537-4.67-4.066-2.734 2.327-5.46 4.868-8.35 6.989-.191-.41-.029-.904.027-1.351a80 80 0 0 1 1.58-7.586c.157-.329.36-.693.455-1.042.144-.535-.157-.993-.398-1.451-1.011-1.274-2.039-2.535-2.933-3.898.591-.947 1.415-1.091 2.405-1.424-1.595-3.403-2.286-6.939-2.105-10.684.266-5.486 2.062-11.63 6.246-15.428-1.326-1.306-2.4-2.619-3.253-4.283-2.595-5.067-3.701-12.202-1.923-17.696 1.767-5.464 6.709-10.765 11.772-13.352-.06-.166-.122-.331-.175-.499-1.966-6.156-.26-12.146 2.659-17.738 3.482-6.671 9.737-12.062 16.95-14.278 3.987-1.225 8.197-1.353 11.942.63l-.396-4.689c-4.062-.193-9.749-.581-12.958-3.219-3.61-2.967-6.957-8.492-7.451-13.181-.465-2.621.3-5.169 1.489-7.484.994-1.862 2.386-4.385 4.067-5.666 3.12-2.374 9.69-.937 13.356-.404l.483.221c.071.012.142.03.215.036 1.075.083 7.734-5.005 9.106-6.014.791-.516 1.545-1.168 2.296-1.744l.396-.386c.038-.13.135-.258.114-.392-.069-.432-1.565-2.968-1.865-3.77-1.532-4.091-1.877-8.357-2.007-12.683.075-2.989.323-5.904.721-8.867-2.624-2.93-4.494-7.11-5.339-10.909-1.904-.846-3.943-1.835-5.567-3.151-.922-4.62-.346-5.44-.286-9.766l.002-.218c1.638-5.605 3.481-13.292 2.678-19.073-.165-1.185-.93-2.45-1.292-3.617.561-.613 1.79-.672 2.58-.75 4.494.173 9.128 2.207 12.863 4.636.357.184 3.186-2.706 3.651-3.14 6.68-6.233 16.929-15.521 26.353-16.16-.358 1.691-.389 3.16-.246 4.881.444 1.882 1.017 3.522 1.917 5.234 1.337-1.371 3.243-2.478 4.725-3.738 3.811-3.237 7.131-6.98 7.55-12.142 1.817.694 3.099 1.573 4.549 2.857 1.746 1.821 4.291 4.345 5.151 6.75"/><path fill="#aca595" d="M249.96 183.866c.184.298.375.589.445.938.661 3.324-1.352 18.311-2.033 22.405a229 229 0 0 1-2.203 11.966c-.353 3.139-.859 6.293-1.635 9.356-.698 2.748-1.665 5.54-2.073 8.343.441.521 1.132 1.184 1.403 1.804 1.579 3.607-.009 24.458-.096 29.363 1.874 2.425 4.701 5.554 4.325 8.83-.109.964-.521 1.779-1.049 2.58.565 2.665 1.337 5.327-.253 7.806a19 19 0 0 1-.428.626c.797 3.432 1.224 6.636-.41 9.897q-.055.111-.108.226c-.21 2.467-.683 4.834-1.252 7.242 1.524 1.47 3.11 3.793 3.175 5.974.013.408-.021.818-.052 1.224 1.924-.011 3.78.373 5.689.528 3.555.604 6.574 1.383 8.814 4.493 1.376 1.911 2.118 4.483 2.436 6.788a41 41 0 0 1 .275 3.098c.297 3.959.288 8.509-.722 12.367h-76.979c-.371-3.941-1.259-9.056-.103-12.887-.569-.351-1.147-.698-1.618-1.175-1.47-1.485-1.256-3.564-1.241-5.481q-.33-.334-.642-.685c-1.048-1.196-1.418-2.836-1.285-4.398.275-3.232 2.864-7.828 5.283-9.944-.458-1.771-.224-3.614-.663-5.388-.584-2.364-3.072-4.366-4.259-6.517l-.103-.19c-.592-.713-1.81-.87-2.677-.979-.68.076-1.358.135-2.022.308-1.475 2.623-4.243 5.213-4.83 8.066-.326 1.587-.241 3.226-.455 4.826 2.326 2.725 5.438 7.089 5.173 10.87-.114 1.64-.819 2.905-1.948 4.057-.009 1.886.193 4.065-1.297 5.494-.453.434-.986.772-1.514 1.104.926 4.081.227 8.764-.186 12.899l-76.893-.012c-1.03-3.49-.913-7.168-.986-10.774.108-1.014.13-2.054.193-3.071.263-2.68.88-5.582 2.346-7.883 1.83-2.875 4.476-4.065 7.669-4.764 2.212-.538 4.946-.776 7.217-.726a8 8 0 0 1-.052-.628c-.08-2.262 1.492-4.929 2.989-6.526l-.51-.341c-1.361-2.547-1.945-7.156-.972-9.924.411-1.171 1.353-2.09 1.727-3.298.452-1.459.55-3.148.746-4.665l-2.614.791a20 20 0 0 1-.504-.774c-1.465-2.389-.721-5.087-.145-7.623-.492-.77-.895-1.519-1.053-2.43-.571-3.312 2.538-6.646 4.362-9.118-.298-5.521-1.654-24.848-.201-29.054.253-.735 1.029-1.498 1.526-2.094-1.577-5.688-3.235-11.809-3.785-17.683a202 202 0 0 1-1.847-9.776 68 68 0 0 1-.246-1.418c-.684-4.196-2.751-19.775-2.077-23.098.069-.338.265-.596.463-.869.423.398.734.758 1.064 1.237 2.225 2.676 4.68 4.973 7.578 6.916 2.612 1.643 5.158 2.982 8.125 3.876 3.691.836 12.553.317 16.865.371l3.91.007 3.012.009c19.368.102 38.72.569 58.089.362l5.115-.075c.715-.017 1.437-.058 2.151-.047 2.041-.21 4.148-.158 6.199-.251 3.603-.159 7.082-.556 10.62-1.283l.247-.05c7.234-1.535 12.759-4.925 16.79-11.148"/><path fill="#e4e1d7" d="m143.827 196.341 3.91.007 3.012.009c19.368.102 38.72.569 58.089.362l5.115-.075c.715-.017 1.437-.058 2.151-.047a23 23 0 0 1-2.145 2.449q.982.282 1.992.428 1.01.148 2.031.159c.002 3.217 1.452 13.532 3.73 15.86.233.237.314.292.645.359.185-.925-.345-2.574-.506-3.546-.497-2.995-1.54-9.617-.683-12.394.332-.129.598-.187.954-.218 2.255.312 4.484.211 6.742.007-.609 8.681 2.12 17.318 4.84 25.439 1.263 3.771 2.602 7.66 4.316 11.253 1.065 2.24 4.356 7.29 4.793 9.165.244 1.045-.282 2.188-.664 3.15-2.767 6.973-6.404 8.997-10.184 14.73 2.897 1.378 5.798 2.717 8.531 4.406.072 1.878.013 3.74-.054 5.618-4.932-2.968-10.671-5.418-16.261-6.833-2.395-.606-4.829-.964-7.248-1.446 8.556 3.847 16.25 8.168 24.303 12.937.384 1.334.589 2.746.852 4.109-3.433-1.69-7.145-2.814-10.733-4.11-2.103-.761-4.143-1.69-6.236-2.482-5.491-2.076-12.616-4.377-18.303-5.601-12.045-2.592-25.656-2.954-37.904-1.863-4.892.436-9.775.923-14.57 2.026-7.812 1.798-15.383 4.714-22.847 7.576-3.902 1.498-7.824 2.739-11.652 4.458.25-1.383.521-2.752.851-4.12 7.909-4.663 15.687-9.104 24.106-12.821q-.77.105-1.538.229a61 61 0 0 0-6.078 1.302q-.751.202-1.497.421-.745.222-1.486.46-.74.238-1.473.497-.733.257-1.461.531a69 69 0 0 0-1.446.571 65 65 0 0 0-4.246 1.928q-.695.347-1.382.713a60 60 0 0 0-2.706 1.53 89 89 0 0 1-.055-5.619c2.715-1.719 5.641-3.034 8.537-4.415-3.803-5.844-9.915-10.215-10.955-17.648-.228-1.628-.06-3.416-.02-5.059 5.018-7.745 10.112-23.332 11.319-32.7.384-2.978.366-6.051.449-9.05 1.933.645 3.723.877 5.752.968.194 5.44-1.246 11.329-2.244 16.671 3.596-5.795 3.892-10.313 4.569-16.824 2.479-.084 5.186.048 7.614-.442-.977-.949-1.861-1.887-2.626-3.015"/><path fill="#b3813d" d="M150.749 196.358c19.368.101 38.72.568 58.089.362-3.514 2.299-9.181 5.591-13.203 6.383-8.155 3.049-15.683 4.665-24.263 2.116-6.825-1.2-14.953-4.923-20.623-8.861"/><path fill="#e5b988" d="M160.676 199.838c13.47 1.095 27.22.851 40.696-.019-1.824 1.265-3.817 2.185-5.737 3.284-8.155 3.048-15.683 4.664-24.263 2.116-3.623-1.767-7.405-2.962-10.696-5.381"/><path fill="#7d7666" d="m147.736 196.348 3.013.01c5.67 3.938 13.798 7.661 20.623 8.861 8.58 2.549 16.108.933 24.263-2.116 4.021-.792 9.689-4.084 13.203-6.383l5.115-.076c-.973 1.095-1.947 2.184-3.043 3.159-7.149 6.364-22.566 10.578-31.999 9.994-7.322-.45-18.541-3.523-24.723-7.589-2.524-1.659-4.467-3.614-6.452-5.86"/><path fill="#514f44" d="m143.826 196.341 3.911.007c1.984 2.246 3.928 4.201 6.451 5.859 6.182 4.066 17.401 7.139 24.723 7.59 9.433.583 24.851-3.631 31.999-9.994 1.097-.975 2.07-2.064 3.043-3.159.715-.017 1.437-.058 2.151-.047a23 23 0 0 1-2.146 2.449c-3.063 2.943-6.274 5.374-10.102 7.261-6.648 3.276-17.061 5.294-24.416 5.133-7.175-.155-16.416-1.891-22.938-5a39 39 0 0 1-1.38-.693 38 38 0 0 1-2.666-1.558 36 36 0 0 1-2.523-1.779 38 38 0 0 1-2.364-1.987 39 39 0 0 1-1.116-1.067c-.977-.949-1.861-1.887-2.627-3.015"/><path fill="#b53925" d="M159.987 242.449c-2.089-4.759-2.626-9.567-.685-14.494 2.046-5.192 6.272-9.164 11.352-11.364q.287-.121.577-.238t.583-.223a24 24 0 0 1 1.779-.588q.3-.086.601-.166a27 27 0 0 1 1.828-.408 26 26 0 0 1 1.853-.275q.31-.033.621-.061.31-.026.623-.046.31-.018.623-.03a26 26 0 0 1 1.249-.014 26 26 0 0 1 1.248.044q.311.02.622.046.312.028.622.061.31.035.62.078a21 21 0 0 1 1.233.197q.307.057.611.122.307.063.61.135a23 23 0 0 1 1.207.317 28 28 0 0 1 1.192.377 26 26 0 0 1 1.17.434c5.134 2.072 9.601 5.972 11.78 11.126q.086.204.166.412a19 19 0 0 1 .303.832q.07.212.136.423.065.213.124.427.061.212.115.428.054.215.103.432a16 16 0 0 1 .247 1.308 22 22 0 0 1 .109.881 22 22 0 0 1 .065.884 17 17 0 0 1 .02.888q0 .222-.005.443a22 22 0 0 1-.085 1.328 21 21 0 0 1-.185 1.319 17 17 0 0 1-.282 1.3q-.056.216-.117.428-.06.214-.125.427a21 21 0 0 1-.612 1.665c-.315.763-.705 1.498-1.089 2.227-.958 1.415-1.924 2.781-3.148 3.978-4.445 4.291-10.256 6.587-16.422 6.719-6.694.144-12.872-2.263-17.678-6.904-1.428-1.518-2.52-3.067-3.559-4.875"/><path fill="#e4e1d7" d="m180.43 218.454.264.015c1.302.1 2.412 1.005 3.217 1.993 1.771 2.171 2.041 4.383 1.749 7.066 1.928.065 3.595.767 5.054 2.021q.197.167.386.347a10 10 0 0 1 .716.748 10.3 10.3 0 0 1 1.847 3.102 10 10 0 0 1 .535 2 9 9 0 0 1 .115 1.03c.197 2.787-.545 5.531-2.419 7.654-2.271 2.576-4.955 3.335-8.288 3.522-.592-.021-1.176-.048-1.746-.224-.518-.157-1.1-.578-1.278-1.115-.155-.471-.063-.56.165-.96 1.296-.905 3.229-.778 4.754-.809 1.605-.979 2.794-2.129 3.634-3.823 1.069-2.156 1.363-5.085.576-7.388-.373-1.095-1.082-2.025-2.144-2.526-1.333-.626-3.264-.563-4.619-.022l-.327.137c-.604-1.175.666-5.123.436-6.805-.239-1.749-2.148-2.919-2.787-4.517-.239-.596-.05-.886.16-1.446"/><path fill="#e4e1d7" d="M178.068 221.491c.288.052.586.105.863.203.771.274 1.132.815 1.424 1.544 2.904 7.244-6.865 8.577-8.201 12.101-1.084 2.86.343 6.175 2.519 8.104.867.769 2.716 1.609 3.191 2.628l-.786.691c-.197.079-.331.142-.548.186-1.009.203-2.3-.218-3.137-.772-2.705-1.791-3.96-5.46-4.513-8.496-1.68-9.216 4.659-6.058 8.032-10.677 1.284-1.756.046-3.892 1.156-5.512"/><path fill="#e4e1d7" d="M181.934 233.349c.532-.056 1.338-.224 1.842.022.408.198.417.364.495.761-.6 1.182-2.665 1.76-3.768 2.509l-.201.141c1.451.422 2.849.882 3.763 2.188.414.593.592 1.261.434 1.974-.241 1.093-1.121 1.656-1.982 2.253-.257.12-.256.127-.563.234-.988.342-2.314.334-3.25-.162-.98-.519-1.614-1.457-1.915-2.508-.435-1.518-.113-3.112.704-4.441 1.054-1.716 2.528-2.519 4.441-2.971"/><path fill="#b53925" d="M179.076 239.621c.722.072 1.732.096 2.338.526.31.22.237.24.295.585-.628.226-.98.372-1.664.213-.537-.366-.701-.744-.969-1.324"/><path fill="#e4e1d7" d="M166.025 234.475c.233.1.415.24.622.385.415.987-.221 3.087-.151 4.243.096 1.579 1.754 4.027 1.331 5.481l-.435.018c-1.696-1.437-2.627-3.68-2.774-5.881-.112-1.67.283-3.007 1.407-4.246m30.068-4.147c.196.078.308.114.5.225.828.486 1.315 1.513 1.555 2.406.434 1.625.222 3.16-.617 4.597-.413.094-.221.11-.578-.013-.123-.213-.238-.397-.295-.639-.142-.599-.984-5.717-.905-5.989.063-.218.225-.391.34-.587"/><path fill="#7d7666" d="M139.251 221.692c.226.122.396.281.591.445.035 1.228-3.73 9.346-4.449 11.058l3.542-1.505c.458-1.179 1.078-3.374 1.997-4.233.342-.321.42-.325.847-.284.316 1.012-.576 2.701-.951 3.7 1.16-.517 2.362-1.122 3.601-1.425.447-.109.959-.294 1.366-.061-.685 1.427-4.151 2.594-5.575 3.252l-1.295 3.765a145 145 0 0 1 6.727-2.628c.555-.203.841-.218 1.372.039l.067.27c-.968 1.482-6.914 3.6-8.939 4.509-1.471 4.282-3.042 10.341-5.328 14.056.347-4.48 1.954-8.858 3.364-13.094-1.313.602-2.587 1.302-3.867 1.97-1.738 4.229-2.629 11.713-4.953 15.164.245-4.758 1.522-9.441 2.881-13.987-2.505 1.656-4.998 3.471-7.696 4.795 2.338-3.01 5.186-5.172 8.431-7.122l1.489-4.107c-3.504 1.544-6.879 3.658-10.516 4.853 3.226-3.232 7.263-5.026 11.332-6.954 1.405-3.302 3.802-9.966 5.962-12.476"/><path fill="#e4e1d7" d="m137.964 233.702.098.114c-.026 1.064-.739 2.484-1.107 3.505l-3.554 1.76-.132-.146c.209-1.219.839-2.484 1.29-3.638a170 170 0 0 1 3.405-1.595"/><path fill="#7d7666" d="m222.298 243.136.559.311c1.012 1.621 1.042 4.847 1.372 6.742 1.049-.425 2.131-.789 3.197-1.175-.072-1.051-.211-2.223-.004-3.263.094-.469.22-.598.611-.844l.229.187c.371.986.259 2.424.347 3.503 1.991-.77 4.103-1.455 6.153-2.061.526-.157.958-.297 1.457-.022l.065.371c-.715.945-6.1 2.423-7.497 2.925.195 1.243.264 2.517.367 3.773a65 65 0 0 1 5.326-1.934c1.004-.308 3.021-1.169 3.955-.674l.102.336c-.573.889-7.749 3.132-9.35 3.813.03 3.529-.029 6.953-1.333 10.273l-.011-.14c-.142-2.035.356-8.232-.091-9.556l-3.15 1.39a35 35 0 0 1-.441 4.317c-.382-1.244-.46-2.546-.589-3.835-3.867 1.623-7.606 3.073-11.726 3.937 3.641-2.133 7.774-3.734 11.613-5.495-.066-1.378-.196-2.757-.297-4.133-4.43 1.808-8.923 4.096-13.482 5.503 4.086-2.826 8.721-4.827 13.288-6.727-.319-2.154-1.256-5.463-.67-7.522"/><path fill="#e4e1d7" d="M227.389 250.301c.487.589.395 2.953.434 3.806l-3.082 1.331c-.261-1.265-.242-2.679-.388-3.977z"/><path fill="#aca595" d="M163.546 247.324a91 91 0 0 0-9.61 1.582c-2.624.578-6.008 1.915-8.698 1.72-.458-.034-.807-.12-1.126-.469-.059-.499-.017-.745.255-1.18.477-.763 1.362-1.382 2.147-1.788 1.074-.554 2.276-.886 3.404-1.32 3.329-1.28 6.572-2.645 10.069-3.42 1.039 1.808 2.131 3.357 3.559 4.875m37.248-3.793c2.995.404 12.175 2.293 14.001 4.528.236.29.323.539.386.91-.225.438-.26.534-.763.691-1.44.45-14.049-1.93-16.772-2.152 1.224-1.196 2.19-2.563 3.148-3.977"/><path fill="#31421d" d="M116.316 287.089c3.293-.966 6.718-1.468 10.026-2.388 2.622-.729 5.204-1.645 7.81-2.441a308 308 0 0 1 13.804-3.86c5.381 3.154 11.717 5.621 17.497 7.987 1.92.785 3.976 1.472 5.843 2.367 2.806 1.016 6.029 1.874 8.625 3.322-.68.076-1.358.135-2.022.309-1.475 2.622-4.243 5.213-4.83 8.065-.326 1.587-.241 3.226-.455 4.826 2.326 2.725 5.438 7.089 5.173 10.87-.114 1.64-.819 2.905-1.948 4.057-.009 1.886.193 4.065-1.297 5.494-.453.434-.986.772-1.514 1.104.926 4.081.227 8.764-.186 12.899l-76.893-.011c-1.03-3.49-.913-7.169-.986-10.775.108-1.014.13-2.054.193-3.071.263-2.68.88-5.582 2.346-7.883 1.83-2.875 4.476-4.065 7.669-4.764 2.212-.538 4.946-.776 7.217-.726a8 8 0 0 1-.052-.628c-.08-2.262 1.492-4.928 2.989-6.526l-.51-.341c-1.361-2.547-1.945-7.156-.972-9.924.411-1.171 1.353-2.09 1.727-3.298.452-1.459.55-3.148.746-4.664"/><path fill="#687387" d="M105.171 313.196c2.212-.538 4.946-.776 7.217-.726.22.585.366 1.184.866 1.593 1.604.602 3.654.115 5.358.431 5.792 1.073 12.064 2.555 17.581 4.624 3.037 1.137 6.26 2.474 9.035 4.153 3.232 1.955 5.603 4.601 9.361 5.641 5.903 1.043 12.947.209 18.439-2.111.926 4.081.227 8.764-.186 12.899l-76.893-.011c-1.03-3.491-.913-7.169-.986-10.775.108-1.014.13-2.054.193-3.071.263-2.68.88-5.582 2.346-7.883 1.83-2.875 4.476-4.065 7.669-4.764"/><path fill="#515a6e" d="M173.028 326.8c.926 4.081.227 8.764-.186 12.899l-76.893-.011c-1.03-3.49-.913-7.169-.986-10.775 3.315 1.156 6.746 2.301 10.25 2.683 3.762.412 7.659.343 11.441.373 7.805.059 15.738-.065 23.51-.872 2.901-.301 5.769-.91 8.657-1.311 1.81-.253 4.079-.184 5.768-.875 5.903 1.043 12.947.209 18.439-2.111"/><path fill="#788195" d="M95.155 325.842c.264-2.68.882-5.583 2.346-7.883 1.831-2.876 4.477-4.065 7.669-4.765l.168.052c1.457.43 2.974.587 4.442.975 2.741.724 5.73 2.613 7.127 5.159.475.868.7 1.867.41 2.833-.44 1.468-1.912 2.484-3.222 3.117-4.942 2.386-13.579 1.121-18.94.512"/><path fill="#8b291a" d="M116.316 287.089c3.293-.966 6.718-1.468 10.026-2.388 2.622-.729 5.204-1.645 7.81-2.441a308 308 0 0 1 13.804-3.86c5.381 3.154 11.717 5.621 17.497 7.987 1.92.785 3.976 1.472 5.843 2.367-.842.933-1.667 1.9-2.563 2.783-1.925 1.752-4.057 3.575-6.445 4.664a26 26 0 0 1-2.453 1.457c-12.496 5.594-25.511 7.559-39.12 7.946-1.8-.046-3.594-.171-5.39-.288l-.51-.341c-1.361-2.547-1.945-7.156-.972-9.924.411-1.171 1.353-2.09 1.727-3.298.452-1.459.55-3.148.746-4.664"/><path fill="#b53925" d="M152.608 284.399c5.302 2.587 10.513 5.275 16.125 7.137-1.925 1.752-4.057 3.575-6.446 4.664-2.908.497-5.801 1.574-8.683 2.251-7.483 1.76-20.414 4.157-27.915 3.893-1.907-.068-3.775-.462-5.65-.787-.979-2.79-.655-5.612-.455-8.5 2.191-.09 4.416-.539 6.592-.816 9.582-1.219 17.968-2.906 26.432-7.842m-6.88-3.813c.799.302 1.522.821 2.246 1.274-6.595 3.656-14.885 5.257-22.324 6.121-.667.126-1.406.336-2.084.288.182-.168.344-.325.575-.426.805-.351 1.775-.54 2.62-.813l6.399-2.098c4.206-1.397 8.321-3.083 12.568-4.346"/><path fill="#48652c" d="M159.835 297.658c-.958.958-2.223 1.699-3.353 2.443-5.912 3.893-12.06 6.554-18.592 9.213-3.223 1.311-6.437 2.662-9.725 3.805 3.36-.356 6.756-.55 10.1-1.028 11.539-1.649 17.688-6.12 26.868-12.69-.65 2.792-1.391 6.666.239 9.24.524.828 1.39 1.481 2.127 2.117.488 2.112 1.066 4.136 1.837 6.162-5.455.768-10.961.493-16.451.419-3.478-.048-6.952.063-10.428-.089 2.397.909 4.786 1.845 7.265 2.512 6.631 1.783 14.35 2.372 21.089 1.132-5.527 3.458-11.542 5.198-17.955 6.103-10.429-6.909-19.829-14.79-32.936-15.543.03-1.996.255-3.922.794-5.85 13.609-.388 26.625-2.353 39.121-7.946"/><path fill="#515a6e" d="M182.598 293.054c1.524-.078 12.005 3.359 14.44 3.959 13.659 3.361 28.296 5.584 42.289 3.032 2.081-.38 4.838-.7 6.518-2.04-.21 2.467-.683 4.834-1.252 7.242 1.524 1.47 3.11 3.793 3.175 5.974.013.408-.021.818-.052 1.224 1.924-.011 3.78.373 5.689.528 3.555.604 6.574 1.383 8.814 4.493 1.376 1.911 2.118 4.483 2.436 6.788.127 1.036.227 2.055.275 3.099.297 3.959.288 8.509-.722 12.366h-76.979c-.371-3.94-1.259-9.056-.103-12.887-.569-.351-1.147-.698-1.618-1.175-1.47-1.484-1.256-3.564-1.241-5.48q-.33-.334-.642-.685c-1.048-1.197-1.418-2.837-1.285-4.399.275-3.231 2.863-7.828 5.283-9.944-.458-1.771-.224-3.614-.663-5.388-.584-2.364-3.072-4.365-4.259-6.517z"/><path fill="#31421d" d="M182.598 293.054c1.524-.078 12.005 3.359 14.44 3.959 13.659 3.361 28.296 5.584 42.289 3.032 2.081-.38 4.838-.7 6.518-2.04-.21 2.467-.683 4.834-1.252 7.242 1.524 1.47 3.11 3.793 3.175 5.974.013.408-.021.818-.052 1.224-.203.517-.44 1.4-.96 1.642-.99.461-2.827.245-3.921.275-3.34.088-13.613 2.943-17.189 4.118-3.644 1.198-7.568 2.899-10.884 4.834-5.189 3.03-6.5 6.077-13.222 5.95-5.074-.006-9.707-.458-14.414-2.432-.569-.351-1.147-.698-1.618-1.175-1.47-1.484-1.256-3.564-1.241-5.48q-.33-.334-.642-.685c-1.048-1.197-1.418-2.837-1.285-4.399.275-3.231 2.863-7.828 5.283-9.944-.458-1.771-.224-3.614-.663-5.388-.584-2.364-3.072-4.365-4.259-6.517z"/><path fill="#48652c" d="M191.724 297.814c4.121 1.045 8.158 2.497 12.263 3.621 13.788 3.775 23.71 4.022 37.775 1.555-.631 3.647-.591 4.973 1.465 8.193-2.002.076-4.004-.014-6.002.176-12.268 1.178-21.673 6.45-31.671 13.306a181 181 0 0 0-8.315-1.933 21 21 0 0 1-2.068-.537 21 21 0 0 1-2.002-.754c-1.547-.659-3.66-1.59-4.265-3.289-.611-1.721.223-3.739.973-5.286 4.214 4.762 8.587 4.042 14.333 4.603a37.6 37.6 0 0 1-8.045-4.557 38 38 0 0 1-2.866-2.349q-.69-.623-1.345-1.278c.541-.927 1.062-1.784 1.76-2.604.995.905 1.985 1.83 3.027 2.68 6.745 5.503 12.978 3.377 20.824 2.589-2.831-.479-5.544-1.348-8.28-2.194-2.268-.7-4.669-1.283-6.822-2.292-3.818-1.787-8.099-6.378-10.739-9.65"/><path fill="#687387" d="M247.716 312.445c1.924-.011 3.78.373 5.69.528 3.554.604 6.573 1.383 8.813 4.493 1.376 1.911 2.118 4.483 2.436 6.788.127 1.036.227 2.055.275 3.099-4.928.871-9.826 2.23-14.789 2.825-11.927 1.429-24.139.75-36.107.194-4.141-.192-8.346-.046-12.449-.704l-.224-.188.179-.216c6.722.127 8.033-2.92 13.222-5.95 3.316-1.935 7.24-3.636 10.884-4.834 3.577-1.175 13.849-4.03 17.19-4.118 1.093-.03 2.93.186 3.92-.275.521-.242.757-1.125.96-1.642"/><path fill="#788195" d="M253.405 312.973c3.555.604 6.574 1.383 8.814 4.493 1.376 1.911 2.118 4.484 2.436 6.788a1 1 0 0 1-.408.401c-.519.284-1.391.417-1.971.567-4.108 1.054-12.117 2.291-16.159.836-1.346-.485-2.633-1.381-3.237-2.718a5 5 0 0 1-.155-.391 4 4 0 0 1-.061-.202 3.6 3.6 0 0 1-.126-.618 5 5 0 0 1-.031-.63 5 5 0 0 1 .033-.419q.013-.105.031-.209a5 5 0 0 1 .095-.41q.029-.102.064-.201.033-.1.072-.198c1.513-3.785 7.198-5.551 10.603-7.089"/><path fill="#514f44" d="M147.956 278.4c7.881-1.902 15.677-2.988 23.75-3.671 2.777-.236 5.602-.559 8.388-.554 2.788.006 5.614.327 8.391.563 7.238.619 14.368 1.494 21.453 3.136 7.88 1.828 15.528 4.315 23.256 6.668 4.334 1.318 8.897 1.793 13.168 3.34.798 3.433 1.225 6.637-.41 9.898l-.107.225c-1.68 1.341-4.437 1.66-6.518 2.041-13.994 2.552-28.63.329-42.289-3.032-2.435-.6-12.916-4.037-14.44-3.959-.592-.713-1.81-.87-2.677-.979-2.596-1.448-5.819-2.306-8.625-3.322-1.867-.896-3.923-1.583-5.843-2.367-5.78-2.366-12.116-4.833-17.497-7.987"/><path fill="#7d7666" d="M179.71 277.039c13.833-.552 27.143 2.931 40.492 6.05a298 298 0 0 1 10.485 2.668c1.926.519 3.935.96 5.781 1.712.527.685 1.042 1.494 1.391 2.286.284.65.371 1.041.109 1.71-.325.242-.587.36-1.003.366-.884.012-1.848-.233-2.733-.337a74 74 0 0 0-4.337-.337c-5.117-.276-10.24-.154-15.349-.645.45.425 15.376 3.542 17.278 3.889 1.646.301 3.296.504 4.96.687l-1.167 2.242c-.116.026-.233.057-.349.079-2.703.519-5.881.868-8.625.805-2.412-.057-4.89-.498-7.281-.805q-3.84-.498-7.656-1.149-3.817-.65-7.606-1.451a195 195 0 0 1-15.009-3.795c-4.242-1.229-8.391-2.76-12.641-3.966-5.179-1.472-18.426-4.973-22.379-7.623 3.408-.378 6.796-1.019 10.207-1.346 5.108-.489 10.305-.685 15.432-1.04m70.25-93.173c.184.298.374.589.445.938.661 3.324-1.352 18.311-2.034 22.405a227 227 0 0 1-2.203 11.966c-.352 3.139-.858 6.293-1.634 9.356-.698 2.748-1.665 5.54-2.073 8.343a26 26 0 0 1-2.166-3.178c-5.834-10.15-6.03-21.647-7.152-32.98.057-1.889.066-3.782-.22-5.652l.247-.05c7.233-1.535 12.758-4.925 16.79-11.148"/><path fill="#514f44" d="M249.96 183.866c.184.298.374.589.445.938.661 3.324-1.352 18.311-2.033 22.405a229 229 0 0 1-2.203 11.966c-.353 3.139-.859 6.293-1.635 9.356-.698 2.748-1.665 5.54-2.073 8.343a26 26 0 0 1-2.166-3.178c.166-1.959.659-3.964 1.002-5.901a300 300 0 0 0 1.719-10.648c1.092-7.868 1.507-15.862 2.109-23.782-2.912 2.761-5.828 5.728-9.451 7.551-.611.306-1.58.803-2.271.57l-.26-.77c.057-1.889.066-3.782-.22-5.652l.247-.05c7.234-1.535 12.759-4.925 16.79-11.148m-139.765.076c.423.398.734.758 1.064 1.237 2.225 2.676 4.68 4.973 7.578 6.916 2.612 1.643 5.158 2.982 8.125 3.876-.001 1.242-.062 2.515-.001 3.752-.384 8.778-1.537 23.601-5.775 31.355-.992 1.97-2.026 4.042-3.499 5.708-1.577-5.688-3.235-11.809-3.785-17.683a202 202 0 0 1-1.847-9.776 68 68 0 0 1-.246-1.418c-.684-4.196-2.751-19.775-2.077-23.098.069-.338.265-.596.463-.869"/><path fill="#7d7666" d="M116.796 193.355c2.219 2.142 6.887 6.895 9.717 7.553.321-.292.343-.769.449-1.186-.385 8.779-1.538 23.601-5.776 31.355-1.03-5.861-2.054-11.741-2.724-17.655-.754-6.666-1.129-13.381-1.666-20.067"/><path fill="#cb985b" d="m173.29 39.207.332.28c1.274.054 14.481-7.49 16.458-8.668 1.852-1.104 3.921-2.846 5.932-3.538.157.054.245.073.384.19.772.65 1.132 2.23 1.344 3.184.674 4.063.39 8.16-.161 12.218-3.567 2.207-5.456 5.719-6.4 9.726-.227.968-.484 2.073-.345 3.067.626-.405 1.154-.916 1.704-1.417l.39.359c-.89 4.02.164 8.346.879 12.332l1.82-1.748c2.914-2.93 5.994-6.484 9.437-8.796-.065-3.53.867-6.23 2.585-9.276.351-.62 1.032-1.545 1.145-2.232.055-.328.055-.72.079-1.052.148.408.12 1.055.151 1.499 2.477-1.644 5.245-3.596 7.254-5.78.846-.918 1.44-2.166 2.369-2.974 1.01-.091 1.485.361 2.244.948 3.357 3.945 4.876 9.335 6.254 14.247 4.637-2.851 8.28-6.796 13.844-7.94l-.818 1.575c-1.453 4.495-.912 9.064-.231 13.65 2.083-1.684 4.24-3.446 5.963-5.505.399-.403.389-.483.943-.521 1.832.835 2.781 2.626 3.466 4.431 1.376 3.621 1.703 7.372 2.379 11.141 3.58-1.34 7.057-2.364 10.891-1.795.676.327 1.196.573 1.695 1.144-.174.871-1.599 1.908-2.142 2.677-1.37 1.94-4.219 7.23-4.537 9.537 1.889-.522 3.316-1.181 4.928-2.3l.844-.744.307.037c.99 1.61.404 4.495-.011 6.254-1.101 4.667-3.108 9.132-5.062 13.492 3.35-.707 7.662-1.173 10.698.787.712.46 1.257 1.046 1.756 1.722-3.705 2.598-5.919 6.886-8.048 10.771 2.652 1.63 5.564 3.41 8.799 2.83-.502 6.997-5.589 12.498-10.224 17.358l-1.888 1.792-2.618-.858-.722-.155-1.099 14.638c-.147 1.774-.129 3.806-.519 5.53-.009-.63.071-1.066-.352-1.55-.53-.093-.99.128-1.481.299.05-6.004.404-12.009.548-18.014-2.474-.575-9.272-1.913-10.85-3.693-.394-1.042.271-2.586.574-3.619-1.514-.557-2.214-1.631-2.897-3.058-.702-1.462-1.321-3.601-1.088-5.215.1-.686.449-1.316.43-2.02-.055-1.983-.321-3.975-.378-5.968-.091-3.139.131-6.241.351-9.37-2.091 1.512-5.346 3.782-8.113 3.363-.513-.077-.921-.293-1.213-.727-.277-.411-.245-.828-.218-1.308.111-1.907.512-3.824.763-5.718.393-2.96.648-6.089.628-9.07-.857.654-1.658 1.4-2.818 1.255-2.05-.258-5.724-5.663-6.988-7.397A48 48 0 0 1 220.961 77c-1.405 1.43-7.084 6.52-9 6.41-.196-.012-.207-.041-.338-.21-.815-1.053-.711-2.93-1.095-4.198-3.496 4.232-10.585 9.89-15.65 12.058-.61.261-1.339.65-2.002.72-.451.048-.74-.105-1.078-.401-.074-.066-.144-.138-.216-.207-3.097 2.365-8.113 10.133-12.409 9.607-.71-.087-1.076-.416-1.49-.979-1.919-2.607-3.163-6.976-5.191-9.992-.196 1.238-.304 2.983-1.456 3.755-.692.464-1.386.466-2.17.277-4.707-1.135-8.275-5.63-11.104-9.26-.859-1.102-1.812-2.211-2.511-3.421a12 12 0 0 1-.262-.47c-1.652 1.8-5.696 7.734-7.992 7.886-1.112.073-2.086-.605-2.862-1.328-2.876-2.679-4.848-6.347-5.998-10.083-3.061 1.56-6.102 5.385-7.14 8.644-.325 1.024-.495 2.698-1.088 3.555-.469.234-.794.314-1.302.163-1.226-.366-2.419-1.644-3.369-2.485.08 1.8.257 3.549.607 5.318.307 1.55.905 3.316.912 4.881.002.511-.112 1.077-.443 1.482-.741.906-2.206.914-3.268.903-2.032-.02-4.209.028-6.216-.282-.196 1.687-.441 3.398-.483 5.096-.109 4.421.449 9.804.927 14.225.197 1.818 1.576 4.411 1.073 6.135-.473 1.624-4.084 4.244-5.508 5.373-1.714 1.36-3.628 2.391-5.34 3.699.188 4.472.374 8.957.478 13.431.073 3.117-.003 6.219.299 9.327.494 5.093 2.842 14.717 4.928 19.533.711 1.641 1.658 3.16 2.645 4.646-1.69 1.093-3.173 2.917-4.59 4.369a7.2 7.2 0 0 0-1.064-1.237c-.198.273-.394.531-.463.869-.674 3.323 1.393 18.902 2.077 23.098q.115.71.246 1.418a202 202 0 0 0 1.847 9.776c-3.118 2.958-8.998 4.692-13.228 4.889-.065 2.157-.218 4.118-.775 6.207 3.371.526 6.321 1.695 8.413 4.533 2.022 2.744 2.621 5.968 2.085 9.3-.283 1.756-.752 3.532-1.638 5.089a22 22 0 0 1-1.542 2.308q.633 5.17.828 10.376l-2.093-.761c-.564 2.512-1.369 4.428-3.621 5.895-1.078.701-2.202 1.082-3.447 1.377l-.188.323-.204-.046.019.264c-1.94 2.408-4.698 4.09-7.818 4.423-1.304.138-2.219.016-3.353-.634-2.929 1.544-5.793 1.644-9.028 1.278l-.167.12c-.196.312-.354.528-.644.761-.644-.236-.988-1.287-1.295-1.893-1.787-1.102-3.249-2.537-4.67-4.066-2.734 2.327-5.46 4.868-8.35 6.989-.191-.41-.029-.904.027-1.351a80 80 0 0 1 1.58-7.586c.157-.329.36-.693.455-1.042.144-.535-.157-.993-.398-1.451-1.011-1.274-2.039-2.535-2.933-3.898.591-.947 1.415-1.091 2.405-1.424-1.595-3.403-2.286-6.939-2.105-10.684.266-5.486 2.062-11.63 6.246-15.428-1.326-1.306-2.4-2.619-3.253-4.283-2.595-5.067-3.701-12.202-1.923-17.696 1.767-5.464 6.71-10.765 11.772-13.352-.06-.166-.122-.331-.175-.499-1.966-6.156-.26-12.146 2.659-17.738 3.482-6.671 9.737-12.062 16.95-14.278 3.987-1.225 8.197-1.353 11.942.63l-.396-4.689c-4.062-.193-9.749-.581-12.958-3.219-3.61-2.967-6.957-8.492-7.451-13.181-.465-2.621.3-5.169 1.489-7.484.994-1.862 2.386-4.385 4.067-5.666 3.12-2.374 9.69-.937 13.356-.404l.483.221c.071.012.142.03.215.036 1.075.083 7.734-5.005 9.106-6.014.791-.516 1.545-1.168 2.296-1.744l.396-.386c.038-.13.135-.258.114-.392-.069-.432-1.565-2.968-1.865-3.77-1.532-4.091-1.877-8.357-2.007-12.683.075-2.989.323-5.904.721-8.867-2.624-2.93-4.494-7.11-5.339-10.909-1.904-.846-3.943-1.835-5.567-3.151-.922-4.62-.346-5.44-.286-9.766l.002-.218c1.638-5.605 3.481-13.292 2.678-19.073-.165-1.185-.93-2.45-1.292-3.617.561-.613 1.791-.672 2.58-.75 4.494.173 9.128 2.207 12.863 4.636.357.184 3.186-2.706 3.652-3.14 6.679-6.233 16.928-15.521 26.353-16.16-.359 1.691-.39 3.16-.247 4.881.444 1.882 1.017 3.522 1.917 5.234 1.337-1.371 3.243-2.478 4.725-3.738 3.811-3.237 7.131-6.98 7.55-12.142 1.817.694 3.099 1.573 4.549 2.857 1.746 1.821 4.291 4.345 5.151 6.75"/><path fill="#e5b988" d="M65.82 258.529c-1.03-6.87.572-15.127 3.663-21.317.591-1.184 2.059-2.399 2.265-3.714.348-2.217-8.38-9.556-3.048-22.907 1.038-2.6 2.634-4.943 4.492-7.026.967-1.084 1.997-2.159 3.106-3.097 1.042-.882 2.28-1.698 3.176-2.725.456-.523.735-1.027.87-1.705-.302-.62-1.192-.561-1.703-1.032-.516-.474-.615-1.189-.62-1.856-.047-6.136 4.87-12.288 8.933-16.416 5.464-5.552 11.959-8.272 19.729-8.35.235 3.335.919 10.794 2.452 13.506.268.475 1.082 1.562 1.06 2.052-.198.273-.394.531-.463.869-.674 3.322 1.393 18.902 2.077 23.097q.115.711.246 1.418a202 202 0 0 0 1.847 9.776c-3.118 2.959-8.998 4.692-13.228 4.89-.065 2.157-.218 4.118-.775 6.206 3.371.527 6.321 1.696 8.413 4.534 2.022 2.744 2.621 5.968 2.085 9.299-.283 1.756-.752 3.533-1.638 5.089a22 22 0 0 1-1.542 2.309q.633 5.17.828 10.376l-2.093-.761c-.564 2.511-1.369 4.428-3.621 5.894-1.078.702-2.202 1.082-3.447 1.378l-.188.323-.204-.046.019.264c-1.94 2.408-4.698 4.09-7.818 4.422-1.304.139-2.219.017-3.353-.633-2.929 1.544-5.793 1.643-9.028 1.278l-.167.12c-.196.312-.354.528-.644.761-.644-.237-.988-1.287-1.295-1.893-1.787-1.103-3.249-2.537-4.67-4.066-2.734 2.326-5.46 4.867-8.35 6.989-.191-.41-.029-.905.027-1.352a80 80 0 0 1 1.58-7.586c.157-.328.36-.692.455-1.041.144-.535-.157-.993-.398-1.451-1.011-1.275-2.039-2.536-2.933-3.899.591-.947 1.415-1.091 2.405-1.423z"/><path fill="#fec14a" d="M100.779 244.607c.671-.245 1.102-.522 1.789-.155.892.476 1.583 1.496 2.322 2.185 1.131 1.556 1.95 2.862 2.327 4.791q.633 5.17.828 10.376l-2.093-.76c-.564 2.511-1.369 4.428-3.621 5.894-1.078.702-2.202 1.082-3.447 1.377l-.188.324-.204-.047.019.265c-1.94 2.407-4.698 4.09-7.818 4.422-1.304.139-2.219.017-3.353-.633-2.929 1.543-5.793 1.643-9.028 1.278l-.167.12c-.196.312-.354.528-.644.76-.644-.236-.988-1.287-1.295-1.892-1.787-1.103-3.249-2.538-4.67-4.067-2.734 2.327-5.46 4.868-8.35 6.99-.191-.41-.029-.905.027-1.352a80 80 0 0 1 1.58-7.586c.157-.328.36-.692.455-1.041.144-.536-.157-.994-.398-1.452-1.011-1.274-2.039-2.535-2.933-3.898.591-.947 1.415-1.091 2.405-1.423l1.498-.554c1.193-.562 2.468-1.009 3.692-1.504l1.714-.648c2.135-1.047 4.529-1.819 6.748-2.696l1.722-.672c3.118-1.348 6.326-2.532 9.484-3.785l1.69-.661c3.22-1.443 6.627-2.648 9.909-3.956"/><path fill="#cb985b" d="M96.789 257.424c.603.325 1.114.589 1.789.726 2.142 1.025 4.452 1.774 6.676 2.609l.698.284c-.563 2.512-1.369 4.429-3.621 5.895-1.078.701-2.202 1.082-3.447 1.377l-.188.323-.204-.046.02.264c-1.94 2.408-4.699 4.09-7.819 4.423-1.304.138-2.219.016-3.353-.634-2.929 1.544-5.793 1.644-9.028 1.278.68-1.071 1.47-2.088 2.214-3.115 1.082-1.562 2.276-3.074 3.41-4.6.45-.672.968-1.309 1.453-1.957 1.433 2.334 2.848 4.932 5.764 5.577.427.094.87.144 1.304.186.198.26.18.327.509.419l.331-1.004 1.957-6.713q.425-1.4.807-2.812c.28-.812.492-1.655.728-2.48"/><path fill="#e5b988" d="M96.788 257.424c.604.325 1.115.589 1.79.726 2.142 1.025 4.452 1.774 6.675 2.609-.174.87-.464 1.544-.853 2.332-.335.22-.668.431-1.023.615-1.213.637-2.595 1.067-3.943.593-1.899-.669-2.612-2.729-3.374-4.395.281-.812.493-1.655.728-2.48m-12.852 8.784c.715 1.339 1.49 2.674 2.134 4.048-1.636 1.058-2.626 1.221-4.56.794q-.495-.109-.984-.242c1.081-1.562 2.275-3.074 3.41-4.6m11.318-3.492c.787 1.407 1.73 2.859 1.287 4.55-.24.916-.902 1.638-1.736 2.067-.463.238-.878.367-1.39.266l-.118-.17z"/><path fill="#b3813d" d="M100.779 244.607c.671-.245 1.102-.522 1.789-.155.892.476 1.583 1.496 2.322 2.185 1.131 1.556 1.95 2.862 2.327 4.791q.633 5.17.828 10.376l-2.093-.76-.698-.285c-2.224-.834-4.534-1.584-6.676-2.609 2.355.41 4.748.897 7.053 1.529-.999-5.846-1.33-8.158-4.293-13.545-3.303 1.337-6.693 2.344-9.996 3.633l-19.8 7.548c-2.966 1.101-6.483 2.911-9.625 3.191.591-.947 1.415-1.091 2.405-1.423l1.498-.554c1.193-.562 2.468-1.009 3.692-1.504l1.714-.648c2.135-1.047 4.529-1.819 6.748-2.696l1.722-.672c3.118-1.348 6.326-2.532 9.484-3.785l1.69-.661c3.22-1.443 6.627-2.648 9.909-3.956"/><path fill="#b3813d" d="M91.776 257.433c-5.068 3.476-20.848 9.344-26.984 9.464.158-.329.361-.692.455-1.041.144-.536-.156-.994-.397-1.452 6.11-1.014 11.925-2.906 17.866-4.605 3-.859 6.06-1.501 9.06-2.366"/><path fill="#e5b988" d="m86.005 263.305.373-.361c1.113.133 3.978 3.971 4.777 4.986q.561.713 1.034 1.487l.268.598a11 11 0 0 1-1.303-.186c-2.917-.645-4.332-3.243-5.765-5.577z"/><path fill="#f8d898" d="M73.318 267.352c.222-.114.367-.29.618-.17.952.453 2.94 4.537 3.597 5.704l.612 1.158c-.197.312-.354.528-.644.761-.644-.237-.988-1.287-1.295-1.893-1.787-1.102-3.249-2.537-4.67-4.066.591-.464 1.105-.97 1.632-1.501z"/><path fill="#cb985b" d="m73.168 267.344.15.008c.965 1.843 2.007 3.678 2.888 5.56-1.787-1.103-3.249-2.538-4.67-4.066.591-.464 1.105-.97 1.632-1.502"/><path fill="#b3813d" d="M92.189 269.416c.441-2.734 2.272-9.979 3.829-11.98.39-.163.371-.154.77-.011-.235.825-.447 1.667-.727 2.48a94 94 0 0 1-.807 2.812l-1.957 6.712-.331 1.005c-.329-.092-.311-.159-.51-.419zm-14.656 3.47c1.732-2.533 4.947-7.482 7.233-9.29.453-.358.682-.342 1.24-.292l-.617.947c-.485.649-1.002 1.286-1.453 1.958-1.135 1.525-2.329 3.037-3.41 4.6-.745 1.026-1.534 2.044-2.214 3.115l-.167.12zm-14.32 1.597a264 264 0 0 0 4.834-3.894c1.23-1.025 2.498-2.275 3.875-3.093.505-.299.684-.284 1.246-.151-.527.531-1.041 1.037-1.632 1.501-2.734 2.326-5.46 4.867-8.35 6.989-.191-.41-.029-.905.026-1.352"/><path fill="#f8d898" d="M97.793 248.182c.316.056.571.131.835.324 1.163.843 1.65 2.849 1.75 4.186-.43-.29-.682-.643-.98-1.06-.634-.888-1.787-2.36-1.605-3.45m-29.186 20.485-.014.41c-.797 1.549-2.406 2.786-3.938 3.565l-.12-.397c.387-1.255 2.994-2.818 4.072-3.578"/><path fill="#cb985b" d="M94.012 232.478c.44-2.345 1.409-4.485 2.038-6.775 1.047-3.808 1.15-9.242.964-13.181-.078-1.636-2.068-3.477-1.816-5.006.094-.565.497-.934.964-1.176.249.042.293.037.548.155 1.755.818 3.491 6.203 4.105 8.062q.26.007.523.002c4.591-.085 7.585-2.004 10.717-5.233q.802 4.91 1.847 9.775c-3.118 2.959-8.998 4.693-13.229 4.89-.064 2.157-.217 4.118-.774 6.207 3.371.526 6.32 1.695 8.413 4.533 2.021 2.744 2.621 5.968 2.085 9.299-.283 1.757-.752 3.533-1.638 5.09.452-3.581-.669-7.479-2.691-10.437-3.013-4.404-7.15-5.293-12.056-6.205"/><path fill="#cb985b" d="M100.779 244.608c-.536-1.616-2.618-4.755-2.547-5.839.238-.405.18-.305.588-.412 2.081.512 3.278 2.685 4.314 4.4.735 1.215 1.267 2.549 1.756 3.88-.739-.689-1.431-1.708-2.322-2.184-.687-.368-1.119-.091-1.789.155m-31.267 12.418c-.334-.91-1.078-3.047-.966-3.978.056-.465.191-.513.534-.801l.486.063c1.084.781 1.24 2.838 1.66 4.068zm19.668-7.802c-.462-1.041-.99-2.072-.585-3.215l.335-.109c1.171.471 1.476 1.594 1.94 2.663zm-11.207 4.458a10 10 0 0 1-.26-.558c-.349-.809-.724-1.562-.374-2.447.373-.123.264-.162.594-.024.98.416 1.328 1.461 1.763 2.357zm21.679-70.509c.255.017.663.032.895.156.386.205.59.436.66.872.166 1.022-2.534 3.521-2.801 5.098-.247 1.457.504 6.182-.051 6.908l-.553-.294c-.487-.41-.957-.894-1.308-1.427-1.16-1.762-1.377-3.965-.9-5.989.577-2.454 1.95-4.061 4.058-5.324m-9.556 10.153c1.507-.177 3.235-.251 4.598.517 1.423.803 1.95 2.068 2.404 3.542-1.575-.229-3.086-.729-4.674-.923-1.928.048-4.26.777-5.998.685-.576-.03-.865-.229-1.236-.647-.054-.411-.021-.668.2-1.032.946-1.545 3.076-1.811 4.706-2.142m.436-13.073c.212.013.502.012.712.074.603.182 1.083.891 1.343 1.433.842 1.751.659 4.601.024 6.377-.758 2.122-2.096 3.564-4.091 4.556l-1.662.415c1.847-3.44 3.965-5.565 3.346-9.746-.177-1.19-.445-2.071.328-3.109m-7.466 47.916c2.622-.131 5.11.981 7.045 2.682-2.083.153-4.17-.176-6.236-.416-1.905-.029-3.593.713-5.455.755-.668.017-1.137-.048-1.63-.511.068-.327.049-.39.28-.661 1.268-1.494 4.165-1.684 5.996-1.849"/><path fill="#b53925" d="m173.29 39.207.332.28c1.274.054 14.481-7.49 16.458-8.668 1.852-1.104 3.921-2.846 5.931-3.538.157.054.246.073.385.19.771.65 1.132 2.23 1.344 3.184.674 4.063.39 8.16-.161 12.218-3.567 2.207-5.456 5.719-6.4 9.726-.227.968-.484 2.073-.345 3.067l-.259.263c-3.92 4.021-7.153 8.802-10.248 13.47-4.909-3.818-9.99-8.06-15.512-10.95-1.022-.705-2.156-1.083-3.338-1.434 1.379 3.065 1.575 6.316 2.73 9.385.203 1.402.65 2.756 1.129 4.084-4.417-3.751-8.87-7.735-13.816-10.782-1.01-.764-2.112-1.18-3.301-1.585.916 2.105 1.186 4.032.985 6.313-.055.517-.078.997-.316 1.47-1.303-.871-2.491-2.042-3.691-3.053-3.691-3.11-7.699-6.593-12.142-8.546-.557-.261-1.306-.585-1.93-.395-.053.017-.101.047-.151.07-.103.611.378 1.588.601 2.191 1.215 3.288 1.535 6.984 2.844 10.189-.14.028-.277.092-.418.083-.804-.051-4.494-1.599-5.592-1.955a44 44 0 0 0-5.626-1.456c-.696-.087-1.683-.268-2.309.14-.055.036-.099.085-.149.127.05 1.736.123 3.481.046 5.216-.063 1.44-.259 2.897-.272 4.332.65.582 1.461 4.915 1.901 6.096.333.893.769 1.711 1.294 2.507-.872 4.664-.73 11.009 1.97 15.11.246.375.543.727.827 1.072-1.924.107-3.833.104-5.759.084-2.103.003-4.225-.159-6.331-.2-2.624-2.93-4.494-7.11-5.339-10.909-1.904-.846-3.943-1.835-5.567-3.151-.922-4.62-.346-5.44-.286-9.766l.002-.218c1.638-5.605 3.481-13.292 2.678-19.073-.165-1.185-.93-2.45-1.292-3.617.561-.613 1.79-.672 2.58-.75 4.494.173 9.128 2.207 12.863 4.636.357.184 3.186-2.706 3.651-3.14 6.68-6.233 16.928-15.521 26.353-16.16-.359 1.691-.389 3.16-.246 4.881.444 1.882 1.017 3.522 1.917 5.234 1.337-1.371 3.242-2.478 4.725-3.738 3.811-3.237 7.131-6.98 7.55-12.142 1.817.694 3.099 1.573 4.549 2.857 1.746 1.821 4.291 4.345 5.151 6.75"/><path fill="#f3b6b3" d="M113.99 61.453c.62 1.13 1.199 2.249 1.702 3.437.793 1.553 3.293 7.085 4.242 7.995l.165-.04c.65.581 1.461 4.914 1.901 6.095.333.892.77 1.711 1.294 2.507-.871 4.664-.73 11.009 1.97 15.11.246.374.543.727.828 1.072-1.925.107-3.834.104-5.76.084-2.103.003-4.225-.159-6.331-.2-2.624-2.93-4.494-7.11-5.339-10.909.849-2.354 1.162-5.245 1.682-7.718z"/><path fill="#dba2a0" d="M113.99 61.453c.62 1.13 1.199 2.249 1.702 3.437-.507 1.654-.447 3.553-.662 5.27-1.086 8.714-.871 16.666 3.378 24.601a21 21 0 0 0 1.924 2.952c-2.103.003-4.225-.159-6.331-.2-2.624-2.93-4.494-7.11-5.339-10.909.849-2.354 1.162-5.245 1.682-7.718z"/><path fill="#8b291a" d="M119.64 54.664c.357.184 3.186-2.706 3.651-3.14 6.68-6.233 16.928-15.521 26.353-16.16-.359 1.691-.389 3.16-.246 4.881-3.609 1.784-7.252 3.616-10.732 5.64-1.463.85-2.759 1.968-4.232 2.8-1.921 1.084-4.072 1.814-6.059 2.778-6.793 3.291-8.135 7.506-10.835 14.087-.65-4.298-.523-7.267 2.1-10.886m-16.829 18.804c1.638-5.605 3.481-13.292 2.678-19.073-.165-1.185-.93-2.45-1.292-3.617.561-.613 1.79-.672 2.58-.75.657 1.854 1.411 3.69 1.886 5.6 1.247 5.015.671 10.572-.784 15.479-.704 2.373-1.663 4.614-1.617 7.136.053 2.881 1.273 5.756 2.4 8.36-1.904-.846-3.943-1.835-5.567-3.151-.922-4.62-.346-5.44-.286-9.766zm70.479-34.261.332.28c1.274.054 14.481-7.49 16.458-8.668 1.852-1.104 3.921-2.846 5.932-3.538.156.054.245.073.384.19.771.65 1.132 2.23 1.344 3.184-5.217 4.287-9.36 5.331-15.009 8.267-1.726.897-3.354 2.061-5 3.097-1.281.808-2.657 1.589-3.82 2.562-1.668 1.397-3.054 3.179-4.289 4.958-.557.804-1.92 3.348-2.554 3.817-.096.07-.227.074-.341.112-.272-.635.231-2.26.495-2.894 1.595-3.837 3.636-6.702 6.517-9.67-.169-.553-.387-1.124-.449-1.697m-21.975 6.272c1.337-1.371 3.242-2.478 4.725-3.738 3.811-3.237 7.131-6.98 7.55-12.142 1.817.694 3.099 1.573 4.549 2.857-2.642 7.292-7.489 9.256-13.147 13.93-2.879 2.379-5.216 4.87-7.391 7.901.475-2.474 1.012-4.686 2.346-6.854.418-.68.967-1.266 1.368-1.954"/><path fill="#f3b6b3" d="m192.538 54.249.39.358c-.89 4.021.164 8.346.879 12.333l1.82-1.749c.026 5.258.405 12.031-.716 17.115-.41 1.862-1.182 3.534-1.701 5.339-.081-1.185-.386-2.114-.903-3.175-2.454 4.4-6.474 11.67-11.617 13.258a8.7 8.7 0 0 1-1.557.314c-1.351-5.2-4.762-10.138-7.722-14.57-.474 2.715-.839 5.537-1.829 8.122l-.365.292c-.833.027-1.49-.082-2.255-.426-4.226-1.904-10.741-10.065-12.473-14.467-1.266-3.923-3.753-7.646-4.756-11.71a9 9 0 0 0-.223-.758l-.306-.095c.201-2.281-.069-4.208-.985-6.313 1.189.405 2.291.82 3.301 1.584 4.946 3.048 9.399 7.031 13.816 10.782-.479-1.328-.926-2.682-1.129-4.084-1.155-3.069-1.351-6.32-2.73-9.385 1.182.352 2.316.73 3.338 1.434 5.522 2.89 10.603 7.132 15.512 10.951 3.095-4.668 6.328-9.45 10.248-13.47l.259-.264c.626-.405 1.154-.916 1.704-1.416"/><path fill="#dba2a0" d="m192.538 54.249.39.358c-.89 4.021.164 8.346.879 12.333l1.82-1.749c.026 5.258.405 12.031-.716 17.115-.41 1.862-1.182 3.534-1.701 5.339-.081-1.185-.386-2.114-.903-3.175-2.454 4.4-6.474 11.67-11.617 13.258a8.7 8.7 0 0 1-1.557.314c1.697-1.499 3.222-3.28 4.483-5.16 4.919-7.336 5.986-9.788 7.31-18.424.338-2.21.779-4.44.72-6.683-.059-2.307-.533-4.583-.79-6.872-.185-1.647.035-3.352-.281-4.974l.259-.264c.626-.405 1.154-.916 1.704-1.416m-44.319 3.868c1.189.405 2.291.82 3.301 1.584-.129 1.83.772 4.425 1.369 6.136a62 62 0 0 0 1.113 3.008 66 66 0 0 0 4.198 8.653 67 67 0 0 0 3.481 5.388q.467.651.951 1.292a67 67 0 0 0 1.994 2.513q.514.615 1.043 1.219c1.166 1.352 2.466 2.632 3.913 3.684l-.365.292c-.833.027-1.49-.082-2.255-.426-4.226-1.904-10.741-10.065-12.473-14.467-1.266-3.923-3.753-7.646-4.756-11.71a9 9 0 0 0-.223-.758l-.306-.095c.201-2.281-.069-4.208-.985-6.313m13.258-1.103c1.182.352 2.316.73 3.338 1.434-.55 1.615 3.931 10.717 4.991 12.876 1.177 2.398 2.564 4.707 3.584 7.178-3.249-2.496-5.647-5.073-7.416-8.8-.365-.769-1.098-3.04-1.767-3.303-1.155-3.069-1.351-6.32-2.73-9.385"/><path fill="#8b291a" d="m263.526 77.872.844-.745.307.038c.99 1.61.404 4.494-.011 6.253-1.101 4.667-3.108 9.132-5.062 13.492 3.35-.707 7.662-1.173 10.698.787.712.46 1.257 1.046 1.756 1.723-3.705 2.598-5.919 6.885-8.048 10.77 2.652 1.63 5.564 3.411 8.799 2.83-.502 6.997-5.589 12.498-10.224 17.359l-1.888 1.791-2.618-.858-.722-.155c-3.385-1.466-8.605-2.803-12.241-3.994.349-.968.646-1.963.968-2.941 1.449-4.649 2.721-9.502 4.485-14.035 2.17-1.965 3.7-6.548 4.818-9.284-.536.222-1.053.493-1.642.5-.218-.482-.087-.551.057-1.038.519-3.574 1.219-7.134 1.799-10.7.186-1.144.19-2.318.401-3.444l.118.307c.484-.472 2.105-5.375 2.478-6.357 1.889-.522 3.316-1.18 4.928-2.3"/><path fill="#dba2a0" d="m258.616 99.22.805-.68.344.035c.131.282.222.527.286.832a170 170 0 0 1-4.819 13.428c-.288.319-.447.493-.53.92.465 1.203 2.598 2.151 3.737 2.662 2.641 1.181 3.861.856 6.605.76-1.3 4.56-4.343 8.514-6.156 12.857l-.809 1.277-.722-.155c-3.385-1.466-8.605-2.803-12.241-3.994.349-.968.646-1.963.968-2.941 1.449-4.649 2.721-9.502 4.485-14.035 2.17-1.965 3.7-6.548 4.818-9.284 1.089-.53 2.156-1.121 3.229-1.682"/><path fill="#f3b6b3" d="M258.616 99.22c-.064 1.898-1.028 4.179-1.639 5.972-2.348 6.886-3.169 9.555-7.725 15.27-.903 1.131-1.811 2.436-2.823 3.462-.157.16-.19.178-.346.298 1.45-4.649 2.722-9.502 4.486-14.035 2.17-1.965 3.7-6.548 4.818-9.284 1.089-.53 2.156-1.121 3.229-1.682"/><path fill="#b53925" d="M258.598 80.17c1.889-.522 3.316-1.18 4.928-2.3-1.985 8.032-4.638 15.827-9.724 22.494.519-3.574 1.219-7.134 1.799-10.7.186-1.144.19-2.318.4-3.444l.119.307c.483-.472 2.105-5.375 2.478-6.357m1.453 19.237c1.038.05 2.114-.185 3.148-.287 1.993-.196 3.912-.19 5.889.115-4.302 2.541-7.429 5.857-10.547 9.699-.999 1.23-2.083 2.926-3.31 3.901a170 170 0 0 0 4.82-13.428m4.993 17.77c1.339.006 2.768-.45 4.061-.784-1.496 2.729-7.837 12.006-10.217 13.641 1.813-4.343 4.856-8.297 6.156-12.857m-37.899-65.401c4.637-2.851 8.28-6.796 13.844-7.94l-.818 1.575c-1.454 4.495-.913 9.064-.231 13.65 2.083-1.684 4.24-3.446 5.963-5.505.398-.403.389-.483.943-.521 1.832.836 2.781 2.626 3.466 4.431 1.376 3.621 1.703 7.372 2.379 11.141-.143 2.26-.591 5.553-1.849 7.489-.31-1.718-.655-2.492-1.946-3.665-.342.36-.576.807-.833 1.23l-.347.303c-.746.925-2.227 1.632-3.35 1.958l-.641-.035c-1.307-1.01-4.014-8.754-4.623-10.654-.388-1.208-.595-3.083-1.275-4.11l-.345-.016c-.434.312-.572.56-.82 1.016-.768 1.486-1.198 3.084-1.645 4.689.982 2.893 1.422 6.489.654 9.49-.185.72-1.432 3.105-1.398 3.564.011.144.114.202.208.261-1.994.56-3.093 1.65-4.184 3.373l-1.553-.44c-3.806-2.137-6.433-6.733-8.474-10.429-.17-.754 1.35-5.028 1.647-6.07-.262-1.547.765-4.91 1.025-6.598.851-2.726 2.329-6.044 4.203-8.187"/><path fill="#f3b6b3" d="M227.666 57.301c.439-.454.788-.774 1.359-1.054h.447c.371.437.847 3.183 1.156 4.004 1.069 2.859 2.489 5.785 4.018 8.428l.371-1.867c.982 2.893 1.422 6.489.654 9.49-.185.72-1.432 3.105-1.398 3.564.011.144.114.202.208.261-1.994.56-3.093 1.65-4.184 3.373l-1.553-.44c-3.806-2.137-6.433-6.733-8.474-10.429-.17-.754 1.35-5.028 1.647-6.07 1.372-1.816 3.56-5.843 4.663-8.005z"/><path fill="#dba2a0" d="M227.666 57.301c.439-.454.788-.774 1.359-1.054h.447c.371.437.847 3.183 1.156 4.004 1.069 2.859 2.489 5.785 4.018 8.428l.371-1.867c.982 2.893 1.422 6.489.654 9.49-.185.72-1.431 3.105-1.398 3.564.011.144.114.202.209.261-1.995.56-3.094 1.65-4.185 3.373l-1.553-.44c.515-.607.977-1.25 1.428-1.906 2.976-4.328 4.201-9.22 1.746-14.131-1.977-3.96-3.368-4.988-4.252-9.722"/><path fill="#8b291a" d="M245.903 53.556c.399-.403.389-.483.943-.521 1.832.836 2.781 2.626 3.466 4.431 1.376 3.621 1.703 7.372 2.379 11.141-.142 2.26-.591 5.553-1.849 7.489-.31-1.718-.655-2.492-1.946-3.665-.342.36-.576.807-.833 1.23l-.347.303c-.074-.11-.194-.199-.221-.328-.072-.343.421-1.639.496-2.111.194-1.213.179-2.447.181-3.67.013-5.69.074-8.984-2.269-14.299m-18.758-1.78c4.637-2.851 8.28-6.796 13.844-7.94l-.818 1.575c-6.727 3.139-10.732 4.943-13.353 12.35a10 10 0 0 0-.238.795c-1.102 2.162-3.29 6.19-4.663 8.005-.262-1.547.765-4.91 1.025-6.598.852-2.726 2.329-6.044 4.203-8.187"/><path fill="#f3b6b3" d="M252.691 68.608c3.58-1.34 7.057-2.364 10.891-1.795.676.326 1.196.573 1.695 1.144-.174.871-1.599 1.908-2.142 2.677-1.37 1.94-4.219 7.23-4.537 9.536-.373.982-1.994 5.886-2.478 6.358l-.118-.307c-.211 1.125-.215 2.3-.401 3.444-.58 3.566-1.28 7.125-1.799 10.699-.144.488-.275.557-.057 1.039.589-.008 1.106-.278 1.642-.5-1.117 2.736-2.648 7.319-4.818 9.283l-.297-.062c-2.586 2.1-4.68 5.513-6.281 8.4l-1.048-1.835c-2.48-5.384-1.93-13.056-.471-18.631.659-.905 1.145-1.998 1.551-3.037 1.813-4.637 2.77-10.941 1.573-15.835-.277-1.132-.766-2.199-1.23-3.264 1.123-.325 2.604-1.032 3.35-1.958l.347-.303c.257-.422.491-.869.833-1.23 1.291 1.174 1.636 1.948 1.946 3.666 1.258-1.936 1.707-5.23 1.849-7.49"/><path fill="#b53925" d="M252.69 68.608c3.581-1.34 7.058-2.364 10.891-1.795.676.326 1.197.573 1.696 1.144-.174.871-1.6 1.908-2.142 2.677-1.371 1.94-4.22 7.23-4.538 9.536-.373.982-1.994 5.886-2.478 6.358l-.118-.307q.032-.454.046-.909c.034-.963.1-2.694-.576-3.423-.502-.017-.559.18-.914.502l-1.051.484c-1.132.32-2.265.675-3.419.903l-.183-.128c-.08-.344-.094-.222-.019-.54.552-2.358 1.027-4.582.957-7.013 1.257-1.936 1.706-5.23 1.848-7.49"/><path fill="#8b291a" d="M263.582 66.813c.675.327 1.196.573 1.695 1.144-.174.871-1.599 1.908-2.142 2.678-1.37 1.939-4.22 7.23-4.537 9.536-.373.982-1.995 5.885-2.478 6.357l-.119-.307q.032-.453.046-.908c.034-.963.1-2.695-.576-3.424-.502-.016-.559.181-.914.502l-1.05.484c.016-.11.029-.221.049-.331.235-1.272.791-2.64 1.227-3.859 1.815-5.07 4.249-8.872 8.799-11.872"/><path fill="#dba2a0" d="M254.557 82.39c.355-.32.412-.518.914-.502.676.729.61 2.46.577 3.424q-.015.455-.047.908c-.21 1.126-.214 2.3-.4 3.444-.58 3.566-1.28 7.126-1.799 10.7-.144.487-.275.556-.057 1.038.589-.007 1.106-.278 1.642-.5-1.118 2.736-2.648 7.319-4.818 9.284l-.298-.062c-2.585 2.099-4.679 5.513-6.28 8.399l-1.049-1.835c1.769-3.901 3.747-5.632 6.002-8.964 5.023-7.42 6.178-16.59 5.613-25.334m-6.494-8.73c.257-.422.491-.868.833-1.23 1.291 1.174 1.636 1.948 1.946 3.666.07 2.431-.404 4.656-.956 7.013-.076.319-.061.197.018.54l.183.129a21 21 0 0 0-1.219.422l-.096.145c-.681-1.264.772-8.528-.709-10.684"/><path fill="#e5b988" d="M87.119 137.182c.994-1.862 2.386-4.386 4.067-5.666 3.12-2.375 9.69-.938 13.356-.405l.483.221c-.058 6.994.276 14.037.586 21.025.127 2.876.462 5.838.428 8.708-4.062-.193-9.748-.581-12.958-3.219-3.61-2.967-6.957-8.491-7.451-13.181-.465-2.62.3-5.169 1.489-7.483"/><path fill="#cb985b" d="M85.63 144.666c-.465-2.621.3-5.169 1.489-7.484 3.316-.118 7.773.542 10.257 2.957 1.252 1.217 1.868 2.86 1.86 4.595-.01 2.399-1.906 4.038-1.722 6.009.122 1.303 1.308 2.128.555 3.364-.384.264-.723.397-1.193.307-.678-.13-1.262-.609-1.596-1.2-2.104-3.717 2.221-7.426-4.9-9.692-1.522-.484-2.953-.643-4.518-.246-.296.337-.208.942-.232 1.39"/><path fill="#b53925" d="M209.024 45.335c2.477-1.644 5.245-3.596 7.254-5.78.846-.918 1.44-2.166 2.369-2.975 1.01-.09 1.485.362 2.244.95 3.357 3.944 4.876 9.334 6.254 14.246-1.874 2.143-3.352 5.461-4.203 8.187-.004-.24.009-.518-.024-.759-.057-.43-.031-.41-.401-.665-.705.052-1.405.758-1.955 1.18-3.169 1.85-6.378 3.951-9.698 5.505-1.265.578-2.495 1.31-3.727 1.961.157-4.398.357-9.064 2.198-13.117l-.137-.229c-.585.014-1.003.26-1.511.518l-.657.693-1.967 1.346c-.064-3.53.868-6.23 2.586-9.276.351-.62 1.032-1.545 1.145-2.232.055-.328.055-.72.079-1.052.148.408.12 1.055.151 1.499"/><path fill="#8b291a" d="M209.024 45.335c2.477-1.644 5.245-3.596 7.254-5.78.846-.918 1.44-2.166 2.369-2.975 1.01-.09 1.485.362 2.244.95-1.758 1.835-3.599 3.749-5.603 5.317-1.058.83-2.24 1.516-3.268 2.38-2.759 2.313-3.561 5.792-4.333 9.13l-.657.693-1.967 1.346c-.064-3.53.868-6.23 2.586-9.276.351-.62 1.032-1.545 1.145-2.232.055-.328.055-.72.079-1.052.148.408.12 1.055.151 1.499"/><path fill="#f3b6b3" d="M134.418 66.357c-1.308-3.205-1.628-6.902-2.843-10.189-.223-.603-.704-1.58-.601-2.191.05-.023.098-.054.151-.07.624-.19 1.372.133 1.93.395 4.443 1.952 8.451 5.436 12.142 8.546 1.2 1.011 2.388 2.182 3.691 3.052.238-.472.261-.952.316-1.47l.305.096q.13.374.224.758c1.003 4.064 3.489 7.787 4.755 11.71-2.271 2.763-3.399 6.245-6.117 8.71-.449.333-.96.672-1.553.588-3.278-.466-6.635-9.582-8.582-12.113l-.386.018c-1.061-1.4-2.575-7.292-3.432-7.84"/><path fill="#dba2a0" d="M134.418 66.357c-1.308-3.205-1.628-6.902-2.843-10.189-.223-.603-.704-1.58-.601-2.191.05-.023.098-.054.151-.07.624-.19 1.372.133 1.93.395.539 2.48 2.014 5.118 2.947 7.507 3.548 9.076 5.584 16.442 12.369 23.895-.449.333-.96.672-1.553.588-3.278-.466-6.635-9.582-8.582-12.113l-.386.018c-1.061-1.4-2.575-7.292-3.432-7.84"/><path fill="#f3b6b3" d="M207.688 54.357c.507-.258.925-.504 1.51-.518l.137.23c-1.841 4.052-2.041 8.718-2.198 13.116 1.232-.652 2.462-1.383 3.727-1.961-.034 1.336-1.132 6.088-.87 6.83-2.798 6.193-7.686 13.712-14.313 16.242-.792.303-1.63.58-2.484.614l-.26-.212.1-.416.173-.637c.519-1.804 1.291-3.477 1.701-5.338 1.121-5.084.742-11.858.717-17.115 2.913-2.93 5.994-6.484 9.436-8.796l1.966-1.346z"/><path fill="#dba2a0" d="M207.688 54.357c.507-.258.925-.504 1.51-.518l.137.23c-1.841 4.052-2.041 8.718-2.198 13.116 1.232-.652 2.462-1.383 3.727-1.961-.034 1.336-1.132 6.088-.87 6.83-2.798 6.193-7.686 13.712-14.313 16.242-.792.303-1.63.58-2.484.614l-.26-.212.1-.416.111.083c1.368-.14 3.355-1.632 4.417-2.541 1.957-1.677 3.111-3.845 4.25-6.112 2.493-4.956 3.383-7.432 3.609-13.026.068-1.686.037-3.429.227-5.102.249-2.204 1.22-4.333 1.379-6.534z"/><path fill="#f3b6b3" d="M236.662 62.123c.248-.457.386-.704.82-1.016l.346.016c.679 1.027.886 2.903 1.274 4.11.609 1.9 3.316 9.645 4.624 10.655l.64.034c.464 1.065.953 2.132 1.23 3.264 1.197 4.893.24 11.198-1.573 15.834-.406 1.04-.892 2.133-1.551 3.037.19-1.547.622-3.107 1.034-4.61-2.286 2.587-6.556 7.246-10.33 7.331-.303.006-.312-.005-.567-.048l-.101-.249.398-.807c1.408-3.63 2.355-15.693 1.576-19.546-.095-.06-.198-.118-.209-.262-.033-.459 1.213-2.844 1.398-3.564.768-3.001.328-6.597-.654-9.49.447-1.605.877-3.202 1.645-4.689"/><path fill="#dba2a0" d="M236.662 62.123c.248-.457.386-.704.82-1.016l.346.016c.679 1.027.886 2.903 1.274 4.11.609 1.9 3.316 9.645 4.624 10.655l.64.034c.464 1.065.953 2.132 1.23 3.264 1.197 4.893.24 11.198-1.573 15.834-.406 1.04-.892 2.133-1.551 3.037.19-1.547.622-3.107 1.034-4.61-2.286 2.587-6.556 7.246-10.33 7.331-.303.006-.312-.005-.567-.048l-.101-.249.398-.807c.146.073.115.09.279.04 1.788-.535 6.7-7.195 7.483-8.975 2.155-4.893 1.329-12.014-.159-16.976-.491-1.639-1.33-3.144-1.847-4.78-.703-2.232-1.163-4.695-2-6.86"/><path fill="#f3b6b3" d="M120.099 72.845c.013-1.436.209-2.893.272-4.332.077-1.735.004-3.481-.046-5.216.05-.042.094-.091.148-.127.627-.408 1.614-.227 2.309-.14a44 44 0 0 1 5.627 1.456c1.097.356 4.788 1.903 5.592 1.954.141.01.278-.055.418-.082.856.548 2.37 6.44 3.431 7.84-3.316 3.38-6.905 5.93-7.852 10.874.032.436.102.898-.009 1.326-.071.273-.271.276-.505.39-.487.002-.889-.017-1.34-.22-2.128-.953-2.618-3.623-3.467-5.545-.194-.439-.276-.662-.739-.843-.445.381-.469.716-.644 1.267A12.4 12.4 0 0 1 122 78.94c-.441-1.18-1.252-5.513-1.901-6.095"/><path fill="#dba2a0" d="M120.099 72.845c.013-1.436.209-2.893.272-4.332.077-1.735.004-3.481-.046-5.216.05-.042.094-.091.148-.127.627-.408 1.614-.227 2.309-.14 2.225 8.402 2.015 14.426 7.216 22.042.032.436.102.898-.009 1.326-.071.273-.271.276-.505.39-.487.002-.889-.017-1.34-.22-2.128-.953-2.618-3.623-3.467-5.545-.194-.439-.276-.662-.739-.843-.445.381-.469.716-.644 1.267A12.4 12.4 0 0 1 122 78.94c-.441-1.18-1.252-5.513-1.901-6.095"/><path fill="#f3b6b3" d="M220.562 59.72c.55-.422 1.25-1.128 1.955-1.18.37.256.344.235.401.665.033.24.02.52.024.759-.26 1.688-1.287 5.05-1.025 6.598-.297 1.042-1.817 5.316-1.647 6.07-1.086 2.66-2.934 6.808-5.774 8.001-.307.128-.527.164-.855.069-.135-.04-.303-.156-.425-.233l-.242-.8c-.718-2.511-1.739-5.317-2.98-7.614-.262-.742.836-5.494.87-6.83 3.32-1.554 6.529-3.655 9.698-5.505"/><path fill="#dba2a0" d="M220.562 59.72c.55-.422 1.25-1.128 1.956-1.18.369.256.343.235.4.665.033.24.021.52.024.759-.26 1.688-1.287 5.05-1.025 6.598-.297 1.042-1.817 5.316-1.647 6.07-1.086 2.66-2.934 6.808-5.774 8.001-.307.128-.526.164-.855.069-.135-.04-.303-.156-.425-.233l-.242-.8c1.249-1.848 2.473-3.723 3.457-5.727.962-1.96 4.703-12.564 4.131-14.222"/><path fill="#e5b988" d="M245.557 119.523c.069.717-.275 1.805-.522 2.488-.153.423-.283.749-.694.96l-.527-.48-1.115-2.014c1.396.066 1.808-.031 2.858-.954m8.314 48.756.166.023c2.024.259 4.055.149 6.09.47 7.65 1.209 13.565 5.842 18.237 11.826 2.646 3.389 6.182 8.627 5.479 13.225-.081.525-.259.947-.678 1.295-.351.29-.951.428-1.379.568-.191.228-.216.163-.187.432.067.601.467 1.204.861 1.646.797.894 1.865 1.588 2.781 2.36 1.327 1.121 2.581 2.395 3.724 3.702 1.601 1.828 2.999 3.867 3.987 6.094l.096.22c1.915 4.468 2.702 10.738.962 15.384-.576 1.54-3.893 6.673-3.747 7.912.17 1.464 1.827 2.94 2.44 4.295 3.074 6.798 3.702 12.849 3.545 20.174-.432 1.243-1.136 2.235-1.926 3.271l.545.345c.979.271 2.184.426 2.973 1.075.183.452.26.663.092 1.137-.593 1.655-2.339 2.873-3.054 4.596a21 21 0 0 1 1.078 3.071 20.6 20.6 0 0 1 .582 3.204c.166.676.308 1.339.404 2.028l.366 2.191c-1.601-1.353-8.967-8.04-10.367-8.494-1.052 1.839-1.977 3.767-3.056 5.586l-.995 1.933a161 161 0 0 0-2.82-3.75c-1.645.085-3.632.057-5.194-.5-.541-.194-1.526-.783-2.05-.826-.646-.053-1.769.495-2.485.582-.717.088-1.666-.201-2.375-.342-.22.242-.27.281-.589.412l-.29-.63c-2.539-1.104-4.247-2.214-5.902-4.485q-.384-.087-.762-.19c-2.606-.72-4.298-2.205-5.622-4.5-.866.336-1.706.637-2.611.86-.408-1.438.909-10.732 1.435-12.394-1.97-1.756-3.163-4.273-3.719-6.82-.775-3.562-.546-6.939 1.503-10.049 2.187-3.316 5.106-4.282 8.779-5.067-.587-1.99-.718-4.018-.934-6.071-4.999-.658-8.871-2.105-13.085-4.903a228 228 0 0 0 2.203-11.966c.681-4.094 2.694-19.081 2.033-22.405-.07-.349-.261-.64-.445-.938 2.491-5.033 3.25-10.076 3.911-15.587"/><path fill="#fec14a" d="m258.155 246.855 2.155.853c3.096 1.228 6.236 2.393 9.295 3.71l1.819.698c3.191 1.267 6.537 2.415 9.645 3.854l1.734.666c2.297.911 4.707 1.738 6.943 2.787l1.644.65c.967.367 1.944.796 2.932 1.102l.545.345c.978.272 2.184.427 2.973 1.075.183.453.26.663.092 1.138-.593 1.654-2.34 2.873-3.054 4.596a20.7 20.7 0 0 1 1.433 4.662q.146.802.227 1.613c.166.675.308 1.338.404 2.027l.366 2.192c-1.601-1.354-8.967-8.04-10.367-8.494-1.052 1.839-1.977 3.767-3.056 5.586l-.995 1.933a161 161 0 0 0-2.82-3.75c-1.645.084-3.632.057-5.194-.501-.541-.194-1.526-.783-2.05-.825-.646-.054-1.769.495-2.486.581-.716.089-1.665-.201-2.374-.341-.22.242-.27.28-.589.412l-.29-.63c-2.539-1.104-4.247-2.214-5.902-4.486q-.384-.086-.763-.19c-2.605-.72-4.297-2.205-5.621-4.5-.866.336-1.706.637-2.611.861-.408-1.439.909-10.733 1.435-12.395l.12-.203c.72-1.363 1.706-2.465 2.735-3.599.546-.489 1.115-.954 1.675-1.427"/><path fill="#b3813d" d="m258.155 246.855 2.155.853c3.096 1.228 6.236 2.393 9.295 3.71l1.819.698c3.191 1.267 6.537 2.415 9.645 3.854l1.734.666c2.297.911 4.707 1.738 6.943 2.787l1.644.65c.967.367 1.944.796 2.932 1.102l.545.345c-2.229.244-31.444-11.373-36.101-13.193-.772.954-1.354 1.924-1.922 3.01 3.059 1.942 6.455 3.519 9.711 5.096 3.889 1.885 7.794 3.817 11.879 5.25 3.745 1.315 7.604 2.251 11.334 3.625-9.098-.942-15.96-3.387-24.042-7.411-3.226-1.606-6.413-3.275-9.464-5.198-1.213 3.575-2.022 6.744-2.173 10.531 2.668-.831 5.556-2.245 8.322-2.566q-2.529 1.065-5.106 2.011l-2.504.943c-.866.336-1.706.637-2.611.861-.408-1.439.909-10.733 1.435-12.395l.12-.203c.72-1.363 1.706-2.465 2.735-3.599.546-.489 1.115-.954 1.675-1.427"/><path fill="#cb985b" d="m262.411 260.662 1.145-.26c1.272.537 1.802 2.244 2.295 3.459 1.062 2.622 2.257 5.272 3.235 7.914l-1.12 1.236c-.22.242-.27.28-.589.411l-.29-.629c-2.539-1.105-4.248-2.214-5.902-4.486q-.384-.087-.763-.19c-2.605-.72-4.297-2.205-5.621-4.5l2.504-.944q2.577-.945 5.106-2.011"/><path fill="#b3813d" d="M263.556 260.402c1.272.537 1.802 2.244 2.295 3.459 1.062 2.622 2.256 5.272 3.235 7.914l-1.121 1.236c-.219.242-.269.28-.589.411l-.29-.629c-.74-3.258-1.889-6.462-2.751-9.693-.301-.883-.528-1.799-.779-2.698"/><path fill="#e5b988" d="m262.411 260.662 1.145-.26c.251.899.478 1.815.779 2.698-.164.207-.179.242-.404.441-.903.805-2.277 1.042-3.44.872-1.18-.172-2.458-.779-3.186-1.74q2.576-.945 5.106-2.011"/><path fill="#cb985b" d="M270.839 269.865c1.76-.648 2.888-1.437 4.004-2.949a236 236 0 0 1 5.227 7.182c-1.645.084-3.632.057-5.194-.501-.541-.194-1.526-.783-2.05-.825-.646-.054-1.769.495-2.485.581-.717.089-1.666-.201-2.375-.341l1.121-1.236.452-.618z"/><path fill="#b3813d" d="M274.235 265.904c.702-.053 1.04.08 1.579.536 1.931 1.636 3.351 3.933 4.926 5.898.948 1.183 1.998 2.293 2.905 3.505l.24.072-.995 1.933a161 161 0 0 0-2.82-3.75 236 236 0 0 0-5.228-7.182c-.227-.325-.413-.668-.607-1.012m12.562 4.223c.512-.284.728-.502 1.346-.373 1.88.394 6.936 5.448 8.799 6.877l.366 2.192c-1.601-1.354-8.967-8.04-10.367-8.494z"/><path fill="#f8d898" d="M269.539 271.158c.416-1.618 2.449-4.347 3.769-5.324.36-.266.46-.177.87-.092l.057.163c.194.343.38.686.607 1.011-1.115 1.513-2.243 2.301-4.003 2.949z"/><path fill="#e5b988" d="m274.178 265.742.057.162c.194.344.38.687.608 1.012-1.116 1.512-2.244 2.301-4.004 2.949.927-1.337 2.851-2.592 3.339-4.123"/><path fill="#f8d898" d="M296.538 274.603c-.061-.076-.122-.148-.181-.224-.89-1.159-2.469-4.629-2.264-6.068.404-.169.375-.147.785.017a20.7 20.7 0 0 1 1.433 4.663q.146.8.227 1.612m-12.893 1.239a3.6 3.6 0 0 1 .081-.979c.301-1.3 1.512-4.195 2.652-4.893l.419.157.144.201c-1.053 1.839-1.978 3.767-3.056 5.586zm-21.878-16.326c.363-.059.662-.05 1.028-.016l-.013.206c-1.59 1.042-3.728 1.522-5.551 2.044l-.984.204-.362-.274-.188.159c.02-.048.035-.098.063-.142.775-1.267 4.583-1.93 6.007-2.181m-.361-9.739c.462.181.514.139.724.576-.096.754-.676 1.404-1.102 2.015-.34.018-.15.039-.556-.127-.015-.056-.037-.109-.044-.167-.106-.727.616-1.687.978-2.297"/><path fill="#cb985b" d="M261.118 214.549c.61-1.845 2.338-7.209 4.096-8.046.251-.12.292-.112.536-.159.454.226.681.427.88.913.265.646.017 1.174-.262 1.758-.43.893-1.242 2.103-1.409 3.057-.445 2.565.198 10.96.881 13.482.634 2.34 1.627 4.528 2.087 6.92-4.739.819-9.052 1.905-11.983 6.082q-.111.163-.219.327a14 14 0 0 0-.414.669 13 13 0 0 0-.38.688 14 14 0 0 0-.348.706 14 14 0 0 0-.312.722 18 18 0 0 0-.277.737q-.065.184-.123.373a12 12 0 0 0-.224.753 24 24 0 0 0-.185.764 17 17 0 0 0-.258 1.552q-.022.196-.041.391a17 17 0 0 0-.068 1.571q.002.196.007.394a18 18 0 0 0 .078 1.176q.02.196.046.392a13 13 0 0 0 .118.777c.083.471.183.907.401 1.333l-.12.203c-1.97-1.756-3.163-4.273-3.719-6.819-.776-3.562-.547-6.94 1.503-10.049 2.186-3.317 5.106-4.282 8.779-5.067-.587-1.991-.719-4.018-.935-6.072-4.998-.657-8.871-2.105-13.085-4.903a227 227 0 0 0 2.203-11.965c.898 2.45 4.43 5.059 6.744 6.152 1.928.909 3.884 1.241 6.003 1.188"/><path fill="#cb985b" d="M256.479 248.281c.815-2.564 1.847-5.028 3.404-7.238.725-1.031 1.71-2.438 3.065-2.611.421-.054.46 0 .772.249.223 1.35-1.836 3.944-2.397 5.368-.463 1.178-.729 2.426-1.014 3.658l-2.155-.853c-.559.473-1.128.938-1.675 1.427m33.267 11.141c.506-1.394 1.545-6.563 2.747-7.174.218-.113.349-.004.566.065.611 1.096-.061 2.83-.386 3.983a41 41 0 0 1-1.284 3.776zm-20.141-8.005c.726-1.271 1.987-5.178 3.263-5.636l.458.122c.319.595.214 1.104.028 1.736-.455 1.542-1.223 3.037-1.93 4.476zm11.464 4.552c.639-1.594 1.529-4.748 3.163-5.474l.277.146c.426 1.697-.971 4.423-1.706 5.994zm-19.642-72.846c.753.085 1.32.292 1.951.718 1.766 1.185 2.726 3.182 3.045 5.243.359 2.323-.151 4.306-1.547 6.171l-1.451 1.136c-.067-2.565.609-5.459-.202-7.935-.509-1.557-2.328-2.761-2.517-4.075.095-.579.346-.839.721-1.258m6.919 10.202c2.352-.21 5.059-.105 7.122 1.184.569.356 1.243.899 1.346 1.601.046.314-.111.395-.284.631-1.223.619-2.194.294-3.466.021-3.023-.427-5.261-.034-8.229.64q.135-.48.303-.949c.63-1.719 1.612-2.402 3.208-3.128m2.129-13.123c.172.022.497.038.665.117.552.261.727.689.753 1.276.059 1.298-.295 2.624-.31 3.932-.026 2.62 1.931 4.225 2.947 6.456.166.367.269.598.133.991l-.783-.101c-.864-.344-1.671-.774-2.369-1.398-1.699-1.516-2.654-3.714-2.748-5.978-.079-1.909.414-3.862 1.712-5.295m7.861 47.959q.932.011 1.857.124.925.111 1.834.321c1.167.281 2.617.746 3.276 1.821-.065.308.013.29-.22.426-1.42.831-4.155-.105-5.715-.4-2.561-.102-5.056.572-7.643.369 2.129-1.625 3.955-2.412 6.611-2.661"/><path fill="#cb985b" d="m252.763 162.057 1.913.027-.377 3.334c3.54-1.787 8.057-1.37 11.713-.161a28 28 0 0 1 2.661 1.048q.324.147.648.302.321.156.641.318a32 32 0 0 1 1.872 1.048 32 32 0 0 1 1.202.773 28 28 0 0 1 1.73 1.268 27 27 0 0 1 1.101.914 30 30 0 0 1 1.054.967q.258.248.508.503a30 30 0 0 1 .981 1.041 30 30 0 0 1 1.372 1.65q.217.283.43.571.21.29.416.582.204.294.4.592a29 29 0 0 1 1.116 1.832q.175.312.341.629.168.317.327.636c2.764 5.538 4.367 11.403 2.312 17.417l-.1.292c4.995 2.559 10.014 7.892 11.746 13.297 1.784 5.566.697 12.714-1.979 17.833-.851 1.628-1.889 2.934-3.206 4.206 4.098 3.671 6.101 10.053 6.445 15.399.192 2.988-.541 6.806-1.782 9.53.157-7.325-.471-13.377-3.546-20.174-.613-1.355-2.269-2.831-2.439-4.295-.146-1.239 3.171-6.373 3.747-7.913 1.739-4.646.953-10.915-.962-15.384l-.096-.219c-.988-2.227-2.386-4.266-3.987-6.094-1.143-1.307-2.397-2.582-3.725-3.702-.916-.772-1.983-1.467-2.781-2.36-.393-.442-.794-1.046-.86-1.646-.03-.269-.004-.205.186-.432.429-.14 1.029-.279 1.38-.569.419-.347.596-.77.677-1.294.704-4.598-2.832-9.836-5.478-13.225-4.672-5.984-10.587-10.618-18.237-11.826-2.035-.321-4.066-.211-6.09-.47l-.167-.023c-.661 5.511-1.42 10.554-3.911 15.587-4.031 6.223-9.556 9.614-16.789 11.148l-.247.05c-3.538.728-7.017 1.125-10.62 1.283-2.051.093-4.158.041-6.199.251-.715-.011-1.437.03-2.151.047l-5.115.075c-19.369.207-38.721-.26-58.089-.362l-3.013-.009-3.91-.007c-4.311-.054-13.173.465-16.864-.371-2.967-.894-5.513-2.233-8.126-3.876.957-1.703 1.896-3.825 2.466-5.697 2.884 2.332 7.524 3.835 11.063 4.759 2.422.631 4.855.914 7.313 1.325 3.678.617 7.351 1.334 11.075 1.616 2.216.168 4.446.074 6.664.209q5.883.39 11.776.583a356 356 0 0 0 35.353-.587c2.408-.148 4.822-.042 7.228-.264 3.204-.295 6.33-.884 9.499-1.401 2.277-.372 4.59-.614 6.841-1.123 3.86-.874 7.883-2.266 11.296-4.294 9.144-5.43 10.939-15.745 13.353-25.164"/><path fill="#b3813d" d="M253.905 150.073c.492-.171.951-.392 1.481-.299.423.484.344.92.353 1.55q-.417 4.885-.949 9.76l-.115.999-1.913-.027c-8.662-.304-17.374.52-26.042.206 4.539-1.923 9.152-3.867 13.583-6.016-6.043.045-12.13.208-18.17-.032 3.304-.907 6.746-1.464 10.112-2.1 7.211-1.36 14.479-2.531 21.66-4.041m-125.048 18.286c-1.492 4.522-3.697 8.911-5.606 13.27-.641 1.464-1.644 3.214-1.949 4.768-.571 1.872-1.509 3.994-2.466 5.697-2.897-1.943-5.353-4.24-7.577-6.916 1.417-1.452 2.9-3.276 4.59-4.369a289 289 0 0 0 7.681-7.487c1.695-1.686 3.382-3.567 5.327-4.963"/><path fill="#e4e1d7" d="M202.85 112.888c1.545-.916 3.168-1.744 4.745-2.608l.22.091c1.215.478 2.816.354 4.107.717 5.139 1.449 10.189 4.78 12.922 9.457a16.5 16.5 0 0 1 1.269 2.174 25 25 0 0 1 .465.994q.11.251.214.505.103.255.202.511a24 24 0 0 1 .674 2.088q.072.264.136.531t.124.535a26 26 0 0 1 .288 1.621 25 25 0 0 1 .166 1.637 25 25 0 0 1 .043 1.097 25 25 0 0 1-.013 1.097 20 20 0 0 1-.067 1.096q-.021.273-.053.546a20 20 0 0 1-.148 1.087 24 24 0 0 1-.201 1.079 20 20 0 0 1-.257 1.068 21 21 0 0 1-.308 1.053q-.084.262-.174.52c-.364 1.051-1.239 3.804-2.31 4.295-.046.021-.098.031-.146.046l.192.246c-1.523 3.533-6.993 7.389-10.509 8.778a22 22 0 0 1-2.083.706 22 22 0 0 1-2.142.496 23 23 0 0 1-2.18.281q-.55.042-1.097.059-.55.016-1.101.004c-5.355.006-10.788-2.329-14.684-5.952-1.691-1.572-5.222-5.775-5.318-8.097-1.594-2.086-1.699-6.237-1.724-8.733.043-.88.157-1.762.245-2.638.235-1.668.72-3.243 1.339-4.808.35-.889.849-1.772.995-2.721 1.475-1.092 3.466-1.939 5.095-2.827z"/><path fill="#cb985b" d="M202.849 112.888c1.546-.916 3.169-1.744 4.746-2.608l.22.091c1.215.478 2.816.354 4.107.717 5.139 1.449 10.189 4.78 12.922 9.457-.578-.267-1.173-.437-1.782-.617-9.307-1.207-15.663.698-23.915 4.852-5.601 2.819-8.376 4.615-14.801 4.495.236-1.668.721-3.243 1.339-4.808.351-.889.85-1.772.996-2.721 1.475-1.092 3.466-1.939 5.094-2.827z"/><path fill="#b3813d" d="M202.849 112.888c1.546-.916 3.169-1.744 4.746-2.608l.22.091c1.215.478 2.816.354 4.107.717 5.139 1.449 10.189 4.78 12.922 9.457-.578-.267-1.173-.437-1.782-.617-1.8-.997-3.512-2.144-5.329-3.12-4.731-2.541-9.588-3.581-14.884-3.92"/><path fill="#cb985b" d="M185.826 140.646c1.217 1.19 2.472 2.303 3.848 3.308 5.911 3.681 17.36 5.04 24.072 3.513 3.714-.845 7.3-2.379 11.002-3.342l.192.246c-1.523 3.533-6.993 7.389-10.509 8.778a22 22 0 0 1-2.083.706 22 22 0 0 1-2.142.496 22 22 0 0 1-3.278.34q-.55.016-1.1.004c-5.355.006-10.788-2.328-14.684-5.951-1.692-1.573-5.222-5.776-5.318-8.098"/><path fill="#b3813d" d="M185.826 140.646c1.217 1.19 2.472 2.303 3.848 3.308 2.367 3.301 7.702 6.562 11.308 8.279 1.496.712 3.642 1.339 4.846 2.462-5.355.006-10.788-2.328-14.684-5.951-1.692-1.573-5.222-5.776-5.318-8.098"/><path fill="#aca595" d="M184.347 129.275c6.424.12 9.199-1.675 14.8-4.495 8.253-4.153 14.608-6.058 23.915-4.851.61.18 1.204.35 1.782.616a16.6 16.6 0 0 1 1.269 2.174c-10.568-2.208-18.76 1.428-28.225 5.484-4.641 1.989-8.681 3.517-13.786 3.711.043-.88.157-1.762.245-2.639"/><path fill="#000" d="M200.013 129.723q.105-.03.213-.053a3 3 0 0 1 .216-.037q.109-.017.217-.024.11-.009.22-.009a3 3 0 0 1 .654.059q.107.02.212.048a3 3 0 0 1 .418.138 4 4 0 0 1 .393.192q.094.055.186.115a4 4 0 0 1 .348.266q.083.072.16.15.078.077.15.16a4 4 0 0 1 .268.347 3 3 0 0 1 .217.38 4 4 0 0 1 .167.405 3 3 0 0 1 .112.424 4 4 0 0 1 .056.435q.005.11.005.219a4 4 0 0 1-.009.219 3 3 0 0 1-.024.218 3 3 0 0 1-.155.638q-.036.104-.08.205a3 3 0 0 1-.197.391 3 3 0 0 1-.249.361 3.2 3.2 0 0 1-.457.472 3.5 3.5 0 0 1-.734.473q-.1.047-.202.087a3 3 0 0 1-.417.133q-.078.019-.157.034a4 4 0 0 1-.32.046l-.16.012a4 4 0 0 1-.321-.001 4 4 0 0 1-.322-.032l-.159-.027q-.077-.016-.157-.035l-.155-.043-.153-.05a4 4 0 0 1-.441-.195 3.3 3.3 0 0 1-.776-.57q-.058-.056-.112-.116-.054-.059-.106-.121a3 3 0 0 1-.194-.257 2 2 0 0 1-.086-.135 3 3 0 0 1-.222-.429 3 3 0 0 1-.059-.15 2 2 0 0 1-.054-.152q-.023-.077-.044-.155a4 4 0 0 1-.066-.315q-.013-.08-.023-.159a3 3 0 0 1-.02-.322 3 3 0 0 1 .011-.322l.017-.16q.01-.08.026-.159l.031-.158a3 3 0 0 1 .089-.309 3 3 0 0 1 .118-.3 2 2 0 0 1 .07-.145q.035-.072.076-.142l.083-.138a4 4 0 0 1 .186-.262 3 3 0 0 1 .211-.244 3 3 0 0 1 .358-.324l.129-.096.135-.089a3 3 0 0 1 .425-.228 3 3 0 0 1 .301-.117q.075-.026.153-.047"/><path fill="#e4e1d7" d="M152.608 110.421c1.363.734 2.751 1.441 4.083 2.23l13.501 7.324c1.285.698 3.81 1.741 4.779 2.658.241 1.831 1.477 4.345 1.886 6.642l.238 2.408c-.023 2.537-.068 6.645-1.679 8.772-.102 2.516-3.692 6.739-5.496 8.401-4.024 3.708-9.592 5.956-15.089 5.834-2.777.079-6.107-.563-8.63-1.735-3.035-1.409-8.778-5.37-9.947-8.56l.201-.269c-.053-.017-.109-.028-.159-.051-.901-.418-1.746-2.542-2.055-3.437-1.994-5.774-2.029-11.996.675-17.557.405-.828.766-1.652 1.365-2.36.126-.313.297-.572.486-.85 3.827-5.6 9.352-8.205 15.841-9.45"/><path fill="#cb985b" d="M152.608 110.421c1.362.734 2.751 1.441 4.083 2.23l13.501 7.324c1.285.698 3.81 1.741 4.779 2.658.241 1.831 1.477 4.345 1.886 6.642-1.151.056-2.375.173-3.517.006-4.092-.6-7.602-2.662-11.233-4.475-3.836-1.915-7.952-3.814-12.155-4.718-3.355-.721-7.04-.435-10.449-.37-1.104.211-2.143.951-3.222 1.003.126-.313.296-.572.486-.85 3.827-5.6 9.352-8.205 15.841-9.45"/><path fill="#b3813d" d="M152.608 110.421c1.362.734 2.751 1.441 4.083 2.23-2.183.986-4.371 1.393-6.644 2.073-2.878.862-8.102 3.14-10.544 4.994-1.104.211-2.143.951-3.222 1.003.126-.313.296-.572.486-.85 3.827-5.6 9.352-8.205 15.841-9.45"/><path fill="#cb985b" d="M175.416 140.455c-.101 2.516-3.692 6.738-5.496 8.401-4.024 3.708-9.592 5.955-15.089 5.833-2.777.08-6.107-.562-8.63-1.734-3.035-1.41-8.778-5.37-9.947-8.561l.201-.269c3.698 1.016 7.33 2.506 11.06 3.339 5.115 1.143 13.012.505 18.051-.901 1.709-.477 3.352-1.204 4.971-1.923a42.5 42.5 0 0 0 4.879-4.185"/><path fill="#b3813d" d="M175.416 140.455c-.102 2.516-3.692 6.738-5.496 8.401-4.024 3.708-9.592 5.955-15.09 5.833.93-1.02 2.984-1.758 4.22-2.385 3.907-1.983 8.604-4.319 11.486-7.664a42.5 42.5 0 0 0 4.88-4.185"/><path fill="#aca595" d="M139.503 119.717c3.41-.065 7.094-.351 10.449.371 4.204.903 8.319 2.802 12.155 4.717 3.632 1.813 7.141 3.876 11.233 4.475 1.142.168 2.367.05 3.517-.006l.238 2.408c-4.663.133-8.816-1.296-12.941-3.323-11.159-5.487-16.396-7.851-29.238-5.279.405-.828.766-1.651 1.365-2.36 1.079-.051 2.119-.792 3.222-1.003"/><path fill="#000" d="M159.391 129.722a3.2 3.2 0 0 1 .876-.123q.111 0 .222.006.11.007.221.021.11.015.219.036a3 3 0 0 1 .428.115q.105.036.208.079a3.7 3.7 0 0 1 .584.317 3.3 3.3 0 0 1 .797.765 3.3 3.3 0 0 1 .502.984 3 3 0 0 1 .104.431 3.3 3.3 0 0 1 .047.663 3 3 0 0 1-.043.441 4 4 0 0 1-.102.432 4 4 0 0 1-.072.21 3.7 3.7 0 0 1-.299.594 3 3 0 0 1-.411.522 3.3 3.3 0 0 1-.693.55 4 4 0 0 1-.396.201 4 4 0 0 1-.419.146 3 3 0 0 1-.53.1 3 3 0 0 1-.317.018 3 3 0 0 1-.318-.012 3 3 0 0 1-.315-.042 4 4 0 0 1-.31-.073 3 3 0 0 1-.448-.163 4 4 0 0 1-.419-.226 4 4 0 0 1-.26-.184 3 3 0 0 1-.354-.319 3 3 0 0 1-.394-.498l-.084-.136q-.04-.069-.076-.139l-.07-.143a4 4 0 0 1-.166-.447 3 3 0 0 1-.075-.309 3 3 0 0 1-.045-.315 4 4 0 0 1-.014-.318 3 3 0 0 1 .016-.317 4 4 0 0 1 .046-.315q.016-.078.035-.155a3 3 0 0 1 .091-.305 3 3 0 0 1 .19-.437 4 4 0 0 1 .161-.274q.043-.068.09-.131a3 3 0 0 1 .306-.366 3 3 0 0 1 .232-.217 4 4 0 0 1 .252-.194q.066-.046.133-.088.067-.043.137-.081a4 4 0 0 1 .284-.143 3 3 0 0 1 .296-.115q.076-.024.153-.046m-5.156-31.725c8.418 6.249 17.234 12.055 25.791 18.123L205.749 98l15.889 4.631c-4.73 2.435-9.371 5.1-14.043 7.65-1.577.864-3.2 1.692-4.746 2.608l-11.074 6.031c-1.628.888-3.619 1.735-5.094 2.827a496 496 0 0 0-6.65 3.601c-1.665-.906-3.342-1.923-5.06-2.715-.969-.917-3.494-1.96-4.779-2.658l-13.501-7.324c-1.332-.789-2.721-1.496-4.083-2.23l-14.323-7.779zm23.83 65.25a24 24 0 0 1 2.037-.135c3.705-.039 19.145 2.285 21.283 5.149.299.398.288.564.174.998-1.11.421-5.086-1.413-6.456-1.811-4.151-1.207-8.302-1.796-12.591-2.268-6.009-.254-12.271.686-18.04 2.387-1.593.469-3.493 1.651-5.074 1.827-.469.052-.63-.025-.971-.329-.029-.472-.013-.528.332-.898.488-.523 1.477-.895 2.127-1.187 5.274-2.373 11.451-3.255 17.179-3.733"/><path fill="#cb985b" d="M154.067 162.915c.383.068.582.192.897.415.47 1.253-1.132 3.208-1.616 4.462-1.305 3.379.331 6.645 3.278 8.486 1.304.814 3.746 1.028 4.427 2.498-.239.532-.509.565-1.015.83-.511.015-1.028.035-1.538.001-2.302-.152-4.437-1.633-5.898-3.347-1.577-1.851-2.469-4.086-2.242-6.541.254-2.761 1.65-5.026 3.707-6.804m53.133.013c.731.088 1.172.416 1.699.908 1.717 1.605 2.62 4.16 2.683 6.481.064 2.48-1.056 4.712-2.739 6.474-1.811 1.897-3.828 2.791-6.437 2.851-.456-.093-.903-.162-1.313-.395-.286-.163-.192-.113-.301-.477.894-1.663 4.118-1.844 5.51-3.223.837-.828 1.646-1.663 2.174-2.733 1.304-2.643.269-4.884-1.023-7.245-.222-.406-.61-.966-.689-1.424-.096-.568.146-.771.436-1.217m-95.034-25.148c1.578-.142 2.702-.05 4.038.887 1.312.921 2.105 2.381 2.377 3.94.293 1.676.08 3.494-.959 4.885-1.369 1.833-3.958 2.557-6.133 2.818l-.821-.119-.109-.164c1.065-1.073 2.984-1.55 4.265-2.476 1.023-.74 1.794-1.718 1.934-3.006.093-.861-.078-1.721-.374-2.527-1.271-3.465-3.546-1.862-4.719-3.377.042-.492.146-.506.501-.861m4.867 12.098c.13-.015.316-.039.455-.042 1.941-.033 5.479.584 6.945 1.981.638.608 1.545 1.47 1.568 2.41l-.472.235c-1.345-.03-2.74-1.506-4.002-2.043l-.197-.081c-1.51-.402-3.222-.629-4.775-.46-1.302.142-3.817 1.516-4.869 1.12-.109-.42-.051-.617.192-.969 1.066-1.545 3.456-1.795 5.155-2.151m119.478-42.911c.173.064.291.101.448.182.543.283.854.976 1.011 1.539.622 2.234-.08 5.111-1.265 7.038-1.243 2.018-3.45 2.764-5.651 3.298-.489-.151-.848-.325-1.117-.776.157-.895 1.15-1.093 1.904-1.412.849-.36 2.349-.82 3.013-1.445.407-.384.68-1.045.889-1.554 1.196-2.911.057-4.934.424-6.264.061-.224.229-.404.344-.606m-112.908 30.837c.398.033.573.098.9.325.513 1.233-.747 3.373-.542 4.822.532 3.742 3.183 4.936 5.806 6.999l-.134.297c-1.381.004-2.482-.186-3.689-.895-1.876-1.104-3.011-2.937-3.523-5.018-.621-2.523-.139-4.381 1.182-6.53m108.941-16.056c1.21-.127 2.499-.254 3.701-.013 2.208.443 3.933 2.268 5.085 4.115.342.545.499 1.001.342 1.63-.44.173-.513.121-.982.01-2.015-1.863-2.628-3.887-5.734-4.077-1.139-.07-2.386.001-3.507-.212-.452-.086-.65-.163-.897-.563l.135-.35c.55-.43 1.185-.448 1.857-.54"/><path fill="#8b291a" d="M92.328 92.307c-.573-6.427-.98-21.976 3.098-27.16.371 1.216.835 2.26 1.447 3.37 1.686 2.114 3.567 3.65 5.938 4.952l-.002.218c-.061 4.327-.636 5.147.286 9.766 1.624 1.316 3.663 2.305 5.567 3.151.845 3.799 2.715 7.978 5.339 10.909a82 82 0 0 0-.721 8.868c.13 4.326.475 8.591 2.007 12.682.3.803 1.796 3.338 1.865 3.77.021.134-.076.262-.114.392l-.396.386c-.751.576-1.505 1.228-2.296 1.744-1.372 1.009-8.031 6.097-9.106 6.014-.073-.006-.144-.024-.215-.036l-.483-.221c-.146-.143-.094-.111-.268-.21-4.441-2.525-13.18-5.322-18.108-4.047 3.509-3.566 9.651-6.074 14.14-8.355-4.231-3.26-9.593-6.984-12.447-11.556 3.743-.027 6.333-1.787 9.248-3.916-2.962-2.356-6.237-4.796-8.65-7.723-.494-.598-1.68-2.038-1.605-2.787 2.218.737 3.28.586 5.476-.211"/><path fill="#dba2a0" d="M97.034 78.668c.732.822 1.555 1.566 2.35 2.327q1.83 1.266 3.711 2.457c1.624 1.317 3.664 2.306 5.567 3.152.845 3.799 2.715 7.978 5.339 10.908a82 82 0 0 0-.721 8.868c.13 4.326.475 8.592 2.007 12.683.3.802 1.796 3.338 1.865 3.77.021.134-.076.262-.114.392l-.395.385c-5.496-3.42-12.569-8.546-16.76-13.51l-1.506-2.068c.886.011 1.673-.039 2.511-.347 1.446-.532 2.225-1.483 2.858-2.845.428-.868.73-1.733 1.027-2.651-3.058-7.304-7.975-15.365-7.74-23.521"/><path fill="#f3b6b3" d="M113.28 106.379c-5.047-5.755-9.646-12.8-12.509-19.907-.446-1.108-1.85-4.39-1.388-5.478q1.831 1.266 3.711 2.457c1.625 1.317 3.664 2.306 5.568 3.152.845 3.799 2.715 7.978 5.339 10.908a82 82 0 0 0-.721 8.868"/><path fill="#b53925" d="M96.873 68.516c1.686 2.113 3.567 3.65 5.938 4.952l-.002.218c-.06 4.326-.636 5.147.286 9.765a109 109 0 0 1-3.711-2.457c-.794-.761-1.618-1.505-2.35-2.327-.236 8.156 4.681 16.217 7.739 23.521-.297.918-.599 1.783-1.027 2.651-1.118-1.782-2.36-3.497-3.528-5.248-5.752-8.621-5.3-21.278-3.345-31.075m-4.391 40.354c2.486.63 4.837 1.065 7.401 1.229 4.191 4.964 11.265 10.09 16.76 13.511-.752.576-1.506 1.228-2.296 1.744-2.051-1.174-4.15-2.375-6.251-3.453-1.572-.807-3.238-1.479-4.731-2.427-3.7-2.346-8.025-7.271-10.883-10.604"/><path fill="#e5b988" d="M262.584 130.378c2.556-.044 5.546-.323 7.562 1.56 1.402 1.308 2.595 3.468 3.511 5.155 1.141 2.301 1.918 4.664 1.615 7.269-.82 5.085-3.852 10.88-8.088 13.946-3.155 2.283-8.577 2.471-12.394 2.776q.532-4.874.949-9.759c.39-1.725.371-3.757.519-5.531l1.099-14.638.722.155 2.618.858z"/><path fill="#cb985b" d="M273.657 137.093c1.141 2.301 1.918 4.664 1.615 7.27l-.156-1.002c-.169-.12-.17-.134-.396-.216-1.311-.475-3.719.417-4.869 1.077-4.122 2.362-1.941 4.778-2.955 8.208-.212.719-.6 1.614-1.342 1.924-.6.251-1.132.051-1.677-.194-.685-1.34.702-2.882.552-4.31-.16-1.536-1.562-2.677-1.713-4.378-.157-1.76.273-3.548 1.442-4.905 2.149-2.494 6.372-3.287 9.499-3.474"/><path fill="#b53925" d="M197.579 42.873c2.102-.68 5.293-3.239 6.982-4.69.674-.579 1.577-1.85 2.351-2.126.879.49 1.086 1.582 1.357 2.48.323 1.758.595 3.507.604 5.3-.024.332-.024.724-.079 1.052-.113.686-.794 1.612-1.145 2.231-1.718 3.047-2.65 5.747-2.585 9.277-3.442 2.312-6.523 5.866-9.436 8.795l-1.821 1.749c-.715-3.986-1.769-8.312-.879-12.332l-.39-.36c-.55.502-1.078 1.012-1.704 1.417-.139-.994.118-2.098.345-3.067.944-4.007 2.833-7.519 6.4-9.726"/><path fill="#8b291a" d="M197.579 42.873c2.102-.68 5.293-3.239 6.982-4.69.674-.579 1.577-1.85 2.351-2.126.879.49 1.086 1.582 1.357 2.48-1.457 1.034-2.832 2.33-4.352 3.242-4.412 2.647-7.769 3.732-10.062 8.762-.458 1.005-1.055 2.178-1.282 3.265-.042.208-.035.257-.035.444-.55.5-1.078 1.011-1.704 1.416-.139-.994.118-2.098.345-3.067.944-4.007 2.833-7.519 6.4-9.726"/><path fill="#fff" d="M196.01 27.28c.16.05.24.07.38.19.77.65 1.13 2.23 1.34 3.18.67 4.06.39 8.16-.16 12.22-3.57 2.21-5.46 5.72-6.4 9.73-.17.73-.36 1.53-.38 2.31.02-.78.21-1.58.38-2.3.94-4.01 2.83-7.52 6.4-9.73 2.1-.68 5.29-3.24 6.98-4.69.67-.58 1.58-1.85 2.35-2.13.88.49 1.09 1.58 1.36 2.48.32 1.76.6 3.51.6 5.3.07.2.1.47.12.74s.02.54.03.76c.93-.62 1.9-1.28 2.85-1.98 1.59-1.17 3.14-2.44 4.4-3.8.21-.23.41-.48.6-.74.57-.78 1.08-1.63 1.77-2.24.09 0 .17-.01.25-.01.84 0 1.3.42 1.99.96 1.26 1.48 2.26 3.16 3.09 4.95.55 1.19 1.03 2.42 1.46 3.67.65 1.88 1.18 3.78 1.7 5.63 4.64-2.85 8.28-6.8 13.84-7.94l-.82 1.58c-.02.05-.03.1-.04.15-1.39 4.45-.86 8.96-.19 13.5 2.08-1.68 4.24-3.45 5.96-5.5.4-.4.39-.48.94-.52 1.83.84 2.78 2.63 3.47 4.43 1.38 3.62 1.7 7.37 2.38 11.14 2.89-1.08 5.71-1.96 8.7-1.96.72 0 1.45.05 2.19.16.68.33 1.2.57 1.7 1.14-.17.87-1.6 1.91-2.14 2.68-.34.48-.77 1.17-1.23 1.97-1.36 2.35-2.97 5.65-3.28 7.42 0 .05-.02.1-.03.15 1.89-.52 3.32-1.18 4.93-2.3l.84-.74.31.04c.37.6.52 1.39.54 2.22.03 1.39-.29 2.93-.55 4.03-1.1 4.67-3.11 9.13-5.06 13.49 1.57-.33 3.35-.61 5.12-.61 2 0 3.97.36 5.58 1.4.71.46 1.26 1.05 1.76 1.72-3.7 2.6-5.92 6.88-8.05 10.77 2.3 1.41 4.8 2.94 7.53 2.94.42 0 .84-.04 1.27-.11-.5 7-5.59 12.5-10.22 17.36.68-.01 1.39-.04 2.1-.04 1.97 0 3.98.22 5.46 1.6 1.4 1.31 2.6 3.47 3.51 5.15.29.58.55 1.15.78 1.74.57 1.46.93 2.97.9 4.56 0 .32-.03.64-.06.97-.82 5.08-3.85 10.88-8.09 13.94-3.15 2.28-8.58 2.47-12.39 2.78.35-3.25.67-6.5.95-9.76.06-.26.09-.54.14-.82-.04.27-.08.55-.14.82-.28 3.26-.59 6.51-.95 9.76l-.11 1-.38 3.33c1.7-.86 3.62-1.21 5.56-1.21 2.11 0 4.25.41 6.16 1.04.22.08.45.16.67.24s.45.17.67.25l.66.27c.22.09.44.19.66.29s.43.2.65.3c.21.1.43.21.64.32l.63.33c.21.11.42.23.62.35.21.12.41.24.62.36.2.12.4.25.61.38l.6.39c.2.13.39.27.59.41.19.14.39.28.58.42s.38.29.57.44.37.3.55.45.36.31.54.46c.18.16.36.32.53.48s.35.32.52.49.34.33.51.5.33.34.5.51c.16.17.33.35.48.53.16.18.32.36.47.54s.31.36.46.55c.15.18.3.37.44.56s.29.38.43.57.28.39.42.58c.14.2.27.39.4.59l.39.6c.13.2.25.41.37.61.12.21.24.41.36.62s.23.42.34.63.22.42.33.64c2.25 4.5 3.73 9.22 3.1 14.05-.14 1.12-.4 2.24-.79 3.37l-.1.29c4.99 2.56 10.01 7.89 11.75 13.3.89 2.78 1.07 5.96.68 9.08-.38 3.12-1.32 6.19-2.66 8.75-.85 1.63-1.89 2.93-3.21 4.21 4.1 3.67 6.1 10.05 6.44 15.4.02.37.03.76.03 1.16-.03 2.77-.73 5.99-1.81 8.38-.43 1.24-1.14 2.23-1.92 3.27l.54.35c.98.27 2.18.43 2.97 1.07.09.23.16.39.18.56s0 .34-.09.58c-.59 1.65-2.34 2.87-3.05 4.6a20 20 0 0 1 1.08 3.07q.21.795.36 1.59c.1.53.17 1.07.23 1.61.17.68.31 1.34.4 2.03l.37 2.19c-1.5-1.27-8.07-7.22-10.04-8.34-.13-.07-.24-.13-.33-.16-1.05 1.84-1.98 3.77-3.06 5.59l-.99 1.93q-1.38-1.89-2.82-3.75c-.42.02-.86.04-1.32.04-1.32 0-2.72-.12-3.88-.54-.54-.19-1.53-.78-2.05-.83h-.09c-.66 0-1.71.5-2.39.59-.09.01-.19.02-.29.02-.67 0-1.47-.24-2.09-.36-.22.24-.27.28-.59.41l-.29-.63c-.95-.41-1.79-.83-2.55-1.31-1.27-.79-2.32-1.76-3.36-3.18-.26-.06-.51-.12-.76-.19-2.61-.72-4.3-2.2-5.62-4.5-.87.34-1.71.64-2.61.86-.05-.18-.08-.48-.08-.88-.01-2.76 1.05-10.06 1.51-11.52-1.97-1.76-3.16-4.27-3.72-6.82-.29-1.34-.44-2.65-.41-3.93.06-2.13.63-4.18 1.91-6.12 2.19-3.32 5.11-4.28 8.78-5.07-.59-1.99-.72-4.02-.93-6.07-5-.66-8.87-2.1-13.08-4.9-.26 2.35-.62 4.72-1.1 7.04-.16.78-.34 1.55-.53 2.31-.7 2.75-1.66 5.54-2.07 8.34.44.52 1.13 1.18 1.4 1.8.54 1.24.71 4.52.7 8.48-.03 7.57-.73 17.66-.79 20.88 1.76 2.27 4.35 5.17 4.36 8.22 0 .2-.01.41-.03.61-.11.96-.52 1.78-1.05 2.58.28 1.33.62 2.66.68 3.97s-.14 2.59-.93 3.83c-.14.21-.28.42-.43.63.8 3.43 1.22 6.64-.41 9.9-.04.07-.07.15-.11.23-.21 2.47-.68 4.83-1.25 7.24.38.37.77.79 1.13 1.25 1.09 1.38 2 3.09 2.05 4.73.01.41-.02.82-.05 1.23h.08c1.89 0 3.73.38 5.61.53 2.67.45 5.03 1 6.99 2.56.65.52 1.26 1.15 1.82 1.93 1.38 1.91 2.12 4.48 2.44 6.79.13 1.04.23 2.06.27 3.1.11 1.48.18 3.05.17 4.64-.02 2.64-.26 5.32-.89 7.73h-76.98c-.23-2.46-.67-5.39-.68-8.17 0-1.67.14-3.29.57-4.72-.57-.35-1.15-.7-1.62-1.17-1.1-1.11-1.26-2.56-1.26-4.02 0-.49.02-.98.02-1.46-.22-.22-.43-.45-.64-.69-.92-1.05-1.32-2.43-1.31-3.81 0-.2 0-.39.03-.59.26-3.03 2.55-7.26 4.83-9.52q.225-.225.45-.42c-.46-1.77-.22-3.61-.66-5.39-.58-2.36-3.07-4.37-4.26-6.52-.04-.06-.07-.13-.1-.19-.59-.71-1.81-.87-2.68-.98-.68.08-1.36.14-2.02.31-1.48 2.62-4.24 5.21-4.83 8.07-.33 1.59-.24 3.22-.45 4.82 2.18 2.56 5.05 6.55 5.18 10.16 0 .24 0 .48-.01.72-.11 1.64-.82 2.9-1.95 4.06v1.45c-.02 1.48-.18 2.97-1.3 4.04-.45.43-.99.77-1.51 1.1.35 1.53.47 3.15.46 4.78-.01 2.73-.38 5.53-.64 8.12H95.98c-.64-2.19-.84-4.44-.91-6.71-.04-1.36-.05-2.73-.07-4.08.11-1.01.13-2.05.19-3.07.26-2.68.88-5.58 2.35-7.88 1.83-2.88 4.48-4.07 7.67-4.76 2.02-.49 4.48-.73 6.62-.73h.6c-.02-.21-.04-.42-.05-.63-.08-2.26 1.49-4.93 2.99-6.53l-.51-.34c-.85-1.59-1.4-3.99-1.45-6.24-.03-1.35.11-2.65.48-3.69.41-1.17 1.35-2.09 1.73-3.3.45-1.46.55-3.15.75-4.66l-2.61.79-.33-.51-.18-.27c-1.46-2.39-.72-5.09-.14-7.62-.33-.51-.6-1.01-.81-1.56a4 4 0 0 1-.15-.48c-.03-.13-.07-.26-.1-.39-.04-.21-.06-.41-.07-.62-.12-3.11 2.72-6.18 4.43-8.5-.2-3.62-.85-13.19-.86-20.53 0-3.84.16-7.08.66-8.52.25-.73 1.03-1.5 1.53-2.09-1.58-5.69-3.23-11.81-3.78-17.68-3.12 2.96-9 4.69-13.23 4.89-.07 2.16-.22 4.12-.78 6.21 3.37.53 6.32 1.7 8.41 4.53 1.52 2.06 2.23 4.39 2.27 6.83.01.81-.05 1.64-.18 2.47-.28 1.76-.75 3.53-1.64 5.09-.48.81-.97 1.56-1.54 2.31.42 3.45.7 6.91.83 10.38l-2.09-.76c-.05.21-.1.41-.15.61-.48 1.91-1.18 3.46-2.69 4.71q-.36.3-.78.57c-.27.18-.54.33-.82.47-.83.42-1.69.69-2.63.91l-.19.32-.2-.05.02.26c-1.7 2.11-4.02 3.66-6.67 4.24-.35.08-.71.13-1.08.17-.03 0-.05 0-.07.01h-.01c-.31.03-.59.05-.86.05-.88 0-1.62-.19-2.48-.68-2.05 1.08-4.08 1.45-6.22 1.45-.91 0-1.85-.07-2.81-.18l-.17.12c-.2.31-.35.53-.64.76-.64-.24-.99-1.29-1.29-1.89-1.79-1.1-3.25-2.54-4.67-4.07-2.05 1.74-4.1 3.61-6.21 5.33-.7.57-1.42 1.13-2.14 1.66-.1-.21-.1-.43-.08-.66v-.03c.03-.22.07-.44.1-.66.4-2.56.93-5.08 1.58-7.59.06-.13.13-.26.19-.39.1-.21.2-.43.26-.65.06-.23.03-.45-.03-.66-.08-.27-.23-.54-.37-.79-1.01-1.27-2.04-2.54-2.93-3.9.59-.95 1.41-1.09 2.41-1.42-1.6-3.4-2.29-6.94-2.11-10.68.27-5.49 2.06-11.63 6.25-15.43-1.33-1.31-2.4-2.62-3.25-4.28-2.59-5.07-3.7-12.2-1.92-17.7.44-1.37 1.08-2.72 1.87-4.03q.6-.975 1.29-1.92a26.5 26.5 0 0 1 3.12-3.49q.42-.405.87-.78c.88-.76 1.8-1.45 2.73-2.05.62-.4 1.25-.77 1.89-1.09-.06-.17-.12-.33-.17-.5-1.97-6.16-.26-12.15 2.66-17.74 3.48-6.67 9.74-12.06 16.95-14.28 1.84-.56 3.72-.9 5.58-.9h.48c1.51.05 3.01.32 4.46.87.48.18.96.4 1.42.65l-.4-4.69c-1.27-.06-2.7-.14-4.16-.3-1.75-.19-3.56-.5-5.19-1.04-.27-.09-.54-.19-.8-.29-.79-.31-1.52-.68-2.18-1.12-.22-.15-.43-.3-.63-.47-.45-.37-.9-.78-1.34-1.23-2.63-2.66-4.93-6.53-5.8-10.16-.15-.61-.25-1.2-.31-1.79-.06-.33-.1-.65-.12-.98-.15-2.28.57-4.48 1.61-6.51.99-1.86 2.39-4.38 4.07-5.67 1.31-1 3.24-1.32 5.3-1.32.97 0 1.97.07 2.96.18.96.1 1.9.24 2.77.38.85.13 1.64.26 2.33.36-.14-.14-.09-.11-.27-.21-3.68-2.09-10.29-4.37-15.26-4.37-1.03 0-2 .1-2.85.32 3.51-3.57 9.65-6.07 14.14-8.35-4.23-3.26-9.59-6.98-12.45-11.56 3.74-.03 6.33-1.79 9.25-3.92-2.96-2.36-6.24-4.8-8.65-7.72-.49-.6-1.68-2.04-1.6-2.79.98.33 1.73.48 2.46.48.92 0 1.79-.24 3.02-.69-.57-6.43-.98-21.98 3.1-27.16.37 1.22.83 2.26 1.45 3.37 1.69 2.11 3.57 3.65 5.94 4.95 1.64-5.61 3.48-13.29 2.68-19.07-.17-1.18-.93-2.45-1.29-3.62.56-.61 1.79-.67 2.58-.75 4.49.17 9.13 2.21 12.86 4.64h.04c.14 0 .47-.23.87-.57.98-.82 2.42-2.28 2.74-2.58 6.68-6.23 16.93-15.52 26.35-16.16-.36 1.69-.39 3.16-.25 4.88.44 1.88 1.02 3.52 1.92 5.23 1.34-1.37 3.24-2.48 4.73-3.74 3.81-3.24 7.13-6.98 7.55-12.14 1.82.69 3.1 1.57 4.55 2.86 1.75 1.82 4.29 4.35 5.15 6.75l.33.28h.01c1.35 0 14.47-7.49 16.44-8.67 1.85-1.1 3.92-2.85 5.93-3.54M102.77 75v.16c-.02.44-.04.84-.07 1.21v.02-.02c.02-.37.05-.77.07-1.21zc.02-.37.03-.78.03-1.21 0 .43-.02.84-.03 1.21m93.24-59.72c-1.32 0-2.64.22-3.91.65-2.88.99-5.21 2.58-6.91 3.74-.48.32-.97.66-1.25.83-1.35.81-4.13 2.38-6.88 3.9l-.25-.26c-.23-.24-.46-.46-.7-.68-1.8-1.59-4.35-3.61-8.22-5.08-1.38-.53-2.84-.79-4.28-.79-2.24 0-4.46.63-6.4 1.85a12 12 0 0 0-4.14 4.41c-1.1-.32-2.24-.49-3.41-.49-.27 0-.54 0-.81.03-11.73.79-22.1 8.77-31.06 16.9-3.17-1.21-6.74-2.1-10.54-2.25h-.46q-.585 0-1.17.06h-.14c-1.77.18-6.48.61-10.12 4.59a12 12 0 0 0-2.83 10.83 12.06 12.06 0 0 0-6.52 4.22c-3.41 4.33-5.26 10.61-5.84 19.78-.11 1.78-.17 3.53-.18 5.18-2.86 2-4.71 5.15-5.06 8.64-.4 4.04 1.17 7.28 2.65 9.46-.07.12-.14.25-.21.37-2.09 3.81-1.97 8.45.33 12.14.67 1.08 1.41 2.11 2.2 3.08-.79.65-1.55 1.33-2.27 2.06a11.99 11.99 0 0 0-1.84 14.41c.02.04.04.07.06.11-1.77 3.87-2.54 7.74-2.3 11.51.04.62.11 1.24.2 1.85.12.97.3 1.96.54 2.94.85 3.53 2.5 7.19 4.67 10.49-4.96 3.68-9.12 8.5-12.04 14.09-3.36 6.44-4.98 12.51-4.88 18.35-.22.2-.44.4-.66.61a39 39 0 0 0-4.53 5.06c-.7.93-1.35 1.9-1.94 2.88a31.6 31.6 0 0 0-3.03 6.55c-2.96 9.16-1 18.95 2.03 25.55-2.72 5.6-3.49 11.31-3.66 14.97-.13 2.78.05 5.51.56 8.18-1.46 3.61-1.1 7.76 1.09 11.09.13.2.26.4.4.59-.35 1.64-.66 3.28-.92 4.93 0 .06-.02.12-.03.19-.04.26-.08.5-.11.74-.02.14-.04.28-.05.41-.25 2.47.13 4.81 1.15 6.98 1.52 3.25 4.42 5.65 7.9 6.54a12.02 12.02 0 0 0 10.07-1.96c.25-.18.5-.37.75-.56.69.42 1.46.81 2.32 1.12 1.35.5 2.75.74 4.14.74s2.76-.24 4.06-.71c2.24-.03 4.36-.32 6.39-.87.61.07 1.24.1 1.87.1s1.29-.03 1.98-.1c.05 0 .1 0 .15-.01.14-.01.28-.03.43-.05.7-.09 1.37-.2 2.03-.34a22.7 22.7 0 0 0 5.98-2.22c-.17 2.78.14 6.06 1.83 9.42-.62 2.13-.91 4.47-.85 6.99.02.9.09 1.8.19 2.69-3.2.78-9.78 2.89-14.18 9.81-2.29 3.59-3.65 7.89-4.17 13.15-.01.14-.03.29-.03.44l-.06 1.16c-.03.53-.05 1.04-.09 1.38-.05.5-.08 1.01-.07 1.52 0 .48.02.97.02 1.45.01.93.02 1.85.05 2.78.09 2.6.32 6.05 1.4 9.7 1.51 5.1 6.19 8.6 11.51 8.6h76.89c2.68.01 5.17-.87 7.18-2.37 2.01 1.51 4.51 2.4 7.21 2.4h76.98c5.46 0 10.23-3.68 11.61-8.96.82-3.14 1.25-6.73 1.28-10.69.01-1.72-.05-3.56-.19-5.45-.06-1.19-.17-2.41-.34-3.83 0-.06-.02-.12-.02-.18-.45-3.27-1.61-8.03-4.59-12.16a21.8 21.8 0 0 0-4.09-4.31c-3.36-2.68-6.91-3.88-10.35-4.61.02-.14.04-.27.05-.41 1.65-4.3 1.67-8.41 1.29-11.56.68-2.11.96-4.37.85-6.74v-.18c2.15 1.79 4.88 2.78 7.68 2.78.51 0 1.02-.03 1.53-.1.36.03.74.04 1.14.04.59 0 1.18-.04 1.75-.11.04 0 .08-.01.12-.02q.915.27 1.89.45c2.28 2.63 5.59 4.15 9.07 4.15.31 0 .62-.01.93-.04 2.04-.16 3.97-.83 5.63-1.92.04.03.08.06.11.09a12.01 12.01 0 0 0 13.68 1.26c4.37-2.49 6.73-7.44 5.9-12.4l-.34-2.06c-.11-.72-.24-1.46-.42-2.26-.07-.56-.16-1.13-.26-1.69l-.09-.47c.44-.76.85-1.63 1.2-2.6.72-2.03.95-4.08.7-6.12-.21-1.72-.73-3.01-.96-3.56-.02-.05-.04-.09-.06-.14.72-2.71 1.12-5.57 1.15-8.3 0-.69-.01-1.38-.05-2.05-.34-5.28-1.7-10.35-3.86-14.73 1.63-3.51 2.73-7.41 3.22-11.4.61-5 .21-9.91-1.16-14.21-1.76-5.48-5.45-10.86-10.15-15.07.09-5.6-1.39-11.4-4.5-17.63q-.21-.42-.45-.87c-.16-.31-.33-.61-.5-.92-.15-.27-.33-.57-.51-.88-.16-.28-.33-.55-.5-.83-.19-.3-.36-.57-.54-.84l-.57-.84c-.01-.02-.03-.04-.04-.06-.18-.26-.36-.51-.55-.76-.21-.29-.41-.56-.62-.82-.19-.25-.41-.52-.63-.79s-.44-.53-.66-.8c-.2-.23-.42-.48-.64-.73-.24-.27-.47-.52-.7-.76-.24-.26-.46-.49-.69-.71-.24-.24-.47-.48-.71-.71l-.05-.05c-.23-.22-.45-.43-.68-.64-.27-.25-.52-.47-.77-.69s-.51-.44-.76-.65c-.27-.22-.54-.44-.81-.65l-.54-.42c2.74-4.12 4.68-8.95 5.48-13.88.03-.17.05-.35.07-.52.08-.71.13-1.43.14-2.15.05-3.04-.51-6.03-1.72-9.13-.34-.88-.74-1.77-1.2-2.71-.07-.13-.13-.26-.2-.39-.89-1.65-1.91-3.44-3.18-5.15 1.96-3.57 3.42-7.67 3.75-12.33.21-2.97-.69-5.89-2.48-8.2.8-1.31 1.35-2.77 1.6-4.32.52-3.19-.26-6.45-2.18-9.05-1.43-1.95-3.04-3.48-4.91-4.69-.23-.15-.47-.3-.71-.44.09-.33.17-.67.25-1 .44-1.86.94-4.35.87-7.08-.05-2.1-.43-4.05-1.13-5.84.4-.88.74-1.86.96-2.95.03-.17.06-.34.09-.5v-.02c.53-3.47-.48-7.03-2.83-9.71-2.1-2.4-4.38-3.5-5.48-4.03-1.09-.53-2.29-.9-3.49-1.08-1.08-.16-2.19-.26-3.3-.28-.16-.48-.33-.97-.52-1.46-1.85-4.89-4.74-8.42-8.6-10.53-.21-2.16-1.01-4.27-2.37-6.07a11.98 11.98 0 0 0-11.99-4.51c-2.05.42-3.91 1.04-5.59 1.78a32 32 0 0 0-2.95-4.11c-.54-.63-1.14-1.21-1.8-1.71l-.13-.1c-1.18-.92-4.3-3.37-9.21-3.37-.44 0-.89.02-1.33.06-1.51.14-2.98.56-4.32 1.23-.16-.1-.33-.2-.5-.29-1.39-.78-2.91-1.26-4.46-1.44-.78-1.91-2.05-4.07-4.16-5.85a12.9 12.9 0 0 0-4.21-2.36c-1.26-.43-2.58-.65-3.9-.65z"/></g><defs><clipPath id="a"><path fill="#fff" d="M0 .514h369.317V369.83H0z"/></clipPath></defs></svg>