<svg xmlns="http://www.w3.org/2000/svg" width="370" height="370" fill="none" viewBox="0 0 370 370"><path fill="#e5b988" d="m173.29 38.791.332.28c1.274.055 14.481-7.489 16.458-8.668 1.852-1.103 3.921-2.846 5.932-3.538.156.055.245.073.384.19.772.65 1.132 2.23 1.344 3.185.674 4.063.39 8.159-.161 12.217-3.567 2.207-5.456 5.72-6.4 9.726-.227.969-.484 2.073-.345 3.067.626-.405 1.154-.916 1.704-1.416l.39.358c-.89 4.021.164 8.346.879 12.333l1.82-1.749c2.914-2.93 5.994-6.483 9.437-8.795-.065-3.53.867-6.23 2.585-9.277.351-.62 1.032-1.545 1.145-2.231.055-.328.055-.72.079-1.053.148.408.12 1.055.151 1.5 2.477-1.644 5.245-3.596 7.254-5.78.846-.918 1.44-2.166 2.369-2.975 1.01-.09 1.485.362 2.244.949 3.357 3.945 4.876 9.335 6.254 14.246 4.637-2.85 8.28-6.795 13.844-7.94l-.818 1.575c-1.453 4.495-.912 9.065-.231 13.65 2.083-1.684 4.24-3.446 5.963-5.504.398-.404.389-.484.943-.522 1.832.836 2.781 2.626 3.466 4.432 1.376 3.62 1.703 7.372 2.379 11.14 3.58-1.34 7.057-2.363 10.891-1.795.676.327 1.196.574 1.695 1.144-.174.872-1.599 1.908-2.142 2.678-1.37 1.939-4.219 7.23-4.537 9.536 1.889-.521 3.316-1.18 4.928-2.299l.844-.745.307.038c.99 1.61.404 4.494-.011 6.253-1.101 4.667-3.108 9.133-5.062 13.492 3.35-.707 7.662-1.172 10.698.788.712.46 1.257 1.045 1.756 1.722-3.705 2.598-5.919 6.885-8.048 10.771 2.652 1.63 5.564 3.41 8.799 2.83-.502 6.997-5.589 12.497-10.224 17.358l-1.888 1.791-2.618-.858-.722-.154-1.099 14.637c-.147 1.774-.129 3.806-.519 5.531a414 414 0 0 1-.949 9.759l-.114 1-.377 3.334c3.54-1.787 8.057-1.371 11.713-.162a28 28 0 0 1 1.342.492q.334.13.663.27t.656.286a32 32 0 0 1 1.289.621 29 29 0 0 1 1.255.683 29 29 0 0 1 1.223.743 31 31 0 0 1 1.762 1.225q.283.216.565.437.28.222.555.451a27 27 0 0 1 1.079.941q.262.241.521.49.256.247.507.502a30 30 0 0 1 1.452 1.58 30 30 0 0 1 1.331 1.683 31 31 0 0 1 .816 1.174 29 29 0 0 1 .759 1.212 26 26 0 0 1 .698 1.248q.168.316.327.637c2.765 5.538 4.367 11.402 2.312 17.417l-.1.291c4.995 2.56 10.014 7.893 11.747 13.298 1.783 5.565.696 12.713-1.98 17.832-.851 1.629-1.889 2.934-3.206 4.207 4.098 3.671 6.101 10.052 6.445 15.398.192 2.988-.541 6.807-1.782 9.531-.432 1.242-1.136 2.234-1.926 3.27l.545.345c.978.272 2.184.427 2.973 1.075.183.452.26.663.092 1.137-.593 1.655-2.34 2.874-3.054 4.597a20.7 20.7 0 0 1 1.433 4.662q.146.801.227 1.612c.166.676.308 1.339.404 2.028l.366 2.192c-1.601-1.354-8.967-8.04-10.367-8.495-1.052 1.84-1.978 3.767-3.056 5.586l-.995 1.934a159 159 0 0 0-2.82-3.751c-1.645.085-3.632.057-5.194-.5-.541-.194-1.526-.783-2.05-.826-.646-.053-1.769.495-2.486.582-.716.089-1.665-.201-2.374-.342-.22.242-.27.281-.589.412l-.29-.629c-2.539-1.105-4.247-2.215-5.902-4.486q-.384-.087-.763-.19c-2.605-.72-4.297-2.205-5.621-4.5-.866.336-1.706.637-2.611.86-.408-1.438.909-10.732 1.435-12.394-1.97-1.756-3.163-4.273-3.719-6.819-.776-3.562-.547-6.94 1.503-10.049 2.186-3.317 5.106-4.283 8.779-5.067-.587-1.991-.719-4.019-.935-6.072-4.998-.657-8.871-2.105-13.084-4.903-.353 3.139-.859 6.293-1.635 9.357-.698 2.748-1.665 5.54-2.073 8.343.441.521 1.132 1.183 1.403 1.804 1.579 3.606-.009 24.458-.096 29.362 1.874 2.425 4.701 5.555 4.325 8.831-.109.964-.521 1.778-1.049 2.58.565 2.664 1.337 5.327-.253 7.805q-.207.318-.429.626c.798 3.433 1.225 6.637-.41 9.898q-.054.111-.107.225c-.21 2.467-.683 4.834-1.252 7.242 1.524 1.47 3.11 3.793 3.175 5.974.013.408-.021.818-.052 1.224 1.924-.011 3.78.373 5.689.528 3.555.604 6.574 1.384 8.814 4.493 1.376 1.911 2.118 4.484 2.436 6.788.127 1.036.227 2.055.275 3.099.297 3.959.288 8.509-.722 12.366h-76.979c-.371-3.94-1.259-9.055-.103-12.887-.569-.351-1.147-.698-1.618-1.174-1.47-1.485-1.256-3.564-1.241-5.481q-.33-.334-.642-.685c-1.048-1.197-1.418-2.836-1.285-4.399.275-3.231 2.863-7.827 5.283-9.944-.458-1.77-.224-3.613-.663-5.388-.584-2.364-3.072-4.365-4.259-6.516l-.103-.191c-.592-.712-1.81-.869-2.677-.978-.681.075-1.358.134-2.022.308-1.475 2.622-4.243 5.213-4.83 8.066-.326 1.586-.241 3.226-.455 4.825 2.326 2.726 5.438 7.089 5.173 10.871-.114 1.64-.819 2.905-1.948 4.057-.009 1.885.193 4.064-1.297 5.493-.453.434-.986.772-1.515 1.105.927 4.081.228 8.764-.185 12.898l-76.893-.011c-1.03-3.49-.913-7.168-.986-10.775.108-1.014.13-2.053.192-3.071.264-2.679.882-5.582 2.347-7.883 1.83-2.875 4.476-4.064 7.669-4.764 2.212-.537 4.946-.776 7.217-.726a8 8 0 0 1-.052-.628c-.08-2.262 1.492-4.928 2.989-6.525l-.51-.342c-1.361-2.546-1.945-7.156-.972-9.924.411-1.17 1.353-2.09 1.727-3.298.452-1.458.55-3.148.746-4.664l-2.614.79a20 20 0 0 1-.505-.773c-1.464-2.39-.72-5.088-.144-7.623-.492-.77-.896-1.52-1.053-2.43-.571-3.313 2.538-6.646 4.362-9.119-.298-5.521-1.654-24.847-.201-29.054.253-.735 1.029-1.497 1.526-2.094-1.577-5.687-3.235-11.809-3.785-17.683-3.118 2.958-8.998 4.692-13.228 4.89-.065 2.157-.218 4.118-.775 6.206 3.371.527 6.321 1.696 8.413 4.534 2.022 2.744 2.621 5.968 2.085 9.299-.283 1.756-.752 3.533-1.638 5.089a22 22 0 0 1-1.542 2.309q.633 5.17.828 10.376l-2.093-.761c-.564 2.511-1.369 4.428-3.621 5.894-1.078.702-2.202 1.082-3.447 1.378l-.188.323-.204-.046.019.264c-1.94 2.408-4.698 4.09-7.818 4.422-1.304.139-2.219.017-3.353-.633-2.929 1.544-5.793 1.643-9.028 1.278l-.167.12c-.196.312-.354.528-.644.761-.644-.237-.988-1.288-1.295-1.893-1.787-1.103-3.249-2.537-4.67-4.066-2.734 2.326-5.46 4.867-8.35 6.989-.191-.41-.029-.905.027-1.352a80 80 0 0 1 1.58-7.586c.157-.328.36-.692.455-1.041.144-.536-.157-.994-.398-1.451-1.011-1.275-2.039-2.536-2.933-3.899.591-.947 1.415-1.091 2.405-1.423-1.595-3.404-2.286-6.94-2.105-10.685.266-5.486 2.062-11.629 6.246-15.428-1.326-1.305-2.4-2.618-3.253-4.282-2.595-5.067-3.701-12.202-1.923-17.696 1.767-5.464 6.709-10.766 11.772-13.353-.06-.166-.122-.33-.175-.498-1.966-6.157-.26-12.146 2.659-17.739 3.482-6.671 9.737-12.062 16.95-14.278 3.987-1.224 8.197-1.353 11.942.63l-.396-4.689c-4.062-.193-9.749-.581-12.958-3.218-3.61-2.968-6.957-8.492-7.451-13.182-.465-2.62.3-5.169 1.489-7.483.994-1.862 2.386-4.386 4.067-5.666 3.12-2.375 9.69-.938 13.356-.405l.483.221c.071.012.142.031.215.036 1.075.083 7.734-5.005 9.106-6.013.791-.517 1.545-1.169 2.296-1.745l.396-.385c.038-.131.135-.258.114-.393-.069-.431-1.565-2.967-1.865-3.77-1.532-4.091-1.877-8.356-2.007-12.682.075-2.99.323-5.904.721-8.868-2.624-2.93-4.494-7.11-5.339-10.908-1.904-.847-3.943-1.835-5.567-3.152-.922-4.619-.346-5.439-.286-9.766l.002-.217c1.638-5.605 3.481-13.292 2.678-19.073-.165-1.185-.93-2.45-1.292-3.617.561-.613 1.79-.672 2.58-.75 4.494.172 9.128 2.206 12.863 4.635.357.185 3.186-2.705 3.651-3.14 6.68-6.232 16.929-15.52 26.353-16.16-.358 1.692-.389 3.16-.246 4.882.444 1.882 1.017 3.521 1.917 5.234 1.337-1.372 3.243-2.479 4.725-3.738 3.811-3.237 7.131-6.98 7.55-12.142 1.817.694 3.099 1.573 4.549 2.857 1.746 1.82 4.291 4.345 5.151 6.75"/><path fill="#aca595" d="M249.96 183.451c.184.297.375.588.445.938.661 3.324-1.352 18.31-2.033 22.404a229 229 0 0 1-2.203 11.966c-.353 3.139-.859 6.293-1.635 9.357-.698 2.748-1.665 5.54-2.073 8.343.441.521 1.132 1.183 1.403 1.804 1.579 3.606-.009 24.458-.096 29.362 1.874 2.425 4.701 5.555 4.325 8.831-.109.964-.521 1.778-1.049 2.58.565 2.664 1.337 5.327-.253 7.805q-.207.317-.428.626c.797 3.433 1.224 6.637-.41 9.898q-.055.111-.108.225c-.21 2.467-.683 4.834-1.252 7.242 1.524 1.47 3.11 3.793 3.175 5.974.013.408-.021.818-.052 1.224 1.924-.011 3.78.373 5.689.528 3.555.604 6.574 1.384 8.814 4.493 1.376 1.911 2.118 4.484 2.436 6.788.127 1.036.227 2.056.275 3.099.297 3.959.288 8.509-.722 12.366h-76.979c-.371-3.94-1.259-9.055-.103-12.887-.569-.351-1.147-.698-1.618-1.174-1.47-1.485-1.256-3.564-1.241-5.481q-.33-.334-.642-.685c-1.048-1.197-1.418-2.836-1.285-4.399.275-3.231 2.864-7.827 5.283-9.944-.458-1.77-.224-3.613-.663-5.388-.584-2.363-3.072-4.365-4.259-6.516l-.103-.191c-.592-.712-1.81-.869-2.677-.978-.68.075-1.358.134-2.022.308-1.475 2.622-4.243 5.213-4.83 8.066-.326 1.586-.241 3.226-.455 4.825 2.326 2.726 5.438 7.089 5.173 10.871-.114 1.64-.819 2.905-1.948 4.057-.009 1.885.193 4.064-1.297 5.493-.453.434-.986.772-1.514 1.105.926 4.081.227 8.764-.186 12.898l-76.893-.011c-1.03-3.49-.913-7.168-.986-10.775.108-1.014.13-2.053.193-3.071.263-2.679.88-5.582 2.346-7.883 1.83-2.875 4.476-4.064 7.669-4.764 2.212-.537 4.946-.776 7.217-.726a8 8 0 0 1-.052-.628c-.08-2.262 1.492-4.928 2.989-6.525l-.51-.342c-1.361-2.546-1.945-7.155-.972-9.924.411-1.17 1.353-2.09 1.727-3.298.452-1.458.55-3.148.746-4.664l-2.614.79a19 19 0 0 1-.504-.773c-1.465-2.39-.721-5.088-.145-7.623-.492-.77-.895-1.52-1.053-2.43-.571-3.313 2.538-6.646 4.362-9.119-.298-5.521-1.654-24.847-.201-29.054.253-.735 1.029-1.497 1.526-2.094-1.577-5.687-3.235-11.809-3.785-17.683a202 202 0 0 1-1.847-9.776 67 67 0 0 1-.246-1.418c-.684-4.195-2.751-19.775-2.077-23.097.069-.339.265-.596.463-.869.423.398.734.757 1.064 1.237 2.225 2.675 4.68 4.972 7.578 6.915 2.612 1.644 5.158 2.982 8.125 3.876 3.691.837 12.553.318 16.865.371l3.91.008 3.012.009c19.368.101 38.72.569 58.089.362l5.115-.076c.715-.017 1.437-.057 2.151-.046 2.041-.211 4.148-.159 6.199-.251 3.603-.159 7.082-.556 10.62-1.284l.247-.049c7.234-1.535 12.759-4.925 16.79-11.148"/><path fill="#e4e1d7" d="m143.827 195.925 3.91.008 3.012.009c19.368.101 38.72.569 58.089.362l5.115-.076c.715-.017 1.437-.057 2.151-.046a23 23 0 0 1-2.145 2.448q.982.284 1.992.429 1.01.147 2.031.159c.002 3.216 1.452 13.531 3.73 15.86.233.236.314.292.645.358.185-.925-.345-2.574-.506-3.545-.497-2.995-1.54-9.617-.683-12.394.332-.13.598-.187.954-.218 2.255.312 4.484.21 6.742.007-.609 8.681 2.12 17.317 4.84 25.439 1.263 3.77 2.602 7.659 4.316 11.253 1.065 2.24 4.356 7.29 4.793 9.164.244 1.045-.282 2.189-.664 3.151-2.767 6.972-6.404 8.996-10.184 14.73 2.897 1.377 5.798 2.716 8.531 4.406.072 1.878.013 3.739-.054 5.617-4.932-2.967-10.671-5.418-16.261-6.832-2.395-.606-4.829-.964-7.248-1.446 8.556 3.846 16.25 8.167 24.303 12.937.384 1.333.589 2.746.852 4.109-3.433-1.69-7.145-2.815-10.733-4.111-2.103-.761-4.143-1.689-6.236-2.482-5.491-2.075-12.616-4.376-18.303-5.6-12.045-2.593-25.656-2.955-37.904-1.864-4.892.436-9.775.924-14.57 2.026-7.812 1.799-15.383 4.714-22.847 7.577-3.902 1.497-7.824 2.738-11.652 4.457.25-1.383.521-2.751.851-4.119 7.909-4.663 15.687-9.104 24.106-12.821a61 61 0 0 0-9.113 1.952q-.745.221-1.486.459-.74.239-1.473.497-.733.257-1.461.532a65 65 0 0 0-4.293 1.821 64 64 0 0 0-2.781 1.39q-.686.366-1.363.748-.677.384-1.343.783a89 89 0 0 1-.055-5.619c2.715-1.719 5.641-3.034 8.537-4.415-3.803-5.845-9.915-10.216-10.955-17.648-.228-1.629-.06-3.416-.02-5.06 5.018-7.744 10.112-23.331 11.319-32.699.384-2.979.366-6.051.449-9.05 1.933.644 3.723.877 5.752.967.194 5.44-1.246 11.329-2.244 16.671 3.596-5.794 3.892-10.313 4.569-16.824 2.479-.083 5.186.048 7.614-.441-.977-.949-1.861-1.888-2.626-3.016"/><path fill="#b3813d" d="M150.749 195.942c19.368.102 38.72.569 58.089.362-3.514 2.299-9.181 5.592-13.203 6.384-8.155 3.049-15.683 4.664-24.263 2.116-6.825-1.2-14.953-4.923-20.623-8.862"/><path fill="#e5b988" d="M160.676 199.423c13.47 1.095 27.22.851 40.696-.019-1.824 1.265-3.817 2.185-5.737 3.283-8.155 3.049-15.683 4.665-24.263 2.116-3.623-1.767-7.405-2.961-10.696-5.38"/><path fill="#7d7666" d="m147.736 195.933 3.013.009c5.67 3.939 13.798 7.662 20.623 8.862 8.58 2.548 16.108.933 24.263-2.116 4.021-.792 9.689-4.085 13.203-6.384l5.115-.076c-.973 1.095-1.947 2.185-3.043 3.16-7.149 6.363-22.566 10.577-31.999 9.994-7.322-.451-18.541-3.524-24.723-7.59-2.524-1.658-4.467-3.614-6.452-5.859"/><path fill="#514f44" d="m143.826 195.925 3.911.008c1.984 2.245 3.928 4.201 6.451 5.859 6.182 4.066 17.401 7.139 24.723 7.589 9.433.584 24.851-3.63 31.999-9.993 1.097-.975 2.07-2.065 3.043-3.16.715-.017 1.437-.057 2.151-.046a23 23 0 0 1-2.146 2.448c-3.063 2.944-6.274 5.374-10.102 7.261-6.648 3.276-17.061 5.294-24.416 5.134-7.175-.155-16.416-1.891-22.938-5.001a37 37 0 0 1-1.38-.692 38 38 0 0 1-2.666-1.559q-.65-.417-1.28-.862a37 37 0 0 1-2.446-1.885 39 39 0 0 1-1.161-1.018 39 39 0 0 1-1.116-1.067c-.977-.949-1.861-1.888-2.627-3.016"/><path fill="#b53925" d="M159.987 242.034c-2.089-4.759-2.626-9.568-.685-14.494 2.046-5.193 6.272-9.165 11.352-11.364a29 29 0 0 1 1.16-.462 24 24 0 0 1 1.181-.406 24 24 0 0 1 1.199-.347q.303-.08.606-.152.304-.072.61-.134a25 25 0 0 1 1.845-.32 26 26 0 0 1 1.864-.185 26 26 0 0 1 1.872-.044 33 33 0 0 1 1.248.044 33 33 0 0 1 1.244.108 26 26 0 0 1 3.679.683 23 23 0 0 1 1.201.347 26 26 0 0 1 1.763.63c5.134 2.072 9.601 5.972 11.78 11.125a16 16 0 0 1 .323.828 17 17 0 0 1 .624 2.127 16 16 0 0 1 .247 1.307 22 22 0 0 1 .109.881 23 23 0 0 1 .065.885 16 16 0 0 1 .02.888q0 .221-.005.443a22 22 0 0 1-.085 1.328 21 21 0 0 1-.185 1.318 17 17 0 0 1-.399 1.729q-.06.214-.125.426-.067.213-.139.421a16 16 0 0 1-.473 1.245c-.315.762-.705 1.497-1.089 2.227-.958 1.414-1.924 2.781-3.148 3.977-4.445 4.292-10.256 6.587-16.422 6.72-6.694.144-12.872-2.264-17.678-6.904-1.428-1.518-2.52-3.068-3.559-4.875"/><path fill="#e4e1d7" d="m180.43 218.039.264.015c1.302.099 2.412 1.004 3.217 1.992 1.771 2.172 2.041 4.384 1.749 7.067 1.928.065 3.595.766 5.054 2.02a10 10 0 0 1 .753.713 10 10 0 0 1 .986 1.2q.15.213.288.43.14.22.264.447a10 10 0 0 1 .975 2.394q.07.25.122.504.055.254.096.509.043.257.071.514.029.258.044.517c.197 2.786-.545 5.53-2.419 7.654-2.271 2.576-4.955 3.335-8.288 3.521-.592-.02-1.176-.048-1.746-.223-.518-.157-1.1-.578-1.278-1.116-.155-.47-.063-.559.165-.96 1.296-.905 3.229-.777 4.754-.809 1.605-.978 2.794-2.129 3.634-3.822 1.069-2.157 1.363-5.085.576-7.388-.373-1.095-1.082-2.026-2.144-2.526-1.333-.626-3.264-.564-4.619-.022l-.327.136c-.604-1.174.666-5.122.436-6.804-.239-1.749-2.148-2.92-2.787-4.517-.239-.597-.05-.887.16-1.446"/><path fill="#e4e1d7" d="M178.068 221.076c.288.051.586.105.863.203.771.273 1.132.814 1.424 1.544 2.904 7.244-6.865 8.577-8.201 12.1-1.084 2.861.343 6.175 2.519 8.105.867.768 2.716 1.608 3.191 2.628l-.786.69c-.197.08-.331.142-.548.187-1.009.203-2.3-.218-3.137-.772-2.705-1.791-3.96-5.461-4.513-8.496-1.68-9.217 4.659-6.059 8.032-10.677 1.284-1.756.046-3.893 1.156-5.512"/><path fill="#e4e1d7" d="M181.934 232.933c.532-.055 1.338-.223 1.842.022.408.198.417.364.495.761-.6 1.182-2.665 1.76-3.768 2.51l-.201.14c1.451.423 2.849.883 3.763 2.188.414.593.592 1.262.434 1.974-.241 1.094-1.121 1.657-1.982 2.253-.257.12-.256.128-.563.235-.988.341-2.314.334-3.25-.163-.98-.519-1.614-1.457-1.915-2.507-.435-1.518-.113-3.112.704-4.442 1.054-1.715 2.528-2.518 4.441-2.971"/><path fill="#b53925" d="M179.076 239.205c.722.072 1.732.096 2.338.526.31.22.237.241.295.586-.628.225-.98.371-1.664.212-.537-.365-.701-.744-.969-1.324"/><path fill="#e4e1d7" d="M166.025 234.06c.233.1.415.24.622.384.415.988-.221 3.087-.151 4.243.096 1.579 1.754 4.028 1.331 5.481l-.435.019c-1.696-1.437-2.627-3.681-2.774-5.882-.112-1.669.283-3.006 1.407-4.245m30.068-4.148c.196.078.308.115.5.226.828.485 1.315 1.512 1.555 2.406.434 1.625.222 3.159-.617 4.596-.413.094-.221.111-.578-.013-.123-.212-.238-.397-.295-.639-.142-.598-.984-5.717-.905-5.988.063-.218.225-.392.34-.588"/><path fill="#7d7666" d="M139.251 221.277c.226.121.396.28.591.445.035 1.228-3.73 9.345-4.449 11.057l3.542-1.505c.458-1.178 1.078-3.374 1.997-4.232.342-.322.42-.325.847-.285.316 1.012-.576 2.702-.951 3.701 1.16-.517 2.362-1.123 3.601-1.426.447-.109.959-.293 1.366-.061-.685 1.428-4.151 2.595-5.575 3.252l-1.295 3.765a143 143 0 0 1 6.727-2.627c.555-.203.841-.218 1.372.038l.067.27c-.968 1.483-6.914 3.601-8.939 4.509-1.471 4.283-3.042 10.341-5.328 14.057.347-4.48 1.954-8.858 3.364-13.095-1.313.602-2.587 1.302-3.867 1.971-1.738 4.228-2.629 11.713-4.953 15.164.245-4.759 1.522-9.442 2.881-13.988-2.505 1.656-4.998 3.472-7.696 4.796 2.338-3.01 5.186-5.173 8.431-7.123l1.489-4.106c-3.504 1.543-6.879 3.658-10.516 4.852 3.226-3.231 7.263-5.026 11.332-6.954 1.405-3.302 3.802-9.966 5.962-12.475"/><path fill="#e4e1d7" d="m137.964 233.286.098.115c-.026 1.063-.739 2.483-1.107 3.504l-3.554 1.76-.132-.146c.209-1.218.839-2.483 1.29-3.637a170 170 0 0 1 3.405-1.596"/><path fill="#7d7666" d="m222.298 242.721.559.31c1.012 1.622 1.042 4.848 1.372 6.742 1.049-.425 2.131-.788 3.197-1.174-.072-1.051-.211-2.224-.004-3.263.094-.469.22-.598.611-.844l.229.186c.371.987.259 2.425.347 3.503 1.991-.77 4.103-1.455 6.153-2.06.526-.157.958-.298 1.457-.023l.065.372c-.715.945-6.1 2.422-7.497 2.925.195 1.242.264 2.517.367 3.772a65 65 0 0 1 5.326-1.933c1.004-.309 3.021-1.169 3.955-.674l.102.336c-.573.888-7.749 3.132-9.35 3.813.03 3.529-.029 6.952-1.333 10.273l-.011-.141c-.142-2.035.356-8.232-.091-9.556l-3.15 1.391a35 35 0 0 1-.441 4.317c-.382-1.245-.46-2.546-.589-3.835-3.867 1.623-7.606 3.072-11.726 3.937 3.641-2.133 7.774-3.734 11.613-5.496-.066-1.377-.196-2.757-.297-4.132-4.43 1.807-8.923 4.095-13.482 5.502 4.086-2.825 8.721-4.827 13.288-6.727-.319-2.153-1.256-5.462-.67-7.521"/><path fill="#e4e1d7" d="M227.389 249.886c.487.589.395 2.952.434 3.806l-3.082 1.331c-.261-1.265-.242-2.679-.388-3.978z"/><path fill="#aca595" d="M163.546 246.908a91 91 0 0 0-9.61 1.583c-2.624.578-6.008 1.915-8.698 1.719-.458-.033-.807-.12-1.126-.469-.059-.499-.017-.744.255-1.18.477-.763 1.362-1.381 2.147-1.788 1.074-.553 2.276-.886 3.404-1.32 3.329-1.279 6.572-2.644 10.069-3.42 1.039 1.808 2.131 3.357 3.559 4.875m37.248-3.793c2.995.405 12.175 2.294 14.001 4.528.236.29.323.539.386.911-.225.437-.26.533-.763.69-1.44.451-14.049-1.929-16.772-2.151 1.224-1.197 2.19-2.563 3.148-3.978"/><path fill="#31421d" d="M116.316 286.673c3.293-.966 6.718-1.468 10.026-2.388 2.622-.729 5.204-1.645 7.81-2.441a308 308 0 0 1 13.804-3.859c5.381 3.154 11.717 5.621 17.497 7.986 1.92.785 3.976 1.472 5.843 2.368 2.806 1.015 6.029 1.874 8.625 3.322-.68.075-1.358.134-2.022.308-1.475 2.622-4.243 5.213-4.83 8.066-.326 1.586-.241 3.226-.455 4.825 2.326 2.726 5.438 7.089 5.173 10.871-.114 1.64-.819 2.905-1.948 4.057-.009 1.885.193 4.064-1.297 5.493-.453.434-.986.772-1.514 1.105.926 4.081.227 8.764-.186 12.898l-76.893-.011c-1.03-3.49-.913-7.168-.986-10.775.108-1.014.13-2.053.193-3.071.263-2.679.88-5.582 2.346-7.883 1.83-2.875 4.476-4.064 7.669-4.764 2.212-.537 4.946-.775 7.217-.726a8 8 0 0 1-.052-.627c-.08-2.263 1.492-4.929 2.989-6.526l-.51-.342c-1.361-2.546-1.945-7.155-.972-9.923.411-1.171 1.353-2.091 1.727-3.298.452-1.459.55-3.149.746-4.665"/><path fill="#687387" d="M105.171 312.78c2.212-.537 4.946-.776 7.217-.726.22.586.366 1.184.866 1.594 1.604.602 3.654.114 5.358.43 5.792 1.073 12.064 2.556 17.581 4.624 3.037 1.138 6.26 2.474 9.035 4.153 3.232 1.956 5.603 4.602 9.361 5.641 5.903 1.044 12.947.209 18.439-2.11.926 4.081.227 8.764-.186 12.898l-76.893-.011c-1.03-3.49-.913-7.168-.986-10.775.108-1.014.13-2.053.193-3.071.263-2.679.88-5.582 2.346-7.883 1.83-2.875 4.476-4.064 7.669-4.764"/><path fill="#515a6e" d="M173.028 326.385c.926 4.081.227 8.764-.186 12.898l-76.893-.011c-1.03-3.49-.913-7.168-.986-10.775 3.315 1.156 6.746 2.301 10.25 2.683 3.762.412 7.659.344 11.441.373 7.805.06 15.738-.064 23.51-.871 2.901-.301 5.769-.91 8.657-1.311 1.81-.253 4.079-.185 5.768-.875 5.903 1.043 12.947.208 18.439-2.111"/><path fill="#788195" d="M95.155 325.426c.264-2.679.882-5.582 2.346-7.883 1.831-2.875 4.477-4.064 7.669-4.764l.168.052c1.457.43 2.974.587 4.442.975 2.741.723 5.73 2.612 7.127 5.159.475.868.7 1.867.41 2.833-.44 1.468-1.912 2.483-3.222 3.117-4.942 2.385-13.579 1.121-18.94.511"/><path fill="#8b291a" d="M116.316 286.673c3.293-.966 6.718-1.468 10.026-2.388 2.622-.729 5.204-1.645 7.81-2.441a308 308 0 0 1 13.804-3.859c5.381 3.154 11.717 5.621 17.497 7.986 1.92.785 3.976 1.472 5.843 2.368-.842.932-1.667 1.9-2.563 2.782-1.925 1.753-4.057 3.575-6.445 4.665a26 26 0 0 1-2.453 1.457c-12.496 5.593-25.511 7.558-39.12 7.946-1.8-.046-3.594-.172-5.39-.288l-.51-.342c-1.361-2.546-1.945-7.155-.972-9.923.411-1.171 1.353-2.091 1.727-3.298.452-1.459.55-3.149.746-4.665"/><path fill="#b53925" d="M152.608 283.983c5.302 2.587 10.513 5.276 16.125 7.137-1.925 1.753-4.057 3.575-6.446 4.665-2.908.497-5.801 1.573-8.683 2.251-7.483 1.76-20.414 4.157-27.915 3.893-1.907-.069-3.775-.462-5.65-.787-.979-2.79-.655-5.612-.455-8.5 2.191-.09 4.416-.539 6.592-.816 9.582-1.219 17.968-2.907 26.432-7.843m-6.88-3.813c.799.303 1.522.822 2.246 1.274-6.595 3.657-14.885 5.258-22.324 6.122-.667.125-1.406.336-2.084.288.182-.168.344-.325.575-.427.805-.351 1.775-.539 2.62-.812l6.399-2.098c4.206-1.398 8.321-3.084 12.568-4.347"/><path fill="#48652c" d="M159.835 297.243c-.958.958-2.223 1.698-3.353 2.443-5.912 3.892-12.06 6.553-18.592 9.212-3.223 1.311-6.437 2.663-9.725 3.806 3.36-.356 6.756-.55 10.1-1.029 11.539-1.649 17.688-6.119 26.868-12.689-.65 2.792-1.391 6.666.239 9.24.524.827 1.39 1.481 2.127 2.116.488 2.113 1.066 4.137 1.837 6.162-5.455.768-10.961.493-16.451.419-3.478-.048-6.952.063-10.428-.088 2.397.908 4.786 1.845 7.265 2.511 6.631 1.784 14.35 2.373 21.089 1.132-5.527 3.459-11.542 5.198-17.955 6.103-10.429-6.908-19.829-14.789-32.936-15.543.03-1.996.255-3.922.794-5.85 13.609-.387 26.625-2.352 39.121-7.945"/><path fill="#515a6e" d="M182.598 292.638c1.524-.077 12.005 3.359 14.44 3.96 13.659 3.36 28.296 5.584 42.289 3.032 2.081-.381 4.838-.7 6.518-2.041-.21 2.467-.683 4.835-1.252 7.243 1.524 1.469 3.11 3.792 3.175 5.973.013.408-.021.818-.052 1.225 1.924-.012 3.78.373 5.689.528 3.555.603 6.574 1.383 8.814 4.492 1.376 1.912 2.118 4.484 2.436 6.788.127 1.036.227 2.056.275 3.099.297 3.959.288 8.509-.722 12.367h-76.979c-.371-3.941-1.259-9.056-.103-12.888-.569-.351-1.147-.698-1.618-1.174-1.47-1.485-1.256-3.564-1.241-5.481q-.33-.334-.642-.685c-1.048-1.196-1.418-2.836-1.285-4.398.275-3.232 2.863-7.828 5.283-9.944-.458-1.771-.224-3.614-.663-5.389-.584-2.363-3.072-4.365-4.259-6.516z"/><path fill="#31421d" d="M182.598 292.638c1.524-.077 12.005 3.359 14.44 3.96 13.659 3.36 28.296 5.584 42.289 3.032 2.081-.381 4.838-.7 6.518-2.041-.21 2.467-.683 4.835-1.252 7.243 1.524 1.469 3.11 3.792 3.175 5.973.013.408-.021.818-.052 1.225-.203.517-.44 1.399-.96 1.641-.99.462-2.827.246-3.921.275-3.34.089-13.613 2.944-17.189 4.118-3.644 1.199-7.568 2.899-10.884 4.835-5.189 3.03-6.5 6.077-13.222 5.949-5.074-.005-9.707-.458-14.414-2.432-.569-.351-1.147-.698-1.618-1.174-1.47-1.485-1.256-3.564-1.241-5.481q-.33-.334-.642-.685c-1.048-1.196-1.418-2.836-1.285-4.398.275-3.232 2.863-7.828 5.283-9.944-.458-1.771-.224-3.614-.663-5.389-.584-2.363-3.072-4.365-4.259-6.516z"/><path fill="#48652c" d="M191.724 297.399c4.121 1.045 8.158 2.496 12.263 3.621 13.788 3.774 23.71 4.022 37.775 1.555-.631 3.647-.591 4.972 1.465 8.193-2.002.076-4.004-.015-6.002.175-12.268 1.178-21.673 6.45-31.671 13.307a181 181 0 0 0-8.315-1.934 20 20 0 0 1-2.068-.537 21 21 0 0 1-2.002-.753c-1.547-.66-3.66-1.59-4.265-3.289-.611-1.721.223-3.739.973-5.287 4.214 4.762 8.587 4.042 14.333 4.604a38 38 0 0 1-4.963-2.499 41 41 0 0 1-1.566-.991 39 39 0 0 1-2.979-2.207 40 40 0 0 1-2.748-2.487c.541-.927 1.062-1.784 1.76-2.604.995.905 1.985 1.83 3.027 2.679 6.745 5.503 12.978 3.378 20.824 2.589-2.831-.478-5.544-1.348-8.28-2.193-2.268-.7-4.669-1.284-6.822-2.292-3.818-1.788-8.099-6.378-10.739-9.65"/><path fill="#687387" d="M247.716 312.03c1.924-.012 3.78.373 5.69.528 3.554.603 6.573 1.383 8.813 4.492 1.376 1.912 2.118 4.484 2.436 6.788.127 1.036.227 2.056.275 3.099-4.928.872-9.826 2.231-14.789 2.825-11.927 1.43-24.139.75-36.107.194-4.141-.192-8.346-.046-12.449-.703l-.224-.189.179-.216c6.722.128 8.033-2.919 13.222-5.949 3.316-1.936 7.24-3.636 10.884-4.835 3.577-1.174 13.849-4.029 17.19-4.118 1.093-.029 2.93.187 3.92-.275.521-.242.757-1.124.96-1.641"/><path fill="#788195" d="M253.405 312.558c3.555.604 6.574 1.383 8.814 4.493 1.376 1.911 2.118 4.483 2.436 6.788a1 1 0 0 1-.408.4c-.519.285-1.391.418-1.971.567-4.108 1.055-12.117 2.292-16.159.837-1.346-.486-2.633-1.381-3.237-2.718a5 5 0 0 1-.155-.392 3 3 0 0 1-.061-.201 4 4 0 0 1-.054-.203 5 5 0 0 1-.092-.624 3 3 0 0 1-.011-.211v-.21a5 5 0 0 1 .033-.42q.013-.105.031-.208a5 5 0 0 1 .095-.41q.029-.102.064-.201.033-.1.072-.198c1.513-3.786 7.198-5.551 10.603-7.089"/><path fill="#514f44" d="M147.956 277.985c7.881-1.902 15.677-2.988 23.75-3.671 2.777-.237 5.602-.56 8.388-.554 2.788.005 5.614.327 8.391.563 7.238.619 14.368 1.494 21.453 3.135 7.88 1.829 15.528 4.316 23.256 6.668 4.334 1.319 8.897 1.793 13.168 3.341.798 3.433 1.225 6.637-.41 9.898q-.054.111-.107.225c-1.68 1.341-4.437 1.66-6.518 2.04-13.994 2.552-28.63.329-42.289-3.032-2.435-.6-12.916-4.036-14.44-3.959-.592-.713-1.81-.87-2.677-.978-2.596-1.448-5.819-2.307-8.625-3.322-1.867-.896-3.923-1.583-5.843-2.368-5.78-2.365-12.116-4.832-17.497-7.986"/><path fill="#7d7666" d="M179.71 276.624c13.833-.552 27.143 2.93 40.492 6.049q5.267 1.24 10.485 2.669c1.926.519 3.935.96 5.781 1.711.527.686 1.042 1.494 1.391 2.286.284.65.371 1.042.109 1.71-.325.242-.587.361-1.003.366-.884.013-1.848-.233-2.733-.336a74 74 0 0 0-4.337-.338c-5.117-.275-10.24-.153-15.349-.644.45.424 15.376 3.541 17.278 3.889 1.646.301 3.296.504 4.96.686l-1.167 2.242c-.116.026-.233.057-.349.08-2.703.519-5.881.868-8.625.805-2.412-.058-4.89-.499-7.281-.805a197 197 0 0 1-15.262-2.6 195 195 0 0 1-15.009-3.795c-4.242-1.23-8.391-2.761-12.641-3.967-5.179-1.471-18.426-4.972-22.379-7.622 3.408-.379 6.796-1.02 10.207-1.346 5.108-.49 10.305-.686 15.432-1.04m70.25-93.173c.184.297.374.588.445.938.661 3.324-1.352 18.31-2.034 22.404a227 227 0 0 1-2.203 11.966c-.352 3.139-.858 6.293-1.634 9.357-.698 2.748-1.665 5.54-2.073 8.343a26 26 0 0 1-2.166-3.178c-5.834-10.151-6.03-21.648-7.152-32.98.057-1.889.066-3.782-.22-5.653l.247-.049c7.233-1.535 12.758-4.925 16.79-11.148"/><path fill="#514f44" d="M249.96 183.451c.184.297.374.588.445.938.661 3.324-1.352 18.31-2.033 22.404a229 229 0 0 1-2.203 11.966c-.353 3.139-.859 6.293-1.635 9.357-.698 2.748-1.665 5.54-2.073 8.343a26 26 0 0 1-2.166-3.178c.166-1.959.659-3.965 1.002-5.902q.956-5.308 1.719-10.647c1.092-7.869 1.507-15.862 2.109-23.782-2.912 2.76-5.828 5.728-9.451 7.55-.611.307-1.58.803-2.271.571l-.26-.77c.057-1.889.066-3.782-.22-5.653l.247-.049c7.234-1.535 12.759-4.925 16.79-11.148m-139.765.076c.423.398.734.757 1.064 1.237 2.225 2.675 4.68 4.972 7.578 6.915 2.612 1.644 5.158 2.982 8.125 3.876-.001 1.243-.062 2.515-.001 3.752-.384 8.779-1.537 23.602-5.775 31.355-.992 1.971-2.026 4.043-3.499 5.708-1.577-5.687-3.235-11.809-3.785-17.683a202 202 0 0 1-1.847-9.776 67 67 0 0 1-.246-1.418c-.684-4.195-2.751-19.775-2.077-23.097.069-.339.265-.596.463-.869"/><path fill="#7d7666" d="M116.796 192.939c2.219 2.142 6.887 6.896 9.717 7.553.321-.292.343-.768.449-1.186-.385 8.779-1.538 23.602-5.776 31.356-1.03-5.862-2.054-11.741-2.724-17.656-.754-6.666-1.129-13.38-1.666-20.067"/><path fill="#cb985b" d="m173.29 38.791.332.28c1.274.055 14.481-7.489 16.458-8.668 1.852-1.103 3.921-2.846 5.932-3.538.157.055.245.073.384.19.772.65 1.132 2.23 1.344 3.185.674 4.063.39 8.159-.161 12.217-3.567 2.207-5.456 5.72-6.4 9.726-.227.969-.484 2.073-.345 3.067.626-.405 1.154-.916 1.704-1.416l.39.358c-.89 4.021.164 8.346.879 12.333l1.82-1.749c2.914-2.93 5.994-6.483 9.437-8.795-.065-3.53.867-6.23 2.585-9.277.351-.62 1.032-1.545 1.145-2.231.055-.328.055-.72.079-1.053.148.408.12 1.055.151 1.5 2.477-1.644 5.245-3.596 7.254-5.78.846-.918 1.44-2.166 2.369-2.975 1.01-.09 1.485.362 2.244.949 3.357 3.945 4.876 9.335 6.254 14.246 4.637-2.85 8.28-6.795 13.844-7.94l-.818 1.575c-1.453 4.495-.912 9.065-.231 13.65 2.083-1.684 4.24-3.446 5.963-5.504.399-.404.389-.484.943-.522 1.832.836 2.781 2.626 3.466 4.432 1.376 3.62 1.703 7.372 2.379 11.14 3.58-1.34 7.057-2.363 10.891-1.795.676.327 1.196.574 1.695 1.144-.174.872-1.599 1.908-2.142 2.678-1.37 1.939-4.219 7.23-4.537 9.536 1.889-.521 3.316-1.18 4.928-2.299l.844-.745.307.038c.99 1.61.404 4.494-.011 6.253-1.101 4.667-3.108 9.133-5.062 13.492 3.35-.707 7.662-1.172 10.698.788.712.46 1.257 1.045 1.756 1.722-3.705 2.598-5.919 6.885-8.048 10.771 2.652 1.63 5.564 3.41 8.799 2.83-.502 6.997-5.589 12.497-10.224 17.358l-1.888 1.791-2.618-.858-.722-.154-1.099 14.637c-.147 1.774-.129 3.806-.519 5.531-.009-.63.071-1.066-.352-1.55-.53-.094-.99.128-1.481.299.05-6.005.404-12.01.548-18.014-2.474-.576-9.272-1.913-10.85-3.693-.394-1.043.271-2.586.574-3.62-1.514-.556-2.214-1.631-2.897-3.058-.702-1.461-1.321-3.601-1.088-5.215.1-.685.449-1.316.43-2.02-.055-1.982-.321-3.974-.378-5.967-.091-3.14.131-6.241.351-9.371-2.091 1.513-5.346 3.783-8.113 3.364-.513-.078-.921-.294-1.213-.728-.277-.41-.245-.828-.218-1.308.111-1.907.512-3.824.763-5.718.393-2.959.648-6.088.628-9.069-.857.654-1.658 1.4-2.818 1.254-2.05-.257-5.724-5.663-6.988-7.397a48 48 0 0 1-1.676-2.512c-1.405 1.429-7.084 6.52-9 6.409-.196-.012-.207-.04-.338-.209-.815-1.054-.711-2.93-1.095-4.198-3.496 4.232-10.585 9.89-15.65 12.058-.61.26-1.339.65-2.002.72-.451.047-.74-.105-1.078-.401q-.11-.101-.216-.208c-3.097 2.366-8.113 10.134-12.409 9.608-.71-.088-1.076-.416-1.49-.98-1.919-2.606-3.163-6.976-5.191-9.992-.196 1.238-.304 2.983-1.456 3.756-.692.463-1.386.466-2.17.276-4.707-1.135-8.275-5.63-11.104-9.259-.859-1.102-1.812-2.212-2.511-3.422a12 12 0 0 1-.262-.47c-1.652 1.801-5.696 7.735-7.992 7.886-1.112.073-2.086-.605-2.862-1.328-2.876-2.678-4.848-6.346-5.998-10.083-3.061 1.561-6.102 5.386-7.14 8.644-.325 1.024-.495 2.698-1.088 3.555-.469.234-.794.315-1.302.164-1.226-.366-2.419-1.644-3.369-2.486.08 1.8.257 3.55.607 5.319.307 1.55.905 3.316.912 4.88.002.512-.112 1.078-.443 1.482-.741.906-2.206.915-3.268.904-2.032-.021-4.209.028-6.216-.282-.196 1.686-.441 3.397-.483 5.095-.109 4.422.449 9.805.927 14.226.197 1.817 1.576 4.411 1.073 6.134-.473 1.624-4.084 4.245-5.508 5.374-1.714 1.359-3.628 2.391-5.34 3.699.188 4.472.374 8.957.478 13.431.073 3.116-.003 6.218.299 9.326.494 5.093 2.842 14.718 4.928 19.533.711 1.641 1.658 3.16 2.645 4.646-1.69 1.094-3.173 2.917-4.59 4.37a7.2 7.2 0 0 0-1.064-1.237c-.198.273-.394.53-.463.869-.674 3.322 1.393 18.902 2.077 23.097q.115.711.246 1.418a202 202 0 0 0 1.847 9.776c-3.118 2.958-8.998 4.692-13.228 4.89-.065 2.157-.218 4.118-.775 6.206 3.371.527 6.321 1.696 8.413 4.534 2.022 2.744 2.621 5.968 2.085 9.299-.283 1.756-.752 3.533-1.638 5.089a22 22 0 0 1-1.542 2.309q.633 5.17.828 10.376l-2.093-.761c-.564 2.511-1.369 4.428-3.621 5.894-1.078.702-2.202 1.082-3.447 1.378l-.188.323-.204-.046.019.264c-1.94 2.408-4.698 4.09-7.818 4.422-1.304.139-2.219.017-3.353-.633-2.929 1.544-5.793 1.643-9.028 1.278l-.167.12c-.196.312-.354.528-.644.761-.644-.237-.988-1.288-1.295-1.893-1.787-1.103-3.249-2.537-4.67-4.066-2.734 2.326-5.46 4.867-8.35 6.989-.191-.41-.029-.905.027-1.352a80 80 0 0 1 1.58-7.586c.157-.328.36-.692.455-1.041.144-.536-.157-.994-.398-1.451-1.011-1.275-2.039-2.536-2.933-3.899.591-.947 1.415-1.091 2.405-1.423-1.595-3.404-2.286-6.94-2.105-10.685.266-5.486 2.062-11.629 6.246-15.428-1.326-1.305-2.4-2.618-3.253-4.282-2.595-5.067-3.701-12.202-1.923-17.696 1.767-5.464 6.71-10.766 11.772-13.353-.06-.166-.122-.33-.175-.498-1.966-6.157-.26-12.146 2.659-17.739 3.482-6.671 9.737-12.062 16.95-14.278 3.987-1.224 8.197-1.353 11.942.63l-.396-4.689c-4.062-.193-9.749-.581-12.958-3.218-3.61-2.968-6.957-8.492-7.451-13.182-.465-2.62.3-5.169 1.489-7.483.994-1.862 2.386-4.386 4.067-5.666 3.12-2.375 9.69-.938 13.356-.405l.483.221c.071.012.142.031.215.036 1.075.083 7.734-5.005 9.106-6.013.791-.517 1.545-1.169 2.296-1.745l.396-.385c.038-.131.135-.258.114-.393-.069-.431-1.565-2.967-1.865-3.77-1.532-4.091-1.877-8.356-2.007-12.682.075-2.99.323-5.904.721-8.868-2.624-2.93-4.494-7.11-5.339-10.908-1.904-.847-3.943-1.835-5.567-3.152-.922-4.619-.346-5.439-.286-9.766l.002-.217c1.638-5.605 3.481-13.292 2.678-19.073-.165-1.185-.93-2.45-1.292-3.617.561-.613 1.791-.672 2.58-.75 4.494.172 9.128 2.206 12.863 4.635.357.185 3.186-2.705 3.652-3.14 6.679-6.232 16.928-15.52 26.353-16.16-.359 1.692-.39 3.16-.247 4.882.444 1.882 1.017 3.521 1.917 5.234 1.337-1.372 3.243-2.479 4.725-3.738 3.811-3.237 7.131-6.98 7.55-12.142 1.817.694 3.099 1.573 4.549 2.857 1.746 1.82 4.291 4.345 5.151 6.75"/><path fill="#e5b988" d="M65.82 258.113c-1.03-6.869.572-15.127 3.663-21.317.591-1.183 2.059-2.398 2.265-3.713.348-2.218-8.38-9.556-3.048-22.907 1.038-2.6 2.634-4.943 4.492-7.026.967-1.084 1.997-2.159 3.106-3.097 1.042-.883 2.28-1.699 3.176-2.726.456-.522.735-1.026.87-1.704-.302-.621-1.192-.561-1.703-1.032-.516-.475-.615-1.189-.62-1.856-.047-6.136 4.87-12.288 8.933-16.417 5.464-5.552 11.959-8.272 19.729-8.35.235 3.336.919 10.794 2.452 13.507.268.475 1.082 1.562 1.06 2.051-.198.273-.394.531-.463.869-.674 3.323 1.393 18.902 2.077 23.098q.115.711.246 1.418a202 202 0 0 0 1.847 9.776c-3.118 2.958-8.998 4.692-13.228 4.89-.065 2.156-.218 4.117-.775 6.206 3.371.526 6.321 1.695 8.413 4.533 2.022 2.744 2.621 5.968 2.085 9.3-.283 1.756-.752 3.532-1.638 5.089a22 22 0 0 1-1.542 2.308q.633 5.17.828 10.376l-2.093-.761c-.564 2.512-1.369 4.428-3.621 5.895-1.078.701-2.202 1.082-3.447 1.377l-.188.323-.204-.046.019.264c-1.94 2.408-4.698 4.09-7.818 4.423-1.304.138-2.219.016-3.353-.634-2.929 1.544-5.793 1.644-9.028 1.278l-.167.12c-.196.312-.354.528-.644.761-.644-.236-.988-1.287-1.295-1.893-1.787-1.102-3.249-2.537-4.67-4.066-2.734 2.327-5.46 4.868-8.35 6.989-.191-.409-.029-.904.027-1.351a80 80 0 0 1 1.58-7.586c.157-.329.36-.692.455-1.041.144-.536-.157-.994-.398-1.452-1.011-1.274-2.039-2.535-2.933-3.898.591-.947 1.415-1.091 2.405-1.424z"/><path fill="#fec14a" d="M100.779 244.192c.671-.246 1.102-.523 1.789-.155.892.476 1.583 1.495 2.322 2.184 1.131 1.557 1.95 2.862 2.327 4.792q.633 5.17.828 10.376l-2.093-.761c-.564 2.511-1.369 4.428-3.621 5.894-1.078.702-2.202 1.082-3.447 1.378l-.188.323-.204-.046.019.264c-1.94 2.408-4.698 4.09-7.818 4.423-1.304.138-2.219.016-3.353-.634-2.929 1.544-5.793 1.644-9.028 1.278l-.167.12c-.196.312-.354.528-.644.761-.644-.237-.988-1.287-1.295-1.893-1.787-1.102-3.249-2.537-4.67-4.066-2.734 2.327-5.46 4.868-8.35 6.989-.191-.41-.029-.905.027-1.351a80 80 0 0 1 1.58-7.586c.157-.329.36-.693.455-1.042.144-.535-.157-.993-.398-1.451-1.011-1.274-2.039-2.535-2.933-3.898.591-.948 1.415-1.092 2.405-1.424l1.498-.554c1.193-.561 2.468-1.008 3.692-1.503l1.714-.648c2.135-1.047 4.529-1.819 6.748-2.696l1.722-.672c3.118-1.348 6.326-2.532 9.484-3.786l1.69-.661c3.22-1.442 6.627-2.648 9.909-3.955"/><path fill="#cb985b" d="M96.789 257.009c.603.325 1.114.589 1.789.725 2.142 1.025 4.452 1.775 6.676 2.61l.698.284c-.563 2.511-1.369 4.428-3.621 5.894-1.078.702-2.202 1.082-3.447 1.378l-.188.323-.204-.046.02.264c-1.94 2.408-4.699 4.09-7.819 4.422-1.304.139-2.219.017-3.353-.633-2.929 1.544-5.793 1.644-9.028 1.278.68-1.071 1.47-2.089 2.214-3.115 1.082-1.562 2.276-3.075 3.41-4.6.45-.672.968-1.309 1.453-1.958 1.433 2.335 2.848 4.933 5.764 5.577.427.094.87.144 1.304.187.198.26.18.327.509.419l.331-1.005 1.957-6.712q.425-1.4.807-2.812c.28-.813.492-1.655.728-2.48"/><path fill="#e5b988" d="M96.788 257.009c.604.325 1.115.589 1.79.725 2.142 1.025 4.452 1.775 6.675 2.61-.174.869-.464 1.543-.853 2.332-.335.22-.668.43-1.023.615-1.213.637-2.595 1.067-3.943.593-1.899-.669-2.612-2.73-3.374-4.395.281-.813.493-1.655.728-2.48m-12.852 8.784c.715 1.339 1.49 2.674 2.134 4.048-1.636 1.058-2.626 1.22-4.56.794q-.495-.11-.984-.242c1.081-1.562 2.275-3.075 3.41-4.6m11.318-3.492c.787 1.407 1.73 2.858 1.287 4.55-.24.916-.902 1.638-1.736 2.066-.463.239-.878.368-1.39.266l-.118-.17z"/><path fill="#b3813d" d="M100.779 244.192c.671-.246 1.102-.523 1.789-.155.892.476 1.583 1.495 2.322 2.184 1.131 1.557 1.95 2.862 2.327 4.792q.633 5.17.828 10.376l-2.093-.761-.698-.284c-2.224-.835-4.534-1.585-6.676-2.61 2.355.41 4.748.898 7.053 1.529-.999-5.846-1.33-8.158-4.293-13.544-3.303 1.337-6.693 2.343-9.996 3.632l-19.8 7.549c-2.966 1.1-6.483 2.91-9.625 3.191.591-.948 1.415-1.092 2.405-1.424l1.498-.554c1.193-.561 2.468-1.008 3.692-1.503l1.714-.648c2.135-1.047 4.529-1.819 6.748-2.696l1.722-.672c3.118-1.348 6.326-2.532 9.484-3.786l1.69-.661c3.22-1.442 6.627-2.648 9.909-3.955"/><path fill="#b3813d" d="M91.776 257.018c-5.068 3.475-20.848 9.344-26.984 9.464.158-.329.361-.693.455-1.042.144-.535-.156-.993-.397-1.451 6.11-1.014 11.925-2.907 17.866-4.606 3-.858 6.06-1.501 9.06-2.365"/><path fill="#e5b988" d="m86.005 262.889.373-.36c1.113.133 3.978 3.97 4.777 4.986q.561.712 1.034 1.486l.268.598a11 11 0 0 1-1.303-.186c-2.917-.644-4.332-3.243-5.765-5.577z"/><path fill="#f8d898" d="M73.318 266.937c.222-.115.367-.29.618-.17.952.452 2.94 4.537 3.597 5.704l.612 1.158c-.197.312-.354.528-.644.76-.644-.236-.988-1.287-1.295-1.892-1.787-1.103-3.249-2.538-4.67-4.067.591-.463 1.105-.969 1.632-1.501z"/><path fill="#cb985b" d="m73.168 266.929.15.007c.965 1.843 2.007 3.679 2.888 5.56-1.787-1.102-3.249-2.537-4.67-4.066.591-.463 1.105-.969 1.632-1.501"/><path fill="#b3813d" d="M92.189 269.001c.441-2.735 2.272-9.979 3.829-11.981.39-.162.371-.153.77-.011-.235.826-.447 1.668-.727 2.48a94 94 0 0 1-.807 2.813l-1.957 6.712-.331 1.004c-.329-.092-.311-.158-.51-.419zm-14.656 3.47c1.732-2.534 4.947-7.483 7.233-9.29.453-.359.682-.342 1.24-.292l-.617.947c-.485.648-1.002 1.285-1.453 1.957-1.135 1.526-2.329 3.038-3.41 4.6-.745 1.027-1.534 2.044-2.214 3.115l-.167.121zm-14.32 1.597a264 264 0 0 0 4.834-3.894c1.23-1.025 2.498-2.275 3.875-3.093.505-.3.684-.285 1.246-.152-.527.532-1.041 1.038-1.632 1.501-2.734 2.327-5.46 4.868-8.35 6.99-.191-.41-.029-.905.026-1.352"/><path fill="#f8d898" d="M97.793 247.767c.316.055.571.131.835.323 1.163.844 1.65 2.849 1.75 4.186-.43-.29-.682-.642-.98-1.06-.634-.888-1.787-2.36-1.605-3.449m-29.186 20.484-.014.41c-.797 1.549-2.406 2.787-3.938 3.566l-.12-.397c.387-1.256 2.994-2.818 4.072-3.579"/><path fill="#cb985b" d="M94.012 232.063c.44-2.346 1.409-4.486 2.038-6.775 1.047-3.808 1.15-9.243.964-13.181-.078-1.637-2.068-3.478-1.816-5.007.094-.565.497-.934.964-1.176.249.043.293.037.548.155 1.755.818 3.491 6.203 4.105 8.063q.26.006.523.001c4.591-.085 7.585-2.003 10.717-5.233q.802 4.91 1.847 9.776c-3.118 2.958-8.998 4.692-13.229 4.89-.064 2.157-.217 4.118-.774 6.206 3.371.526 6.32 1.695 8.413 4.533 2.021 2.744 2.621 5.969 2.085 9.3-.283 1.756-.752 3.532-1.638 5.089.452-3.58-.669-7.479-2.691-10.437-3.013-4.404-7.15-5.292-12.056-6.204"/><path fill="#cb985b" d="M100.779 244.192c-.536-1.615-2.618-4.755-2.547-5.839.238-.404.18-.304.588-.411 2.081.511 3.278 2.685 4.314 4.4.735 1.215 1.267 2.548 1.756 3.88-.739-.689-1.431-1.708-2.322-2.185-.687-.367-1.119-.09-1.789.155m-31.267 12.419c-.334-.911-1.078-3.047-.966-3.978.056-.465.191-.513.534-.801l.486.062c1.084.782 1.24 2.839 1.66 4.068zm19.668-7.802c-.462-1.042-.99-2.072-.585-3.215l.335-.109c1.171.471 1.476 1.594 1.94 2.663zm-11.207 4.457a10 10 0 0 1-.26-.557c-.349-.809-.724-1.562-.374-2.447.373-.124.264-.162.594-.024.98.416 1.328 1.461 1.763 2.356zm21.679-70.508c.255.017.663.032.895.155.386.205.59.437.66.872.166 1.023-2.534 3.521-2.801 5.098-.247 1.457.504 6.183-.051 6.908l-.553-.293c-.487-.41-.957-.894-1.308-1.428-1.16-1.761-1.377-3.964-.9-5.988.577-2.454 1.95-4.062 4.058-5.324m-9.556 10.153c1.507-.178 3.235-.251 4.598.517 1.423.803 1.95 2.068 2.404 3.542-1.575-.229-3.086-.73-4.674-.924-1.928.048-4.26.778-5.998.685-.576-.029-.865-.229-1.236-.646-.054-.412-.021-.668.2-1.032.946-1.546 3.076-1.812 4.706-2.142m.436-13.074c.212.013.502.012.712.075.603.181 1.083.89 1.343 1.432.842 1.752.659 4.601.024 6.378-.758 2.122-2.096 3.564-4.091 4.555l-1.662.416c1.847-3.44 3.965-5.566 3.346-9.746-.177-1.191-.445-2.072.328-3.11m-7.466 47.917c2.622-.131 5.11.981 7.045 2.681-2.083.153-4.17-.175-6.236-.415-1.905-.03-3.593.713-5.455.755-.668.017-1.137-.048-1.63-.511.068-.327.049-.39.28-.662 1.268-1.493 4.165-1.684 5.996-1.848"/><path fill="#b53925" d="m173.29 38.791.332.28c1.274.055 14.481-7.489 16.458-8.668 1.852-1.103 3.921-2.846 5.931-3.538.157.055.246.073.385.19.771.65 1.132 2.23 1.344 3.185.674 4.063.39 8.159-.161 12.217-3.567 2.207-5.456 5.72-6.4 9.726-.227.969-.484 2.073-.345 3.067l-.259.264c-3.92 4.02-7.153 8.802-10.248 13.47-4.909-3.819-9.99-8.06-15.512-10.95-1.022-.706-2.156-1.083-3.338-1.435 1.379 3.066 1.575 6.316 2.73 9.385.203 1.402.65 2.757 1.129 4.084-4.417-3.75-8.87-7.734-13.816-10.782-1.01-.763-2.112-1.18-3.301-1.584.916 2.105 1.186 4.032.985 6.313-.055.517-.078.997-.316 1.47-1.303-.871-2.491-2.042-3.691-3.054-3.691-3.11-7.699-6.593-12.142-8.545-.557-.262-1.306-.585-1.93-.395-.053.016-.101.046-.151.07-.103.61.378 1.588.601 2.19 1.215 3.288 1.535 6.985 2.844 10.19-.14.027-.277.091-.418.082-.804-.05-4.494-1.598-5.592-1.954a44 44 0 0 0-5.626-1.456c-.696-.087-1.683-.268-2.309.14-.055.036-.099.085-.149.127.05 1.735.123 3.48.046 5.216-.063 1.439-.259 2.896-.272 4.332.65.582 1.461 4.914 1.901 6.096.333.892.769 1.71 1.294 2.506-.872 4.664-.73 11.01 1.97 15.11.246.375.543.728.827 1.073-1.924.107-3.833.104-5.759.084-2.103.002-4.225-.16-6.331-.2-2.624-2.931-4.494-7.11-5.339-10.91-1.904-.846-3.943-1.834-5.567-3.151-.922-4.619-.346-5.439-.286-9.766l.002-.217c1.638-5.605 3.481-13.292 2.678-19.073-.165-1.185-.93-2.45-1.292-3.617.561-.613 1.79-.672 2.58-.75 4.494.172 9.128 2.206 12.863 4.635.357.185 3.186-2.705 3.651-3.14 6.68-6.232 16.928-15.52 26.353-16.16-.359 1.692-.389 3.16-.246 4.882.444 1.882 1.017 3.521 1.917 5.234 1.337-1.372 3.242-2.479 4.725-3.738 3.811-3.237 7.131-6.98 7.55-12.142 1.817.694 3.099 1.573 4.549 2.857 1.746 1.82 4.291 4.345 5.151 6.75"/><path fill="#f3b6b3" d="M113.99 61.038c.62 1.13 1.199 2.249 1.702 3.436.793 1.554 3.293 7.086 4.242 7.996l.165-.041c.65.581 1.461 4.914 1.901 6.095a12.4 12.4 0 0 0 1.294 2.507c-.871 4.664-.73 11.01 1.97 15.11.246.375.543.728.828 1.073-1.925.106-3.834.103-5.76.084-2.103.002-4.225-.16-6.331-.201-2.624-2.93-4.494-7.11-5.339-10.908.849-2.355 1.162-5.245 1.682-7.718z"/><path fill="#dba2a0" d="M113.99 61.038c.62 1.13 1.199 2.249 1.702 3.436-.507 1.654-.447 3.553-.662 5.271-1.086 8.713-.871 16.665 3.378 24.6a21 21 0 0 0 1.924 2.953c-2.103.002-4.225-.16-6.331-.201-2.624-2.93-4.494-7.11-5.339-10.908.849-2.355 1.162-5.245 1.682-7.718z"/><path fill="#8b291a" d="M119.64 54.248c.357.185 3.186-2.705 3.651-3.14 6.68-6.232 16.928-15.52 26.353-16.16-.359 1.692-.389 3.16-.246 4.882-3.609 1.783-7.252 3.615-10.732 5.639-1.463.85-2.759 1.968-4.232 2.8-1.921 1.084-4.072 1.815-6.059 2.778-6.793 3.292-8.135 7.507-10.835 14.088-.65-4.298-.523-7.268 2.1-10.887m-16.829 18.805c1.638-5.605 3.481-13.292 2.678-19.073-.165-1.185-.93-2.45-1.292-3.617.561-.613 1.79-.672 2.58-.75.657 1.853 1.411 3.69 1.886 5.6 1.247 5.015.671 10.571-.784 15.478-.704 2.373-1.663 4.614-1.617 7.137.053 2.88 1.273 5.756 2.4 8.36-1.904-.847-3.943-1.835-5.567-3.152-.922-4.619-.346-5.439-.286-9.766zM173.29 38.79l.332.28c1.274.055 14.481-7.489 16.458-8.668 1.852-1.103 3.921-2.846 5.932-3.538.156.055.245.073.384.19.771.65 1.132 2.23 1.344 3.185-5.217 4.286-9.36 5.331-15.009 8.267-1.726.897-3.354 2.06-5 3.097-1.281.807-2.657 1.588-3.82 2.562-1.668 1.397-3.054 3.178-4.289 4.958-.557.803-1.92 3.347-2.554 3.816-.096.071-.227.075-.341.112-.272-.634.231-2.259.495-2.893 1.595-3.837 3.636-6.703 6.517-9.67-.169-.553-.387-1.124-.449-1.698m-21.975 6.273c1.337-1.372 3.242-2.479 4.725-3.738 3.811-3.237 7.131-6.98 7.55-12.142 1.817.694 3.099 1.573 4.549 2.857-2.642 7.292-7.489 9.256-13.147 13.93-2.879 2.379-5.216 4.869-7.391 7.9.475-2.473 1.012-4.686 2.346-6.854.418-.679.967-1.266 1.368-1.953"/><path fill="#f3b6b3" d="m192.538 53.833.39.36c-.89 4.02.164 8.345.879 12.332l1.82-1.75c.026 5.259.405 12.032-.716 17.116-.41 1.861-1.182 3.534-1.701 5.338-.081-1.184-.386-2.114-.903-3.174-2.454 4.4-6.474 11.67-11.617 13.258a8.7 8.7 0 0 1-1.557.314c-1.351-5.2-4.762-10.138-7.722-14.571-.474 2.715-.839 5.537-1.829 8.122l-.365.293c-.833.027-1.49-.082-2.255-.427-4.226-1.903-10.741-10.065-12.473-14.466-1.266-3.923-3.753-7.647-4.756-11.71a9 9 0 0 0-.223-.759l-.306-.095c.201-2.28-.069-4.208-.985-6.313 1.189.405 2.291.822 3.301 1.585 4.946 3.047 9.399 7.03 13.816 10.782-.479-1.328-.926-2.682-1.129-4.084-1.155-3.069-1.351-6.32-2.73-9.385 1.182.352 2.316.729 3.338 1.434 5.522 2.89 10.603 7.132 15.512 10.95 3.095-4.667 6.328-9.449 10.248-13.47l.259-.263c.626-.405 1.154-.916 1.704-1.417"/><path fill="#dba2a0" d="m192.538 53.833.39.36c-.89 4.02.164 8.345.879 12.332l1.82-1.75c.026 5.259.405 12.032-.716 17.116-.41 1.861-1.182 3.534-1.701 5.338-.081-1.184-.386-2.114-.903-3.174-2.454 4.4-6.474 11.67-11.617 13.258a8.7 8.7 0 0 1-1.557.314c1.697-1.499 3.222-3.28 4.483-5.16 4.919-7.336 5.986-9.788 7.31-18.424.338-2.21.779-4.44.72-6.683-.059-2.308-.533-4.583-.79-6.872-.185-1.647.035-3.353-.281-4.975l.259-.263c.626-.405 1.154-.916 1.704-1.417m-44.319 3.868c1.189.405 2.291.822 3.301 1.585-.129 1.83.772 4.424 1.369 6.135a63 63 0 0 0 1.113 3.009 66 66 0 0 0 3.411 7.254 68 68 0 0 0 1.608 2.776 66 66 0 0 0 4.592 6.57 66 66 0 0 0 2.056 2.464c1.166 1.352 2.466 2.632 3.913 3.684l-.365.293c-.833.027-1.49-.082-2.255-.427-4.226-1.903-10.741-10.065-12.473-14.466-1.266-3.923-3.753-7.647-4.756-11.71a9 9 0 0 0-.223-.759l-.306-.095c.201-2.28-.069-4.208-.985-6.313m13.258-1.102c1.182.352 2.316.729 3.338 1.434-.55 1.614 3.931 10.717 4.991 12.876 1.177 2.397 2.564 4.707 3.584 7.177-3.249-2.496-5.647-5.072-7.416-8.799-.365-.769-1.098-3.041-1.767-3.303-1.155-3.069-1.351-6.32-2.73-9.385"/><path fill="#8b291a" d="m263.526 77.457.844-.745.307.037c.99 1.61.404 4.495-.011 6.253-1.101 4.668-3.108 9.133-5.062 13.492 3.35-.706 7.662-1.172 10.698.788.712.46 1.257 1.046 1.756 1.722-3.705 2.598-5.919 6.885-8.048 10.771 2.652 1.63 5.564 3.41 8.799 2.83-.502 6.997-5.589 12.497-10.224 17.358l-1.888 1.791-2.618-.857-.722-.155c-3.385-1.466-8.605-2.804-12.241-3.994.349-.968.646-1.963.968-2.941 1.449-4.65 2.721-9.503 4.485-14.036 2.17-1.964 3.7-6.547 4.818-9.284-.536.223-1.053.493-1.642.501-.218-.482-.087-.551.057-1.039.519-3.573 1.219-7.133 1.799-10.7.186-1.143.19-2.318.401-3.443l.118.307c.484-.472 2.105-5.376 2.478-6.358 1.889-.521 3.316-1.18 4.928-2.298"/><path fill="#dba2a0" d="m258.616 98.804.805-.679.344.034c.131.282.222.528.286.833a170 170 0 0 1-4.819 13.427c-.288.319-.447.493-.53.92.465 1.204 2.598 2.152 3.737 2.662 2.641 1.182 3.861.856 6.605.761-1.3 4.559-4.343 8.514-6.156 12.856l-.809 1.278-.722-.155c-3.385-1.466-8.605-2.804-12.241-3.994.349-.968.646-1.963.968-2.942 1.449-4.649 2.721-9.502 4.485-14.035 2.17-1.964 3.7-6.547 4.818-9.284 1.089-.53 2.156-1.12 3.229-1.682"/><path fill="#f3b6b3" d="M258.616 98.805c-.064 1.898-1.028 4.179-1.639 5.972-2.348 6.886-3.169 9.555-7.725 15.27-.903 1.131-1.811 2.435-2.823 3.461-.157.161-.19.179-.346.298 1.45-4.649 2.722-9.502 4.486-14.035 2.17-1.964 3.7-6.547 4.818-9.284 1.089-.53 2.156-1.12 3.229-1.682"/><path fill="#b53925" d="M258.598 79.754c1.889-.521 3.316-1.18 4.928-2.299-1.985 8.032-4.638 15.827-9.724 22.493.519-3.574 1.219-7.133 1.799-10.7.186-1.144.19-2.318.4-3.443l.119.307c.483-.472 2.105-5.376 2.478-6.358m1.453 19.237c1.038.05 2.114-.185 3.148-.287 1.993-.196 3.912-.19 5.889.116-4.302 2.54-7.429 5.856-10.547 9.698-.999 1.23-2.083 2.926-3.31 3.901a170 170 0 0 0 4.82-13.427m4.993 17.771c1.339.005 2.768-.451 4.061-.784-1.496 2.728-7.837 12.006-10.217 13.64 1.813-4.342 4.856-8.297 6.156-12.856M227.145 51.36c4.637-2.85 8.28-6.795 13.844-7.94l-.818 1.575c-1.454 4.495-.913 9.065-.231 13.65 2.083-1.684 4.24-3.446 5.963-5.504.398-.404.389-.484.943-.522 1.832.836 2.781 2.626 3.466 4.432 1.376 3.62 1.703 7.372 2.379 11.14-.143 2.26-.591 5.553-1.849 7.49-.31-1.718-.655-2.493-1.946-3.666-.342.361-.576.808-.833 1.23l-.347.303c-.746.926-2.227 1.633-3.35 1.958l-.641-.034c-1.307-1.01-4.014-8.754-4.623-10.655-.388-1.207-.595-3.082-1.275-4.11l-.345-.016c-.434.312-.572.56-.82 1.017-.768 1.486-1.198 3.083-1.645 4.688.982 2.893 1.422 6.49.654 9.49-.185.72-1.432 3.106-1.398 3.564.011.144.114.202.208.262-1.994.56-3.093 1.65-4.184 3.373l-1.553-.441c-3.806-2.137-6.433-6.732-8.474-10.428-.17-.754 1.35-5.029 1.647-6.07-.262-1.548.765-4.91 1.025-6.599.851-2.725 2.329-6.043 4.203-8.187"/><path fill="#f3b6b3" d="M227.666 56.886c.439-.455.788-.774 1.359-1.055h.447c.371.438.847 3.183 1.156 4.004 1.069 2.86 2.489 5.786 4.018 8.428l.371-1.867c.982 2.894 1.422 6.49.654 9.49-.185.72-1.432 3.106-1.398 3.564.011.144.114.202.208.262-1.994.56-3.093 1.65-4.184 3.373l-1.553-.441c-3.806-2.137-6.433-6.732-8.474-10.428-.17-.754 1.35-5.028 1.647-6.07 1.372-1.816 3.56-5.844 4.663-8.005z"/><path fill="#dba2a0" d="M227.666 56.886c.439-.455.788-.774 1.359-1.055h.447c.371.438.847 3.183 1.156 4.004 1.069 2.86 2.489 5.786 4.018 8.428l.371-1.867c.982 2.894 1.422 6.49.654 9.49-.185.72-1.431 3.106-1.398 3.564.011.144.114.202.209.262-1.995.56-3.094 1.65-4.185 3.373l-1.553-.441c.515-.606.977-1.25 1.428-1.905 2.976-4.329 4.201-9.221 1.746-14.132-1.977-3.959-3.368-4.988-4.252-9.721"/><path fill="#8b291a" d="M245.903 53.14c.399-.403.389-.483.943-.52 1.832.835 2.781 2.625 3.466 4.43 1.376 3.622 1.703 7.373 2.379 11.142-.142 2.259-.591 5.552-1.849 7.488-.31-1.718-.655-2.492-1.946-3.665-.342.361-.576.808-.833 1.23l-.347.303c-.074-.109-.194-.198-.221-.327-.072-.343.421-1.64.496-2.112.194-1.212.179-2.446.181-3.67.013-5.69.074-8.984-2.269-14.298m-18.758-1.78c4.637-2.85 8.28-6.795 13.844-7.94l-.818 1.575c-6.727 3.14-10.732 4.943-13.353 12.35-.094.265-.166.524-.238.795-1.102 2.162-3.29 6.19-4.663 8.005-.262-1.547.765-4.91 1.025-6.598.852-2.725 2.329-6.043 4.203-8.187"/><path fill="#f3b6b3" d="M252.691 68.193c3.58-1.34 7.057-2.364 10.891-1.796.676.327 1.196.574 1.695 1.144-.174.872-1.599 1.908-2.142 2.678-1.37 1.939-4.219 7.23-4.537 9.536-.373.982-1.994 5.885-2.478 6.358l-.118-.308c-.211 1.126-.215 2.3-.401 3.444-.58 3.566-1.28 7.126-1.799 10.7-.144.487-.275.557-.057 1.038.589-.007 1.106-.278 1.642-.5-1.117 2.737-2.648 7.32-4.818 9.284l-.297-.062c-2.586 2.099-4.68 5.513-6.281 8.399l-1.048-1.835c-2.48-5.383-1.93-13.056-.471-18.63.659-.905 1.145-1.999 1.551-3.038 1.813-4.636 2.77-10.94 1.573-15.834-.277-1.133-.766-2.2-1.23-3.264 1.123-.326 2.604-1.032 3.35-1.958l.347-.303c.257-.423.491-.87.833-1.23 1.291 1.173 1.636 1.947 1.946 3.665 1.258-1.936 1.707-5.23 1.849-7.489"/><path fill="#b53925" d="M252.69 68.193c3.581-1.34 7.058-2.364 10.891-1.796.676.327 1.197.574 1.696 1.144-.174.872-1.6 1.908-2.142 2.678-1.371 1.939-4.22 7.23-4.538 9.536-.373.982-1.994 5.885-2.478 6.358l-.118-.308q.032-.453.046-.908c.034-.963.1-2.695-.576-3.424-.502-.016-.559.181-.914.502l-1.051.485c-1.132.32-2.265.675-3.419.903l-.183-.129c-.08-.343-.094-.221-.019-.54.552-2.357 1.027-4.582.957-7.013 1.257-1.936 1.706-5.23 1.848-7.489"/><path fill="#8b291a" d="M263.582 66.398c.675.326 1.196.573 1.695 1.144-.174.87-1.599 1.907-2.142 2.677-1.37 1.94-4.22 7.23-4.537 9.536-.373.982-1.995 5.886-2.478 6.358l-.119-.307q.032-.454.046-.909c.034-.963.1-2.695-.576-3.423-.502-.017-.559.18-.914.502l-1.05.484c.016-.11.029-.222.049-.332.235-1.272.791-2.64 1.227-3.858 1.815-5.071 4.249-8.872 8.799-11.873"/><path fill="#dba2a0" d="M254.557 81.975c.355-.321.412-.519.914-.502.676.728.61 2.46.577 3.423q-.015.454-.047.909c-.21 1.125-.214 2.3-.4 3.444-.58 3.566-1.28 7.125-1.799 10.7-.144.487-.275.556-.057 1.037.589-.007 1.106-.277 1.642-.5-1.118 2.737-2.648 7.32-4.818 9.284l-.298-.062c-2.585 2.099-4.679 5.513-6.28 8.399l-1.049-1.834c1.769-3.902 3.747-5.633 6.002-8.964 5.023-7.42 6.178-16.59 5.613-25.334m-6.494-8.73c.257-.422.491-.869.833-1.23 1.291 1.174 1.636 1.948 1.946 3.665.07 2.432-.404 4.656-.956 7.014-.076.318-.061.196.018.54l.183.128a21 21 0 0 0-1.219.423l-.096.145c-.681-1.265.772-8.528-.709-10.685"/><path fill="#e5b988" d="M87.119 136.766c.994-1.862 2.386-4.386 4.067-5.666 3.12-2.375 9.69-.937 13.356-.404l.483.22c-.058 6.994.276 14.038.586 21.026.127 2.876.462 5.838.428 8.707-4.062-.193-9.748-.58-12.958-3.218-3.61-2.967-6.957-8.492-7.451-13.181-.465-2.621.3-5.169 1.489-7.484"/><path fill="#cb985b" d="M85.63 144.25c-.465-2.62.3-5.169 1.489-7.483 3.316-.118 7.773.542 10.257 2.956 1.252 1.217 1.868 2.86 1.86 4.595-.01 2.399-1.906 4.038-1.722 6.01.122 1.302 1.308 2.127.555 3.364-.384.264-.723.396-1.193.306-.678-.13-1.262-.609-1.596-1.199-2.104-3.717 2.221-7.427-4.9-9.692-1.522-.484-2.953-.644-4.518-.246-.296.337-.208.942-.232 1.389"/><path fill="#b53925" d="M209.024 44.92c2.477-1.644 5.245-3.597 7.254-5.78.846-.919 1.44-2.166 2.369-2.975 1.01-.09 1.485.361 2.244.949 3.357 3.945 4.876 9.335 6.254 14.246-1.874 2.144-3.352 5.462-4.203 8.187-.004-.24.009-.518-.024-.758-.057-.43-.031-.41-.401-.665-.705.051-1.405.757-1.955 1.18-3.169 1.85-6.378 3.95-9.698 5.504-1.265.578-2.495 1.31-3.727 1.962.157-4.398.357-9.064 2.198-13.117l-.137-.23c-.585.015-1.003.26-1.511.518l-.657.693-1.967 1.347c-.064-3.53.868-6.23 2.586-9.277.351-.62 1.032-1.545 1.145-2.231.055-.328.055-.72.079-1.053.148.408.12 1.055.151 1.5"/><path fill="#8b291a" d="M209.024 44.92c2.477-1.644 5.245-3.597 7.254-5.78.846-.919 1.44-2.166 2.369-2.975 1.01-.09 1.485.361 2.244.949-1.758 1.835-3.599 3.75-5.603 5.318-1.058.829-2.24 1.516-3.268 2.38-2.759 2.313-3.561 5.792-4.333 9.13l-.657.692-1.967 1.347c-.064-3.53.868-6.23 2.586-9.277.351-.62 1.032-1.545 1.145-2.231.055-.328.055-.72.079-1.053.148.408.12 1.055.151 1.5"/><path fill="#f3b6b3" d="M134.418 65.941c-1.308-3.205-1.628-6.901-2.843-10.188-.223-.604-.704-1.58-.601-2.192.05-.023.098-.053.151-.07.624-.19 1.372.134 1.93.395 4.443 1.953 8.451 5.437 12.142 8.546 1.2 1.011 2.388 2.182 3.691 3.053.238-.472.261-.953.316-1.47l.305.095q.13.374.224.758c1.003 4.065 3.489 7.788 4.755 11.711-2.271 2.763-3.399 6.244-6.117 8.71-.449.332-.96.672-1.553.587-3.278-.466-6.635-9.582-8.582-12.113l-.386.019c-1.061-1.4-2.575-7.292-3.432-7.84"/><path fill="#dba2a0" d="M134.418 65.941c-1.308-3.205-1.628-6.901-2.843-10.188-.223-.604-.704-1.58-.601-2.192.05-.023.098-.053.151-.07.624-.19 1.372.134 1.93.395.539 2.481 2.014 5.119 2.947 7.507 3.548 9.076 5.584 16.443 12.369 23.896-.449.332-.96.672-1.553.587-3.278-.466-6.635-9.582-8.582-12.113l-.386.019c-1.061-1.4-2.575-7.292-3.432-7.84"/><path fill="#f3b6b3" d="M207.688 53.941c.507-.257.925-.503 1.51-.517l.137.229c-1.841 4.053-2.041 8.719-2.198 13.117 1.232-.652 2.462-1.383 3.727-1.962-.034 1.337-1.132 6.089-.87 6.83-2.798 6.194-7.686 13.713-14.313 16.243-.792.303-1.63.58-2.484.613l-.26-.21.1-.418.173-.636c.519-1.805 1.291-3.477 1.701-5.339 1.121-5.084.742-11.857.717-17.115 2.913-2.93 5.994-6.483 9.436-8.795l1.966-1.347z"/><path fill="#dba2a0" d="M207.688 53.941c.507-.257.925-.503 1.51-.517l.137.229c-1.841 4.053-2.041 8.719-2.198 13.117 1.232-.652 2.462-1.383 3.727-1.962-.034 1.337-1.132 6.089-.87 6.83-2.798 6.194-7.686 13.713-14.313 16.243-.792.303-1.63.58-2.484.613l-.26-.21.1-.418.111.083c1.368-.139 3.355-1.632 4.417-2.54 1.957-1.677 3.111-3.846 4.25-6.112 2.493-4.957 3.383-7.433 3.609-13.027.068-1.685.037-3.428.227-5.101.249-2.204 1.22-4.334 1.379-6.535z"/><path fill="#f3b6b3" d="M236.662 61.708c.248-.457.386-.705.82-1.016l.346.015c.679 1.028.886 2.903 1.274 4.11.609 1.901 3.316 9.645 4.624 10.655l.64.034c.464 1.066.953 2.132 1.23 3.264 1.197 4.894.24 11.198-1.573 15.835-.406 1.039-.892 2.132-1.551 3.037.19-1.547.622-3.107 1.034-4.61-2.286 2.587-6.556 7.245-10.33 7.33-.303.007-.312-.005-.567-.048l-.101-.248.398-.808c1.408-3.63 2.355-15.693 1.576-19.546-.095-.06-.198-.118-.209-.261-.033-.459 1.213-2.844 1.398-3.565.768-3 .328-6.596-.654-9.49.447-1.604.877-3.202 1.645-4.688"/><path fill="#dba2a0" d="M236.662 61.708c.248-.457.386-.705.82-1.016l.346.015c.679 1.028.886 2.903 1.274 4.11.609 1.901 3.316 9.645 4.624 10.655l.64.034c.464 1.066.953 2.132 1.23 3.264 1.197 4.894.24 11.198-1.573 15.835-.406 1.039-.892 2.132-1.551 3.037.19-1.547.622-3.107 1.034-4.61-2.286 2.587-6.556 7.245-10.33 7.33-.303.007-.312-.005-.567-.048l-.101-.248.398-.808c.146.073.115.09.279.041 1.788-.536 6.7-7.196 7.483-8.976 2.155-4.892 1.329-12.013-.159-16.975-.491-1.64-1.33-3.144-1.847-4.78-.703-2.233-1.163-4.695-2-6.86"/><path fill="#f3b6b3" d="M120.099 72.43c.013-1.436.209-2.894.272-4.333.077-1.735.004-3.48-.046-5.216.05-.042.094-.09.148-.126.627-.409 1.614-.228 2.309-.14q2.862.54 5.627 1.455c1.097.356 4.788 1.904 5.592 1.955.141.009.278-.055.418-.083.856.549 2.37 6.44 3.431 7.84-3.316 3.38-6.905 5.93-7.852 10.875.032.436.102.897-.009 1.325-.071.273-.271.277-.505.391-.487.001-.889-.017-1.34-.22-2.128-.954-2.618-3.623-3.467-5.546-.194-.438-.276-.661-.739-.843-.445.382-.469.716-.644 1.268A12.4 12.4 0 0 1 122 78.525c-.441-1.181-1.252-5.514-1.901-6.096"/><path fill="#dba2a0" d="M120.099 72.43c.013-1.436.209-2.894.272-4.333.077-1.735.004-3.48-.046-5.216.05-.042.094-.09.148-.126.627-.409 1.614-.228 2.309-.14 2.225 8.401 2.015 14.426 7.216 22.042.032.436.102.897-.009 1.325-.071.273-.271.277-.505.391-.487.001-.889-.017-1.34-.22-2.128-.954-2.618-3.623-3.467-5.546-.194-.438-.276-.661-.739-.843-.445.382-.469.716-.644 1.268A12.4 12.4 0 0 1 122 78.525c-.441-1.181-1.252-5.514-1.901-6.096"/><path fill="#f3b6b3" d="M220.562 59.304c.55-.422 1.25-1.128 1.955-1.18.37.256.344.235.401.666.033.24.02.519.024.758-.26 1.689-1.287 5.05-1.025 6.598-.297 1.042-1.817 5.317-1.647 6.07-1.086 2.66-2.934 6.809-5.774 8.002-.307.128-.527.164-.855.068-.135-.04-.303-.155-.425-.232l-.242-.801c-.718-2.51-1.739-5.317-2.98-7.613-.262-.742.836-5.494.87-6.83 3.32-1.554 6.529-3.656 9.698-5.506"/><path fill="#dba2a0" d="M220.562 59.304c.55-.422 1.25-1.128 1.956-1.18.369.256.343.235.4.666.033.24.021.519.024.758-.26 1.689-1.287 5.05-1.025 6.598-.297 1.042-1.817 5.317-1.647 6.07-1.086 2.66-2.934 6.809-5.774 8.002-.307.128-.526.164-.855.068-.135-.04-.303-.155-.425-.232l-.242-.801c1.249-1.847 2.473-3.723 3.457-5.727.962-1.96 4.703-12.564 4.131-14.222"/><path fill="#e5b988" d="M245.557 119.108c.069.716-.275 1.805-.522 2.487-.153.424-.283.75-.694.96l-.527-.479-1.115-2.015c1.396.066 1.808-.03 2.858-.953m8.314 48.755.166.023c2.024.26 4.055.149 6.09.471 7.65 1.208 13.565 5.841 18.237 11.825 2.646 3.39 6.182 8.628 5.479 13.226-.081.524-.259.947-.678 1.294-.351.29-.951.429-1.379.569-.191.227-.216.162-.187.432.067.6.467 1.204.861 1.645.797.894 1.865 1.588 2.781 2.36 1.327 1.121 2.581 2.395 3.724 3.703 1.601 1.828 2.999 3.866 3.987 6.093l.096.22c1.915 4.469 2.702 10.738.962 15.384-.576 1.54-3.893 6.674-3.747 7.913.17 1.464 1.827 2.939 2.44 4.295 3.074 6.797 3.702 12.848 3.545 20.174-.432 1.243-1.136 2.234-1.926 3.27l.545.345c.979.272 2.184.427 2.973 1.075.183.453.26.663.092 1.138-.593 1.654-2.339 2.873-3.054 4.596a20.7 20.7 0 0 1 1.433 4.662q.146.802.227 1.612c.166.676.308 1.339.404 2.028l.366 2.192c-1.601-1.354-8.967-8.04-10.367-8.494-1.052 1.839-1.977 3.767-3.056 5.586l-.995 1.933a161 161 0 0 0-2.82-3.75c-1.645.084-3.632.057-5.194-.501-.541-.194-1.526-.783-2.05-.825-.646-.054-1.769.495-2.485.581-.717.089-1.666-.201-2.375-.341-.22.242-.27.28-.589.412l-.29-.63c-2.539-1.104-4.247-2.214-5.902-4.486q-.384-.086-.762-.19c-2.606-.72-4.298-2.205-5.622-4.5-.866.336-1.706.637-2.611.861-.408-1.439.909-10.733 1.435-12.395-1.97-1.756-3.163-4.273-3.719-6.819-.775-3.562-.546-6.94 1.503-10.049 2.187-3.317 5.106-4.282 8.779-5.067-.587-1.991-.718-4.018-.934-6.072-4.999-.657-8.871-2.105-13.085-4.902a228 228 0 0 0 2.203-11.966c.681-4.094 2.694-19.081 2.033-22.405-.07-.349-.261-.641-.445-.938 2.491-5.033 3.25-10.076 3.911-15.588"/><path fill="#fec14a" d="m258.155 246.439 2.155.854c3.096 1.228 6.236 2.393 9.295 3.709l1.819.698c3.191 1.267 6.537 2.416 9.645 3.854l1.734.667c2.297.91 4.707 1.737 6.943 2.786l1.644.65c.967.368 1.944.796 2.932 1.103l.545.345c.978.271 2.184.427 2.973 1.075.183.452.26.663.092 1.137-.593 1.655-2.34 2.874-3.054 4.596a20.7 20.7 0 0 1 1.433 4.663q.146.802.227 1.612c.166.676.308 1.339.404 2.028l.366 2.192c-1.601-1.354-8.967-8.04-10.367-8.495-1.052 1.839-1.977 3.767-3.056 5.586l-.995 1.934a159 159 0 0 0-2.82-3.751c-1.645.085-3.632.057-5.194-.5-.541-.194-1.526-.783-2.05-.826-.646-.053-1.769.495-2.486.582-.716.089-1.665-.201-2.374-.342-.22.242-.27.281-.589.412l-.29-.63c-2.539-1.104-4.247-2.214-5.902-4.485q-.384-.087-.763-.19c-2.605-.72-4.297-2.205-5.621-4.5-.866.336-1.706.637-2.611.86-.408-1.438.909-10.732 1.435-12.394l.12-.203c.72-1.363 1.706-2.465 2.735-3.599.546-.489 1.115-.955 1.675-1.428"/><path fill="#b3813d" d="m258.155 246.439 2.155.854c3.096 1.228 6.236 2.393 9.295 3.709l1.819.698c3.191 1.267 6.537 2.416 9.645 3.854l1.734.667c2.297.91 4.707 1.737 6.943 2.786l1.644.65c.967.368 1.944.796 2.932 1.103l.545.345c-2.229.244-31.444-11.373-36.101-13.194-.772.955-1.354 1.924-1.922 3.01 3.059 1.943 6.455 3.52 9.711 5.097 3.889 1.885 7.794 3.817 11.879 5.25 3.745 1.314 7.604 2.251 11.334 3.624-9.098-.941-15.96-3.386-24.042-7.41-3.226-1.607-6.413-3.276-9.464-5.198-1.213 3.575-2.022 6.744-2.173 10.531 2.668-.831 5.556-2.245 8.322-2.567a115 115 0 0 1-5.106 2.011l-2.504.944c-.866.336-1.706.637-2.611.86-.408-1.438.909-10.732 1.435-12.394l.12-.203c.72-1.363 1.706-2.465 2.735-3.599.546-.489 1.115-.955 1.675-1.428"/><path fill="#cb985b" d="m262.411 260.247 1.145-.26c1.272.537 1.802 2.243 2.295 3.458 1.062 2.623 2.257 5.272 3.235 7.915l-1.12 1.235c-.22.242-.27.281-.589.412l-.29-.63c-2.539-1.104-4.248-2.214-5.902-4.485q-.384-.087-.763-.19c-2.605-.72-4.297-2.205-5.621-4.5l2.504-.944q2.577-.945 5.106-2.011"/><path fill="#b3813d" d="M263.556 259.987c1.272.537 1.802 2.243 2.295 3.458 1.062 2.623 2.256 5.272 3.235 7.915l-1.121 1.235c-.219.242-.269.281-.589.412l-.29-.63c-.74-3.257-1.889-6.461-2.751-9.692-.301-.883-.528-1.799-.779-2.698"/><path fill="#e5b988" d="m262.411 260.247 1.145-.26c.251.899.478 1.815.779 2.698-.164.206-.179.241-.404.441-.903.805-2.277 1.041-3.44.871-1.18-.171-2.458-.779-3.186-1.739q2.576-.945 5.106-2.011"/><path fill="#cb985b" d="M270.839 269.45c1.76-.648 2.888-1.437 4.004-2.949a237 237 0 0 1 5.227 7.181c-1.645.085-3.632.057-5.194-.5-.541-.194-1.526-.783-2.05-.826-.646-.053-1.769.495-2.485.582-.717.089-1.666-.201-2.375-.342l1.121-1.235.452-.619z"/><path fill="#b3813d" d="M274.235 265.489c.702-.054 1.04.079 1.579.535 1.931 1.636 3.351 3.934 4.926 5.898.948 1.184 1.998 2.294 2.905 3.505l.24.072-.995 1.934a159 159 0 0 0-2.82-3.751 237 237 0 0 0-5.228-7.181c-.227-.325-.413-.669-.607-1.012m12.562 4.223c.512-.284.728-.502 1.346-.373 1.88.393 6.936 5.447 8.799 6.877l.366 2.192c-1.601-1.354-8.967-8.04-10.367-8.495z"/><path fill="#f8d898" d="M269.539 270.743c.416-1.618 2.449-4.347 3.769-5.324.36-.266.46-.177.87-.092l.057.162c.194.344.38.687.607 1.012-1.115 1.512-2.243 2.301-4.003 2.949z"/><path fill="#e5b988" d="m274.178 265.326.057.163c.194.343.38.687.608 1.012-1.116 1.512-2.244 2.3-4.004 2.949.927-1.337 2.851-2.593 3.339-4.124"/><path fill="#f8d898" d="M296.538 274.187q-.092-.11-.181-.223c-.89-1.16-2.469-4.63-2.264-6.068.404-.17.375-.148.785.017a20.7 20.7 0 0 1 1.433 4.662q.146.802.227 1.612m-12.893 1.239a3.6 3.6 0 0 1 .081-.978c.301-1.3 1.512-4.196 2.652-4.894l.419.157.144.201c-1.053 1.84-1.978 3.768-3.056 5.586zm-21.878-16.325c.363-.059.662-.05 1.028-.017l-.013.207c-1.59 1.041-3.728 1.521-5.551 2.044l-.984.203-.362-.273-.188.159c.02-.048.035-.098.063-.142.775-1.267 4.583-1.93 6.007-2.181m-.361-9.739c.462.181.514.138.724.576-.096.753-.676 1.403-1.102 2.015-.34.018-.15.038-.556-.128-.015-.055-.037-.109-.044-.166-.106-.728.616-1.688.978-2.297"/><path fill="#cb985b" d="M261.118 214.133c.61-1.844 2.338-7.209 4.096-8.045.251-.12.292-.113.536-.159.454.225.681.426.88.912.265.646.017 1.175-.262 1.758-.43.894-1.242 2.103-1.409 3.058-.445 2.565.198 10.96.881 13.482.634 2.34 1.627 4.528 2.087 6.919-4.739.82-9.052 1.906-11.983 6.083a19 19 0 0 0-.43.659 14 14 0 0 0-.583 1.025q-.091.173-.178.351-.087.175-.17.354a16 16 0 0 0-.712 1.832q-.061.186-.117.375-.055.188-.107.378a24 24 0 0 0-.185.765 17 17 0 0 0-.258 1.551q-.022.196-.041.392a17 17 0 0 0-.068 1.571q.002.196.007.393a18 18 0 0 0 .078 1.177q.02.195.046.391a13 13 0 0 0 .118.777c.083.471.183.907.401 1.334l-.12.203c-1.97-1.756-3.163-4.273-3.719-6.82-.776-3.562-.547-6.939 1.503-10.049 2.186-3.316 5.106-4.282 8.779-5.067-.587-1.99-.719-4.018-.935-6.071-4.998-.658-8.871-2.105-13.085-4.903a227 227 0 0 0 2.203-11.966c.898 2.451 4.43 5.06 6.744 6.153 1.928.908 3.884 1.241 6.003 1.187"/><path fill="#cb985b" d="M256.479 247.866c.815-2.565 1.847-5.028 3.404-7.239.725-1.03 1.71-2.437 3.065-2.611.421-.053.46 0 .772.25.223 1.349-1.836 3.944-2.397 5.368-.463 1.178-.729 2.426-1.014 3.658l-2.155-.853c-.559.472-1.128.938-1.675 1.427m33.267 11.14c.506-1.394 1.545-6.562 2.747-7.174.218-.112.349-.003.566.065.611 1.097-.061 2.831-.386 3.983a41 41 0 0 1-1.284 3.776zm-20.141-8.004c.726-1.271 1.987-5.178 3.263-5.636l.458.122c.319.594.214 1.104.028 1.735-.455 1.542-1.223 3.038-1.93 4.477zm11.464 4.551c.639-1.593 1.529-4.747 3.163-5.473l.277.146c.426 1.697-.971 4.423-1.706 5.994zm-19.642-72.845c.753.085 1.32.292 1.951.717 1.766 1.186 2.726 3.182 3.045 5.243.359 2.323-.151 4.306-1.547 6.171l-1.451 1.136c-.067-2.565.609-5.458-.202-7.935-.509-1.556-2.328-2.76-2.517-4.075.095-.578.346-.838.721-1.257m6.919 10.202c2.352-.211 5.059-.105 7.122 1.183.569.357 1.243.9 1.346 1.601.046.314-.111.396-.284.632-1.223.619-2.194.294-3.466.02-3.023-.426-5.261-.033-8.229.641q.135-.48.303-.949c.63-1.719 1.612-2.403 3.208-3.128m2.129-13.124c.172.022.497.039.665.118.552.261.727.688.753 1.276.059 1.298-.295 2.624-.31 3.932-.026 2.62 1.931 4.225 2.947 6.455.166.368.269.599.133.992l-.783-.102c-.864-.343-1.671-.773-2.369-1.398-1.699-1.516-2.654-3.713-2.748-5.977-.079-1.909.414-3.862 1.712-5.296m7.861 47.96q.932.01 1.857.123.925.11 1.834.322c1.167.28 2.617.746 3.276 1.82-.065.309.013.29-.22.427-1.42.831-4.155-.105-5.715-.401-2.561-.101-5.056.573-7.643.37 2.129-1.625 3.955-2.412 6.611-2.661"/><path fill="#cb985b" d="m252.763 161.641 1.913.028-.377 3.334c3.54-1.787 8.057-1.371 11.713-.162a34 34 0 0 1 1.342.492q.334.13.663.27a29 29 0 0 1 3.2 1.59 29 29 0 0 1 1.223.743 34 34 0 0 1 1.183.803q.293.207.578.423a29.3 29.3 0 0 1 7.943 9.089q.175.312.341.628.168.316.327.637c2.764 5.538 4.367 11.402 2.312 17.417l-.1.291c4.995 2.56 10.014 7.893 11.746 13.298 1.784 5.565.697 12.713-1.979 17.832-.851 1.629-1.889 2.934-3.206 4.207 4.098 3.671 6.101 10.053 6.445 15.398.192 2.988-.541 6.807-1.782 9.531.157-7.326-.471-13.377-3.546-20.174-.613-1.356-2.269-2.831-2.439-4.295-.146-1.24 3.171-6.373 3.747-7.913 1.739-4.646.953-10.915-.962-15.384l-.096-.22c-.988-2.227-2.386-4.265-3.987-6.093-1.143-1.308-2.397-2.582-3.725-3.703-.916-.772-1.983-1.466-2.781-2.36-.393-.441-.794-1.045-.86-1.645-.03-.27-.004-.205.186-.432.429-.141 1.029-.279 1.38-.569.419-.347.596-.77.677-1.294.704-4.598-2.832-9.836-5.478-13.226-4.672-5.984-10.587-10.617-18.237-11.825-2.035-.322-4.066-.211-6.09-.471l-.167-.023c-.661 5.512-1.42 10.555-3.911 15.588-4.031 6.223-9.556 9.613-16.789 11.148l-.247.049c-3.538.728-7.017 1.125-10.62 1.284-2.051.092-4.158.04-6.199.251-.715-.011-1.437.03-2.151.046l-5.115.076c-19.369.207-38.721-.261-58.089-.362l-3.013-.009-3.91-.008c-4.311-.053-13.173.466-16.864-.371-2.967-.894-5.513-2.232-8.126-3.876.957-1.702 1.896-3.824 2.466-5.697 2.884 2.333 7.524 3.836 11.063 4.759 2.422.632 4.855.914 7.313 1.326 3.678.617 7.351 1.333 11.075 1.616 2.216.168 4.446.074 6.664.208q5.883.39 11.776.584t11.789.194 11.789-.196q5.892-.196 11.775-.585c2.408-.148 4.822-.043 7.228-.264 3.204-.296 6.33-.885 9.499-1.402 2.277-.371 4.59-.613 6.841-1.123 3.86-.873 7.883-2.265 11.296-4.293 9.144-5.43 10.939-15.746 13.353-25.165"/><path fill="#b3813d" d="M253.905 149.658c.492-.171.951-.393 1.481-.299.423.484.344.92.353 1.55a414 414 0 0 1-.949 9.759l-.115 1-1.913-.028c-8.662-.303-17.374.521-26.042.206 4.539-1.922 9.152-3.866 13.583-6.015-6.043.045-12.13.208-18.17-.032 3.304-.907 6.746-1.465 10.112-2.1 7.211-1.361 14.479-2.532 21.66-4.041m-125.048 18.285c-1.492 4.522-3.697 8.911-5.606 13.271-.641 1.463-1.644 3.214-1.949 4.767-.571 1.873-1.509 3.995-2.466 5.697-2.897-1.942-5.353-4.24-7.577-6.915 1.417-1.453 2.9-3.276 4.59-4.37a285 285 0 0 0 7.681-7.487c1.695-1.685 3.382-3.567 5.327-4.963"/><path fill="#e4e1d7" d="M202.85 112.473c1.545-.917 3.168-1.744 4.745-2.608l.22.09c1.215.478 2.816.354 4.107.718 5.139 1.449 10.189 4.779 12.922 9.456a16.6 16.6 0 0 1 1.269 2.174q.121.246.238.494a25 25 0 0 1 .441 1.006q.103.254.202.51.096.257.186.516a16 16 0 0 1 .338 1.044q.08.263.15.528.072.265.136.532a23 23 0 0 1 .233 1.072 25 25 0 0 1 .179 1.083 25 25 0 0 1 .166 1.638 25 25 0 0 1 .043 1.096 25 25 0 0 1-.013 1.098 20 20 0 0 1-.067 1.095 20 20 0 0 1-.201 1.634 24 24 0 0 1-.201 1.079 20 20 0 0 1-.257 1.067 20 20 0 0 1-.308 1.053q-.084.262-.174.521c-.364 1.051-1.239 3.803-2.31 4.294-.046.022-.098.031-.146.047l.192.246c-1.523 3.533-6.993 7.389-10.509 8.778a22.3 22.3 0 0 1-5.31 1.369 22.6 22.6 0 0 1-3.293.177c-5.355.006-10.788-2.329-14.684-5.952-1.691-1.573-5.222-5.776-5.318-8.097-1.594-2.086-1.699-6.238-1.724-8.734.043-.88.157-1.761.245-2.638.235-1.668.72-3.243 1.339-4.807.35-.889.849-1.773.995-2.721 1.475-1.093 3.466-1.94 5.095-2.828z"/><path fill="#cb985b" d="M202.849 112.473c1.546-.917 3.169-1.744 4.746-2.608l.22.09c1.215.478 2.816.354 4.107.718 5.139 1.449 10.189 4.779 12.922 9.456-.578-.266-1.173-.436-1.782-.616-9.307-1.208-15.663.698-23.915 4.851-5.601 2.82-8.376 4.615-14.801 4.495.236-1.668.721-3.243 1.339-4.807.351-.889.85-1.773.996-2.721 1.475-1.093 3.466-1.94 5.094-2.828z"/><path fill="#b3813d" d="M202.849 112.473c1.546-.917 3.169-1.744 4.746-2.608l.22.09c1.215.478 2.816.354 4.107.718 5.139 1.449 10.189 4.779 12.922 9.456-.578-.266-1.173-.436-1.782-.616-1.8-.997-3.512-2.144-5.329-3.12-4.731-2.542-9.588-3.581-14.884-3.92"/><path fill="#cb985b" d="M185.826 140.231c1.217 1.189 2.472 2.303 3.848 3.308 5.911 3.681 17.36 5.04 24.072 3.513 3.714-.845 7.3-2.379 11.002-3.342l.192.246c-1.523 3.533-6.993 7.389-10.509 8.778a22.3 22.3 0 0 1-5.311 1.369 22 22 0 0 1-3.292.177c-5.355.006-10.788-2.329-14.684-5.952-1.692-1.573-5.222-5.776-5.318-8.097"/><path fill="#b3813d" d="M185.826 140.231c1.217 1.189 2.472 2.303 3.848 3.308 2.367 3.301 7.702 6.562 11.308 8.279 1.496.711 3.642 1.339 4.846 2.462-5.355.006-10.788-2.329-14.684-5.952-1.692-1.573-5.222-5.776-5.318-8.097"/><path fill="#aca595" d="M184.347 128.86c6.424.12 9.199-1.675 14.8-4.495 8.253-4.154 14.608-6.059 23.915-4.852.61.181 1.204.351 1.782.617.484.707.896 1.404 1.269 2.174-10.568-2.208-18.76 1.427-28.225 5.484-4.641 1.988-8.681 3.516-13.786 3.71.043-.88.157-1.761.245-2.638"/><path fill="#000" d="M200.013 129.307a3 3 0 0 1 .429-.09q.109-.015.217-.024a4 4 0 0 1 .438-.004 4 4 0 0 1 .436.054 4 4 0 0 1 .423.111 3 3 0 0 1 .406.165 3.3 3.3 0 0 1 .888.633 3.2 3.2 0 0 1 .532.694q.055.095.103.194.048.098.091.199.04.102.076.206.035.103.062.21.03.106.05.214a4 4 0 0 1 .056.434q.005.11.005.22a4 4 0 0 1-.009.219 3.25 3.25 0 0 1-.456 1.451 3 3 0 0 1-.249.361 3.2 3.2 0 0 1-.457.473 4 4 0 0 1-.169.136q-.09.065-.181.125a3.6 3.6 0 0 1-.586.298 3 3 0 0 1-.574.168 4 4 0 0 1-.32.046 3 3 0 0 1-.321.015 4 4 0 0 1-.321-.016q-.08-.008-.161-.02a3 3 0 0 1-.316-.063 3.3 3.3 0 0 1-.749-.287l-.141-.079-.136-.086a3 3 0 0 1-.259-.191 2.4 2.4 0 0 1-.24-.214 4 4 0 0 1-.218-.237 4 4 0 0 1-.362-.532l-.074-.143a4 4 0 0 1-.179-.449 4 4 0 0 1-.081-.311 3 3 0 0 1-.029-.158q-.013-.08-.023-.16a3 3 0 0 1-.02-.321 3 3 0 0 1 .011-.322l.017-.16q.01-.081.026-.159l.031-.158a3 3 0 0 1 .089-.31 3 3 0 0 1 .118-.3q.033-.073.07-.145.035-.072.076-.142l.083-.137q.044-.069.09-.134a3 3 0 0 1 .096-.129q.05-.064.104-.124a2.4 2.4 0 0 1 .221-.233l.12-.108a4 4 0 0 1 .253-.198l.135-.09.137-.083.142-.076a4 4 0 0 1 .295-.131 3 3 0 0 1 .305-.102"/><path fill="#e4e1d7" d="M152.608 110.005c1.363.735 2.751 1.442 4.083 2.23l13.501 7.325c1.285.697 3.81 1.741 4.779 2.658.241 1.83 1.477 4.345 1.886 6.642l.238 2.407c-.023 2.537-.068 6.645-1.679 8.773-.102 2.516-3.692 6.738-5.496 8.401-4.024 3.708-9.592 5.956-15.089 5.833-2.777.08-6.107-.562-8.63-1.734-3.035-1.41-8.778-5.37-9.947-8.561l.201-.269c-.053-.017-.109-.027-.159-.051-.901-.417-1.746-2.541-2.055-3.437-1.994-5.773-2.029-11.996.675-17.556.405-.828.766-1.652 1.365-2.361.126-.312.297-.572.486-.849 3.827-5.6 9.352-8.205 15.841-9.451"/><path fill="#cb985b" d="M152.608 110.005c1.362.735 2.751 1.442 4.083 2.23l13.501 7.325c1.285.697 3.81 1.741 4.779 2.658.241 1.83 1.477 4.345 1.886 6.642-1.151.055-2.375.173-3.517.005-4.092-.599-7.602-2.662-11.233-4.474-3.836-1.915-7.952-3.814-12.155-4.718-3.355-.722-7.04-.435-10.449-.371-1.104.211-2.143.952-3.222 1.003.126-.312.296-.572.486-.849 3.827-5.6 9.352-8.205 15.841-9.451"/><path fill="#b3813d" d="M152.608 110.005c1.362.735 2.751 1.442 4.083 2.23-2.183.986-4.371 1.393-6.644 2.074-2.878.861-8.102 3.14-10.544 4.993-1.104.211-2.143.952-3.222 1.003.126-.312.296-.572.486-.849 3.827-5.6 9.352-8.205 15.841-9.451"/><path fill="#cb985b" d="M175.416 140.039c-.101 2.516-3.692 6.739-5.496 8.401-4.024 3.708-9.592 5.956-15.089 5.834-2.777.079-6.107-.563-8.63-1.735-3.035-1.409-8.778-5.37-9.947-8.56l.201-.269c3.698 1.015 7.33 2.505 11.06 3.339 5.115 1.142 13.012.504 18.051-.902 1.709-.476 3.352-1.204 4.971-1.922a42.4 42.4 0 0 0 4.879-4.186"/><path fill="#b3813d" d="M175.416 140.039c-.102 2.516-3.692 6.739-5.496 8.401-4.024 3.708-9.592 5.956-15.09 5.834.93-1.021 2.984-1.758 4.22-2.385 3.907-1.984 8.604-4.319 11.486-7.664a42.5 42.5 0 0 0 4.88-4.186"/><path fill="#aca595" d="M139.503 119.302c3.41-.065 7.094-.351 10.449.37 4.204.904 8.319 2.803 12.155 4.718 3.632 1.812 7.141 3.875 11.233 4.475 1.142.167 2.367.05 3.517-.006l.238 2.408c-4.663.133-8.816-1.296-12.941-3.324-11.159-5.486-16.396-7.85-29.238-5.278.405-.828.766-1.652 1.365-2.36 1.079-.052 2.119-.792 3.222-1.003"/><path fill="#000" d="M159.391 129.306a3 3 0 0 1 .434-.09 3 3 0 0 1 .442-.032q.111-.001.222.006a3.3 3.3 0 0 1 2.169.995 3 3 0 0 1 .288.337 3.3 3.3 0 0 1 .428.775 3 3 0 0 1 .133.423q.027.108.045.217a3.2 3.2 0 0 1-.04 1.322 4 4 0 0 1-.13.424 4 4 0 0 1-.186.403 3.3 3.3 0 0 1-.683.868 3.3 3.3 0 0 1-2.196.861q-.08 0-.159-.002-.08-.004-.159-.01a4 4 0 0 1-.315-.043 3 3 0 0 1-.462-.12l-.149-.054q-.074-.03-.147-.062a4 4 0 0 1-.283-.144 2 2 0 0 1-.136-.082q-.067-.042-.133-.088a3 3 0 0 1-.25-.196q-.061-.051-.119-.106a4 4 0 0 1-.22-.23 4 4 0 0 1-.286-.381l-.084-.135a4 4 0 0 1-.208-.429q-.03-.074-.056-.149a4 4 0 0 1-.123-.461 3 3 0 0 1-.045-.314 4 4 0 0 1-.014-.318 3 3 0 0 1 .016-.318q.008-.079.019-.158a4 4 0 0 1 .062-.312 3 3 0 0 1 .147-.453 3 3 0 0 1 .064-.146 3 3 0 0 1 .147-.282 4 4 0 0 1 .27-.393 3 3 0 0 1 .21-.238 4 4 0 0 1 .232-.218l.124-.1.128-.094.133-.088a3 3 0 0 1 .277-.156q.07-.035.144-.068a3 3 0 0 1 .296-.114q.076-.025.153-.047m-5.156-31.725c8.418 6.25 17.234 12.055 25.791 18.123l25.723-18.12 15.889 4.631c-4.73 2.435-9.371 5.101-14.043 7.651-1.577.864-3.2 1.691-4.746 2.608l-11.074 6.03c-1.628.888-3.619 1.736-5.094 2.828a496 496 0 0 0-6.65 3.6c-1.665-.905-3.342-1.923-5.06-2.714-.969-.917-3.494-1.961-4.779-2.658l-13.501-7.325c-1.332-.788-2.721-1.495-4.083-2.23l-14.323-7.779zm23.83 65.25a24 24 0 0 1 2.037-.134c3.705-.039 19.145 2.285 21.283 5.148.299.399.288.565.174.999-1.11.421-5.086-1.414-6.456-1.812-4.151-1.206-8.302-1.796-12.591-2.267-6.009-.255-12.271.685-18.04 2.386-1.593.47-3.493 1.652-5.074 1.827-.469.052-.63-.025-.971-.329-.029-.472-.013-.527.332-.897.488-.524 1.477-.895 2.127-1.188 5.274-2.373 11.451-3.254 17.179-3.733"/><path fill="#cb985b" d="M154.067 162.5c.383.067.582.191.897.415.47 1.253-1.132 3.208-1.616 4.462-1.305 3.379.331 6.644 3.278 8.486 1.304.814 3.746 1.027 4.427 2.498-.239.531-.509.564-1.015.829-.511.016-1.028.036-1.538.002-2.302-.153-4.437-1.634-5.898-3.348-1.577-1.85-2.469-4.086-2.242-6.54.254-2.762 1.65-5.027 3.707-6.804m53.133.013c.731.087 1.172.415 1.699.908 1.717 1.604 2.62 4.159 2.683 6.481.064 2.479-1.056 4.712-2.739 6.474-1.811 1.896-3.828 2.79-6.437 2.851-.456-.094-.903-.163-1.313-.396-.286-.162-.192-.112-.301-.476.894-1.663 4.118-1.845 5.51-3.223.837-.829 1.646-1.664 2.174-2.734 1.304-2.642.269-4.884-1.023-7.244-.222-.407-.61-.966-.689-1.424-.096-.568.146-.772.436-1.217m-95.034-25.149c1.578-.141 2.702-.049 4.038.888 1.312.92 2.105 2.38 2.377 3.94.293 1.676.08 3.493-.959 4.884-1.369 1.833-3.958 2.557-6.133 2.819l-.821-.12-.109-.163c1.065-1.073 2.984-1.551 4.265-2.476 1.023-.74 1.794-1.719 1.934-3.007.093-.86-.078-1.72-.374-2.526-1.271-3.465-3.546-1.862-4.719-3.378.042-.491.146-.506.501-.861m4.867 12.098c.13-.014.316-.039.455-.041 1.941-.033 5.479.584 6.945 1.981.638.607 1.545 1.469 1.568 2.409l-.472.236c-1.345-.03-2.74-1.507-4.002-2.043l-.197-.081c-1.51-.402-3.222-.629-4.775-.46-1.302.142-3.817 1.516-4.869 1.119-.109-.419-.051-.617.192-.969 1.066-1.545 3.456-1.795 5.155-2.151m119.478-42.911c.173.065.291.101.448.183.543.282.854.976 1.011 1.538.622 2.235-.08 5.111-1.265 7.039-1.243 2.017-3.45 2.764-5.651 3.298-.489-.151-.848-.325-1.117-.777.157-.895 1.15-1.092 1.904-1.412.849-.359 2.349-.82 3.013-1.445.407-.383.68-1.045.889-1.554 1.196-2.911.057-4.933.424-6.263.061-.224.229-.405.344-.607m-112.908 30.838c.398.033.573.098.9.325.513 1.232-.747 3.372-.542 4.821.532 3.743 3.183 4.937 5.806 7l-.134.297c-1.381.003-2.482-.186-3.689-.896-1.876-1.104-3.011-2.937-3.523-5.017-.621-2.523-.139-4.381 1.182-6.53m108.941-16.056c1.21-.127 2.499-.254 3.701-.013 2.208.443 3.933 2.267 5.085 4.115.342.544.499 1 .342 1.629-.44.174-.513.121-.982.01-2.015-1.863-2.628-3.886-5.734-4.077-1.139-.07-2.386.002-3.507-.211-.452-.087-.65-.164-.897-.564l.135-.349c.55-.431 1.185-.448 1.857-.54"/><path fill="#8b291a" d="M92.328 91.891c-.573-6.426-.98-21.975 3.098-27.16.371 1.217.835 2.262 1.447 3.37 1.686 2.114 3.567 3.65 5.938 4.953l-.002.218c-.061 4.326-.636 5.146.286 9.765 1.624 1.317 3.663 2.306 5.567 3.152.845 3.799 2.715 7.978 5.339 10.908a82 82 0 0 0-.721 8.868c.13 4.326.475 8.591 2.007 12.683.3.802 1.796 3.338 1.865 3.77.021.134-.076.261-.114.392l-.396.385c-.751.577-1.505 1.229-2.296 1.745-1.372 1.008-8.031 6.096-9.106 6.013-.073-.005-.144-.024-.215-.036l-.483-.22c-.146-.144-.094-.112-.268-.211-4.441-2.524-13.18-5.321-18.108-4.047 3.509-3.565 9.651-6.074 14.14-8.354-4.231-3.261-9.593-6.985-12.447-11.557 3.743-.026 6.333-1.786 9.248-3.915-2.962-2.357-6.237-4.797-8.65-7.724-.494-.597-1.68-2.037-1.605-2.787 2.218.737 3.28.586 5.476-.21"/><path fill="#dba2a0" d="M97.034 78.253c.732.821 1.555 1.565 2.35 2.327q1.83 1.266 3.711 2.457c1.624 1.316 3.664 2.305 5.567 3.152.845 3.798 2.715 7.978 5.339 10.908a82 82 0 0 0-.721 8.868c.13 4.326.475 8.591 2.007 12.682.3.803 1.796 3.339 1.865 3.77.021.135-.076.262-.114.393l-.395.385c-5.496-3.421-12.569-8.547-16.76-13.511l-1.506-2.068c.886.012 1.673-.038 2.511-.346 1.446-.532 2.225-1.483 2.858-2.846.428-.867.73-1.732 1.027-2.651-3.058-7.304-7.975-15.365-7.74-23.52"/><path fill="#f3b6b3" d="M113.28 105.964c-5.047-5.755-9.646-12.8-12.509-19.907-.446-1.108-1.85-4.391-1.388-5.479q1.831 1.267 3.711 2.458c1.625 1.316 3.664 2.305 5.568 3.151.845 3.8 2.715 7.979 5.339 10.909a82 82 0 0 0-.721 8.868"/><path fill="#b53925" d="M96.873 68.1c1.686 2.114 3.567 3.65 5.938 4.953l-.002.218c-.06 4.326-.636 5.146.286 9.765a109 109 0 0 1-3.711-2.457c-.794-.762-1.618-1.506-2.35-2.327-.236 8.155 4.681 16.216 7.739 23.521-.297.918-.599 1.783-1.027 2.651-1.118-1.783-2.36-3.498-3.528-5.249-5.752-8.62-5.3-21.278-3.345-31.074m-4.391 40.354c2.486.63 4.837 1.065 7.401 1.23 4.191 4.964 11.265 10.089 16.76 13.51-.752.576-1.506 1.228-2.296 1.745-2.051-1.174-4.15-2.376-6.251-3.454-1.572-.806-3.238-1.479-4.731-2.426-3.7-2.346-8.025-7.272-10.883-10.605"/><path fill="#e5b988" d="M262.584 129.962c2.556-.043 5.546-.323 7.562 1.56 1.402 1.309 2.595 3.469 3.511 5.155 1.141 2.301 1.918 4.664 1.615 7.27-.82 5.085-3.852 10.88-8.088 13.946-3.155 2.283-8.577 2.47-12.394 2.776q.532-4.875.949-9.76c.39-1.724.371-3.756.519-5.53l1.099-14.638.722.155 2.618.858z"/><path fill="#cb985b" d="M273.657 136.678c1.141 2.301 1.918 4.664 1.615 7.269l-.156-1.001c-.169-.12-.17-.135-.396-.217-1.311-.475-3.719.417-4.869 1.077-4.122 2.363-1.941 4.778-2.955 8.208-.212.719-.6 1.615-1.342 1.925-.6.25-1.132.05-1.677-.195-.685-1.34.702-2.882.552-4.31-.16-1.535-1.562-2.676-1.713-4.377-.157-1.76.273-3.549 1.442-4.906 2.149-2.494 6.372-3.286 9.499-3.473"/><path fill="#b53925" d="M197.579 42.458c2.102-.68 5.293-3.24 6.982-4.69.674-.58 1.577-1.85 2.351-2.126.879.49 1.086 1.582 1.357 2.479.323 1.76.595 3.507.604 5.3-.024.333-.024.724-.079 1.052-.113.687-.794 1.612-1.145 2.232-1.718 3.046-2.65 5.746-2.585 9.277-3.442 2.311-6.523 5.865-9.436 8.795l-1.821 1.749c-.715-3.987-1.769-8.312-.879-12.333l-.39-.359c-.55.501-1.078 1.012-1.704 1.417-.139-.994.118-2.099.345-3.067.944-4.007 2.833-7.52 6.4-9.726"/><path fill="#8b291a" d="M197.579 42.458c2.102-.68 5.293-3.24 6.982-4.69.674-.58 1.577-1.85 2.351-2.126.879.49 1.086 1.582 1.357 2.479-1.457 1.035-2.832 2.33-4.352 3.243-4.412 2.647-7.769 3.732-10.062 8.762-.458 1.004-1.055 2.178-1.282 3.264-.042.209-.035.257-.035.444-.55.501-1.078 1.012-1.704 1.417-.139-.994.118-2.099.345-3.067.944-4.007 2.833-7.52 6.4-9.726"/></svg>