<svg xmlns="http://www.w3.org/2000/svg" width="401" height="401" fill="none" viewBox="0 0 401 401"><path fill="#fcd299" d="M143.419 81.942c1.34-.948 2.492-2.152 3.842-3.117a159 159 0 0 1 22.365-13.23 197 197 0 0 1 9.605-4.296 198 198 0 0 1 14.801-5.476 198 198 0 0 1 15.189-4.283c13.164-3.174 28.505-5.507 42.083-5.195 21.653.499 46.927 7.33 67.438 14.46 8.657 3.008 36.078 13.154 39.801 21.662.169.385.191.408.023.805-2.683 1.14-7.101 1.173-10.068 1.524q-3.174.369-6.299 1.033c3.081 3.615 5.488 7.902 7.725 12.077 1.955 3.648 7.552 16.82 6.302 20.245-.136.374-.202.311-.539.462-3.229-.213-10.884-5.607-14.131-7.478a66 66 0 0 0-6.604-3.343l-.104 3.092c.038 1.27.024 2.568.134 3.832.092 1.59.032 3.267.306 4.832.061 1.537.039 3.065.004 4.603.011 2.243.071 4.51-.07 6.749.048 1.713.293 3.551-.524 5.12 2.025 4.107 4.528 7.97 6.213 12.247a220 220 0 0 1 5.937 17.427 220 220 0 0 1 4.461 17.863c1.308 6.099 2.543 12.406 2.948 18.633.09 1.38.477 3.721.11 4.999-.022.08-.08.146-.12.22-2.538-.018-10.275-4.4-12.821-5.766a306 306 0 0 1-.579 13.404l.05.453c-.224.484-.2.474-.689.679-2.578-.251-12.395-6.534-15.087-8.191-.521 1.721-1.26 3.313-2.145 4.872-.445.374-.529.454-1.096.55-2.207-.618-4.573-2.483-6.377-3.899-1.452 1.107-3.596 2.123-5.404 2.467-3.806.723-8.052.163-11.916.122l-18.472-.004c-2.582-.008-11.043-.52-12.918.449l-.214-.15c-.048-.034-.092-.076-.144-.104-.713-.371-38.061-.106-41.927.112-.435.024-.787.038-1.184.238-.074.036-.136.092-.204.136-1.38-.775-8.355-.328-10.26-.31-7.908.042-18.012.615-25.297-2.67-2.362 1.604-4.748 3.321-7.194 4.793l-.121.297c-.206.512-.25 1.149-.715 1.452-.416-.174-.614-.315-.91-.653-.497-1.49-.908-2.939-1.202-4.483-2.258 2.131-8.144 8.391-10.394 9.601-.534-.018-.685-.022-1.125-.373-.706-.565-1.201-1.853-1.563-2.676a40.5 40.5 0 0 1-2.019-5.675 39.6 39.6 0 0 1-1.14-5.912 39 39 0 0 1-.258-4.008c-1.865 1.504-9.451 7.769-11.308 8.016-.348.046-.246.018-.546-.243-.831-2.013-.299-4.975-.181-7.112-1.236.877-2.724 2.696-4.235 2.974l-.238-.264c-.657-2.809-.09-6.483.224-9.336a166 166 0 0 1 2.84-16.702 166 166 0 0 1 4.527-16.327c1.577-4.701 3.515-9.407 5.332-14.023 1.138-2.893 2.479-5.706 3.786-8.525.624-1.343 1.404-2.745 1.865-4.149l.116-.365c.01-.087.014-.174.028-.26.208-1.255 2.666-5.823 3.659-6.476a49 49 0 0 1 .221-6.014c-.137-1.922.14-3.957.274-5.881-.072-2.049-.117-4.143.125-6.181a36 36 0 0 0-.232-3.719c-3.653 1.652-7.133 3.743-10.814 5.297q-.151.302-.319.595c-.304.522-.591.916-1.196 1.077l-.288-.184a3.3 3.3 0 0 1-.322-1.018c-1.448-9.472 4.492-23.241 9.976-30.892-7.538-.603-13.207-.99-20.797-.506"/><path fill="#a46d30" d="M143.419 81.942c1.34-.948 2.492-2.152 3.842-3.117a159 159 0 0 1 16.575-10.269 159 159 0 0 1 5.79-2.961 197 197 0 0 1 9.605-4.296 198 198 0 0 1 14.801-5.476 198 198 0 0 1 15.189-4.283c13.164-3.174 28.505-5.507 42.083-5.195 21.653.499 46.927 7.33 67.438 14.46 8.657 3.008 36.078 13.154 39.801 21.662.169.385.191.408.023.805-2.683 1.14-7.101 1.173-10.068 1.524q-3.174.369-6.299 1.033c3.081 3.615 5.488 7.902 7.725 12.077 1.955 3.648 7.552 16.82 6.302 20.245-.136.374-.202.311-.539.462-3.229-.213-10.884-5.607-14.131-7.478a66 66 0 0 0-6.604-3.343l-.104 3.092c.038 1.27.024 2.568.134 3.832.092 1.59.032 3.267.306 4.832.061 1.537.039 3.065.004 4.603.011 2.243.071 4.51-.07 6.749.048 1.713.293 3.551-.524 5.12-.467.107-.898.164-1.37.058-2.482-.558-4.948-1.473-7.414-2.135a307 307 0 0 0-15.018-3.572l-6.582-1.36c-1.883-.69-5.841-1.085-7.974-1.468-12.192-2.042-24.335-3.626-36.699-4.107-2.402-.523-6.758-.295-9.364-.352l-3.624-.015c-4.775-.063-9.51.117-14.277.18-2.148.029-4.647-.254-6.74.192q-3.231.1-6.462.242c-3.041-.091-8.513.128-11.457.732-3.225.243-6.568.503-9.744 1.117-2.475.199-4.919.757-7.359 1.2-3.579.65-7.116 1.255-10.615 2.267-4.081 1.779-9.75 3.584-12.159 7.648-1.464.168-3.28-.294-4.736-.543.01-.087.014-.174.028-.26.208-1.255 2.666-5.823 3.659-6.476a49 49 0 0 1 .221-6.014c-.137-1.922.14-3.957.274-5.881-.072-2.049-.117-4.143.125-6.181a36 36 0 0 0-.232-3.719c-3.653 1.652-7.133 3.743-10.814 5.297q-.151.302-.319.595c-.304.522-.591.916-1.196 1.077l-.288-.184a3.3 3.3 0 0 1-.322-1.018c-1.448-9.472 4.492-23.241 9.976-30.892-7.538-.603-13.207-.99-20.797-.506"/><path fill="#33404e" d="M278.728 80.467c6.071 1.559 11.962 3.569 17.843 5.723 5.332 2.111 10.481 4.518 15.755 6.734a153 153 0 0 1 10.246 5.255c3.916 2.405 8.827 4.557 12.128 7.74l.252 1.871-.104 3.091c.038 1.27.024 2.568.134 3.832.093 1.59.032 3.267.307 4.832.06 1.538.038 3.066.004 4.604.01 2.242.07 4.509-.07 6.748.048 1.713.292 3.551-.525 5.121-.467.106-.897.163-1.37.057-2.482-.557-4.948-1.473-7.413-2.134a306 306 0 0 0-15.019-3.572l-6.582-1.361c-1.883-.69-5.841-1.085-7.974-1.468-12.192-2.042-24.334-3.626-36.699-4.107-2.402-.523-6.758-.295-9.364-.351l-3.623-.016c-4.776-.063-9.511.117-14.278.18-2.147.029-4.647-.253-6.74.193q-3.231.098-6.462.241c-3.04-.091-8.513.129-11.457.732-3.225.244-6.568.503-9.744 1.118-2.475.199-4.919.756-7.359 1.2-3.579.65-7.115 1.254-10.615 2.267-4.081 1.778-9.75 3.584-12.158 7.648-1.464.167-3.281-.295-4.737-.543.01-.087.014-.175.029-.261.207-1.255 2.666-5.822 3.658-6.475q-.077-3.014.222-6.014c-.138-1.923.14-3.958.273-5.882 6.391-3.894 12.976-7.775 19.683-11.102 8.89-4.409 18.747-8.254 28.119-11.447 3.762-1.281 7.597-2.564 11.425-3.628 2.8-.779 5.781-1.294 8.489-2.339l.262-.103c-1.215 3.274-2.053 8.685-2.485 12.177-.09.722-.327 1.9.128 2.483 2.301-.244 8.332-4.233 10.752-5.428 3.712-1.832 7.68-3.195 11.435-4.957 3.832-1.797 7.463-4.12 11.425-5.614 1.787-.928 3.454-2.058 5.298-2.88a380 380 0 0 0 6.911-4.165"/><path fill="#600000" d="M170.938 121.609c2.429-.831 4.761-1.922 7.183-2.781a112 112 0 0 1 14.232-3.884c39.3-8.3 106.215-7.1 142.94 9.205.01 2.242.07 4.509-.07 6.748.048 1.713.292 3.551-.525 5.121-.467.106-.897.163-1.37.057-2.482-.557-4.948-1.473-7.413-2.134a306 306 0 0 0-15.019-3.572l-6.582-1.361c-1.883-.69-5.841-1.085-7.974-1.468-12.192-2.042-24.334-3.626-36.699-4.107-2.402-.523-6.758-.295-9.364-.351l-3.623-.016c-4.776-.063-9.511.117-14.278.18-2.147.029-4.647-.253-6.74.193q-3.231.098-6.462.241c-3.04-.091-8.513.129-11.457.732-3.225.244-6.568.503-9.744 1.118-2.475.199-4.919.756-7.359 1.2-3.579.65-7.115 1.254-10.615 2.267-4.081 1.778-9.75 3.584-12.158 7.648-1.464.167-3.281-.295-4.737-.543.01-.087.014-.175.029-.261.207-1.255 2.666-5.822 3.658-6.475q-.077-3.014.222-6.014c1.236-.759 2.574-1.227 3.925-1.743"/><path fill="#860303" d="M170.937 121.609c2.429-.831 4.761-1.922 7.183-2.781a112 112 0 0 1 14.232-3.884c39.3-8.3 106.214-7.1 142.94 9.205.01 2.242.07 4.509-.07 6.748-.896-.082-1.871-.7-2.682-1.077-5.068-2.359-10.086-4.253-15.478-5.747-33.21-9.197-78.7-10.845-112.952-6.038-8.428 1.183-16.999 2.71-25.06 5.511-4.338 1.507-8.28 3.561-12.26 5.82q-.076-3.014.221-6.014c1.237-.759 2.575-1.227 3.926-1.743"/><path fill="#2f4960" d="M170.937 121.61c-.067-.277-.116-.269.096-.559.987-1.351 6.515-4.98 8.047-5.826 2.992-1.65 6.141-2.984 9.24-4.412 2.337-1.078 4.612-2.285 6.954-3.353 2.31-1.055 4.689-1.96 7.024-2.96 4.801-2.057 9.556-4.323 14.512-5.992 4.304-1.45 8.737-2.414 13.211-3.167.275 2.269.345 7.476 2.266 8.944.685.523 1.907.455 2.714.401 3.826-.253 7.687-1.336 11.433-2.118 4.08-.852 8.238-1.558 12.273-2.593a378 378 0 0 0 9.249-2.47c1.891-.538 3.806-1.225 5.737-1.591 3.914-.743 41.306 14.062 47.522 16.755 3.956 1.714 10.608 4.583 14.073 6.877.06 1.538.038 3.066.004 4.604-36.726-16.305-103.64-17.504-142.94-9.205a112 112 0 0 0-14.232 3.884c-2.422.859-4.754 1.95-7.183 2.781"/><path fill="#600000" d="M278.727 80.467c6.071 1.559 11.962 3.569 17.843 5.723 5.332 2.111 10.482 4.518 15.755 6.734a153 153 0 0 1 10.246 5.255c3.916 2.405 8.827 4.557 12.128 7.74l.252 1.871-.104 3.091c.038 1.27.024 2.568.135 3.832l-.223.445c-.567.087-1.075-.238-1.558-.506-1.464-.812-2.856-1.767-4.303-2.612a234 234 0 0 0-11.769-6.432 221 221 0 0 0-12.209-5.688 219 219 0 0 0-12.537-4.924 219 219 0 0 0-12.817-4.141 218 218 0 0 0-13.047-3.343c1.786-.928 3.453-2.058 5.298-2.88a383 383 0 0 0 6.91-4.165"/><path fill="#860303" d="M278.727 80.467c6.071 1.559 11.962 3.569 17.843 5.723 5.332 2.111 10.481 4.518 15.755 6.734a153 153 0 0 1 10.246 5.255c3.916 2.405 8.827 4.557 12.128 7.74l.252 1.871-.104 3.091c-.332-.04-.729-.199-1.027-.354-1.911-.993-3.744-2.316-5.607-3.422-5.851-3.475-11.8-7.136-17.899-10.15-9.424-4.659-28.054-11.094-38.498-12.323a380 380 0 0 0 6.911-4.165"/><path fill="#7c4d1a" d="M143.419 81.942c1.34-.948 2.492-2.152 3.842-3.117a159 159 0 0 1 22.365-13.23 197 197 0 0 1 9.605-4.296 198 198 0 0 1 14.801-5.476 198 198 0 0 1 15.189-4.283c13.164-3.174 28.505-5.507 42.083-5.195 21.653.499 46.927 7.33 67.438 14.46 8.657 3.008 36.078 13.154 39.801 21.662.169.385.191.408.023.805-2.683 1.14-7.101 1.173-10.068 1.524q-3.174.369-6.299 1.033c3.081 3.615 5.488 7.902 7.725 12.077 1.955 3.648 7.552 16.82 6.302 20.245-.136.374-.202.311-.539.462-3.229-.213-10.884-5.607-14.131-7.478a66 66 0 0 0-6.604-3.343l-.252-1.87c-3.301-3.183-8.213-5.335-12.129-7.74-.218-2.57-5.774-11.958-7.124-15.43 4.885 4.232 8.889 9.862 12.438 15.244-.194-2.63-.568-5.282-.56-7.92 2.974 2.9 5.093 7.271 6.519 11.153 2.268 1.269 4.623 2.491 6.793 3.915 4.655 3.056 9.328 7.177 13.211 11.161-1.384-3.188-2.808-6.385-4.49-9.428-4.197-7.59-12.058-18.42-18.911-23.706-1.843-1.422-4.022-2.608-6.097-3.667l-.204-.386.18-.328c2.127-.585 8.445 1.25 10.572 1.964-1.931-1.144-4.579-2.284-6.243-3.726l.028-.456c1.133-.758 7.645.402 9.38.741 5.256 1.028 10.301 3.028 15.505 4.277a114.3 114.3 0 0 0-17.683-9.13 114 114 0 0 0-11.279-3.951c-3.142-.898-6.391-1.553-9.576-2.292 1.346 2.011 2.83 3.959 4.082 6.03 1 1.653 4.922 9.382 4.661 11.198l-.298.15c-.581-.27-7.295-7.414-8.711-8.681-3.466-3.102-8.605-6.859-12.792-9.001 2.114 2.383 10.46 13.857 10.404 16.45-.006.315-.028.343-.1.61l-.263.205c-2.025-.813-6.547-5.862-8.548-7.656a120 120 0 0 0-6.326-5.306 116 116 0 0 0-5.775-4.254 118 118 0 0 0-9.121-5.698 119 119 0 0 0-6.358-3.322 118 118 0 0 0-3.251-1.513c-.727 1.826-1.606 4.218-3.223 5.431l-.36-.055c-.887-1.349-.16-3.272-.865-4.569l-.071.298c-.468 1.912-3.002 7.679-4.797 8.48-.25.11-.264.097-.498.125-.291-.2-.457-.263-.479-.657-.062-1.161.216-2.526.306-3.698.259-3.313-.264-6.438-1.5-9.512-2.694-.786-5.21-.766-7.902-1.269l-.162.129c-.891.74-1.492 2.248-2.432 2.727-.406-.222-.386-.318-.521-.745-.118-.368-.104-.714-.116-1.094-.01-.286-.028-.572-.04-.858-3.808 3.131-7.185 6.686-9.634 11.006l-.331.136c-.412-.366-.462-.648-.509-1.198-.158-1.877.313-3.991.665-5.83-4.368 3.389-8.677 7.251-12.45 11.303-1.17 1.254-3.347 5.025-4.9 5.315-.332-.325-.32-.346-.33-.795-.112-4.729 6.47-13.571 9.753-16.88-8.349 2.67-16.523 5.648-24.73 8.724.315 2.397-.216 6.143-1.394 8.257l-.346.238c-.86-.45-1.685-3.445-2.252-4.41-.396-.678-1.039-1.18-1.638-1.674-2.297 2.993-4.734 6.68-5.637 10.403-.308 1.27-.334 2.618-.67 3.875-.201.752-.306 1.27-1.133 1.385-.535-.293-.713-.677-.882-1.237-.858-2.848-.941-6.415-.384-9.335-7.355 6.366-12.254 15.965-15.001 25.189-.195.654-.913 3.629-1.343 3.864-.121.066-.276.018-.415.027-.79-.595-.921-1.233-1.061-2.185-.757-5.173.071-10.55 1.286-15.583-6.697 7.646-12.138 16.032-16.82 25.029-1.206 2.317-2.483 4.656-3.453 7.084q-.151.302-.319.595c-.304.522-.591.916-1.196 1.077l-.288-.184a3.3 3.3 0 0 1-.322-1.018c-1.448-9.472 4.492-23.241 9.976-30.892-7.538-.603-13.207-.99-20.797-.506"/><path fill="#600000" d="M223.586 82.11c3.405-.9 12.431-4.24 15.441-3.943-.338 1.414-1.015 3.362-1.748 4.614-.639 2.02-1.2 4.116-2.015 6.07l-.263.104c-2.708 1.045-5.688 1.56-8.489 2.34-3.827 1.064-7.663 2.346-11.425 3.627-9.372 3.193-19.229 7.038-28.119 11.447-6.707 3.327-13.292 7.208-19.683 11.102-.072-2.049-.117-4.143.125-6.181a36 36 0 0 0-.231-3.718l-.008-.319c.657-1.693 12.774-7.574 15.196-8.754l8.173-3.834c2.952-1.294 6.005-2.406 8.917-3.776a438 438 0 0 1 24.129-8.779"/><path fill="#860303" d="M223.586 82.11c3.405-.9 12.431-4.24 15.441-3.943-.338 1.414-1.015 3.362-1.748 4.614-4.928.35-10.216 2.242-14.915 3.735-7.988 2.54-16.206 5.308-23.851 8.762a168 168 0 0 0-18.409 9.914c-4.378 2.673-8.513 5.259-12.584 8.407-.034-.766-.039-1.545-.11-2.309a36 36 0 0 0-.231-3.718l-.008-.319c.657-1.693 12.774-7.574 15.196-8.754l8.173-3.834c2.952-1.294 6.005-2.406 8.917-3.776a438 438 0 0 1 24.129-8.779"/><path fill="#7c4d1a" d="M239.027 78.167c.703-2.024 5.817-10.502 7.447-11.413l.353.08c.094.407.052.683-.046 1.08-.457 1.82-1.244 3.605-1.841 5.388-.779 2.331-1.392 4.809-1.913 7.213-.671 3.09-.869 6.336-.847 9.495 1.929-.724 3.86-1.468 5.811-2.135 2.527-.865 6.135-1.468 8.266-3.02 1.973-1.435 4.723-5.273 6.023-7.411 1.539-2.532 2.46-5.519 4.261-7.885-.403 4.504-1.31 7.799-3.031 11.946.867-.883 2.356-3.118 3.485-3.315.349.356.475.658.491 1.17.016.594-.126 1.223-.162 1.82 3.523-1.314 7.01-2.715 10.357-4.44 1.845-.952 3.75-2.306 5.657-3.06.39-.155.535-.066.921.051.181.462.134.668-.088 1.116-.763 1.534-4.004 4.703-5.444 5.62a383 383 0 0 1-6.91 4.166c-1.845.821-3.512 1.952-5.298 2.88-3.962 1.494-7.594 3.817-11.426 5.614-3.755 1.762-7.723 3.124-11.435 4.957-2.419 1.195-8.451 5.184-10.752 5.428-.455-.583-.218-1.761-.128-2.484.432-3.49 1.27-8.903 2.486-12.177.815-1.954 1.376-4.05 2.015-6.07.733-1.252 1.41-3.2 1.748-4.614m-27.663 7.395c1.434-.943 2.742-2.148 4.06-3.247 2.992-2.494 5.947-5.055 9.212-7.191 1.554-1.016 6.632-4.48 8.444-3.958.315.09.233.087.415.392-.513.897-1.805 1.58-2.582 2.278-1.61 1.445-6.69 6.264-7.277 8.038-.024.076-.032.157-.05.236a438 438 0 0 0-24.129 8.778c1.635-1.62 15.218-14.263 16.333-14.73.355-.149.473-.092.809.029.157.427.211.308-.004.709-.436.81-1.139 1.614-1.674 2.373-1.41 2.006-2.682 3.992-3.557 6.293m77.33-9.279c5.646 1.644 9.937 7.336 13.58 11.654l-.006-.394c-.024-1.127-.913-6.639-.452-7.153 1.919 1.098 5.368 7.986 6.441 10.207.08-1.54.195-3.087.229-4.63 1.72 2.18 2.798 4.386 3.839 6.958-5.273-2.216-10.423-4.623-15.755-6.734-2.061-3.633-5.104-6.812-7.876-9.908M182.367 98.499c1.16-5.126 3.929-13.76 7.822-17.19-1.31 4.97-2.12 8.789-2.486 13.928.407-.962 1.091-3.213 2.056-3.694l.332.207c.412.938.373 1.904.449 2.915z"/><path fill="#a46d30" d="M207.716 124.413c2.945-.604 8.417-.823 11.458-.732-2.574.383-5.182.51-7.738 1.004a267 267 0 0 1-10.458 12.1c-1.386 1.535-2.912 3.587-4.613 4.769l-.377.04c-.987-.967-.907-3.117-1.031-4.422-3.629 5.354-7.738 10.32-11.451 15.601-.559.259-.674.319-1.28.264-2.409-4.66-5.136-8.451-6.602-13.647-1.074 2.285-2.405 4.44-3.459 6.739.028 1.394-.165 5.776.294 6.829.664 2.577.525 5.747.653 8.408.337 6.989.499 13.992.799 20.985.144 3.343.734 6.929.595 10.238.031.073.065.144.093.218.34.875.476 1.817.822 2.702 1.883 4.809 4.934 8.539 8.961 11.73.88.697 2.649 1.655 3.181 2.556-2.362 1.604-4.748 3.321-7.194 4.793l-.121.297c-.206.512-.25 1.149-.716 1.452-.415-.175-.613-.315-.909-.653-.497-1.49-.908-2.939-1.202-4.483-2.258 2.131-8.144 8.391-10.394 9.6-.535-.018-.685-.022-1.125-.372-.706-.565-1.201-1.853-1.563-2.676a39 39 0 0 1-1.442-3.75 40 40 0 0 1-1.437-5.847 39 39 0 0 1-.539-5.999c-1.865 1.505-9.45 7.77-11.307 8.016-.348.047-.247.018-.546-.242-.831-2.013-.299-4.975-.181-7.113-1.236.878-2.724 2.696-4.235 2.975l-.238-.265c-.657-2.808-.09-6.482.224-9.335a166 166 0 0 1 2.839-16.702 167 167 0 0 1 4.527-16.327c1.578-4.701 3.516-9.407 5.333-14.024 1.138-2.892 2.479-5.705 3.786-8.524.623-1.344 1.404-2.745 1.865-4.149l.116-.365c1.456.249 3.272.711 4.736.543 2.408-4.064 8.078-5.869 12.159-7.648 3.499-1.013 7.036-1.617 10.615-2.267 2.44-.443 4.884-1.001 7.359-1.2 3.176-.615 6.519-.874 9.743-1.117"/><path fill="#7c4d1a" d="M163.104 136.102c1.456.249 3.272.711 4.736.543-1.313 3.607-3.025 7.074-4.298 10.693-5.074 14.425-8.573 31.42-9.463 46.652 3.837-2.04 7.896-4.599 12.112-5.673-4.603 4.968-10.362 9.078-15.707 13.221 4.201-1.628 8.458-3.111 12.655-4.744 3.115-1.212 6.351-2.832 9.604-3.601.258-.061.426-.038.673.048l.142.319c-1.23 1.648-3.825 3.058-5.529 4.264-1.272 6-1.421 12.251-.956 18.354 2.162-1.978 11.774-9.376 14.13-10.141l.352.126c.526 2.332-1.452 5.847-1.186 8.425l-.121.297c-.206.512-.25 1.149-.716 1.452-.415-.175-.613-.315-.909-.653-.497-1.49-.908-2.939-1.202-4.483-2.258 2.131-8.144 8.391-10.394 9.6-.535-.018-.685-.022-1.125-.372-.706-.565-1.201-1.853-1.563-2.676a39 39 0 0 1-1.442-3.75 40 40 0 0 1-1.437-5.847 39 39 0 0 1-.539-5.999c-1.865 1.505-9.45 7.77-11.307 8.016-.348.047-.247.018-.546-.242-.831-2.013-.299-4.975-.181-7.113-1.236.878-2.724 2.696-4.235 2.975l-.238-.265c-.657-2.808-.09-6.482.224-9.335a166 166 0 0 1 2.839-16.702 167 167 0 0 1 4.527-16.327c1.578-4.701 3.516-9.407 5.333-14.024 1.138-2.892 2.479-5.705 3.786-8.524.623-1.344 1.404-2.745 1.865-4.149zm44.612-11.689c2.945-.604 8.417-.823 11.458-.732-2.574.383-5.182.51-7.738 1.004a267 267 0 0 1-10.458 12.1c-1.386 1.535-2.912 3.587-4.613 4.769l-.377.04c-.987-.967-.907-3.117-1.031-4.422-3.629 5.354-7.738 10.32-11.451 15.601-.559.259-.674.319-1.28.264-2.409-4.66-5.136-8.451-6.602-13.647-1.074 2.285-2.405 4.44-3.459 6.739l-.102.175-.174.288c-.377.642-.645 1.067-1.236 1.532l-.314-.055c-.02-.091-.044-.182-.061-.275-.568-3.049 2.676-9.879 4.328-12.451a29 29 0 0 1-.384-2.978c1.771 1.56 3.128 3.692 4.62 5.521 1.79 2.194 3.715 4.192 5.749 6.158 1.538-2.326 13.717-16.222 15.816-16.676l.245.248c-.042 2.065-2.149 4.901-3.203 6.695 1.952-1.512 3.756-3.276 5.626-4.894 1.971-1.705 4.031-3.26 6.116-4.821l-.066-.149z"/><path fill="#7c4d1a" d="M174.506 192.589c-.356-.222-.648-.393-.888-.748-1.188-1.762-1.735-4.226-2.245-6.258-2.144-8.547-3.364-18.403-1.459-27.066.372-1.691 1.021-4.577 2.545-5.559.664 2.577.525 5.747.654 8.408.337 6.99.499 13.992.799 20.985.143 3.343.733 6.929.594 10.238m5.493-63.591c3.5-1.013 7.036-1.617 10.615-2.267 2.44-.444 4.884-1.001 7.359-1.2-1.051 1.289-3.969 5.514-5.159 5.999-.599-.496-.879-1.245-1.216-1.928-1.097 1.567-5.317 7.676-6.814 8.041-1.574-.637-3.927-6.892-4.785-8.645"/><path fill="#a46d30" d="M306.777 140.548c-.12-3.824-2.644-7.565-2.862-11.376l.399-.163 6.582 1.361a306 306 0 0 1 15.018 3.572c2.466.661 4.932 1.577 7.413 2.134.473.106.904.049 1.37-.057 2.025 4.107 4.529 7.969 6.214 12.247a217 217 0 0 1 3.15 8.651q1.487 4.359 2.787 8.776a220 220 0 0 1 4.46 17.862c1.308 6.099 2.544 12.406 2.949 18.633.09 1.38.476 3.721.11 4.999-.022.08-.08.147-.12.221-2.538-.018-10.276-4.401-12.822-5.767q-.141 6.708-.578 13.404l.05.453c-.225.485-.201.475-.689.679-2.578-.251-12.395-6.534-15.087-8.19-.521 1.72-1.26 3.313-2.145 4.871-.445.374-.529.455-1.096.551-2.207-.619-4.573-2.484-6.378-3.9.97-1.302 2.905-2.34 4.141-3.445 4.274-3.822 6.812-9.224 8.116-14.722.372-1.093 1.078-1.906 1.787-2.798.849-3.431 1.275-7.515 1.121-11.046-.094-1.244-.422-2.163-1.075-3.224-1.268-.767-2.606-1.428-3.918-2.116-.06-7.73.192-15.457.19-23.188a66.6 66.6 0 0 1-6.974 7.319c-.253.894-.373 1.72-.952 2.463l-.328-.033c-.611-1.145-.525-2.954-.547-4.229-2.698-5.563-5.31-11.3-7.67-17.014-.781 1.012-1.356 2.224-2.435 2.953z"/><path fill="#7c4d1a" d="M306.777 140.548c-.12-3.824-2.644-7.565-2.862-11.376l.399-.163 6.582 1.361a306 306 0 0 1 15.018 3.572c2.466.661 4.932 1.577 7.413 2.134.473.106.904.049 1.37-.057 2.025 4.107 4.529 7.969 6.214 12.247a217 217 0 0 1 3.15 8.651q1.487 4.359 2.787 8.776a220 220 0 0 1 4.46 17.862c1.308 6.099 2.544 12.406 2.949 18.633.09 1.38.476 3.721.11 4.999-.022.08-.08.147-.12.221-2.538-.018-10.276-4.401-12.822-5.767-2.101-1.272-7.102-3.194-8.472-4.845l.166-.183c2.566.017 5.306 1.635 7.832 2.251 3.036.74 6.123 1.004 9.228 1.274-.317-4.72-1.855-9.298-3.199-13.803-4.273-14.321-9.304-27.175-16.461-40.29-1.39-2.547-2.764-5.387-4.629-7.626l-.923 2.018c-2.126 5.245-4.357 10.457-6.077 15.852-.253.894-.373 1.72-.952 2.463l-.328-.033c-.611-1.145-.525-2.954-.547-4.229-2.698-5.563-5.31-11.3-7.67-17.014-.781 1.012-1.356 2.224-2.435 2.953z"/><path fill="#a46d30" d="M306.777 140.548c-.12-3.824-2.644-7.565-2.862-11.376l.399-.163 6.582 1.361c.592 2.018 2.433 10.514 3.367 11.629l.222.042c1.1-2.419 1.618-5.908 2.684-8.593.2 7.038-.106 14.012-.106 21.042-2.698-5.563-5.31-11.3-7.67-17.014-.781 1.012-1.356 2.224-2.435 2.953z"/><path fill="#e1a469" d="m308.27 134.86 1.124 2.616c-.781 1.012-1.356 2.224-2.436 2.953.268-1.872.823-3.745 1.312-5.569"/><path fill="#7c4d1a" d="M329.536 173.096c1.012.066 1.641.462 2.293 1.238 2.416 2.87 2.721 8.34 2.32 11.898-.268 2.393-1.426 6.081-3.355 7.635-.116.094-.24.178-.359.271-.17.133-.334.271-.502.406l-.699 1.999c1.92 1.522 7.689 5.855 8.196 8.056-.104.316-.03.338-.287.461-1.464.693-5.476-1.234-7.078-1.653 3.603 3.834 7.076 7.922 10.782 11.638l.05.452c-.224.485-.2.475-.689.679-2.578-.25-12.395-6.533-15.087-8.19-.52 1.721-1.26 3.313-2.145 4.871-.445.375-.529.455-1.095.551-2.208-.619-4.573-2.484-6.378-3.9.969-1.302 2.904-2.339 4.14-3.445 4.275-3.822 6.812-9.223 8.116-14.722.373-1.092 1.078-1.906 1.787-2.797.849-3.432 1.276-7.516 1.122-11.046-.094-1.244-.423-2.164-1.076-3.225z"/><path fill="#e1a469" d="M324.967 140.436c1.282 2.399 4.002 6.966 4.584 9.471.257 1.107.227 21.559-.016 23.188l.057 1.178c-1.268-.766-2.606-1.428-3.918-2.116-.06-7.73.192-15.457.19-23.187a66.5 66.5 0 0 1-6.975 7.318c1.721-5.395 3.952-10.607 6.078-15.852m-152.803 5.693c1.055-2.299 2.385-4.455 3.46-6.74 1.466 5.197 4.193 8.987 6.602 13.647-1.473-.747-2.687-1.842-3.892-2.958a844 844 0 0 1 1.637 26.509c.206 4.046-.003 10.461 1.093 14.219a29 29 0 0 0 .656 1.981 27 27 0 0 0 .801 1.926q.219.474.454.94a28.05 28.05 0 0 0 7.11 8.908c2.147 1.78 5.127 3.407 7.916 3.811 3.133.455 6.785-.018 9.982-.078a788 788 0 0 1 16.268-.064l43.105.076c10.992.008 22.155.267 33.108-.817 7.571-.751 13.831-4.152 18.66-10.029 1.402-1.707 2.397-3.432 3.341-5.417-2.939-.994-14.288-5.266-15.586-7.688-.262-.493-.36-1.167-.194-1.703.367.393.643.629 1.15.825 2.321.9 4.823 1.457 7.185 2.264 3.703 1.266 9.31 3.656 12.739 5.6-1.304 5.498-3.842 10.9-8.116 14.722-1.236 1.105-3.171 2.143-4.141 3.445-1.452 1.108-3.595 2.123-5.404 2.468-3.806.723-8.052.162-11.916.122l-18.471-.004c-2.582-.008-11.043-.521-12.918.449l-.214-.151c-.048-.034-.092-.076-.144-.104-.714-.37-38.062-.106-41.928.112-.434.024-.787.038-1.183.239-.074.036-.136.092-.205.136-1.38-.775-8.354-.329-10.259-.311-7.908.043-18.012.615-25.297-2.67-.532-.901-2.302-1.858-3.181-2.555-4.027-3.191-7.078-6.921-8.961-11.73-.346-.885-.482-1.827-.822-2.703q-.044-.109-.094-.218c.14-3.309-.45-6.895-.594-10.238-.3-6.993-.462-13.995-.799-20.985-.128-2.661.01-5.831-.654-8.408-.458-1.052-.265-5.435-.294-6.828"/><path fill="#7c4d1a" d="M225.636 123.439c2.093-.446 4.593-.164 6.74-.192 4.767-.064 9.502-.243 14.277-.181l3.624.016c2.606.056 6.962-.171 9.364.351-.617.01-1.186-.034-1.771.18.309 2.325 4.124 7.539 5.733 9.41.262.485.432.592.292 1.141l-.29.28c-2.46.743-4.823 1.102-7.381 1.323-.301 2.912-.305 6.825-1.038 9.562.381.497.765.931.926 1.55l-.223.232c-1.101-.171-2.217-.905-3.187-1.441a131 131 0 0 1-5.095-3.528 133 133 0 0 1-14.224-11.953c-2.071-2.044-3.767-4.555-5.872-6.529-.377-.353-1.364-.227-1.875-.221"/><path fill="#a46d30" d="M250.276 123.082c2.606.057 6.963-.171 9.364.351-.617.01-1.185-.034-1.77.18.308 2.326 4.124 7.539 5.732 9.41.263.485.433.593.293 1.141l-.291.281c-2.459.742-4.823 1.102-7.381 1.322-.3 2.912-.304 6.826-1.037 9.562-.247-.351-.435-.756-.639-1.134-4.679-5.758-8.617-12.192-12.734-18.361 3.243 2.024 6.348 3.962 10.304 3.409-1.975-1.935-3.708-4.047-5.464-6.176z"/><path fill="#7c4d1a" d="M250.276 123.083c2.606.056 6.963-.172 9.364.351-.616.01-1.185-.035-1.77.179.308 2.326 4.124 7.54 5.732 9.411.263.485.433.592.293 1.14l-.291.281-.466-.005c-3.758-1.594-7.211-5.35-9.667-8.522-.533-.687-.897-1.49-1.418-2.17-.467-.608-1.07-.552-1.777-.665"/><path fill="#e1a469" d="M252.382 132.484q5.334 1.224 10.756 1.956l.467.005c-2.46.743-4.824 1.102-7.381 1.323-.301 2.912-.305 6.825-1.038 9.562-.246-.352-.435-.757-.639-1.134a505 505 0 0 0-2.165-11.712"/><path fill="#fefefe" d="M306.686 182.652c-.081-2.796-.78-4.726.484-7.5 1.268-2.781 3.922-5.145 6.827-6.113 4.014-1.337 8.196 1.401 11.677 3.118 1.312.688 2.65 1.349 3.918 2.116.653 1.061.982 1.98 1.076 3.224.154 3.531-.273 7.615-1.122 11.046-.709.892-1.414 1.705-1.787 2.798-3.429-1.944-9.035-4.334-12.739-5.6-2.361-.807-4.863-1.364-7.185-2.264-.506-.196-.783-.432-1.149-.825"/><path fill="#dcdcdc" d="M329.545 188.544c-2.966-2.054-6.47-2.871-9.436-4.8-1.13-.733-2.069-1.795-2.338-3.147-.236-1.189.091-2.383.806-3.35 4.066-5.5 10.762.426 12.09.251.154 3.53-.273 7.614-1.122 11.046"/><path fill="#e1a469" d="M225.636 123.44c.511-.005 1.498-.132 1.875.221 2.105 1.974 3.801 4.485 5.872 6.529a133 133 0 0 0 14.224 11.954 132 132 0 0 0 5.096 3.527c-10.372-2.217-23.632-10.803-31.562-17.787q-2.744.195-5.476.5c-3.471 3.272-16.779 16.349-19.828 17.705-.487-.148-.673-.375-.909-.832-.371-.718-.569-1.716-.803-2.498-1.571 1.626-3.269 3.121-4.835 4.747-1.369 1.421-2.633 3.016-4.105 4.328-.502.447-1.056.702-1.678.94 3.712-5.281 7.821-10.248 11.45-15.601.125 1.305.045 3.454 1.032 4.422l.377-.041c1.7-1.181 3.226-3.233 4.613-4.768a267 267 0 0 0 10.457-12.101c2.556-.493 5.164-.62 7.738-1.004q3.231-.142 6.462-.241m34.005-.006c12.365.481 24.507 2.066 36.699 4.108 2.133.383 6.091.777 7.974 1.468l-.398.162c.218 3.812 2.742 7.552 2.862 11.376l-.11.17c-1.935.739-5.541-2.869-6.999-4.076-1.732-1.434-4.352-4.101-6.231-4.994-2.037-.969-4.547-1.218-6.762-1.557-5.535-.846-10.939-1.39-16.537-1.412-2.502-.01-5.008.166-7.51.205q.499 2.067.974 4.14c-1.609-1.871-5.424-7.085-5.733-9.41.585-.214 1.154-.17 1.771-.18"/><path fill="#7c4d1a" d="M296.34 127.541c2.133.383 6.091.777 7.974 1.468l-.399.162c.219 3.812 2.742 7.552 2.863 11.376l-.111.17c-2.159-.58-8.707-10.753-10.327-13.176"/><path fill="#fefefe" d="M201.227 144.113c1.848-3.476 7.789-6.46 11.403-7.583a26 26 0 0 1 3.753-.896 27 27 0 0 1 2.558-.287 28 28 0 0 1 1.929-.05q.322.003.643.015a27 27 0 0 1 1.286.077q.32.026.641.062.318.035.639.077a27 27 0 0 1 3.776.792 27 27 0 0 1 4.202 1.61q.288.141.575.288c4.971 2.625 9.486 7.329 11.189 12.772.156.499.206.844.082 1.364.741.728.831 2.615.839 3.65.044 5.075-1.771 11.2-5.108 15.092-.657 2.355-3.313 4.207-5.354 5.365-6.812 3.866-16.106 4.279-23.537 2.202-1.422-.398-3.644-1.102-4.457-2.387-.781-.246-1.616-.996-2.233-1.542-4.402-3.889-7.126-9.934-7.466-15.769-.313-5.355 1.033-10.782 4.64-14.852"/><path fill="#f5a168" d="M201.227 144.113c1.848-3.476 7.789-6.46 11.403-7.583a26 26 0 0 1 3.753-.896 27 27 0 0 1 2.558-.287 28 28 0 0 1 1.929-.05q.322.003.643.015a27 27 0 0 1 1.286.077q.32.026.641.062.318.035.639.077a27 27 0 0 1 3.776.792 29 29 0 0 1 1.834.602 28 28 0 0 1 1.196.475q.297.126.589.26.292.133.583.273.288.141.575.288c4.971 2.625 9.486 7.329 11.189 12.772.156.499.206.844.082 1.364-8.94-2.787-17.394-5.007-26.662-6.397-2.48-.371-15.181-1.403-16.014-1.844m5.059 32.163c5.026-3.548 27.139-5.874 33.348-5.18-.657 2.355-3.313 4.207-5.354 5.365-6.812 3.866-16.106 4.279-23.537 2.202-1.422-.398-3.644-1.102-4.457-2.387"/><path fill="#000" d="M232.281 150.247a4 4 0 0 1 .499-.009 5 5 0 0 1 1.234.189 5 5 0 0 1 .703.255q.114.052.226.108a5 5 0 0 1 .435.248q.104.067.206.139t.2.15q.1.077.195.159.094.081.184.168.09.085.176.177a5 5 0 0 1 .968 1.448q.05.114.096.231.043.116.084.235a5 5 0 0 1 .184.726 4 4 0 0 1 .036.247q.017.124.026.249a4 4 0 0 1 .014.5 4 4 0 0 1-.012.25 4 4 0 0 1-.058.496 5 5 0 0 1-.178.728 5 5 0 0 1-.178.467l-.104.227a5 5 0 0 1-.381.645 5 5 0 0 1-.471.583 5 5 0 0 1-.36.348 7 7 0 0 1-.19.16 6 6 0 0 1-.407.292 5 5 0 0 1-.433.25 4 4 0 0 1-.454.208 5.1 5.1 0 0 1-1.707.361q-.126.004-.252.003a4 4 0 0 1-.255-.01 4.6 4.6 0 0 1-.751-.102 6 6 0 0 1-.489-.13 6 6 0 0 1-.474-.177 5 5 0 0 1-.455-.224 5 5 0 0 1-.429-.267 6 6 0 0 1-.402-.308 6 6 0 0 1-.189-.168 6 6 0 0 1-.352-.364 6 6 0 0 1-.455-.607 8 8 0 0 1-.132-.216l-.12-.222a4 4 0 0 1-.208-.462 5 5 0 0 1-.161-.48 7 7 0 0 1-.062-.245 5.4 5.4 0 0 1-.128-1.003v-.253q.002-.127.012-.253l.024-.252q.017-.126.036-.25a7 7 0 0 1 .05-.249 7 7 0 0 1 .134-.487q.04-.121.087-.239a5 5 0 0 1 .324-.686 5.4 5.4 0 0 1 .421-.63 4 4 0 0 1 .162-.195 4 4 0 0 1 .348-.366 6 6 0 0 1 .385-.33q.1-.077.204-.15.105-.072.211-.14a5.4 5.4 0 0 1 .671-.355 6 6 0 0 1 .472-.18 5 5 0 0 1 .489-.132 6 6 0 0 1 .499-.083q.126-.015.252-.023"/><path fill="#fefefe" d="M257.88 152.971q.014-.121.026-.244c.078-.787.162-1.446.511-2.167.677-1.398 1.654-2.606 2.594-3.833 3.246-4.237 6.892-7.507 11.992-9.342 7.268-2.615 14.72-1.402 21.544 1.89 1.632.788 5.362 2.584 5.977 4.352l.23-.073c3.427 4.477 4.551 11.629 3.834 17.102-.689 5.27-3.028 10.449-7.307 13.725q-.27.204-.547.4-.274.197-.557.386a26 26 0 0 1-1.722 1.075 24 24 0 0 1-1.19.645 29 29 0 0 1-2.47 1.109q-.316.124-.635.239-.318.116-.639.223a26 26 0 0 1-1.294.399 25 25 0 0 1-1.312.335 30 30 0 0 1-1.325.27 32 32 0 0 1-1.341.204 30 30 0 0 1-1.346.138 25 25 0 0 1-.677.043 25 25 0 0 1-1.352.039q-.34 0-.679-.006a30 30 0 0 1-1.352-.063q-.338-.023-.675-.056a26 26 0 0 1-1.344-.161c-6.223-.876-12.232-4.028-16.03-9.107-3.247-4.342-4.467-9.636-3.661-14.973.122-.804.25-1.748.607-2.478z"/><path fill="#f5a168" d="M257.88 152.971q.014-.121.026-.244c.078-.787.162-1.446.511-2.167.677-1.398 1.654-2.606 2.594-3.833 3.246-4.237 6.892-7.507 11.992-9.342 7.269-2.615 14.72-1.402 21.544 1.89 1.632.788 5.362 2.584 5.977 4.352-.254.182-.463.413-.777.449-2.939.345-5.919.429-8.867.727-6.106.616-12.033 1.651-17.968 3.212-3.116.819-6.309 1.623-9.348 2.697-1.826.646-3.829 1.943-5.684 2.259"/><path fill="#000" d="M268.977 149.78a5.2 5.2 0 0 1 2.221.01 5 5 0 0 1 .944.314q.114.05.224.106a4 4 0 0 1 .433.245 5 5 0 0 1 .408.286 5 5 0 0 1 .721.683 4 4 0 0 1 .309.391q.072.1.138.206a5 5 0 0 1 .248.431q.057.111.109.224.05.113.096.23.045.116.086.233a5 5 0 0 1 .226.968q.017.123.026.247.01.124.016.248.005.124.002.249a7 7 0 0 1-.03.497 5.2 5.2 0 0 1-.997 2.513 5 5 0 0 1-.157.195 4.7 4.7 0 0 1-.705.699 5 5 0 0 1-.829.549 6 6 0 0 1-.449.212 5 5 0 0 1-.873.272 5 5 0 0 1-.501.082q-.084.01-.168.016a5 5 0 0 1-.507.016 5 5 0 0 1-.338-.018q-.084-.007-.168-.017t-.169-.023a4 4 0 0 1-.496-.101l-.165-.044-.16-.05q-.08-.026-.16-.056a4 4 0 0 1-.315-.126l-.154-.071a11 11 0 0 1-.298-.156q-.074-.042-.147-.086a7 7 0 0 1-.282-.186q-.07-.049-.136-.099a4.4 4.4 0 0 1-.631-.564 4 4 0 0 1-.224-.253 5 5 0 0 1-.209-.267l-.096-.139a3 3 0 0 1-.092-.142 4 4 0 0 1-.17-.292 5 5 0 0 1-.281-.615 8 8 0 0 1-.11-.321l-.046-.162a6 6 0 0 1-.078-.33l-.03-.166-.026-.168-.018-.168-.014-.168a3 3 0 0 1-.008-.17q-.002-.084-.002-.169t.002-.169l.008-.169q.006-.084.016-.169l.018-.168.026-.167a5 5 0 0 1 .108-.496l.048-.162a4 4 0 0 1 .174-.477q.033-.078.068-.155a4 4 0 0 1 .151-.303q.039-.073.084-.147a4 4 0 0 1 .278-.425l.102-.135a7 7 0 0 1 .331-.384q.059-.061.12-.12.06-.06.122-.117l.126-.112a4 4 0 0 1 .265-.212 3 3 0 0 1 .136-.099l.14-.095.145-.09q.072-.044.146-.085a5 5 0 0 1 .3-.156l.152-.07a5 5 0 0 1 .475-.18l.162-.05.165-.044q.081-.021.164-.039m-32.409 29.826c.238.046.503.2.725.3l.072.34c-.631.884-2.658 1.27-3.663 1.596 2.492 1.832 5.55 3.119 8.398 4.31 11.958 5.001 27.438 8.675 39.82 3.599-.729-1.556-1.885-2.935-2.9-4.314 1.568.683 3.673 1.825 4.421 3.432.348.746.338 1.567.056 2.331-1.156 3.114-5.607 5.331-8.449 6.562-9.548 3.772-20.595 4.469-30.746 3.447-5.182-.521-12.008-1.347-16.623-3.759-1.537-.802-2.949-1.932-4.305-3.005-1.194-.946-2.419-1.91-3.363-3.116-.442-.565-.793-1.11-.703-1.856 1.364-2.279 9.246-6.64 11.828-7.847 1.769-.826 3.561-1.47 5.432-2.02"/><path fill="#fefefe" d="M225.951 185.895c2.058.023 3.972.144 5.859 1.059 1.879.912 3.417 2.462 4.096 4.46.862 2.527.217 4.805-.889 7.109-1.268-.283-2.526-.734-3.768-1.117-4.16-1.332-8.683-4.086-11.309-7.626 1.933-1.391 3.996-2.617 6.011-3.885m31.914 6.256c1.583-.095 3.444.375 5.032.563 2.007.239 3.994.347 6.013.382 1.058 1.786 1.304 3.101 1.25 5.14-2.073.541-4.144.955-6.247 1.343q-4.928.69-9.901.847c-.277-1.844-.703-3.259-1.679-4.862 1.691-1.799 3.029-2.903 5.532-3.413m-16.1.039a11 11 0 0 1 1.032-.022q.256.007.515.024.255.018.512.047t.511.071a11 11 0 0 1 1.012.208q.248.064.496.138a11 11 0 0 1 .972.343 12 12 0 0 1 1.392.674q.224.129.443.266.216.138.428.285.213.148.417.305c1.13.882 3.289 3.195 3.247 4.738-.016.563-.132.672-.485 1.069-1.514.345-3.447.032-5.006-.041-3.731-.248-7.353-.761-11.022-1.47.905-1.822 1.216-3.477 1.24-5.487 1.436-.646 2.746-.966 4.296-1.148"/><path fill="#8f513f" d="M232.526 182.327c1.494.568 4.044 2.378 5.711 3.202a77.4 77.4 0 0 0 12.867 4.879q2.211.62 4.457 1.107c-1.52.921-2.688 1.9-3.898 3.204l-.889-.861a13.4 13.4 0 0 0-1.733-1.207 13 13 0 0 0-1.899-.923c-3.343-1.312-6.568-.992-9.799.437-.51-1.593-1.137-2.989-2.299-4.226-2.047-2.182-4.695-2.838-7.569-2.956a75 75 0 0 1 5.051-2.656"/><path fill="#fefefe" d="M281.778 190.359c.272.16.302.311.453.581-.002.229-.033.386-.161.581-1.915 2.943-7.335 5.681-10.668 6.309l-.248-.232c.038-1.807-.345-2.951-1.238-4.49 4.158-.268 8.164-.694 11.862-2.749"/><path fill="#33404e" d="m279.711 212.095 18.471.004c3.864.04 8.111.601 11.916-.122 1.809-.344 3.952-1.36 5.405-2.468 1.804 1.417 4.17 3.281 6.377 3.9.567-.096.651-.176 1.096-.551 1.929 1.547 3.797 3.355 5.955 4.575.392.892.01 1.649-.313 2.498 2.005 1.372 3.944 2.943 5.362 4.938.591-.423 1.072-.854 1.813-.924.306.054.567.114.819.311 1.388 1.073 5.797 6.916 7.003 8.607.192.27.35.54.513.827-.279.863-.545 1.716-.926 2.542 5.783 3.333 15.656 17.866 17.436 24.33.335 1.214.537 2.053-.116 3.175-.058.1-.12.2-.178.298.523.707.675 1.134.663 2.029.469 1.669.947 3.35 1.154 5.076l.484.333c1.244.59 2.212 1.326 2.65 2.688.405 1.256.191 2.974-.432 4.13-.199.368-.451.701-.685 1.045q-.133.2-.261.401c.581 1.068.872 2.109 1.016 3.313.222.749.168 1.174-.032 1.921l-.086.17c.641 3.519.412 7.531-1.629 10.598-.919 1.38-2.407 2.594-4.06 2.939-.721.15-1.512.118-2.245.122-2.682 2.305-5.647 3.857-9.288 3.629-2.686-.17-4.687-1.342-6.498-3.251-2.113 1.11-4.144 1.446-6.468.689-2.558-.833-4.671-2.806-5.792-5.238a8 8 0 0 1-.181-.424 8 8 0 0 1-.298-.874 9.3 9.3 0 0 1-.341-1.81 10 10 0 0 1-.024-1.382 12 12 0 0 1 .096-.918q.035-.228.081-.454a8 8 0 0 1 .102-.449q.056-.225.124-.445a8 8 0 0 1 .144-.438c.012-.034.03-.064.044-.097l-.054-.444c-.18-.439-.24-.898-.26-1.37-.088-2.188 1.109-4.249 1.011-6.462-.088-2.003-1.456-3.475-1.692-5.368l-.014-.16c-2.282-2.126-4.04-5.41-5.775-8.024l-.867-.79c-1.272.744-2.456 1.224-3.916 1.513-4.199-1.861-7.692-4.818-11.415-7.431.821 4.735 3.701 23.515 1.215 27.293-.917 1.396-3.319 2.269-4.893 2.674.399.795.789 1.692 1.37 2.371 1.571 1.827 3.826 3.177 4.263 5.721.092.731.27 1.674.028 2.391-.257 2.31-1.435 3.914-2.74 5.747-.381.389-.429.503-.956.605l-.322-.172c-1.2-.631-2.364-1.132-3.702-1.378-4.17-.768-11.363.014-15.337 1.29-2.344.753-6.39 2.117-7.551 4.478-.615 1.246.53 3.393-1.072 3.966-1.49.533-3.571.385-5.138.417-3.415.667-7.649.174-11.132-.008a13.7 13.7 0 0 1-3.704-.677c-1.665-.539-3.241-1.404-4.02-3.045-1.458-3.06-.024-5.959.965-8.871.463-1.364.946-4.27-.028-5.518-.324-.413-1.157-.349-1.66-.407-2.115.304-3.658.721-5.332 2.133 1.498 2.406 2.359 7.652 1.748 10.356-.448 1.983-1.368 3.419-3.126 4.452a3.7 3.7 0 0 1-.842.369c-2.734.483-16.564.743-18.335-.837-.421-.375-.533-1.128-.579-1.649a18 18 0 0 0-.286-1.895c-6.288-3.224-12.451-5.213-19.626-4.687-2.031.151-4.399.94-6.39.77-.12-.01-.24-.026-.36-.039-1.187-.799-1.995-1.686-2.59-3.008-2.852-6.338 4.799-9.442 6.508-13.933l.086-.234c-2.072-.329-3.682-.767-5.368-2.079-2.249-6.652.156-23.694 1.565-31.057-2.506 2.68-11.415 12.533-14.439 13.384-2.334-.363-6.056-4.423-7.579-6.269-5.557 3.895-13.383 5.65-20.008 6.744l1.356 1.714c2.039.531 4.663.533 5.867 2.562.612 1.032.555 2.306.203 3.411-1.203 3.796-5.677 7.159-9.056 8.912-2.573 1.278-9.133 4.188-11.961 3.485-.114-.028-.213-.096-.319-.144-.497-.593-.87-1.096-1.186-1.805-.65-.635-1.049-1.254-1.459-2.061l-.129-.259-.383-.068-.044-.106.336-.559c.024-.793-3.083-5.668-3.695-6.594-1.891.631-3.506.635-5.426.217l-.756.314c-.946.154-1.84.166-2.794.154-.845-.168-1.706-.318-2.533-.56-5.499-1.617-9.989-5.735-12.666-10.731-2.64-4.929-3.061-9.732-1.458-15.054.039-.281.061-.671.176-.928.261-.584.569-.637 1.101-.873.159-.585.44-1.136.687-1.686 1.151-1.703 2.479-3.217 4.218-4.339 3.044-1.965 6.224-2.119 9.653-1.376 1.493-1.134 2.619-2.225 3.7-3.764.063-1.482.257-2.147 1.188-3.309.994-.49 1.793-.576 2.897-.5 2.996.663 5.205 2.323 6.844 4.881.581.907.977 1.891 1.366 2.892 3.464-.17 7.381-1.121 10.579-2.503 1.184-.922 2.658-1.156 3.871-2.208-.107-.286-.166-.573-.234-.871.488-1.14 4.89-3.95 6.156-5.024 3.321-2.818 6.454-5.87 9.763-8.715 2.265-2.261 4.248-4.779 6.528-7.02.296.338.494.478.909.653.466-.303.51-.94.716-1.452l.121-.297c2.446-1.472 4.832-3.189 7.194-4.793 7.285 3.285 17.389 2.712 25.297 2.67 1.905-.018 8.88-.465 10.26.31.068-.044.13-.1.204-.136.396-.2.749-.214 1.184-.238 3.866-.219 41.214-.483 41.927-.112.052.028.096.07.144.104l.214.15c1.875-.969 10.336-.457 12.918-.449"/><path fill="#73899d" d="m202.062 287.476 1.212.075c-.849 3.154-3.341 4.969-5.129 7.559l-.318.358c.096.279.189.527.389.75 1.079 1.209 2.733 1.622 4.289 1.64 5.284.058 10.359-2.223 14.077-5.897 6.169 1.5 13.246.243 19.211-1.668 2.201-.705 4.3-1.627 6.528-2.276 9.64.623 20.156.507 29.859.545 4.042.016 8.176-.16 12.206.104.431.028.697.028 1.04.317.591-.273.735-.239 1.362-.179 3.699-.432 8.214-.038 11.998-.018.751-.002 1.522.034 2.269-.014l.867-.004c.399.796.79 1.693 1.371 2.372 1.57 1.827 3.825 3.177 4.262 5.721.092.731.27 1.674.028 2.391-.256 2.31-1.434 3.914-2.74 5.747-.381.388-.429.503-.956.605l-.322-.173c-1.2-.631-2.364-1.131-3.702-1.378-4.17-.767-11.363.014-15.337 1.29-2.343.753-6.389 2.118-7.551 4.479-.615 1.246.531 3.393-1.072 3.966-1.49.533-3.571.385-5.137.417-3.416.667-7.65.174-11.133-.008a13.7 13.7 0 0 1-3.704-.677c-1.664-.539-3.241-1.404-4.02-3.045-1.458-3.061-.024-5.959.966-8.871.462-1.364.945-4.271-.028-5.519-.325-.412-1.158-.348-1.661-.406-2.115.304-3.657.721-5.332 2.133 1.498 2.406 2.36 7.652 1.749 10.356-.449 1.983-1.368 3.419-3.127 4.452a3.7 3.7 0 0 1-.841.369c-2.734.483-16.565.743-18.336-.837-.42-.375-.533-1.128-.579-1.649a18 18 0 0 0-.286-1.895c-6.288-3.225-12.451-5.214-19.626-4.687-2.031.15-4.398.94-6.39.769-.12-.01-.24-.026-.36-.038-1.187-.799-1.995-1.686-2.589-3.008-2.853-6.338 4.798-9.442 6.507-13.933z"/><path fill="#556778" d="M242.321 288.016c9.64.623 20.156.507 29.858.545 4.042.016 8.177-.16 12.207.104.43.028.697.028 1.039.317.591-.273.735-.239 1.362-.179 3.7-.432 8.215-.038 11.998-.018.752-.002 1.523.034 2.27-.014l.867-.004c.399.796.789 1.693 1.37 2.372 1.571 1.827 3.826 3.177 4.263 5.721.092.731.27 1.674.028 2.391l-.163-.238c-.45.495-.983 1.101-1.602 1.38-1.082.485-2.57.529-3.748.551-8.823.18-14.996-5.054-23.15-7.097-3.117-.781-6.769-.507-9.983-.639-4.758-.192-9.487-.204-14.246-.17-2.472.018-4.997-.062-7.461.138-3.095.252-6.147 1.122-9.182 1.755-5.638 1.177-15.263 2.92-20.689 1.043-2.568 2.366-4.733 3.912-8.162 4.763-3.199.796-6.618.581-9.462-1.213-.989-.625-2.023-1.553-2.217-2.771-.08-.504.028-.863.309-1.286.096.279.189.527.388.75 1.08 1.209 2.733 1.622 4.29 1.64 5.284.058 10.359-2.223 14.077-5.897 6.169 1.5 13.246.243 19.211-1.668 2.201-.705 4.3-1.627 6.528-2.276"/><path fill="#556778" d="M286.787 288.803c3.7-.433 8.214-.038 11.998-.018.751-.002 1.522.034 2.27-.014l.867-.004c.398.795.789 1.693 1.37 2.372 1.57 1.826 3.826 3.176 4.262 5.72-.028.449-.074.87-.16 1.31-.591-.551-.955-1.572-1.626-2.227l-.183-.174-.052.188c-1.196-.343-3.277.655-4.689.615-5.446-.152-10.484-3.984-14.057-7.768"/><path fill="#73899d" d="m301.055 288.771.867-.004c.399.795.789 1.693 1.37 2.372 1.57 1.827 3.826 3.177 4.262 5.72-.028.449-.074.87-.16 1.31-.591-.55-.955-1.572-1.626-2.227l-.182-.174c-2.174-2.464-3.694-3.606-4.531-6.997"/><path fill="#2a2f35" d="M285.426 288.982c.591-.272.735-.238 1.362-.178 3.573 3.784 8.611 7.616 14.057 7.768 1.412.04 3.493-.958 4.689-.615a2.75 2.75 0 0 1-.931.949c-1.813 1.152-4.014 1-6.027.593-5.016-1.013-10.28-4.236-13.15-8.517"/><path fill="#556778" d="M245.854 297.811c1.498 2.406 2.359 7.652 1.748 10.356-.448 1.983-1.368 3.419-3.126 4.453a3.7 3.7 0 0 1-.842.368c-2.734.483-16.564.743-18.335-.837-.421-.375-.533-1.128-.579-1.649a18 18 0 0 0-.286-1.895c2.243.363 3.819 1.753 6.235 1.881 4.322.231 8.998-.829 12.226-3.88 2.638-2.495 2.923-5.392 2.959-8.797m5.332-2.133c.729-.134 1.676-.308 2.321.154 1.124.807 1.406 2.897 1.493 4.165.192 2.826-.625 6.676 1.686 8.825 2.506 2.325 10.578 4.39 14.079 5.382-3.415.667-7.649.174-11.132-.008a13.7 13.7 0 0 1-3.704-.677c-1.665-.539-3.241-1.404-4.02-3.045-1.458-3.06-.024-5.959.965-8.871.463-1.364.946-4.27-.028-5.518-.324-.413-1.157-.349-1.66-.407"/><path fill="#fcd299" d="M125.965 241.825c1.493-1.134 2.619-2.225 3.7-3.764.72 3.035 2.392 5.581 5.072 7.241.716.443 1.55.852 2.354 1.096q.107.024.215.046c1.389.292 2.562-.306 3.462.927l1.516 2.308c2.519 3.842 4.971 7.559 7.712 11.257l2.483 2.946c1.143 1.422 2.34 3.169 3.754 4.317l1.356 1.714c2.039.531 4.663.533 5.867 2.562.612 1.032.555 2.306.203 3.411-1.203 3.796-5.677 7.159-9.056 8.912-2.573 1.278-9.133 4.188-11.961 3.485-.114-.028-.213-.096-.319-.144-.497-.593-.87-1.096-1.186-1.805-.65-.635-1.049-1.254-1.459-2.061l-.129-.258-.383-.069-.044-.106.336-.559c.024-.793-3.083-5.668-3.695-6.594-1.891.631-3.506.635-5.426.217l-.756.314c-.946.155-1.84.167-2.794.155-.845-.169-1.706-.319-2.533-.561-5.499-1.617-9.989-5.735-12.666-10.73-2.64-4.93-3.061-9.733-1.458-15.055.039-.281.061-.671.176-.927.261-.585.569-.637 1.101-.874.159-.585.44-1.136.687-1.686 1.151-1.703 2.479-3.217 4.218-4.339 3.044-1.965 6.224-2.119 9.653-1.376"/><path fill="#dcdcdc" d="m149.997 260.937 2.482 2.947c1.143 1.422 2.34 3.168 3.754 4.316l1.356 1.715c2.039.531 4.663.533 5.867 2.562.612 1.031.555 2.305.203 3.411-1.203 3.795-5.676 7.159-9.056 8.911-2.573 1.278-9.133 4.188-11.961 3.485-.113-.028-.212-.096-.318-.144-.498-.593-.871-1.095-1.186-1.805-.651-.634-1.05-1.253-1.459-2.061l-.13-.258-.383-.068-.043-.106.335-.559c.024-.793-3.083-5.669-3.694-6.594l.743-.303c.795-.32 1.563-.747 2.271-1.233 3.005-2.059 4.164-4.9 4.824-8.323-.012-1.017-.12-1.959-.283-2.958a295 295 0 0 1 4.141-1.547z"/><path fill="#2a2f35" d="M157.588 269.913c2.039.531 4.663.533 5.867 2.562.612 1.032.555 2.306.204 3.411-1.203 3.796-5.677 7.159-9.057 8.912-2.573 1.278-9.133 4.188-11.961 3.485-.113-.028-.212-.096-.318-.144-.498-.593-.87-1.096-1.186-1.805 1.763-1.703 3.759-3.239 5.64-4.817q5.694-5.532 10.811-11.604"/><path fill="#beb8b7" d="m143.602 266.828 2.751-.623c.532.893.578 1.308.321 2.327-.592 2.346-1.727 4.575-3.097 6.554 1.063 1.999 2.484 4.296 3.2 6.43-1.88 1.578-3.877 3.114-5.639 4.817-.651-.635-1.05-1.254-1.459-2.061l-.13-.259-.383-.068-.043-.106.335-.559c.024-.793-3.083-5.668-3.694-6.594l.743-.302a12 12 0 0 0 2.271-1.234c3.005-2.059 4.164-4.899 4.824-8.322"/><path fill="#2a2f35" d="m149.996 260.937 2.482 2.947c-1.889 1.177-3.921 1.967-6.126 2.323l-2.751.623c-.012-1.017-.12-1.959-.283-2.958a290 290 0 0 1 4.141-1.547z"/><path fill="#e1a469" d="M125.964 241.825c1.494-1.134 2.619-2.225 3.7-3.764.72 3.035 2.393 5.581 5.073 7.241.716.443 1.55.852 2.354 1.096q.106.024.214.046c1.389.292 2.563-.306 3.462.927l1.516 2.308c2.52 3.842 4.971 7.559 7.713 11.257l-2.537 1.388q-2.076.757-4.14 1.546c.162 1 .271 1.941.282 2.959-.66 3.423-1.819 6.263-4.824 8.322-.708.487-1.476.914-2.271 1.234-.141-.278-.404-.739-.305-1.046.542-1.664 3.142-2.816 3.861-6.762.432-2.375-.094-5.147-1.556-7.094a7 7 0 0 0-.214-.273 7 7 0 0 0-.989-.963 7 7 0 0 0-.564-.399 5 5 0 0 0-.297-.178q-.15-.084-.305-.162a9 9 0 0 0-.314-.147 7.4 7.4 0 0 0-.98-.336 6.6 6.6 0 0 0-1.021-.18c-1.893-.195-4.267.4-5.79 1.578-.501.387-.878.913-1.375 1.3-.292.228-.317.306-.697.25-.022-.084-.05-.166-.066-.25-.096-.515.032-.945.358-1.348 1.984-2.456 6.562-3.125 9.484-3.467.339-.407.517-.767.559-1.298.17-2.129-1.369-4.906-2.73-6.486-1.308-1.52-3.278-2.602-5.297-2.694-3.369-.152-6.359 2.149-8.08 4.887-.505.802-.875 1.897-1.558 2.546-.119-.382-.24-.769-.312-1.164-.206-1.133.316-2.093.943-2.994 1.946-2.8 4.581-4.379 7.912-4.984-5.164-2.531-8.913-.556-12.799 2.923-.919.823-1.643 1.776-2.894 2.071l-.074-.489c.159-.585.441-1.136.687-1.686 1.151-1.703 2.48-3.217 4.218-4.339 3.045-1.965 6.225-2.119 9.653-1.376"/><path fill="#dcdcdc" d="m140.767 247.372 1.516 2.307c2.52 3.842 4.971 7.56 7.713 11.257l-2.537 1.388a290 290 0 0 0-4.14 1.547c-.608-2.364-1.95-3.93-3.807-5.426l-.263-2.616.093-.295c-.561-1.115-.779-2.457-1.308-3.629l.922-1.637z"/><path fill="#beb8b7" d="M139.25 255.828c.244-.024.671-.128.899-.09 1.194.207 3.772 2.208 4.775 3.025.831.677 2.354 1.907 2.51 2.982.034.235.026.353.026.579q-2.077.757-4.141 1.546c-.607-2.363-1.949-3.929-3.807-5.426z"/><path fill="#2a2f35" d="m140.767 247.372 1.516 2.307a54 54 0 0 0-2.941 5.855c-.561-1.115-.779-2.457-1.308-3.629l.922-1.637z"/><path fill="#beb8b7" d="M125.965 241.825c1.493-1.134 2.619-2.225 3.7-3.764.72 3.035 2.392 5.581 5.072 7.241.716.443 1.55.852 2.354 1.096q.107.024.215.046c1.389.292 2.562-.306 3.462.927l-1.811 2.897-.922 1.636c-1.432-2.399-2.869-4.735-5.415-6.111-.75-.405-1.693-.441-2.385-.931-1.601-1.138-2.38-2.178-4.27-3.037"/><path fill="#dcdcdc" d="M138.956 250.268c-.463-.78-1.908-3.097-1.865-3.87l.214.046c1.389.292 2.563-.307 3.462.927z"/><path fill="#860303" d="M110.13 251.028c.945 2.247 1.996 3.996 4.385 4.945.506.201 1.026.371 1.543.539.896 3.257 2.154 5.234 4.791 7.323-.512 3.145.573 7.285 2.48 9.843 1.291 1.731 3.255 3.165 5.431 3.437.272.034.553.048.821.104-.946.154-1.84.166-2.794.154-.845-.168-1.706-.318-2.533-.56-5.499-1.617-9.989-5.735-12.666-10.731-2.64-4.929-3.061-9.732-1.458-15.054"/><path fill="#600000" d="M110.131 251.027c.039-.28.06-.671.175-.927.262-.585.569-.637 1.101-.874l.074.489c-.087 1.188.117 1.703.911 2.592 1.644 1.841 4.796 2.041 5.541 2.818.417.437.67 1.675.923 2.258 1.141 2.632 3.527 4.492 5.947 5.866-1.005 2.977-1.106 6.08.299 8.968 1.088 2.235 2.907 3.84 5.236 4.687l-.757.314c-.267-.056-.549-.07-.821-.104-2.175-.272-4.14-1.706-5.431-3.437-1.906-2.558-2.991-6.698-2.48-9.843-2.637-2.089-3.894-4.066-4.79-7.323a25 25 0 0 1-1.543-.539c-2.389-.949-3.44-2.698-4.385-4.945"/><path fill="#860303" d="M360.344 264.034c.522.707.675 1.134.663 2.029.468 1.669.947 3.349 1.153 5.076l.485.332c1.244.591 2.211 1.326 2.65 2.689.405 1.255.19 2.974-.433 4.13-.198.368-.45.701-.685 1.045q-.133.2-.26.401c.581 1.068.871 2.109 1.015 3.313.223.749.169 1.174-.032 1.921l-.086.17c.641 3.519.413 7.531-1.628 10.598-.92 1.38-2.408 2.594-4.06 2.938-.721.151-1.513.119-2.246.123-2.682 2.305-5.646 3.857-9.288 3.629-2.686-.17-4.687-1.342-6.497-3.251-2.114 1.11-4.145 1.446-6.468.689-2.558-.833-4.671-2.806-5.793-5.238a8 8 0 0 1-.18-.424 9.4 9.4 0 0 1-.513-1.771 10 10 0 0 1-.156-1.374 9 9 0 0 1 .006-.921 10 10 0 0 1 .278-1.821 9 9 0 0 1 .269-.884c.012-.034.03-.064.044-.096l-.054-.444c-.181-.439-.241-.898-.261-1.37-.088-2.188 1.11-4.249 1.012-6.462-.088-2.003-1.456-3.475-1.693-5.368q-.008-.078-.014-.16c1.655-.732 3.091-2.021 4.707-2.859 5.719-2.964 11.7-4.759 18.027-5.84 1.545.198 7.866-.672 10.038-.8"/><path fill="#fcd299" d="M357.7 286.542q.678-.615 1.426-1.146a15 15 0 0 1 1.552-.965c.853-.471 2.352-1.148 3.335-.693.563.26.659.713.887 1.232l-.086.17c.641 3.519.413 7.531-1.628 10.598-.92 1.38-2.408 2.594-4.06 2.938-.721.15-1.513.118-2.246.122-2.682 2.306-5.646 3.858-9.288 3.63-2.686-.17-4.687-1.342-6.497-3.251-2.114 1.11-4.145 1.446-6.468.689-2.558-.833-4.671-2.806-5.793-5.238a8 8 0 0 1-.18-.425 9.8 9.8 0 0 1-.587-2.225 9 9 0 0 1-.082-.919 9 9 0 0 1 .006-.922 10 10 0 0 1 .278-1.82q.057-.225.125-.445.066-.223.144-.439c.012-.034.03-.064.044-.096l-.054-.445c.134-.208.268-.416.418-.616.784-1.044 2.122-1.433 3.363-1.599 3.914-.519 9.503.721 12.603 3.165 1.07-1.232 2.34-1.835 3.92-2.205 2.662-.623 6.508-.553 8.868.905"/><path fill="#e1a469" d="M343.276 297.64c1.1 1.194 2.195 2.148 3.834 2.432 2.057.357 4.102-.076 5.79-1.318 3.694-2.716 4.323-6.718 4.89-10.916l.376-.03c.044.038.094.072.135.116 1.716 1.955-.099 5.374.06 7.519.03.411-.036.241.304.535 2.926-.755 4.483-4.843 4.931-7.537.157-.944.024-2.502.543-3.279l.675-.022c.641 3.519.413 7.531-1.628 10.598-.92 1.38-2.408 2.593-4.06 2.938-.721.15-1.513.118-2.246.122-2.682 2.306-5.646 3.858-9.288 3.63-2.686-.171-4.687-1.342-6.497-3.251-2.114 1.109-4.145 1.446-6.468.689-2.558-.833-4.671-2.806-5.793-5.238a8 8 0 0 1-.18-.425 9.8 9.8 0 0 1-.587-2.225 9 9 0 0 1-.082-.919 9 9 0 0 1 .006-.922 10 10 0 0 1 .176-1.372q.046-.226.102-.449.057-.224.125-.444.066-.223.144-.439c.012-.034.03-.064.044-.096.386.172.553.216.737.635.955 2.187.342 4.004 2.191 6.664 1.064 1.526 2.744 2.291 4.539 2.596 3.037.513 5.999-1.536 7.626-3.988.789-1.188 1.309-2.999 2.493-3.848l.239.13c.044.235.078.445.078.685.01 2.993-1.092 5.39-3.209 7.429"/><path fill="#600000" d="M360.344 264.034c.522.707.675 1.134.663 2.029-2.596 1.505-6.923 1.178-9.891 1.803-4.743.996-9.587 2.44-13.933 4.587-.737.362-2.588 1.074-2.813 1.885.81.038 1.449-.449 2.288-.313-1.402.9-2.748 1.953-3.147 3.67-.324 1.402.106 2.754.896 3.92q.162.236.33.466c-.779-.392-1.306-.875-1.927-1.474-.14 1.196-.274 2.384-.525 3.564 4.333-.649 8.135.126 12.239 1.56 4.216-2.748 7.801-2.027 12.436-1.118 2.336-1.208 4.647-2.313 7.348-1.706l.374.082.25.06c.223.749.169 1.174-.032 1.921-.228-.519-.324-.972-.887-1.232-.983-.455-2.482.222-3.335.693q-.805.437-1.552.965-.748.531-1.426 1.146c-2.36-1.458-6.206-1.528-8.868-.905-1.58.37-2.85.973-3.92 2.205-3.1-2.444-8.689-3.683-12.603-3.165-1.241.167-2.579.555-3.363 1.599-.15.2-.284.408-.418.617-.181-.439-.241-.898-.261-1.37-.088-2.188 1.11-4.249 1.012-6.462-.088-2.003-1.456-3.475-1.693-5.368q-.008-.078-.014-.16c1.655-.732 3.091-2.021 4.707-2.859 5.719-2.964 11.7-4.759 18.027-5.84 1.545.198 7.866-.672 10.038-.8"/><path fill="#556778" d="M336.658 274.025c1.711-.328 2.938-.585 4.483.441 1.095.871 1.893 1.734 2.095 3.175.176 1.256-.233 2.393-.996 3.383-.26.334-.558.595-.881.869a6 6 0 0 1-1.402.829c-1.779.761-3.553.03-5.22-.641a20 20 0 0 1-.33-.466c-.79-1.166-1.22-2.518-.896-3.92.399-1.717 1.745-2.77 3.147-3.67"/><path fill="#33404e" d="M336.658 274.025c1.711-.328 2.938-.585 4.483.441-2.005.372-3.848 1.005-5.068 2.782-.348.509-.633 1.134-.493 1.767.201.899 1.164 1.498 1.925 1.883 1.072.54 2.109.701 3.283.865.349.048.206.022.571.13a6 6 0 0 1-1.402.829c-1.779.761-3.553.03-5.22-.641a20 20 0 0 1-.33-.466c-.79-1.166-1.22-2.518-.896-3.92.399-1.717 1.745-2.77 3.147-3.67"/><path fill="#556778" d="M362.645 271.472c1.244.591 2.212 1.326 2.65 2.688.405 1.256.191 2.975-.432 4.131-.199.368-.451.701-.685 1.045-.091.132-.175.267-.261.401l-.436.326c-.726-.376-1.575-.218-2.364-.344-.913-.147-2.013-.769-2.522-1.559-.37-.577-.404-1.266-.252-1.919.545-2.335 2.389-3.607 4.302-4.769"/><path fill="#33404e" d="m362.161 271.14.485.333c-1.913 1.162-3.758 2.434-4.303 4.769-.152.653-.118 1.342.253 1.919.508.789 1.608 1.412 2.521 1.558.789.126 1.639-.032 2.364.345-.615.599-1.416 1.107-2.268 1.272-1.41.272-2.527-.463-3.623-1.218-.643-1.418-1.134-2.7-.961-4.291.2-1.838 1.332-3.072 2.716-4.16.965-.28 1.81-.451 2.816-.527"/><path fill="#600000" d="M357.59 280.117c-.889-.631-1.596-1.275-1.965-2.333-.402-1.152-.264-2.388.305-3.459.733-1.386 1.941-2.228 3.415-2.658-1.384 1.087-2.516 2.321-2.716 4.16-.172 1.59.318 2.872.961 4.29"/><path fill="#556778" d="M346.748 274.111c.585-.521 1.199-.986 1.917-1.31 1.011-.457 1.902-.341 2.904.05 1.466.825 2.516 1.688 3.032 3.363.367 1.181.175 2.339-.42 3.411-.415.743-.98 1.262-1.625 1.803-.805.691-1.528.961-2.605.841-.535-.06-1.064-.206-1.597-.291a4.52 4.52 0 0 1-2.44-1.388q-.072-.082-.142-.166a4 4 0 0 1-.254-.354 4 4 0 0 1-.218-.379 4 4 0 0 1-.179-.399l-.072-.206a4 4 0 0 1-.154-.635 4 4 0 0 1-.054-.653q0-.11.004-.218.006-.11.016-.219c.13-1.402.833-2.375 1.887-3.25"/><path fill="#33404e" d="M346.748 274.111c.585-.521 1.199-.986 1.917-1.31 1.011-.457 1.902-.341 2.904.05-1.558.717-3.421 1.65-4.002 3.413-.212.645-.102 1.27.216 1.855.906 1.668 2.614 2.473 4.305 3.09.296.108.178.058.468.219-.805.691-1.528.961-2.605.841-.535-.06-1.064-.206-1.597-.291a4.52 4.52 0 0 1-2.44-1.388q-.072-.082-.142-.166a4 4 0 0 1-.254-.354 4 4 0 0 1-.218-.379 4 4 0 0 1-.179-.399l-.072-.206a4 4 0 0 1-.154-.635 4 4 0 0 1-.054-.653q0-.11.004-.218.006-.11.016-.219c.13-1.402.833-2.375 1.887-3.25"/><path fill="#600000" d="M348.354 281.977a4.52 4.52 0 0 1-2.582-1.554l-.132-.175a3 3 0 0 1-.122-.18 4 4 0 0 1-.218-.378 4 4 0 0 1-.179-.399l-.072-.206a4 4 0 0 1-.154-.635 4 4 0 0 1-.054-.653q0-.111.004-.219.006-.11.016-.218c.13-1.402.833-2.376 1.887-3.251-.775 1.643-1.352 3.201-.649 5.006.472 1.211 1.28 2.037 2.255 2.862"/><path fill="#fcd299" d="M130.852 234.753c.994-.491 1.794-.577 2.897-.501 2.996.663 5.205 2.323 6.844 4.881.582.908.977 1.891 1.366 2.893 3.464-.171 7.381-1.122 10.579-2.504 1.184-.922 2.659-1.156 3.871-2.208 1.903 2.582 3.529 5.23 5.864 7.462a30.3 30.3 0 0 0 6.01-1.573c.241 1.018.401 2.67 1.304 3.319.464.333 1.043.345 1.578.197 1.221-.341 2.475-1.056 3.639-1.577-1.248 2.923-2.373 5.873-3.55 8.823-.18.726-.268 1.078.142 1.765 1.224 2.055 3.127 4.08 4.844 5.725-5.556 3.896-13.383 5.65-20.008 6.744-1.414-1.148-2.611-2.894-3.754-4.317l-2.482-2.946c-2.742-3.698-5.194-7.415-7.713-11.257l-1.516-2.307c-.9-1.234-2.073-.635-3.462-.928q-.108-.022-.215-.046c-.804-.244-1.638-.653-2.354-1.096-2.68-1.66-4.352-4.206-5.072-7.24.064-1.483.257-2.148 1.188-3.309"/><path fill="#e1a469" d="M130.852 234.753c.994-.491 1.794-.577 2.897-.501-.534.446-1.02 2.478-1.071 3.207-.111 1.6.577 2.898 1.651 4.036 1.589 1.684 3.501 2.824 5.611 3.729.804.345 1.946.695 2.603 1.274 1.211 1.064 2.264 2.638 3.278 3.9 2.771 3.445 5.512 7.215 8.58 10.392 4.86-.239 9.658-1.096 14.149-3.027l-.724-1.783a402 402 0 0 1 2.024-6.117c-.718.185-1.391.425-2.134.255-.431-.329-.656-.517-.748-1.078-.15-.915-.123-1.969-.162-2.902-1.4.478-3.658 1.572-5.1 1.332a2.7 2.7 0 0 1-.449-.834c-1.312-.064-2.669 1.701-3.87.363-1.821-2.031-3.652-5.042-4.849-7.477 1.184-.922 2.659-1.156 3.871-2.208 1.903 2.582 3.529 5.23 5.864 7.462a30.3 30.3 0 0 0 6.01-1.573c.241 1.018.401 2.67 1.304 3.319.464.333 1.043.345 1.578.197 1.221-.341 2.475-1.056 3.639-1.577-1.248 2.923-2.373 5.873-3.55 8.823-.18.726-.268 1.078.142 1.765 1.224 2.055 3.127 4.08 4.844 5.725-5.556 3.896-13.383 5.65-20.008 6.744-1.414-1.148-2.611-2.894-3.754-4.317l-2.482-2.946c-2.742-3.698-5.194-7.415-7.713-11.257l-1.516-2.307c-.9-1.234-2.073-.635-3.462-.928q-.108-.022-.215-.046c-.804-.244-1.638-.653-2.354-1.096-2.68-1.66-4.352-4.206-5.072-7.24.064-1.483.257-2.148 1.188-3.309m212.349 1.478c5.783 3.333 15.656 17.867 17.437 24.33.334 1.214.536 2.053-.117 3.175-.058.1-.12.2-.178.299-2.171.128-8.493.997-10.037.799-6.327 1.081-12.308 2.876-18.027 5.841-1.616.837-3.053 2.127-4.707 2.858-2.282-2.125-4.04-5.41-5.775-8.024l-.867-.789c5.743-3.8 11.714-9.681 15.203-15.698 2.926-3.852 5.152-8.369 7.068-12.791"/><path fill="#fcd299" d="M321.798 265.508q.707-.015 1.404-.128c6.644-1.119 14.51-10.644 18.35-15.797a256 256 0 0 1 6.317 10.898c.801 1.432 1.737 2.872 2.438 4.352-6.328 1.082-12.309 2.877-18.027 5.841-1.617.837-3.053 2.127-4.707 2.859-2.282-2.126-4.041-5.411-5.775-8.025"/><path fill="#556778" d="M266.793 212.543c1.875-.97 10.336-.457 12.918-.449-3.391 1.663-6.424 4.076-9.867 5.747-12.925 6.051-29.472 9.336-43.435 5.388-5.619-1.588-10.208-4.351-13.11-9.512l-.439-1.252c1.905-.018 8.88-.465 10.26.31.068-.044.13-.1.204-.136.397-.2.749-.214 1.184-.238 3.866-.219 41.214-.483 41.927-.112.052.028.096.07.144.104z"/><path fill="#f5a168" d="M223.119 212.776c.068-.044.13-.1.204-.136.397-.2.75-.214 1.184-.238 3.866-.219 41.214-.483 41.927-.113.052.028.096.07.144.105l.215.15c-8.433 5.835-20.054 7.505-30.019 5.732-4.812-.855-9.693-2.584-13.655-5.5"/><path fill="#2a2f35" d="M298.785 288.786c-.433-.156-.901-.314-1.3-.547-.803-.464-1.55-1.468-1.781-2.369-.216-.839.07-1.39.487-2.095.339-.567.631-1.032.771-1.689.974-4.605.731-9.224 1.014-13.873.432-7.137 1.063-14.191 1.069-21.358.006-6.962-.697-13.851-.098-20.805 2.228 5.534 2.582 9.586 3.574 15.311l2.361 12.985c3.111 2.3 7.451 4.407 11.367 4.667 5.208.347 8.235-2.519 11.81-5.826 1.572-1.457 3.209-2.879 4.719-4.399 1.55-1.562 2.973-3.245 4.649-4.681l.257-.218c-.265 1.822-1.194 3.353-1.551 5.133-3.489 6.017-9.46 11.898-15.203 15.698-1.272.743-2.455 1.224-3.916 1.512-4.198-1.861-7.691-4.817-11.415-7.431.821 4.735 3.702 23.515 1.216 27.293-.917 1.396-3.319 2.27-4.893 2.674l-.868.004c-.747.048-1.518.012-2.269.014m-97.985-6.423c3.763 1.269 7.591 2.429 11.513 3.106 8.226 1.422 17.753 1.094 25.793-1.079 4.581-1.238 8.897-3.251 13.6-4.073a75 75 0 0 1 6.27-.765q3.15-.252 6.311-.238c2.736.036 5.468.27 8.206.262-4.08 2.314-8.741 3.107-13.263 4.141-2.646.604-5.25 1.299-7.914 1.842-2.891.589-6.42.98-8.996 2.458-2.227.649-4.326 1.57-6.528 2.275-5.965 1.911-13.041 3.169-19.211 1.669-3.717 3.673-8.793 5.955-14.077 5.897-1.556-.018-3.209-.431-4.289-1.641-.2-.222-.292-.47-.389-.749l.318-.358c1.788-2.59 4.28-4.405 5.129-7.56l2.286.03c-2.254-1.416-3.788-2.644-4.759-5.217"/><path fill="#556778" d="m203.273 287.55 2.286.03c3.181 1.901 6.275 3.035 9.821 4.08-3.413 2.843-8.774 5.36-13.328 4.946-1.551-.14-2.621-.685-3.907-1.496 1.787-2.59 4.279-4.405 5.128-7.56"/><path fill="#2a2f35" d="M200.243 219.52c4.024 5.332 4.587 12.756 3.695 19.159-.775 5.569-3.553 10.546-5.679 15.662-2.506 2.68-11.416 12.533-14.44 13.384-2.333-.363-6.055-4.423-7.578-6.27-1.718-1.644-3.62-3.669-4.845-5.724-.41-.687-.322-1.04-.141-1.765 1.884.423 3.746 1.667 5.515 2.456 2.612 1.164 5.5 2.185 8.25 2.966a244 244 0 0 1 5.092-5.179c1.814-1.761 3.755-3.434 5.316-5.431 4.35-5.558 5.664-15.952 5.534-22.882-.04-2.137-.481-4.256-.719-6.376m79.467-7.425 18.472.004c3.864.04 8.11.601 11.916-.122 1.809-.345 3.952-1.36 5.404-2.468 1.805 1.416 4.171 3.281 6.378 3.9.567-.096.651-.176 1.095-.551 1.929 1.547 3.798 3.355 5.955 4.575.393.892.01 1.649-.312 2.498-.409.847-.691 1.773-1.637 2.135-.472.182-1.109.11-1.606.112a8 8 0 0 0-1.302.125c.126 1.019.435 2.005-.268 2.87-.759.935-2.985 1.091-4.135 1.256-.3.054-.586.094-.895.084-.673-.024-1.112-.172-1.556-.673-.054-.477-.008-.751.242-1.172.787-1.326 1.975-1.578 3.347-1.985-.046-.963-.154-2.105.451-2.938.715-.984 2.015-1.16 3.129-1.392a598 598 0 0 0-7.51-5.162c-1.556.797-2.926 1.704-4.613 2.237-8.346 2.634-20.244-.094-29.276 1.635-2.215.422-10.315 2.906-11.791 2.379-.79-.282-1.038-.897-1.354-1.6 3.443-1.671 6.475-4.084 9.866-5.747m-92.147-2.299c7.285 3.285 17.389 2.712 25.297 2.67l.439 1.252c-.447.344-.868.619-1.433.721-2.249.408-4.757.302-7.058.518-5.141.485-10.33 1.2-15.374 2.322-4.369.971-14.204 8.353-17.204 7.934-.2-.028-.315-.096-.487-.178-.205-.441-.231-.681-.075-1.154.078-.236.206-.459.311-.683.123-.263.081-.158.116-.493 2.265-2.261 4.248-4.779 6.528-7.02.295.338.494.478.909.653.465-.303.509-.94.716-1.453l.121-.296c2.446-1.472 4.831-3.189 7.194-4.793"/><path fill="#fcd299" d="M328.618 219.931c2.005 1.372 3.944 2.943 5.362 4.938-.422.45-.747.885-1.37 1.047-.743-.04-1.344-.282-2.033-.545a111 111 0 0 1-2.309 7.277l-3.469.701c-1.164 1.3-2.72 2.294-4.155 3.277.744-1.46 1.601-2.932 2.202-4.452-.573-1.104-3.029-5.012-3.175-5.745 1.15-.164 3.375-.321 4.134-1.256.703-.865.395-1.851.269-2.87a8 8 0 0 1 1.301-.124c.497-.002 1.134.07 1.607-.113.945-.362 1.228-1.288 1.636-2.135"/><path fill="#8f513f" d="m281.471 256.1.224-.018c3.59-.193 6.821 2.119 9.398 4.378 1.675 1.466 4.365 4.212 4.427 6.57a2.12 2.12 0 0 1-.659 1.632c-1.592 1.521-4.703 1.208-6.764 1.214.933.93 2.926 2.045 3.131 3.421.21 1.403-.906 1.449-1.575 2.242-.887 1.053-.537 3.157-1.672 4.284-1.098 1.088-3.007 1.166-4.463 1.228-.779-.348-1.436-.811-2.135-1.296-1.182-1.059-2.089-2.762-3.489-3.519-3.388-1.831-8.774-.615-11.436-3.586a3.3 3.3 0 0 1-.545-.829q-.034-.076-.064-.152l-.056-.156-.048-.161-.038-.16a2 2 0 0 1-.03-.164 2 2 0 0 1-.022-.164 2 2 0 0 1-.018-.333 3 3 0 0 1 .018-.33c.421-3.884 7.335-3.407 10.115-4.032 1.485-.333 2.602-.812 3.76-1.807l.182-.16c-.761-.437-1.74-.91-2.245-1.645-.319-.464-.505-1.039-.317-1.594.353-1.038 1.539-1.607 2.46-2.007.399-1.42.589-2.031 1.861-2.856m-69.236-.553.11-.002c2.702.03 5.084.569 7.008 2.626.627.671 1.148 1.536 1.072 2.487-.266 3.311-4.19 4.155-5.532 5.743-.539.637.551 4.21.661 5.256-.629 1.132-1.286 2.063-2.598 2.42-2.193.596-4.387-1.05-6.159-2.138-.511-.278-.948-.508-1.525-.633-.849.419-.829 1.637-1.514 2.22-1.576 1.342-3.901-1.4-5.94-1.657l-.256-.028c.108-1.935-.285-6.469.971-8.004.902-1.103 3.354-1.107 4.604-1.857.631-.378 1.216-1.015 1.729-1.546 2.425-2.504 3.773-4.158 7.369-4.887m30.367-.795a12 12 0 0 1 1.559-.101c1.196.008 2.644.299 3.737.824 2.478 1.189 4.339 3.248 6.586 4.765 1.929 1.302 4.151 2.095 5.803 3.795.587.603.593.906.565 1.707-.351.619-.613.771-1.284.99-.401.132-.919.234-1.234.53-.613.575-.567 1.639-.621 2.398-.082 1.178-.593 1.763-1.452 2.53q-.277.113-.559.214c-1.178.407-2.195.423-3.321-.144-1.656-.831-2.844-2.54-4.32-3.65-3.774-2.842-7.912-3.321-9.711-8.37.142-.864.296-1.715.663-2.516.749-1.646 1.927-2.4 3.589-2.972m20.229-.613q.369-.014.739-.008c1.586.018 2.928.536 4.022 1.718.725.781 1.198 1.803 1.088 2.883-.125 1.199-.693 1.814-1.589 2.559-.476.117-.927.209-1.422.181-1.162-.07-2.377-.96-3.107-1.817-.761-.895-1.273-2.047-1.131-3.241.126-1.066.583-1.62 1.4-2.275"/><path fill="#dcdcdc" d="M15.146 89.121c-.493-3.332-.623-6.562-.33-9.922.923-10.575 4.883-22.146 11.085-30.787 1.139-1.586 2.42-3.369 3.965-4.59.477-.377.834-.592 1.443-.504 1.873 1.86 8.299 15.954 9.76 19.113 2.691 5.993 6.024 11.824 9.103 17.637l13.542 25.813 44.494 85.199 11.529 22.24c1.658 3.234 5.247 9.26 5.898 12.542.048.241.097.477.139.718 2.061.841 3.656 2.247 4.489 4.344.483 1.214.643 2.528.59 3.828-.931 1.162-1.125 1.827-1.188 3.309-1.081 1.538-2.207 2.63-3.701 3.763-3.428-.743-6.608-.588-9.653 1.377-1.738 1.121-3.067 2.635-4.217 4.338-1.592.298-3.315.254-4.833-.34-1.263-.495-2.389-1.389-2.876-2.687-.499-1.33-.197-2.409.327-3.667a63 63 0 0 1-1.268-1.038c-1.396-1.041-2.596-2.772-3.73-4.106l-6.2-7.307-13.874-16.448c-2.454-2.933-5.285-5.891-7.286-9.15.892-2.528 2.102-4.971 3.234-7.397a375 375 0 0 1-8.066.401c-2.181-2.561-3.847-5.511-6.003-8.083.583-1.95 1.31-3.826 2.138-5.683-1.683.286-3.367.476-5.064.654-3.36-4.144-6.894-9.31-9.602-13.891 2.184-2.663 5.073-5.301 7.741-7.48.586-.682 1.734-1.973 1.674-2.871-.511-.29-.909-.151-1.486-.102-4.598.625-9.365 1.212-13.9 2.169-10.544-10.613-18.895-26.352-23.255-40.579-1.138-3.713-1.875-7.498-2.637-11.3 1.086-.73 2.241-1.355 3.38-2.002-1.528-.369-3.035-1.008-4.535-1.495-.314-1.23-1.027-3.371-.348-4.53.598-1.022 8.23-3.25 9.798-3.774-3.578-2.333-6.819-5.202-10.277-7.712"/><path fill="#9e9c9c" d="M15.146 89.121c-.493-3.332-.623-6.562-.33-9.922.923-10.575 4.883-22.146 11.085-30.787 1.139-1.586 2.42-3.369 3.965-4.59.477-.377.834-.592 1.443-.504 1.873 1.86 8.299 15.954 9.76 19.113-.655-.118-1.127-.195-1.714.215-1.228.857-2.118 2.406-2.895 3.653-3.788 6.08-6.15 12.492-7.168 19.6-3.346 23.351 7.154 47.8 20.97 66.093 1.075 1.422 4.254 5.948 5.891 6.279.247.05.518.057.767.073-4.598.625-9.365 1.212-13.9 2.169-10.544-10.613-18.895-26.352-23.255-40.579-1.138-3.713-1.875-7.498-2.637-11.3 1.086-.73 2.241-1.355 3.38-2.002-1.528-.369-3.035-1.008-4.535-1.495-.314-1.23-1.027-3.371-.348-4.53.598-1.022 8.23-3.25 9.798-3.774-3.578-2.333-6.819-5.202-10.277-7.712m33.845 79.676c2.184-2.663 5.073-5.301 7.741-7.48 3.418 5.686 7.842 11.028 11.802 16.357l22.71 30.504c4.548 6.039 9.523 11.988 13.638 18.321-2.002 2.63-3.267 6.031-2.855 9.375.181 1.464.727 2.647 1.417 3.933-1.396-1.041-2.596-2.772-3.73-4.106l-6.2-7.307-13.874-16.448c-2.454-2.933-5.285-5.891-7.286-9.15.892-2.528 2.102-4.971 3.234-7.397a375 375 0 0 1-8.066.401c-2.181-2.561-3.847-5.511-6.003-8.083.583-1.95 1.31-3.826 2.138-5.683-1.683.286-3.367.476-5.064.654-3.36-4.144-6.894-9.31-9.602-13.891"/><path fill="#2a2f35" d="M125.775 226.582c2.06.841 3.655 2.247 4.489 4.344.482 1.214.642 2.528.589 3.828-.931 1.162-1.125 1.827-1.188 3.309-1.081 1.538-2.207 2.63-3.7 3.763-3.429-.743-6.609-.588-9.653 1.377-1.739 1.121-3.067 2.635-4.218 4.338-1.592.298-3.315.254-4.833-.34-1.263-.495-2.389-1.389-2.876-2.687-.498-1.33-.197-2.409.328-3.667 1.847-.529 19.876-12.585 21.062-14.265"/><path fill="#000" d="M270.765 314.204c1.566-.032 3.648.116 5.138-.417 1.602-.573.457-2.72 1.071-3.966 1.162-2.362 5.208-3.726 7.552-4.479 3.974-1.276 11.167-2.057 15.337-1.29 1.338.247 2.502.747 3.701 1.378l.323.173c.527-.102.575-.217.955-.605.924 2.756 2.005 4.751 1.805 7.771 2.35-.128 5.464-.414 7.367 1.27.427.377.793.93 1.046 1.439l.502 1.63.299.747c.01.379.022.767-.1 1.132-.178.537-.545 1.081-1.09 1.296-2.321.909-5.895-2.65-8.122-3.425l-.244-.079c.901 2.106 2.381 4.073 3.771 5.877 3.732-.783 7.788-.773 11.429.451 3.62 1.214 6.592 3.704 8.261 7.159 2.786 5.772 1.991 13.554-.024 19.435-3.876.649-10.993.631-14.949-.07-.246-.487-.484-1.038-.809-1.476-.449-.611-1.28-1.08-2.027-1.188-1.945-.287-3.908 1.568-5.344 2.668-2.568.188-5.092.098-7.659-.012-.694-1.226-1.379-2.286-2.578-3.087-1.01-.673-2.226-.981-3.42-.693-1.912.463-2.778 1.985-3.677 3.562-3.361.054-6.728-.177-10.089-.225-.219-.39-.445-.801-.727-1.152-.707-.873-2.043-1.378-3.143-1.426-2.071-.09-3.425.876-4.875 2.188-4.521.004-8.918-.161-13.407-.735-.07-.193-.142-.385-.206-.581-1.919-5.965-2.011-14.805-.911-20.896.442-2.457 1.214-4.847 1.937-7.235.522-1.724.973-3.529 1.774-5.147 3.484.182 7.718.675 11.133.008"/><path fill="#2a2f35" d="M275.331 339.02c-.197-2.862-.541-5.713-.754-8.573-.256-3.455.115-7.772-1.121-11.015-.074-.192-.243-.563-.389-.705-.943-.935-10.77.85-12.717-.398-.429-.273-.381-.503-.411-.954 1.226-1.184 9.869-.915 12.035-1.075 1.638-.121 3.224-.389 4.835-.709 1.19 2.822 3.028 5.508 5.76 7.012-1.057 1.633-3.413 5.895-2.906 7.872.074.288.1.312.222.549.351.082.667.082 1.014.132.042.006.08.028.12.042.279-.34.649-.499 1.032-.697.557.336 1.173.595 1.43 1.226.108.396.266.743.435 1.116.462.348.464.364 1.041.35 1.659-.921 3.117-4.116 4.17-5.687.998.796 2.815 1.905 4.115 1.865l.851 1.444c.326.579.709 1.05 1.382 1.238.935.261 2.135-.13 2.892-.687q.147-.11.291-.222c1.085.859 2.854 1.21 4.158 1.606-.565 2.088-.709 4.928-1.765 6.775-.929.416-2.097.424-3.106.438-2.841.034-5.741-.392-8.585-.525-4.675-.218-9.354-.206-14.029-.418"/><path fill="#fefefe" d="M282.051 330.5c.556.337 1.173.595 1.43 1.226-.483 1.13-.996 2.448-1.861 3.335-.519.533-1 .849-1.759.867-.254-.174-.42-.2-.511-.519-.406-1.418.96-3.09 1.669-4.212.278-.34.649-.499 1.032-.697"/><path fill="#2a2f35" d="M278.543 313.269c.419-1.096.843-1.975 1.685-2.812 3.525-3.518 9.81-4.577 14.581-4.529 2.376.024 5.967-.018 7.702 1.869 1.338 1.458 1.21 3.429 1.076 5.256l-.8.07c-.25-.092-.156-.04-.362-.176-1.036-.686-1.695-.924-2.957-.924l-1.173.275c-.697.248-1.05.512-1.567 1.035-.18.184-.314.278-.546.383-3.265-.119-8.177 3.136-10.508 5.306a25 25 0 0 0-2.107 2.231c-.425-.715-1.22-1.22-1.785-1.835-1.677-1.839-2.492-3.811-3.239-6.149"/><path fill="#556778" d="m298.294 312.298 1.174-.275c.723.369 1.404 1.268 1.657 2.045.284.876.31 1.651.252 2.556-.016.269-.022.539-.034.807l-1.27.337c-.805.116-1.478.09-2.285.02l-.089-.004c-2.66 3.413-6.127 6.105-8.572 9.722-1.054 1.571-2.512 4.766-4.171 5.687-.577.014-.579-.002-1.041-.35-.169-.373-.327-.72-.435-1.116-.256-.631-.873-.89-1.43-1.226-.383.198-.753.357-1.032.697-.04-.014-.078-.036-.12-.042-.346-.05-.663-.05-1.013-.132-.123-.237-.149-.261-.223-.549-.506-1.977 1.849-6.239 2.907-7.872l.997-1.35a25 25 0 0 1 2.107-2.231c2.332-2.17 7.243-5.424 10.508-5.306.233-.104.367-.199.547-.383.517-.523.869-.787 1.566-1.035"/><path fill="#73899d" d="M283.566 321.253a25 25 0 0 1 2.107-2.231c2.332-2.17 7.243-5.424 10.508-5.306.417.739.313 1.981.218 2.814-4.234 2.92-13.109 8.713-14.349 13.971-.383.198-.753.357-1.032.697-.04-.014-.078-.036-.12-.042-.346-.05-.663-.05-1.013-.132-.123-.237-.149-.261-.223-.549-.506-1.977 1.849-6.239 2.907-7.872zm14.728-8.955 1.174-.275c.723.369 1.404 1.268 1.657 2.045.284.876.31 1.651.252 2.556-.016.269-.022.539-.034.807l-1.27.337c-.607-.529-1.358-.873-1.787-1.589-.743-1.245-.29-2.571.008-3.881"/><path fill="#556778" d="M294.329 327.254c1.897-2.836 4.773-5.34 7.78-6.948 1.318-.705 2.78-1.322 4.266-.866.599.633.947 1.032 1.166 1.883l-.665 1.086a51 51 0 0 0-8.219 8.735q-.143.112-.29.222c-.757.557-1.957.948-2.892.687-.673-.188-1.056-.659-1.383-1.237l-.851-1.445c.395-.683.731-1.412 1.088-2.117"/><path fill="#73899d" d="M294.329 327.254c1.897-2.836 4.773-5.34 7.78-6.948 1.318-.705 2.78-1.322 4.266-.866a61 61 0 0 0-6.53 5.268 61 61 0 0 0-5.753 6.108l-.851-1.445c.395-.683.731-1.412 1.088-2.117"/><path fill="#556778" d="M299.468 312.023c1.262 0 1.921.239 2.956.924.207.136.112.084.363.176l.799-.07a49 49 0 0 1 3.061-.283c2.349-.128 5.464-.414 7.367 1.27.426.377.793.93 1.045 1.438l.503 1.631.298.747c.01.379.022.767-.1 1.132-.178.536-.545 1.081-1.089 1.296-2.322.909-5.895-2.65-8.123-3.426l-.244-.078c-1.126-.162-2.798-.679-3.786.03-.406.291-.671.513-1.175.621.012-.268.018-.538.034-.807.058-.905.032-1.68-.253-2.556-.252-.777-.933-1.676-1.656-2.045"/><path fill="#73899d" d="M306.647 312.769c2.35-.128 5.464-.415 7.367 1.27.427.377.793.929 1.046 1.438l.502 1.631c-.665-.221-.861-.287-1.558-.103-2.201.583-4.138-1.165-6.195-1.714-1.464-.391-3.195-.405-4.705-.547-.329-.387-.341-.641-.447-1.126-.072-.326-.086-.162.13-.496l.799-.07a48 48 0 0 1 3.061-.283"/><path fill="#2a2f35" d="M302.703 317.948c.89-.044 1.703-.273 2.594-.123.623.361.802.986 1.078 1.615-1.486-.457-2.948.16-4.266.865-3.007 1.609-5.883 4.112-7.78 6.949-.238-.295-.337-.261-.711-.349-.841-.2-1.516-.467-2.3-.843 2.52-2.23 4.481-4.795 6.849-7.143 1.728.154 3.106.106 4.536-.971m4.838 3.375c.599.949 1.194 1.877 1.877 2.768-2.723 1.558-4.227 3.832-5.715 6.524-.659-.215-1.334-.407-1.981-.647 1.386-2.474 3.427-4.305 4.901-6.642.193-.307.253-.561.253-.918z"/><path fill="#8f513f" d="M320.472 329.821a6.7 6.7 0 0 1 1.588.054c3.155.525 6.308 3.339 8.084 5.865.108 4.15.347 8.563-1.43 12.421-2.377.074-4.761.028-7.139.094-1.464.04-3.004.246-4.462.174-1.557-.076-2.073-1.284-3.029-2.335-.625-.687-1.45-1.19-2.406-1.194-2.033-.006-3.939 1.767-5.271 3.133-1.266.086-2.538.188-3.806.226-1.338.04-2.62.168-3.656-.793.022-.271.014-.671.114-.918.557-1.374 2.693-.54 3.756-1.101.345-.683.036-1.156.102-1.885.042-.457.229-.805.619-1.07 1.787-1.204 4.848.082 6.804.357 1.16.164 2.556.156 3.524-.607.581-.457 1.157-1.384 1.147-2.147-.018-1.402-2.826-2.989-3.803-4-.713-.739-1.326-1.471-1.308-2.542.172-.429.334-.653.745-.888 2.762-1.58 8.276 2.416 11.053 3.049.596.136.959.126 1.47-.21-.14-1.244-2.658-2.154-3.524-3.087-.45-.485-.466-.847-.426-1.482.284-.589.715-.793 1.254-1.114"/><path fill="#2a2f35" d="M262.187 320.798c3.198-.086 6.481-.066 9.676.106.521 2.218.465 4.601.593 6.867.21 3.747.435 7.467.479 11.225-1.485-.151-2.993-.169-4.481-.229-.813-6.912-2.017-12.2-6.267-17.969"/><path fill="#000" d="M198.057 304.651c.12.012.24.028.36.038 1.992.171 4.359-.619 6.39-.769 7.175-.527 13.338 1.462 19.626 4.687.124.635.228 1.25.286 1.895.046.521.159 1.274.579 1.649 1.771 1.58 15.602 1.32 18.336.837.505 1.296.146 2.588.448 3.926.667 2.97 1.613 5.883 2.266 8.857 1.144 5.214 1.498 10.8 1.206 16.12-.092 1.657-.098 3.74-.787 5.27-.263.579-.615 1.106-1.244 1.314-2.023.669-10.678 1.154-13.09 1.082-1.182-1.526-2.626-3.169-4.657-3.465-.895-.131-1.815.194-2.526.733-.831.631-1.524 1.764-2.391 2.279-1.497.889-7.642 1.148-9.575 1.078-1.003-1.825-2.149-3.534-4.266-4.17-1.034-.313-2.117-.233-3.059.31-1.268.731-1.829 1.935-2.383 3.225-2.348.102-6.595.915-8.387-.751-1.103-1.026-2.491-2.973-4.104-3.131-.723-.07-1.335.373-1.808.861-.874.904-1.187 1.999-1.665 3.129-4.816.182-9.541.046-14.357-.1a22 22 0 0 1-.52-.815 22 22 0 0 1-.702-1.268 16 16 0 0 1-.414-.874 19 19 0 0 1-.37-.891 18 18 0 0 1-.168-.455 18 18 0 0 1-.436-1.382q-.063-.232-.122-.466a23 23 0 0 1-.208-.946 18 18 0 0 1-.161-.951 20 20 0 0 1-.177-1.925q-.01-.24-.014-.483a16 16 0 0 1-.002-.483q.001-.242.01-.484.007-.24.022-.483a19 19 0 0 1 .292-2.396q.043-.238.094-.474c.842-4.179 2.935-7.912 6.541-10.282 4.724-3.105 9.778-2.96 15.174-2.231.937-.593 1.799-1.128 2.849-1.5l.928-.798.374-.408.565-.779.691-1.687c.821-.186 2.024-.595 2.828-.26.242-.285.366-.451.462-.822.615-2.375 1.795-1.919 3.069-3.557-1.18-.054-2.163-.218-3.141.603l-1.186-.21-2.041-.211c-.883-3.028-.334-5.061.565-7.986"/><path fill="#556778" d="m203.86 312.456 1.749.442 1.144.591c5.27 1.571 8.849 4.361 12.364 8.555l1.014 1.418c1.105 1.573 3.269 4.355 2.954 6.394-.056.361-.16.669-.292 1.003-.377.065-.757.147-1.138.189-.549-.281-.571-.341-1.166-.219a3 3 0 0 0-.152.135 2.3 2.3 0 0 0-.463.661 2.3 2.3 0 0 0-.132.382 2 2 0 0 0-.038.199c-.01.056.004.114.006.172-.158.142-.264.246-.444.372-.413.289-.86.331-1.342.247-2.316-.403-4.483-3.728-5.721-5.533-.641.82-1.398 1.074-2.414 1.204a7 7 0 0 1-.679.042c.134 1.03.078 1.787-.19 2.784-.292.687-.769 1.008-1.464 1.27-.745.281-1.851.189-2.564-.166-.457-.226-.897-.551-1.312-.851-1.973-1.677-3.013-4.018-4.568-6.035-.891-1.156-2.247-2.093-3.344-3.055-.689-.605-.664-1.023-.725-1.891l.928-.797.374-.409.565-.779.691-1.686c.821-.187 2.024-.595 2.828-.261.242-.284.367-.45.463-.821.615-2.375 1.794-1.919 3.068-3.557"/><path fill="#73899d" d="M206.753 313.49c5.27 1.57 8.849 4.361 12.364 8.555l1.014 1.418c1.105 1.572 3.269 4.355 2.954 6.394-.056.36-.16.669-.292 1.003-.405-.414-.779-.853-1.182-1.268-1.066-1.101-2.474-.955-3.882-.971-4.058-2.362-5.849-7.6-11.357-10.656a6.3 6.3 0 0 0 .685-1.3c.425-1.168.216-2.089-.304-3.175m-10.508 6.071c1.747-.523 2.861-.058 4.425.779 2.563 1.37 7.106 5.008 8.072 7.812l.368.559c.134 1.03.078 1.787-.19 2.784-.292.687-.769 1.008-1.464 1.27-.745.281-1.851.188-2.564-.166-.457-.226-.897-.551-1.312-.851-1.973-1.677-3.013-4.018-4.568-6.036-.891-1.155-2.247-2.093-3.344-3.054-.689-.605-.664-1.024-.725-1.891l.928-.797z"/><path fill="#556778" d="M195.871 319.969c4.027 1.15 7.557 8.615 11.735 10.716.473.239.905.469 1.314.81-.292.687-.769 1.007-1.464 1.269-.745.281-1.851.189-2.564-.166-.457-.226-.897-.551-1.312-.851-1.973-1.677-3.013-4.018-4.568-6.035-.891-1.156-2.247-2.093-3.344-3.055-.689-.605-.664-1.023-.725-1.891z"/><path fill="#000" d="M197.501 317.095c.821-.186 2.024-.595 2.828-.261l.317.445c.807.93 1.648 1.348 2.872 1.432.669.046 1.262-.028 1.915-.168 3.177 2.374 4.873 5.522 6.77 8.921-.641.82-1.398 1.074-2.414 1.204a7 7 0 0 1-.679.042l-.368-.558c-.966-2.805-5.509-6.442-8.072-7.812-1.564-.838-2.678-1.302-4.425-.779l.565-.78z"/><path fill="#2a2f35" d="M196.81 318.781c.614.191.784.293 1.422.131.39-.467.626-.984 1.237-1.092l.236.284c.612.73 1.055 1.262 1.978 1.585.086.03.17.064.256.094 1.06.361 2.26.391 3.368.485 1.103 1.452 4.516 5.176 4.534 6.86-.436.325-.817.549-1.099 1.024-.966-2.805-5.509-6.442-8.072-7.812-1.564-.837-2.678-1.302-4.425-.779z"/><path fill="#73899d" d="m203.86 312.456 1.749.442c-.172 1.11-.276 2.903-1.218 3.648-.819.647-1.915.655-2.9.637a3 3 0 0 0-.845.096l-.317-.445c.242-.284.367-.45.463-.821.615-2.375 1.794-1.919 3.068-3.557"/><path fill="#2a2f35" d="M226 316.365c3.213.136 6.496.208 9.71.23 1.413.008 2.971-.308 4.355-.106.851.124 1.586.409 2.233.976l.175.414c-.273.469-.601.579-1.116.699-3.151.725-10.812-.046-12.663 2.694-2.079 3.081-2.296 13.847-1.783 17.749q-8.61.303-17.226.425c-2.848.038-5.776.202-8.619.034a42 42 0 0 0-1.823-6.829c1.289-.224 3.179-.328 4.337-.905.415.301.855.625 1.312.851.713.355 1.819.447 2.564.167.695-.263 1.172-.583 1.464-1.27.269-.998.325-1.755.19-2.784.229-.006.451-.014.679-.043 1.016-.13 1.773-.384 2.414-1.203 1.238 1.804 3.405 5.129 5.721 5.532.482.084.929.042 1.342-.246.18-.127.286-.231.444-.373-.002-.058-.016-.116-.006-.172a2.16 2.16 0 0 1 .786-1.376c.594-.122.616-.062 1.165.218.381-.042.761-.124 1.138-.188.132-.335.236-.643.292-1.004.315-2.039-1.848-4.821-2.954-6.393 2.466-1.376 4.535-4.691 5.869-7.097"/><path fill="#fefefe" d="M219.711 332.378c-.002-.058-.016-.116-.006-.172a2 2 0 0 1 .096-.393 2 2 0 0 1 .166-.368q.05-.088.11-.172.059-.083.122-.161.067-.075.139-.148.074-.07.152-.134c.595-.122.617-.062 1.166.218.843 1.168 2.347 2.873 2.057 4.431-.066.352-.166.375-.407.613-.755-.028-1.358-.369-1.855-.95-.675-.791-1.227-1.854-1.74-2.764"/><path fill="#2a2f35" d="M199.534 312.849c-.365-1.426-1.297-3.806-.462-5.156.651-1.05 2.108-1.372 3.238-1.516 6.384-.807 15.337.763 20.695 4.452.415 1.361.868 2.6 1.523 3.864-.151 2.576-3.714 5.737-5.411 7.552-3.515-4.195-7.094-6.985-12.364-8.555l-1.144-.591-1.749-.443c-1.179-.054-2.163-.218-3.14.603z"/><path fill="#8f513f" d="M180.33 324.397c3.351-.252 6.428.909 9.033 2.977 1.124.891 2.836 2.357 2.869 3.911.011.501-.081.968-.463 1.324-2.096 1.947-5.501-2.341-7.663-2.491l-.333.336c.014 1.569 1.883 2.864 2.888 3.884 1.202 1.224 2.683 2.991 2.585 4.801-.067 1.22-.963 2.258-1.847 3.017-1.249 1.073-2.766 1.37-4.38 1.276-5.041-2.117-2.516-4.447-4.038-7.065-.242-.419-.569-.803-1.079-.865-.585-.072-.938.11-1.41.396-1.205 2.051 2.089 4.183 1.881 6.406-.276.395-.442.577-.935.675-1.045.208-2.33-.098-3.231-.639-1.177-.707-1.89-1.949-2.165-3.271-.7-3.373.122-7.872 2.02-10.754 1.623-2.464 3.48-3.351 6.268-3.918"/><path fill="#2a2f35" d="M236.506 321.335a48 48 0 0 1 4.755-.077c-2.266 3.698-4.491 7.4-5.975 11.498-.573 1.58-1.076 4.667-1.659 5.827-.146.292-.382.254-.677.334-1.472.092-2.966.078-4.442.106-.01-3.433-.02-14.183 2.091-16.463 1.186-1.28 4.248-1.121 5.907-1.225m-42.547.835c1.765 3.141 5.281 4.971 6.967 8.264-.453.439-.956.485-1.552.641l-.035.008c-.323.012-.482.104-.699-.164-.76-.949-1.134-2.251-1.782-3.285-1.024-1.632-2.844-3.119-4.274-4.415.286-.542.857-.763 1.375-1.049"/><path fill="#9e9c9c" d="M135.763 276.686c.611.926 3.719 5.801 3.694 6.594l-.335.559.043.106c-1.583 1.945-3.294 4.912-6.008 5.274-1.146.154-2.325-.348-3.195-1.069-.271-.225-.493-.481-.72-.747-.387.58-.618.907-.476 1.642.49 2.544 3.292 3.88 5.163 5.274-.335 2.059-1.476 8.413-2.997 9.638-.531.073-.785.065-1.226-.278-2.294-1.779-3.719-4.2-7.076-4.048-1.684.076-3.162.911-4.397 2.009l-.13.302c-.426.245-.492.257-.984.243-.318-.229-.489-.425-.635-.783-.505-1.244-.526-2.855-.537-4.187-.047-5.548 1.154-10.552 3.377-15.623 2.351-1.727 4.786-3.069 7.463-4.221.953.012 1.847 0 2.794-.154l.756-.314c1.92.418 3.534.414 5.426-.217"/><path fill="#beb8b7" d="M118.233 301.641c.353-.689.82-1.262 1.125-1.989 2.445-5.831 2.167-9.266 7.068-14.326.786-.813 1.696-1.776 2.699-2.309.88.929-.39 2.854.059 4.22l.059.166c-.387.581-.618.908-.476 1.643.49 2.544 3.292 3.88 5.162 5.274-.335 2.059-1.476 8.412-2.996 9.638-.531.072-.785.064-1.227-.278-2.293-1.779-3.719-4.2-7.075-4.048-1.685.076-3.163.911-4.398 2.009"/><path fill="#9e9c9c" d="M142.324 288.138c.106.048.205.116.318.144 2.828.703 9.389-2.207 11.961-3.485-.178 1.374-.725 7.491-1.063 8.316.153 1.378.277 2.778.607 4.128.281 1.146.863 2.384.953 3.55.04.531-.079.985-.421 1.402-.874 1.065-8.045 2.826-9.542 2.83-.448.002-.824-.066-1.164-.385-1.088-1.019-.539-2.91-1.932-3.707-.636.579-1.77 1.284-2.672 1.168-.484-.062-.825-.387-1.086-.774-.928-1.372-.707-3.991-.377-5.57.554-2.65 2.071-6.109 4.418-7.617"/><path fill="#beb8b7" d="M146.451 292.161c-.23 1.198-.793 2.989-.384 4.155.26.21.347.36.699.384 1.864.128 5.308-2.453 6.774-3.585.153 1.378.277 2.778.607 4.128.281 1.146.863 2.384.952 3.549.041.531-.078.986-.42 1.402-.874 1.066-8.045 2.827-9.542 2.831-.448.002-.825-.066-1.164-.385-1.088-1.019-.539-2.91-1.932-3.707.01-.036.01-.079.029-.111.136-.244.326-.496.479-.733 1.776-2.748 1.227-5.007 3.902-7.928"/><path fill="#73899d" d="M200.72 313.059c.977-.821 1.96-.657 3.14-.603-1.274 1.638-2.453 1.182-3.068 3.557-.097.371-.221.537-.463.821-.804-.334-2.007.075-2.828.261q-.097.014-.195.034c-2.401.491-6.979 4.256-9.321 2.64-.514-.355-.686-1.076-.673-1.663.002-.068.018-.134.027-.2l-.127-.032c-.669.142-1.509.403-2.186.184-.524-.17-.649-.394-.938-.823.013-.513.054-.795.386-1.208.704-.875 1.959-.825 2.977-.895l.07-.152q.063-.123.125-.249c.167-.338.326-.683.59-.959 1.96-2.051 6.692-1.19 9.256-1.134l2.042.21z"/><path fill="#556778" d="M200.72 313.059c.977-.821 1.961-.657 3.14-.603-1.274 1.638-2.453 1.182-3.068 3.557-.096.371-.221.537-.463.821-.804-.334-2.007.075-2.828.261q-.097.014-.195.034c-2.401.491-6.979 4.256-9.321 2.64-.514-.355-.686-1.076-.673-1.663.002-.068.018-.134.027-.2.869-.353 1.654-.172 2.555-.058 3.87-2.097 5.657-3.227 10.239-3.143z"/><path fill="#fefefe" d="M187.212 317.873c-.669.143-1.509.403-2.186.185-.524-.171-.649-.395-.938-.824.013-.512.054-.795.386-1.207.704-.876 1.959-.826 2.977-.896zm127.847-2.395c1.148.032 2.626-.11 3.434.895.336.419.324.503.238.992-.361.354-.731.57-1.246.594-.535.023-1.09-.058-1.624-.104l-.299-.747z"/><path fill="#fefefe" d="M31.05 43.3c.08 0 .17 0 .26.02 1.87 1.86 8.3 15.95 9.76 19.11 2.69 5.99 6.02 11.82 9.1 17.64l13.54 25.81 44.49 85.2 11.53 22.24c1.66 3.23 5.25 9.26 5.9 12.54.05.24.1.48.14.72 1.96.8 3.48 2.11 4.35 4.03.05.1.1.2.14.31.08.19.13.39.19.59.04.11.08.23.11.34 0 .02 0 .04.01.06.23.92.31 1.88.27 2.83.79-.39 1.46-.52 2.26-.52.2 0 .42 0 .64.02 1.87.41 3.44 1.22 4.75 2.39.2.17.38.37.57.56.06.06.13.12.19.19.48.53.93 1.11 1.34 1.75.58.91.98 1.89 1.37 2.89 3.46-.17 7.38-1.12 10.58-2.5 1.18-.92 2.66-1.16 3.87-2.21-.11-.29-.17-.57-.23-.87.49-1.14 4.89-3.95 6.16-5.02 3.32-2.82 6.45-5.87 9.76-8.71 2.26-2.26 4.25-4.78 6.53-7.02-.5-1.49-.91-2.94-1.2-4.48-2.26 2.13-8.14 8.39-10.39 9.6-.53-.02-.68-.02-1.12-.37-.71-.57-1.2-1.85-1.56-2.68a38 38 0 0 1-1.44-3.75c-.21-.64-.4-1.28-.58-1.93-.12-.43-.22-.87-.32-1.31-.05-.21-.11-.43-.16-.64-.06-.27-.1-.54-.16-.8-.08-.39-.16-.77-.22-1.16-.11-.66-.2-1.33-.28-1.99s-.14-1.33-.18-2v-.24c-.03-.59-.06-1.17-.07-1.76-1.87 1.51-9.45 7.77-11.31 8.02-.09.01-.14.02-.19.02-.13 0-.13-.06-.36-.26-.31-.76-.43-1.64-.45-2.57-.04-1.55.2-3.2.27-4.54-1.24.88-2.72 2.7-4.23 2.97l-.24-.26c-.25-1.05-.32-2.23-.3-3.44.03-2.01.33-4.12.52-5.9.33-2.81.73-5.6 1.21-8.39.47-2.79 1.02-5.56 1.63-8.32s1.3-5.5 2.06-8.22 1.58-5.43 2.47-8.11c1.58-4.7 3.52-9.41 5.33-14.02 1.14-2.89 2.48-5.71 3.79-8.52.62-1.34 1.4-2.74 1.87-4.15l.12-.36v-.07c0-.06.01-.13.02-.19q.015-.12.06-.27c.44-1.54 2.66-5.59 3.59-6.2-.05-2.01.02-4.01.22-6.01-.12-1.68.07-3.44.21-5.15l.06-.73c-.07-2.05-.12-4.14.12-6.18 0-1.19-.09-2.35-.21-3.53 0-.06 0-.13-.02-.19-3.65 1.65-7.13 3.74-10.81 5.3-.1.2-.21.4-.32.59-.3.52-.59.92-1.2 1.08l-.29-.18a3.3 3.3 0 0 1-.32-1.02c-1.45-9.47 4.49-23.24 9.98-30.89-5.16-.41-9.45-.72-14.08-.72-2.13 0-4.33.07-6.72.22 1.34-.95 2.49-2.15 3.84-3.12 1.77-1.25 3.56-2.47 5.38-3.65s3.66-2.32 5.53-3.42 3.75-2.17 5.66-3.2 3.84-2.01 5.79-2.96c1.58-.76 3.17-1.5 4.77-2.21 1.6-.72 3.21-1.41 4.83-2.08a208 208 0 0 1 9.82-3.79c1.65-.59 3.31-1.15 4.98-1.69s3.34-1.06 5.03-1.56c1.68-.5 3.37-.97 5.06-1.43q2.535-.675 5.1-1.29c12.37-2.98 26.66-5.22 39.61-5.22.83 0 1.66 0 2.48.03 21.65.5 46.93 7.33 67.44 14.46 8.66 3.01 36.08 13.15 39.8 21.66.17.39.19.41.02.81-2.68 1.14-7.1 1.17-10.07 1.52-2.12.25-4.22.59-6.3 1.03 3.08 3.62 5.49 7.9 7.73 12.08 1.95 3.65 7.55 16.82 6.3 20.25-.14.37-.2.31-.54.46-3.23-.21-10.88-5.61-14.13-7.48a66 66 0 0 0-6.6-3.34l-.1 3.09c.04 1.27.02 2.57.13 3.83.09 1.59.03 3.27.31 4.83.06 1.54.04 3.07 0 4.6.01 2.24.07 4.51-.07 6.75.03 1.07.14 2.19.01 3.26-.07.64-.23 1.27-.54 1.86.73 1.47 1.51 2.91 2.3 4.35 1.41 2.58 2.83 5.15 3.91 7.89a238 238 0 0 1 2.63 7.18c.17.49.35.98.52 1.47.35 1.02.68 2.04 1.01 3.06.62 1.9 1.22 3.8 1.78 5.72.43 1.47.85 2.95 1.26 4.43.4 1.48.79 2.97 1.16 4.46.29 1.14.55 2.29.82 3.44l.42 1.81q.42 1.86.81 3.72c.81 3.76 1.58 7.59 2.16 11.44 0 .05.02.11.03.16.02.13.04.27.05.4.32 2.21.57 4.42.71 6.62.03.45.09 1 .14 1.58.12 1.21.21 2.56-.03 3.42-.02.08-.08.15-.12.22-2.54-.02-10.27-4.4-12.82-5.77-.1 4.47-.29 8.94-.58 13.4l.05.45c-.22.49-.2.48-.69.68-2.58-.25-12.39-6.53-15.09-8.19-.52 1.72-1.26 3.31-2.14 4.87 1.93 1.55 3.8 3.35 5.95 4.57.39.89.01 1.65-.31 2.5 2 1.37 3.94 2.94 5.36 4.94.59-.42 1.07-.85 1.81-.92.31.05.57.11.82.31 1.39 1.07 5.8 6.92 7 8.61.19.27.35.54.51.83-.28.86-.55 1.72-.93 2.54.81.47 1.71 1.17 2.65 2.02 4.87 4.44 11 13.38 13.69 19.39.48 1.08.86 2.07 1.09 2.92.04.14.07.27.11.4.26 1.01.36 1.78-.22 2.77l-.18.3c.26.35.43.64.53.94.03.09.04.19.06.28.01.07.04.13.04.21.01.12.01.26.02.39v.2l.24.87c.38 1.39.74 2.78.91 4.21l.48.33c.93.44 1.71.97 2.23 1.78.17.27.31.57.42.91.07.2.11.42.14.65.04.29.07.6.06.91-.02.91-.25 1.85-.64 2.58-.2.37-.45.7-.68 1.05-.09.13-.17.27-.26.4.24.44.42.87.57 1.32.22.64.36 1.29.45 2 .22.75.17 1.17-.03 1.92l-.09.17c.64 3.52.41 7.53-1.63 10.6-.92 1.38-2.41 2.59-4.06 2.94-.53.11-1.11.12-1.66.12h-.59c-2.51 2.15-5.26 3.65-8.58 3.65-.23 0-.47 0-.7-.02-2.69-.17-4.69-1.34-6.5-3.25-1.34.7-2.65 1.1-4.02 1.1-.79 0-1.6-.13-2.45-.41-2.2-.72-4.07-2.28-5.26-4.25-.19-.32-.37-.65-.53-.98-.04-.08-.07-.16-.1-.24-.03-.06-.05-.12-.08-.18-.06-.14-.11-.29-.16-.43a1 1 0 0 1-.04-.14c-.03-.1-.07-.2-.09-.3l-.12-.44c-.03-.15-.07-.3-.1-.45l-.06-.38c0-.02 0-.05-.01-.07a7 7 0 0 1-.05-.46l-.03-.46v-.46c0-.16 0-.31.01-.46 0-.15.02-.31.04-.46.01-.15.03-.3.06-.46.02-.15.05-.3.08-.45s.07-.3.1-.45c0-.03.02-.06.03-.09.03-.12.06-.24.1-.35.05-.15.09-.29.15-.44.01-.03.03-.06.04-.1l-.05-.44c-.03-.07-.04-.14-.06-.2-.12-.38-.19-.77-.2-1.17-.09-2.19 1.11-4.25 1.01-6.46-.06-1.46-.81-2.65-1.3-3.91-.18-.47-.33-.95-.39-1.45 0-.05-.01-.11-.01-.16l-.12-.12c-2.22-2.13-3.95-5.34-5.66-7.91l-.08-.07-.79-.72c-1.27.74-2.46 1.22-3.92 1.51-4.2-1.86-7.69-4.82-11.41-7.43.82 4.73 3.7 23.51 1.21 27.29-.92 1.4-3.32 2.27-4.89 2.67.25.5.51 1.05.8 1.55.17.29.35.57.57.82.04.05.09.09.13.14.16.18.32.35.49.52 1.06 1.08 2.27 2.06 3.02 3.34.3.51.52 1.07.63 1.71.05.37.11.78.14 1.2s0 .83-.11 1.19c-.26 2.31-1.43 3.91-2.74 5.75.92 2.76 2 4.75 1.8 7.77.29-.02.6-.03.91-.05.52-.03 1.06-.05 1.6-.05 1.77 0 3.58.24 4.86 1.37.43.38.79.93 1.05 1.44 1.15.03 2.62-.11 3.43.9.34.42.32.5.24.99-.36.35-.73.57-1.25.59h-.19c-.47 0-.96-.07-1.43-.11.01.38.02.77-.1 1.13-.11.33-.3.65-.55.91-.16.16-.33.3-.54.39-.26.1-.54.15-.82.15-2.28 0-5.32-2.88-7.3-3.57-.08-.03-.16-.05-.24-.08.9 2.11 2.38 4.07 3.77 5.88 1.65-.35 3.36-.54 5.07-.54 2.16 0 4.32.31 6.36.99 3.62 1.21 6.59 3.7 8.26 7.16 2.79 5.77 1.99 13.55-.02 19.43-1.87.31-4.51.47-7.17.47-2.85 0-5.73-.18-7.77-.54-.25-.49-.48-1.04-.81-1.48-.45-.61-1.28-1.08-2.03-1.19-.14-.02-.27-.03-.41-.03-1.81 0-3.6 1.68-4.93 2.7-1.08.08-2.15.11-3.22.11-1.48 0-2.95-.06-4.44-.12-.69-1.23-1.38-2.29-2.58-3.09-.75-.5-1.62-.8-2.51-.8-.3 0-.61.03-.91.11-1.91.46-2.78 1.99-3.68 3.56h-1.04c-3.01 0-6.03-.19-9.04-.23-.22-.39-.44-.8-.73-1.15-.71-.87-2.04-1.38-3.14-1.43h-.26c-1.92 0-3.22.94-4.61 2.19h-.16c-4.46 0-8.81-.17-13.25-.74-.07-.19-.14-.39-.21-.58-1.92-5.97-2.01-14.81-.91-20.9.44-2.46 1.21-4.85 1.94-7.24.52-1.72.97-3.53 1.77-5.15-1.28-.05-2.49-.28-3.7-.68-1.46-.47-2.85-1.19-3.69-2.47-.12-.18-.23-.37-.33-.58-.46-.96-.63-1.9-.62-2.83.02-2.05.91-4.04 1.59-6.04.29-.85.59-2.31.53-3.58-.03-.77-.19-1.47-.56-1.93-.32-.41-1.16-.35-1.66-.41-2.11.3-3.66.72-5.33 2.13.5.8.92 1.91 1.25 3.14.66 2.47.91 5.41.5 7.22-.45 1.98-1.37 3.42-3.13 4.45-.27.16-.54.28-.84.37.5 1.3.15 2.59.45 3.92.67 2.97 1.61 5.88 2.27 8.86 1.14 5.21 1.5 10.8 1.21 16.12-.09 1.66-.1 3.74-.79 5.27-.26.58-.62 1.11-1.24 1.31-1.89.62-9.56 1.09-12.53 1.09h-.56c-1.18-1.53-2.63-3.17-4.66-3.47-.13-.02-.27-.03-.4-.03-.76 0-1.52.3-2.12.76-.83.63-1.52 1.76-2.39 2.28-1.34.8-6.44 1.09-8.86 1.09-.27 0-.51 0-.71-.01-1-1.83-2.15-3.53-4.27-4.17-.4-.12-.8-.18-1.21-.18-.64 0-1.27.16-1.85.49-1.27.73-1.83 1.94-2.38 3.23-1.19.05-2.88.29-4.48.29s-3.02-.22-3.9-1.04c-1.1-1.03-2.49-2.97-4.1-3.13H191c-.66 0-1.22.41-1.66.87-.87.9-1.19 2-1.66 3.13-1.65.06-3.29.09-4.93.09-3.14 0-6.26-.09-9.42-.19-.09-.13-.18-.27-.26-.41-.09-.13-.17-.27-.26-.41-.08-.14-.17-.28-.24-.42l-.24-.42c-.08-.14-.15-.28-.22-.43-.07-.14-.14-.29-.21-.43-.07-.15-.14-.29-.2-.44-.07-.15-.13-.29-.19-.44l-.18-.45c-.06-.15-.11-.3-.17-.45-.05-.15-.11-.3-.16-.46-.05-.15-.1-.31-.14-.46-.05-.15-.09-.31-.13-.46l-.12-.47c-.04-.16-.07-.31-.11-.47-.03-.16-.07-.32-.1-.47l-.09-.48c-.03-.16-.05-.32-.07-.48l-.06-.48c-.02-.16-.04-.32-.05-.48s-.03-.32-.04-.48l-.03-.48c0-.16-.01-.32-.01-.48v-.96c0-.16.01-.32.02-.48 0-.16.02-.32.03-.48s.03-.32.05-.48l.06-.48c.02-.16.04-.32.07-.48s.05-.32.08-.47c.03-.16.06-.32.09-.47.84-4.18 2.93-7.91 6.54-10.28 3.08-2.03 6.3-2.67 9.67-2.67 1.79 0 3.63.18 5.51.44.94-.59 1.8-1.13 2.85-1.5l.93-.8.37-.41.57-.78.69-1.69c-.06 0-.13.02-.19.03-1.98.41-5.45 3.04-7.91 3.04-.52 0-1-.12-1.41-.4-.51-.35-.69-1.08-.67-1.66 0-.07.02-.13.03-.2l-.13-.03c-.48.1-1.06.27-1.6.27-.2 0-.4-.02-.59-.08-.52-.17-.65-.39-.94-.82.01-.51.05-.8.39-1.21.7-.88 1.96-.83 2.98-.9.02-.05.05-.1.07-.15.04-.08.08-.16.12-.25.17-.34.33-.68.59-.96 1.05-1.1 2.89-1.36 4.76-1.36 1.63 0 3.3.2 4.49.23-.88-3.03-.33-5.06.56-7.99-1.19-.8-1.99-1.69-2.59-3.01-1.96-4.36 1.04-7.19 3.67-9.99 1.19-1.27 2.31-2.54 2.84-3.94l.09-.23c-2.07-.33-3.68-.77-5.37-2.08-2.25-6.65.16-23.69 1.56-31.06-.16.17-.34.36-.54.58-3.05 3.29-11.06 12-13.9 12.8-1.13-.18-2.58-1.22-3.96-2.46-1.46-1.32-2.83-2.86-3.62-3.81-5.56 3.89-13.38 5.65-20.01 6.74l1.36 1.71c2.04.53 4.66.53 5.87 2.56.31.52.44 1.09.46 1.68s-.08 1.18-.26 1.73c-1.2 3.79-5.68 7.16-9.06 8.91-.18 1.38-.72 7.49-1.06 8.31.15 1.38.28 2.78.61 4.13.28 1.15.86 2.38.95 3.55.02.21 0 .41-.04.6-.06.28-.18.55-.38.8-.87 1.07-8.04 2.83-9.54 2.83h-.02c-.44 0-.81-.07-1.15-.38-1.09-1.02-.54-2.91-1.93-3.71-.59.54-1.61 1.18-2.47 1.18-.07 0-.14 0-.2-.01-.48-.06-.82-.39-1.09-.77-.93-1.37-.71-3.99-.38-5.57.55-2.65 2.07-6.11 4.42-7.62-.24-.29-.45-.55-.64-.83 0 0-.01-.02-.02-.03-.19-.29-.37-.59-.53-.95a8 8 0 0 1-.41-.44l-.04-.04c-.23-.27-.43-.56-.61-.86-.14-.22-.27-.46-.4-.71l-.09-.18-.04-.08-.38-.07c-1.58 1.94-3.29 4.91-6.01 5.27q-.21.03-.42.03c-1.01 0-2.01-.46-2.77-1.1-.27-.22-.49-.48-.72-.75-.39.58-.62.91-.48 1.64.18.95.69 1.74 1.36 2.42 1.1 1.13 2.64 1.98 3.81 2.85-.34 2.06-1.48 8.41-3 9.64-.16.02-.3.04-.42.04-.28 0-.5-.08-.81-.31-2.22-1.73-3.63-4.05-6.78-4.05h-.3c-1.68.08-3.16.91-4.4 2.01l-.13.3c-.36.21-.46.25-.77.25h-.21c-.32-.23-.49-.43-.63-.78-.51-1.24-.53-2.85-.54-4.19-.05-5.55 1.15-10.55 3.38-15.62 2.35-1.73 4.78-3.07 7.46-4.22-.84-.17-1.7-.32-2.53-.56-5.5-1.62-9.99-5.73-12.67-10.73-1.65-3.08-2.43-6.11-2.4-9.25.02-1.88.34-3.81.94-5.8.04-.28.06-.67.18-.93.26-.58.57-.64 1.1-.87.16-.58.44-1.14.69-1.69-.62.12-1.26.18-1.9.18-1 0-2.01-.16-2.93-.52-1.26-.49-2.39-1.39-2.88-2.69-.09-.23-.14-.45-.18-.67-.2-1.04.08-1.96.51-3-.43-.34-.85-.69-1.27-1.04-1.4-1.04-2.6-2.77-3.73-4.11l-6.2-7.31-13.87-16.45c-.92-1.1-1.89-2.2-2.86-3.32-1.6-1.87-3.18-3.79-4.43-5.83.22-.63.47-1.26.72-1.88.77-1.87 1.66-3.7 2.51-5.52-2.69.16-5.38.3-8.07.4-2.18-2.56-3.85-5.51-6-8.08.58-1.95 1.31-3.83 2.14-5.68-1.68.29-3.37.48-5.06.65-3.36-4.14-6.89-9.31-9.6-13.89 2.18-2.66 5.07-5.3 7.74-7.48.59-.68 1.73-1.97 1.67-2.87-.24-.14-.46-.18-.68-.18-.25 0-.5.05-.8.08-4.6.62-9.36 1.21-13.9 2.17-10.54-10.61-18.9-26.35-23.25-40.58-1.14-3.71-1.88-7.5-2.64-11.3 1.09-.73 2.24-1.36 3.38-2-1.53-.37-3.03-1.01-4.53-1.49-.31-1.23-1.03-3.37-.35-4.53.6-1.02 8.23-3.25 9.8-3.77-3.58-2.33-6.82-5.2-10.28-7.71-.49-3.33-.62-6.56-.33-9.92.92-10.57 4.88-22.15 11.09-30.79 1.14-1.59 2.42-3.37 3.96-4.59.41-.32.72-.52 1.18-.52m108 240.48.13-.22.21-.34s0-.11-.03-.19c.02.08.03.14.03.19zm85.92 27.97c-.21-.39-.28-.92-.32-1.31-.06-.65-.16-1.26-.29-1.9.12.63.23 1.25.29 1.89.03.39.11.91.32 1.31m.26.35c-.07-.06-.11-.14-.17-.22.05.08.1.16.16.22M31.05 31.3c-3.11 0-6.01 1.05-8.62 3.11-2.87 2.27-4.84 5.01-6.28 7.01C8.85 51.59 4.01 64.98 2.86 78.16c-.37 4.2-.23 8.36.41 12.72.23 1.58.78 3.08 1.58 4.42-2.59 5.12-1.2 10.24-.6 12.49l.08.32c.22.87.54 1.71.94 2.5.02.13.05.26.07.39l.11.57c.77 3.83 1.56 7.79 2.82 11.88 5.31 17.32 15.11 34.34 26.22 45.52.81.81 1.71 1.49 2.69 2.03.25 1.35.74 2.67 1.47 3.9 3.13 5.29 7 10.88 10.61 15.34q.345.42.72.81c.46 1.58 1.24 3.07 2.33 4.37.71.84 1.47 1.94 2.27 3.1 1.08 1.55 2.29 3.3 3.79 5.06.69.81 1.47 1.51 2.32 2.1.29 1.19.77 2.33 1.42 3.4 1.7 2.77 3.67 5.17 5.55 7.36.34.4.69.8 1.03 1.2.58.67 1.17 1.34 1.72 2.01l13.91 16.49 6.22 7.33c.23.27.44.54.67.82.33.41.7.87 1.1 1.35.02.15.05.29.08.44.17.92.41 1.79.73 2.65.89 2.37 2.3 4.45 4.12 6.16-.04.61-.07 1.22-.08 1.82-.06 5.15 1.23 10.21 3.82 15.06 1.64 3.05 3.68 5.81 6.04 8.2-2.14 5.78-3.15 11.49-3.1 17.37.02 1.95.04 5.21 1.42 8.6 1 2.44 2.59 4.46 4.74 6.01 1.95 1.4 4.27 2.19 6.67 2.26h.55c2.1 0 3.77-.46 5.06-1 3.02 2.32 6.08 2.8 8.12 2.8.86 0 1.57-.08 2.03-.15 1.55-.21 3.03-.72 4.37-1.49 1.82 1.37 4.53 2.66 8.2 2.66h.08c1.96-.01 4.69-.5 8.12-1.45 4.57-1.26 8.13-2.72 10.64-5.78 1.43-1.74 2.4-3.76 2.85-5.99.27-1.28.35-2.61.25-3.92-.17-2.23-.75-3.98-1.14-5.14-.05-.14-.1-.28-.14-.42a10 10 0 0 1-.12-.74c.08-.54.16-1.14.24-1.83 3.58-2.77 7.47-6.83 9.19-12.24.25-.78.44-1.58.58-2.38 2.1 1.32 4.16 2.11 6.3 2.44.61.1 1.23.14 1.84.14h.03c.14 3.56.58 6.86 1.48 9.52.05.14.09.27.14.4-1.97 3.34-3.43 7.76-2.26 13.02-.85.47-1.65 1.01-2.38 1.63-1.9.75-3.95 2.03-5.71 4.21-1.28 1.59-2.02 3.18-2.44 4.57-.8.42-1.58.89-2.35 1.39-6 3.94-10.15 10.28-11.7 17.86-.05.24-.1.48-.14.73-.05.24-.09.49-.13.73 0 .02 0 .05-.01.07-.04.25-.08.5-.11.76l-.09.73v.07c-.03.26-.05.52-.07.79-.02.25-.04.51-.05.76-.02.26-.03.51-.04.77 0 .25-.01.51-.02.77v.79c0 .27.01.54.02.81.01.26.02.52.04.78l.06.71v.07c.02.27.05.53.08.79.03.25.06.5.1.75.04.28.08.54.12.8s.09.52.14.78c.04.23.1.49.15.74.04.2.1.44.16.69 0 .03.02.07.03.1l.18.69c0 .03.01.05.02.08.06.22.13.44.19.66 0 .03.02.06.03.09l.21.66c.09.28.18.54.27.8.07.21.17.47.27.72.09.23.17.44.26.66.02.04.03.08.05.12.09.22.19.44.28.66.1.24.21.47.32.71.12.26.25.52.38.77.1.2.22.43.35.67.13.23.24.44.36.65a15 15 0 0 0 .44.74c.13.21.25.41.38.62.15.23.28.44.42.65 2.16 3.21 5.73 5.19 9.6 5.3 2.99.09 6.37.19 9.79.19 1.92 0 3.68-.03 5.39-.1 1.46-.06 2.86-.37 4.16-.91 2.04.73 4.34 1.1 6.86 1.1 1.52 0 2.89-.12 3.99-.22.37-.03.82-.07 1.01-.08 1.26-.05 2.47-.3 3.62-.72 1.56.82 3.31 1.3 5.13 1.36.32.01.7.02 1.15.02 7.19 0 11.08-1.01 13.16-1.86 1.52.74 3.19 1.16 4.92 1.22.26 0 .57.01.91.01.11 0 11.56-.13 16.3-1.7.66-.22 1.5-.56 2.4-1.07 1.18.59 2.47.99 3.82 1.16 4.44.57 9.13.83 14.77.83h.18c1.32 0 2.63-.22 3.86-.64 1.46.65 3.05 1.01 4.7 1.03 1.19.02 2.4.06 3.69.11 1.78.06 3.61.13 5.53.13h1.24c1.53-.02 3.02-.34 4.4-.91 1.41.66 2.96 1.05 4.57 1.12 1.56.07 3.22.13 4.95.13 1.46 0 2.8-.05 4.09-.14 1.11-.08 2.19-.31 3.22-.69.64.23 1.31.41 1.99.53 3.56.63 7.71.73 9.87.73 2.44 0 6.01-.11 9.16-.64a12 12 0 0 0 9.37-7.95c1.65-4.83 4.92-17.28-.52-28.54a25.63 25.63 0 0 0-10.13-10.99c-.29-1.22-.76-2.38-1.41-3.5.61.27 1.24.51 1.88.71 2.03.66 4.11 1 6.17 1 .54 0 1.07-.02 1.61-.07 2.52 1.28 5.24 2.01 8.15 2.2.49.03.98.05 1.46.05 4.53 0 8.87-1.33 12.95-3.96l.32-.06c4.62-.96 8.84-3.89 11.6-8.04 3.11-4.68 4.43-10.58 3.81-16.84.15-1.34.15-2.94-.24-4.74.47-1.56.73-3.19.76-4.85.02-.98-.05-1.97-.2-2.96-.14-.89-.33-1.72-.59-2.52-.42-1.3-1-2.54-1.72-3.68-.6-.94-1.27-1.79-2.04-2.58-.02-.07-.04-.13-.05-.2 0-.06-.01-.11-.02-.17.3-2.77-.26-4.94-.51-5.91q-.075-.27-.15-.57c-.39-1.43-.95-2.95-1.71-4.64-2.73-6.11-8.57-15.25-14.61-21.46-.25-1.22-.69-2.41-1.32-3.51-.3-.52-.67-1.15-1.17-1.86-.51-.72-1.46-2.03-2.61-3.53.36-.56.69-1.16.98-1.79l.02-.05c.19-.41.36-.84.5-1.27.63.09 1.26.13 1.87.13h.09c4.2 0 8.08-2.19 10.25-5.76a12.4 12.4 0 0 0 1.41-3.18c.78-2.75.67-5.4.44-7.85l-.05-.47c-.03-.27-.05-.52-.07-.74-.15-2.36-.42-4.83-.81-7.55v-.04l-.06-.41-.03-.21c-.64-4.32-1.51-8.55-2.28-12.12-.28-1.38-.58-2.73-.84-3.87-.14-.64-.29-1.27-.44-1.91q-.42-1.815-.87-3.63c-.39-1.56-.8-3.14-1.23-4.7-.42-1.56-.87-3.13-1.32-4.67-.54-1.82-1.13-3.74-1.88-6.03l-.11-.33c-.31-.97-.63-1.93-.96-2.9-.11-.34-.24-.68-.36-1.02l-.19-.52c-.96-2.76-1.87-5.24-2.78-7.58 0-.02-.01-.04-.02-.05-1.34-3.41-3.01-6.45-4.49-9.14l-.07-.12c-.08-.15-.17-.31-.25-.46.06-1.17 0-2.18-.03-2.99V131c.04-.89.07-1.76.07-2.61 2.64 1.24 5.11 2.03 7.59 2.19.26.02.53.03.79.03 1.57 0 3.13-.31 4.59-.91 3.4-1.34 5.96-3.98 7.23-7.45 1.63-4.47 1.08-9.74-1.92-18.16-1.21-3.41-2.62-6.74-3.78-9.22.49-.17.97-.35 1.45-.55 2.86-1.21 5.14-3.49 6.35-6.35 1.46-3.42 1.43-6.89-.07-10.3-2.91-6.66-10.29-12.49-23.92-18.94-8.88-4.2-18.19-7.6-22.94-9.26-18.95-6.59-46.67-14.56-71.1-15.12-.91-.02-1.83-.03-2.75-.03-16.01 0-31.9 3.02-42.42 5.56-1.78.43-3.6.89-5.39 1.37-1.8.48-3.61.99-5.37 1.52-1.77.53-3.57 1.08-5.33 1.66a206 206 0 0 0-10.51 3.74 207 207 0 0 0-10.3 4.28c-1.7.76-3.4 1.55-5.06 2.35-.02 0-.04.02-.06.03a166 166 0 0 0-12.32 6.62c-1.99 1.17-3.99 2.41-5.94 3.68-1.96 1.27-3.9 2.59-5.79 3.92-.01.01-.03.02-.04.03-1.12.8-2.04 1.6-2.78 2.24-.36.31-.82.71-1.01.85-4.38 3.1-6.17 8.73-4.39 13.79 1.7 4.82 6.25 8 11.31 8 .26 0 .51 0 .77-.02.31-.02.62-.04.93-.05-2.36 6.8-3.8 14.34-2.73 21.29.23 1.53.68 2.97 1.37 4.4.97 2.01 2.48 3.72 4.36 4.92l.29.18a12 12 0 0 0 5.81 1.87c-1.65 3.02-2.52 5.67-2.53 5.72-.07.25-.14.51-.2.76-.15.32-.38.8-.55 1.14-.23.48-.47.95-.68 1.42l-.52 1.11c-1.19 2.57-2.43 5.22-3.55 8.07-.35.88-.7 1.76-1.05 2.65-1.53 3.86-3.12 7.85-4.5 11.95-.96 2.89-1.85 5.82-2.66 8.72-.81 2.91-1.55 5.88-2.2 8.82-.66 2.94-1.25 5.94-1.75 8.92-.5 2.96-.94 5.99-1.29 8.99 0 .03 0 .06-.01.09-.04.32-.08.66-.12 1-.2 1.69-.44 3.79-.48 6.01-.04 2.35.16 4.43.61 6.37.46 1.97 1.42 3.8 2.77 5.3l.24.26c.92 1.02 2 1.87 3.18 2.51.55.87 1.21 1.67 1.96 2.37 3.12 3.03 6.67 3.49 8.54 3.49a13.8 13.8 0 0 0 3.56-.48c.13.3.25.6.38.89l.08.19c.03.07.06.14.09.22l-.11.08c-2.39 1.72-4.55 3.28-6.22 5.28-.21-.21-.45-.44-.73-.69a22 22 0 0 0-6.47-4.02 19 19 0 0 0-4.05-4.79c-1.08-2.67-2.59-5.53-4.33-8.74-.46-.85-.89-1.63-1.22-2.29 0-.02-.02-.03-.02-.05l-11.53-22.24-44.51-85.23-13.55-25.83c-.81-1.53-1.62-3.02-2.42-4.52-2.33-4.31-4.52-8.37-6.36-12.46l-.06-.12-.35-.76c-7.97-17.28-9.86-19.86-11.85-21.83a12.05 12.05 0 0 0-6.73-3.36c-.66-.1-1.32-.14-1.98-.14zm288.04 271.71c.07-.29.13-.59.19-.89.39.62.81 1.22 1.25 1.79q-.69-.495-1.44-.9"/></svg>