<svg xmlns="http://www.w3.org/2000/svg" width="401" height="401" fill="none" viewBox="0 0 401 401"><path fill="#fcd299" d="M143.419 82.026c1.34-.948 2.492-2.152 3.842-3.117a158 158 0 0 1 10.912-7.073 159 159 0 0 1 11.453-6.157 197 197 0 0 1 9.605-4.296 198 198 0 0 1 14.801-5.475 198 198 0 0 1 15.189-4.284c13.164-3.174 28.505-5.507 42.083-5.194 21.653.498 46.927 7.33 67.438 14.459 8.657 3.009 36.078 13.155 39.801 21.662.169.385.191.408.023.806-2.683 1.14-7.101 1.173-10.068 1.524q-3.174.369-6.299 1.032c3.081 3.615 5.488 7.902 7.725 12.077 1.955 3.648 7.552 16.82 6.302 20.245-.136.374-.202.311-.539.462-3.229-.213-10.884-5.606-14.131-7.478a66 66 0 0 0-6.604-3.342l-.104 3.091c.038 1.27.024 2.568.134 3.832.092 1.59.032 3.267.306 4.832.061 1.537.039 3.066.004 4.603.011 2.243.071 4.51-.07 6.749.048 1.713.293 3.551-.524 5.121 2.025 4.107 4.528 7.97 6.213 12.247a219 219 0 0 1 5.937 17.427 220 220 0 0 1 4.461 17.862c1.308 6.099 2.543 12.406 2.948 18.633.09 1.38.477 3.721.11 4.999-.022.081-.08.147-.12.221-2.538-.018-10.275-4.401-12.821-5.767a306 306 0 0 1-.579 13.404l.05.453c-.224.485-.2.475-.689.679-2.578-.25-12.395-6.534-15.087-8.19-.521 1.72-1.26 3.313-2.145 4.871-.445.374-.529.455-1.096.551-2.207-.619-4.573-2.484-6.377-3.9-1.452 1.108-3.596 2.123-5.404 2.468-3.806.723-8.052.162-11.916.122l-18.472-.004c-2.582-.008-11.043-.521-12.918.448l-.214-.15c-.048-.034-.092-.076-.144-.104-.713-.371-38.061-.106-41.927.112-.435.024-.787.038-1.184.239-.074.036-.136.092-.204.136-1.38-.775-8.355-.329-10.26-.311-7.908.042-18.012.615-25.297-2.67-2.362 1.605-4.748 3.321-7.194 4.794l-.121.296c-.206.513-.25 1.15-.715 1.452-.416-.174-.614-.314-.91-.653-.497-1.49-.908-2.938-1.202-4.483-2.258 2.132-8.144 8.391-10.394 9.601-.534-.018-.685-.022-1.125-.373-.706-.565-1.201-1.852-1.563-2.676a40 40 0 0 1-2.019-5.674 40 40 0 0 1-1.398-9.921c-1.865 1.504-9.451 7.77-11.308 8.016-.348.046-.246.018-.546-.242-.831-2.014-.299-4.976-.181-7.113-1.236.877-2.724 2.696-4.235 2.974l-.238-.264c-.657-2.808-.09-6.482.224-9.335a166 166 0 0 1 4.895-24.924 166 166 0 0 1 2.472-8.105c1.577-4.701 3.515-9.408 5.332-14.024 1.138-2.892 2.479-5.706 3.786-8.524.624-1.344 1.404-2.746 1.865-4.15l.116-.365c.01-.086.014-.174.028-.26.208-1.255 2.666-5.822 3.659-6.475q-.076-3.014.221-6.014c-.137-1.923.14-3.958.274-5.882-.072-2.049-.117-4.143.125-6.181a36 36 0 0 0-.232-3.719c-3.653 1.652-7.133 3.744-10.814 5.297q-.151.302-.319.596c-.304.522-.591.915-1.196 1.076l-.288-.183a3.4 3.4 0 0 1-.322-1.019c-1.448-9.471 4.492-23.24 9.976-30.892-7.538-.602-13.207-.99-20.797-.506"/><path fill="#a46d30" d="M143.419 82.026c1.34-.948 2.492-2.152 3.842-3.117a158 158 0 0 1 10.912-7.073 159 159 0 0 1 11.453-6.157 197 197 0 0 1 9.605-4.296 198 198 0 0 1 14.801-5.475 198 198 0 0 1 15.189-4.284c13.164-3.174 28.505-5.507 42.083-5.194 21.653.498 46.927 7.33 67.438 14.459 8.657 3.009 36.078 13.155 39.801 21.662.169.385.191.408.023.806-2.683 1.14-7.101 1.173-10.068 1.524q-3.174.369-6.299 1.032c3.081 3.615 5.488 7.902 7.725 12.077 1.955 3.648 7.552 16.82 6.302 20.245-.136.374-.202.311-.539.462-3.229-.213-10.884-5.606-14.131-7.478a66 66 0 0 0-6.604-3.342l-.104 3.091c.038 1.27.024 2.568.134 3.832.092 1.59.032 3.267.306 4.832.061 1.537.039 3.066.004 4.603.011 2.243.071 4.51-.07 6.749.048 1.713.293 3.551-.524 5.121-.467.106-.898.163-1.37.057-2.482-.557-4.948-1.473-7.414-2.134a306 306 0 0 0-15.018-3.572l-6.582-1.361c-1.883-.69-5.841-1.085-7.974-1.468-12.192-2.042-24.335-3.626-36.699-4.107-2.402-.523-6.758-.295-9.364-.351l-3.624-.016c-4.775-.063-9.51.117-14.277.18-2.148.029-4.647-.253-6.74.193q-3.231.098-6.462.241c-3.041-.091-8.513.129-11.457.732-3.225.244-6.568.503-9.744 1.118-2.475.199-4.919.756-7.359 1.2-3.579.65-7.116 1.254-10.615 2.267-4.081 1.778-9.75 3.584-12.159 7.648-1.464.167-3.28-.295-4.736-.544.01-.086.014-.174.028-.26.208-1.255 2.666-5.822 3.659-6.475q-.076-3.014.221-6.014c-.137-1.923.14-3.958.274-5.882-.072-2.049-.117-4.143.125-6.181a36 36 0 0 0-.232-3.719c-3.653 1.652-7.133 3.744-10.814 5.297q-.151.302-.319.596c-.304.522-.591.915-1.196 1.076l-.288-.183a3.4 3.4 0 0 1-.322-1.019c-1.448-9.471 4.492-23.24 9.976-30.892-7.538-.602-13.207-.99-20.797-.506"/><path fill="#33404e" d="M278.728 80.551c6.071 1.56 11.962 3.57 17.843 5.723 5.332 2.111 10.481 4.518 15.755 6.735a153 153 0 0 1 10.246 5.254c3.916 2.406 8.827 4.557 12.128 7.74l.252 1.871-.104 3.091c.038 1.27.024 2.568.134 3.832.093 1.591.032 3.268.307 4.832.06 1.538.038 3.066.004 4.604.01 2.243.07 4.509-.07 6.748.048 1.713.292 3.551-.525 5.121-.467.107-.897.163-1.37.058-2.482-.558-4.948-1.474-7.413-2.135a306 306 0 0 0-15.019-3.572l-6.582-1.36c-1.883-.691-5.841-1.085-7.974-1.468-12.192-2.042-24.334-3.627-36.699-4.108-2.402-.522-6.758-.295-9.364-.351l-3.623-.016c-4.776-.062-9.511.118-14.278.181-2.147.028-4.647-.254-6.74.192q-3.231.099-6.462.241c-3.04-.09-8.513.129-11.457.733-3.225.243-6.568.502-9.744 1.117-2.475.199-4.919.757-7.359 1.2-3.579.65-7.115 1.254-10.615 2.267-4.081 1.778-9.75 3.584-12.158 7.648-1.464.168-3.281-.295-4.737-.543.01-.087.014-.175.029-.261.207-1.255 2.666-5.822 3.658-6.475a48 48 0 0 1 .222-6.014c-.138-1.923.14-3.958.273-5.882 6.391-3.894 12.976-7.775 19.683-11.102 8.89-4.409 18.747-8.254 28.119-11.447 3.762-1.28 7.597-2.563 11.425-3.628 2.8-.779 5.781-1.294 8.489-2.339l.262-.103c-1.215 3.274-2.053 8.686-2.485 12.177-.09.722-.327 1.9.128 2.483 2.301-.244 8.332-4.233 10.752-5.427 3.712-1.833 7.68-3.196 11.435-4.958 3.832-1.797 7.463-4.12 11.425-5.614 1.787-.928 3.454-2.058 5.298-2.88a380 380 0 0 0 6.911-4.165"/><path fill="#600000" d="M170.938 121.693c2.429-.83 4.761-1.921 7.183-2.781a113 113 0 0 1 14.232-3.884c39.3-8.299 106.215-7.099 142.94 9.205.01 2.243.07 4.509-.07 6.748.048 1.713.292 3.551-.525 5.121-.467.107-.897.163-1.37.058-2.482-.558-4.948-1.474-7.413-2.135a306 306 0 0 0-15.019-3.572l-6.582-1.36c-1.883-.691-5.841-1.085-7.974-1.468-12.192-2.042-24.334-3.626-36.699-4.108-2.402-.522-6.758-.295-9.364-.351l-3.623-.016c-4.776-.062-9.511.118-14.278.181-2.147.028-4.647-.254-6.74.192q-3.231.099-6.462.241c-3.04-.09-8.513.129-11.457.733-3.225.243-6.568.502-9.744 1.117-2.475.199-4.919.757-7.359 1.2-3.579.65-7.115 1.254-10.615 2.267-4.081 1.778-9.75 3.584-12.158 7.648-1.464.168-3.281-.295-4.737-.543.01-.087.014-.175.029-.261.207-1.254 2.666-5.822 3.658-6.475a48 48 0 0 1 .222-6.014c1.236-.759 2.574-1.226 3.925-1.743"/><path fill="#860303" d="M170.937 121.693c2.429-.83 4.761-1.921 7.183-2.781a113 113 0 0 1 14.232-3.884c39.3-8.299 106.214-7.099 142.94 9.205.01 2.243.07 4.509-.07 6.748-.896-.082-1.871-.699-2.682-1.077-5.068-2.359-10.086-4.253-15.478-5.746-33.21-9.198-78.7-10.846-112.952-6.039-8.428 1.183-16.999 2.71-25.06 5.511-4.338 1.508-8.28 3.562-12.26 5.82a49 49 0 0 1 .221-6.014c1.237-.759 2.575-1.226 3.926-1.743"/><path fill="#2f4960" d="M170.937 121.694c-.067-.277-.116-.269.096-.559.987-1.351 6.515-4.98 8.047-5.826 2.992-1.649 6.141-2.984 9.24-4.412 2.337-1.077 4.612-2.285 6.954-3.353 2.31-1.055 4.689-1.96 7.024-2.96 4.801-2.056 9.556-4.323 14.512-5.991 4.304-1.45 8.737-2.414 13.211-3.167.275 2.268.345 7.475 2.266 8.943.685.523 1.907.455 2.714.401 3.826-.253 7.687-1.336 11.433-2.118 4.08-.852 8.238-1.558 12.273-2.593a377 377 0 0 0 9.249-2.47c1.891-.537 3.806-1.225 5.737-1.591 3.914-.742 41.306 14.062 47.522 16.755 3.956 1.714 10.608 4.583 14.073 6.877.06 1.538.038 3.066.004 4.604-36.726-16.304-103.64-17.504-142.94-9.205a113 113 0 0 0-14.232 3.884c-2.422.86-4.754 1.951-7.183 2.781"/><path fill="#600000" d="M278.727 80.551c6.071 1.56 11.962 3.57 17.843 5.723 5.332 2.111 10.482 4.518 15.755 6.735a153 153 0 0 1 10.246 5.254c3.916 2.406 8.827 4.557 12.128 7.74l.252 1.871-.104 3.091c.038 1.27.024 2.568.135 3.832l-.223.446c-.567.086-1.075-.239-1.558-.507-1.464-.812-2.856-1.766-4.303-2.612a234 234 0 0 0-11.769-6.431 218 218 0 0 0-18.44-8.247 219 219 0 0 0-19.123-6.507 218 218 0 0 0-13.047-3.343c1.786-.928 3.453-2.058 5.298-2.88a383 383 0 0 0 6.91-4.165"/><path fill="#860303" d="M278.727 80.551c6.071 1.56 11.962 3.57 17.843 5.723 5.332 2.111 10.481 4.518 15.755 6.735a153 153 0 0 1 10.246 5.254c3.916 2.406 8.827 4.557 12.128 7.74l.252 1.871-.104 3.091c-.332-.04-.729-.199-1.027-.354-1.911-.993-3.744-2.316-5.607-3.422-5.851-3.475-11.8-7.136-17.899-10.15-9.424-4.659-28.054-11.094-38.498-12.322a380 380 0 0 0 6.911-4.166"/><path fill="#7c4d1a" d="M143.419 82.026c1.34-.948 2.492-2.152 3.842-3.117a158 158 0 0 1 10.912-7.073 159 159 0 0 1 11.453-6.157 197 197 0 0 1 9.605-4.296 198 198 0 0 1 14.801-5.475 198 198 0 0 1 15.189-4.284c13.164-3.174 28.505-5.507 42.083-5.194 21.653.498 46.927 7.33 67.438 14.459 8.657 3.009 36.078 13.155 39.801 21.662.169.385.191.408.023.806-2.683 1.14-7.101 1.173-10.068 1.524q-3.174.369-6.299 1.032c3.081 3.615 5.488 7.902 7.725 12.077 1.955 3.648 7.552 16.82 6.302 20.245-.136.374-.202.311-.539.462-3.229-.213-10.884-5.606-14.131-7.478a66 66 0 0 0-6.604-3.342l-.252-1.871c-3.301-3.183-8.213-5.335-12.129-7.74-.218-2.569-5.774-11.958-7.124-15.43 4.885 4.232 8.889 9.862 12.438 15.244-.194-2.629-.568-5.282-.56-7.92 2.974 2.901 5.093 7.272 6.519 11.154 2.268 1.268 4.623 2.49 6.793 3.915 4.655 3.055 9.328 7.176 13.211 11.16-1.384-3.188-2.808-6.385-4.49-9.428-4.197-7.59-12.058-18.42-18.911-23.706-1.843-1.422-4.022-2.608-6.097-3.666l-.204-.387.18-.328c2.127-.584 8.445 1.25 10.572 1.965-1.931-1.144-4.579-2.285-6.243-3.727l.028-.455c1.133-.758 7.645.401 9.38.74 5.256 1.028 10.301 3.029 15.505 4.277a114 114 0 0 0-14.023-7.553 115 115 0 0 0-11.135-4.343q-1.89-.626-3.804-1.185c-3.142-.898-6.391-1.553-9.576-2.292 1.346 2.012 2.83 3.96 4.082 6.03 1 1.653 4.922 9.382 4.661 11.198l-.298.15c-.581-.27-7.295-7.414-8.711-8.681-3.466-3.102-8.605-6.859-12.792-9.001 2.114 2.383 10.46 13.857 10.404 16.45-.006.315-.028.343-.1.611l-.263.205c-2.025-.813-6.547-5.862-8.548-7.656a120 120 0 0 0-6.326-5.306 116 116 0 0 0-5.775-4.254 118 118 0 0 0-9.121-5.698 119 119 0 0 0-6.358-3.322 118 118 0 0 0-3.251-1.514c-.727 1.827-1.606 4.219-3.223 5.432l-.36-.056c-.887-1.348-.16-3.271-.865-4.569l-.071.298c-.468 1.912-3.002 7.68-4.797 8.48-.25.11-.264.097-.498.126-.291-.2-.457-.263-.479-.658-.062-1.161.216-2.525.306-3.698.259-3.313-.264-6.438-1.5-9.512-2.694-.785-5.21-.766-7.902-1.268l-.162.128c-.891.74-1.492 2.248-2.432 2.727-.406-.222-.386-.318-.521-.745-.118-.368-.104-.713-.116-1.093-.01-.286-.028-.573-.04-.859-3.808 3.131-7.185 6.686-9.634 11.006l-.331.136c-.412-.366-.462-.648-.509-1.197-.158-1.878.313-3.992.665-5.831-4.368 3.39-8.677 7.251-12.45 11.303-1.17 1.254-3.347 5.025-4.9 5.315-.332-.324-.32-.345-.33-.795-.112-4.728 6.47-13.57 9.753-16.879-8.349 2.67-16.523 5.647-24.73 8.723.315 2.397-.216 6.143-1.394 8.257l-.346.238c-.86-.45-1.685-3.444-2.252-4.41-.396-.677-1.039-1.18-1.638-1.674-2.297 2.993-4.734 6.68-5.637 10.403-.308 1.27-.334 2.618-.67 3.875-.201.753-.306 1.271-1.133 1.386-.535-.294-.713-.677-.882-1.238-.858-2.848-.941-6.415-.384-9.335-7.355 6.367-12.254 15.965-15.001 25.189-.195.654-.913 3.63-1.343 3.864-.121.066-.276.018-.415.028-.79-.596-.921-1.234-1.061-2.186-.757-5.173.071-10.55 1.286-15.583-6.697 7.646-12.138 16.032-16.82 25.029-1.206 2.317-2.483 4.656-3.453 7.084q-.151.302-.319.596c-.304.522-.591.915-1.196 1.076l-.288-.183a3.4 3.4 0 0 1-.322-1.019c-1.448-9.471 4.492-23.24 9.976-30.892-7.538-.602-13.207-.99-20.797-.506"/><path fill="#600000" d="M223.586 82.195c3.405-.901 12.431-4.241 15.441-3.943-.338 1.414-1.015 3.362-1.748 4.614-.639 2.019-1.2 4.115-2.015 6.07l-.263.103c-2.708 1.046-5.688 1.56-8.489 2.34-3.827 1.064-7.663 2.346-11.425 3.628-9.372 3.192-19.229 7.037-28.119 11.446-6.707 3.327-13.292 7.208-19.683 11.103-.072-2.05-.117-4.143.125-6.181a36 36 0 0 0-.231-3.719l-.008-.318c.657-1.693 12.774-7.574 15.196-8.754l8.173-3.835c2.952-1.294 6.005-2.405 8.917-3.776a438 438 0 0 1 24.129-8.778"/><path fill="#860303" d="M223.586 82.195c3.405-.901 12.431-4.241 15.441-3.943-.338 1.414-1.015 3.362-1.748 4.614-4.928.35-10.216 2.241-14.915 3.735-7.988 2.54-16.206 5.308-23.851 8.762a168 168 0 0 0-18.409 9.913c-4.378 2.673-8.513 5.26-12.584 8.407-.034-.766-.039-1.545-.11-2.308a36 36 0 0 0-.231-3.719l-.008-.318c.657-1.693 12.774-7.574 15.196-8.754l8.173-3.835c2.952-1.294 6.005-2.405 8.917-3.776a438 438 0 0 1 24.129-8.778"/><path fill="#7c4d1a" d="M239.027 78.251c.703-2.023 5.817-10.502 7.447-11.412l.353.08c.094.406.052.683-.046 1.08-.457 1.82-1.244 3.605-1.841 5.388-.779 2.33-1.392 4.808-1.913 7.212-.671 3.09-.869 6.336-.847 9.495 1.929-.724 3.86-1.468 5.811-2.135 2.527-.865 6.135-1.468 8.266-3.02 1.973-1.435 4.723-5.272 6.023-7.41 1.539-2.532 2.46-5.52 4.261-7.886-.403 4.504-1.31 7.8-3.031 11.947.867-.884 2.356-3.118 3.485-3.316.349.356.475.659.491 1.17.016.594-.126 1.223-.162 1.82 3.523-1.313 7.01-2.715 10.357-4.44 1.845-.952 3.75-2.306 5.657-3.06.39-.155.535-.065.921.052.181.46.134.667-.088 1.116-.763 1.533-4.004 4.702-5.444 5.62a383 383 0 0 1-6.91 4.166c-1.845.82-3.512 1.951-5.298 2.879-3.962 1.494-7.594 3.817-11.426 5.614-3.755 1.762-7.723 3.125-11.435 4.957-2.419 1.195-8.451 5.184-10.752 5.428-.455-.583-.218-1.761-.128-2.483.432-3.492 1.27-8.903 2.486-12.177.815-1.955 1.376-4.051 2.015-6.07.733-1.253 1.41-3.2 1.748-4.615m-27.663 7.395c1.434-.942 2.742-2.148 4.06-3.247 2.992-2.494 5.947-5.055 9.212-7.19 1.554-1.017 6.632-4.48 8.444-3.958.315.09.233.087.415.391-.513.897-1.805 1.58-2.582 2.279-1.61 1.444-6.69 6.263-7.277 8.037-.024.077-.032.157-.05.236a438 438 0 0 0-24.129 8.779c1.635-1.62 15.218-14.264 16.333-14.73.355-.15.473-.093.809.028.157.427.211.309-.004.709-.436.811-1.139 1.614-1.674 2.373-1.41 2.006-2.682 3.992-3.557 6.293m77.33-9.279c5.646 1.645 9.937 7.337 13.58 11.655l-.006-.395c-.024-1.126-.913-6.639-.452-7.153 1.919 1.098 5.368 7.986 6.441 10.208.08-1.541.195-3.088.229-4.63 1.72 2.18 2.798 4.386 3.839 6.957-5.273-2.216-10.423-4.623-15.755-6.734-2.061-3.632-5.104-6.812-7.876-9.908M182.367 98.583c1.16-5.126 3.929-13.76 7.822-17.19-1.31 4.97-2.12 8.789-2.486 13.929.407-.962 1.091-3.214 2.056-3.694l.332.206c.412.938.373 1.904.449 2.915z"/><path fill="#a46d30" d="M207.716 124.497c2.945-.604 8.417-.823 11.458-.732-2.574.383-5.182.51-7.738 1.004a266 266 0 0 1-10.458 12.1c-1.386 1.535-2.912 3.587-4.613 4.769l-.377.04c-.987-.967-.907-3.116-1.031-4.421-3.629 5.353-7.738 10.319-11.451 15.601-.559.258-.674.319-1.28.263-2.409-4.66-5.136-8.451-6.602-13.647-1.074 2.285-2.405 4.441-3.459 6.739.028 1.394-.165 5.777.294 6.829.664 2.577.525 5.747.653 8.408.337 6.989.499 13.992.799 20.985.144 3.343.734 6.929.595 10.238.031.073.065.145.093.218.34.876.476 1.817.822 2.702 1.883 4.81 4.934 8.54 8.961 11.73.88.697 2.649 1.655 3.181 2.556-2.362 1.605-4.748 3.321-7.194 4.793l-.121.297c-.206.513-.25 1.15-.716 1.452-.415-.174-.613-.314-.909-.653-.497-1.49-.908-2.938-1.202-4.483-2.258 2.131-8.144 8.391-10.394 9.601-.535-.018-.685-.022-1.125-.373-.706-.565-1.201-1.853-1.563-2.676a39 39 0 0 1-1.442-3.749 41 41 0 0 1-1.057-3.876 41 41 0 0 1-.66-3.962 39 39 0 0 1-.259-4.008c-1.865 1.504-9.45 7.769-11.307 8.016-.348.046-.247.018-.546-.243-.831-2.013-.299-4.975-.181-7.112-1.236.877-2.724 2.696-4.235 2.974l-.238-.264c-.657-2.808-.09-6.483.224-9.335a166 166 0 0 1 2.839-16.703 166 166 0 0 1 4.527-16.327c1.578-4.7 3.516-9.407 5.333-14.023 1.138-2.893 2.479-5.706 3.786-8.524.623-1.344 1.404-2.746 1.865-4.15l.116-.365c1.456.249 3.272.711 4.736.544 2.408-4.065 8.078-5.87 12.159-7.648 3.499-1.013 7.036-1.618 10.615-2.268 2.44-.443 4.884-1 7.359-1.2 3.176-.614 6.519-.873 9.743-1.117"/><path fill="#7c4d1a" d="M163.104 136.186c1.456.249 3.272.711 4.736.544-1.313 3.606-3.025 7.073-4.298 10.693-5.074 14.424-8.573 31.419-9.463 46.651 3.837-2.039 7.896-4.599 12.112-5.673-4.603 4.968-10.362 9.078-15.707 13.222 4.201-1.628 8.458-3.112 12.655-4.745 3.115-1.212 6.351-2.831 9.604-3.601.258-.061.426-.038.673.049l.142.318c-1.23 1.648-3.825 3.058-5.529 4.265-1.272 5.999-1.421 12.251-.956 18.354 2.162-1.979 11.774-9.376 14.13-10.141l.352.126c.526 2.331-1.452 5.847-1.186 8.424l-.121.297c-.206.513-.25 1.15-.716 1.452-.415-.174-.613-.314-.909-.653-.497-1.49-.908-2.938-1.202-4.483-2.258 2.131-8.144 8.391-10.394 9.601-.535-.018-.685-.022-1.125-.373-.706-.565-1.201-1.853-1.563-2.676a39 39 0 0 1-1.442-3.749 41 41 0 0 1-1.057-3.876 41 41 0 0 1-.66-3.962 39 39 0 0 1-.259-4.008c-1.865 1.504-9.45 7.769-11.307 8.016-.348.046-.247.018-.546-.243-.831-2.013-.299-4.975-.181-7.112-1.236.877-2.724 2.696-4.235 2.974l-.238-.264c-.657-2.808-.09-6.483.224-9.335a166 166 0 0 1 2.839-16.703 166 166 0 0 1 4.527-16.327c1.578-4.7 3.516-9.407 5.333-14.023 1.138-2.893 2.479-5.706 3.786-8.524.623-1.344 1.404-2.746 1.865-4.15zm44.612-11.689c2.945-.604 8.417-.823 11.458-.732-2.574.383-5.182.51-7.738 1.004a266 266 0 0 1-10.458 12.1c-1.386 1.535-2.912 3.587-4.613 4.769l-.377.04c-.987-.967-.907-3.116-1.031-4.421-3.629 5.353-7.738 10.319-11.451 15.601-.559.258-.674.319-1.28.263-2.409-4.66-5.136-8.451-6.602-13.647-1.074 2.285-2.405 4.441-3.459 6.739l-.102.175-.174.289c-.377.641-.645 1.066-1.236 1.531l-.314-.054c-.02-.092-.044-.183-.061-.276-.568-3.049 2.676-9.878 4.328-12.45a29 29 0 0 1-.384-2.978c1.771 1.56 3.128 3.691 4.62 5.52 1.79 2.194 3.715 4.192 5.749 6.159 1.538-2.327 13.717-16.223 15.816-16.676l.245.247c-.042 2.065-2.149 4.901-3.203 6.696 1.952-1.513 3.756-3.277 5.626-4.895 1.971-1.705 4.031-3.26 6.116-4.82l-.066-.15z"/><path fill="#7c4d1a" d="M174.506 192.674c-.356-.223-.648-.393-.888-.749-1.188-1.762-1.735-4.225-2.245-6.258-2.144-8.547-3.364-18.403-1.459-27.065.372-1.692 1.021-4.578 2.545-5.559.664 2.577.525 5.746.654 8.408.337 6.989.499 13.992.799 20.984.143 3.344.733 6.929.594 10.239m5.493-63.592c3.5-1.013 7.036-1.617 10.615-2.267 2.44-.443 4.884-1.001 7.359-1.2-1.051 1.289-3.969 5.514-5.159 5.999-.599-.495-.879-1.244-1.216-1.928-1.097 1.567-5.317 7.676-6.814 8.042-1.574-.638-3.927-6.893-4.785-8.646"/><path fill="#a46d30" d="M306.777 140.632c-.12-3.824-2.644-7.565-2.862-11.376l.399-.163 6.582 1.361a306 306 0 0 1 15.018 3.572c2.466.661 4.932 1.577 7.413 2.134.473.106.904.05 1.37-.057 2.025 4.107 4.529 7.97 6.214 12.247a218 218 0 0 1 3.15 8.651q1.487 4.359 2.787 8.776a220 220 0 0 1 4.46 17.863c1.308 6.098 2.544 12.405 2.949 18.632.09 1.38.476 3.722.11 5-.022.08-.08.146-.12.22-2.538-.018-10.276-4.401-12.822-5.767q-.141 6.708-.578 13.404l.05.453c-.225.485-.201.475-.689.679-2.578-.25-12.395-6.534-15.087-8.19-.521 1.72-1.26 3.313-2.145 4.871-.445.375-.529.455-1.096.551-2.207-.619-4.573-2.484-6.378-3.9.97-1.302 2.905-2.339 4.141-3.445 4.274-3.822 6.812-9.224 8.116-14.722.372-1.093 1.078-1.906 1.787-2.797.849-3.432 1.275-7.516 1.121-11.046-.094-1.245-.422-2.164-1.075-3.225-1.268-.766-2.606-1.428-3.918-2.116-.06-7.729.192-15.457.19-23.187a66.6 66.6 0 0 1-6.974 7.318c-.253.895-.373 1.72-.952 2.464l-.328-.034c-.611-1.145-.525-2.954-.547-4.229-2.698-5.563-5.31-11.3-7.67-17.014-.781 1.012-1.356 2.224-2.435 2.953z"/><path fill="#7c4d1a" d="M306.777 140.632c-.12-3.824-2.644-7.565-2.862-11.376l.399-.163 6.582 1.361a306 306 0 0 1 15.018 3.572c2.466.661 4.932 1.577 7.413 2.134.473.106.904.05 1.37-.057 2.025 4.107 4.529 7.97 6.214 12.247a218 218 0 0 1 3.15 8.651q1.487 4.359 2.787 8.776a220 220 0 0 1 4.46 17.863c1.308 6.098 2.544 12.405 2.949 18.632.09 1.38.476 3.722.11 5-.022.08-.08.146-.12.22-2.538-.018-10.276-4.401-12.822-5.767-2.101-1.272-7.102-3.194-8.472-4.844l.166-.184c2.566.018 5.306 1.636 7.832 2.251 3.036.74 6.123 1.004 9.228 1.275-.317-4.721-1.855-9.298-3.199-13.804-4.273-14.321-9.304-27.174-16.461-40.29-1.39-2.547-2.764-5.386-4.629-7.626l-.923 2.018c-2.126 5.245-4.357 10.457-6.077 15.852-.253.895-.373 1.72-.952 2.464l-.328-.034c-.611-1.145-.525-2.954-.547-4.229-2.698-5.563-5.31-11.3-7.67-17.014-.781 1.012-1.356 2.224-2.435 2.953z"/><path fill="#a46d30" d="M306.777 140.632c-.12-3.824-2.644-7.565-2.862-11.376l.399-.163 6.582 1.361c.592 2.018 2.433 10.514 3.367 11.63l.222.041c1.1-2.419 1.618-5.908 2.684-8.593.2 7.039-.106 14.012-.106 21.042-2.698-5.563-5.31-11.3-7.67-17.014-.781 1.012-1.356 2.224-2.435 2.953z"/><path fill="#e1a469" d="m308.27 134.944 1.124 2.616c-.781 1.012-1.356 2.224-2.436 2.953.268-1.872.823-3.745 1.312-5.569"/><path fill="#7c4d1a" d="M329.536 173.18c1.012.066 1.641.463 2.293 1.238 2.416 2.871 2.721 8.34 2.32 11.898-.268 2.393-1.426 6.082-3.355 7.636-.116.094-.24.177-.359.27-.17.133-.334.271-.502.406l-.699 1.999c1.92 1.523 7.689 5.855 8.196 8.056-.104.317-.03.339-.287.461-1.464.693-5.476-1.234-7.078-1.653 3.603 3.834 7.076 7.922 10.782 11.638l.05.453c-.224.484-.2.474-.689.679-2.578-.251-12.395-6.534-15.087-8.191-.52 1.721-1.26 3.313-2.145 4.872-.445.374-.529.454-1.095.55-2.208-.618-4.573-2.483-6.378-3.899.969-1.302 2.904-2.34 4.14-3.446 4.275-3.821 6.812-9.223 8.116-14.721.373-1.093 1.078-1.906 1.787-2.798.849-3.431 1.276-7.515 1.122-11.046-.094-1.244-.423-2.163-1.076-3.224z"/><path fill="#e1a469" d="M324.967 140.52c1.282 2.399 4.002 6.966 4.584 9.471.257 1.108.227 21.559-.016 23.189l.057 1.177c-1.268-.766-2.606-1.428-3.918-2.116-.06-7.729.192-15.457.19-23.187a66.5 66.5 0 0 1-6.975 7.319c1.721-5.396 3.952-10.608 6.078-15.853m-152.803 5.693c1.055-2.299 2.385-4.454 3.46-6.74 1.466 5.197 4.193 8.987 6.602 13.648-1.473-.748-2.687-1.843-3.892-2.958a844 844 0 0 1 1.637 26.509c.206 4.045-.003 10.46 1.093 14.219a29 29 0 0 0 .656 1.98q.182.49.383.971a28 28 0 0 0 3.647 6.303 28 28 0 0 0 1.332 1.607q.347.39.71.764.362.376.737.739.377.36.765.709.389.348.791.681c2.147 1.781 5.127 3.407 7.916 3.812 3.133.454 6.785-.018 9.982-.079a795 795 0 0 1 16.268-.064l43.105.076c10.992.008 22.155.267 33.108-.817 7.571-.751 13.831-4.152 18.66-10.029 1.402-1.706 2.397-3.431 3.341-5.417-2.939-.993-14.288-5.265-15.586-7.688-.262-.493-.36-1.167-.194-1.703.367.393.643.629 1.15.825 2.321.9 4.823 1.457 7.185 2.265 3.703 1.265 9.31 3.655 12.739 5.599-1.304 5.499-3.842 10.9-8.116 14.722-1.236 1.106-3.171 2.143-4.141 3.445-1.452 1.108-3.595 2.123-5.404 2.468-3.806.723-8.052.162-11.916.122l-18.471-.004c-2.582-.008-11.043-.521-12.918.449l-.214-.15c-.048-.034-.092-.077-.144-.105-.714-.37-38.062-.106-41.928.113-.434.024-.787.038-1.183.238-.074.036-.136.092-.205.136-1.38-.775-8.354-.328-10.259-.31-7.908.042-18.012.615-25.297-2.67-.532-.902-2.302-1.859-3.181-2.556-4.027-3.191-7.078-6.921-8.961-11.73-.346-.885-.482-1.827-.822-2.702q-.044-.11-.094-.218c.14-3.31-.45-6.895-.594-10.239-.3-6.992-.462-13.995-.799-20.984-.128-2.662.01-5.831-.654-8.408-.458-1.053-.265-5.435-.294-6.829"/><path fill="#7c4d1a" d="M225.636 123.523c2.093-.446 4.593-.164 6.74-.192 4.767-.063 9.502-.243 14.277-.181l3.624.016c2.606.056 6.962-.171 9.364.351-.617.01-1.186-.034-1.771.18.309 2.325 4.124 7.539 5.733 9.41.262.485.432.592.292 1.141l-.29.281c-2.46.742-4.823 1.102-7.381 1.322-.301 2.912-.305 6.826-1.038 9.562.381.497.765.932.926 1.55l-.223.233c-1.101-.171-2.217-.906-3.187-1.442a132 132 0 0 1-10.021-7.289 133 133 0 0 1-9.298-8.192c-2.071-2.044-3.767-4.554-5.872-6.529-.377-.353-1.364-.226-1.875-.221"/><path fill="#a46d30" d="M250.276 123.167c2.606.056 6.963-.172 9.364.351-.617.01-1.185-.035-1.77.179.308 2.326 4.124 7.54 5.732 9.411.263.485.433.592.293 1.14l-.291.281c-2.459.742-4.823 1.102-7.381 1.322-.3 2.913-.304 6.826-1.037 9.562-.247-.351-.435-.756-.639-1.133-4.679-5.758-8.617-12.193-12.734-18.361 3.243 2.023 6.348 3.961 10.304 3.409-1.975-1.936-3.708-4.047-5.464-6.177z"/><path fill="#7c4d1a" d="M250.276 123.167c2.606.056 6.963-.171 9.364.351-.616.01-1.185-.034-1.77.179.308 2.326 4.124 7.54 5.732 9.411.263.485.433.592.293 1.141l-.291.28-.466-.005c-3.758-1.593-7.211-5.349-9.667-8.522-.533-.687-.897-1.49-1.418-2.17-.467-.608-1.07-.551-1.777-.665"/><path fill="#e1a469" d="M252.382 132.569q5.334 1.222 10.756 1.956l.467.005c-2.46.742-4.824 1.102-7.381 1.322-.301 2.912-.305 6.826-1.038 9.562-.246-.351-.435-.756-.639-1.134a505 505 0 0 0-2.165-11.711"/><path fill="#fefefe" d="M306.686 182.736c-.081-2.796-.78-4.726.484-7.5 1.268-2.781 3.922-5.145 6.827-6.112 4.014-1.338 8.196 1.401 11.677 3.117 1.312.688 2.65 1.35 3.918 2.116.653 1.061.982 1.981 1.076 3.225.154 3.53-.273 7.614-1.122 11.046-.709.891-1.414 1.704-1.787 2.797-3.429-1.944-9.035-4.334-12.739-5.6-2.361-.807-4.863-1.364-7.185-2.264-.506-.196-.783-.432-1.149-.825"/><path fill="#dcdcdc" d="M329.545 188.628c-2.966-2.054-6.47-2.871-9.436-4.8-1.13-.733-2.069-1.795-2.338-3.147-.236-1.188.091-2.383.806-3.349 4.066-5.501 10.762.425 12.09.25.154 3.53-.273 7.615-1.122 11.046"/><path fill="#e1a469" d="M225.636 123.524c.511-.005 1.498-.132 1.875.221 2.105 1.975 3.801 4.485 5.872 6.529a133 133 0 0 0 9.298 8.192 132 132 0 0 0 10.022 7.289c-10.372-2.217-23.632-10.803-31.562-17.787q-2.744.195-5.476.5c-3.471 3.272-16.779 16.349-19.828 17.705-.487-.148-.673-.374-.909-.831-.371-.719-.569-1.716-.803-2.498-1.571 1.625-3.269 3.12-4.835 4.746-1.369 1.421-2.633 3.016-4.105 4.328-.502.447-1.056.702-1.678.94 3.712-5.281 7.821-10.247 11.45-15.6.125 1.304.045 3.454 1.032 4.421l.377-.04c1.7-1.182 3.226-3.234 4.613-4.769a267 267 0 0 0 10.457-12.1c2.556-.494 5.164-.621 7.738-1.004q3.231-.143 6.462-.242m34.005-.006c12.365.482 24.507 2.066 36.699 4.108 2.133.383 6.091.778 7.974 1.468l-.398.162c.218 3.812 2.742 7.552 2.862 11.376l-.11.17c-1.935.74-5.541-2.868-6.999-4.075-1.732-1.435-4.352-4.101-6.231-4.995-2.037-.969-4.547-1.217-6.762-1.556-5.535-.847-10.939-1.39-16.537-1.412-2.502-.01-5.008.165-7.51.205q.499 2.066.974 4.139c-1.609-1.871-5.424-7.084-5.733-9.41.585-.214 1.154-.169 1.771-.18"/><path fill="#7c4d1a" d="M296.34 127.625c2.133.383 6.091.778 7.974 1.468l-.399.162c.219 3.812 2.742 7.552 2.863 11.376l-.111.17c-2.159-.579-8.707-10.753-10.327-13.176"/><path fill="#fefefe" d="M201.227 144.198c1.848-3.477 7.789-6.461 11.403-7.584a26 26 0 0 1 1.86-.517q.313-.075.627-.141a27 27 0 0 1 1.266-.238 27 27 0 0 1 2.558-.287 28 28 0 0 1 1.929-.05q.322.005.643.015a27 27 0 0 1 2.566.217q.318.042.635.093a27 27 0 0 1 2.52.528 24 24 0 0 1 1.235.356q.309.096.613.201a26 26 0 0 1 3.55 1.512c4.971 2.624 9.486 7.329 11.189 12.771.156.499.206.844.082 1.364.741.728.831 2.615.839 3.651.044 5.074-1.771 11.2-5.108 15.091-.657 2.355-3.313 4.207-5.354 5.366-6.812 3.866-16.106 4.278-23.537 2.201-1.422-.398-3.644-1.102-4.457-2.387-.781-.246-1.616-.996-2.233-1.542-4.402-3.889-7.126-9.934-7.466-15.769-.313-5.355 1.033-10.782 4.64-14.851"/><path fill="#f5a168" d="M201.227 144.198c1.848-3.477 7.789-6.461 11.403-7.584a26 26 0 0 1 1.861-.517q.312-.075.626-.141a27 27 0 0 1 1.266-.238 27 27 0 0 1 2.558-.287 28 28 0 0 1 1.929-.05q.322.005.643.015a27 27 0 0 1 2.566.217q.318.042.635.093a27 27 0 0 1 2.52.528 24 24 0 0 1 1.236.356q.308.096.612.201a26 26 0 0 1 3.55 1.512c4.971 2.624 9.486 7.329 11.189 12.771.156.499.206.844.082 1.364-8.94-2.787-17.394-5.007-26.662-6.396-2.48-.372-15.181-1.403-16.014-1.844m5.059 32.162c5.026-3.547 27.139-5.874 33.348-5.18-.657 2.355-3.313 4.207-5.354 5.366-6.812 3.866-16.106 4.278-23.537 2.201-1.422-.398-3.644-1.102-4.457-2.387"/><path fill="#000" d="M232.281 150.331a5 5 0 0 1 .998.03 5.3 5.3 0 0 1 1.208.309 7 7 0 0 1 .456.204 6 6 0 0 1 .435.248 5.3 5.3 0 0 1 1.288 1.172q.076.097.148.201.072.102.14.207a6 6 0 0 1 .247.435 7 7 0 0 1 .202.457q.043.117.084.235a5 5 0 0 1 .184.727q.022.123.036.247.017.124.026.249a4 4 0 0 1 .014.499 4 4 0 0 1-.012.25 4 4 0 0 1-.058.496 5.3 5.3 0 0 1-.262.964 5 5 0 0 1-.094.231l-.104.227a6 6 0 0 1-.245.437 6 6 0 0 1-.284.41 7 7 0 0 1-.156.195q-.083.095-.167.186a5 5 0 0 1-.751.659 5 5 0 0 1-.418.272 5 5 0 0 1-.445.229 5.1 5.1 0 0 1-1.937.459 5.3 5.3 0 0 1-1.01-.062 5 5 0 0 1-.977-.26 5 5 0 0 1-.689-.318 4 4 0 0 1-.429-.267 5 5 0 0 1-.402-.307 6 6 0 0 1-.369-.347 4 4 0 0 1-.332-.38 5.11 5.11 0 0 1-.559-5.486 3 3 0 0 1 .12-.223 6 6 0 0 1 .27-.428 5 5 0 0 1 .483-.585 5 5 0 0 1 .367-.349 5 5 0 0 1 .611-.449 5 5 0 0 1 .44-.248q.114-.057.231-.107a5 5 0 0 1 .472-.18q.12-.039.243-.073a5 5 0 0 1 .745-.143q.126-.014.252-.023"/><path fill="#fefefe" d="m257.88 153.055.026-.243c.078-.787.162-1.447.511-2.168.677-1.398 1.654-2.606 2.594-3.832 3.246-4.238 6.892-7.508 11.992-9.343 7.268-2.614 14.72-1.402 21.544 1.89 1.632.788 5.362 2.584 5.977 4.352l.23-.073c3.427 4.477 4.551 11.629 3.834 17.102-.689 5.27-3.028 10.449-7.307 13.726q-.27.202-.547.399-.274.197-.557.387-.28.189-.564.372a26 26 0 0 1-1.158.703q-.292.168-.591.329a26 26 0 0 1-1.821.9q-.308.14-.621.27-.312.13-.627.255-.316.122-.635.239a28 28 0 0 1-1.933.622 30 30 0 0 1-1.312.334 25 25 0 0 1-1.325.27 32 32 0 0 1-1.341.204 25 25 0 0 1-1.346.138 30 30 0 0 1-1.352.071 31 31 0 0 1-1.356.005 30 30 0 0 1-1.352-.062 31 31 0 0 1-1.348-.129 30 30 0 0 1-.671-.089c-6.223-.875-12.232-4.028-16.03-9.107-3.247-4.341-4.467-9.636-3.661-14.973.122-.803.25-1.748.607-2.478z"/><path fill="#f5a168" d="m257.88 153.055.026-.243c.078-.787.162-1.447.511-2.168.677-1.398 1.654-2.606 2.594-3.832 3.246-4.238 6.892-7.508 11.992-9.343 7.269-2.614 14.72-1.402 21.544 1.89 1.632.788 5.362 2.584 5.977 4.352-.254.182-.463.413-.777.45-2.939.344-5.919.429-8.867.726-6.106.616-12.033 1.652-17.968 3.212-3.116.82-6.309 1.623-9.348 2.698-1.826.645-3.829 1.942-5.684 2.258"/><path fill="#000" d="M268.977 149.865a5 5 0 0 1 .987-.116q.125-.003.249.001t.248.013q.125.01.248.025a5.2 5.2 0 0 1 1.202.305q.117.044.231.095a5.13 5.13 0 0 1 2.908 3.514 5.2 5.2 0 0 1 .104 1.73 5.2 5.2 0 0 1-.997 2.514 6 6 0 0 1-.673.732 6 6 0 0 1-.385.314l-.204.142q-.105.069-.211.133a6 6 0 0 1-.44.233 5 5 0 0 1-.459.189 5 5 0 0 1-.641.183 5 5 0 0 1-.501.082q-.084.01-.168.017a5 5 0 0 1-.338.016l-.169-.001a5 5 0 0 1-.506-.035 5 5 0 0 1-.83-.168q-.08-.023-.16-.05l-.16-.055-.158-.061a5 5 0 0 1-.609-.293q-.074-.042-.147-.086a4 4 0 0 1-.282-.185l-.136-.1-.134-.104-.131-.109-.126-.113-.122-.117-.118-.12a4 4 0 0 1-.224-.254 5 5 0 0 1-.209-.267l-.096-.139a3 3 0 0 1-.092-.141 3 3 0 0 1-.088-.145q-.043-.073-.082-.148a4 4 0 0 1-.15-.303q-.037-.077-.069-.155a3 3 0 0 1-.062-.157l-.058-.159q-.027-.08-.052-.161l-.046-.163a5 5 0 0 1-.108-.496l-.026-.167-.018-.169-.014-.168a3 3 0 0 1-.008-.169l-.002-.169.002-.17.008-.169a3 3 0 0 1 .016-.168 5 5 0 0 1 .044-.336 5 5 0 0 1 .108-.496l.048-.162.052-.161.058-.159q.03-.08.064-.157.033-.078.068-.155.034-.077.073-.152a4 4 0 0 1 .162-.298q.042-.073.088-.144a3 3 0 0 1 .19-.28l.102-.135q.053-.067.107-.132.053-.065.11-.128a3 3 0 0 1 .234-.245l.122-.116.126-.113.131-.108a5 5 0 0 1 .27-.203l.14-.095.145-.09.146-.085q.074-.042.148-.08l.152-.076.152-.07q.079-.034.157-.065a6 6 0 0 1 .318-.115l.162-.049a5 5 0 0 1 .329-.083m-32.409 29.825c.238.046.503.201.725.301l.072.339c-.631.885-2.658 1.27-3.663 1.596 2.492 1.833 5.55 3.12 8.398 4.311 11.958 5 27.438 8.674 39.82 3.599-.729-1.556-1.885-2.936-2.9-4.315 1.568.683 3.673 1.825 4.421 3.432.348.747.338 1.567.056 2.332-1.156 3.114-5.607 5.331-8.449 6.561-9.548 3.772-20.595 4.469-30.746 3.448-5.182-.521-12.008-1.348-16.623-3.76-1.537-.802-2.949-1.931-4.305-3.005-1.194-.946-2.419-1.909-3.363-3.116-.442-.565-.793-1.11-.703-1.856 1.364-2.279 9.246-6.64 11.828-7.846 1.769-.827 3.561-1.471 5.432-2.021"/><path fill="#fefefe" d="M225.951 185.979c2.058.024 3.972.144 5.859 1.059 1.879.912 3.417 2.462 4.096 4.461.862 2.527.217 4.805-.889 7.108-1.268-.283-2.526-.734-3.768-1.117-4.16-1.332-8.683-4.085-11.309-7.626 1.933-1.39 3.996-2.616 6.011-3.885m31.914 6.256c1.583-.095 3.444.375 5.032.563 2.007.239 3.994.347 6.013.382 1.058 1.787 1.304 3.101 1.25 5.141-2.073.541-4.144.955-6.247 1.342q-4.928.69-9.901.847c-.277-1.844-.703-3.259-1.679-4.862 1.691-1.799 3.029-2.902 5.532-3.413m-16.1.039a13 13 0 0 1 1.032-.021 11 11 0 0 1 1.538.141 11 11 0 0 1 1.012.209 11.5 11.5 0 0 1 4.148 2.01c1.13.883 3.289 3.195 3.247 4.739-.016.562-.132.671-.485 1.068-1.514.345-3.447.033-5.006-.041-3.731-.248-7.353-.76-11.022-1.47.905-1.821 1.216-3.477 1.24-5.487 1.436-.646 2.746-.965 4.296-1.148"/><path fill="#8f513f" d="M232.526 182.411c1.494.568 4.044 2.378 5.711 3.202a77 77 0 0 0 4.19 1.881 76 76 0 0 0 8.677 2.998q2.211.62 4.457 1.107c-1.52.921-2.688 1.9-3.898 3.204l-.889-.861a13 13 0 0 0-.844-.637 13.4 13.4 0 0 0-2.788-1.492c-3.343-1.313-6.568-.993-9.799.436-.51-1.593-1.137-2.988-2.299-4.226-2.047-2.182-4.695-2.838-7.569-2.956a76 76 0 0 1 5.051-2.656"/><path fill="#fefefe" d="M281.778 190.443c.272.16.302.311.453.582-.002.229-.033.386-.161.581-1.915 2.943-7.335 5.681-10.668 6.308l-.248-.232c.038-1.807-.345-2.951-1.238-4.49 4.158-.268 8.164-.694 11.862-2.749"/><path fill="#33404e" d="m279.711 212.18 18.471.004c3.864.04 8.111.601 11.916-.123 1.809-.344 3.952-1.36 5.405-2.467 1.804 1.416 4.17 3.281 6.377 3.9.567-.097.651-.177 1.096-.551 1.929 1.546 3.797 3.355 5.955 4.575.392.891.01 1.648-.313 2.497 2.005 1.372 3.944 2.943 5.362 4.938.591-.423 1.072-.853 1.813-.924.306.055.567.115.819.311 1.388 1.074 5.797 6.916 7.003 8.607.192.27.35.541.513.827-.279.863-.545 1.717-.926 2.542 5.783 3.333 15.656 17.867 17.436 24.331.335 1.213.537 2.053-.116 3.174-.058.1-.12.201-.178.299.523.707.675 1.133.663 2.029.469 1.668.947 3.349 1.154 5.075l.484.333c1.244.591 2.212 1.326 2.65 2.688.405 1.256.191 2.974-.432 4.13-.199.369-.451.701-.685 1.046q-.133.199-.261.4c.581 1.068.872 2.11 1.016 3.313.222.749.168 1.174-.032 1.921l-.086.17c.641 3.52.412 7.532-1.629 10.598-.919 1.38-2.407 2.594-4.06 2.939-.721.15-1.512.118-2.245.122-2.682 2.305-5.647 3.858-9.288 3.629-2.686-.17-4.687-1.342-6.498-3.25-2.113 1.109-4.144 1.446-6.468.689-2.558-.834-4.671-2.807-5.792-5.238a8 8 0 0 1-.181-.425 8 8 0 0 1-.16-.433 11 11 0 0 1-.256-.885 11 11 0 0 1-.171-.907 10 10 0 0 1-.09-1.38q.002-.23.014-.461.014-.23.038-.461a9 9 0 0 1 .139-.911 8 8 0 0 1 .102-.449q.056-.224.124-.444a8 8 0 0 1 .144-.439c.012-.034.03-.064.044-.096l-.054-.445c-.18-.439-.24-.897-.26-1.37-.088-2.187 1.109-4.248 1.011-6.462-.088-2.003-1.456-3.475-1.692-5.368l-.014-.16c-2.282-2.125-4.04-5.41-5.775-8.024l-.867-.789c-1.272.743-2.456 1.224-3.916 1.512-4.199-1.861-7.692-4.817-11.415-7.431.821 4.735 3.701 23.515 1.215 27.293-.917 1.396-3.319 2.269-4.893 2.674.399.795.789 1.692 1.37 2.371 1.571 1.827 3.826 3.177 4.263 5.721.092.731.27 1.675.028 2.392-.257 2.309-1.435 3.914-2.74 5.746-.381.389-.429.503-.956.605l-.322-.172c-1.2-.631-2.364-1.132-3.702-1.378-4.17-.767-11.363.014-15.337 1.29-2.344.753-6.39 2.117-7.551 4.479-.615 1.245.53 3.393-1.072 3.966-1.49.532-3.571.384-5.138.416-3.415.667-7.649.174-11.132-.008a13.6 13.6 0 0 1-3.704-.677c-1.665-.539-3.241-1.404-4.02-3.044-1.458-3.061-.024-5.959.965-8.872.463-1.364.946-4.27-.028-5.518-.324-.413-1.157-.349-1.66-.407-2.115.305-3.658.721-5.332 2.134 1.498 2.405 2.359 7.651 1.748 10.355-.448 1.983-1.368 3.419-3.126 4.453a3.7 3.7 0 0 1-.842.368c-2.734.483-16.564.743-18.335-.837-.421-.374-.533-1.128-.579-1.648a18 18 0 0 0-.286-1.895c-6.288-3.225-12.451-5.214-19.626-4.687-2.031.15-4.399.939-6.39.769-.12-.01-.24-.026-.36-.038-1.187-.799-1.995-1.687-2.59-3.009-2.852-6.337 4.799-9.442 6.508-13.933l.086-.234c-2.072-.329-3.682-.767-5.368-2.079-2.249-6.652.156-23.694 1.565-31.057-2.506 2.68-11.415 12.533-14.439 13.384-2.334-.362-6.056-4.422-7.579-6.269-5.557 3.896-13.383 5.65-20.008 6.744l1.356 1.715c2.039.53 4.663.532 5.867 2.561.612 1.032.555 2.306.203 3.412-1.203 3.795-5.677 7.158-9.056 8.911-2.573 1.278-9.133 4.188-11.961 3.485-.114-.028-.213-.096-.319-.144-.497-.593-.87-1.096-1.186-1.805-.65-.635-1.049-1.254-1.459-2.061l-.129-.258-.383-.068-.044-.106.336-.559c.024-.794-3.083-5.669-3.695-6.594-1.891.631-3.506.635-5.426.216l-.756.315c-.946.154-1.84.166-2.794.154-.845-.168-1.706-.319-2.533-.561-5.499-1.616-9.989-5.735-12.666-10.73-2.64-4.93-3.061-9.733-1.458-15.055.039-.28.061-.671.176-.927.261-.585.569-.637 1.101-.874.159-.584.44-1.135.687-1.686 1.151-1.703 2.479-3.217 4.218-4.339 3.044-1.965 6.224-2.119 9.653-1.376 1.493-1.133 2.619-2.225 3.7-3.763.063-1.483.257-2.148 1.188-3.309.994-.491 1.793-.577 2.897-.501 2.996.663 5.205 2.323 6.844 4.881.581.908.977 1.891 1.366 2.893 3.464-.171 7.381-1.122 10.579-2.504 1.184-.922 2.658-1.156 3.871-2.207-.107-.287-.166-.573-.234-.872.488-1.139 4.89-3.95 6.156-5.023 3.321-2.819 6.454-5.871 9.763-8.715 2.265-2.262 4.248-4.78 6.528-7.021.296.339.494.479.909.653.466-.302.51-.939.716-1.452l.121-.297c2.446-1.472 4.832-3.188 7.194-4.793 7.285 3.285 17.389 2.712 25.297 2.67 1.905-.018 8.88-.465 10.26.311.068-.044.13-.101.204-.137.396-.2.749-.214 1.184-.238 3.866-.218 41.214-.483 41.927-.112.052.028.096.07.144.104l.214.15c1.875-.969 10.336-.456 12.918-.448"/><path fill="#73899d" d="m202.062 287.561 1.212.074c-.849 3.155-3.341 4.969-5.129 7.559l-.318.359c.096.278.189.526.389.749 1.079 1.21 2.733 1.622 4.289 1.64 5.284.058 10.359-2.223 14.077-5.897 6.169 1.501 13.246.243 19.211-1.668 2.201-.705 4.3-1.627 6.528-2.276 9.64.623 20.156.507 29.859.545 4.042.016 8.176-.16 12.206.104.431.029.697.029 1.04.317.591-.272.735-.238 1.362-.178 3.699-.433 8.214-.038 11.998-.018.751-.002 1.522.034 2.269-.014l.867-.004c.399.795.79 1.692 1.371 2.371 1.57 1.827 3.825 3.177 4.262 5.721.092.731.27 1.674.028 2.391-.256 2.31-1.434 3.914-2.74 5.747-.381.389-.429.503-.956.605l-.322-.172c-1.2-.631-2.364-1.132-3.702-1.378-4.17-.768-11.363.014-15.337 1.29-2.343.753-6.389 2.117-7.551 4.478-.615 1.246.531 3.393-1.072 3.966-1.49.533-3.571.385-5.137.417-3.416.667-7.65.174-11.133-.008a13.7 13.7 0 0 1-3.704-.677c-1.664-.539-3.241-1.404-4.02-3.045-1.458-3.06-.024-5.959.966-8.871.462-1.364.945-4.27-.028-5.518-.325-.413-1.158-.349-1.661-.407-2.115.304-3.657.721-5.332 2.133 1.498 2.406 2.36 7.652 1.749 10.356-.449 1.983-1.368 3.419-3.127 4.452a3.7 3.7 0 0 1-.841.369c-2.734.483-16.565.743-18.336-.837-.42-.375-.533-1.128-.579-1.649a18 18 0 0 0-.286-1.895c-6.288-3.224-12.451-5.213-19.626-4.687-2.031.151-4.398.94-6.39.77-.12-.01-.24-.026-.36-.038-1.187-.8-1.995-1.687-2.589-3.009-2.853-6.338 4.798-9.442 6.507-13.933z"/><path fill="#556778" d="M242.321 288.1c9.64.623 20.156.507 29.858.545 4.042.016 8.177-.16 12.207.104.43.028.697.028 1.039.317.591-.273.735-.238 1.362-.178 3.7-.433 8.215-.038 11.998-.018.752-.002 1.523.034 2.27-.014l.867-.004c.399.795.789 1.692 1.37 2.371 1.571 1.827 3.826 3.177 4.263 5.721.092.731.27 1.674.028 2.391l-.163-.238c-.45.495-.983 1.102-1.602 1.38-1.082.485-2.57.529-3.748.551-8.823.18-14.996-5.054-23.15-7.097-3.117-.781-6.769-.507-9.983-.639-4.758-.192-9.487-.204-14.246-.17-2.472.018-4.997-.062-7.461.138-3.095.253-6.147 1.122-9.182 1.755-5.638 1.178-15.263 2.92-20.689 1.043-2.568 2.366-4.733 3.912-8.162 4.764-3.199.795-6.618.58-9.462-1.214-.989-.625-2.023-1.553-2.217-2.77-.08-.505.028-.864.309-1.286.096.278.189.526.388.749 1.08 1.21 2.733 1.622 4.29 1.64 5.284.058 10.359-2.223 14.077-5.897 6.169 1.501 13.246.243 19.211-1.668 2.201-.705 4.3-1.627 6.528-2.276"/><path fill="#556778" d="M286.787 288.887c3.7-.432 8.214-.038 11.998-.018.751-.002 1.522.034 2.27-.014l.867-.004c.398.795.789 1.693 1.37 2.372 1.57 1.827 3.826 3.177 4.262 5.72-.028.449-.074.87-.16 1.31-.591-.55-.955-1.572-1.626-2.227l-.183-.174-.052.188c-1.196-.342-3.277.655-4.689.615-5.446-.152-10.484-3.984-14.057-7.768"/><path fill="#73899d" d="m301.055 288.856.867-.004c.399.795.789 1.692 1.37 2.371 1.57 1.827 3.826 3.177 4.262 5.721a10 10 0 0 1-.16 1.31c-.591-.551-.955-1.573-1.626-2.228l-.182-.174c-2.174-2.464-3.694-3.605-4.531-6.996"/><path fill="#2a2f35" d="M285.426 289.067c.591-.273.735-.239 1.362-.179 3.573 3.784 8.611 7.616 14.057 7.768 1.412.04 3.493-.957 4.689-.615a2.74 2.74 0 0 1-.931.949c-1.813 1.152-4.014 1-6.027.593-5.016-1.013-10.28-4.236-13.15-8.516"/><path fill="#556778" d="M245.854 297.896c1.498 2.405 2.359 7.651 1.748 10.355-.448 1.983-1.368 3.419-3.126 4.453a3.7 3.7 0 0 1-.842.368c-2.734.483-16.564.744-18.335-.837-.421-.374-.533-1.128-.579-1.648a18 18 0 0 0-.286-1.895c2.243.362 3.819 1.752 6.235 1.881 4.322.23 8.998-.83 12.226-3.88 2.638-2.496 2.923-5.392 2.959-8.797m5.332-2.134c.729-.134 1.676-.308 2.321.155 1.124.807 1.406 2.896 1.493 4.164.192 2.826-.625 6.676 1.686 8.825 2.506 2.326 10.578 4.391 14.079 5.382-3.415.667-7.649.174-11.132-.008a13.6 13.6 0 0 1-3.704-.677c-1.665-.539-3.241-1.404-4.02-3.044-1.458-3.061-.024-5.959.965-8.872.463-1.364.946-4.27-.028-5.518-.324-.413-1.157-.349-1.66-.407"/><path fill="#fcd299" d="M125.965 241.909c1.493-1.133 2.619-2.225 3.7-3.763.72 3.034 2.392 5.58 5.072 7.241.716.442 1.55.851 2.354 1.095q.107.024.215.046c1.389.293 2.562-.306 3.462.928l1.516 2.307c2.519 3.842 4.971 7.56 7.712 11.257l2.483 2.947c1.143 1.422 2.34 3.168 3.754 4.316l1.356 1.715c2.039.53 4.663.532 5.867 2.561.612 1.032.555 2.306.203 3.412-1.203 3.795-5.677 7.158-9.056 8.911-2.573 1.278-9.133 4.188-11.961 3.485-.114-.028-.213-.096-.319-.144-.497-.593-.87-1.096-1.186-1.805-.65-.635-1.049-1.254-1.459-2.061l-.129-.258-.383-.068-.044-.106.336-.559c.024-.793-3.083-5.669-3.695-6.594-1.891.631-3.506.635-5.426.216l-.756.315c-.946.154-1.84.166-2.794.154-.845-.168-1.706-.319-2.533-.561-5.499-1.616-9.989-5.735-12.666-10.73-2.64-4.93-3.061-9.733-1.458-15.055.039-.28.061-.671.176-.927.261-.585.569-.637 1.101-.874.159-.584.44-1.135.687-1.686 1.151-1.703 2.479-3.217 4.218-4.339 3.044-1.965 6.224-2.119 9.653-1.376"/><path fill="#dcdcdc" d="m149.997 261.021 2.482 2.947c1.143 1.422 2.34 3.169 3.754 4.316l1.356 1.715c2.039.531 4.663.533 5.867 2.562.612 1.031.555 2.305.203 3.411-1.203 3.796-5.676 7.159-9.056 8.911-2.573 1.278-9.133 4.189-11.961 3.486-.113-.028-.212-.097-.318-.145-.498-.592-.871-1.095-1.186-1.804-.651-.635-1.05-1.254-1.459-2.061l-.13-.259-.383-.068-.043-.106.335-.559c.024-.793-3.083-5.668-3.694-6.594l.743-.302a12 12 0 0 0 2.271-1.234c3.005-2.059 4.164-4.899 4.824-8.323-.012-1.017-.12-1.959-.283-2.958a282 282 0 0 1 4.141-1.546z"/><path fill="#2a2f35" d="M157.588 269.998c2.039.53 4.663.532 5.867 2.561.612 1.032.555 2.306.204 3.412-1.203 3.795-5.677 7.158-9.057 8.911-2.573 1.278-9.133 4.188-11.961 3.485-.113-.028-.212-.096-.318-.144-.498-.593-.87-1.096-1.186-1.805 1.763-1.702 3.759-3.239 5.64-4.817q5.694-5.532 10.811-11.603"/><path fill="#beb8b7" d="m143.602 266.912 2.751-.623c.532.893.578 1.308.321 2.327-.592 2.346-1.727 4.575-3.097 6.554 1.063 1.999 2.484 4.297 3.2 6.43-1.88 1.578-3.877 3.115-5.639 4.817-.651-.635-1.05-1.254-1.459-2.061l-.13-.258-.383-.069-.043-.106.335-.558c.024-.794-3.083-5.669-3.694-6.594l.743-.303c.795-.32 1.563-.747 2.271-1.234 3.005-2.059 4.164-4.899 4.824-8.322"/><path fill="#2a2f35" d="m149.996 261.021 2.482 2.947c-1.889 1.178-3.921 1.967-6.126 2.323l-2.751.623c-.012-1.017-.12-1.959-.283-2.958a278 278 0 0 1 4.141-1.546z"/><path fill="#e1a469" d="M125.964 241.909c1.494-1.133 2.619-2.225 3.7-3.763.72 3.034 2.393 5.58 5.073 7.241.716.442 1.55.851 2.354 1.095q.106.024.214.046c1.389.293 2.563-.306 3.462.928l1.516 2.307c2.52 3.842 4.971 7.56 7.713 11.257l-2.537 1.388q-2.076.757-4.14 1.547c.162.999.271 1.94.282 2.958-.66 3.423-1.819 6.263-4.824 8.322-.708.487-1.476.914-2.271 1.234-.141-.278-.404-.739-.305-1.045.542-1.665 3.142-2.816 3.861-6.762.432-2.376-.094-5.148-1.556-7.095a8 8 0 0 0-.214-.273 7 7 0 0 0-.989-.963 7 7 0 0 0-1.166-.739 6 6 0 0 0-.635-.274 6 6 0 0 0-.659-.209 6.6 6.6 0 0 0-1.021-.18c-1.893-.194-4.267.401-5.79 1.578-.501.387-.878.914-1.375 1.3-.292.229-.317.307-.697.251-.022-.084-.05-.167-.066-.251-.096-.514.032-.945.358-1.348 1.984-2.455 6.562-3.124 9.484-3.467.339-.407.517-.767.559-1.298.17-2.129-1.369-4.905-2.73-6.486-1.308-1.52-3.278-2.602-5.297-2.694-3.369-.152-6.359 2.15-8.08 4.888-.505.801-.875 1.896-1.558 2.545-.119-.382-.24-.769-.312-1.163-.206-1.134.316-2.093.943-2.995 1.946-2.8 4.581-4.378 7.912-4.983-5.164-2.532-8.913-.557-12.799 2.922-.919.823-1.643 1.777-2.894 2.071l-.074-.489c.159-.584.441-1.135.687-1.686 1.151-1.703 2.48-3.217 4.218-4.339 3.045-1.965 6.225-2.119 9.653-1.376"/><path fill="#dcdcdc" d="m140.767 247.456 1.516 2.308c2.52 3.841 4.971 7.559 7.713 11.257l-2.537 1.388q-2.076.756-4.14 1.546c-.608-2.364-1.95-3.93-3.807-5.426l-.263-2.616.093-.294c-.561-1.116-.779-2.458-1.308-3.63l.922-1.636z"/><path fill="#beb8b7" d="M139.25 255.913c.244-.024.671-.129.899-.09 1.194.206 3.772 2.207 4.775 3.024.831.677 2.354 1.907 2.51 2.983.034.234.026.352.026.578a285 285 0 0 0-4.141 1.547c-.607-2.364-1.949-3.93-3.807-5.426z"/><path fill="#2a2f35" d="m140.767 247.456 1.516 2.308a54 54 0 0 0-2.941 5.855c-.561-1.116-.779-2.458-1.308-3.63l.922-1.636z"/><path fill="#beb8b7" d="M125.965 241.909c1.493-1.133 2.619-2.225 3.7-3.763.72 3.034 2.392 5.58 5.072 7.241.716.442 1.55.851 2.354 1.095q.107.024.215.046c1.389.293 2.562-.306 3.462.928l-1.811 2.896-.922 1.637c-1.432-2.4-2.869-4.736-5.415-6.112-.75-.404-1.693-.44-2.385-.931-1.601-1.138-2.38-2.177-4.27-3.037"/><path fill="#dcdcdc" d="M138.956 250.352c-.463-.779-1.908-3.097-1.865-3.87l.214.046c1.389.293 2.563-.306 3.462.928z"/><path fill="#860303" d="M110.13 251.112c.945 2.247 1.996 3.996 4.385 4.946.506.2 1.026.37 1.543.538.896 3.257 2.154 5.234 4.791 7.323-.512 3.145.573 7.285 2.48 9.843 1.291 1.731 3.255 3.165 5.431 3.437.272.034.553.048.821.104-.946.155-1.84.167-2.794.155-.845-.169-1.706-.319-2.533-.561-5.499-1.617-9.989-5.735-12.666-10.73-2.64-4.93-3.061-9.733-1.458-15.055"/><path fill="#600000" d="M110.131 251.111c.039-.28.06-.671.175-.927.262-.585.569-.637 1.101-.873l.074.488c-.087 1.188.117 1.703.911 2.592 1.644 1.841 4.796 2.041 5.541 2.818.417.437.67 1.675.923 2.258 1.141 2.632 3.527 4.493 5.947 5.867-1.005 2.976-1.106 6.079.299 8.967 1.088 2.236 2.907 3.84 5.236 4.687l-.757.315c-.267-.056-.549-.07-.821-.104-2.175-.273-4.14-1.707-5.431-3.438-1.906-2.557-2.991-6.698-2.48-9.842-2.637-2.09-3.894-4.067-4.79-7.323a27 27 0 0 1-1.543-.539c-2.389-.95-3.44-2.698-4.385-4.946"/><path fill="#860303" d="M360.344 264.119c.522.707.675 1.133.663 2.029.468 1.668.947 3.349 1.153 5.075l.485.333c1.244.591 2.211 1.326 2.65 2.688.405 1.256.19 2.974-.433 4.13-.198.369-.45.701-.685 1.046q-.133.199-.26.4c.581 1.068.871 2.109 1.015 3.313.223.749.169 1.174-.032 1.921l-.086.17c.641 3.52.413 7.532-1.628 10.598-.92 1.38-2.408 2.594-4.06 2.939-.721.15-1.513.118-2.246.122-2.682 2.305-5.646 3.858-9.288 3.629-2.686-.17-4.687-1.342-6.497-3.251-2.114 1.11-4.145 1.447-6.468.689-2.558-.833-4.671-2.806-5.793-5.237a9 9 0 0 1-.18-.425 9.4 9.4 0 0 1-.513-1.771 10 10 0 0 1-.126-.913 9 9 0 0 1-.024-1.382 10 10 0 0 1 .176-1.372q.046-.227.102-.449a10 10 0 0 1 .269-.883c.012-.034.03-.064.044-.096l-.054-.445c-.181-.439-.241-.897-.261-1.37-.088-2.187 1.11-4.248 1.012-6.462-.088-2.003-1.456-3.475-1.693-5.368q-.008-.079-.014-.16c1.655-.731 3.091-2.021 4.707-2.858 5.719-2.965 11.7-4.76 18.027-5.841 1.545.198 7.866-.671 10.038-.799"/><path fill="#fcd299" d="M357.7 286.626q.678-.615 1.426-1.146a15 15 0 0 1 1.552-.965c.853-.471 2.352-1.148 3.335-.693.563.26.659.713.887 1.232l-.086.17c.641 3.519.413 7.531-1.628 10.598-.92 1.38-2.408 2.594-4.06 2.938-.721.151-1.513.119-2.246.123-2.682 2.305-5.646 3.857-9.288 3.629-2.686-.17-4.687-1.342-6.497-3.251-2.114 1.11-4.145 1.446-6.468.689-2.558-.833-4.671-2.806-5.793-5.238a8 8 0 0 1-.18-.424 9 9 0 0 1-.417-1.318q-.051-.225-.096-.453a10 10 0 0 1-.156-1.374 9 9 0 0 1 .006-.921 10 10 0 0 1 .176-1.372q.046-.227.102-.449.057-.225.125-.445a8 8 0 0 1 .144-.438c.012-.035.03-.065.044-.097l-.054-.444c.134-.209.268-.417.418-.617.784-1.044 2.122-1.432 3.363-1.599 3.914-.518 9.503.721 12.603 3.165 1.07-1.232 2.34-1.835 3.92-2.205 2.662-.623 6.508-.553 8.868.905"/><path fill="#e1a469" d="M343.276 297.725c1.1 1.193 2.195 2.147 3.834 2.431 2.057.357 4.102-.076 5.79-1.318 3.694-2.716 4.323-6.718 4.89-10.916l.376-.03c.044.038.094.072.135.116 1.716 1.955-.099 5.374.06 7.519.03.411-.036.241.304.535 2.926-.755 4.483-4.843 4.931-7.537.157-.944.024-2.502.543-3.279l.675-.022c.641 3.519.413 7.531-1.628 10.598-.92 1.38-2.408 2.594-4.06 2.938-.721.15-1.513.118-2.246.122-2.682 2.306-5.646 3.858-9.288 3.63-2.686-.17-4.687-1.342-6.497-3.251-2.114 1.11-4.145 1.446-6.468.689-2.558-.833-4.671-2.806-5.793-5.238a9 9 0 0 1-.18-.424 9.8 9.8 0 0 1-.587-2.226 9 9 0 0 1-.082-.919 9 9 0 0 1 .006-.922 10 10 0 0 1 .278-1.82q.057-.225.125-.445.066-.222.144-.439c.012-.034.03-.064.044-.096.386.172.553.217.737.635.955 2.187.342 4.004 2.191 6.664 1.064 1.526 2.744 2.292 4.539 2.596 3.037.513 5.999-1.536 7.626-3.988.789-1.188 1.309-2.998 2.493-3.848l.239.13c.044.235.078.445.078.685.01 2.993-1.092 5.391-3.209 7.43"/><path fill="#600000" d="M360.344 264.119c.522.707.675 1.133.663 2.029-2.596 1.504-6.923 1.177-9.891 1.802-4.743.996-9.587 2.44-13.933 4.587-.737.363-2.588 1.074-2.813 1.885.81.038 1.449-.449 2.288-.312-1.402.899-2.748 1.953-3.147 3.669-.324 1.402.106 2.754.896 3.92q.162.237.33.467c-.779-.393-1.306-.876-1.927-1.474-.14 1.195-.274 2.383-.525 3.563 4.333-.649 8.135.126 12.239 1.56 4.216-2.748 7.801-2.027 12.436-1.117 2.336-1.208 4.647-2.314 7.348-1.707l.374.082.25.06c.223.749.169 1.174-.032 1.921-.228-.519-.324-.971-.887-1.232-.983-.454-2.482.223-3.335.693a15.2 15.2 0 0 0-2.978 2.111c-2.36-1.458-6.206-1.528-8.868-.905-1.58.371-2.85.974-3.92 2.205-3.1-2.443-8.689-3.683-12.603-3.164-1.241.166-2.579.554-3.363 1.598-.15.2-.284.409-.418.617-.181-.439-.241-.897-.261-1.37-.088-2.187 1.11-4.248 1.012-6.462-.088-2.003-1.456-3.475-1.693-5.368q-.008-.079-.014-.16c1.655-.731 3.091-2.021 4.707-2.858 5.719-2.965 11.7-4.76 18.027-5.841 1.545.198 7.866-.671 10.038-.799"/><path fill="#556778" d="M336.658 274.11c1.711-.329 2.938-.585 4.483.44 1.095.872 1.893 1.735 2.095 3.175.176 1.256-.233 2.394-.996 3.383-.26.335-.558.595-.881.869a6 6 0 0 1-1.402.83c-1.779.761-3.553.03-5.22-.641a20 20 0 0 1-.33-.467c-.79-1.166-1.22-2.518-.896-3.92.399-1.717 1.745-2.77 3.147-3.669"/><path fill="#33404e" d="M336.658 274.11c1.711-.329 2.938-.585 4.483.44-2.005.373-3.848 1.006-5.068 2.782-.348.509-.633 1.134-.493 1.767.201.899 1.164 1.498 1.925 1.883 1.072.541 2.109.701 3.283.865.349.048.206.022.571.13a6 6 0 0 1-1.402.83c-1.779.761-3.553.03-5.22-.641a20 20 0 0 1-.33-.467c-.79-1.166-1.22-2.518-.896-3.92.399-1.717 1.745-2.77 3.147-3.669"/><path fill="#556778" d="M362.645 271.557c1.244.59 2.212 1.326 2.65 2.688.405 1.255.191 2.974-.432 4.13-.199.368-.451.701-.685 1.045-.091.133-.175.267-.261.401l-.436.327c-.726-.377-1.575-.219-2.364-.345-.913-.146-2.013-.769-2.522-1.558-.37-.577-.404-1.266-.252-1.919.545-2.336 2.389-3.608 4.302-4.769"/><path fill="#33404e" d="m362.161 271.225.485.332c-1.913 1.162-3.758 2.434-4.303 4.769-.152.653-.118 1.342.253 1.919.508.789 1.608 1.412 2.521 1.559.789.126 1.639-.032 2.364.344-.615.599-1.416 1.108-2.268 1.272-1.41.272-2.527-.463-3.623-1.218-.643-1.418-1.134-2.7-.961-4.29.2-1.839 1.332-3.073 2.716-4.16.965-.281 1.81-.451 2.816-.527"/><path fill="#600000" d="M357.59 280.202c-.889-.631-1.596-1.276-1.965-2.334-.402-1.151-.264-2.387.305-3.459.733-1.386 1.941-2.227 3.415-2.658-1.384 1.088-2.516 2.322-2.716 4.16-.172 1.591.318 2.873.961 4.291"/><path fill="#556778" d="M346.748 274.195c.585-.521 1.199-.986 1.917-1.31 1.011-.457 1.902-.341 2.904.05 1.466.825 2.516 1.689 3.032 3.363.367 1.182.175 2.34-.42 3.411-.415.743-.98 1.262-1.625 1.803-.805.691-1.528.961-2.605.841-.535-.06-1.064-.206-1.597-.29a4.53 4.53 0 0 1-2.44-1.388l-.142-.167a4 4 0 0 1-.254-.354 5 5 0 0 1-.218-.379 3 3 0 0 1-.179-.398 6 6 0 0 1-.134-.415l-.052-.212a6 6 0 0 1-.07-.433 4 4 0 0 1-.02-.653q.006-.11.016-.218c.13-1.402.833-2.376 1.887-3.251"/><path fill="#33404e" d="M346.748 274.195c.585-.521 1.199-.986 1.917-1.31 1.011-.457 1.902-.341 2.904.05-1.558.717-3.421 1.65-4.002 3.413-.212.645-.102 1.27.216 1.855.906 1.668 2.614 2.474 4.305 3.091.296.108.178.058.468.218-.805.691-1.528.961-2.605.841-.535-.06-1.064-.206-1.597-.29a4.53 4.53 0 0 1-2.44-1.388l-.142-.167a4 4 0 0 1-.254-.354 5 5 0 0 1-.218-.379 3 3 0 0 1-.179-.398 6 6 0 0 1-.134-.415l-.052-.212a6 6 0 0 1-.07-.433 4 4 0 0 1-.02-.653q.006-.11.016-.218c.13-1.402.833-2.376 1.887-3.251"/><path fill="#600000" d="M348.354 282.061a4.52 4.52 0 0 1-2.582-1.554l-.132-.174a3 3 0 0 1-.122-.181 4 4 0 0 1-.218-.378 4 4 0 0 1-.179-.399l-.072-.206a4 4 0 0 1-.154-.635 4 4 0 0 1-.054-.653q0-.11.004-.218.006-.111.016-.219c.13-1.402.833-2.375 1.887-3.251-.775 1.643-1.352 3.201-.649 5.006.472 1.212 1.28 2.037 2.255 2.862"/><path fill="#fcd299" d="M130.852 234.837c.994-.491 1.794-.577 2.897-.501 2.996.663 5.205 2.324 6.844 4.881.582.908.977 1.891 1.366 2.893 3.464-.17 7.381-1.122 10.579-2.504 1.184-.921 2.659-1.156 3.871-2.207 1.903 2.582 3.529 5.23 5.864 7.461a30.3 30.3 0 0 0 6.01-1.572c.241 1.017.401 2.67 1.304 3.319.464.332 1.043.344 1.578.196 1.221-.341 2.475-1.056 3.639-1.577-1.248 2.923-2.373 5.873-3.55 8.824-.18.725-.268 1.077.142 1.764 1.224 2.055 3.127 4.081 4.844 5.725-5.556 3.896-13.383 5.651-20.008 6.744-1.414-1.148-2.611-2.894-3.754-4.316l-2.482-2.947c-2.742-3.697-5.194-7.415-7.713-11.257l-1.516-2.307c-.9-1.234-2.073-.635-3.462-.928q-.108-.022-.215-.046c-.804-.244-1.638-.653-2.354-1.095-2.68-1.661-4.352-4.207-5.072-7.241.064-1.482.257-2.147 1.188-3.309"/><path fill="#e1a469" d="M130.852 234.837c.994-.491 1.794-.577 2.897-.501-.534.447-1.02 2.478-1.071 3.207-.111 1.6.577 2.898 1.651 4.036 1.589 1.685 3.501 2.824 5.611 3.73.804.344 1.946.695 2.603 1.274 1.211 1.063 2.264 2.637 3.278 3.899 2.771 3.446 5.512 7.215 8.58 10.392 4.86-.238 9.658-1.096 14.149-3.027l-.724-1.782a394 394 0 0 1 2.024-6.117c-.718.184-1.391.424-2.134.254-.431-.329-.656-.517-.748-1.078-.15-.915-.123-1.969-.162-2.902-1.4.479-3.658 1.572-5.1 1.332a2.7 2.7 0 0 1-.449-.833c-1.312-.064-2.669 1.7-3.87.362-1.821-2.031-3.652-5.041-4.849-7.477 1.184-.921 2.659-1.156 3.871-2.207 1.903 2.582 3.529 5.23 5.864 7.461a30.3 30.3 0 0 0 6.01-1.572c.241 1.017.401 2.67 1.304 3.319.464.332 1.043.344 1.578.196 1.221-.341 2.475-1.056 3.639-1.577-1.248 2.923-2.373 5.873-3.55 8.824-.18.725-.268 1.077.142 1.764 1.224 2.055 3.127 4.081 4.844 5.725-5.556 3.896-13.383 5.65-20.008 6.744-1.414-1.148-2.611-2.894-3.754-4.316l-2.482-2.947c-2.742-3.697-5.194-7.415-7.713-11.257l-1.516-2.307c-.9-1.234-2.073-.635-3.462-.928q-.108-.022-.215-.046c-.804-.244-1.638-.653-2.354-1.095-2.68-1.661-4.352-4.207-5.072-7.241.064-1.482.257-2.147 1.188-3.309m212.349 1.478c5.783 3.333 15.656 17.867 17.437 24.331.334 1.213.536 2.053-.117 3.174-.058.101-.12.201-.178.299-2.171.128-8.493.997-10.037.799-6.327 1.082-12.308 2.876-18.027 5.841-1.616.837-3.053 2.127-4.707 2.858-2.282-2.125-4.04-5.41-5.775-8.024l-.867-.789c5.743-3.8 11.714-9.681 15.203-15.698 2.926-3.851 5.152-8.368 7.068-12.791"/><path fill="#fcd299" d="M321.798 265.593q.707-.017 1.404-.128c6.644-1.12 14.51-10.645 18.35-15.798a256 256 0 0 1 6.317 10.898c.801 1.432 1.737 2.872 2.438 4.353-6.328 1.081-12.309 2.876-18.027 5.84-1.617.838-3.053 2.128-4.707 2.859-2.282-2.125-4.041-5.41-5.775-8.024"/><path fill="#556778" d="M266.793 212.627c1.875-.969 10.336-.456 12.918-.448-3.391 1.662-6.424 4.076-9.867 5.746-12.925 6.051-29.472 9.336-43.435 5.388-5.619-1.588-10.208-4.35-13.11-9.512l-.439-1.252c1.905-.018 8.88-.465 10.26.311.068-.044.13-.101.204-.137.397-.2.749-.214 1.184-.238 3.866-.218 41.214-.483 41.927-.112.052.028.096.07.144.104z"/><path fill="#f5a168" d="M223.119 212.86c.068-.044.13-.1.204-.136.397-.2.75-.214 1.184-.238 3.866-.218 41.214-.483 41.927-.112.052.028.096.07.144.104l.215.15c-8.433 5.835-20.054 7.505-30.019 5.733-4.812-.856-9.693-2.584-13.655-5.501"/><path fill="#2a2f35" d="M298.785 288.871c-.433-.157-.901-.315-1.3-.547-.803-.465-1.55-1.469-1.781-2.37-.216-.839.07-1.39.487-2.095.339-.567.631-1.032.771-1.689.974-4.604.731-9.223 1.014-13.872.432-7.137 1.063-14.192 1.069-21.359.006-6.962-.697-13.85-.098-20.805 2.228 5.534 2.582 9.587 3.574 15.311l2.361 12.986c3.111 2.299 7.451 4.406 11.367 4.667 5.208.346 8.235-2.52 11.81-5.827 1.572-1.456 3.209-2.878 4.719-4.399 1.55-1.562 2.973-3.245 4.649-4.681l.257-.218c-.265 1.823-1.194 3.353-1.551 5.134-3.489 6.017-9.46 11.898-15.203 15.697-1.272.743-2.455 1.224-3.916 1.513-4.198-1.861-7.691-4.818-11.415-7.432.821 4.736 3.702 23.516 1.216 27.293-.917 1.397-3.319 2.27-4.893 2.674l-.868.004c-.747.049-1.518.013-2.269.015m-97.985-6.424c3.763 1.27 7.591 2.43 11.513 3.107 8.226 1.422 17.753 1.093 25.793-1.08 4.581-1.238 8.897-3.251 13.6-4.072a75 75 0 0 1 6.27-.765q3.15-.253 6.311-.239c2.736.036 5.468.271 8.206.263-4.08 2.313-8.741 3.106-13.263 4.14-2.646.605-5.25 1.3-7.914 1.843-2.891.589-6.42.979-8.996 2.457-2.227.649-4.326 1.571-6.528 2.276-5.965 1.911-13.041 3.169-19.211 1.668-3.717 3.674-8.793 5.955-14.077 5.897-1.556-.018-3.209-.431-4.289-1.64-.2-.223-.292-.471-.389-.749l.318-.359c1.788-2.59 4.28-4.405 5.129-7.559l2.286.03c-2.254-1.416-3.788-2.644-4.759-5.218"/><path fill="#556778" d="m203.273 287.635 2.286.03c3.181 1.9 6.275 3.034 9.821 4.08-3.413 2.842-8.774 5.36-13.328 4.945-1.551-.14-2.621-.685-3.907-1.496 1.787-2.59 4.279-4.405 5.128-7.559"/><path fill="#2a2f35" d="M200.243 219.605c4.024 5.332 4.587 12.755 3.695 19.158-.775 5.569-3.553 10.546-5.679 15.662-2.506 2.68-11.416 12.533-14.44 13.384-2.333-.362-6.055-4.423-7.578-6.269-1.718-1.645-3.62-3.67-4.845-5.725-.41-.687-.322-1.039-.141-1.765 1.884.423 3.746 1.667 5.515 2.456 2.612 1.164 5.5 2.185 8.25 2.967a244 244 0 0 1 5.092-5.18c1.814-1.761 3.755-3.433 5.316-5.43 4.35-5.559 5.664-15.952 5.534-22.883-.04-2.137-.481-4.256-.719-6.375m79.467-7.426 18.472.004c3.864.041 8.11.601 11.916-.122 1.809-.344 3.952-1.36 5.404-2.467 1.805 1.416 4.171 3.281 6.378 3.899.567-.096.651-.176 1.095-.55 1.929 1.546 3.798 3.355 5.955 4.574.393.892.01 1.649-.312 2.498-.409.848-.691 1.773-1.637 2.135-.472.183-1.109.111-1.606.113a8 8 0 0 0-1.302.124c.126 1.019.435 2.005-.268 2.87-.759.936-2.985 1.092-4.135 1.256-.3.054-.586.094-.895.084-.673-.024-1.112-.172-1.556-.673-.054-.477-.008-.751.242-1.172.787-1.326 1.975-1.578 3.347-1.985-.046-.963-.154-2.105.451-2.938.715-.983 2.015-1.16 3.129-1.392a598 598 0 0 0-7.51-5.162c-1.556.797-2.926 1.705-4.613 2.237-8.346 2.634-20.244-.094-29.276 1.635-2.215.423-10.315 2.906-11.791 2.38-.79-.283-1.038-.898-1.354-1.601 3.443-1.67 6.475-4.084 9.866-5.747m-92.147-2.299c7.285 3.285 17.389 2.712 25.297 2.67l.439 1.252c-.447.344-.868.619-1.433.721-2.249.409-4.757.302-7.058.519-5.141.485-10.33 1.2-15.374 2.321-4.369.972-14.204 8.353-17.204 7.934-.2-.028-.315-.096-.487-.178-.205-.441-.231-.681-.075-1.154.078-.236.206-.458.311-.683.123-.262.081-.158.116-.493 2.265-2.261 4.248-4.779 6.528-7.02.295.338.494.479.909.653.465-.303.509-.94.716-1.452l.121-.297c2.446-1.472 4.831-3.189 7.194-4.793"/><path fill="#fcd299" d="M328.618 220.015c2.005 1.373 3.944 2.943 5.362 4.938-.422.451-.747.885-1.37 1.047-.743-.04-1.344-.282-2.033-.544a111 111 0 0 1-2.309 7.277l-3.469.701c-1.164 1.3-2.72 2.293-4.155 3.277.744-1.461 1.601-2.933 2.202-4.453-.573-1.104-3.029-5.012-3.175-5.745 1.15-.164 3.375-.32 4.134-1.256.703-.865.395-1.85.269-2.87a8 8 0 0 1 1.301-.124c.497-.002 1.134.07 1.607-.112.945-.363 1.228-1.288 1.636-2.136"/><path fill="#8f513f" d="m281.471 256.184.224-.018c3.59-.193 6.821 2.119 9.398 4.378 1.675 1.467 4.365 4.213 4.427 6.57a2.13 2.13 0 0 1-.659 1.633c-1.592 1.52-4.703 1.207-6.764 1.213.933.93 2.926 2.046 3.131 3.422.21 1.402-.906 1.448-1.575 2.241-.887 1.054-.537 3.157-1.672 4.284-1.098 1.088-3.007 1.166-4.463 1.228-.779-.348-1.436-.811-2.135-1.296-1.182-1.059-2.089-2.762-3.489-3.519-3.388-1.831-8.774-.615-11.436-3.585a4 4 0 0 1-.21-.257 3 3 0 0 1-.182-.278 3 3 0 0 1-.153-.295 4 4 0 0 1-.12-.308l-.048-.16-.038-.161a2 2 0 0 1-.03-.164 2 2 0 0 1-.022-.164 2 2 0 0 1-.018-.333 3 3 0 0 1 .018-.33c.421-3.884 7.335-3.407 10.115-4.032 1.485-.333 2.602-.811 3.76-1.807l.182-.16c-.761-.437-1.74-.909-2.245-1.644-.319-.465-.505-1.04-.317-1.595.353-1.037 1.539-1.606 2.46-2.007.399-1.42.589-2.031 1.861-2.856m-69.236-.553.11-.002c2.702.03 5.084.569 7.008 2.626.627.671 1.148 1.536 1.072 2.488-.266 3.311-4.19 4.154-5.532 5.742-.539.637.551 4.211.661 5.256-.629 1.132-1.286 2.063-2.598 2.42-2.193.597-4.387-1.05-6.159-2.137-.511-.279-.948-.509-1.525-.633-.849.418-.829 1.636-1.514 2.219-1.576 1.342-3.901-1.4-5.94-1.656l-.256-.029c.108-1.934-.285-6.469.971-8.004.902-1.103 3.354-1.107 4.604-1.856.631-.379 1.216-1.016 1.729-1.547 2.425-2.503 3.773-4.158 7.369-4.887m30.367-.795q.776-.1 1.559-.1c1.196.008 2.644.298 3.737.823 2.478 1.19 4.339 3.249 6.586 4.765 1.929 1.302 4.151 2.095 5.803 3.796.587.603.593.905.565 1.706-.351.619-.613.771-1.284.99-.401.132-.919.234-1.234.531-.613.574-.567 1.638-.621 2.397-.082 1.178-.593 1.763-1.452 2.53q-.276.113-.559.214c-1.178.407-2.195.423-3.321-.144-1.656-.831-2.844-2.54-4.32-3.649-3.774-2.843-7.912-3.321-9.711-8.371.142-.863.296-1.715.663-2.516.749-1.646 1.927-2.399 3.589-2.972m20.229-.613q.369-.014.739-.008c1.586.018 2.928.537 4.022 1.718.725.782 1.198 1.803 1.088 2.883-.125 1.2-.693 1.814-1.589 2.56-.476.116-.927.208-1.422.18-1.162-.07-2.377-.96-3.107-1.817-.761-.895-1.273-2.047-1.131-3.241.126-1.065.583-1.62 1.4-2.275"/><path fill="#dcdcdc" d="M15.146 89.206c-.493-3.333-.623-6.563-.33-9.923.923-10.575 4.883-22.145 11.085-30.787 1.139-1.585 2.42-3.369 3.965-4.59.477-.376.834-.592 1.443-.503 1.873 1.859 8.299 15.953 9.76 19.112 2.691 5.993 6.024 11.825 9.103 17.638l13.542 25.812 44.494 85.199 11.529 22.24c1.658 3.235 5.247 9.26 5.898 12.543.048.24.097.476.139.717 2.061.841 3.656 2.247 4.489 4.344.483 1.214.643 2.528.59 3.828-.931 1.162-1.125 1.827-1.188 3.309-1.081 1.538-2.207 2.63-3.701 3.764-3.428-.743-6.608-.589-9.653 1.376-1.738 1.121-3.067 2.636-4.217 4.338-1.592.299-3.315.255-4.833-.34-1.263-.495-2.389-1.388-2.876-2.686-.499-1.33-.197-2.41.327-3.668q-.64-.51-1.268-1.037c-1.396-1.042-2.596-2.772-3.73-4.106l-6.2-7.307L79.64 212.03c-2.454-2.933-5.285-5.891-7.286-9.15.892-2.528 2.102-4.97 3.234-7.397a368 368 0 0 1-8.066.401c-2.181-2.561-3.847-5.511-6.003-8.083.583-1.949 1.31-3.826 2.138-5.683-1.683.286-3.367.476-5.064.654-3.36-4.143-6.894-9.31-9.602-13.891 2.184-2.662 5.073-5.301 7.741-7.479.586-.682 1.734-1.974 1.674-2.872-.511-.289-.909-.151-1.486-.102-4.598.625-9.365 1.212-13.9 2.169-10.544-10.613-18.895-26.352-23.255-40.579-1.138-3.713-1.875-7.497-2.637-11.299 1.086-.731 2.241-1.356 3.38-2.002-1.528-.37-3.035-1.009-4.535-1.496-.314-1.23-1.027-3.37-.348-4.53.598-1.021 8.23-3.25 9.798-3.773-3.578-2.334-6.819-5.203-10.277-7.712"/><path fill="#9e9c9c" d="M15.146 89.206c-.493-3.333-.623-6.563-.33-9.923.923-10.575 4.883-22.145 11.085-30.787 1.139-1.585 2.42-3.369 3.965-4.59.477-.376.834-.592 1.443-.503 1.873 1.859 8.299 15.953 9.76 19.112-.655-.118-1.127-.195-1.714.215-1.228.857-2.118 2.407-2.895 3.654-3.788 6.079-6.15 12.491-7.168 19.6-3.346 23.351 7.154 47.8 20.97 66.092 1.075 1.422 4.254 5.948 5.891 6.279.247.05.518.057.767.073-4.598.625-9.365 1.212-13.9 2.169-10.544-10.613-18.895-26.352-23.255-40.579-1.138-3.713-1.875-7.497-2.637-11.299 1.086-.731 2.241-1.356 3.38-2.002-1.528-.37-3.035-1.009-4.535-1.496-.314-1.23-1.027-3.37-.348-4.53.598-1.021 8.23-3.25 9.798-3.773-3.578-2.334-6.819-5.203-10.277-7.712M48.99 168.88c2.184-2.662 5.073-5.301 7.741-7.479 3.418 5.685 7.842 11.027 11.802 16.356l22.71 30.504c4.548 6.039 9.523 11.988 13.638 18.322-2.002 2.63-3.267 6.031-2.855 9.374.181 1.464.727 2.648 1.417 3.934-1.396-1.042-2.596-2.772-3.73-4.106l-6.2-7.307L79.64 212.03c-2.454-2.933-5.285-5.891-7.286-9.15.892-2.528 2.102-4.97 3.234-7.397a368 368 0 0 1-8.066.401c-2.181-2.561-3.847-5.511-6.003-8.083.583-1.949 1.31-3.826 2.138-5.683-1.683.286-3.367.476-5.064.654-3.36-4.143-6.894-9.31-9.602-13.891"/><path fill="#2a2f35" d="M125.775 226.666c2.06.841 3.655 2.247 4.489 4.344.482 1.214.642 2.528.589 3.828-.931 1.162-1.125 1.827-1.188 3.309-1.081 1.538-2.207 2.63-3.7 3.764-3.429-.743-6.609-.589-9.653 1.376-1.739 1.121-3.067 2.636-4.218 4.338-1.592.299-3.315.255-4.833-.34-1.263-.495-2.389-1.388-2.876-2.686-.498-1.33-.197-2.41.328-3.668 1.847-.529 19.876-12.585 21.062-14.265"/><path fill="#000" d="M270.765 314.288c1.566-.032 3.648.116 5.138-.417 1.602-.573.457-2.72 1.071-3.966 1.162-2.361 5.208-3.725 7.552-4.478 3.974-1.276 11.167-2.057 15.337-1.29 1.338.246 2.502.747 3.701 1.378l.323.172c.527-.102.575-.216.955-.605.924 2.756 2.005 4.751 1.805 7.772 2.35-.128 5.464-.415 7.367 1.27.427.376.793.929 1.046 1.438l.502 1.63.299.747c.01.379.022.768-.1 1.132-.178.537-.545 1.082-1.09 1.296-2.321.909-5.895-2.65-8.122-3.425l-.244-.078c.901 2.105 2.381 4.072 3.771 5.877 3.732-.784 7.788-.774 11.429.45 3.62 1.214 6.592 3.704 8.261 7.159 2.786 5.773 1.991 13.554-.024 19.435-3.876.649-10.993.631-14.949-.07-.246-.486-.484-1.037-.809-1.476-.449-.611-1.28-1.08-2.027-1.188-1.945-.286-3.908 1.569-5.344 2.668-2.568.189-5.092.098-7.659-.012-.694-1.226-1.379-2.285-2.578-3.086-1.01-.673-2.226-.982-3.42-.693-1.912.462-2.778 1.985-3.677 3.561-3.361.054-6.728-.176-10.089-.224-.219-.391-.445-.802-.727-1.152-.707-.873-2.043-1.378-3.143-1.426-2.071-.09-3.425.875-4.875 2.187-4.521.004-8.918-.16-13.407-.735-.07-.192-.142-.385-.206-.581-1.919-5.965-2.011-14.804-.911-20.895.442-2.458 1.214-4.848 1.937-7.235.522-1.725.973-3.53 1.774-5.148 3.484.182 7.718.675 11.133.008"/><path fill="#2a2f35" d="M275.331 339.104c-.197-2.862-.541-5.713-.754-8.573-.256-3.455.115-7.772-1.121-11.014-.074-.193-.243-.563-.389-.705-.943-.936-10.77.849-12.717-.399-.429-.273-.381-.503-.411-.954 1.226-1.183 9.869-.915 12.035-1.075 1.638-.12 3.224-.389 4.835-.709 1.19 2.822 3.028 5.508 5.76 7.012-1.057 1.633-3.413 5.895-2.906 7.872.074.289.1.313.222.549.351.082.667.082 1.014.132.042.006.08.028.12.042.279-.34.649-.498 1.032-.697.557.337 1.173.595 1.43 1.226.108.397.266.743.435 1.116.462.348.464.364 1.041.35 1.659-.921 3.117-4.116 4.17-5.686.998.795 2.815 1.905 4.115 1.865l.851 1.444c.326.579.709 1.049 1.382 1.238.935.26 2.135-.131 2.892-.687q.147-.11.291-.223c1.085.859 2.854 1.21 4.158 1.607-.565 2.087-.709 4.927-1.765 6.774-.929.416-2.097.424-3.106.438-2.841.034-5.741-.392-8.585-.524-4.675-.219-9.354-.207-14.029-.419"/><path fill="#fefefe" d="M282.051 330.584c.556.337 1.173.595 1.43 1.226-.483 1.13-.996 2.448-1.861 3.335-.519.533-1 .849-1.759.867-.254-.174-.42-.2-.511-.518-.406-1.418.96-3.091 1.669-4.213.278-.34.649-.498 1.032-.697"/><path fill="#2a2f35" d="M278.543 313.353c.419-1.095.843-1.975 1.685-2.812 3.525-3.517 9.81-4.577 14.581-4.529 2.376.024 5.967-.018 7.702 1.869 1.338 1.458 1.21 3.429 1.076 5.256l-.8.07c-.25-.092-.156-.04-.362-.176-1.036-.685-1.695-.924-2.957-.924l-1.173.275c-.697.248-1.05.513-1.567 1.035a1.6 1.6 0 0 1-.546.383c-3.265-.118-8.177 3.137-10.508 5.306q-1.123 1.051-2.107 2.231c-.425-.715-1.22-1.22-1.785-1.835-1.677-1.838-2.492-3.811-3.239-6.149"/><path fill="#556778" d="m298.294 312.382 1.174-.274c.723.368 1.404 1.267 1.657 2.045.284.875.31 1.65.252 2.555-.016.269-.022.539-.034.808l-1.27.336c-.805.116-1.478.09-2.285.02l-.089-.004c-2.66 3.413-6.127 6.105-8.572 9.723-1.054 1.57-2.512 4.765-4.171 5.686-.577.014-.579-.002-1.041-.35-.169-.373-.327-.719-.435-1.116-.256-.631-.873-.889-1.43-1.226-.383.199-.753.357-1.032.697-.04-.014-.078-.036-.12-.042-.346-.05-.663-.05-1.013-.132-.123-.236-.149-.26-.223-.549-.506-1.977 1.849-6.239 2.907-7.872l.997-1.35a25 25 0 0 1 2.107-2.231c2.332-2.169 7.243-5.424 10.508-5.306.233-.104.367-.198.547-.382.517-.523.869-.788 1.566-1.036"/><path fill="#73899d" d="M283.566 321.337a25 25 0 0 1 2.107-2.231c2.332-2.169 7.243-5.424 10.508-5.306.417.739.313 1.981.218 2.814-4.234 2.921-13.109 8.713-14.349 13.971-.383.199-.753.357-1.032.697-.04-.014-.078-.036-.12-.042-.346-.05-.663-.05-1.013-.132-.123-.236-.149-.26-.223-.549-.506-1.977 1.849-6.239 2.907-7.872zm14.728-8.955 1.174-.274c.723.368 1.404 1.267 1.657 2.045.284.875.31 1.65.252 2.555-.016.269-.022.539-.034.808l-1.27.336c-.607-.529-1.358-.873-1.787-1.588-.743-1.246-.29-2.572.008-3.882"/><path fill="#556778" d="M294.329 327.338c1.897-2.836 4.773-5.34 7.78-6.948 1.318-.705 2.78-1.322 4.266-.865.599.633.947 1.031 1.166 1.883l-.665 1.085a51 51 0 0 0-8.219 8.735q-.143.113-.29.223c-.757.556-1.957.947-2.892.687-.673-.189-1.056-.659-1.383-1.238l-.851-1.444c.395-.683.731-1.412 1.088-2.118"/><path fill="#73899d" d="M294.329 327.338c1.897-2.836 4.773-5.34 7.78-6.948 1.318-.705 2.78-1.322 4.266-.865a61.3 61.3 0 0 0-9.51 8.222 61 61 0 0 0-2.773 3.153l-.851-1.444c.395-.683.731-1.412 1.088-2.118"/><path fill="#556778" d="M299.468 312.108c1.262 0 1.921.238 2.956.923.207.136.112.084.363.176l.799-.07a49 49 0 0 1 3.061-.282c2.349-.129 5.464-.415 7.367 1.27.426.376.793.929 1.045 1.438l.503 1.63.298.747c.01.379.022.767-.1 1.132-.178.537-.545 1.082-1.089 1.296-2.322.909-5.895-2.65-8.123-3.425l-.244-.078c-1.126-.163-2.798-.679-3.786.03-.406.29-.671.513-1.175.621.012-.269.018-.539.034-.808.058-.905.032-1.68-.253-2.555-.252-.778-.933-1.677-1.656-2.045"/><path fill="#73899d" d="M306.647 312.853c2.35-.128 5.464-.414 7.367 1.27.427.377.793.93 1.046 1.438l.502 1.631c-.665-.22-.861-.287-1.558-.102-2.201.583-4.138-1.166-6.195-1.715-1.464-.39-3.195-.404-4.705-.547-.329-.386-.341-.641-.447-1.125-.072-.327-.086-.163.13-.497l.799-.07a49 49 0 0 1 3.061-.283"/><path fill="#2a2f35" d="M302.703 318.032c.89-.044 1.703-.273 2.594-.122.623.36.802.985 1.078 1.614-1.486-.457-2.948.16-4.266.865-3.007 1.609-5.883 4.113-7.78 6.949-.238-.295-.337-.261-.711-.349-.841-.2-1.516-.466-2.3-.843 2.52-2.229 4.481-4.795 6.849-7.143 1.728.155 3.106.106 4.536-.971m4.838 3.375c.599.949 1.194 1.877 1.877 2.768-2.723 1.558-4.227 3.832-5.715 6.524-.659-.214-1.334-.407-1.981-.647 1.386-2.474 3.427-4.305 4.901-6.642.193-.307.253-.561.253-.917z"/><path fill="#8f513f" d="M320.472 329.906a6.6 6.6 0 0 1 1.588.054c3.155.524 6.308 3.339 8.084 5.864.108 4.151.347 8.563-1.43 12.421-2.377.074-4.761.028-7.139.094-1.464.04-3.004.247-4.462.175-1.557-.077-2.073-1.284-3.029-2.336-.625-.687-1.45-1.19-2.406-1.194-2.033-.006-3.939 1.767-5.271 3.133-1.266.086-2.538.188-3.806.226-1.338.04-2.62.168-3.656-.793.022-.27.014-.671.114-.917.557-1.374 2.693-.541 3.756-1.102.345-.683.036-1.156.102-1.885.042-.457.229-.805.619-1.069 1.787-1.204 4.848.082 6.804.356 1.16.164 2.556.156 3.524-.607.581-.456 1.157-1.384 1.147-2.147-.018-1.402-2.826-2.989-3.803-4-.713-.739-1.326-1.47-1.308-2.542.172-.429.334-.653.745-.887 2.762-1.581 8.276 2.415 11.053 3.048.596.137.959.127 1.47-.21-.14-1.244-2.658-2.153-3.524-3.087-.45-.484-.466-.847-.426-1.482.284-.589.715-.793 1.254-1.113"/><path fill="#2a2f35" d="M262.187 320.883c3.198-.086 6.481-.066 9.676.106.521 2.217.465 4.601.593 6.866.21 3.748.435 7.467.479 11.225-1.485-.15-2.993-.168-4.481-.228-.813-6.913-2.017-12.201-6.267-17.969"/><path fill="#000" d="M198.057 304.736c.12.012.24.028.36.038 1.992.17 4.359-.619 6.39-.77 7.175-.526 13.338 1.463 19.626 4.688.124.634.228 1.249.286 1.894.046.521.159 1.274.579 1.649 1.771 1.58 15.602 1.32 18.336.837.505 1.296.146 2.588.448 3.926.667 2.97 1.613 5.883 2.266 8.857 1.144 5.214 1.498 10.801 1.206 16.121-.092 1.656-.098 3.739-.787 5.27-.263.578-.615 1.105-1.244 1.313-2.023.669-10.678 1.154-13.09 1.082-1.182-1.526-2.626-3.169-4.657-3.465-.895-.13-1.815.194-2.526.733-.831.631-1.524 1.765-2.391 2.279-1.497.89-7.642 1.148-9.575 1.078-1.003-1.825-2.149-3.533-4.266-4.17-1.034-.313-2.117-.233-3.059.31-1.268.731-1.829 1.935-2.383 3.225-2.348.102-6.595.915-8.387-.751-1.103-1.026-2.491-2.973-4.104-3.131-.723-.07-1.335.373-1.808.862-.874.903-1.187 1.999-1.665 3.128-4.816.183-9.541.046-14.357-.1q-.135-.2-.265-.405a18 18 0 0 1-.499-.827q-.12-.21-.235-.422a22 22 0 0 1-.436-.862 19 19 0 0 1-.896-2.243q-.075-.23-.145-.461l-.134-.464a25 25 0 0 1-.122-.467 23 23 0 0 1-.208-.946 18 18 0 0 1-.161-.951 19 19 0 0 1-.151-1.442 19 19 0 0 1-.032-1.933q.007-.24.022-.483a20 20 0 0 1 .209-1.921 18 18 0 0 1 .177-.949c.842-4.178 2.935-7.912 6.541-10.282 4.724-3.104 9.778-2.96 15.174-2.231.937-.593 1.799-1.128 2.849-1.5l.928-.797.374-.409.565-.779.691-1.687c.821-.186 2.024-.595 2.828-.26.242-.285.366-.451.462-.821.615-2.376 1.795-1.919 3.069-3.558-1.18-.054-2.163-.218-3.141.603l-1.186-.21-2.041-.21c-.883-3.029-.334-5.062.565-7.986"/><path fill="#556778" d="m203.86 312.54 1.749.443 1.144.591c5.27 1.57 8.849 4.36 12.364 8.554l1.014 1.419c1.105 1.572 3.269 4.354 2.954 6.393-.056.361-.16.669-.292 1.004-.377.064-.757.146-1.138.188-.549-.28-.571-.341-1.166-.218a3 3 0 0 0-.152.134 3 3 0 0 0-.138.148 2.6 2.6 0 0 0-.232.333 2 2 0 0 0-.167.368 2.3 2.3 0 0 0-.096.393c-.01.056.004.114.006.172-.158.142-.264.246-.444.373-.413.288-.86.33-1.342.246-2.316-.403-4.483-3.728-5.721-5.532-.641.819-1.398 1.073-2.414 1.203a7 7 0 0 1-.679.042c.134 1.03.078 1.787-.19 2.785-.292.687-.769 1.007-1.464 1.27-.745.28-1.851.188-2.564-.167-.457-.226-.897-.551-1.312-.851-1.973-1.676-3.013-4.018-4.568-6.035-.891-1.156-2.247-2.093-3.344-3.055-.689-.605-.664-1.023-.725-1.89l.928-.798.374-.408.565-.779.691-1.687c.821-.186 2.024-.595 2.828-.26.242-.285.367-.451.463-.822.615-2.375 1.794-1.918 3.068-3.557"/><path fill="#73899d" d="M206.753 313.574c5.27 1.571 8.849 4.361 12.364 8.555l1.014 1.418c1.105 1.573 3.269 4.355 2.954 6.394-.056.361-.16.669-.292 1.003-.405-.414-.779-.853-1.182-1.267-1.066-1.102-2.474-.956-3.882-.972-4.058-2.361-5.849-7.599-11.357-10.656a6.3 6.3 0 0 0 .685-1.3c.425-1.168.216-2.089-.304-3.175m-10.508 6.071c1.747-.522 2.861-.058 4.425.78 2.563 1.37 7.106 5.007 8.072 7.811l.368.559c.134 1.03.078 1.787-.19 2.784-.292.687-.769 1.008-1.464 1.27-.745.281-1.851.189-2.564-.166-.457-.226-.897-.551-1.312-.851-1.973-1.677-3.013-4.018-4.568-6.035-.891-1.156-2.247-2.093-3.344-3.055-.689-.605-.664-1.023-.725-1.891l.928-.797z"/><path fill="#556778" d="M195.871 320.053c4.027 1.15 7.557 8.615 11.735 10.717.473.238.905.468 1.314.809-.292.687-.769 1.007-1.464 1.27-.745.28-1.851.188-2.564-.167-.457-.226-.897-.55-1.312-.851-1.973-1.676-3.013-4.018-4.568-6.035-.891-1.156-2.247-2.093-3.344-3.055-.689-.604-.664-1.023-.725-1.89z"/><path fill="#000" d="M197.501 317.179c.821-.186 2.024-.595 2.828-.26l.317.444c.807.93 1.648 1.348 2.872 1.433.669.046 1.262-.029 1.915-.169 3.177 2.374 4.873 5.523 6.77 8.922-.641.819-1.398 1.073-2.414 1.204a7 7 0 0 1-.679.042l-.368-.559c-.966-2.804-5.509-6.442-8.072-7.812-1.564-.837-2.678-1.302-4.425-.779l.565-.779z"/><path fill="#2a2f35" d="M196.81 318.866c.614.19.784.292 1.422.13.39-.467.626-.983 1.237-1.092l.236.285c.612.729 1.055 1.262 1.978 1.584.086.03.17.064.256.094 1.06.361 2.26.391 3.368.485 1.103 1.452 4.516 5.176 4.534 6.86-.436.325-.817.549-1.099 1.024-.966-2.804-5.509-6.442-8.072-7.812-1.564-.837-2.678-1.302-4.425-.779z"/><path fill="#73899d" d="m203.86 312.54 1.749.443c-.172 1.109-.276 2.902-1.218 3.647-.819.647-1.915.655-2.9.637a3 3 0 0 0-.845.096l-.317-.444c.242-.285.367-.451.463-.822.615-2.375 1.794-1.918 3.068-3.557"/><path fill="#2a2f35" d="M226 316.449c3.213.137 6.496.209 9.71.231 1.413.008 2.971-.309 4.355-.106.851.124 1.586.408 2.233.975l.175.415c-.273.468-.601.578-1.116.699-3.151.725-10.812-.046-12.663 2.694-2.079 3.08-2.296 13.847-1.783 17.748q-8.61.303-17.226.425c-2.848.038-5.776.202-8.619.034a42 42 0 0 0-1.823-6.828c1.289-.225 3.179-.329 4.337-.906.415.301.855.625 1.312.852.713.354 1.819.446 2.564.166.695-.262 1.172-.583 1.464-1.27.269-.997.325-1.755.19-2.784a7 7 0 0 0 .679-.042c1.016-.13 1.773-.385 2.414-1.204 1.238 1.805 3.405 5.13 5.721 5.532.482.084.929.042 1.342-.246.18-.126.286-.23.444-.373-.002-.058-.016-.116-.006-.172a2.2 2.2 0 0 1 .263-.761 3 3 0 0 1 .232-.332q.066-.077.138-.149.074-.07.153-.134c.594-.122.616-.062 1.165.218.381-.042.761-.124 1.138-.188.132-.334.236-.643.292-1.003.315-2.039-1.848-4.822-2.954-6.394 2.466-1.376 4.535-4.691 5.869-7.097"/><path fill="#fefefe" d="M219.711 332.463c-.002-.058-.016-.117-.006-.173a2 2 0 0 1 .096-.392q.032-.096.074-.188.042-.093.092-.181t.11-.172a3 3 0 0 1 .122-.16q.067-.076.139-.148.074-.07.152-.135c.595-.122.617-.062 1.166.219.843 1.167 2.347 2.872 2.057 4.43-.066.353-.166.375-.407.613-.755-.028-1.358-.368-1.855-.949-.675-.791-1.227-1.855-1.74-2.764"/><path fill="#2a2f35" d="M199.534 312.933c-.365-1.426-1.297-3.806-.462-5.156.651-1.049 2.108-1.372 3.238-1.516 6.384-.807 15.337.763 20.695 4.453.415 1.36.868 2.6 1.523 3.864-.151 2.575-3.714 5.736-5.411 7.551-3.515-4.194-7.094-6.985-12.364-8.555l-1.144-.591-1.749-.443c-1.179-.054-2.163-.218-3.14.603z"/><path fill="#8f513f" d="M180.33 324.481c3.351-.252 6.428.91 9.033 2.977 1.124.891 2.836 2.357 2.869 3.912.011.5-.081.967-.463 1.324-2.096 1.947-5.501-2.342-7.663-2.492l-.333.336c.014 1.569 1.883 2.865 2.888 3.884 1.202 1.224 2.683 2.991 2.585 4.802-.067 1.219-.963 2.257-1.847 3.016-1.249 1.074-2.766 1.37-4.38 1.276-5.041-2.117-2.516-4.447-4.038-7.065-.242-.418-.569-.803-1.079-.865-.585-.072-.938.11-1.41.397-1.205 2.051 2.089 4.182 1.881 6.405-.276.395-.442.577-.935.675-1.045.209-2.33-.098-3.231-.639-1.177-.707-1.89-1.949-2.165-3.271-.7-3.373.122-7.871 2.02-10.754 1.623-2.463 3.48-3.351 6.268-3.918"/><path fill="#2a2f35" d="M236.506 321.419a48 48 0 0 1 4.755-.076c-2.266 3.697-4.491 7.399-5.975 11.497-.573 1.58-1.076 4.667-1.659 5.827-.146.292-.382.254-.677.334-1.472.092-2.966.078-4.442.106-.01-3.433-.02-14.183 2.091-16.462 1.186-1.28 4.248-1.122 5.907-1.226m-42.547.835c1.765 3.141 5.281 4.972 6.967 8.265-.453.438-.956.484-1.552.64l-.035.008c-.323.012-.482.105-.699-.164-.76-.949-1.134-2.251-1.782-3.285-1.024-1.632-2.844-3.118-4.274-4.414.286-.543.857-.763 1.375-1.05"/><path fill="#9e9c9c" d="M135.763 276.771c.611.925 3.719 5.8 3.694 6.594l-.335.558.043.107c-1.583 1.944-3.294 4.911-6.008 5.273-1.146.155-2.325-.348-3.195-1.069-.271-.224-.493-.481-.72-.747-.387.581-.618.907-.476 1.642.49 2.544 3.292 3.88 5.163 5.274-.335 2.059-1.476 8.413-2.997 9.639-.531.072-.785.064-1.226-.279-2.294-1.778-3.719-4.2-7.076-4.048-1.684.076-3.162.912-4.397 2.009l-.13.303c-.426.244-.492.256-.984.242-.318-.228-.489-.425-.635-.783-.505-1.244-.526-2.854-.537-4.187-.047-5.548 1.154-10.551 3.377-15.623 2.351-1.727 4.786-3.069 7.463-4.22.953.012 1.847 0 2.794-.155l.756-.314c1.92.419 3.534.415 5.426-.216"/><path fill="#beb8b7" d="M118.233 301.725c.353-.689.82-1.262 1.125-1.989 2.445-5.831 2.167-9.266 7.068-14.325.786-.814 1.696-1.777 2.699-2.31.88.929-.39 2.854.059 4.22l.059.167c-.387.581-.618.907-.476 1.642.49 2.544 3.292 3.88 5.162 5.274-.335 2.059-1.476 8.413-2.996 9.639-.531.072-.785.064-1.227-.279-2.293-1.779-3.719-4.2-7.075-4.048-1.685.076-3.163.911-4.398 2.009"/><path fill="#9e9c9c" d="M142.324 288.222c.106.048.205.116.318.144 2.828.703 9.389-2.207 11.961-3.485-.178 1.374-.725 7.491-1.063 8.316.153 1.379.277 2.779.607 4.129.281 1.145.863 2.383.953 3.549.04.531-.079.986-.421 1.402-.874 1.066-8.045 2.826-9.542 2.83-.448.002-.824-.066-1.164-.384-1.088-1.02-.539-2.911-1.932-3.708-.636.579-1.77 1.284-2.672 1.168-.484-.062-.825-.387-1.086-.773-.928-1.372-.707-3.992-.377-5.571.554-2.65 2.071-6.109 4.418-7.617"/><path fill="#beb8b7" d="M146.451 292.246c-.23 1.197-.793 2.988-.384 4.154.26.21.347.36.699.385 1.864.128 5.308-2.454 6.774-3.586.153 1.378.277 2.778.607 4.128.281 1.146.863 2.384.952 3.55.041.53-.078.985-.42 1.402-.874 1.065-8.045 2.826-9.542 2.83-.448.002-.825-.066-1.164-.385-1.088-1.019-.539-2.91-1.932-3.707.01-.036.01-.078.029-.11.136-.245.326-.497.479-.733 1.776-2.749 1.227-5.008 3.902-7.928"/><path fill="#73899d" d="M200.72 313.143c.977-.821 1.96-.657 3.14-.603-1.274 1.639-2.453 1.182-3.068 3.557-.097.371-.221.537-.463.822-.804-.335-2.007.074-2.828.26q-.097.014-.195.034c-2.401.491-6.979 4.256-9.321 2.64-.514-.354-.686-1.076-.673-1.662.002-.069.018-.135.027-.201l-.127-.032c-.669.142-1.509.403-2.186.184-.524-.17-.649-.394-.938-.823.013-.513.054-.795.386-1.208.704-.875 1.959-.825 2.977-.895l.07-.152q.063-.122.125-.249c.167-.338.326-.683.59-.959 1.96-2.051 6.692-1.19 9.256-1.134l2.042.211z"/><path fill="#556778" d="M200.72 313.143c.977-.821 1.961-.657 3.14-.603-1.274 1.639-2.453 1.182-3.068 3.557-.096.371-.221.537-.463.822-.804-.335-2.007.074-2.828.26q-.097.014-.195.034c-2.401.491-6.979 4.256-9.321 2.64-.514-.354-.686-1.076-.673-1.662.002-.069.018-.135.027-.201.869-.352 1.654-.172 2.555-.058 3.87-2.097 5.657-3.227 10.239-3.143z"/><path fill="#fefefe" d="M187.212 317.958c-.669.142-1.509.402-2.186.184-.524-.17-.649-.395-.938-.823.013-.513.054-.796.386-1.208.704-.875 1.959-.825 2.977-.895zm127.847-2.396c1.148.032 2.626-.11 3.434.895.336.419.324.503.238.992-.361.354-.731.571-1.246.595-.535.022-1.09-.058-1.624-.104l-.299-.748z"/></svg>