<svg width="690" height="601" viewBox="0 0 690 601" fill="none" xmlns="http://www.w3.org/2000/svg">
<path d="M690 265.19V559.94C690 582.11 671.93 600.09 649.65 600.09H40.35C18.06 600.09 0 582.12 0 559.94V265.19C0 251.63 6.78 239.67 17.12 232.4H17.11L17.61 232C44.26 252.86 86.15 285.4 148.95 333.64C149.17 333.81 149.39 333.98 149.61 334.14C158.16 340.71 167.42 347.83 176.95 355.15C186.88 362.77 197.1 370.62 207.09 378.29C209.8 380.37 212.48 382.43 215.15 384.48C223.14 390.61 230.88 396.56 238.11 402.11C241.72 404.89 245.21 407.57 248.53 410.11C249.64 410.96 250.73 411.8 251.79 412.62C253.93 414.26 255.99 415.84 257.97 417.36C259.94 418.87 261.82 420.32 263.61 421.69C265.39 423.06 267.08 424.36 268.66 425.57C276.5 431.59 281.66 435.55 282.89 436.5C282.9 436.5 282.92 436.52 282.93 436.52C282.93 436.52 282.93 436.53 282.94 436.53C283.47 436.94 283.99 437.34 284.52 437.75C285.57 438.57 286.61 439.4 287.65 440.23C288.68 441.06 289.72 441.9 290.74 442.73C304.12 453.52 317.45 463.89 343.61 464.64C344.62 464.67 345.64 464.69 346.69 464.69C348.19 464.69 349.69 464.63 351.19 464.55C363.33 463.96 373.07 461.05 381.26 457.01C383.89 455.72 386.36 454.32 388.71 452.84C389.89 452.1 391.03 451.35 392.15 450.58C393.83 449.43 395.45 448.25 397.02 447.05C401.73 443.48 406.03 439.82 410.26 436.52C412.11 435.09 416.16 431.94 421.8 427.56C423.76 426.04 425.91 424.37 428.24 422.55C431.05 420.36 434.12 417.98 437.39 415.44C442.7 411.31 448.55 406.76 454.79 401.92C457.32 399.94 459.91 397.94 462.56 395.88C464.56 394.32 466.58 392.75 468.63 391.16C469.88 390.19 471.14 389.21 472.4 388.23C477.47 384.29 482.66 380.26 487.89 376.19C489.2 375.17 490.51 374.15 491.82 373.13C494.45 371.09 497.08 369.05 499.71 367C502.34 364.96 504.96 362.92 507.58 360.89C508.03 360.53 508.48 360.18 508.94 359.83C511.9 357.53 514.84 355.25 517.74 352.99L522.24 349.49C524.64 347.62 527.02 345.77 529.37 343.95C529.76 343.65 530.15 343.35 530.53 343.04C533.2 340.98 535.79 338.96 538.35 336.97C539.18 336.32 540.02 335.67 540.84 335.03C540.99 334.91 541.15 334.79 541.3 334.68C541.38 334.61 541.46 334.55 541.54 334.49C544.93 331.86 548.2 329.31 551.33 326.88C552.45 326.01 553.54 325.16 554.62 324.33C555.6 323.56 556.57 322.81 557.52 322.07C558.27 321.48 559 320.92 559.73 320.35C564.47 316.67 568.72 313.36 572.34 310.54L573.99 309.26C577.77 306.33 635.84 261.47 673.19 232.63C683.36 239.92 690 251.77 690 265.19Z" fill="#F6A654"/>
<path d="M390.62 464.69L664.81 585.7L546.35 513.47L390.63 464.69H390.62Z" fill="#CB6739"/>
<path d="M191.16 512.46C187.38 509.75 280.31 473.25 276.6 470.46L290.54 464.69L274.49 469.83C257.94 467.87 164.86 492.52 158.14 486.9C126.13 460.13 97.22 429.76 72.4 396.2C44.12 357.96 21.19 316.26 0 273.8V559.95C0 582.12 18.07 600.09 40.35 600.09H387.21C317.19 582.57 250.01 554.62 191.15 512.46H191.16Z" fill="#EE871A"/>
<path d="M11.8203 580L276.6 470.46L290.55 464.69L274.5 469.83L141.28 512.52L11.8203 580Z" fill="#CB6739"/>
<path d="M104.36 299.3L104.28 299.25C104.28 299.25 104.32 299.27 104.36 299.3Z" fill="#F6A654"/>
<path d="M381.261 456.92C376.301 460.17 370.241 462.04 363.721 462.91C370.321 461.56 376.101 459.47 381.261 456.92Z" fill="#F6A654"/>
<path d="M672.89 232.3H672.88L585.75 300.03V299.72C585.75 299.72 585.74 299.72 585.74 299.73V278.81C549.56 306.94 433.69 397 421.01 406.86C405.95 418.56 390.14 435.02 357.43 435.02C324.72 435.02 310.75 419.91 293.67 406.86C286.04 401.02 115 269.65 115 269.65L104.25 265.55V299.22L104.28 299.25C104.4 299.34 104.52 299.43 104.64 299.52C123.66 314.13 140.58 327.13 148.95 333.55C149.17 333.72 149.39 333.89 149.61 334.05C158.16 340.62 167.42 347.74 176.95 355.06C186.88 362.68 197.1 370.53 207.09 378.2C209.8 380.28 212.48 382.34 215.15 384.39C223.14 390.52 230.88 396.47 238.11 402.02C241.72 404.8 245.21 407.48 248.53 410.02C249.64 410.87 250.73 411.71 251.79 412.53C253.93 414.17 255.99 415.75 257.97 417.27C259.94 418.78 261.82 420.23 263.61 421.6C265.39 422.97 267.08 424.27 268.66 425.48C276.5 431.5 281.66 435.46 282.89 436.41C282.9 436.41 282.92 436.43 282.93 436.43C282.93 436.43 282.93 436.44 282.94 436.44C283.47 436.85 283.99 437.25 284.52 437.66C285.57 438.48 286.61 439.31 287.65 440.14C288.68 440.97 289.72 441.81 290.74 442.64C291.06 442.9 291.38 443.16 291.7 443.42C240.49 404.9 62.9204 267.93 16.9404 232.44C17.0004 232.4 17.0604 232.35 17.1204 232.31H17.1104L58.4404 200.18L71.4104 190.1L104.25 164.56L192 97L277.92 29.58L294.79 16.46C297.47 14.4 300.25 12.54 303.11 10.86C304.06 10.31 305.02 9.78 305.99 9.26C317.64 3.08 330.47 0 343.31 0C356.15 0 368.98 3.08 380.63 9.26C381.6 9.78 382.56 10.31 383.51 10.86C386.37 12.54 389.15 14.4 391.83 16.46L408.91 29.58L522 118L585.75 165.38L651.25 215.68L672.34 231.88L672.89 232.3Z" fill="#F6A654"/>
<path d="M408.911 29.58H277.921L294.791 16.46C297.471 14.4 300.251 12.54 303.111 10.86C304.061 10.31 305.021 9.78 305.991 9.26C317.641 3.08 330.471 0 343.311 0C356.151 0 368.981 3.08 380.631 9.26C381.601 9.77 382.561 10.31 383.511 10.86C386.371 12.54 389.151 14.4 391.831 16.46L408.911 29.58Z" fill="#CB6739"/>
<path d="M672.89 232.3L672.88 232.31L585.75 300.03V165.38L651.25 215.68L672.34 231.88L672.89 232.3Z" fill="#CB6739"/>
<path d="M104.25 164.57V299.22L17.1304 232.31H17.1204L17.1104 232.3L58.4403 200.18L71.4104 190.1L104.25 164.57Z" fill="#CB6739"/>
<path d="M104.36 299.3L104.28 299.25C104.28 299.25 104.32 299.27 104.36 299.3Z" fill="#CB6739"/>
<path d="M585.74 278.81V300.04C585.74 300.04 585.62 300.14 585.43 300.28L584.95 300.66C583.39 301.87 579.55 304.86 573.99 309.17L572.34 310.45C568.72 313.27 564.47 316.58 559.73 320.26C559 320.83 558.27 321.39 557.52 321.98C556.57 322.72 555.6 323.47 554.62 324.24C553.54 325.07 552.45 325.92 551.33 326.79C548.2 329.22 544.93 331.77 541.54 334.4C541.46 334.46 541.38 334.52 541.3 334.59C541.15 334.7 540.99 334.82 540.84 334.94C540.02 335.58 539.18 336.23 538.35 336.88C535.79 338.87 533.2 340.89 530.53 342.95C530.15 343.26 529.76 343.56 529.37 343.86C527.02 345.68 524.64 347.53 522.24 349.4L517.74 352.9C514.84 355.16 511.9 357.44 508.94 359.74C508.48 360.09 508.03 360.44 507.58 360.8C504.96 362.83 502.34 364.87 499.71 366.91C497.08 368.96 494.45 371 491.82 373.04C490.51 374.06 489.2 375.08 487.89 376.1C482.66 380.17 477.47 384.2 472.4 388.14C471.14 389.12 469.88 390.1 468.63 391.07C466.58 392.66 464.56 394.23 462.56 395.79C459.91 397.85 457.32 399.85 454.79 401.83C448.55 406.67 442.7 411.22 437.39 415.35C434.12 417.89 431.05 420.27 428.24 422.46C425.91 424.28 423.76 425.95 421.8 427.47C416.16 431.85 412.11 435 410.26 436.43C406.03 439.73 401.73 443.39 397.02 446.96C395.45 448.16 393.83 449.34 392.15 450.49C391.03 451.26 389.89 452.01 388.71 452.75C386.36 454.23 383.89 455.63 381.26 456.92C376.1 459.47 370.32 461.56 363.72 462.91C359.84 463.7 355.68 464.24 351.19 464.46C349.69 464.54 348.19 464.6 346.69 464.6C345.64 464.6 344.62 464.58 343.61 464.55C326.68 464.06 315.12 459.55 305.45 453.49C305.33 453.42 305.14 453.3 304.88 453.13C300.19 450.16 295.93 446.82 291.7 443.42C291.38 443.16 291.06 442.9 290.74 442.64C289.72 441.81 288.68 440.97 287.65 440.14C286.61 439.31 285.57 438.48 284.52 437.66C283.99 437.25 283.47 436.85 282.94 436.44C282.93 436.44 282.93 436.43 282.93 436.43C282.92 436.43 282.9 436.41 282.89 436.41C281.66 435.46 276.5 431.5 268.66 425.48C267.08 424.27 265.39 422.97 263.61 421.6C261.82 420.23 259.94 418.78 257.97 417.27C255.99 415.75 253.93 414.17 251.79 412.53C250.73 411.71 249.64 410.87 248.53 410.02C245.21 407.48 241.72 404.8 238.11 402.02C230.88 396.47 223.14 390.52 215.15 384.39C212.48 382.34 209.8 380.28 207.09 378.2C197.1 370.53 186.88 362.68 176.95 355.06C167.42 347.74 158.16 340.62 149.61 334.05C149.39 333.89 149.17 333.72 148.95 333.55C140.58 327.13 123.66 314.13 104.64 299.52C104.52 299.43 104.4 299.34 104.28 299.25L104.36 299.3C104.36 299.3 104.3 299.25 104.28 299.24L104.25 299.22V265.55L115 269.65C115 269.65 286.04 401.02 293.67 406.86C310.75 419.91 324.73 435.02 357.43 435.02C390.13 435.02 405.95 418.56 421.01 406.86C433.69 397 549.56 306.94 585.74 278.81Z" fill="#F6A654"/>
<path d="M104.251 265.55V299.22L17.1309 232.31L104.251 265.55Z" fill="#F6A654"/>
<path d="M104.36 299.3L104.28 299.25C104.28 299.25 104.32 299.27 104.36 299.3Z" fill="#F6A654"/>
<path d="M673 232.5L585.75 300.03V266.6L651.25 215.68L673 232.5Z" fill="#A13827"/>
<path d="M104.25 235.36V299.22L17.1304 232.31H17.1204L17.1104 232.3L58.4403 200.18L104.25 235.36Z" fill="#A13827"/>
<path d="M104.36 299.3L104.28 299.25C104.28 299.25 104.32 299.27 104.36 299.3Z" fill="#A13827"/>
</svg>
