<svg xmlns="http://www.w3.org/2000/svg" width="387" height="387" fill="none" viewBox="0 0 387 387"><g clip-path="url(#a)"><path fill="#fce0b6" d="M166.621 26.414a29 29 0 0 1 2.617-2.342q.69-.545 1.41-1.048.721-.503 1.471-.962c-2.527 5.253-5.769 16.224-4.384 21.91 3.302-.583 6.79-.669 10.138-.9.03-.267.024-.256.083-.555.221-1.123.869-1.57 1.78-2.182 6.379-2.88 15.629-3.118 22.187-.665.928.347 1.751.782 2.563 1.352.078.092.157.18.23.274.361.449.471.985.612 1.53 2.85.74 6.162.031 8.973.805a81.2 81.2 0 0 1 25.006 5.807 82 82 0 0 1 4.288 1.893 82 82 0 0 1 6.208 3.295c4.002 2.342 7.858 4.994 10.92 8.525l.111.137c9.167 9.377 15.184 22.133 17.203 35.04.473 3.034.18 5.995.558 8.762 1.969 1.968 3.597 4.387 5.207 6.654 1.373 2.23 2.488 4.32 3.251 6.851.589 1.416 1.622 4.729 1.421 6.153l-.182.233c-.722-.8-1.073-1.842-1.683-2.726-.956-1.388-2.093-2.69-3.158-3.997.21 1.971.335 3.94.449 5.918.773 6.063 2.547 11.62.52 17.7-.549 1.249-1.135 2.343-1.973 3.429a115 115 0 0 0-2.182-7.47c-2.585 8.632-5.695 17.214-8.818 25.667-1.618 4.379-3.896 11.413-6.524 15.174.502 8.559-.243 18.341-6.245 25.03-2.004 2.236-4.384 3.829-6.99 5.286q-1.657.736-3.334 1.421c-7.601 2.251-14.583 1.678-22.304 2.489-3.025 1.917-14.905 6.619-18.473 7.046l-.602.338c-.373.399-.589.521-.616 1.092-.046.971.496 2.209.714 3.163l-.1.065-.234-.073c-.241-.568-.407-1.201-.948-1.55l-.563.164c-1.022.608-2.356.876-3.512 1.129l-.789.201c-.954.156-1.952.38-2.914.461l.024-.534c-.387-.69-1.099-1.058-1.74-1.487l-.054-1.042a3 3 0 0 0-.139-.107c-1.013-.714-1.977-1.189-3.227-1.009l-.097.197c-2.907 1.15-6.144 2.117-9.277 2.409q-.098-.033-.196-.07c-4.006-1.5-2.867-2.863-8.019-1.919-2.292-.739-4.625-1.216-6.987-1.654l-.51-.066a118 118 0 0 1-3.35-.511c-2.77-.871-5.685-1.216-8.488-2.006-.637-.11-1.276-.288-1.907-.432-2.853-.375-11.949-3.307-14.013-4.977l-.97-.215c-3.53-.368-7.031-1.395-10.445-2.332-2.574-1.152-4.503-2.361-6.517-4.341-2.206-2.34-3.398-5.224-4.58-8.168l-.307-1.298c-1.675-7.439-1.397-14.732-.988-22.29-.315-1.253-4.019-5.094-5.038-6.936-6.625-11.969-7.291-21.921-7.063-35.256-1.09 1.163-2.191 2.313-3.258 3.498-.241-7.485 1.467-10.944 5.701-17.001-6.886 5.418-13.841 10.855-20.919 16.019.832-1.805 1.27-3.76 2.109-5.569 1.94-5.455 5.79-10.981 9.496-15.411 1.25-1.493 2.639-2.842 3.884-4.343.596-.812 1.633-2.495 2.639-2.735.072-.017.149-.011.222-.027.116-.025.228-.062.342-.094-1.484-3.656 4.574-20.653 6.378-24.945 4.321-10.283 10.964-19.824 19.797-26.725 2.184-1.706 4.581-3.413 7.161-4.465q.405-4.495 1.126-8.95c.167-1.393.468-2.759.656-4.147q2.058 5.4 4.049 10.823c.683-.2 1.357-.363 1.963-.75.455-5.17 3.587-11.31 6.043-15.912a82 82 0 0 1 5.442-8.867c-1.029 6.668-2.304 15.737-1.956 22.363l.966.015.285-.29a38 38 0 0 1 .687-2.65 40 40 0 0 1 .872-2.595q.24-.642.504-1.273a38 38 0 0 1 1.776-3.701 39 39 0 0 1 2.157-3.493 39 39 0 0 1 3.426-4.267q.465-.503.948-.988"/><path fill="#5f270d" d="M166.621 26.414a29 29 0 0 1 2.617-2.342q.69-.545 1.41-1.048.721-.503 1.471-.962c-2.527 5.253-5.769 16.224-4.384 21.91 3.302-.583 6.79-.669 10.138-.9.03-.267.024-.256.083-.555.221-1.123.869-1.57 1.78-2.182 6.379-2.88 15.629-3.118 22.187-.665.928.347 1.751.782 2.563 1.352.078.092.157.18.23.274.361.449.471.985.612 1.53 2.85.74 6.162.031 8.973.805a81.2 81.2 0 0 1 25.006 5.807 82 82 0 0 1 4.288 1.893 82 82 0 0 1 6.208 3.295c4.002 2.342 7.858 4.994 10.92 8.525l.111.137c9.167 9.377 15.184 22.133 17.203 35.04.473 3.034.18 5.995.558 8.762-.199 1.031-.372 2.068-.679 3.074-.626.597-1.772 1.892-2.661 1.809-.032-.003-.061-.024-.092-.037-1.257 1.401-1.94 2.021-3.881 2.185l.34.237c-.558 1.017-5.853 2.691-7.15 3.065-1.305.376-7.499 1.323-7.968 1.685-.297-.142-.438-.147-.77-.126-3.977.251-7.967.756-11.94 1.095q-13.03 1.112-26.074 2.032c-5.575.393-11.193.853-16.78.97-12.787.268-25.781-.398-38.542-1.246-4.703-.312-9.429-.654-14.112-1.181-2.39-.269-5.098-.933-7.474-.918a129 129 0 0 1-9.829-2.006 64 64 0 0 0-2.661-.693c-5.345-1.795-10.558-3.538-15.714-5.849-1.876-.841-6.62-3.838-8.267-3.955-1.484-3.656 4.574-20.653 6.378-24.945 4.321-10.283 10.964-19.824 19.797-26.725 2.184-1.706 4.581-3.413 7.161-4.465q.405-4.495 1.126-8.95c.167-1.393.468-2.759.656-4.147q2.058 5.4 4.049 10.823c.683-.2 1.357-.363 1.963-.75.455-5.17 3.587-11.31 6.043-15.912a82 82 0 0 1 5.442-8.867c-1.029 6.668-2.304 15.737-1.956 22.363l.966.015.285-.29a38 38 0 0 1 .687-2.65 37 37 0 0 1 .872-2.595q.24-.642.504-1.273a38 38 0 0 1 1.776-3.701 39 39 0 0 1 2.157-3.493 39 39 0 0 1 3.426-4.267q.465-.503.948-.988"/><path fill="#8f2e01" d="M154.793 104.576c-.219-6.567 1.445-13.3 3.722-19.434 1.611-4.338 3.529-8.14 6.119-11.98 2.724-4.036 6.069-7.535 9.315-11.142 5.623-6.248 9.375-10.68 16.253-15.715 1.347-.987 2.749-2.119 4.284-2.791 1.991-.871 3.444-.401 5.356.38 4.042 1.649 8.218 4.627 11.457 7.553 6.184 5.585 11.365 12.593 16.599 19.062 3.363 4.156 7.143 8.348 9.915 12.927 3.008 4.967 5.334 10.627 7.577 15.978-.135.652-.293 1.303-.37 1.964-2.755.597-5.746.76-8.554 1.071-6.319.7-12.705 1.354-19.057 1.638q.003-.47-.002-.941c-.04-4.108-1.432-8.2-4.442-11.1-4.399-4.24-10.492-4.332-16.208-4.227-5.729.106-14.594 1.272-18.715 5.71-2.816 3.035-3.939 7.823-3.772 11.849-6.49.033-13.005-.363-19.477-.802m11.828-78.162a29 29 0 0 1 2.617-2.342q.69-.545 1.41-1.048.721-.503 1.471-.962c-2.527 5.253-5.768 16.224-4.384 21.91 3.302-.583 6.791-.669 10.138-.9.515-.027 1.3-.164 1.769.014-5.655 4.706-10.026 8.763-15.233 13.947-2.127 2.117-4.356 3.993-6.156 6.425-4.527 6.117-8.129 14.064-11.234 21.012-1.418 3.171-2.22 6.645-3.701 9.761-2.598 1.885-4.975 2.974-8.274 2.447-2.57-.411-6.38-1.32-7.919-3.593-1.358-2.003-2.533-6.947-2.566-9.4-.017-1.206.182-2.401.443-3.576 1.728-7.8 6.946-16.568 12.459-22.379-.036-2.219.091-4.42.216-6.634q.405-4.495 1.127-8.95c.166-1.393.467-2.759.655-4.147q2.058 5.4 4.049 10.823c.683-.2 1.357-.363 1.963-.75.455-5.17 3.587-11.31 6.043-15.912a82 82 0 0 1 5.442-8.867c-1.029 6.668-2.304 15.737-1.956 22.363l.966.015.285-.29a38 38 0 0 1 .687-2.65 40 40 0 0 1 .872-2.595q.24-.642.504-1.273.263-.633.548-1.255a40 40 0 0 1 1.228-2.446 39 39 0 0 1 2.157-3.493 39 39 0 0 1 3.426-4.267q.465-.503.948-.988"/><path fill="#4d2b10" d="M166.621 26.414a29.4 29.4 0 0 1 4.028-3.39q.72-.503 1.47-.962c-2.526 5.253-5.768 16.224-4.383 21.91a16.8 16.8 0 0 0 1.166 4.444c-5.14 2.653-9.763 5.685-14.186 9.419-1.703 1.438-3.19 3.41-5.023 4.636-1.995 1.333-4.502 2.123-6.708 3.062-3.403 1.45-6.78 2.99-10.222 4.343l-.382.04-.137-.388c1.044-2.053 4.301-4.665 6.042-6.36-.456-1.802-.654-3.59-.824-5.438-.037-2.219.091-4.42.216-6.634q.405-4.495 1.126-8.95c.167-1.393.468-2.759.656-4.147q2.057 5.4 4.049 10.823c.683-.2 1.356-.363 1.962-.75.456-5.17 3.587-11.31 6.044-15.912a82 82 0 0 1 5.441-8.867c-1.029 6.668-2.304 15.737-1.956 22.363l.967.015.284-.29a40 40 0 0 1 .687-2.65q.195-.657.414-1.306a39 39 0 0 1 .963-2.562 38 38 0 0 1 1.776-3.701 39 39 0 0 1 2.157-3.493 39 39 0 0 1 2.513-3.247 39 39 0 0 1 1.86-2.008"/><path fill="#734c2e" d="M151.515 32.159c.048 3.467-.982 7.162-1.323 10.636-.458 4.684-.315 9.434-.324 14.135-2.577 1.88-5.093 3.843-7.674 5.714-2.475 1.795-7.591 4.908-9.431 7.231l-.382.04-.137-.387c1.044-2.055 4.301-4.666 6.042-6.361-.456-1.802-.654-3.59-.824-5.438-.037-2.219.091-4.42.216-6.634q.405-4.494 1.126-8.95c.167-1.393.468-2.759.656-4.147q2.057 5.4 4.049 10.823c.683-.2 1.356-.363 1.962-.75.456-5.17 3.587-11.31 6.044-15.912"/><path fill="#4d2b10" d="M139.459 38q2.058 5.398 4.049 10.822c.684-.2 1.357-.363 1.963-.75l.055 1.231c.066 2.593-.252 5.25-.423 7.84-.817-1.675-1.875-3.26-2.736-4.92-1.634-3.15-2.749-6.63-3.563-10.077.167-1.393.467-2.759.655-4.147"/><path fill="#5f270d" d="M143.509 48.822c.683-.2 1.357-.362 1.962-.75l.056 1.231c-.284.787-.363 1.61-.781 2.348-.553-.489-.962-2.094-1.237-2.829"/><path fill="#734c2e" d="M166.621 26.413c-.106 1.605-.967 3.457-1.394 5.046-1.528 5.691-3.342 11.361-4.123 17.217-1.411 1.218-2.904 2.428-4.49 3.41q-.105-3.356-.363-6.706a40 40 0 0 1 .687-2.65 40 40 0 0 1 .872-2.595q.242-.64.504-1.273a41 41 0 0 1 1.141-2.488 40 40 0 0 1 2.033-3.567q.37-.576.76-1.139a39 39 0 0 1 1.637-2.194 39 39 0 0 1 2.736-3.06"/><path fill="#8f2e01" d="m155 45.656.966.015c.035.095.083.186.105.285.104.47-.097 1.075-.34 1.461l-.315-.01c-.369-.526-.357-1.13-.416-1.75"/><path fill="#383210" d="M260.834 63.288c9.166 9.377 15.184 22.134 17.203 35.04.473 3.035.18 5.995.558 8.762-.199 1.032-.372 2.068-.679 3.074-.626.597-1.773 1.892-2.661 1.81-.032-.003-.061-.025-.092-.037-1.257 1.401-1.94 2.02-3.881 2.184-2.679-.572-4.569-2.516-7.146-3.179-1.67.467-3.371 1.014-5.08 1.309-7.789 1.346-6.43-4.279-9.853-6.654l-.216-.148c-.888-.219-2.072-.725-2.765-1.323-.928-.801-1.123-1.561-1.202-2.747.077-.662.235-1.312.37-1.964 2.361-5.543 6.547-5.347 9.035-9.65a8.4 8.4 0 0 0 .261-1.759c.266-1.502.671-2.91 2.021-3.813.795-.53 1.737-.677 2.662-.45 1.46.357 2.265 1.356 3.095 2.526 1.154.52 2.268 1.033 3.343 1.708.033-.061.072-.12.101-.184.61-1.383.338-3.502.212-4.977-.695-8.126-2.276-12.152-5.286-19.528"/><path fill="#574a1d" d="M254.425 89.765c.793-.786 1.494-1.064 2.622-1.069 3.502-.014 5.687 3.59 8.413 5.204 1.307.775 3.069.89 4.185 1.98 1.282 1.254 1.605 4.879 1.537 6.627-.048 1.27-.207 3.551-1.18 4.446-.573.528-1.243.508-1.974.444-1.9-.167-3.701-.853-5.624-.597-2.045.272-4.108 1.635-6.189 1.143-3.317-.785-2.22-3.015-7.228-2.494-.888-.219-2.072-.725-2.765-1.323-.928-.801-1.123-1.56-1.202-2.747.077-.662.235-1.312.37-1.964 2.361-5.543 6.547-5.347 9.035-9.65"/><path fill="#5f270d" d="M260.835 63.288c9.166 9.377 15.184 22.134 17.203 35.04.473 3.035.179 5.995.558 8.762-.199 1.032-.373 2.068-.68 3.074-.625.597-1.772 1.892-2.66 1.81-.033-.003-.062-.025-.093-.037l.139-.233q.107-.179.209-.362.102-.182.201-.367a16 16 0 0 0 .546-1.129q.083-.192.162-.385.079-.194.155-.389a23 23 0 0 0 .277-.789 17 17 0 0 0 .344-1.206l.095-.407a19 19 0 0 0 .32-2.065 14 14 0 0 0 .056-.834 15 15 0 0 0 .016-.836l-.008-.418q-.006-.209-.017-.418a20 20 0 0 0-.116-1.249 15 15 0 0 0-.13-.826 19 19 0 0 0-.268-1.225c-.902-3.41-3.012-6.965-6.295-8.523-1.543-.733-3.311-1.241-4.761-2.125q-.142-.086-.28-.174c.033-.061.071-.12.1-.184.61-1.383.338-3.502.213-4.977-.695-8.126-2.276-12.152-5.286-19.528"/><path fill="#8f2e01" d="M214.301 43.63a81.2 81.2 0 0 1 25.006 5.808 82 82 0 0 1 4.288 1.893 82 82 0 0 1 6.208 3.295c4.002 2.342 7.858 4.994 10.919 8.524l.112.137c3.01 7.376 4.591 11.403 5.286 19.529.126 1.475.398 3.593-.212 4.977-.029.063-.068.122-.101.183-1.075-.674-2.189-1.189-3.343-1.708-.83-1.17-1.635-2.168-3.095-2.526-.925-.226-1.867-.08-2.662.45-1.35.903-1.755 2.312-2.021 3.814-.971-1.641-1.435-3.56-2.458-5.204-1.735-2.784-3.793-5.41-5.805-7.997-2.801-3.605-5.616-7.24-8.682-10.626-1.926-2.128-4.007-4.096-6.011-6.15-2.083-2.135-4.118-4.404-6.369-6.36-2.326-2.023-4.873-3.612-7.467-5.253-1.259-.794-2.968-1.626-3.993-2.673zm-34.566-3.296c6.38-2.88 15.629-3.117 22.187-.664a11.2 11.2 0 0 1 2.564 1.352l-1.39.13c-4.085.403-18.517.837-22.016-.002-.519-.124-.94-.485-1.345-.816"/><path fill="#4d2b10" d="M177.801 103.492v-.293c.009-3.265.809-6.224 3.214-8.582 4.394-4.31 11.944-4.56 17.736-4.525 3.863.023 9.869.33 12.707 3.407 1.774 1.924 2.608 7.203 2.52 9.787.353 1.099.405 5.915.015 6.918 8.191-.8 16.402-1.324 24.585-2.219 1.657-.181 9.448-1.411 10.336-1.032l.29.36c-.498.954-2.29 1.332-3.272 1.643-5.265 1.669-10.676 2.841-16.078 3.966-5.535 1.153-11.071 2.261-16.699 2.876-3.973.434-7.967.344-11.954.48-2.957.102-5.921.409-8.879.416-2.599.006-5.203-.17-7.802-.238-6.752-.175-13.443-.406-20.186-.82-3.994-.245-8.076-.313-12.049-.739-3.014-.324-7.922-.85-10.538-2.222-2.397-1.256-4.104-3.307-5.426-5.623 3.376.652 6.833 1.571 10.239 2.005 9.562 1.216 19.144 1.261 28.722 2.033 1.582.128 3.116.511 4.679.666-1.465-2.291-1.894-5.62-2.16-8.264"/><path fill="#8f2e01" d="M213.993 110.206c8.191-.801 16.402-1.324 24.585-2.22 1.657-.181 9.448-1.411 10.336-1.031l.29.359c-.498.954-2.29 1.332-3.272 1.644-5.265 1.669-10.676 2.84-16.078 3.965-5.535 1.153-11.071 2.261-16.699 2.876-3.973.435-7.967.344-11.954.481-2.957.101-5.921.408-8.879.415-2.599.006-5.203-.17-7.802-.238-6.752-.175-13.443-.406-20.186-.82-3.994-.245-8.076-.313-12.049-.739-3.014-.324-7.922-.85-10.538-2.221-2.397-1.257-4.104-3.308-5.426-5.624 3.376.652 6.833 1.572 10.239 2.005 9.562 1.216 19.144 1.262 28.722 2.034 1.582.127 3.116.51 4.679.666 2.297.172 4.54.605 6.863.702 8.379.35 18.958-.685 27.169-2.254"/><path fill="#734c2e" d="M177.801 103.492v-.293c.008-3.265.809-6.224 3.214-8.582 4.394-4.31 11.944-4.56 17.736-4.525 3.863.023 9.869.33 12.707 3.407 1.774 1.924 2.608 7.203 2.519 9.787-8.166-3.355-17.114-5.608-25.886-3.066-3.43.993-6.783 2.588-10.29 3.272"/><path fill="#cb948a" d="M104.341 107.232c1.647.117 6.391 3.113 8.267 3.954 5.156 2.312 10.369 4.055 15.714 5.849a64 64 0 0 1 2.661.693q4.875 1.195 9.829 2.007c2.376-.016 5.084.649 7.474.918 4.683.527 9.409.868 14.112 1.181 12.761.848 25.755 1.514 38.542 1.246 5.587-.118 11.205-.578 16.78-.97q13.045-.92 26.074-2.032c3.973-.34 7.963-.844 11.94-1.095.332-.021.473-.016.77.126.469-.362 6.663-1.309 7.968-1.685 1.297-.374 6.592-2.049 7.15-3.065l-.34-.238c1.941-.163 2.624-.783 3.881-2.184.031.012.06.034.093.037.888.083 2.034-1.212 2.66-1.81.307-1.005.48-2.042.679-3.073 1.969 1.968 3.597 4.387 5.207 6.654 1.373 2.23 2.488 4.319 3.251 6.85.589 1.416 1.622 4.73 1.421 6.153l-.182.234c-.722-.8-1.073-1.842-1.683-2.726-.956-1.388-2.093-2.69-3.158-3.997.21 1.971.335 3.939.449 5.918.773 6.063 2.547 11.62.52 17.7-.549 1.249-1.135 2.343-1.973 3.429a115 115 0 0 0-2.182-7.471c-2.585 8.633-5.695 17.215-8.818 25.667-1.618 4.379-3.896 11.414-6.524 15.175.502 8.559-.243 18.341-6.245 25.03-2.004 2.236-4.384 3.828-6.99 5.286q-1.657.735-3.334 1.421c-7.601 2.251-14.583 1.677-22.304 2.488-3.025 1.917-14.905 6.62-18.473 7.047l-.602.337c-.373.4-.589.522-.616 1.093-.046.971.496 2.209.714 3.162l-.1.066-.234-.073c-.241-.568-.407-1.201-.948-1.551l-.563.164c-1.022.609-2.356.877-3.512 1.13l-.789.201c-.954.156-1.952.38-2.914.461l.024-.535c-.387-.689-1.099-1.058-1.74-1.486l-.054-1.043q-.07-.055-.139-.106c-1.013-.714-1.977-1.189-3.227-1.01.826-1.681 1.084-2.998 1.08-4.857-.206-1.054-.511-1.888-.99-2.843-3.75-.222-7.603.127-11.324-.321 1.783-.152 3.655.037 5.453-.011 2.567-.072 5.116-.234 7.686-.228 7.212.019 14.405.386 21.622.125 4.303-.154 8.486-.834 12.729-1.513 7.105-1.139 17.889-2.421 22.95-7.915 2.228-2.419 6.684-8.308 6.535-11.769.209-.693.632-1.31.848-1.997.152-.481.075-.701-.122-1.149 2.193-4.582-.315-37.108.006-44.631-2.371 2.059-4.753 3.401-7.728 4.399.404-2.972 1.114-5.893 1.519-8.863.885-6.466.396-12.098-.368-18.524-6.051.263-12.107 1.069-18.138 1.573-3.121.26-6.27.168-9.401.385-7.95.552-15.929 1.318-23.889 1.62-7.334.279-14.738.407-22.065.012-5.638-.303-11.237-.991-16.863-1.417-6.81-.517-13.666-.827-20.448-1.631-1.295 1.984-5.618 7.145-5.629 9.282l-2.166 3.12c-2.294-3.151-3.285-7.246-4.262-10.96-2.295 7.455-3.982 15.698-3.94 23.517-2.649-1.592-3.506-1.82-4.968-4.676-.07 3.195-.036 6.415-.199 9.605-.101 1.979-.393 3.937-.524 5.911-.127 1.915-.039 3.839-.137 5.756-.402 7.865-1.179 15.639-.104 23.489.143 1.048.173 2.322.662 3.267-1.17 1.931-2.448 3.86-3.488 5.862-1.675-7.439-1.397-14.732-.988-22.29-.315-1.254-4.019-5.095-5.038-6.936-6.625-11.969-7.291-21.921-7.063-35.256-1.09 1.163-2.191 2.313-3.258 3.497-.241-7.484 1.467-10.943 5.701-17-6.886 5.418-13.841 10.854-20.919 16.019.832-1.805 1.27-3.76 2.109-5.569 1.94-5.455 5.79-10.981 9.496-15.411 1.25-1.493 2.639-2.842 3.884-4.343.596-.812 1.633-2.495 2.639-2.735.072-.017.149-.012.222-.027.116-.025.228-.063.342-.094"/><path fill="#4d2b10" d="M278.596 107.091c1.969 1.968 3.596 4.387 5.206 6.654 1.373 2.23 2.489 4.319 3.251 6.85.589 1.416 1.622 4.73 1.421 6.153l-.181.234c-.722-.8-1.074-1.842-1.684-2.726-.955-1.388-2.092-2.69-3.158-3.997.21 1.971.336 3.939.45 5.918.772 6.063 2.546 11.62.519 17.7-.548 1.249-1.135 2.343-1.973 3.429a114 114 0 0 0-2.181-7.471c-2.585 8.633-5.695 17.215-8.819 25.667-1.618 4.379-3.896 11.414-6.523 15.175-.838-13.323-2.271-26.597-3.296-39.901l-.268-.25c-1.463 1.213-2.533 3.048-3.917 4.398-.875.889-1.855 1.701-2.784 2.534 3.305-7.84 2.334-19.908 1.846-28.349.469-.362 6.662-1.309 7.967-1.685 1.297-.374 6.593-2.049 7.151-3.065l-.34-.238c1.94-.163 2.623-.783 3.88-2.184.031.012.06.034.093.037.888.083 2.035-1.212 2.66-1.81.307-1.005.481-2.042.68-3.073"/><path fill="#734c2e" d="M260.141 121.728c2.431-.209 4.784-.758 7.162-1.275-.048 4.523-.669 9.304-2.409 13.517-.73 1.77-3.324 5.169-3.266 6.805l-.269-.249c-1.463 1.212-2.532 3.047-3.917 4.398.67-2.292.969-4.732 1.346-7.088.859-5.401 1.737-10.613 1.353-16.108m18.948-5.663c3.61 3.756 3.116 5.538 4.749 9.948l.062.163c.772 6.063 2.547 11.62.519 17.7-.758-3.143-1.478-6.346-2.542-9.401-1.987-5.698-4.803-10.916-7.519-16.273a106 106 0 0 0 4.731-2.137m4.713-2.321c1.372 2.231 2.488 4.32 3.251 6.851-1.093-.447-4.543-4.394-5.906-5.528zm-13.854 11.768c.186.137.186.098.278.297.442.962.523 2.68.632 3.758.629 6.251.529 12.798-1.211 18.871l-.044.136c-.076-3.486-.247-6.971-.334-10.458-.099-3.969-.12-7.861-.516-11.82.28-.503.676-.556 1.195-.784"/><path fill="#4d2b10" d="M104.341 107.231c1.647.117 6.391 3.114 8.267 3.955 5.156 2.311 10.369 4.054 15.714 5.849a80 80 0 0 0-2.133 7.978 79 79 0 0 0-1.293 8.157c-.222 2.094-.454 4.213-.449 6.321.004 1.575.215 3.215.095 4.778-.037.48-.06.662-.328 1.049-.511-.162-.646-.372-1.01-.754-.5-.662-.967-1.267-1.304-2.032-1.268-2.526-2.196-5.098-3.055-7.78a2067 2067 0 0 0-1.963 28.789l-.449 7.834c-.063 1.175-.002 2.564-.207 3.712-.315-1.254-4.019-5.095-5.038-6.937-6.625-11.969-7.291-21.921-7.063-35.255-1.09 1.162-2.191 2.312-3.258 3.497-.241-7.485 1.467-10.944 5.701-17.001-6.886 5.418-13.841 10.855-20.919 16.019.832-1.805 1.27-3.759 2.109-5.569 1.94-5.455 5.79-10.981 9.496-15.411 1.25-1.493 2.639-2.842 3.884-4.342.596-.813 1.633-2.496 2.639-2.735.072-.018.149-.012.222-.028.116-.025.228-.062.342-.094"/><path fill="#734c2e" d="M101.138 110.087c.616.018 1.417.193 1.91-.228.209-.178.394-.507.55-.736 2.375 1.37 4.668 3.008 7.101 4.248-4.312 2.084-10.549 5.023-13.656 8.711-1.321 1.567-2.306 3.548-3.194 5.386l.295-3.495c-1.511 1.241-5.251 5.352-6.385 5.868 1.94-5.456 5.79-10.981 9.496-15.412 1.25-1.493 2.639-2.842 3.883-4.342m19.73 12.323c1.205-.837 2.405-1.647 3.677-2.378-1.672 8.109-2.712 16.289-1.34 24.532-.5-.662-.967-1.268-1.304-2.033.06-1.301-.739-2.557-1.014-3.831-1.099-5.099-1.294-11.226-.019-16.29m-6.264-7.31c1.709.636 4.045 1.894 5.261 3.234-.375.73-4.029 2.392-4.99 3.037-2.811 1.887-5.203 4.358-7.674 6.657l-3.208 2.806c2.7-7.094 5.344-10.522 10.611-15.734m-1.221 9.265c.212 1.056-.977 5.391-1.211 6.749-.519 3.024-1.759 12.297-1.434 14.838.006.048.019.096.028.144l-.243.113.059.445-.122-.014c-1.251-5.472-.527-14.278.173-19.899.864-.841 1.827-1.6 2.75-2.376"/><path fill="#374520" d="M192.967 215.059c6.577.137 13.195.424 19.771.353 4.438-.048 8.874-.417 13.312-.51-3.025 1.917-14.905 6.62-18.473 7.047l-.602.337c-.373.4-.589.522-.616 1.093-.046.971.496 2.209.714 3.162l-.1.066-.234-.073c-.241-.568-.407-1.201-.947-1.551l-.564.164c-1.021.609-2.355.877-3.512 1.13l-.789.201c-.954.156-1.952.38-2.914.461l.024-.535c-.386-.689-1.099-1.058-1.74-1.486l-.054-1.043q-.069-.055-.139-.106c-1.013-.714-1.977-1.189-3.227-1.01.826-1.681 1.084-2.998 1.08-4.857-.206-1.054-.511-1.888-.99-2.843"/><path fill="#fce0b6" d="M196.243 223.874c.023-.898.554-1.921 1.143-2.579 1.112-1.247 2.784-1.709 4.4-1.772 2.241-.087 5.034.247 6.704 1.836l-.913.589-.602.337c-.373.4-.589.522-.616 1.093-.046.971.496 2.209.714 3.162l-.1.066-.234-.073c-.241-.568-.407-1.201-.947-1.551l-.564.164c-1.021.609-2.355.877-3.512 1.13l-.789.201c-.954.156-1.952.38-2.914.461l.024-.535c-.387-.689-1.099-1.058-1.74-1.486z"/><path fill="#576c35" d="M193.957 217.901c6.755.26 13.433.231 20.186-.018-1.71 1.174-3.691 2.796-5.653 3.475-1.669-1.589-4.463-1.923-6.704-1.836-1.616.064-3.288.525-4.4 1.772-.589.659-1.12 1.682-1.143 2.58a3 3 0 0 0-.139-.107c-1.013-.714-1.977-1.189-3.227-1.009.826-1.682 1.084-2.998 1.08-4.857"/><path fill="#4d2b10" d="M130.982 117.727q4.877 1.194 9.83 2.006c-1.606 2.601-3.228 5.198-4.592 7.937-.499 1.001-1.321 3.983-1.981 4.597-.204-.121-.415-.235-.607-.373-1.666-3.476-1.987-7.524-2.402-11.309-.107-.951-.175-1.904-.248-2.858"/><path fill="#734c2e" d="M131.23 120.585q2.187.413 4.381.788c-.986 3.448-1.775 6.926-1.979 10.52-1.666-3.475-1.987-7.524-2.402-11.308"/><path fill="#f6f5f5" d="M158.025 140.288c4.894 1.866 9.84 3.659 14.677 5.669 2.987 1.242 5.9 2.669 8.865 3.965 1.119 2.009 2.126 4.021 2.859 6.207l.238.957c.416 2.484 1.104 7.124-.312 9.386-11.888 6.788-26.592 7.903-39.686 4.319-1.363-.373-2.73-.767-4.06-1.242-.597-.74-.914-1.971-1.175-2.882-1.41-4.919-.472-10.486 1.952-14.916.445-.864 1.013-1.648 1.564-2.448 4.841-6.035 8.094-6.739 15.078-9.015"/><path fill="#f19756" d="M158.025 140.288c4.895 1.866 9.841 3.659 14.677 5.669 2.988 1.242 5.9 2.669 8.865 3.965 1.119 2.009 2.126 4.021 2.859 6.207-4.409-1.057-9.137-1.538-13.627-2.273l-27.852-4.553c4.841-6.035 8.094-6.739 15.078-9.015"/><path fill="#bcb4b3" d="m142.947 149.302 27.852 4.553c4.49.735 9.217 1.216 13.627 2.273l.238.957c-3.212-.454-6.453-.736-9.673-1.141-3.106-.391-6.205-.908-9.319-1.228-8.172-.84-16.191-1.514-24.289-2.966.445-.865 1.013-1.648 1.564-2.448"/><path fill="#141414" d="M174.734 156.535a4 4 0 0 1 .571.014 3.9 3.9 0 0 1 1.612.535l.16.102a3 3 0 0 1 .305.228q.074.06.143.125a3.4 3.4 0 0 1 .392.414 4 4 0 0 1 .503.805q.04.086.077.174.035.088.067.178a4 4 0 0 1 .148.551 4 4 0 0 1 .065.567q.005.094.003.19a3 3 0 0 1-.022.38 3.85 3.85 0 0 1-1.009 2.212q-.065.069-.133.136a4 4 0 0 1-.437.366 4 4 0 0 1-.486.299l-.172.083a3 3 0 0 1-.353.14q-.09.03-.182.057a4 4 0 0 1-.558.115 3 3 0 0 1-.189.02 4 4 0 0 1-.754-.012 4 4 0 0 1-.554-.105q-.09-.025-.18-.053a5 5 0 0 1-.352-.132 5 5 0 0 1-.338-.166 3 3 0 0 1-.32-.198 3 3 0 0 1-.299-.228 3 3 0 0 1-.275-.256 3 3 0 0 1-.25-.282 4 4 0 0 1-.493-.798q-.039-.086-.074-.173l-.066-.176a3.8 3.8 0 0 1-.206-1.481q.005-.094.015-.188l.024-.186a4 4 0 0 1 .128-.55q.027-.09.06-.178a3.7 3.7 0 0 1 .535-.989l.116-.148.124-.142a4 4 0 0 1 .41-.387 3 3 0 0 1 .302-.223l.159-.101a4 4 0 0 1 .68-.32q.089-.031.179-.059a3.7 3.7 0 0 1 .737-.146q.093-.01.187-.014m-33.992-29.453c9.753 3.023 19.249 7.317 28.685 11.208l9.845 4.069c1.658.69 3.464 1.315 5.038 2.171.808.439 2.031 1.194 2.373 2.11.311.832-.33 2.352-.798 3.035-.366.535-.787.888-1.442 1.014-.811.155-2.11-.477-2.877-.768-2.965-1.296-5.877-2.723-8.865-3.965-4.836-2.01-9.782-3.803-14.676-5.669-3.142-1.193-6.318-2.522-9.539-3.478-6.19-1.839-12.572 1.326-17.914 4.217 1.137-1.841 2.397-3.624 3.602-5.421l2.166-3.12c1.357-1.839 2.685-3.881 4.402-5.403"/><path fill="#f19756" d="M184.351 166.472c-.014 3.231-3.299 7.587-5.509 9.757a28 28 0 0 1-.876.803q-.224.195-.452.385t-.462.373q-.233.185-.47.362a27 27 0 0 1-.968.69q-.246.165-.496.326a22 22 0 0 1-1.016.616 26 26 0 0 1-1.578.828 24 24 0 0 1-1.634.709q-.277.107-.556.209a27 27 0 0 1-1.696.545 29 29 0 0 1-1.152.292q-.29.067-.58.125-.291.06-.584.111-.292.052-.586.096a24 24 0 0 1-2.957.264q-.296.008-.593.009t-.594-.006c-6.158-.094-12.423-2.511-16.736-6.976-1.457-1.509-3.921-4.301-4.251-6.441 1.33.475 2.698.869 4.06 1.242 13.094 3.584 27.798 2.469 39.686-4.319"/><path fill="#734c2e" d="m168.018 214.447 3.238.081c3.461.058 6.925.212 10.387.21 3.721.448 7.574.099 11.324.321.479.955.784 1.789.99 2.843.004 1.859-.254 3.176-1.08 4.857l-.097.197c-2.907 1.151-6.144 2.118-9.277 2.41l-.196-.07c-4.006-1.5-2.867-2.863-8.019-1.919-2.291-.739-4.625-1.216-6.987-1.654l-.51-.066a118 118 0 0 1-3.35-.511c.624-3.609 1.732-3.711 3.385-6.379z"/><path fill="#4d2b10" d="m168.018 214.447 3.238.081c-1.551 2.274-2.817 4.361-2.955 7.195l-.51-.066a118 118 0 0 1-3.35-.511c.624-3.609 1.732-3.711 3.385-6.379z"/><path fill="#141414" d="M258.618 193.426c-3.839-.435-17.002 1.998-18.405 1.365-.323-.147-.303-.435-.404-.748-.668-.314-1.511.008-2.26-.086-.298-.253-.396-.283-.541-.665-.28-.74-.403-1.917.06-2.616.766-1.157 4.471-1.661 5.869-1.95 2.872-.594 13.253-2.61 15.233-1.305.371.578.259 1.097.336 1.741.081.668.331.752.838 1.118.197.447.274.667.122 1.149-.216.687-.639 1.304-.848 1.997"/><path fill="#8f2e01" d="m123.337 191.362.004.389.303.173c1.79-.708 6.436-10.991 8.185-13.286-2.416 7.469-4.948 15.021-7.731 22.359a180 180 0 0 1-1.997 5.844c-2.206-2.34-3.398-5.224-4.58-8.168l-.307-1.297c1.04-2.002 2.318-3.931 3.489-5.862l3.013-4.999-.222 2.14c-.097.893-.258 1.811-.157 2.707"/><path fill="#5f270d" d="m123.716 186.515-.222 2.139a163 163 0 0 1-5.973 10.019l-.307-1.298c1.04-2.002 2.318-3.931 3.489-5.862z"/><path fill="#374520" d="M140.033 213.729c5.802.62 11.48.977 17.318.859 1.722-.034 3.515.012 5.22-.231 1.5.021 3.069-.052 4.555.139l.892-.051-.191.321c-1.654 2.668-2.761 2.77-3.385 6.378-2.771-.87-5.686-1.216-8.489-2.005-.637-.11-1.276-.288-1.906-.433-2.854-.374-11.949-3.307-14.014-4.977"/><path fill="#2a1f17" d="m167.126 214.497.893-.05-.192.32c-1.653 2.668-2.761 2.77-3.385 6.379-2.771-.871-5.686-1.217-8.489-2.006l3.373-2.07c1.771-.38 2.858-1.297 4.14-2.496 1.228.019 2.435.021 3.66-.077"/><path fill="#576c35" d="M151.643 217.261c2.522-.023 5.184-.442 7.682-.193l-3.372 2.07c-.637-.11-1.276-.288-1.906-.433q-1.211-.708-2.404-1.444"/><path fill="#cb948a" d="M124.099 200.998c.798 2.795 5.932 7.023 8.453 8.45 7.566 4.278 21.264 4.364 30.02 4.909-1.705.243-3.498.197-5.22.232-5.839.117-11.517-.24-17.318-.86l-.97-.214c-3.531-.369-7.031-1.396-10.445-2.332-2.574-1.152-4.504-2.361-6.517-4.342a180 180 0 0 0 1.997-5.843"/><path fill="#5f270d" d="M123.337 191.362c3.328-5.919 6.613-11.986 10.247-17.718-.554 1.678-1.108 3.348-1.754 4.994-1.749 2.295-6.395 12.578-8.185 13.286l-.304-.173z"/><path fill="#f6f5f5" d="M200.158 149.894c7.927-3.53 15.844-6.809 24.006-9.785l.278.116c1.236.504 2.655.671 3.931 1.098 4.118 1.378 8.12 4.275 10.691 7.772.525.739 1.058 1.468 1.519 2.248 2.45 4.643 3.545 10.325 1.946 15.446-.258.829-.546 1.918-1.096 2.597-.017.102-.027.205-.054.305-.85 3.228-5.085 7.262-7.784 9.062q-.254.165-.51.325-.257.159-.515.312a27 27 0 0 1-1.056.587 30 30 0 0 1-1.083.534 27 27 0 0 1-1.108.48 23 23 0 0 1-1.132.426q-.285.1-.573.191a24 24 0 0 1-2.332.626 28 28 0 0 1-1.187.226 29 29 0 0 1-1.195.167 25 25 0 0 1-1.807.141 24 24 0 0 1-1.811.008 31 31 0 0 1-.604-.027 24 24 0 0 1-2.996-.356 28 28 0 0 1-.593-.115 28 28 0 0 1-1.145-.256 26 26 0 0 1-1.131-.314 24 24 0 0 1-1.114-.369 26 26 0 0 1-1.095-.424q-.27-.113-.538-.233a26 26 0 0 1-1.578-.778 22 22 0 0 1-1.019-.584 21 21 0 0 1-.986-.633 23 23 0 0 1-2.757-2.187 23 23 0 0 1-1.245-1.241 23 23 0 0 1-2.524-3.236c-.781-1.211-2.5-4.265-2.195-5.686-.546-.647-.621-1.802-.714-2.63-.166-1.475-.454-5.399.496-6.583-.077-.397.035-.818.091-1.217.313-.938 2.597-5.664 2.598-5.702.004-.107-.054-.207-.079-.311"/><path fill="#f19756" d="M241.433 169.386c-.018.102-.027.205-.054.305-.85 3.228-5.085 7.262-7.784 9.062q-.254.165-.51.325-.257.159-.515.312a25 25 0 0 1-1.595.86q-.27.134-.544.261a25 25 0 0 1-4.556 1.588q-.294.07-.589.135a30 30 0 0 1-1.188.226q-.297.048-.596.091a25 25 0 0 1-3.008.234q-.303.006-.604.003a30 30 0 0 1-.604-.012 31 31 0 0 1-.605-.027 23 23 0 0 1-2.399-.256 23 23 0 0 1-1.189-.215 28 28 0 0 1-1.145-.256 25 25 0 0 1-1.691-.491 26 26 0 0 1-1.649-.616q-.27-.113-.539-.233-.266-.12-.531-.246a20 20 0 0 1-.527-.26 20 20 0 0 1-1.032-.558 20 20 0 0 1-1.002-.608 23 23 0 0 1-1.91-1.365 23 23 0 0 1-2.179-1.962 23 23 0 0 1-1.182-1.303 23 23 0 0 1-.733-.916 23 23 0 0 1-1.012-1.441c-.782-1.211-2.5-4.265-2.195-5.686 12.417 6.821 27.068 7.907 40.599 3.979q1.538-.447 3.068-.93m-41.275-19.492c7.927-3.53 15.844-6.809 24.006-9.785l.278.116c1.236.504 2.655.671 3.931 1.098 4.117 1.378 8.119 4.275 10.691 7.772-13.786 2.33-27.686 4.247-41.425 6.812.312-.938 2.596-5.664 2.598-5.702.004-.107-.054-.207-.079-.311"/><path fill="#bcb4b3" d="M197.639 155.908c13.739-2.565 27.639-4.483 41.425-6.813.525.739 1.058 1.468 1.519 2.249-9.05 1.32-18.126 2.456-27.166 3.834-1.566.238-5.11.472-6.468 1.061l.066-.251c.292.25.313.358.695.386.027.002.052.017.079.026a3.7 3.7 0 0 0-.766-.052 4 4 0 0 0-.763.101c-2.604-.382-6.073.346-8.712.676-.077-.397.035-.818.091-1.217"/><path fill="#141414" d="M206.26 156.448a4 4 0 0 1 .763-.101 4 4 0 0 1 .766.052q.087.015.174.034a5 5 0 0 1 .342.091l.168.057q.083.031.164.065l.162.072a5 5 0 0 1 .313.167q.076.045.148.094.074.049.147.1.072.053.141.107l.135.114a5 5 0 0 1 .255.245l.118.131.114.137a5 5 0 0 1 .206.288l.093.15a3 3 0 0 1 .164.314 6 6 0 0 1 .135.327l.056.167a6 6 0 0 1 .089.343l.033.174q.014.087.023.175.012.089.017.176a4 4 0 0 1 .008.354 4 4 0 0 1-.023.353l-.025.175a2 2 0 0 1-.033.174 3 3 0 0 1-.087.343l-.056.168a4 4 0 0 1-.49.938l-.106.142a3.7 3.7 0 0 1-.487.514 5 5 0 0 1-.276.221l-.145.101a6 6 0 0 1-.303.181l-.158.08a4 4 0 0 1-1.537.374l-.177.002a3 3 0 0 1-.354-.022l-.175-.022q-.087-.014-.174-.031a5 5 0 0 1-.344-.086 6 6 0 0 1-.334-.116 4 4 0 0 1-.477-.231q-.077-.044-.152-.092a4 4 0 0 1-.427-.314 4 4 0 0 1-.258-.241 5 5 0 0 1-.236-.264l-.11-.14a3 3 0 0 1-.1-.145 3 3 0 0 1-.186-.302l-.081-.157a3 3 0 0 1-.139-.325l-.06-.167a5 5 0 0 1-.129-.515 5 5 0 0 1-.046-.35q-.008-.089-.012-.177a3 3 0 0 1-.002-.177q0-.089.004-.177.006-.089.014-.176.009-.089.021-.176t.031-.175q.015-.087.036-.173l.045-.171q.024-.085.054-.168.029-.084.06-.167.032-.082.069-.163.034-.08.075-.16t.083-.156q.043-.078.091-.152.046-.076.097-.148a3 3 0 0 1 .214-.282q.056-.069.116-.133.06-.066.123-.128.063-.063.128-.122.066-.06.133-.116.07-.057.139-.11.072-.053.145-.103t.148-.097l.153-.089q.077-.043.156-.083a4 4 0 0 1 .83-.3m34.649-29.357c3.57 3.188 7.423 9.746 10.176 13.875a92 92 0 0 0-4.724-2.304c-9.502-4.239-13.062-2.054-22.197 1.447-8.162 2.976-16.079 6.255-24.006 9.785-.844.321-2.226 1.028-3.125.77-.838-.24-1.614-1.406-1.883-2.178-.27-.782-.202-1.708.205-2.43.345-.612.865-.944 1.465-1.276 1.664-.922 3.566-1.583 5.321-2.315l9.82-4.068c9.491-3.912 19.122-8.321 28.948-11.306m-28.15 59.412c1.37.167 2.843 1.526 3.818 2.458 1.282 1.221 4.112 4.105 4.035 5.97-.014.35-.025.248-.332.495-2.326-.116-1.724-2.147-3.579-3.694l-.222-.183q-1.641.927-3.257 1.893c-.031 1.758.228 4.204-.753 5.731-1.322 2.054-8.62 3.782-11.056 4.245-4.288.813-5.137.375-8.667-2.027-3.283.699-6.563 1.181-9.922 1.307-4.45.156-8.856-.436-13.009-2.07 14.873.786 30.05-5.482 43.389-11.403-.231-.35-.467-.713-.635-1.1-.266-.617-.052-1.053.19-1.622"/><path fill="#f6f5f5" d="m211.72 194.176.128.149c.241 1.114.204 3.241-.358 4.239-.729 1.3-4.21 2.259-5.573 2.676-2.849.873-7.34 2.349-10.151.863l-1.608-1.125c6.132-1.518 11.931-3.987 17.562-6.802"/><path fill="#141414" d="M252.587 174.351a3 3 0 0 1 .796.017c.722.131 1.289.614 1.702 1.194.732 1.029 1.647 2.792 1.431 4.093-.299.438-.703.673-1.172.903-2.577 1.262-5.432 2.238-8.095 3.348-4.471 1.864-8.884 3.835-13.419 5.537-.969.157-1.868-.323-2.675-.834-1.217-.77-1.365-1.647-1.676-2.947 1.504-1.205 3.315-2.111 4.998-3.044 5.877-3.256 11.886-5.772 18.11-8.267m-114.707 5.448c3.263.074 10.338 3.175 13.529 4.421 1.533.599 9.499 3.86 10.027 5.069-.286 1.344-1.995 2.007-2.813 3.067q-.06.078-.117.157a6 6 0 0 1-.793.525c-.381.203-.71.295-1.143.245-2.326-.268-4.888-1.274-7.135-1.953-3.165-.956-6.387-1.845-9.516-2.907-.635-.215-2.146-.711-2.395-1.344-.314-.799.238-1.591.591-2.288-.496-.353-1.052-.733-1.438-1.209-.379-.468-.618-1.143-.509-1.744.179-.977.93-1.535 1.712-2.039m3.088 12.929q.169-.017.338-.03c3.333-.239 11.976-.011 14.433 2.222.333.301.577.712.532 1.178-.063.64-.548 1.335-1.01 1.758-1.487 1.363-4.531.433-6.408.413-3.231.153-12.982 1.248-15.357-.214-.75-1.04-.409-2.307-.267-3.494 2.704-1.203 4.822-1.613 7.739-1.833"/><path fill="#cb948a" d="M249.041 163.275c.38.164.5.296.73.638.336 1.777-.241 3.414-.865 5.057-1.537 4.039-4.859 7.906-8.844 9.68l-.432-.205c-.087-.434-.137-.266.067-.598.636-1.04 1.914-1.817 2.717-2.762a34 34 0 0 0 2.098-2.684q.49-.697.944-1.419a32 32 0 0 0 1.668-2.972 34 34 0 0 0 1.917-4.735m-114.588 1.926c.134.067.227.101.333.225.664.778 1.12 2.443 1.582 3.415 1.265 2.666 3.034 4.754 5.157 6.761.827.781 2.707 2.009 2.783 3.168-.824-.111-1.62-.244-2.384-.587-3.448-1.548-5.89-4.786-7.103-8.284-.473-1.365-1.022-3.361-.368-4.698"/><path fill="#929191" d="M126.547 213.888c-.982-.232-2.556-.82-3.109-1.674l.13-.361c1.417-1.121 3.384-.838 5.051-.67 3.413.937 6.914 1.964 10.445 2.332l.969.215c2.065 1.67 11.16 4.602 14.014 4.977.63.144 1.269.322 1.906.432 2.803.79 5.718 1.135 8.489 2.006q1.67.28 3.349.512l.51.065c2.363.438 4.696.915 6.987 1.655 5.153-.944 4.013.419 8.019 1.919q.098.036.196.069c3.134-.291 6.37-1.259 9.278-2.409l.096-.197c1.251-.18 2.214.295 3.227 1.009q.07.05.139.107l.054 1.042c.641.429 1.354.797 1.74 1.487l-.023.534c.961-.081 1.959-.305 2.913-.461l.789-.201c1.157-.253 2.491-.521 3.512-1.129l.564-.164c.54.349.706.982.948 1.55l.233.073.101-.065c-.219-.954-.761-2.191-.715-3.162.027-.572.244-.694.616-1.093l.602-.338c3.568-.427 15.449-5.129 18.474-7.046 7.72-.811 14.703-.238 22.303-2.489q1.677-.685 3.334-1.421l.166.222c2.855.599 6.149 1.359 8.743 2.753a17.2 17.2 0 0 1 3.311-1.054c.525-.28 1.106-.498 1.655-.737.052.361.148.751.125 1.114l-.143 1.282c-.274 2.017-.496 3.897-.361 5.942.066.969.894 6.154.784 6.419 3.307 2.393 5.209 4.855 6.545 8.743.498-.22 1-.458 1.397-.84 1.334-1.289 1.315-3.318 1.373-5.037.494 1.56 1.093 3.08 1.486 4.67 1.442 5.827 2.879 15.553-.021 21.053q-.041.077-.085.15c-2.629 4.674-7.224 8.064-12.347 9.512-3.975 1.124-7.709 1.432-11.435-.645-.901-.502-1.693-1.16-2.427-1.882l-.614 1.272c1.883 1.701 4.365 4.22 5.182 6.62-.168 1.403-.556 2.718-.78 4.102-.328 2.018.01 4.234-.894 6.108-1.264.898-2.523 1.199-3.658 2.348q5.175 3.648 10.23 7.463l1.334.896a308 308 0 0 0-6.049 7.579c-2.967-2.274-6.09-4.841-9.276-6.778a164 164 0 0 0-5.498-3.998c-1.604 1.689-3.67 2.925-5.185 4.643l-.18.099c-2.43 1.334-7.791 5.662-10.457 4.872-.765-.228-1.197-.936-1.634-1.548-4.784 1.208-9.621 1.882-14.471 2.749-3.594.645-7.193 1.488-10.77 2.239-2.257.475-5.067.738-7.183 1.626l-.067.141.237.098c-1.314.626-4.617-.007-6.143-.05l-.406.114c-1.32-.429-3.474.467-4.981.311l-.317-.392h-.122c-1.103-4.199-.647-12.095-.174-16.514-.074-.123-.21-.197-.324-.284-2.737.377-5.48-.334-8.133-.932-.582-.33-1.324-.537-1.953-.78-1.023-.506-2.005-1.006-2.952-1.647l-.884-.928c-.317-.383-.631-.657-1.017-.966l-.096-.256c-2.616.998-5.452 1.666-8.253 1.272-1.28 2.423-2.694 4.326-5.463 5.141-1.261.372-2.551.421-3.855.361-2.176.788-4.085 1.438-6.431 1.315-2.749.094-5.794-1.093-8.247-2.207a1.94 1.94 0 0 1-.754-.409c-3.25-2.697-4.73-7.282-5.119-11.323l-.302-.919c-.714-.241-1.43-.417-2.014-.913l-.132-.311c-.245-.565-.433-1.088-.942-1.469-1.301.494-2.228 1.927-3.319 2.765-2.026 1.552-7.024 2.183-9.424 1.589-.357-.305-.397-.327-.516-.777 1.525-2.876 4.181-6.21 7.317-7.397l.481-.103c.308-.467.194-.816.172-1.366-.593-.574-1.199-1.149-1.745-1.767-3.837-4.349-6.061-12.664-5.656-18.4-1.343-3.349.486-11.899 1.282-15.542 1.461-4.852 3.923-10.387 7.974-13.551 1.93-1.112 3.712-2.239 5.915-2.724.783.008 1.583-.141 2.359-.241"/><path fill="#929191" d="M126.547 213.888c-.982-.232-2.556-.821-3.109-1.674l.13-.361c1.417-1.122 3.384-.838 5.051-.67 3.413.936 6.914 1.964 10.445 2.332l.969.215c2.065 1.669 11.16 4.602 14.014 4.976.63.145 1.269.323 1.906.433 2.803.789 5.718 1.135 8.489 2.006q1.67.28 3.349.511l.51.066c2.363.438 4.696.915 6.987 1.654l.107.201c-.125 1.222-.829 2.435-1.361 3.533a227 227 0 0 1-1.898 4.178l-.754 1.569c-2.132 4.857-4.226 9.861-5.616 14.983l-2.625-.709 1.636 3.319-.663 3.39c.927.376 1.865.734 2.765 1.172 3.784 2.137 7.591 6.251 8.788 10.506.722 2.563.528 5.301-.841 7.616-.522.884-1.251 1.658-1.959 2.395-1.06.568-2.073.863-3.188 1.284-.847-.038-1.514-.191-2.311-.477-1.146 1.96-2.174 3.336-4.149 4.527-2.616.999-5.452 1.667-8.253 1.273-1.28 2.422-2.694 4.326-5.463 5.141-1.261.372-2.551.421-3.855.361-2.176.787-4.085 1.438-6.431 1.314-2.749.095-5.794-1.092-8.247-2.206a1.95 1.95 0 0 1-.754-.409c-3.25-2.697-4.73-7.282-5.119-11.323l-.302-.919c-.714-.241-1.43-.417-2.014-.913l-.132-.311c-.245-.566-.433-1.089-.942-1.469-1.301.494-2.228 1.927-3.319 2.764-2.026 1.553-7.024 2.184-9.424 1.589-.357-.305-.397-.326-.516-.776 1.525-2.876 4.181-6.21 7.317-7.398l.481-.102c.308-.467.194-.816.172-1.367-.593-.573-1.199-1.148-1.745-1.766-3.837-4.35-6.061-12.664-5.656-18.4-1.343-3.349.486-11.9 1.282-15.543 1.461-4.851 3.923-10.386 7.974-13.55 1.93-1.112 3.712-2.239 5.915-2.724.783.008 1.583-.141 2.359-.241"/><path fill="#041d32" d="M126.547 213.888c-.982-.232-2.556-.821-3.109-1.674l.13-.361c1.417-1.122 3.384-.838 5.051-.67 3.414.936 6.914 1.964 10.445 2.332l.97.215c2.064 1.669 11.159 4.602 14.013 4.976.631.145 1.269.323 1.906.433 2.804.789 5.719 1.135 8.489 2.006q1.67.28 3.349.511l.51.066c2.363.438 4.696.915 6.987 1.654l.107.201c-.124 1.222-.829 2.435-1.361 3.533a221 221 0 0 1-1.898 4.178l-.754 1.569c-2.132 4.857-4.226 9.861-5.615 14.983l-2.625-.709 1.635 3.319-.663 3.39c-1.097-.432-2.193-.759-3.33-1.069l-1.307-.232c-.72-.104-1.458-.097-2.184-.116-1.138.039-2.18.068-3.242-.398a2.4 2.4 0 0 0-.2-.673c-.87-1.777-3.083-2.163-4.781-2.757l-.733-.57c-2.07-1.581-4.245-3.438-6.646-4.473-.659-.577-1.102-1.295-1.592-2.013-1.366-2.722-3.197-5.217-5.221-7.477.215-.139.486-.29.681-.462.196-.171.471-.374.478-.652.057-2.332-3.767-7.317-5.214-9.074l-1.705-.15c-1.067-.589-1.536-1.357-2.109-2.398-.509-2.052-1.761-3.822-2.135-5.911l-.038-.517-.647-.769c.782.008 1.582-.141 2.358-.241"/><path fill="#213c57" d="M136.598 218.392c3.756 6.438 10.143 13.114 16.51 17.035 1.104.681 2.295 1.496 3.558 1.838.628.17 1.285.206 1.876-.101 1.167-.604 2.331-2.279 3.222-3.268 2.185-2.425 7.812-8.72 10.547-9.766l.33.114c.094.471-.02.806-.2 1.239-.594 1.423-1.488 2.749-2.215 4.108-.885 1.655-1.642 3.396-2.398 5.112-2.486 5.647-5.03 12.222-7.044 18.068l-1.307-.232c-.72-.104-1.458-.096-2.184-.116-1.138.039-2.18.068-3.242-.397a2.4 2.4 0 0 0-.2-.674c-.87-1.776-3.083-2.162-4.781-2.757l-.733-.569c-.034-1.919-3.885-5.919-5.003-7.804-1.376-2.318-2.513-4.785-3.828-7.139.364-.641.953-1.434.712-2.202-.379-1.209-2.041-1.773-2.8-2.742-1.499-1.911-2.7-4.077-4.075-6.075 1.353-1.108 2.319-2.197 3.255-3.672"/><path fill="#213c57" d="m139.064 213.516.97.214c2.064 1.67 11.16 4.603 14.013 4.977.631.145 1.27.323 1.907.433 2.803.789 5.718 1.135 8.488 2.005q1.671.28 3.35.512c-4.162 3.162-7.51 7.243-10.85 11.23-7.912-5.591-12.703-11.247-17.878-19.371"/><path fill="#fce0b6" d="m126.547 213.888.616.316-.046.269c.956 1.139 1.869 2.361 2.523 3.702l.662 1.363c-.648.523-1.402 1.037-1.954 1.66.846.873 1.719 1.724 2.475 2.676l-1.705-.15c-1.067-.589-1.536-1.358-2.109-2.398-.509-2.052-1.762-3.823-2.135-5.911l-.038-.518-.648-.768c.783.008 1.583-.141 2.359-.241"/><path fill="#2a1f17" d="M127.164 214.204c2.417.535 4.507 1.964 6.893 2.587l-3.755 2.747-.662-1.363c-.653-1.341-1.566-2.563-2.523-3.702z"/><path fill="#fce0b6" d="M154.051 252.026c1.061.465 2.104.436 3.241.397.727.02 1.465.012 2.185.116l1.306.232c1.137.311 2.234.637 3.331 1.069.927.377 1.865.734 2.765 1.172 3.784 2.137 7.591 6.251 8.788 10.506.722 2.564.528 5.301-.841 7.616-.522.884-1.251 1.658-1.959 2.396-1.06.567-2.073.863-3.188 1.284-.847-.039-1.514-.191-2.311-.477-1.146 1.959-2.174 3.336-4.149 4.527-2.616.998-5.452 1.666-8.253 1.272-1.28 2.423-2.694 4.326-5.463 5.141-1.262.373-2.551.421-3.855.361-2.176.788-4.086 1.438-6.431 1.315-2.749.094-5.794-1.093-8.247-2.207a1.94 1.94 0 0 1-.754-.409c-3.25-2.697-4.73-7.282-5.12-11.323l-.301-.918c2.244.322 4.034 2.517 6.579 2.99l.295-.062c.355-.069.713-.133 1.054-.259 4.118-1.534 11.166-13.299 14.323-17.065 2.166-2.583 5.7-4.514 7.005-7.674"/><path fill="#cb948a" d="M154.051 252.026c1.061.465 2.104.436 3.241.397-4.722 2.885-6.727 5.261-9.92 9.69-.866 1.201-1.66 2.457-2.614 3.592-3.208 3.823-6.653 7.346-9.977 11.053 3.93 3.778 7.649 6.571 13.383 6.463q.31-.006.621-.017c.917-.578 1.796-1.112 2.073-2.23.247-.998-.13-2.043-.661-2.88-.885-1.398-3.535-3.819-3.721-5.342l.132-.222c.966-.002 2.226 1.349 2.899 2.023 2.478 2.481 5.389 6.066 9.255 6.041 1.268-.008 3.471-.51 4.401-1.433.554-.55.688-1.241.648-1.992-.114-2.16-1.384-4.869-2.517-6.699-.726-1.174-5.614-7.046-5.465-7.716.955-.259 2.319.658 3.155 1.141 2.899 1.671 5.771 4.222 7.421 7.172.26.467 1.666 4.131 1.764 4.2.105.076.258-.027.387-.038 1.478-.927 2.554-2.496 2.941-4.199.759-3.336-1.491-7.249-3.278-9.919-2.25-3.359-5.237-6.502-8.742-8.572l1.306.232c1.137.311 2.234.637 3.331 1.069.927.377 1.865.734 2.765 1.172 3.784 2.137 7.591 6.251 8.788 10.506.722 2.564.528 5.301-.841 7.616-.522.884-1.251 1.658-1.959 2.396-1.06.567-2.073.863-3.188 1.284-.847-.039-1.514-.191-2.311-.477-1.146 1.959-2.174 3.336-4.149 4.527-2.616.998-5.452 1.666-8.253 1.272-1.28 2.423-2.694 4.326-5.463 5.141-1.262.373-2.551.421-3.855.361-2.176.788-4.086 1.438-6.431 1.315-2.749.094-5.794-1.093-8.247-2.207a1.94 1.94 0 0 1-.754-.409c-3.25-2.697-4.73-7.282-5.12-11.323l-.301-.918c2.244.322 4.034 2.517 6.579 2.99l.295-.062c.355-.069.713-.133 1.054-.259 4.118-1.534 11.166-13.299 14.323-17.065 2.166-2.583 5.7-4.514 7.005-7.674"/><path fill="#f19756" d="M124.795 274.096c2.244.322 4.034 2.517 6.579 2.99l3.314 1.591c1.415 3.581 3.997 6.438 7.558 7.962 1.076.459 2.25.793 3.402 1-2.176.787-4.086 1.438-6.431 1.314-2.749.095-5.794-1.092-8.247-2.206a1.95 1.95 0 0 1-.754-.409c-3.25-2.697-4.73-7.282-5.12-11.323z"/><path fill="#b85424" d="M124.795 274.096c2.244.322 4.034 2.517 6.579 2.99l3.314 1.591c1.415 3.581 3.997 6.438 7.558 7.962 1.076.459 2.25.793 3.402 1-2.176.787-4.086 1.438-6.431 1.314a38 38 0 0 1 1.607-.278c-5.803-3.55-11.198-8.585-15.728-13.66z"/><path fill="#374520" d="M118.274 216.854c1.929-1.112 3.711-2.24 5.915-2.724l.647.768.038.518c.374 2.088 1.626 3.859 2.135 5.911.573 1.04 1.042 1.809 2.109 2.398l1.706.15c1.446 1.757 5.27 6.742 5.213 9.074-.007.278-.282.48-.478.652-.195.172-.466.323-.681.462 2.024 2.26 3.855 4.754 5.221 7.476.49.719.933 1.437 1.592 2.014-1.407.813-6.156.813-8.371 1.45-2.855.818-5.522 2.044-8.141 3.434-1.056.562-2.259 1.429-3.365 1.825-.242.086-.296.081-.52.104-.932-.354-1.198-1.203-1.583-2.064-.687-1.539-1.322-3.102-1.969-4.656-.374.722-.763 1.776-1.619 2.007-.299.081-.413-.058-.671-.187-.989-1.253-1.452-4.93-2.131-6.743-1.911 2.21-3.027 4.623-4.304 7.224-1.342-3.35.486-11.9 1.283-15.543 1.46-4.851 3.923-10.386 7.974-13.55"/><path fill="#734c2e" d="M127.008 221.326c.573 1.041 1.042 1.809 2.109 2.398l1.706.15c1.446 1.757 5.27 6.742 5.213 9.074-.007.278-.282.481-.478.652-.195.172-.466.323-.681.462 2.024 2.26 3.855 4.755 5.222 7.477-.578.11-1.13.235-1.722.201-3.825.291-7.304.764-10.967 1.984-.584.11-1.379.321-1.964.265-.474-.047-.752-.203-.973-.636-1.017-2.003.651-6.785 1.359-8.801-1.267.363-2.696.77-3.98.241-.414-.169-.799-.48-.903-.936-.146-.643.095-1.318.41-1.872 1.16-2.041 3.443-2.786 5.576-3.331-.797-1.658-1.762-3.708-1.256-5.575.231-.853.579-1.299 1.329-1.753"/><path fill="#4d2b10" d="M130.823 223.874c1.446 1.757 5.27 6.742 5.214 9.074-.007.278-.283.481-.478.652s-.467.323-.682.462c2.024 2.26 3.856 4.755 5.222 7.477-.578.11-1.13.235-1.722.201-1.148-.858-2.116-2.342-3.389-2.956-1.476-.711-3.695-.573-5.037-1.546-.321-.234-.213-.114-.299-.553.82-.92 3.386-1.158 4.61-1.413-1.597-1.089-3.437-1.724-5.034-2.797-.482-.324-1.08-.751-1.208-1.348l.272-.27c1.9-.315 3.605.554 5.38 1.135-1.425-2.783-3.088-5.494-4.555-8.268z"/><path fill="#576c35" d="M124.874 215.414c.373 2.089 1.626 3.86 2.135 5.912-.75.453-1.099.899-1.33 1.753-.505 1.866.459 3.917 1.256 5.575-2.133.544-4.415 1.29-5.576 3.33-.315.554-.556 1.23-.41 1.873.104.455.489.766.903.936 1.285.529 2.713.122 3.98-.241-.707 2.015-2.376 6.797-1.358 8.801.22.432.498.589.972.635.585.056 1.381-.154 1.964-.264-2.363 1.451-4.175 2.432-6.365 4.224-.933-2.051-1.874-4.213-3.154-6.072-.634.616-1.196 1.307-1.773 1.975-.502-2.514-1.446-4.718-2.446-7.066-.911.558-1.701 1.207-2.519 1.888.301-1.565.147-3.507.805-4.948l.245.012c2.156.083 3.903-.502 5.464-2.021 1.235-1.203 3.63-5.108 2.987-6.96-.223-.641-1.191-1.189-1.139-1.869.116-1.515.779-2.893.802-4.478 1.229-.734 3.358-1.232 4.349-2.134.242-.22.179-.554.208-.861"/><path fill="#2a1f17" d="M118.273 216.852c1.324 4.176-1.721 6.275-.989 8.008.406.174.752.253 1.188.317.198.645-.263 1.614-.568 2.189-1.059 1.994-2.533 3.309-4.581 4.22-1.123-.934-1.556-1.222-3.024-1.183 1.461-4.852 3.923-10.386 7.974-13.551"/><path fill="#cb948a" d="M109.017 245.946c1.277-2.6 2.392-5.013 4.304-7.224.679 1.813 1.141 5.491 2.13 6.744.258.129.373.268.671.187.857-.232 1.246-1.286 1.62-2.008.647 1.554 1.282 3.118 1.969 4.657.385.861.651 1.71 1.583 2.063.223-.023.278-.017.52-.104 1.105-.396 2.309-1.263 3.365-1.824 2.619-1.39 5.286-2.616 8.141-3.435 2.215-.637 6.964-.637 8.371-1.45 2.401 1.035 4.576 2.892 6.646 4.473l.733.57c-.952.299-2.286.255-3.28.178.752-.176 1.505-.143 2.273-.143-3.608-2.574-4.476-3.832-9.174-3.047-3.491.585-14.37 4.068-16.305 6.941-.304.451-.545.944-.785 1.432-.615-.523-1.134-.9-1.943-1.025-1.084 1.475-.987 8.647-1.106 10.654-.575.099-1.04.18-1.39.709-.261.396-.376.805-.484 1.261l-.458.558c-.593-.574-1.199-1.149-1.745-1.767-3.836-4.349-6.061-12.664-5.656-18.4"/><path fill="#fce0b6" d="M121.799 253.956c.24-.488.481-.981.785-1.432 1.935-2.873 12.814-6.356 16.305-6.941 4.698-.785 5.566.473 9.174 3.047-.768 0-1.521-.033-2.273.143-5.186.316-9.41 2.544-12.822 6.388-.979.965-4.303 4.156-4.71 5.202l-.219.236c-1.29 1.4-2.323 3.014-3.356 4.606l-.184.004-.13-1.104c.395-.871.733-1.703.8-2.668.204-2.898-1.559-5.402-3.37-7.481"/><path fill="#f6f5f5" d="M132.968 255.161c4.639-2.96 8.041-4.956 13.724-4.838-6.321 3.938-10.836 9.278-15.243 15.164-1.51 2.016-2.973 4.284-4.726 6.089-.745.766-1.33 1.467-2.456 1.266-.4-.324-.629-.604-.681-1.129-.341-3.446 3.786-8.027 4.672-11.349.407-1.047 3.731-4.238 4.71-5.203m-13.112-2.23c.809.126 1.328.502 1.943 1.025 1.811 2.079 3.574 4.583 3.37 7.481-.067.965-.406 1.797-.801 2.668-.332-.095-.284-.072-.622-.207-5.318-2.143-2.223-7.143-3.89-10.967m-11.408 22.049c1.525-2.877 4.181-6.211 7.317-7.398.503 1.015 1.435 2.382 1.105 3.544-1.478 1.871-5.902 3.541-8.221 3.838q-.1.011-.201.016m10.302-11.394c.084.036.167.077.252.114 1.372.586 3.366-.01 4.029 1.861.207.585.068 1.208-.236 1.727a3.53 3.53 0 0 1-2.28 1.632c-.7.141-1.417.021-2.003-.396-.881-.626-1.425-1.944-1.636-2.969.107-.456.223-.865.484-1.261.35-.529.815-.61 1.39-.708"/><path fill="#f6f5f5" d="M149.446 252.07c.723-.046 1.684-.104 2.337.255.258.141.177.141.255.469-.773 2.044-4.713 4.367-6.324 6.174-2.216 2.484-3.845 5.384-5.771 8.079-1.454 2.037-3.13 3.867-4.878 5.651-1.131 1.154-2.269 2.336-3.69 3.129-.654.191-1.014.259-1.666.019-.386-.339-.623-.604-.796-1.096-.468-1.332.189-3.045.783-4.232.854-1.71 2.073-3.315 3.207-4.851 4.256-5.776 9.558-11.242 16.543-13.597"/><path fill="#041d32" d="m251.688 210.992.166.222c2.855.599 6.149 1.359 8.743 2.753a17 17 0 0 1 3.311-1.054c.525-.28 1.106-.498 1.655-.737.052.361.148.751.125 1.114l-.143 1.282c-.274 2.017-.496 3.897-.361 5.942.066.969.894 6.154.784 6.419 3.307 2.393 5.209 4.855 6.544 8.743.499-.22 1-.458 1.398-.84 1.334-1.289 1.315-3.318 1.373-5.037.494 1.56 1.092 3.08 1.486 4.67 1.442 5.827 2.879 15.553-.021 21.053q-.041.077-.085.15c-2.629 4.674-7.224 8.064-12.348 9.512-3.975 1.124-7.708 1.432-11.434-.645-.902-.502-1.693-1.16-2.427-1.882l-.614 1.272c-1.436 1.012-3.253 1.674-4.876 2.346-1.421.527-3.261 1.015-4.525 1.853 0 .492-.045.817-.22 1.278-.774-.013-1.064-.125-1.672-.581-1.842.975-3.697 1.591-5.664 2.247-1.759-1.247-3.715-2.471-5.311-3.919l-.139-.033c-1.294-1.39-3.589-2.608-5.149-3.749-.469-1.625-.598-3.174-.639-4.857-.257-.118-.513-.237-.778-.34-1.131-.438-2.108-.154-3.176.305l-.851.581-1.338-1.253a154 154 0 0 0-.863-3.864c-.948-3.222-1.614-6.528-2.496-9.769-1.235-4.539-2.695-9.013-3.884-13.566-.452-1.345-.597-2.768-1.185-4.067-.219-.954-.761-2.191-.715-3.162.027-.572.243-.694.616-1.093l.602-.338c3.568-.427 15.448-5.129 18.474-7.046 7.72-.811 14.702-.238 22.303-2.489q1.677-.685 3.334-1.421"/><path fill="#fce0b6" d="M254.993 228.276c.828-.92 1.6-1.66 2.714-2.249 1.919-1.015 3.778-1.17 5.844-.565.824.465 1.643.921 2.417 1.471 3.307 2.394 5.208 4.855 6.544 8.743.498-.22 1-.457 1.398-.84 1.334-1.289 1.315-3.318 1.373-5.036.494 1.559 1.092 3.079 1.486 4.669 1.442 5.827 2.879 15.553-.021 21.053q-.041.077-.085.15c-2.629 4.674-7.224 8.064-12.348 9.512-3.975 1.124-7.708 1.433-11.434-.645-.902-.502-1.693-1.16-2.427-1.882-2.222-1.413-3.888-5.162-4.735-7.529l-.093-.139a10 10 0 0 1-1.087-.898c-2.488-2.392-6.697-8.301-6.757-11.803.079-2.203.494-4.282 2.139-5.892 1.523-1.488 3.205-1.936 5.255-1.903.836-1.699 1.801-3.18 3.311-4.356 1.9-1.478 4.124-2.121 6.506-1.861"/><path fill="#cb948a" d="M275.283 229.799c.494 1.56 1.092 3.079 1.486 4.67 1.442 5.826 2.879 15.552-.021 21.052q-.041.076-.085.151c-2.629 4.673-7.224 8.063-12.348 9.511-3.974 1.124-7.708 1.433-11.434-.644-.902-.502-1.693-1.161-2.427-1.883-2.222-1.413-3.888-5.162-4.735-7.529.59.296 1.202.591 1.843.765 5.006 1.351 11.398-1.413 15.558-3.998 4.348-2.699 8.674-6.761 9.939-11.852q.023-.096.05-.189c.234-1.512-.168-2.747-.597-4.178.499-.22 1-.457 1.398-.839 1.334-1.29 1.315-3.319 1.373-5.037"/><path fill="#2a1f17" d="M275.283 229.799c.494 1.56 1.093 3.079 1.487 4.67 1.442 5.826 2.878 15.552-.022 21.052q-.041.076-.085.151c.993-4.767 1.307-9.024-1.394-13.34-.527-.842-1.752-1.481-2.108-2.298-.025-.057-.034-.121-.052-.181.234-1.512-.168-2.747-.596-4.178.498-.22 1-.457 1.397-.839 1.334-1.29 1.315-3.319 1.373-5.037"/><path fill="#cb948a" d="M254.993 228.276c.828-.92 1.6-1.66 2.714-2.249 1.919-1.015 3.778-1.17 5.844-.565-2.751 2.092-5.164 3.936-5.651 7.645-.397 3.03.155 6.48 1.467 9.237.39.821 1.107 1.826 1.23 2.714-.737.085-1.5-.382-2.075-.826-2.568-1.979-4.043-5.444-4.353-8.6-.197-2.002-.047-4.043.308-6.02-3.415 1.948-6.282 3.888-7.318 7.95-.9 3.523-.548 7.987.55 11.423-2.508-2.537-3.6-5.444-3.595-8.996.002-1.203.052-2.409.091-3.612-1.705.795-3.021 1.739-3.666 3.608-1.021 2.956.776 7.68 2.153 10.338.853 1.645 2.029 3.066 2.934 4.666a10 10 0 0 1-1.087-.898c-2.488-2.392-6.697-8.301-6.757-11.803.079-2.203.494-4.282 2.139-5.892 1.523-1.488 3.205-1.936 5.255-1.903.836-1.699 1.801-3.18 3.311-4.356 1.9-1.478 4.124-2.121 6.506-1.861"/><path fill="#213c57" d="M208.654 226.016c2.408 1.842 4.956 3.705 7.099 5.85 1.353 1.355 2.508 3.037 3.919 4.297.444.396.892.585 1.494.481 1.539-.266 8.398-6.743 10.535-8.162-.029 3.562-.128 7.181.094 10.737.431 6.927 1.553 13.948 2.991 20.734 2.015 2.568 4.139 5.284 5.652 8.174 0 .492-.044.817-.22 1.278-.774-.014-1.063-.126-1.671-.581-1.842.975-3.697 1.591-5.665 2.247-1.758-1.247-3.714-2.471-5.31-3.919l-.14-.033c-1.293-1.39-3.588-2.608-5.148-3.749-.469-1.625-.599-3.174-.639-4.857-.257-.118-.514-.237-.778-.34-1.132-.438-2.108-.154-3.176.305-2.172-8.008-4.17-16.048-6.494-24.014-.823-2.818-1.485-5.706-2.543-8.448"/><path fill="#434242" d="M223.078 259.153c1.927-1.535 4.811-2.182 7.139-2.834 2.044.859 3.199 1.926 4.57 3.635 2.015 2.567 4.139 5.284 5.652 8.174 0 .492-.044.816-.22 1.278-.774-.014-1.064-.126-1.672-.581-1.841.975-3.697 1.59-5.664 2.247-1.759-1.247-3.714-2.471-5.311-3.919l-.139-.033c-1.293-1.39-3.589-2.608-5.148-3.749-.47-1.626-.599-3.174-.639-4.857.515.343.803.689 1.432.639"/><path fill="#041d32" d="M226.576 264.25c1.4-.461 3.969-1.73 5.342-1.043 2.315 1.159 4.747 3.813 6.629 5.618-1.841.975-3.697 1.591-5.664 2.247-1.759-1.247-3.714-2.471-5.311-3.919.004-1.156-.43-1.918-.996-2.903"/><path fill="#373739" d="M221.646 258.514c.515.344.803.69 1.432.639.413 1.327.691 2.742 1.201 4.027 2.202-1.268 4.712-2.891 7.369-2.139 2.5.711 5.133 3.514 6.631 5.578.65.895 1.187 1.986 1.94 2.787-.774-.013-1.064-.125-1.672-.581-1.882-1.805-4.314-4.459-6.629-5.618-1.373-.687-3.942.582-5.342 1.043.566.985 1 1.747.996 2.903l-.139-.032c-1.293-1.39-3.589-2.608-5.148-3.749-.47-1.626-.599-3.174-.639-4.858"/><path fill="#5f270d" d="M222.362 238.162c1.324.069 2.278.173 3.193 1.21.054.06.102.127.152.189.286.601.373 1.106.278 1.759-.092.656-.326 1.164-.898 1.537-.845.55-2.115.565-3.056.293-.822-.235-1.942-.871-2.264-1.722-.178-.471-.183-.826.035-1.28.478-.994 1.587-1.604 2.56-1.986"/><path fill="#f52d2b" d="M222.361 238.162c1.324.069 2.278.173 3.193 1.21.054.06.103.127.153.189l-.033.151c-.019.083-.043.164-.06.247-.062.276-.102.568-.222.826-.249.541-.884.991-1.442 1.157-.537.158-1.172.119-1.651-.192-.436-.283-.702-.751-.793-1.251-.18-.974.342-1.575.855-2.337"/><path fill="#374520" d="M227.674 245.295c.648-.367 1.287-.656 2.054-.506.843.165 1.32.753 1.766 1.429l-.04 1.043c.048.121.123.297.137.424.04.384-.083.606-.328.886-.41.469-1.143.713-1.749.751-.69.043-1.574-.152-2.07-.666-.604-.625-.602-1.177-.612-1.998.197-.535.498-.917.842-1.363"/><path fill="#68ff35" d="M227.674 245.295c.648-.367 1.287-.656 2.054-.506.844.165 1.32.753 1.766 1.429-.571.703-1.289 1.506-2.28 1.517-.411.004-.679-.158-.967-.428-.55-.518-.531-1.313-.573-2.012"/><path fill="#041d32" d="M226.832 246.658c.409.912.766 1.506 1.745 1.856.591.21 1.209.135 1.755-.159.498-.266.821-.631 1.122-1.094.048.121.123.297.137.424.04.385-.083.607-.328.887-.41.469-1.143.712-1.749.751-.69.042-1.574-.153-2.07-.666-.604-.626-.602-1.178-.612-1.999"/><path fill="#565657" d="M220.153 247.514c1.047-.209 1.883-.417 2.815.245.176.123.251.21.396.353.228.408.342.78.392 1.242.044.411-.023.841-.307 1.154-.371.409-.792.571-1.334.61-.846.058-1.863-.226-2.502-.797-.355-.315-.656-.805-.593-1.3.081-.648.626-1.164 1.133-1.507"/><path fill="#373739" d="M220.153 247.513c-.088.817-.225 1.547.34 2.232.216.262.437.344.744.452.644-.027 1.088-.201 1.513-.688.309-.355.461-.957.614-1.397.228.407.342.78.392 1.241.044.411-.023.842-.307 1.154-.371.41-.792.572-1.334.61-.846.058-1.863-.225-2.502-.797-.355-.315-.656-.805-.593-1.299.081-.649.626-1.164 1.133-1.508"/><path fill="#8f2e01" d="M251.854 211.214c2.855.598 6.149 1.359 8.743 2.753a17.2 17.2 0 0 1 3.311-1.055c.525-.279 1.106-.498 1.654-.737.053.361.149.751.126 1.114l-.143 1.282c-.274 2.017-.496 3.898-.361 5.942.066.969.894 6.154.784 6.419-.774-.55-1.593-1.006-2.417-1.471-2.066-.604-3.925-.45-5.844.566-1.114.588-1.886 1.328-2.714 2.249-2.382-.261-4.606.382-6.506 1.861-1.51 1.175-2.475 2.656-3.311 4.355-2.05-.033-3.732.415-5.255 1.903-1.645 1.61-2.06 3.69-2.139 5.892.023-2.048-.77-3.307-1.577-5.119-1.346-3.022-1.716-5.968-.515-9.118.133-.682.457-1.267.762-1.883l1.975-1.268c.322-.301.967-.55 1.369-.761 3.168-2.054 6.442-3.608 9.793-5.312.771-2.064 2.979-5.487 2.265-7.612"/><path fill="#5f270d" d="M265.562 212.175c.053.361.149.751.126 1.114l-.143 1.282c-.274 2.017-.496 3.897-.361 5.942.066.969.894 6.154.784 6.419-.774-.55-1.593-1.006-2.417-1.471-2.066-.604-3.925-.45-5.844.565-1.114.589-1.886 1.329-2.714 2.249-2.382-.26-4.606.383-6.506 1.862-1.51 1.175-2.475 2.656-3.311 4.355-2.05-.033-3.732.415-5.255 1.903-1.645 1.61-2.06 3.689-2.139 5.892.023-2.048-.77-3.307-1.577-5.12-1.346-3.021-1.716-5.967-.515-9.117.133-.682.457-1.267.762-1.883l1.975-1.268c.322-.301.967-.55 1.369-.761-.043 3.302.033 6.404.701 9.649 1.056-.94 8.834-7.264 9.583-7.55 1.448-.552 3.116-.282 4.575-.906 4.525-1.93 2.703-3.019 8.767-2.87-.192-3.272-.381-6.344.486-9.549.525-.28 1.106-.498 1.654-.737"/><path fill="#8f2e01" d="M238.428 224.9c-.201 3.456-.189 6.743.739 10.108l-1.538 1.576c-1.238-2.908-1.458-5.475-1.939-8.533.134-.682.458-1.267.763-1.883z"/><path fill="#2a1f17" d="M251.854 211.214c2.856.598 6.149 1.359 8.744 2.753a253 253 0 0 1-11.008 4.859c.77-2.064 2.979-5.487 2.264-7.612"/><path fill="#213c57" d="M226.051 214.901c7.72-.811 14.703-.238 22.303-2.489-1.901 1.506-5.747 2.823-8.114 4.153-4.538 2.552-12.185 8.633-15.832 12.435-1.154 1.202-2.15 2.517-3.135 3.859-4.18-4.267-8.456-8.709-14.297-10.574l.602-.338c3.568-.426 15.448-5.129 18.473-7.046"/><path fill="#f19756" d="M249.841 263.929c1.882 1.7 4.364 4.22 5.181 6.619-.168 1.404-.556 2.719-.78 4.103-.328 2.017.01 4.233-.894 6.108-1.264.898-2.523 1.199-3.658 2.347q5.175 3.65 10.23 7.464l1.334.896a306 306 0 0 0-6.049 7.579c-2.967-2.274-6.09-4.842-9.276-6.778a161 161 0 0 0-5.498-3.998c-1.604 1.689-3.67 2.924-5.185 4.643l-.18.098c-2.43 1.334-7.791 5.662-10.457 4.873-.765-.228-1.197-.937-1.634-1.549l-1.262-1.951c-.834-1.302-1.51-2.738-2.23-4.107-2.208-4.046-4.456-8.073-5.863-12.484 1.516.11 2.963-.068 4.425-.462 1.123-.303 3.44-1.075 4.039-2.114.289-.625.837-1.058 1.334-1.517l.048-.149c1.562-1.836 2.743-4.349 3.967-6.43l.139.033c1.597 1.447 3.552 2.671 5.311 3.919 1.967-.657 3.822-1.273 5.664-2.248.608.456.898.568 1.672.581.176-.461.22-.785.22-1.278 1.264-.837 3.104-1.326 4.525-1.853 1.624-.672 3.44-1.334 4.877-2.345"/><path fill="#8f2e01" d="m222.084 275.217 1.204.464c.502.453 2.019 1.316 2.168 1.866 1.17 1.136 2.583 2.165 3.898 3.13l.654.538c1.054.522 2.134 1.659 3.267 1.896l1.002.682q1.86 1.309 3.702 2.646l2.452 1.831c-1.604 1.689-3.67 2.924-5.185 4.642l-.18.099c-2.43 1.334-7.791 5.662-10.457 4.873-.765-.228-1.197-.937-1.634-1.549l-1.262-1.951c-.834-1.302-1.51-2.738-2.23-4.107-2.208-4.046-4.456-8.073-5.863-12.484 1.516.11 2.963-.068 4.425-.462 1.123-.303 3.44-1.075 4.039-2.114"/><path fill="#5f270d" d="m222.084 275.217 1.204.464c.502.453 2.019 1.316 2.168 1.866-.239.056-.496.06-.716.168-.135.066-5.481 6.101-5.809 6.568l-.183.079c.019.873.324 1.249.934 1.84 1.04 2.349 2.637 6.738 5.154 7.834 1.083.471 2.421.135 3.45-.317 3.3-1.444 6.929-4.909 9.693-7.28l2.452 1.831c-1.604 1.689-3.67 2.924-5.185 4.642l-.18.099c-2.43 1.334-7.791 5.662-10.457 4.873-.765-.228-1.197-.937-1.634-1.549l-1.262-1.951c-.834-1.302-1.51-2.738-2.23-4.107-2.208-4.046-4.456-8.073-5.863-12.484 1.516.11 2.963-.068 4.425-.462 1.123-.303 3.44-1.075 4.039-2.114"/><path fill="#8f2e01" d="M223.288 275.679c.502.454 2.019 1.317 2.168 1.867-.239.056-.496.06-.716.168-.135.066-5.481 6.101-5.809 6.568l-.183.079q-1.357-2.79-2.626-5.622c2.469-.469 5.267-1.345 7.166-3.06"/><path fill="#bcb4b3" d="M218.93 284.283c.329-.467 5.674-6.502 5.809-6.568.22-.108.477-.112.717-.168 1.17 1.135 2.583 2.164 3.897 3.129l.655.539c-.894 1.176-1.911 2.189-3.008 3.176l-.679.675c-1.251.993-2.501 1.925-3.892 2.717a33 33 0 0 1-2.748-1.581c-.61-.591-.915-.968-.934-1.84z"/><path fill="#929191" d="m229.353 280.677.655.538c-.894 1.176-1.911 2.19-3.008 3.176l-.679.676c-1.251.992-2.501 1.925-3.892 2.716a33 33 0 0 1-2.748-1.581c-.61-.591-.915-.967-.934-1.84l.183-.079c1.01.971 1.991 1.969 3.491 1.902 2.454-.11 5.313-3.796 6.932-5.508"/><path fill="#434242" d="M230.008 281.215c1.054.521 2.133 1.658 3.266 1.896-.917 1.625-1.988 2.529-3.689 3.318-.846-.695-1.678-1.426-2.585-2.038 1.097-.987 2.114-2 3.008-3.176"/><path fill="#373739" d="m233.275 283.11 1.002.681c-.34 1.437-1.375 2.199-2.587 2.943-.751.459-1.51.864-2.318 1.214-1.101-.894-2.138-1.794-3.051-2.882l.68-.676c.907.612 1.739 1.344 2.585 2.039 1.701-.79 2.772-1.694 3.689-3.319"/><path fill="#160600" d="M249.841 263.929c1.882 1.7 4.364 4.22 5.181 6.619-.168 1.404-.556 2.719-.78 4.103-.328 2.017.01 4.233-.894 6.108-1.264.898-2.523 1.199-3.658 2.347-2.465-1.262-5.433-3.832-7.749-5.517l-9.058-6.517c1.967-.657 3.822-1.273 5.664-2.248.608.456.898.568 1.672.581.175-.461.22-.785.22-1.278 1.264-.837 3.104-1.326 4.525-1.853 1.624-.672 3.44-1.334 4.877-2.345"/><path fill="#2a1f17" d="M240.439 268.128c1.264-.838 3.104-1.326 4.525-1.853-.469 3.843-1.444 7.768-3.023 11.314l-9.058-6.517c1.967-.656 3.822-1.272 5.664-2.247.608.455.898.567 1.672.581.175-.462.22-.786.22-1.278"/><path fill="#b85424" d="M223.418 273.7c5.319 3.404 10.286 7.328 15.456 10.948l9.403 6.707c2.267 1.591 4.713 3.112 6.773 4.969 1.654-1.875 3.125-3.973 4.87-5.753l1.334.896a309 309 0 0 0-6.048 7.579c-2.967-2.274-6.091-4.842-9.276-6.778a163 163 0 0 0-5.498-3.998l-2.452-1.83a300 300 0 0 0-3.703-2.647l-1.002-.682c-1.133-.237-2.212-1.374-3.266-1.895l-.655-.539c-1.314-.965-2.728-1.994-3.897-3.129-.149-.55-1.666-1.413-2.168-1.867l-1.205-.463c.29-.626.838-1.058 1.334-1.518"/><path fill="#2a1f17" d="M202.929 280.247a25.3 25.3 0 0 1 5.121-3.621c1.043-.568 2.294-1.282 3.5-.925.508.467.502.824.668 1.481.51.479.734.469 1.402.61 1.407 4.411 3.654 8.438 5.863 12.484.72 1.369 1.396 2.806 2.23 4.107l1.262 1.951c-4.784 1.209-9.621 1.883-14.471 2.75-3.595.644-7.193 1.488-10.77 2.239-2.257.475-5.068.737-7.183 1.625l-.067.141.237.099c-1.314.625-4.618-.008-6.143-.05l-.406.114c-1.32-.429-3.474.467-4.981.31l-.317-.392h-.122c-1.103-4.198-.647-12.094-.174-16.513l.517-.518.576.022c2.2-.039 4.501-1.265 6.102-2.697.597-.535 1.173-1.263 1.929-1.554.732-.493 1.686-2.439 2.089-3.242l.1-.284c.443-.343.729-.303 1.279-.359.099.518.147 1.174.323 1.661.843-.164 1.692-.284 2.542-.412l1.531-.225c2.305-.01 5.056.808 7.363 1.198"/><path fill="#160600" d="M189.891 278.384c.443-.343.729-.303 1.279-.359.099.518.147 1.174.323 1.661.843-.164 1.692-.284 2.542-.412-.577 2.624-4.977 10.518-6.448 13.58-1.347 2.805-2.43 5.735-3.797 8.531 12.262-2.51 23.926-6.925 35.693-11.109.72 1.369 1.396 2.806 2.23 4.107l1.262 1.951c-4.784 1.209-9.621 1.883-14.471 2.75-3.595.644-7.193 1.488-10.77 2.239-2.257.475-5.068.737-7.183 1.625l-.067.141.237.099c-1.314.625-4.618-.008-6.143-.05l-.406.114c-1.32-.429-3.474.467-4.981.31l-.317-.392h-.122c-1.103-4.198-.647-12.094-.174-16.513l.517-.518.576.022c2.2-.039 4.501-1.265 6.102-2.697.597-.535 1.173-1.263 1.929-1.554.732-.493 1.686-2.439 2.089-3.242z"/><path fill="#929191" d="M189.891 278.384c.443-.343.729-.303 1.279-.359.099.518.147 1.174.323 1.661-.519.108-.759.04-1.085.49l-.109 1.077c-.657 2.46-2.541 4.915-3.845 7.085-1.398 2.328-2.522 4.751-3.824 7.124-1.043 1.901-2.348 3.728-3.217 5.714a6.6 6.6 0 0 0-.539 1.994h-.122c-1.103-4.198-.647-12.094-.174-16.513l.517-.518.576.022c2.2-.039 4.501-1.265 6.102-2.697.597-.535 1.173-1.263 1.929-1.554.732-.493 1.686-2.439 2.089-3.242z"/><path fill="#bcb4b3" d="M179.671 286.161c2.2-.039 4.501-1.265 6.101-2.697.598-.535 1.174-1.263 1.93-1.554-2.68 4.025-5.689 7.845-8.167 12.005-.295-2.683.149-5.094.136-7.754"/><path fill="#374520" d="M189.891 278.384c.443-.343.729-.303 1.279-.359.099.518.147 1.174.323 1.661-.519.108-.759.04-1.085.49l-.109 1.077c-.024-.915-.26-1.71-.508-2.585z"/><path fill="#574a1d" d="m221.713 294.383 1.262 1.951c-4.783 1.209-9.621 1.883-14.471 2.749-3.594.645-7.193 1.489-10.77 2.24-2.257.475-5.067.737-7.183 1.625l-.067.141.237.099c-1.313.625-4.617-.008-6.143-.051 1.553-.536 3.359-.671 4.98-.957 3.521-.62 7.091-1.214 10.577-2.008 7.261-1.656 14.329-4.116 21.578-5.789"/><path fill="#565657" d="M192.877 222.759c1.251-.18 2.214.295 3.228 1.009q.069.05.139.106l.054 1.043c.641.428 1.353.797 1.739 1.486l-.023.535c.961-.081 1.959-.305 2.913-.461l.79-.201c1.156-.253 2.49-.521 3.511-1.129l.564-.164c.54.349.707.982.948 1.55l.233.073.101-.066c.589 1.3.733 2.722 1.185 4.068-4.318 2.616-14.176 4.263-19.269 4.929 1.511 1.195 2.274 2.571 2.504 4.504.059.492.081.994.097 1.49l-.503 1.809c-2.748 2.378-6.547 4.963-10.341 4.869-4.076.677-7.936.727-12.032.168-.758-.332-2.116-.4-2.948-.537 1.389-5.122 3.483-10.126 5.615-14.983l.754-1.569q.97-2.08 1.898-4.178c.532-1.099 1.237-2.311 1.361-3.533l-.107-.201c5.153-.944 4.013.419 8.019 1.919q.098.037.197.07c3.133-.292 6.369-1.259 9.277-2.41z"/><path fill="#2a1f17" d="M171.382 232.857c3.172 1.917 7.132 2.479 10.768 2.682 1.023.056 2.374-.066 3.311.289-1.342 2.236-3.128 4.3-5.765 5.01-.844.228-1.719.22-2.465-.284-.888-.6-1.05-1.98-1.888-2.45a3.8 3.8 0 0 0-.804.427c.015 3.016 1.018 4.99 3.155 7.083.401.394 3.014 2.377 3.053 2.595-4.076.677-7.936.728-12.032.168-.758-.332-2.116-.4-2.948-.537 1.389-5.122 3.483-10.126 5.615-14.983"/><path fill="#4d2b10" d="M192.878 222.759c1.25-.18 2.213.295 3.227 1.009q.07.05.139.106l.054 1.043c.641.428 1.353.797 1.739 1.486l-.023.535-.295.073-.84.147-2.766.388c-.433-.007-.977-.092-1.376.076-1.041.117-2.087.262-3.133.328-.516-.02-1.033-.12-1.544-.193l-.657.314c-.741.035-1.487.014-2.229.01-1.315.106-2.675-.021-4.004.039l-1.538-.018-1.038-.166c-1.094-.048-2.09-.23-3.147-.49l-.731-.199-.682-.137c.532-1.099 1.237-2.311 1.361-3.533l-.107-.201c5.153-.944 4.013.419 8.02 1.919q.098.037.196.07c3.133-.292 6.369-1.259 9.277-2.41z"/><path fill="#2a1f17" d="M175.395 223.577c.101.34.124.807.458.965.758.363 1.992-.037 2.841-.027 3.168 1.848 3.927 2.925 7.837 1.977q.768.628 1.529 1.264l-.657.315c-.741.035-1.487.014-2.229.01-1.315.106-2.675-.021-4.004.038l-1.538-.017-1.038-.166c-1.094-.048-2.09-.23-3.147-.49l-.731-.199-.682-.137c.532-1.099 1.237-2.311 1.361-3.533"/><path fill="#374520" d="M192.877 222.759c1.25-.18 2.214.295 3.227 1.009q.07.05.139.106l.054 1.043c-1.336-.465-2.38-1.143-3.517-1.962z"/><path fill="#929191" d="m185.461 235.829.487-.576.282.043c.08 2.303.327 3.556 1.813 5.361-1.679 2.363-3.915 4.324-6.889 4.778-1.022.154-2.008 0-2.853-.622-1.824-1.345-2.751-4.301-3.763-6.282.277-.193.497-.299.804-.426.838.469 1.001 1.849 1.888 2.45.746.503 1.621.511 2.466.283 2.636-.71 4.423-2.774 5.765-5.009"/><path fill="#bcb4b3" d="m187.402 228.072 1.051.027c1.06.724 1.646 3.969 2.076 5.257q-2.795.108-5.59.187c-.195-1.564-.587-3.612-.24-5.164l.474-.297c.742.003 1.488.025 2.229-.01m-7.771.031 1.538.017c.846.159 1.769.116 2.63.139-.025 1.776.04 3.508.243 5.271a95 95 0 0 1-4.438-.319q.043-2.554.027-5.108m-4.185-.657c1.057.261 2.053.443 3.147.491.564.849.156 4.056.131 5.174a71 71 0 0 1-4.739-1.11c.532-1.502.985-3.035 1.461-4.555m17.29.176c.327.085.43.027.617.328.774 1.247 1.122 3.491 1.562 4.931l-3.579.365a234 234 0 0 0-1.733-5.296c1.046-.065 2.092-.21 3.133-.328m12.492-2.475c.675 1.518 1.339 3.043 2.085 4.527-1.161.423-2.317.875-3.508 1.211-.655-1.56-1.307-3.105-2.089-4.608 1.156-.253 2.49-.522 3.512-1.13m-7.215 1.792c.962-.081 1.96-.305 2.913-.462.664 1.566 1.346 3.126 1.989 4.697l-3.305.844c-.612-1.525-1.701-3.396-1.892-5.006zm-3.901.608 2.766-.388c.433 1.747 1.251 3.322 1.813 5.019l-2.811.554c-.568-1.726-1.077-3.506-1.768-5.185"/><path fill="#929191" d="M190.649 240.413c-1.452-.839-2.501-2.017-3.131-3.592-.227-.568-.25-.904.006-1.452.571-.207.893 0 1.465.168 1.512 1.195 2.275 2.571 2.505 4.504.059.492.081.994.097 1.49-.568.56-1.093 1.182-1.632 1.772.313-.949.498-1.911.69-2.89"/><path fill="#bcb4b3" d="m174.033 227.11.682.137c-.415 1.166-.889 3.663-1.901 4.325l-.678-.284a227 227 0 0 0 1.897-4.178"/><path fill="#565657" d="m163.142 247.132 2.625.708c.832.137 2.19.205 2.948.537l-.033.392c5.835 6.652 10.09 14.475 11.633 23.24 9.34 3.175 19.043 7.901 28.778 3.121 3.211-1.577 4.533-6.645 9.166-5.073 1.923.652 3.647 2.233 5.207 3.494l-.048.149c-.496.459-1.045.892-1.334 1.517-.599 1.039-2.915 1.811-4.039 2.114-1.461.394-2.909.571-4.425.461-.668-.141-.892-.131-1.401-.61-.166-.656-.16-1.013-.668-1.48-1.207-.358-2.458.357-3.5.924a25.4 25.4 0 0 0-5.122 3.622c-2.307-.39-5.058-1.208-7.363-1.199l-1.531.226c-.849.127-1.699.247-2.542.411-.175-.486-.223-1.143-.322-1.66-.55.056-.836.015-1.28.359l-.1.284c-.402.803-1.357 2.749-2.088 3.241-.757.292-1.332 1.02-1.93 1.554-1.601 1.433-3.902 2.659-6.101 2.697l-.577-.021-.517.517c-.074-.123-.21-.197-.324-.283-2.737.376-5.479-.334-8.132-.933-.583-.33-1.325-.537-1.954-.78-1.023-.506-2.004-1.006-2.951-1.647l-.885-.928c-.317-.382-.631-.656-1.017-.965l-.095-.257c1.974-1.191 3.003-2.568 4.148-4.527.797.286 1.464.438 2.311.477 1.115-.421 2.129-.717 3.188-1.284.708-.738 1.437-1.512 1.96-2.396 1.369-2.315 1.562-5.052.841-7.616-1.198-4.255-5.005-8.369-8.789-10.506-.9-.438-1.838-.795-2.765-1.172l.663-3.39z"/><path fill="#374520" d="M172.867 275.529c1.698-.757 2.881-1.718 4.148-3.062l2.099 1.265c1.51.741 3.013 1.502 4.539 2.21.761.271 1.888.512 2.431 1.12-.135.508-.364.541-.787.811l-.031.017c-1.34.618-2.412 1.338-3.063 2.716l-.131.176c-.771-.459-2.023-.276-2.877-.125l.164 1.202c-.055.029-.108.062-.164.087-2.559 1.172-5.645.415-8.186-.426a8 8 0 0 1-1.384-.709c-.599-.398-1.076-.855-1.233-1.579-.305-.502-.835-.772-1.157-1.38l.103-.302c.806-.2 1.566-.434 2.341-.737 1.115-.421 2.128-.716 3.188-1.284"/><path fill="#bcb4b3" d="M172.912 277.581c2.267-.196 3.73.157 5.572 1.531l.712 1.545.163 1.202c-.054.029-.107.062-.163.087-2.559 1.172-5.646.415-8.186-.426.399-1.413 1.13-2.701 1.902-3.939"/><path fill="#576c35" d="M179.115 273.733c1.51.741 3.013 1.501 4.538 2.21-1.046.286-2.064.695-3.082 1.066a62 62 0 0 0-2.925-1.485c.538-.562.997-1.178 1.469-1.791"/><path fill="#929191" d="M168.393 279.232c.082.052.374.243.455.272.103.038.215.089.323.067.219-.044 2.574-1.637 3.74-1.99-.772 1.238-1.503 2.525-1.902 3.938a8 8 0 0 1-1.383-.708c-.599-.398-1.076-.855-1.233-1.579"/><path fill="#929191" d="M187.878 277.562c.722.198 1.42.337 2.013.822l-.1.284c-.403.803-1.357 2.749-2.089 3.241-.756.292-1.332 1.02-1.929 1.554-1.601 1.433-3.902 2.659-6.102 2.697l-.576-.021-.517.517c-.074-.123-.211-.197-.324-.283-2.737.376-5.48-.334-8.133-.933-.582-.33-1.324-.537-1.953-.78-1.023-.506-2.005-1.006-2.952-1.647l-.884-.928c.915-.321 1.553-.691 2.325-1.288l.247.187c3.117 2.286 7.886 2.97 11.633 2.381 3.631-.57 7.193-2.846 9.341-5.803"/><path fill="#2a1f17" d="M164.777 250.451c.697 1.359 1.839 3.071 2.102 4.561-.9-.438-1.838-.795-2.765-1.171z"/><path fill="#576c35" d="M191.17 278.025c1.436.468 2.969.564 4.395 1.024l-1.531.225c-.849.128-1.699.248-2.542.412-.175-.487-.223-1.143-.322-1.661"/><path fill="#bcb4b3" d="M185.266 277.891c-.057.676-.571 1.188-1.065 1.614-.558.479-1.261.985-1.998 1.103.651-1.379 1.724-2.099 3.063-2.717"/><path fill="#160600" d="M179.194 280.657c.855-.15 2.106-.333 2.877.126-.8.527-1.75.973-2.713 1.077z"/><path fill="#2a1f17" d="M208.259 230.608c1.189 4.553 2.648 9.028 3.884 13.566.882 3.242 1.548 6.547 2.496 9.769-.699.357-1.309.471-2.071.594-.408.066-.244.021-.628.209-4.575-3.593-9.056-7.303-13.645-10.879.058-2.314.744-5.091.265-7.342-.174-.193-.228-.374-.512-.372-1.498.01-3.766 3.844-4.699 4.954-.693.824-1.444 1.534-2.261 2.233l.503-1.809a17 17 0 0 0-.097-1.49c-.23-1.933-.993-3.309-2.505-4.504 5.094-.666 14.951-2.313 19.27-4.929"/><path fill="#434242" d="M217.691 258.479c1.068-.46 2.045-.744 3.176-.305.264.102.521.222.778.339.04 1.684.17 3.232.639 4.858-1.909-1.284-3.697-2.817-5.444-4.311z"/><path fill="#2a1f17" d="M211.94 254.745c.385-.187.221-.143.628-.208.762-.124 1.372-.238 2.071-.595q.456 1.926.863 3.865z"/><path fill="#b85424" d="m194.991 245.697 2.087 1.487c4.615 3.309 9.339 6.54 13.768 10.1.35.301.709.545.919.963 1.166 1.516 1.32 2.927 1.1 4.817-.453 3.873-2.919 7.409-5.951 9.745-1.877 1.446-4.114 2.676-6.564 2.398-1.157-.131-2.496-.633-3.377-1.407l-.088-.157c-4.139-3.334-8.54-6.395-12.715-9.706l-1.567-1.249c4.352-5.439 8.29-11.35 12.388-16.991"/><path fill="#f19756" d="M187.498 261.738c1.952 1.67 4.169 3.056 6.251 4.565 2.479 1.798 4.883 3.705 7.452 5.375-1.382.651-2.863 1.527-4.316 1.965-4.139-3.334-8.54-6.395-12.715-9.706a199 199 0 0 0 3.328-2.199m9.58-14.554c4.615 3.309 9.339 6.54 13.768 10.1l-.88 3.581c-4.572-3.27-8.975-6.71-13.624-9.898.361-1.218.519-2.53.736-3.783"/><path fill="#565657" d="M211.764 258.248c1.166 1.515 1.321 2.926 1.101 4.816-.454 3.873-2.919 7.41-5.952 9.746-1.877 1.446-4.114 2.675-6.564 2.397-1.156-.131-2.496-.633-3.376-1.407.517.253 1.067.548 1.652.579 2.801.143 5.796-1.932 7.747-3.791 3.495-3.329 5.246-7.551 5.392-12.34"/><path fill="#f19756" d="M192.46 257.437c1.949 1.147 3.807 2.811 5.631 4.166 2.768 2.054 5.604 3.954 8.512 5.807-1.288 1.436-2.572 2.577-4.188 3.639-1.185-.407-6.973-5.199-8.469-6.284-1.823-1.322-3.719-2.533-5.561-3.826 1.435-1.087 2.806-2.222 4.075-3.502m3.415-5.411c1.718 1.446 3.625 2.716 5.438 4.044a485 485 0 0 1 8.064 6.062c-.412.902-1.35 3.546-2.166 3.983-4.792-3.022-9.126-6.701-13.904-9.688.996-1.349 1.763-2.932 2.568-4.401"/><path fill="#141414" d="M154.965 282.136c2.801.394 5.637-.274 8.254-1.272l.095.257c.386.309.7.583 1.017.965l.885.929c.947.641 1.928 1.141 2.951 1.646.629.244 1.371.45 1.954.78 2.653.599 5.395 1.309 8.132.933.114.087.25.16.325.284-.473 4.419-.93 12.314.173 16.513h.122l.318.392c1.507.157 3.66-.739 4.981-.311q.735 9.043 1.318 18.097l.113 2.114.191 3.155c.477 1.409.323 3.249.33 4.739.034 6.905-.197 9.251-2.996 15.705-.452 1.052-.835 2.258-1.6 3.121-1.917.692-21.388.213-25.076.249-2.113.02-4.232.298-6.34.259a8.2 8.2 0 0 1-2.032-.282c-6.303.155-12.632.039-18.939.035l-.059.015c-1.723.446-4.019.334-5.796.228-.388-.023-1.158-.034-1.49-.287-.077-.06-1.981-2.873-2.442-3.394-1.28-1.527-2.347-3.207-3.365-4.913-.629-1.149-1.205-2.367-1.584-3.624-1.096-3.629.109-7.496 1.851-10.728 2.011-3.734 4.953-5.934 8.988-7.127.809.897 2.788 1.751 3.207 2.513l.059-.004c.674-2.285 2.385-3.645 3.995-5.274.539-.284 1.119-.434 1.699-.61l-.021-.149c.06-1.154.375-2.328.145-3.475.263-1.16.577-2.368.689-3.552.37-3.909-.23-7.662.445-11.618-.438-.397-.825-.851-1.222-1.287-.535-.523-1.017-1.332-1.459-1.948-1.814-2.521-2.315-5.435-1.812-8.464 2.454 1.114 5.499 2.302 8.247 2.207 2.346.124 4.255-.527 6.432-1.315 1.304.06 2.593.012 3.854-.361 2.769-.814 4.183-2.718 5.463-5.141"/><path fill="#5f270d" d="M151.478 305.043c.627.013.636-.002 1.112.398.396.899.249 1.862.184 2.82l-.158 1.705c-.385 1.243-.884 2.27-1.526 3.401l-1.449 2.101-1.458 1.758c-1.393 1.537-2.745 3.166-4.307 4.535-.692.506-1.38 1.01-2.104 1.471-1.172.776-1.792 1.299-2.419 2.599 4.656 3.112 8.226 8.442 9.325 13.959.146.732.228 1.469.281 2.213l.002.168c-.023 1.594-.002 3.204-.187 4.789l-.067.923c-.168.865-.328 1.693-.627 2.525-6.303.155-12.632.039-18.939.035l-.059.015c-1.723.446-4.019.334-5.796.228-.388-.023-1.158-.035-1.49-.287-.077-.06-1.981-2.873-2.442-3.394-1.28-1.527-2.347-3.207-3.365-4.913-.629-1.149-1.205-2.367-1.584-3.624-1.096-3.629.109-7.496 1.851-10.728 2.011-3.734 4.953-5.934 8.988-7.127.809.897 2.788 1.751 3.207 2.513l.059-.004c.674-2.286 2.385-3.645 3.995-5.274.539-.284 1.119-.434 1.699-.61l-.021-.149c1.351-.048 2.615.269 3.954.388.434-.262.353-.392.483-.861l1.143-2.56c3.164-5.49 5.873-6.942 11.715-9.013"/><path fill="#141414" d="M125.244 320.613c.809.898 2.788 1.751 3.207 2.514l.059-.004.037.234c.527 1.783 1.295 3.505 2.992 4.442 1.228.693 2.068 3.533 2.43 4.851.808 2.946.903 6.647-.452 9.456-.725 1.677-1.412 3.426-2.501 4.909-.733 1.099-1.464 2.16-1.875 3.429l-.059.015c-1.723.446-4.019.334-5.796.228-.388-.023-1.158-.035-1.49-.288-.077-.06-1.981-2.872-2.442-3.394-1.28-1.527-2.347-3.206-3.365-4.913-.629-1.148-1.205-2.367-1.584-3.623-1.096-3.63.109-7.497 1.851-10.728 2.011-3.734 4.953-5.935 8.988-7.128"/><path fill="#565657" d="m115.99 342.092 17.528.014c-.725 1.677-1.412 3.426-2.501 4.909-.733 1.098-1.464 2.16-1.875 3.429l-.06.015c-1.722.446-4.019.334-5.795.228-.388-.023-1.159-.035-1.49-.288-.078-.06-1.982-2.872-2.442-3.394-1.28-1.527-2.347-3.206-3.365-4.913"/><path fill="#373739" d="M119.354 347.005c3.885.002 7.78-.054 11.663.01-.733 1.099-1.465 2.16-1.875 3.429l-.06.015c-1.722.446-4.019.334-5.796.228-.387-.023-1.158-.035-1.489-.288-.078-.06-1.982-2.872-2.443-3.394"/><path fill="#8f2e01" d="M139.353 325.831c4.657 3.112 8.227 8.442 9.326 13.959.145.732.228 1.469.28 2.213l.002.168c-.023 1.594-.002 3.204-.187 4.789l-.067.923c-1.183.533-2.587.869-3.893.784-1.412-.091-2.565-.823-3.102-2.157-.617-1.534-.315-3.399-.389-5.021-.192-4.218-.986-10.871-3.818-14.187.673-.442 1.254-.927 1.848-1.471m.41-11.775c3.164-5.49 5.873-6.942 11.716-9.013-1.05 6.309-3.895 10.703-9.138 14.459a16 16 0 0 1-1.668 1.058 19.2 19.2 0 0 0-2.053-3.944zm-5.559 3.182c.914-.044 1.509.004 2.202.645.96.892 1.314 2.27 1.3 3.54-.016 1.419-.526 2.858-1.591 3.825-.871.793-1.997 1.129-3.163 1.04-2.032-.158-3.169-1.511-4.405-2.932l-.036-.234c.673-2.286 2.384-3.645 3.995-5.274.538-.284 1.118-.434 1.698-.61m1.805 10.61c.193 0 .099-.017.321.085.697.324 1.246 2.195 1.492 2.905 1.255 3.632 3.276 14.296 1.533 17.867-.861.429-1.659.062-2.534-.208-.931-.56-1.451-1.174-2.04-2.079.402-.767.813-1.533 1.127-2.34 2.093-5.378.602-10.498-1.55-15.566.36-.405 1.131-.519 1.651-.664"/><path fill="#160600" d="M154.966 282.136c2.801.394 5.637-.274 8.253-1.272l.095.257c.387.309.701.583 1.018.965l.884.929c.947.641 1.928 1.141 2.952 1.646.628.244 1.37.45 1.953.78 2.653.599 5.395 1.309 8.133.933.113.087.249.16.324.284-.473 4.419-.929 12.314.174 16.513-.137.44-.255.852-.466 1.263-.731 1.123-1.513 1.795-2.85 2.102-1.387.319-2.805.033-4.093-.515l-1.097-1.099c-.399.908-.732 1.552-1.443 2.253-.582.521-1.145.734-1.92.732-1.254-.006-2.145-.799-2.994-1.624a33 33 0 0 1-1.121-2.231l-.315-.892c-.373.094-.663.164-1.051.175-1.189-.169-2.403-.148-3.603-.173-4.779-.242-13.034-.255-17.248-2.259-1.752-.834-4.556-3.209-5.953-3.647-.118-.036-.239-.065-.358-.098-.535-.523-1.016-1.332-1.458-1.948-1.815-2.521-2.316-5.435-1.812-8.464 2.453 1.114 5.498 2.302 8.247 2.207 2.346.124 4.255-.527 6.431-1.315 1.304.06 2.593.012 3.855-.361 2.769-.814 4.183-2.718 5.463-5.141"/><path fill="#bcb4b3" d="M163.314 281.119c.387.309.701.583 1.018.966l.884.928c.947.641 1.928 1.141 2.952 1.647.628.243 1.37.45 1.953.78 2.653.598 5.395 1.309 8.133.932.113.087.249.161.324.284-.473 4.419-.929 12.315.174 16.514-.137.44-.255.851-.466 1.262-.731 1.124-1.514 1.796-2.85 2.103-1.387.318-2.805.033-4.093-.516l-1.097-1.098c-.399.907-.732 1.552-1.443 2.253-.582.521-1.145.733-1.92.731-1.254-.005-2.145-.799-2.994-1.623a34 34 0 0 1-1.121-2.232l-.315-.892c-.22-.701-.393-1.425-.586-2.133-.986-5.394-1.108-10.813-.13-16.199a14.3 14.3 0 0 1 1.577-3.707"/><path fill="#bcb4b3" d="M163.314 281.119c.387.309.701.583 1.018.966l.884.928c.947.641 1.928 1.141 2.952 1.647-.899 5.732-1.124 15.128 2.078 20.261-.399.907-.732 1.552-1.443 2.253-.582.521-1.145.733-1.92.731-1.254-.005-2.145-.799-2.994-1.623a34 34 0 0 1-1.121-2.232l-.315-.892c-.22-.701-.393-1.425-.586-2.133-.986-5.394-1.108-10.813-.13-16.199a14.3 14.3 0 0 1 1.577-3.707"/><path fill="#929191" d="M163.314 281.119c.387.309.701.583 1.018.966l.884.928c-1.732 5.821-1.711 11.502-.751 17.448.264 1.637.538 3.496 1.318 4.979.34.647.909 1.429 1.638 1.672.479.162.894.114 1.382.062-.582.521-1.145.733-1.92.731-1.254-.005-2.145-.799-2.994-1.623a34 34 0 0 1-1.121-2.232l-.315-.892c-.22-.701-.393-1.425-.586-2.133-.986-5.394-1.108-10.813-.13-16.199a14.3 14.3 0 0 1 1.577-3.707m4.854 3.541c.628.243 1.37.45 1.953.78-.657 5.191-1.136 14.373 2.346 18.73.64.801 1.491 1.361 2.533 1.428 1.271.081 2.283-.451 3.286-1.166-.731 1.124-1.514 1.796-2.85 2.103-1.387.318-2.805.033-4.093-.516l-1.097-1.098c-3.202-5.133-2.977-14.529-2.078-20.261"/><path fill="#2a1f17" d="M142.834 292.048c3.616-2.796 7.988-3.398 12.235-4.67 2.294-.69 4.479-1.595 6.669-2.551-.978 5.387-.857 10.806.129 16.199-1.673-.48-3.674-.546-5.411-.793-5.534-.79-9.183-1.904-14.179-4.51.131-1.243.307-2.45.557-3.675"/><path fill="#373739" d="m185.603 323.462.191 3.154c.478 1.409.324 3.249.331 4.74.034 6.905-.197 9.251-2.996 15.704-.452 1.053-.835 2.259-1.6 3.122-1.917.691-21.388.212-25.076.249-2.113.019-4.232.297-6.34.259a8.3 8.3 0 0 1-2.032-.282c.299-.832.459-1.66.627-2.525l.067-.923c.184-1.585.163-3.195.187-4.79l-.002-.168 18.701-.013c3.34-7.249 10.568-15.24 17.942-18.527"/><path fill="#565657" d="M168.181 347.009c2.971-6.627 7.875-13.477 13.665-17.888 1.236-.942 2.612-1.714 3.948-2.504.478 1.409.324 3.249.331 4.74.034 6.905-.197 9.251-2.997 15.704q-7.473-.079-14.947-.052m-19.22-4.838 18.61.002c-.723 1.589-1.281 3.168-1.798 4.832-5.655.004-11.348.147-16.999-.044.185-1.585.164-3.195.187-4.79"/><path fill="#373739" d="m162.453 303.159.315.892c.353.759.712 1.5 1.121 2.232-.112.953-.039 3.212-.757 3.774-1.174.917-4.376.731-5.803.453-.658-.129-.92-.314-1.318-.843-.039-.327-.071-.597-.044-.927l.237-.068c1.317-.816 2.993-1.384 4.105-2.472.925-.906 1.098-1.591 1.093-2.865.387-.012.678-.081 1.051-.176"/><path fill="#565657" d="m162.453 303.159.315.892c-.047.085-.097.17-.141.257-.721 1.434.25 4.133-1.565 4.739-.993.334-3.702.172-4.649-.239-.075-.035-.139-.091-.209-.136 1.318-.816 2.993-1.384 4.106-2.472.925-.906 1.097-1.591 1.092-2.865.388-.012.678-.081 1.051-.176m-8.943 12.035c-.012-.699.078-1.409.6-1.927.98-.971 3.411-.455 4.725-.577l.197-.021c.545.143.639.15 1.016.56.384 1.959.57 9.083-.06 10.953-.874.769-3.014.529-4.133.452-.929-.064-1.83-.073-2.579-.687-.302-.583-.306-1.01-.303-1.66l1.075-.336c.536-.145 1.013-.305 1.463-.641.657-.491 1.031-1.357 1.091-2.162.201-2.711-1.825-2.356-2.972-3.796z"/><path fill="#373739" d="M159.032 312.669c.546.143.639.151 1.016.56.384 1.959.57 9.083-.06 10.954-.874.768-3.014.529-4.133.451-.929-.063-1.83-.073-2.579-.687-.302-.583-.306-1.01-.303-1.66l1.075-.336c.106.481.109.666.433 1.025 1.093.403 2.29.33 3.441.355.755-3.577.528-7.108 1.11-10.662"/><path fill="#141414" d="M240.431 288.269a162 162 0 0 1 5.498 3.998c-.658 1.037-1.405 1.948-2.2 2.88 1.673 1.299 2.119 3.097 2.374 5.12.228 1.813.243 3.656.149 5.479-.025 1.052.062 2.226-.411 3.191.098 1.444.797 2.734.909 4.183l-.014.815c.178 1.684.367 3.348.338 5.045l-.013.482c.075.433.148.863.243 1.292l1.778-.193c4.523-.311 9.158.368 12.697 3.426 2.996 2.591 5.185 7.184 5.51 11.112.224 2.732-.792 5.083-2.022 7.443l-.094.102a34.5 34.5 0 0 1-3.242 4.749c-1.009 1.17-1.93 2.425-2.855 3.66l-40.942-.023c-5.898-.019-12.022.367-17.889-.083-1.167-.627-1.606-2.342-2.092-3.498-3.612-8.608-3.095-11.477-2.653-20.467l.189-3.188.141-2.075c.286-6.133.923-12.253 1.329-18.381-2.138.06-4.283-.212-6.438-.15l-.237-.099.067-.141c2.116-.888 4.926-1.15 7.183-1.625 3.577-.751 7.176-1.595 10.77-2.239 4.85-.867 9.688-1.541 14.471-2.749.437.611.869 1.32 1.634 1.548 2.666.789 8.027-3.539 10.457-4.873l.18-.098c1.515-1.718 3.581-2.954 5.185-4.643"/><path fill="#373739" d="M195.689 323.795q.363.19.722.39.36.199.715.403a45 45 0 0 1 1.403.851 43 43 0 0 1 1.369.906 40 40 0 0 1 1.983 1.459 36 36 0 0 1 1.272 1.037q.312.266.62.537.309.271.61.55.303.277.598.562a35 35 0 0 1 1.162 1.158 35 35 0 0 1 1.116 1.205 32 32 0 0 1 1.068 1.247q.26.317.513.639.255.322.502.648.249.328.489.661.24.332.476.668a45 45 0 0 1 1.346 2.061q.214.35.421.705t.407.712a50 50 0 0 1 .77 1.45q.186.365.363.736l20.67.029c3.101-.002 6.234-.099 9.329.011h14.718c2.153-.004 4.855-.324 6.936.122l-.094.102a34 34 0 0 1-3.241 4.749c-1.01 1.17-1.931 2.425-2.856 3.661l-40.942-.024c-5.898-.019-12.022.367-17.888-.083-1.168-.627-1.607-2.341-2.093-3.498-3.612-8.608-3.095-11.477-2.653-20.467z"/><path fill="#565657" d="m213.715 342.554 34.27.021c5.381 0 11.91-.369 17.188.07a34.5 34.5 0 0 1-3.242 4.749h-46.458c-.409-1.686-1.057-3.257-1.758-4.84M195.5 326.982q.366.224.724.456.36.231.715.469.354.237.704.483.352.245.697.498a42 42 0 0 1 2.029 1.567q.33.273.656.549a43 43 0 0 1 2.514 2.318q.303.302.6.608.298.307.589.622.292.313.575.631.286.32.564.643.28.324.552.653a49 49 0 0 1 1.066 1.337 51 51 0 0 1 1.012 1.379 49 49 0 0 1 .959 1.415q.234.359.459.722a42 42 0 0 1 1.292 2.216 45 45 0 0 1 1.863 3.846 883 883 0 0 0-14.917.056c-3.612-8.608-3.095-11.477-2.653-20.468"/><path fill="#84673c" d="M240.431 288.269a162 162 0 0 1 5.498 3.998c-.658 1.037-1.405 1.948-2.2 2.88-4.074 3.813-6.309 4.294-11.63 5.543-2.214.699-4.51 1.148-6.77 1.677-1.46.141-2.94.342-4.404.408l-2.399.164-.937.004c-4.303.179-8.594.206-12.901.208-2.288.002-4.919-.218-7.17.137l-.359.05c-2.138.06-4.283-.212-6.438-.15l-.237-.099.067-.141c2.116-.888 4.926-1.15 7.183-1.625 3.577-.751 7.176-1.595 10.77-2.239 4.85-.867 9.688-1.541 14.471-2.749.437.611.869 1.32 1.634 1.548 2.666.789 8.027-3.539 10.457-4.873l.18-.098c1.515-1.718 3.581-2.954 5.185-4.643"/><path fill="#574a1d" d="M240.432 288.269a163 163 0 0 1 5.498 3.998c-.658 1.037-1.406 1.948-2.201 2.88-4.073 3.813-6.309 4.294-11.629 5.543 3.799-2.749 6.108-5.871 8.818-9.649-1.878.676-3.745 1.338-5.672 1.871 1.516-1.718 3.581-2.954 5.186-4.643"/><path fill="#373739" d="m218.526 302.939 2.399-.165c-.542.483-1.017.927-1.069 1.705-.056.817.457 1.5 1.031 2.019 1.169 1.066 2.795 1.802 4.183 2.543l.322.15c-.063.765-.198 1.066-.739 1.599-1.089.396-3.77.328-4.96.176-.714-.091-1.382-.375-1.795-.991-.932-1.392-.604-5.425-.309-7.033z"/><path fill="#565657" d="m218.525 302.939 2.4-.165c-.542.483-1.017.927-1.069 1.705-.056.817.457 1.5 1.03 2.019 1.17 1.066 2.796 1.802 4.184 2.543a2.3 2.3 0 0 1-.647.249c-1.187.27-3.566.643-4.598-.135-1.166-.881-1.076-4.761-1.3-6.216m9.802 19.729c.005.296.031.639-.025.927-.089.463-.298.832-.719 1.064-.953.529-4.805.666-5.824.195-.417-.195-.612-.39-.722-.84-.299-1.208-.147-9.873.427-10.643.183-.245.519-.224.801-.28 1.367.037 3.867-.369 4.903.575.558.506.601 1.304.601 2q-.064.071-.124.141c-1.251 1.352-2.981.985-2.99 3.498-.002.794.357 1.751.965 2.28.456.394 1.054.618 1.626.782z"/><path fill="#373739" d="M228.326 322.67c.006.295.031.639-.025.926-.089.464-.297.832-.718 1.064-.954.529-4.805.666-5.824.195-.417-.195-.612-.39-.722-.84-.3-1.208-.147-9.873.426-10.643.184-.245.519-.224.801-.28.334 1.925.286 3.923.415 5.871.105 1.595.356 3.182.61 4.757.805-.016 3.026.137 3.589-.467.244-.261.28-.551.367-.885z"/><path fill="#434242" d="M272.416 203.626c1.99.018 3.805.574 5.245 2.022.228.229.477.476.67.737 1.321 1.753 1.805 3.5 1.527 5.68-.042.339-.033.249-.133.612-.369 1.1-.884 1.926-1.454 2.915.919 1.434 2.574 5.903 2.188 7.573-.176.761-.749 1.255-1.417 1.602-1.278.661-2.84 1.08-4.203 1.566.203 1.16.384 2.288.444 3.465-.058 1.719-.039 3.748-1.373 5.037-.397.382-.899.62-1.397.84-1.336-3.888-3.238-6.35-6.545-8.743.11-.265-.718-5.45-.784-6.419-.135-2.045.087-3.925.361-5.943l.143-1.281c.023-.363-.073-.753-.125-1.114-.081-.402-.097-.79-.107-1.199-.052-1.954.583-3.713 1.966-5.118 1.32-1.342 3.11-2.174 4.994-2.232m-5.676 8.28c1.767.278 3.004 1.45 4.041 2.846.473.639.853 1.361 1.235 2.058 1.244.137 2.549-.147 3.657-.72 1.745-.904 2.479-2.363 3.042-4.149.074-1.083.052-2.06-.312-3.096a7 7 0 0 0-.228-.57 8 8 0 0 0-.137-.274 5 5 0 0 0-.151-.268 5.6 5.6 0 0 0-.529-.751 5 5 0 0 0-.203-.232 7 7 0 0 0-.438-.431 5.4 5.4 0 0 0-.735-.552 6 6 0 0 0-.811-.434 7 7 0 0 0-.577-.22 5 5 0 0 0-.298-.087 5 5 0 0 0-.604-.131 6 6 0 0 0-.923-.081 6.3 6.3 0 0 0-1.83.258q-.149.045-.293.097-.147.05-.29.11c-1.977.824-2.927 2.334-3.662 4.239.044.8.056 1.589.046 2.388"/><path fill="#434242" d="M272.417 203.626c1.99.018 3.805.574 5.245 2.022.228.229.477.476.67.737 1.32 1.753 1.805 3.5 1.527 5.68-.043.339-.033.249-.133.612-.369 1.1-.885 1.926-1.454 2.915-.288.239-.774.544-.979.843-1.645 1.238-3.201 1.713-5.263 1.668l-.76-.104c-1.67-.444-2.906-1.154-4.064-2.44-.593-.458-1.102-1.608-1.517-2.27.023-.363-.074-.753-.126-1.114-.081-.402-.096-.79-.106-1.199-.052-1.954.583-3.713 1.965-5.118 1.321-1.342 3.11-2.174 4.995-2.232m-5.676 8.28c1.766.278 3.004 1.45 4.04 2.846.473.639.854 1.361 1.236 2.058 1.243.137 2.548-.147 3.656-.72 1.746-.904 2.479-2.363 3.043-4.149.073-1.083.052-2.06-.313-3.096a7 7 0 0 0-.106-.288 5 5 0 0 0-.259-.556 5 5 0 0 0-.15-.268 5 5 0 0 0-.34-.51 5 5 0 0 0-.392-.473 5 5 0 0 0-.214-.22 9 9 0 0 0-.224-.211 7 7 0 0 0-.481-.38 8 8 0 0 0-.517-.332 5 5 0 0 0-.271-.143 7 7 0 0 0-.563-.249 8 8 0 0 0-.292-.102 5 5 0 0 0-.297-.087 5 5 0 0 0-.604-.131 6 6 0 0 0-.923-.081 6.4 6.4 0 0 0-.925.059 5 5 0 0 0-.305.053 6 6 0 0 0-.6.146 6 6 0 0 0-.583.207c-1.977.824-2.927 2.334-3.662 4.239.044.8.055 1.589.046 2.388"/><path fill="#373739" d="M272.415 203.626c1.991.018 3.805.574 5.246 2.022.227.229.476.476.669.737q.012.134.026.265c.249 2.214 1.656 3.003.359 5.291.073-1.083.052-2.06-.313-3.096a9 9 0 0 0-.106-.288 6.4 6.4 0 0 0-.749-1.334 7 7 0 0 0-.392-.473 6 6 0 0 0-.214-.22 9 9 0 0 0-.224-.211 9 9 0 0 0-.236-.196 5 5 0 0 0-.245-.184 8 8 0 0 0-.518-.332 5 5 0 0 0-.27-.143 7 7 0 0 0-.563-.249 8 8 0 0 0-.292-.102 5 5 0 0 0-.297-.087 5 5 0 0 0-.605-.131 6 6 0 0 0-1.231-.076 6 6 0 0 0-.616.054 5 5 0 0 0-.305.053 6 6 0 0 0-.6.146q-.15.045-.294.097a4 4 0 0 0-.289.11c-1.977.824-2.927 2.334-3.663 4.239-.127-.604-.114-1.058.095-1.635.886-2.463 3.479-3.259 5.627-4.257"/><path fill="#565657" d="M266.74 211.907c1.767.278 3.004 1.45 4.041 2.845.473.639.853 1.361 1.235 2.058-.938 0-1.764-.293-2.558-.789-1.529-.952-2.351-2.392-2.718-4.114"/><path fill="#373739" d="M267.205 215.56c1.942.239 3.259 1.977 5.631 1.992 3.205.023 4.722-2.818 6.753-4.749l.136-.126c-.369 1.101-.885 1.927-1.454 2.916-.288.239-.774.544-.979.843-1.645 1.238-3.201 1.713-5.263 1.668l-.76-.104c-1.67-.444-2.906-1.155-4.064-2.44"/><path fill="#565657" d="M265.688 213.29c.415.662.924 1.813 1.517 2.27 1.158 1.286 2.394 1.996 4.064 2.44.006 1.07.139 2.18.423 3.213.309 1.123 1.397 2.778 1.314 3.901-.021.298-.218.33-.44.487-1.504.162-3.162-.433-4.591-.867-1.613-2.987-2.164-6.79-2.43-10.162zm11.604 3.147c.687 1.876.973 4.231 1.072 6.235-1.352.344-3.323 1.016-4.603.191-1.316-.847-1.482-3.34-1.731-4.758 2.061.044 3.617-.431 5.262-1.668"/><path fill="#8f2e01" d="M125.245 320.613c-2.334-2.737-3.664-5.484-3.793-9.106-.07-1.954.501-6.784 1.828-8.211l.393.002.342.346c4.027 2.542 7.032 8.49 8.048 13 .07.311.106.62.141.936l.302.269c-1.611 1.629-3.321 2.988-3.995 5.274l-.06.004c-.418-.763-2.397-1.616-3.206-2.514"/><path fill="#5f270d" d="M125.245 320.613c-2.334-2.737-3.664-5.484-3.793-9.106-.07-1.954.501-6.784 1.828-8.211l.393.002.342.346c-.293 6.436.827 10.977 4.992 15.973.92-.925 1.841-1.857 3.197-2.037l.302.269c-1.611 1.629-3.321 2.988-3.995 5.274l-.06.004c-.418-.763-2.397-1.616-3.206-2.514"/><path fill="#fff" d="M172.12 22.06c-2.53 5.25-5.77 16.22-4.38 21.91 3.3-.58 6.79-.67 10.14-.9.03-.27.02-.26.08-.56.22-1.12.87-1.57 1.78-2.18 3.46-1.56 7.76-2.35 12.02-2.35 3.11 0 6.19.42 8.9 1.25.43.13.85.28 1.26.43.34.13.65.28.96.43.12.06.25.1.36.16.06.03.12.08.18.11.36.2.71.4 1.05.65.08.09.16.18.23.27.36.45.47.99.61 1.53 2.85.74 6.16.03 8.97.8.78.05 1.56.12 2.34.2s1.55.16 2.33.26c.77.1 1.55.21 2.32.33s1.54.25 2.31.4c.77.14 1.53.3 2.3.46.76.17 1.52.34 2.28.53s1.51.39 2.27.6q1.125.315 2.25.66c.75.23 1.49.47 2.23.73a83 83 0 0 1 4.39 1.64c.45.18.9.38 1.35.57.27.11.54.22.81.34.23.1.45.21.68.31.48.22.97.44 1.45.67.7.34 1.4.68 2.1 1.04s1.39.72 2.07 1.1 1.36.76 2.04 1.16c2.79 1.63 5.51 3.43 7.94 5.56 1.05.92 2.06 1.9 2.98 2.97a1 1 0 0 1 .08.1c0 .01.02.02.03.03 9.17 9.38 15.18 22.13 17.2 35.04.47 3.03.18 5.99.56 8.76.11.11.22.24.33.36.37.39.74.78 1.09 1.19l.13.16c1.31 1.57 2.49 3.29 3.66 4.94.59.97 1.13 1.91 1.62 2.87.64 1.26 1.2 2.55 1.63 3.98l.24.61c.51 1.37 1.14 3.55 1.2 4.93.01.23 0 .44-.02.61l-.18.23c-.72-.8-1.07-1.84-1.68-2.73-.96-1.39-2.09-2.69-3.16-4 .02.16.03.33.04.49.18 1.81.3 3.61.41 5.43.42 3.29 1.13 6.43 1.37 9.59 0 .12.02.23.03.35.05.71.07 1.42.05 2.14v.05c-.04 1.83-.3 3.68-.93 5.58-.55 1.25-1.14 2.34-1.97 3.43-.64-2.51-1.37-5-2.18-7.47-2.58 8.63-5.69 17.21-8.82 25.67-.2.55-.41 1.14-.64 1.76-.33.93-.69 1.92-1.06 2.95-1.38 3.75-3.02 7.89-4.82 10.47.09 1.6.14 3.25.12 4.91-.09 7.2-1.49 14.68-6.37 20.12-2 2.24-4.38 3.83-6.99 5.29l.17.22c2.86.6 6.15 1.36 8.74 2.75 1.1-.47 2.13-.8 3.31-1.05.53-.28 1.11-.5 1.65-.74.02.17.06.35.09.53v.02c.01.1.01.19.02.28 0 .09.02.19.02.27.02-.36-.07-.75-.12-1.11-.08-.4-.1-.79-.11-1.2-.05-1.95.58-3.71 1.97-5.12 1.32-1.34 3.11-2.17 4.99-2.23 1.99.02 3.8.57 5.24 2.02.23.23.48.48.67.74 1.32 1.75 1.8 3.5 1.53 5.68-.04.34-.03.25-.13.61-.37 1.1-.88 1.93-1.45 2.91.92 1.43 2.57 5.9 2.19 7.57-.18.76-.75 1.26-1.42 1.6-1.28.66-2.84 1.08-4.2 1.57.2 1.16.38 2.29.44 3.46-.06 1.72-.04 3.75-1.37 5.04-.28.27-.61.45-.95.62.34-.17.67-.36.95-.62 1.33-1.29 1.32-3.32 1.37-5.04.49 1.56 1.09 3.08 1.49 4.67 1.1 4.45 2.19 11.16 1.36 16.54-.26 1.67-.69 3.21-1.38 4.51-.03.05-.06.1-.08.15-.66 1.17-1.44 2.26-2.32 3.25-2.64 2.99-6.19 5.17-10.03 6.26-.94.27-1.86.48-2.78.63-.92.16-1.83.24-2.74.24-2 0-3.96-.43-5.92-1.52-.9-.5-1.69-1.16-2.43-1.88l-.61 1.27c1.88 1.7 4.36 4.22 5.18 6.62-.13 1.05-.38 2.05-.59 3.07-.07.34-.14.68-.19 1.03-.33 2.02.01 4.23-.89 6.11-.16.11-.32.22-.47.31-1.1.67-2.19 1.03-3.18 2.04 3.45 2.43 6.86 4.92 10.23 7.46l1.33.9a319 319 0 0 0-6.05 7.58c-2.97-2.27-6.09-4.84-9.28-6.78-.66 1.04-1.41 1.95-2.2 2.88 1.67 1.3 2.12 3.1 2.37 5.12.23 1.81.24 3.66.15 5.48-.03 1.05.06 2.23-.41 3.19.1 1.44.8 2.73.91 4.18v.82c.16 1.68.35 3.35.32 5.04v.48c.06.43.13.86.23 1.29l1.78-.19c.65-.04 1.29-.07 1.94-.07 3.88 0 7.72.87 10.76 3.49 3 2.59 5.18 7.18 5.51 11.11.22 2.73-.79 5.08-2.02 7.44l-.09.1c-.47.83-.98 1.65-1.52 2.44-.4.59-.84 1.16-1.28 1.72-.15.19-.28.4-.44.59-1.01 1.17-1.93 2.42-2.86 3.66l-40.94-.02h-.43c-1.33 0-2.68.02-4.02.04-2.24.04-4.5.09-6.75.09h-.06c-2.23 0-4.44-.05-6.62-.22-.53-.29-.91-.8-1.21-1.39-.36-.69-.61-1.48-.88-2.11-2.48-5.92-3.01-9.12-2.96-13.47.02-1.98.17-4.19.31-7l.19-3.19.14-2.08c.29-6.13.92-12.25 1.33-18.38h-.64c-1.7 0-3.41-.17-5.12-.17h-.67c-.43.2-1.07.27-1.8.27-1.49 0-3.32-.3-4.35-.32l-.41.11a3 3 0 0 0-.86-.12h-.26c-1.1.06-2.41.44-3.48.44-.13 0-.26 0-.38-.02.12.01.25.02.38.02 1.16 0 2.59-.45 3.73-.45.31 0 .6.03.86.12.49 6.03.93 12.06 1.32 18.1l.11 2.11.19 3.15c.3.88.35 1.93.35 2.96 0 .62-.02 1.22-.02 1.78v1.24c0 1.57-.03 2.9-.12 4.11v.05c-.11 1.49-.31 2.82-.67 4.21 0 .04-.02.07-.03.11l-.12.43c-.04.15-.08.3-.13.45 0 .01 0 .03-.01.04-.44 1.47-1.06 3.07-1.93 5.07-.45 1.05-.84 2.26-1.6 3.12-.82.3-4.82.38-9.44.38-5.81 0-12.58-.13-15.16-.13h-.48c-1.97.02-3.95.26-5.93.26h-.41c-.7-.01-1.35-.1-2.03-.28-2.51.06-5.02.08-7.53.08-3.8 0-7.61-.04-11.41-.05-.02 0-.04 0-.06.01-.43.11-.9.19-1.38.24-.49.05-.99.08-1.5.08h-.34c-.9 0-1.79-.05-2.58-.1-.39-.02-1.16-.03-1.49-.29-.08-.06-1.98-2.87-2.44-3.39-1.28-1.53-2.35-3.21-3.36-4.91-.63-1.15-1.21-2.37-1.58-3.62-.27-.91-.4-1.83-.42-2.75-.04-2.77.96-5.55 2.27-7.98 2.01-3.73 4.95-5.93 8.99-7.13-2.33-2.74-3.66-5.48-3.79-9.11-.07-1.95.5-6.78 1.83-8.21h.39l.34.35c4.03 2.54 7.03 8.49 8.05 13 .07.31.11.62.14.94l.3.27c.54-.28 1.12-.43 1.7-.61l-.02-.15c.06-1.15.37-2.33.14-3.47.26-1.16.58-2.37.69-3.55.37-3.91-.23-7.66.45-11.62-.44-.4-.83-.85-1.22-1.29-.53-.52-1.02-1.33-1.46-1.95-1.81-2.52-2.31-5.43-1.81-8.46-.3-.09-.52-.21-.75-.41-3.25-2.7-4.73-7.28-5.12-11.32l-.3-.92c-.71-.24-1.43-.42-2.01-.91l-.13-.31c-.25-.57-.43-1.09-.94-1.47-.33.12-.63.31-.91.52-.86.65-1.59 1.61-2.4 2.24-1.52 1.16-4.71 1.81-7.22 1.81-.84 0-1.6-.07-2.2-.22-.36-.3-.4-.33-.52-.78.38-.72.83-1.47 1.35-2.2 1.54-2.21 3.62-4.3 5.97-5.2l.48-.1a1.2 1.2 0 0 0 .21-.65c0-.21-.03-.44-.04-.71-.59-.57-1.2-1.15-1.74-1.77-3.36-3.81-5.48-10.65-5.69-16.14-.03-.78-.02-1.54.03-2.26-.08-.21-.16-.44-.22-.69-.18-.74-.26-1.65-.26-2.64-.01-3.99 1.16-9.48 1.76-12.21 1.46-4.85 3.92-10.39 7.97-13.55 1.93-1.11 3.71-2.24 5.91-2.72h.06c.76 0 1.54-.14 2.3-.24-.98-.23-2.56-.82-3.11-1.67l.13-.36c.83-.65 1.84-.83 2.87-.83.52 0 1.04.04 1.54.09.22.02.43.04.64.07-2.57-1.15-4.5-2.36-6.52-4.34-2.21-2.34-3.4-5.22-4.58-8.17l-.31-1.3c-1.05-4.65-1.33-9.24-1.3-13.88.02-2.78.16-5.58.31-8.41-.08-.31-.37-.79-.78-1.35-1.22-1.7-3.5-4.2-4.26-5.58-5.8-10.47-7.03-19.4-7.1-30.4 0-1.57 0-3.19.03-4.85-1.09 1.16-2.19 2.31-3.26 3.5-.02-.47-.02-.92-.02-1.36 0-6.57 1.75-9.96 5.72-15.64-6.89 5.42-13.84 10.85-20.92 16.02.83-1.8 1.27-3.76 2.11-5.57 1.94-5.45 5.78-10.97 9.49-15.4v-.01c.62-.75 1.28-1.46 1.94-2.17s1.32-1.42 1.94-2.17c.6-.81 1.63-2.5 2.64-2.74.07-.02.15-.01.22-.03.12-.03.23-.06.34-.09-1.48-3.66 4.57-20.65 6.38-24.95 4.32-10.28 10.96-19.82 19.8-26.72 2.18-1.71 4.58-3.41 7.16-4.47.27-3 .64-5.98 1.13-8.95.16-1.37.46-2.71.64-4.07 0-.02 0-.05.01-.07 1.37 3.6 2.72 7.21 4.05 10.82.68-.2 1.36-.36 1.96-.75.02-.22.05-.44.08-.66.65-5.03 3.61-10.84 5.97-15.25 1.63-3.07 3.44-6.03 5.44-8.87-1.03 6.67-2.3 15.74-1.96 22.36l.97.02.29-.29c.1-.45.21-.89.32-1.33.12-.44.24-.88.37-1.32s.27-.87.41-1.31c.15-.43.3-.86.46-1.29s.33-.85.5-1.27c.03-.06.06-.13.08-.19.15-.36.3-.71.47-1.07.16-.36.33-.71.51-1.06.03-.06.05-.12.08-.17.04-.07.08-.14.11-.21a31 31 0 0 1 1.2-2.19c.23-.39.47-.78.72-1.16s.5-.76.76-1.14c.18-.27.38-.53.57-.79.08-.11.15-.22.23-.32q.405-.555.84-1.08c.29-.36.58-.71.88-1.05.3-.35.6-.69.91-1.02s.63-.66.95-.99a29 29 0 0 1 4.02-3.39q.72-.51 1.47-.96m100.53 194.86h.31c.94-.05 1.89-.32 2.72-.75 1.74-.9 2.48-2.36 3.04-4.15.07-1.08.05-2.06-.31-3.1-.03-.1-.07-.19-.11-.29s-.08-.19-.12-.28-.09-.18-.14-.27l-.15-.27c-.05-.09-.11-.17-.16-.26-.06-.08-.11-.17-.17-.25s-.12-.16-.19-.24-.13-.16-.2-.23c-.07-.08-.14-.15-.21-.22s-.15-.14-.22-.21c-.08-.07-.16-.13-.24-.2l-.24-.18c-.08-.06-.17-.12-.26-.17-.09-.06-.17-.11-.26-.16s-.18-.1-.27-.14c-.09-.05-.18-.09-.28-.13-.09-.04-.19-.08-.29-.12s-.19-.07-.29-.1l-.3-.09c-.1-.03-.2-.05-.3-.07l-.3-.06c-.1-.02-.2-.03-.31-.04l-.31-.03c-.1 0-.21 0-.31-.01h-.31c-.1 0-.21.01-.31.02-.1 0-.21.02-.31.03-.1.02-.21.03-.3.05-.1.02-.2.04-.3.07-.1.02-.2.05-.3.08s-.2.06-.29.1c-.1.03-.19.07-.29.11-1.98.82-2.93 2.33-3.66 4.24.04.8.05 1.59.05 2.39 1.77.28 3 1.45 4.04 2.85.47.64.85 1.36 1.24 2.06q.315.03.63.03m-109.35 64.27-.02-.07-.07-.19zm8.81-271.06c-2.15 0-4.32.58-6.25 1.76-.7.43-1.4.88-2.08 1.36l-.18.12q-1.005-.675-2.16-1.14c-1.46-.59-2.98-.87-4.49-.87-3.81 0-7.51 1.82-9.81 5.08-2.19 3.1-4.21 6.38-6.01 9.74-.55-.08-1.11-.12-1.67-.12s-1.12.04-1.69.12a12.004 12.004 0 0 0-10.22 10.32c-.06.46-.15.93-.23 1.4-.13.78-.29 1.65-.41 2.61q-.255 1.59-.48 3.21c-1.2.82-2.3 1.65-3.32 2.45-9.95 7.78-18.07 18.68-23.47 31.53-.99 2.36-3.11 8.03-4.86 13.95-1.19 4.01-1.97 7.29-2.37 10.08-.3.4-.56.76-.77 1.06-.38.44-.82.92-1.26 1.38l-.04.04c-.69.75-1.47 1.59-2.27 2.54-.02.02-.04.04-.05.06 0 0 0 .01-.01.02-5.38 6.44-9.2 12.67-11.38 18.55-.56 1.29-.97 2.48-1.3 3.46-.21.62-.43 1.27-.58 1.59a12 12 0 0 0 3.3 14.31c2.21 1.81 4.9 2.72 7.6 2.72 2.33 0 4.67-.68 6.7-2.05.66 9.53 2.75 18.51 8.34 28.6.9 1.63 2.09 3.13 3.35 4.68-.06 1.55-.11 3.15-.12 4.77-.05 6.3.46 11.58 1.59 16.6 0 .04.02.09.03.13l.31 1.3q.21.87.54 1.71c.68 1.7 1.5 3.73 2.64 5.85-4.46 4.19-7.89 10.22-10.22 17.95-.09.3-.17.6-.23.9-1.02 4.65-2.05 10.06-2.04 14.82 0 1.71.15 3.24.43 4.66 0 .44 0 .89.03 1.34.17 4.45 1.31 10.49 3.85 16.03q-.48.63-.9 1.23c-.77 1.1-1.48 2.26-2.1 3.44a11.98 11.98 0 0 0-1 8.69c.73 2.77 2.1 4.93 4.29 6.81a12.2 12.2 0 0 0 4.94 2.55c1.53.38 3.24.57 5.09.57.92 0 2.83-.06 5.12-.46.77 1.55 1.66 2.99 2.67 4.3l.03.27c-1.69.65-3.24 1.68-4.5 3.03-5.27 5.67-5.07 15.69-5.03 16.81.05 1.45.21 2.85.49 4.22-1.65 1.71-3.07 3.68-4.26 5.89-2.52 4.68-3.77 9.34-3.7 13.85.03 2.07.34 4.1.93 6.04.57 1.9 1.4 3.83 2.55 5.92.07.13.14.26.22.39 1.15 1.92 2.57 4.18 4.4 6.39.27.37.9 1.27 1.18 1.67.98 1.41 1.69 2.43 3.15 3.56.03.03.07.05.1.08 3.25 2.48 6.72 2.65 8.02 2.72h.05c1 .06 2.1.12 3.27.12h.51a26 26 0 0 0 3.96-.34c1.42 0 2.85.01 4.27.02 1.98.01 3.96.02 5.94.02 2.43 0 4.52-.02 6.46-.05.96.15 1.93.24 2.92.25h.6c1.41 0 2.7-.08 3.85-.16.81-.05 1.57-.1 2.19-.11h.36c1 0 2.65.02 4.64.04 3.1.04 6.97.09 10.52.09 8.98 0 11.25-.27 13.51-1.09 1.86-.67 3.53-1.8 4.86-3.27 1.17 1.37 2.54 2.48 4.11 3.32a11.9 11.9 0 0 0 4.76 1.39c2.26.17 4.66.25 7.54.25h.06c1.91 0 3.8-.04 5.63-.07l1.33-.02c1.15-.02 2.49-.04 3.81-.04h.39l40.98.02c3.78 0 7.34-1.78 9.61-4.81l.3-.41c.72-.97 1.4-1.88 2.03-2.6.08-.09.15-.17.22-.26.23-.29.45-.58.67-.88.49-.63 1.07-1.38 1.66-2.24.57-.83 1.12-1.7 1.63-2.57.26-.38.49-.78.71-1.18 1.92-3.68 3.81-8.21 3.34-13.97-.59-7.13-4.37-14.66-9.62-19.21a25.4 25.4 0 0 0-9.17-5.07c1.61-.78 3.08-1.94 4.25-3.46 1.89-2.44 3.84-4.89 5.81-7.29 2.15-2.61 3.1-6.01 2.61-9.36s-2.37-6.34-5.18-8.23l-1.07-.72c-.34-.26-.69-.52-1.04-.78.12-1.03.17-1.93.2-2.65 0-.07 0-.15.01-.23.5-.12 1.01-.25 1.52-.4 6.15-1.74 11.6-5.15 15.76-9.86 1.43-1.62 2.68-3.37 3.73-5.22.1-.18.2-.36.3-.55 1.26-2.39 2.13-5.16 2.61-8.25 1.17-7.53-.27-15.74-1.37-20.44 1.74-1.82 2.96-4.05 3.53-6.54.78-3.39.14-7.06-.83-10.1.24-.86.35-1.48.44-2.2.67-5.26-.62-10.11-3.83-14.38-.69-.93-1.37-1.61-1.74-1.98a18.6 18.6 0 0 0-9.54-5.15c.24-2.02.37-4.13.39-6.32v-2.01c1.53-2.94 2.8-6.21 3.97-9.4l.9-2.49.19-.53c.21-.58.41-1.14.6-1.65 1.34-3.62 2.71-7.35 4.05-11.15 2.02-.77 3.82-2.09 5.19-3.87 1.35-1.75 2.45-3.64 3.46-5.94.15-.34.28-.68.4-1.03.97-2.92 1.48-5.91 1.55-9.13v-.2c.01-.97-.01-1.99-.08-3.02 0-.12-.02-.24-.03-.36.18-.2.35-.41.52-.62l.18-.23c1.29-1.65 2.12-3.61 2.41-5.69.13-.9.17-1.85.13-2.83-.14-3.26-1.27-6.75-1.93-8.54q-.09-.255-.18-.48a37 37 0 0 0-2.26-5.43c-.62-1.22-1.31-2.43-2.09-3.7-.14-.22-.28-.44-.43-.66l-.5-.71c-.82-1.16-1.73-2.44-2.74-3.74-.04-1.67-.11-3.68-.45-5.86-2.45-15.68-9.6-30.3-20.15-41.24a42 42 0 0 0-4.1-4.08c-2.72-2.39-5.83-4.58-9.79-6.89-.74-.44-1.53-.88-2.32-1.32-.78-.43-1.58-.85-2.38-1.26-.79-.41-1.61-.81-2.41-1.19-.49-.23-.97-.45-1.45-.67l-.21-.1-.18-.08c-.2-.09-.4-.19-.6-.27-.24-.11-.47-.2-.7-.3l-.23-.1-.29-.12c-.42-.18-.84-.36-1.26-.53-.82-.33-1.67-.66-2.51-.98a85 85 0 0 0-5.09-1.74c-.85-.26-1.72-.52-2.58-.76-.84-.23-1.72-.47-2.6-.68-.86-.21-1.74-.42-2.62-.61-.87-.19-1.76-.37-2.64-.53s-1.77-.32-2.65-.46c-.89-.14-1.79-.27-2.67-.38-.89-.11-1.79-.22-2.67-.3q-.855-.09-1.71-.15c-1.7-.35-3.3-.45-4.67-.49-.02-.01-.04-.03-.06-.04-.7-.49-1.35-.88-1.84-1.16-.19-.12-.43-.25-.7-.4-.37-.19-.69-.34-.95-.46-.43-.21-1.03-.48-1.76-.76-.62-.23-1.27-.45-1.93-.66-3.79-1.17-8.09-1.79-12.44-1.79-2.96 0-5.85.27-8.61.8a12.004 12.004 0 0 0-11.03-16.73z"/></g><defs><clipPath id="a"><path fill="#fff" d="M0 .731h386.104v386.104H0z"/></clipPath></defs></svg>