<svg width="248" height="365" viewBox="0 0 248 365" fill="none" xmlns="http://www.w3.org/2000/svg">
<circle cx="203.31" cy="190.19" r="2" fill="#BDBDBD"/>
<path d="M203.78 194.41V233.41" stroke="#BDBDBD" stroke-width="4" stroke-linecap="round" stroke-linejoin="round"/>
<circle cx="203.31" cy="235.34" r="2" fill="#BDBDBD"/>
<circle cx="37.4797" cy="190.19" r="2" fill="#BDBDBD"/>
<path d="M37.7798 194.41V233.41" stroke="#BDBDBD" stroke-width="4" stroke-linecap="round" stroke-linejoin="round"/>
<circle cx="37.4797" cy="235.34" r="2" fill="#BDBDBD"/>
<path d="M143.78 137.41H107.78V365.41H143.78V137.41Z" fill="#CA9735"/>
<g style="mix-blend-mode:multiply">
<path d="M143.78 137.41H107.78V218.41H143.78V137.41Z" fill="#AF7504"/>
</g>
<path d="M214.34 201.74V93.85C214.34 42.02 172.64 0 121.19 0H121.15C69.6997 0 27.9897 42.02 27.9897 93.86V201.75H214.35L214.34 201.74Z" fill="#42B2EF"/>
<path d="M231.224 53.6527L142.732 80.0669L159.141 135.04L247.633 108.626L231.224 53.6527Z" fill="#F6A654"/>
<g style="mix-blend-mode:multiply">
<path d="M195.05 93.8799L246.46 108.96L160.32 134.68L195.05 93.8799Z" fill="#F6A654"/>
</g>
<path d="M198.49 105.42L143.91 79.7097L230.05 53.9897L198.49 105.42Z" fill="#FFE179"/>
<path d="M36.43 13.1722L0 57.4912L71.3415 116.133L107.771 71.8145L36.43 13.1722Z" fill="#F6A654"/>
<g style="mix-blend-mode:multiply">
<path d="M54.1897 64.28L70.3997 115.35L0.949707 58.27L54.1897 64.28Z" fill="#F6A654"/>
</g>
<path d="M46.5396 73.5902L37.3796 13.9502L106.83 71.0302L46.5396 73.5902Z" fill="#FFE179"/>
<g style="mix-blend-mode:soft-light">
<path d="M51.7797 179.41V92.86C51.7797 54.05 82.7397 22.48 121.26 22.48C159.78 22.48 190.78 54.05 190.78 92.86V179.41H51.7797Z" stroke="#F6F0E8" stroke-width="4" stroke-miterlimit="10"/>
</g>
<path d="M51.7797 179.41V92.86C51.7797 54.05 82.7397 22.48 121.26 22.48C159.78 22.48 190.78 54.05 190.78 92.86V179.41H51.7797Z" fill="#42B2EF"/>
<g style="mix-blend-mode:multiply">
<path d="M53.7797 178.41V92.28C53.7797 54.79 83.5197 24.29 120.76 24.29C158 24.29 187.78 54.79 187.78 92.28V178.41H53.7797Z" stroke="#42B2EF" stroke-width="4" stroke-miterlimit="10"/>
</g>
<path d="M214.78 234.41H28.7797V289.41H214.78V234.41Z" fill="#AF7504"/>
<path d="M51.1797 275.75L28.7797 271.31V280.19L51.1797 275.75L28.7797 271.31V280.19L51.1797 275.75Z" fill="#8B4501"/>
<path d="M51.1797 261.3L28.7797 256.86V265.74L51.1797 261.3L28.7797 256.86V265.74L51.1797 261.3Z" fill="#8B4501"/>
<path d="M51.1797 246.85L28.7797 242.41V251.29L51.1797 246.85L28.7797 242.41V251.29L51.1797 246.85Z" fill="#8B4501"/>
<path d="M192.38 275.75L214.78 271.31V280.19L192.38 275.75L214.78 271.31V280.19L192.38 275.75Z" fill="#8B4501"/>
<path d="M192.38 261.3L214.78 256.86V265.74L192.38 261.3L214.78 256.86V265.74L192.38 261.3Z" fill="#8B4501"/>
<path d="M192.38 246.85L214.78 242.41V251.29L192.38 246.85L214.78 242.41V251.29L192.38 246.85Z" fill="#8B4501"/>
<path d="M44.7797 231.41H30.7797V239.41H44.7797V231.41Z" fill="#1D1D1B"/>
<path d="M210.78 231.41H197.78V239.41H210.78V231.41Z" fill="#1D1D1B"/>
<path d="M184.937 252.096L187.767 252.656C188.25 252.656 188.674 252.989 189.039 253.654V254.078C189.039 254.197 188.706 254.479 188.041 254.926L187.056 254.639C185.644 256.115 184.937 257.291 184.937 258.166C184.536 258.166 183.971 259.014 183.242 260.709H183.379C183.57 260.745 183.666 260.841 183.666 260.996V261.133C183.101 261.516 182.818 261.798 182.818 261.98C183.292 262.546 183.575 263.206 183.666 263.963C183.857 263.999 184.235 264.988 184.801 266.93C184.855 266.93 185.466 267.495 186.633 268.625C186.815 268.716 186.956 268.762 187.056 268.762L186.92 269.473H187.056C187.53 269.163 187.767 268.976 187.767 268.912C188.332 269.104 188.615 269.477 188.615 270.033V270.881C188.615 271.018 188.474 271.159 188.191 271.305C187.672 271.214 187.293 271.168 187.056 271.168C186.747 271.359 186.464 271.455 186.209 271.455H186.072C185.835 271.264 185.644 271.168 185.498 271.168L184.937 271.455C184.627 271.264 184.345 271.168 184.09 271.168H183.953L183.529 271.455H183.105C182.44 270.981 182.107 270.557 182.107 270.184L181.41 270.32C181.31 270.138 181.26 269.997 181.26 269.896C181.424 269.386 181.847 268.917 182.531 268.488V268.338L182.394 267.641C182.531 267.641 182.672 267.499 182.818 267.217C182.818 266.551 182.394 266.173 181.547 266.082C181.547 265.982 181.501 265.84 181.41 265.658H181.97L181.834 264.947C182.016 264.947 182.107 264.856 182.107 264.674V264.387H181.834C181.332 264.387 180.717 265.093 179.988 266.506V266.643C180.125 266.643 180.266 266.784 180.412 267.066V267.354C180.038 267.399 179.851 267.54 179.851 267.777L179.564 267.641H179.291V268.338L178.867 268.912C179.551 269.66 179.974 270.033 180.138 270.033L180.562 270.607V270.744C179.715 271.027 179.099 271.309 178.717 271.592H178.58L178.019 271.168H177.732L177.308 271.455C176.634 271.355 176.256 271.305 176.174 271.305L175.326 271.455C175.235 271.173 174.952 271.031 174.478 271.031L173.918 271.305L173.494 270.744L173.631 269.76C173.539 269.577 173.494 269.436 173.494 269.336H173.631C173.886 269.336 174.168 269.427 174.478 269.609C174.861 269.473 175.052 269.331 175.052 269.186C175.353 269.377 175.586 269.473 175.75 269.473C175.978 267.868 176.497 267.066 177.308 267.066C177.308 266.374 177.873 265.152 179.004 263.402C179.25 262.901 179.437 262.145 179.564 261.133C179.282 260.385 178.908 260.012 178.443 260.012V259.588L178.717 259.164V259.014C177.823 258.148 177.354 257.396 177.308 256.758C177.126 256.667 176.985 256.621 176.885 256.621V255.91C176.465 255.154 175.713 254.775 174.629 254.775C173.963 254.311 173.631 254.028 173.631 253.928V253.791C173.631 253.162 174.105 252.738 175.052 252.52C175.572 252.611 175.946 252.656 176.174 252.656C176.556 252.656 176.748 252.565 176.748 252.383L177.021 252.52H177.445C177.837 252.52 178.215 252.474 178.58 252.383C179.692 252.383 180.539 252.852 181.123 253.791L182.681 252.52C183.092 252.328 183.844 252.187 184.937 252.096ZM181.834 254.502L181.547 255.199H181.41L180.699 254.775C180.508 255.158 180.225 255.35 179.851 255.35V256.334L180.412 256.471C180.23 257.136 180.138 257.514 180.138 257.605C180.138 257.733 180.371 257.97 180.836 258.316C181 258.152 181.519 257.915 182.394 257.605C182.394 257.323 182.49 256.854 182.681 256.197C182.581 255.915 182.485 255.773 182.394 255.773C182.485 255.591 182.531 255.45 182.531 255.35C182.44 254.785 182.299 254.502 182.107 254.502H181.834Z" fill="#FAFCFB"/>
<path d="M164.607 252.096C166.913 252.761 168.39 253.59 169.037 254.584C169.593 254.584 170.331 256.152 171.252 259.287L170.965 259.697V260.121L171.388 260.941C171.206 261.279 171.115 261.648 171.115 262.049C171.297 262.641 171.388 263.01 171.388 263.156C171.206 263.457 171.115 263.735 171.115 263.99V264.674C171.115 264.765 171.161 264.811 171.252 264.811C170.905 265.394 170.536 266.41 170.144 267.859C169.752 268.47 169.338 268.93 168.9 269.24C167.98 270.106 167.519 270.658 167.519 270.895L166.822 270.758H166.685C166.375 271.132 165.5 271.318 164.06 271.318L163.787 271.182C163.504 271.182 163.363 271.318 163.363 271.592H163.09C163.035 271.592 162.757 271.314 162.256 270.758H162.119L161.709 271.045H161.572C161.052 270.307 160.451 269.938 159.767 269.938C159.767 269.701 159.216 268.73 158.113 267.025C157.557 265.439 157.279 264.428 157.279 263.99L157.416 263.156L157.006 262.322C157.279 261.766 157.416 261.447 157.416 261.365C157.325 260.217 157.279 259.615 157.279 259.561C157.516 259.561 157.794 258.64 158.113 256.799C158.705 256.37 159.302 255.495 159.904 254.174C160.296 254.174 160.852 253.714 161.572 252.793C163.222 252.492 164.233 252.26 164.607 252.096ZM163.363 254.721L162.679 254.584C162.306 255.195 161.75 255.701 161.011 256.102C161.011 256.539 160.92 256.863 160.738 257.072V258.453C160.738 258.736 160.601 259.292 160.328 260.121L160.465 260.805C160.282 261.105 160.191 261.338 160.191 261.502C160.337 261.502 160.519 261.826 160.738 262.473C160.556 262.773 160.465 263.047 160.465 263.293C160.738 263.521 160.92 264.122 161.011 265.098C161.54 266.118 162.278 266.993 163.226 267.723C163.226 268.124 163.413 268.402 163.787 268.557C164.088 268.365 164.361 268.27 164.607 268.27H164.744C164.744 268.552 164.84 268.693 165.031 268.693H165.304C165.942 268.693 166.681 268.279 167.519 267.449L167.383 267.162V267.025C168.112 266.661 168.618 265.877 168.9 264.674C168.991 264.674 169.037 264.628 169.037 264.537V264.4L168.763 263.99V263.854L169.037 263.43C169.037 262.992 168.991 262.532 168.9 262.049L169.037 261.365C168.946 261.083 168.855 260.941 168.763 260.941C168.946 260.641 169.037 260.413 169.037 260.258L168.9 259.697L169.037 259.424C168.873 258.339 168.367 257.464 167.519 256.799V256.525C167.519 256.434 167.565 256.389 167.656 256.389C167.41 255.796 167.177 255.473 166.959 255.418H166.822C166.612 255.418 166.476 255.646 166.412 256.102H165.988V255.965L166.125 255.418C165.979 254.999 165.705 254.675 165.304 254.447H164.881C164.881 254.903 164.789 255.131 164.607 255.131C164.607 254.584 164.516 254.311 164.334 254.311H164.197C163.641 254.365 163.363 254.502 163.363 254.721ZM167.656 267.449H168.066V267.162H167.929C167.747 267.199 167.656 267.294 167.656 267.449Z" fill="#FAFCFB"/>
<path d="M147.804 252.041L148.666 252.465L149.226 252.178C149.609 252.369 149.946 252.465 150.238 252.465C150.284 252.465 150.47 252.419 150.799 252.328C151.355 252.684 152.403 253.158 153.943 253.75V254.188C153.943 254.579 154.321 255.245 155.078 256.184L154.941 256.895V257.318L155.365 258.029C154.8 258.886 154.467 259.697 154.367 260.463C154.176 260.49 154.08 260.586 154.08 260.75V261.748C154.08 262.031 154.367 262.172 154.941 262.172V262.596C155.433 263.644 155.72 264.551 155.802 265.316L155.652 265.604C155.752 266.123 155.802 266.501 155.802 266.738C155.802 268.069 154.709 269.546 152.521 271.168C151.756 271.168 151.373 271.264 151.373 271.455C150.99 271.264 150.657 271.168 150.375 271.168C149.901 271.359 149.664 271.501 149.664 271.592L148.802 271.168L148.092 271.305C147.572 271.214 147.189 271.168 146.943 271.168C146.852 271.451 146.569 271.592 146.095 271.592C145.995 271.309 145.708 271.168 145.234 271.168H144.947C144.856 271.168 144.81 271.214 144.81 271.305L144.523 271.168H144.236L143.238 271.455L142.377 271.018L141.666 271.168C140.526 271.068 139.957 270.685 139.957 270.02L140.244 269.883H140.955C140.955 269.5 141.192 269.309 141.666 269.309C142.194 269.4 142.577 269.445 142.814 269.445C143.671 268.753 144.099 268.233 144.099 267.887C143.808 267.404 143.662 267.071 143.662 266.889C143.954 266.788 144.099 266.501 144.099 266.027L143.812 265.029C144.004 265.029 144.099 264.934 144.099 264.742V263.881C144.099 263.489 144.145 262.969 144.236 262.322C144.045 261.839 143.949 261.502 143.949 261.311L144.099 260.75L143.949 259.752C144.049 258.941 144.099 258.275 144.099 257.756C144.099 257.464 143.954 257.318 143.662 257.318V256.895H143.949V256.184C143.949 256.083 143.999 256.033 144.099 256.033C143.999 255.851 143.949 255.71 143.949 255.609H143.101C143.101 255.227 142.86 254.894 142.377 254.611L141.666 255.035C140.809 255.035 140.285 254.37 140.094 253.039C140.832 252.465 141.356 252.178 141.666 252.178L142.377 252.615C142.687 252.424 142.928 252.328 143.101 252.328L144.099 252.465L144.66 252.178C145.143 252.369 145.385 252.515 145.385 252.615L146.095 252.178L147.381 252.328C147.663 252.228 147.804 252.132 147.804 252.041ZM147.094 254.898C147.039 255.318 146.802 255.65 146.383 255.896C146.383 256.261 146.569 256.594 146.943 256.895L146.806 257.893C146.898 257.893 146.943 257.938 146.943 258.029C146.788 258.13 146.551 258.18 146.232 258.18V258.604C146.806 258.704 147.094 258.845 147.094 259.027V259.314C146.519 259.415 146.232 259.561 146.232 259.752C146.98 260.035 147.458 260.176 147.668 260.176H147.804C147.85 259.793 147.991 259.602 148.228 259.602H148.666V260.463H149.09L149.951 259.889L150.238 260.039H150.511C150.73 260.039 150.876 259.798 150.949 259.314H151.797C152.125 259.314 152.366 258.745 152.521 257.605C152.266 256.849 152.075 256.471 151.947 256.471H151.236V256.32L151.373 255.609C151.026 255.327 150.694 255.186 150.375 255.186C149.901 255.495 149.664 255.682 149.664 255.746L148.666 254.898C148.356 255.09 148.119 255.186 147.955 255.186C147.791 255.186 147.504 255.09 147.094 254.898ZM146.943 262.459V263.033C146.943 263.124 146.993 263.17 147.094 263.17C146.993 263.452 146.898 263.594 146.806 263.594C146.497 263.411 146.26 263.32 146.095 263.32V263.457C146.095 263.776 146.141 264.013 146.232 264.168L146.095 265.029C146.095 265.348 146.141 265.585 146.232 265.74L146.095 266.602V266.889H146.806V267.162L145.945 267.312V267.6C146.301 267.882 146.729 268.406 147.23 269.172L148.228 269.021C148.228 269.213 148.515 269.354 149.09 269.445C149.217 268.88 149.358 268.598 149.513 268.598H149.664C150.01 268.88 150.343 269.021 150.662 269.021H151.086C151.277 269.021 151.373 268.926 151.373 268.734L151.236 268.023H151.373C151.892 268.115 152.275 268.16 152.521 268.16C152.704 268.069 152.845 268.023 152.945 268.023V267.736L152.521 267.162V267.025C152.549 266.834 152.64 266.738 152.795 266.738L153.519 266.889L153.656 266.602V265.604H152.795V265.166C152.795 264.975 153.036 264.879 153.519 264.879C153.519 264.469 153.091 263.995 152.234 263.457C152.234 263.266 151.71 263.074 150.662 262.883H150.511C150.511 263.074 150.37 263.266 150.088 263.457C149.705 263.457 149.513 263.124 149.513 262.459H149.09L148.379 262.883L147.668 262.459H146.943Z" fill="#FAFCFB"/>
<path d="M110.207 252.096C111.246 252.369 112.03 252.506 112.558 252.506C112.558 252.296 112.786 252.16 113.242 252.096C114.737 252.187 115.566 252.232 115.73 252.232C115.776 252.232 115.963 252.187 116.291 252.096C116.664 252.278 116.938 252.369 117.111 252.369C117.612 252.278 118.027 252.232 118.355 252.232C118.601 252.506 118.834 253.199 119.052 254.311L117.672 255.555C116.769 255.272 116.213 255.131 116.004 255.131C114.81 255.131 114.213 255.596 114.213 256.525C114.122 257.309 114.076 257.952 114.076 258.453C114.213 258.453 114.349 258.64 114.486 259.014L114.076 259.697V260.121L114.623 260.805C114.258 261.288 114.076 261.844 114.076 262.473C114.532 262.473 114.76 262.655 114.76 263.02C114.76 263.102 114.577 263.38 114.213 263.854V263.99L114.91 264.811V264.961L114.486 265.508V265.918L115.047 266.889C114.673 267.025 114.486 267.162 114.486 267.299V267.586C114.577 267.859 114.855 267.996 115.32 267.996C115.347 267.814 115.439 267.723 115.594 267.723C115.776 267.723 115.867 267.905 115.867 268.27H116.154L116.427 267.449H116.564C116.92 267.796 117.334 268.115 117.808 268.406H118.082C118.31 268.224 118.497 268.133 118.642 268.133L119.326 268.27C119.508 267.996 119.599 267.673 119.599 267.299C119.599 266.898 119.508 266.483 119.326 266.055L119.75 265.371V265.098C119.558 265.098 119.463 265.052 119.463 264.961L119.75 264.4C119.649 264.236 119.599 264.054 119.599 263.854C119.791 263.553 119.886 263.32 119.886 263.156C119.695 262.855 119.599 262.628 119.599 262.473C120.338 262.008 120.939 261.775 121.404 261.775C121.404 261.876 121.45 262.012 121.541 262.186L121.814 262.049H122.088C122.279 262.942 122.511 263.635 122.785 264.127C122.603 264.71 122.511 265.034 122.511 265.098C122.575 265.645 122.666 265.918 122.785 265.918L122.238 269.24L122.511 269.65V269.801C122.202 270.539 121.787 271.09 121.267 271.455H120.433C120.051 271.455 119.545 271.41 118.916 271.318C118.451 271.41 118.219 271.501 118.219 271.592C118.073 271.501 117.334 271.41 116.004 271.318C115.703 271.501 115.429 271.592 115.183 271.592C115.183 271.51 114.86 271.327 114.213 271.045L113.242 271.182C112.449 271.182 110.881 271.227 108.539 271.318C107.436 270.844 106.885 270.384 106.885 269.938C106.885 269.126 107.532 268.666 108.826 268.557C108.826 268.42 109.332 268.188 110.344 267.859L111.177 267.996H111.314V267.299H111.027V267.162C111.31 266.825 111.451 266.506 111.451 266.205C111.451 265.868 111.405 265.453 111.314 264.961C111.405 264.46 111.451 263.949 111.451 263.43L111.314 262.883C111.497 262.409 111.588 262.04 111.588 261.775C111.405 261.083 111.314 260.714 111.314 260.668C111.588 260.668 111.724 260.486 111.724 260.121L111.314 258.727C111.442 258.727 111.579 258.59 111.724 258.316V258.043C111.724 257.733 111.588 257.41 111.314 257.072C111.588 256.735 111.724 256.411 111.724 256.102V255.828C111.724 255.755 111.355 255.432 110.617 254.857H109.236C109.09 254.857 108.903 255.044 108.676 255.418C108.475 255.418 108.156 255.049 107.719 254.311C107.254 254.311 107.021 254.219 107.021 254.037C107.021 253.39 107.527 252.788 108.539 252.232C108.849 252.415 109.127 252.506 109.373 252.506H109.51C109.974 252.296 110.207 252.16 110.207 252.096Z" fill="#FAFCFB"/>
<path d="M100.842 252H101.252V252.41H101.388L102.332 252.137C102.979 252.228 103.344 252.273 103.426 252.273L104.369 252.137C104.369 252.684 104.597 252.957 105.052 252.957C105.089 253.221 105.317 253.536 105.736 253.9C104.724 254.903 104.136 255.404 103.972 255.404C103.517 255.131 103.152 254.994 102.879 254.994C102.56 255.541 102.332 255.814 102.195 255.814L101.648 255.268H101.115C101.115 255.714 101.024 255.938 100.842 255.938H100.705V255.268H100.431C100.304 255.268 100.167 255.404 100.021 255.678C100.021 256.079 100.204 256.439 100.568 256.758C100.204 258.307 100.021 259.214 100.021 259.479C100.204 259.506 100.295 259.597 100.295 259.752L100.158 260.025L100.295 260.709C100.112 261.001 100.021 261.274 100.021 261.529C100.021 261.62 100.067 261.753 100.158 261.926C100.067 262.108 100.021 262.245 100.021 262.336C100.149 262.454 100.377 263.047 100.705 264.113C100.541 264.113 100.313 264.564 100.021 265.467C100.204 265.467 100.34 265.831 100.431 266.561C100.34 266.734 100.295 266.87 100.295 266.971C100.295 267.062 100.34 267.194 100.431 267.367L100.295 268.188C100.295 268.461 100.7 268.598 101.511 268.598C101.785 268.534 101.967 268.352 102.058 268.051C102.614 268.507 103.024 268.734 103.289 268.734L104.109 268.598C104.765 269.053 105.308 269.281 105.736 269.281V270.361C105.536 270.361 105.353 270.407 105.189 270.498L105.052 270.225L105.326 269.828V269.555H104.779C104.779 270.521 104.419 271.063 103.699 271.182L103.426 271.045H102.469C102.377 271.045 102.332 271.09 102.332 271.182L101.648 270.771H101.388C101.388 271.045 101.206 271.318 100.842 271.592C100.586 271.264 99.7706 270.99 98.3943 270.771L97.7107 271.182C97.3461 270.817 97.0727 270.635 96.8904 270.635C96.4347 270.908 96.1156 271.045 95.9333 271.045C95.9333 270.908 95.7556 270.771 95.4001 270.635L94.7166 270.771L94.033 270.635V270.771C93.8598 270.68 93.7231 270.635 93.6228 270.635C93.3311 270.817 93.1033 270.908 92.9392 270.908C92.2738 270.671 91.7771 270.22 91.449 269.555C91.9138 269.09 92.4106 268.771 92.9392 268.598C92.9666 268.142 93.1033 267.914 93.3494 267.914H93.4861C93.4861 268.188 93.5317 268.324 93.6228 268.324C94.0056 268.324 94.5069 268.279 95.1267 268.188L95.9333 268.324L96.7537 267.244V267.107C96.7537 266.971 96.6169 266.834 96.3435 266.697L96.4802 266.424V266.287L96.3435 265.604C96.5714 265.421 96.7537 265.33 96.8904 265.33V265.057C96.8904 264.692 96.6169 264.286 96.0701 263.84C96.2159 263.84 96.3982 263.658 96.6169 263.293V262.609L96.3435 262.199V260.846C96.3435 260.755 96.2524 260.39 96.0701 259.752C96.5258 259.278 96.7537 258.959 96.7537 258.795C96.3891 258.257 96.2068 257.76 96.2068 257.305C96.3891 257.086 96.5258 256.63 96.6169 255.938C96.6169 255.582 94.9854 255.04 91.7224 254.311C91.7224 254.083 91.6768 253.718 91.5857 253.217C92.4333 252.497 93.1124 252.137 93.6228 252.137C93.9965 252.319 94.2699 252.41 94.4431 252.41L96.4802 252.137C96.781 252.319 97.0544 252.41 97.3005 252.41H97.574C97.7563 252.41 97.8474 252.319 97.8474 252.137L98.3943 252.273L99.6111 252.137C99.9757 252.228 100.295 252.273 100.568 252.273C100.595 252.091 100.687 252 100.842 252ZM93.7595 252.82V253.217H94.1697V252.82H93.7595ZM103.699 253.49V253.764H104.109V253.49H103.699ZM96.6169 254.994V255.268C96.6443 255.45 96.7354 255.541 96.8904 255.541H97.0271V255.268C97.0271 255.085 96.936 254.994 96.7537 254.994H96.6169ZM95.6736 255.938C96.0291 256.074 96.2068 256.211 96.2068 256.348C95.9789 256.348 95.6189 256.393 95.1267 256.484V256.211C95.4913 256.211 95.6736 256.12 95.6736 255.938ZM103.426 269.418V269.691H103.562C103.69 269.691 103.827 269.555 103.972 269.281V269.145H103.699C103.517 269.172 103.426 269.263 103.426 269.418Z" fill="#FAFCFB"/>
<path d="M79.5955 252.15C80.7348 252.843 81.3044 253.796 81.3044 255.008C81.5232 255.008 81.7146 255.436 81.8787 256.293V256.58C81.8787 256.68 81.8331 256.73 81.7419 256.73C82.0063 257.414 82.2934 258.508 82.6033 260.012C82.8858 260.012 83.3598 261.538 84.0251 264.592L83.8884 265.439C84.0798 265.439 84.2211 265.918 84.3123 266.875C84.7862 267.258 85.0232 267.782 85.0232 268.447C86.1716 269.067 86.7458 269.828 86.7458 270.73L85.7478 271.305L85.4607 271.168H85.3103C85.0551 271.168 84.768 271.264 84.449 271.455C84.3852 271.455 84.1026 271.405 83.6013 271.305C83.1182 271.305 82.8767 271.4 82.8767 271.592C82.3572 271.592 81.3591 271.068 79.8826 270.02H79.7322C79.7322 269.163 79.9236 268.734 80.3064 268.734C81.2634 268.57 81.7419 268.333 81.7419 268.023V267.873L81.5916 267.586L81.031 267.873C81.031 267.782 80.9809 267.736 80.8806 267.736C81.072 267.417 81.1677 267.13 81.1677 266.875L80.7439 266.588H80.4568C79.9737 266.907 79.7322 267.098 79.7322 267.162C79.6501 267.162 79.3676 266.971 78.8845 266.588H78.5974C78.406 266.588 78.3103 266.729 78.3103 267.012C78.4014 267.203 78.447 267.349 78.447 267.449L78.1599 267.586H78.0232C78.0232 267.021 77.9275 266.738 77.7361 266.738H77.5994C77.4626 266.747 77.1254 267.271 76.5876 268.311C76.8611 269.359 77.1026 269.883 77.3123 269.883H77.7361V269.732L77.5994 269.021L77.8865 268.871H78.0232C78.2602 268.871 78.4014 269.491 78.447 270.73C78.2556 271.122 78.1599 271.41 78.1599 271.592H78.0232C77.7133 271.309 77.4763 271.168 77.3123 271.168L76.5876 271.592H76.1638C76.1638 271.209 76.0225 271.018 75.74 271.018H75.3025L74.5916 271.592C74.5916 271.455 74.4503 271.314 74.1677 271.168H74.0173C73.7621 271.168 73.4796 271.264 73.1697 271.455C72.477 270.972 71.9985 270.73 71.7341 270.73V270.594C72.1534 270.293 72.3904 269.91 72.4451 269.445C72.3539 269.281 72.3083 269.09 72.3083 268.871H72.4451C72.6638 268.871 72.8552 268.921 73.0193 269.021C73.4932 268.894 73.7302 268.748 73.7302 268.584V268.16C73.7302 266.747 74.0675 265.654 74.7419 264.879V264.592C74.3591 264.592 74.1677 264.496 74.1677 264.305C74.4047 264.113 74.6417 264.018 74.8787 264.018V263.443L74.5916 263.02V262.869L75.1658 262.158L75.0154 260.723C75.3982 260.568 75.5896 260.235 75.5896 259.725V259.588L75.3025 259.15V259.014C75.658 258.704 75.9952 258.275 76.3142 257.729C76.3142 257.583 76.0727 257.296 75.5896 256.867C75.8448 256.867 76.0863 256.202 76.3142 254.871V253.873L77.5994 252.438C77.809 252.438 77.9958 252.488 78.1599 252.588C79.1169 252.396 79.5955 252.251 79.5955 252.15ZM76.738 258.439L76.5876 258.727V259.014H77.0251V258.727C77.0251 258.535 76.9294 258.439 76.738 258.439ZM78.3103 260.586C78.21 261.197 78.1599 262.008 78.1599 263.02C78.561 263.685 78.8982 264.018 79.1716 264.018V264.154C80.0011 263.753 80.4294 263.471 80.4568 263.307V262.732C79.7914 262.669 79.4587 262.573 79.4587 262.445C79.6137 261.971 79.8507 261.734 80.1697 261.734V261.447C80.1697 261.311 80.0238 261.165 79.7322 261.01H79.5955L78.8845 261.16C78.7843 260.996 78.7341 260.805 78.7341 260.586H78.3103ZM75.5896 261.584V261.871C75.6261 262.062 75.7218 262.158 75.8767 262.158C76.0134 262.158 76.1593 262.017 76.3142 261.734V261.16H76.0271C75.8904 261.16 75.7445 261.301 75.5896 261.584ZM77.7361 264.154V264.592C77.7634 264.783 77.8591 264.879 78.0232 264.879H78.8845V264.729C78.7843 264.346 78.4972 264.154 78.0232 264.154H77.7361ZM74.7419 267.012C74.7693 267.203 74.8604 267.299 75.0154 267.299C75.3982 267.144 75.5896 266.811 75.5896 266.301C75.5896 266.109 75.4939 266.014 75.3025 266.014C74.9288 266.169 74.7419 266.501 74.7419 267.012ZM74.1677 268.584C74.5323 268.876 74.8149 269.021 75.0154 269.021L75.4529 268.447V268.16C75.4529 267.969 75.3572 267.873 75.1658 267.873H74.8787C74.4685 268.101 74.2315 268.338 74.1677 268.584ZM72.8826 269.309V269.596L73.5935 269.732L73.7302 269.445V269.309H72.8826Z" fill="#FAFCFB"/>
<path d="M57.9666 252.082C57.9666 252.155 58.1078 252.296 58.3904 252.506L59.1013 252.082C59.7667 252.273 60.1449 252.369 60.2361 252.369H60.9333C60.9333 252.743 61.1703 252.93 61.6443 252.93L61.5076 253.641C61.5076 253.786 61.977 254.352 62.9158 255.336C62.5421 255.755 62.3552 255.988 62.3552 256.033V256.881L62.7791 257.592L62.6287 258.439V258.59C62.6378 258.717 62.8748 258.904 63.3396 259.15C63.057 259.588 62.9158 259.87 62.9158 259.998L63.0525 260.709H63.2029C63.9594 260.235 64.3376 259.67 64.3376 259.014C64.0824 258.731 63.7999 258.59 63.49 258.59V258.303C64.2374 258.303 64.6111 257.97 64.6111 257.305C64.766 256.12 65.0486 255.322 65.4587 254.912C65.1762 254.146 65.0349 253.723 65.0349 253.641H65.1853C65.6866 253.823 65.9692 253.914 66.033 253.914C66.2153 253.085 66.4978 252.57 66.8806 252.369L69.5603 252.643C69.7244 252.551 69.9158 252.506 70.1345 252.506C70.7452 252.506 71.2146 253.308 71.5427 254.912H71.406C71.169 254.721 70.9776 254.625 70.8318 254.625C69.9841 254.625 69.5603 255.66 69.5603 257.729C69.5603 258.394 69.656 258.727 69.8474 258.727L69.7107 259.014V259.711L69.9841 260.709C69.8018 261.019 69.7107 261.301 69.7107 261.557C69.7107 261.894 69.7563 262.318 69.8474 262.828C69.656 263.174 69.5603 263.553 69.5603 263.963V264.811C69.8429 266.132 70.0343 267.545 70.1345 269.049L70.5583 269.336L71.2556 268.912C71.2556 269.003 71.3057 269.049 71.406 269.049C71.406 270.48 70.8409 271.327 69.7107 271.592L69.1365 271.455L67.865 271.592C67.5642 271.4 67.3272 271.305 67.1541 271.305L66.1697 271.455L65.6091 270.607V270.32C65.837 270.056 66.1195 269.441 66.4568 268.475H66.7302C66.7302 268.857 66.8259 269.049 67.0173 269.049H67.1541L67.3044 268.338L67.1541 268.051C67.4366 267.586 67.5779 267.212 67.5779 266.93V266.643L67.4412 265.658C67.6326 265.658 67.7283 265.562 67.7283 265.371C67.628 264.879 67.5779 264.596 67.5779 264.523L67.7283 264.236C67.7283 264.145 67.6781 264.1 67.5779 264.1C67.5779 264.018 67.628 263.639 67.7283 262.965C67.7283 261.361 67.5369 260.559 67.1541 260.559C66.99 260.659 66.8031 260.709 66.5935 260.709V260.285H67.7283C67.7283 260.185 67.7738 260.044 67.865 259.861L67.7283 258.439L67.865 257.455L67.3044 257.031H67.0173C66.5434 257.268 66.3064 257.692 66.3064 258.303C66.4705 258.394 66.6619 258.439 66.8806 258.439V258.727C66.4158 259.483 66.1332 259.861 66.033 259.861V260.285L66.1697 260.559L65.6091 260.982C65.7914 261.292 65.8826 261.575 65.8826 261.83C65.4177 262.076 65.1853 262.454 65.1853 262.965V263.102C65.1853 263.238 65.3266 263.384 65.6091 263.539C65.2354 264.669 64.6202 265.421 63.7634 265.795L63.49 265.932C62.4509 265.932 61.9314 265.558 61.9314 264.811C61.6488 264.209 61.3162 262.933 60.9333 260.982L60.3728 260.846V260.285C60.4184 260.285 60.6052 260.235 60.9333 260.135V259.711C60.3682 259.109 60.0857 258.736 60.0857 258.59C60.186 258.417 60.2361 258.225 60.2361 258.016L59.949 257.879H59.8123C59.4294 258.034 59.238 258.362 59.238 258.863V259.014L59.6619 259.574V259.711L59.238 260.285C59.238 260.85 59.4294 261.133 59.8123 261.133V261.406L59.238 262.117V262.254C59.238 262.491 59.3337 262.919 59.5251 263.539C59.3337 264.232 59.238 264.701 59.238 264.947L59.5251 265.508L59.3884 266.355C59.3884 266.529 59.5297 266.952 59.8123 267.627C59.6208 267.663 59.5251 267.759 59.5251 267.914V268.475L60.9333 269.473L61.2205 270.457C60.5642 270.74 60.2361 270.931 60.2361 271.031L59.949 270.881H59.8123C59.1651 270.981 58.8324 271.122 58.8142 271.305L58.1169 271.168C57.4425 271.259 57.0642 271.305 56.9822 271.305C56.9822 271.049 56.3669 270.863 55.1365 270.744L54.9998 270.033C54.9998 269.696 55.5193 269.131 56.5583 268.338C56.6495 267.964 56.6951 267.636 56.6951 267.354L56.5583 267.066C56.6677 266.911 56.7589 266.442 56.8318 265.658C56.6495 265.275 56.5583 264.943 56.5583 264.66C56.8409 264.177 56.9822 263.708 56.9822 263.252C56.8819 262.969 56.7862 262.828 56.6951 262.828C56.8865 262.482 56.9822 262.104 56.9822 261.693C56.9822 261.219 56.8865 260.982 56.6951 260.982C56.8227 259.132 56.9184 258.143 56.9822 258.016C56.9366 255.564 56.6996 254.338 56.2712 254.338C55.5147 254.338 55.1365 254.055 55.1365 253.49C55.1365 253.071 56.0798 252.602 57.9666 252.082ZM67.0173 256.32L67.3044 256.457H67.5779L67.7283 255.473L67.4412 255.336C67.2224 255.336 67.0811 255.664 67.0173 256.32ZM59.3884 255.896V256.607C59.4158 256.79 59.5069 256.881 59.6619 256.881H59.8123V256.184C59.8123 255.992 59.7166 255.896 59.5251 255.896H59.3884Z" fill="#FAFCFB"/>
<path d="M129.1 58.2301C129.1 53.9001 125.61 50.3901 121.32 50.3901C117.03 50.3901 113.54 53.9001 113.54 58.2301C113.54 60.7801 114.75 65.2801 116.63 66.7101L115.29 78.4101H127.3L125.97 66.7501C127.87 65.3201 129.11 60.8101 129.11 58.2301H129.1Z" fill="#1D1D1B" stroke="#2D2A44" stroke-width="2" stroke-linecap="round" stroke-linejoin="round"/>
<g style="mix-blend-mode:soft-light" opacity="0.3">
<path d="M185.78 125.41H55.7797V176.41H185.78V125.41Z" fill="#FAFCFB"/>
</g>
<g style="mix-blend-mode:multiply">
<path d="M157.78 146.96C157.78 148.39 156.45 150.42 155.02 150.42H86.6697C85.2497 150.42 83.7797 148.4 83.7797 146.96V146.73C83.7797 145.3 85.2497 144.42 86.6697 144.42H155.02C156.44 144.42 157.78 145.3 157.78 146.73V146.96Z" fill="#42B2EF"/>
</g>
<g style="mix-blend-mode:multiply">
<path d="M157.78 137.02C157.78 138.45 156.45 140.41 155.02 140.41H86.6697C85.2497 140.41 83.7797 138.45 83.7797 137.02V136.79C83.7797 135.36 85.2497 133.41 86.6697 133.41H155.02C156.44 133.41 157.78 135.35 157.78 136.79V137.02Z" fill="#42B2EF"/>
</g>
<g style="mix-blend-mode:multiply">
<path d="M157.78 155.99C157.78 157.42 156.45 158.42 155.02 158.42H86.6697C85.2497 158.42 83.7797 157.43 83.7797 155.99V155.76C83.7797 154.33 85.2497 153.42 86.6697 153.42H155.02C156.44 153.42 157.78 154.33 157.78 155.76V155.99Z" fill="#42B2EF"/>
</g>
<g style="mix-blend-mode:multiply">
<path d="M157.78 165.02C157.78 166.45 156.45 168.41 155.02 168.41H86.6697C85.2497 168.41 83.7797 166.45 83.7797 165.02V164.79C83.7797 163.36 85.2497 162.42 86.6697 162.42H155.02C156.44 162.42 157.78 163.36 157.78 164.79V165.02Z" fill="#42B2EF"/>
</g>
</svg>
