<svg xmlns="http://www.w3.org/2000/svg" width="399" height="399" fill="none" viewBox="0 0 399 399"><path fill="#fbbc8c" d="M146.895 57.936c2.49-2.766 4.882-5.44 6.474-8.849 1.511-3.232 2.596-7.21 2.767-10.783.066-1.366-.496-4.396.292-5.432l.417-.054c.712.337 1.075.973 1.518 1.595 3.949 3.92 7.522 8.264 11.18 12.454 2.39 2.737 4.951 6.417 8.044 8.317 2.02 1.24 4.721 1.668 7.039 1.87 2.324-.134 4.584-.253 6.848-.844 7.854-2.053 15.848-8.18 21.16-14.222.82-.934 2.182-3.376 3.23-3.753.552.056.882.187 1.251.607 2.272 2.596 2.846 9.672 2.499 12.977-.072.69-.201 1.379-.327 2.062 7.268 4.028 15.278 4.82 23.256 2.54 6.407-1.83 7.861-3.798 12.949-7.31.062 1.7.496 9.03 1.024 10.114 6.351-.298 13.355-3.2 18.579-6.754 2.05-1.393 3.941-3.059 5.849-4.637.319.048.51-.01.719.263 1.855 2.415.642 12.902.086 15.724-.777 3.95-1.928 8.194-3.696 11.817 1.479 1.145 1.643 2.055 1.876 3.887.486 3.82.635 7.717.974 11.556 1.115-.749 2.232-1.417 3.228-2.33 1.378-1.262 2.581-2.83 4.091-3.925.537.071.711.108 1.027.571.554.815.857 1.945 1.127 2.89 1.496 5.195 1.102 10.688-.163 15.892-1.372 5.655-3.75 10.589-7.221 15.254l1.667 24.121c.221 3.277.948 8.04.525 11.167a33 33 0 0 1 .741 1.554q.175.392.343.79a35 35 0 0 1 .908 2.416 34 34 0 0 1 1.117 4.154q.086.422.162.845.075.424.141.849a35 35 0 0 1 .41 5.144q.005.43-.004.86a35.4 35.4 0 0 1-1.681 10.155c-1.445 4.508-3.933 9.255-8.314 11.514-2.43 1.253-5.214 1.541-7.869.977-2.36 2.765-4.792 5.746-8.721 5.985-2.049.124-3.844-.492-5.66-1.345.034 5.884-.199 11.767-.275 17.65-.038 3.061.305 8.57-.339 11.322-.456 1.944-1.945 4.043-3.343 5.437-1.404 1.4-3.157 2.565-4.967 3.368-1.851.543-3.87 1.067-5.818.874-1.906-.595-20.832-.508-24.452-.538q-37.315-.282-74.619-1.216c-2.543-.088-5.099-.226-7.644-.136-3.204.114-6.562.564-9.758.235-2.646-1.111-6.582-4.276-8.563-6.323-1.048-1.084-2.206-2.484-2.576-3.965-.661-2.647-.243-8.349-.258-11.293-.026-5.186-.221-10.358-.126-15.548-1.059.239-2.096.381-3.181.253-3.778-.447-5.244-3.786-7.373-6.361q-.083-.1-.168-.199c-1.071.033-2.138-.019-3.172-.321-3.792-1.109-6.504-4.431-8.276-7.806-3.707-7.06-4.24-16.679-2.305-24.326.576-2.279 1.593-4.403 2.274-6.646l.053-.18c-.555-2.791-.334-5.93-.314-8.762.02-3.019-.02-5.998.126-9.018-5.061-4.019-7.465-14.227-8.374-20.342-.405-2.727-1.32-10.219.434-12.581.455-.043.428-.016.791.271 2.427 2.318 4.324 4.508 7.686 5.492.155-3.499.152-7.001.33-10.5-3.708-4.814-6.954-13.085-8.089-19.068-.27-1.42-.586-2.903-.657-4.348-.16-3.23.718-11.56 2.608-14.018.309-.403.492-.507.985-.57 1.097.627 1.932 2.162 2.938 3.024 3.059 2.622 9.665 6.097 13.814 5.64q.143-.017.287-.038c1.698-3.346 5.837-8.081 8.242-11.219 4.117-5.373 8.113-11.192 12.687-16.17.085-.661.022-1.017.485-1.512 1.085.38 2.222 4.508 2.851 5.68.558 1.04 1.375 1.978 2.109 2.897 4.232 5.305 9.665 8.296 16.085 10.178"/><path fill="#703794" d="M146.895 57.936c2.49-2.766 4.882-5.44 6.474-8.849 1.511-3.232 2.596-7.21 2.767-10.783.066-1.366-.496-4.396.292-5.432l.417-.054c.712.337 1.075.973 1.518 1.595 3.949 3.92 7.522 8.264 11.18 12.454 2.39 2.737 4.951 6.417 8.044 8.317 2.02 1.24 4.721 1.668 7.039 1.87 2.324-.134 4.584-.253 6.848-.844 7.854-2.053 15.848-8.18 21.16-14.222.82-.934 2.182-3.376 3.23-3.753.552.056.882.187 1.251.607 2.272 2.596 2.846 9.672 2.499 12.977-.072.69-.201 1.379-.327 2.062 7.268 4.028 15.278 4.82 23.256 2.54 6.407-1.83 7.861-3.798 12.949-7.31.062 1.7.496 9.03 1.024 10.114 6.351-.298 13.355-3.2 18.579-6.754 2.05-1.393 3.941-3.059 5.849-4.637.319.048.51-.01.719.263 1.855 2.415.642 12.902.086 15.724-.777 3.95-1.928 8.194-3.696 11.817 1.479 1.145 1.643 2.055 1.876 3.887.486 3.82.635 7.717.974 11.556 1.115-.749 2.232-1.417 3.228-2.33 1.378-1.262 2.581-2.83 4.091-3.925.537.071.711.108 1.027.571.554.815.857 1.945 1.127 2.89 1.496 5.195 1.102 10.688-.163 15.892-1.372 5.655-3.75 10.589-7.221 15.254l1.667 24.121c.221 3.277.948 8.04.525 11.167a33 33 0 0 1 .741 1.554q.175.393.343.79a35 35 0 0 1 .908 2.416 34 34 0 0 1 1.117 4.154q.086.422.162.845.075.424.141.849a35 35 0 0 1 .41 5.144q.005.43-.004.86a35.4 35.4 0 0 1-1.681 10.155c-1.445 4.508-3.933 9.255-8.314 11.514-2.43 1.253-5.214 1.541-7.869.977-2.36 2.765-4.792 5.746-8.721 5.985-2.049.124-3.844-.492-5.66-1.345-.195-2.289-.068-4.655-.044-6.954l.179-13.04.399-27.51c.065-2.98-.08-5.965.067-8.942q.094-.117.207-.212c1.084-.885 2.922-.766 4.246-.696 1.661.437 2.966 1.109 4.382 2.067-.11-7.012-.627-14.049-1.012-21.051a1202 1202 0 0 1-1.45-30.78c-5.1-1.856-10.461-3.482-15.787-4.533-2.177-.429-4.391-.633-6.58-.974-3.692-.574-7.273-1.154-11.001-1.47-9.118-.775-18.355-.42-27.492-.169a451 451 0 0 0-33.252 1.87c-12.607 1.29-25.01 3.455-37.427 5.928-5.353 1.067-10.808 1.881-16.091 3.268-1.769.464-3.466 1.159-5.222 1.651-.019 15.506-.935 31.037-1.588 46.527 1.071-.029 2.14-.073 3.211-.021.55.201 1.054.314 1.475.734-.379 13.476.048 27.049.048 40.538 0 3.768.551 10.175-.006 13.636-1.059.24-2.096.382-3.181.253-3.778-.447-5.244-3.786-7.373-6.361q-.083-.1-.168-.199c-1.071.033-2.138-.019-3.172-.321-3.792-1.109-6.504-4.431-8.276-7.806-3.707-7.06-4.24-16.679-2.305-24.326.576-2.279 1.593-4.403 2.274-6.646l.053-.18c-.555-2.791-.334-5.93-.314-8.762.02-3.019-.02-5.998.126-9.018-5.061-4.019-7.465-14.227-8.374-20.342-.405-2.727-1.32-10.219.434-12.581.455-.043.428-.016.791.271 2.427 2.318 4.324 4.508 7.686 5.492.155-3.499.152-7.001.33-10.5-3.708-4.814-6.954-13.085-8.089-19.068-.27-1.42-.586-2.903-.657-4.348-.16-3.23.718-11.56 2.608-14.018.309-.403.492-.507.985-.57 1.097.627 1.932 2.162 2.938 3.024 3.059 2.622 9.665 6.097 13.814 5.64q.143-.017.287-.038c1.698-3.346 5.837-8.081 8.242-11.219 4.117-5.373 8.113-11.192 12.687-16.17.085-.661.022-1.017.485-1.512 1.085.38 2.222 4.508 2.851 5.68.558 1.04 1.375 1.978 2.109 2.897 4.232 5.305 9.665 8.296 16.085 10.178"/><path fill="#bfe44f" d="M146.895 57.936c2.49-2.766 4.882-5.44 6.474-8.849 1.51-3.232 2.595-7.21 2.767-10.783.066-1.366-.497-4.396.292-5.432l.417-.054c.711.337 1.075.973 1.518 1.595 3.948 3.92 7.522 8.264 11.18 12.454 2.389 2.737 4.95 6.417 8.044 8.317 2.02 1.24 4.72 1.668 7.039 1.87 2.324-.134 4.583-.253 6.848-.844 7.854-2.053 15.848-8.18 21.159-14.222.821-.934 2.183-3.376 3.231-3.753.551.056.882.187 1.251.607 2.272 2.596 2.845 9.672 2.499 12.977-.072.69-.201 1.379-.327 2.062 7.268 4.028 15.278 4.82 23.256 2.54 6.407-1.83 7.861-3.798 12.949-7.31.062 1.7.496 9.03 1.024 10.114 6.351-.298 13.355-3.2 18.579-6.754 2.049-1.393 3.941-3.059 5.849-4.637.319.048.51-.01.719.263 1.854 2.415.641 12.902.086 15.724-.777 3.95-1.928 8.194-3.697 11.817-2.859-1.586-5.797-2.3-9.027-2.757-1.275-.207-2.557-.354-3.84-.507-1.725-.118-3.432-.421-5.14-.691l-2.719-.374-1.603-.194c-5.694-.816-11.491-1.518-17.231-1.886-3.527-.514-7.14-.44-10.679-.851-8.872-.586-17.669-.845-26.553-.93-8.178-.008-16.314.195-24.485.453-9.011.525-17.897 1.3-26.872 2.241-1.935.327-3.895.544-5.841.799-6.737.966-13.568 1.994-20.206 3.5-3.721.996-7.396 2.197-11.076 3.334-5.606 2.026-11.003 4.192-15.722 7.94-1.515 1.312-3.04 2.566-4.267 4.166l-.242 7.58c-3.707-4.815-6.953-13.086-8.088-19.07-.27-1.42-.586-2.902-.657-4.347-.16-3.23.718-11.56 2.607-14.018.31-.403.493-.507.986-.57 1.097.627 1.932 2.162 2.938 3.024 3.059 2.622 9.665 6.097 13.814 5.64q.143-.017.286-.038c1.699-3.346 5.838-8.081 8.243-11.219 4.117-5.373 8.113-11.192 12.687-16.17.085-.661.022-1.017.484-1.512 1.086.38 2.223 4.508 2.852 5.68.558 1.04 1.375 1.978 2.109 2.897 4.231 5.305 9.665 8.296 16.085 10.178"/><path fill="#90af31" d="M184.626 57.054c2.324-.134 4.583-.253 6.848-.844 7.854-2.053 15.848-8.18 21.159-14.222.821-.934 2.183-3.376 3.231-3.753.551.056.882.187 1.251.607 2.272 2.596 2.845 9.672 2.499 12.977-.072.69-.201 1.379-.327 2.062 7.268 4.028 15.278 4.82 23.256 2.54 6.407-1.83 7.861-3.798 12.949-7.31.062 1.7.496 9.03 1.024 10.114-.558.935-.018 3.871-.333 5.212l-.241.136c-.765-.556-1.41-3.986-1.846-5.038-.643-1.546-1.444-2.999-2.274-4.45-1.297 1.09-2.667 2.042-4.173 2.826-9.38 4.883-20.308 3.292-29.955.25-1.4 1.834-3.023 2.852-5.043 3.894.586-1.019 1.295-1.975 1.845-3.01 2.061-3.883 2.302-8.278 2.272-12.584-1.145 1.377-2.37 2.656-3.772 3.775-6.186 4.941-19.013 8.34-26.925 7.445-.369-.32-.589-.53-1.089-.591-.118-.015-.237-.024-.356-.036M92.549 97.46c-3.707-4.814-6.953-13.085-8.088-19.068-.27-1.42-.586-2.903-.657-4.348-.16-3.23.718-11.56 2.607-14.018.31-.403.493-.507.986-.57 1.097.627 1.932 2.162 2.938 3.024 3.059 2.622 9.665 6.097 13.814 5.64q.143-.017.286-.038c1.708.651 4.482-.108 6.24-.412-.347.61-.675 1.257-1.102 1.816a26 26 0 0 1-1.093.426 23 23 0 0 1-1.112.372 23 23 0 0 1-1.699.455 24 24 0 0 1-2.892.475 24 24 0 0 1-2.342.121 23 23 0 0 1-1.758-.06 23.8 23.8 0 0 1-6.844-1.525 24 24 0 0 1-.545-.217c-.71-.288-1.398-.62-2.084-.961 1.434 6.354 3.827 11.976 7.854 17.142-1.515 1.313-3.04 2.567-4.267 4.167zm54.346-39.524c2.49-2.766 4.882-5.44 6.474-8.849 1.51-3.232 2.595-7.21 2.767-10.783.066-1.366-.497-4.396.292-5.432l.417-.054c.711.337 1.075.973 1.518 1.595q.003.154.009.308c.076 1.624.854 3.334 1.024 5.013.605 5.971-1.526 12.34-5.433 16.832a79 79 0 0 1-2.149 2.33c2.6.102 4.977-.223 7.546-.434-6.08 2.984-12.641 4.672-19.275 2.375a22 22 0 0 1-3.448-1.555 25 25 0 0 1-.931-.55 23 23 0 0 1-1.343-.91 21 21 0 0 1-1.273-1.007 25 25 0 0 1-.806-.721 19 19 0 0 1-.77-.76 23 23 0 0 1-1.423-1.63 21 21 0 0 1-.65-.865 21 21 0 0 1-.607-.895 25 25 0 0 1-.562-.925 21 21 0 0 1-.757-1.435c-1.316-2.722-2.1-5.866-2.15-8.892.085-.66.022-1.016.484-1.511 1.086.38 2.223 4.508 2.852 5.68.558 1.04 1.375 1.978 2.109 2.897 4.231 5.305 9.665 8.296 16.085 10.178m134.049-10.102c.319.048.51-.01.719.263 1.854 2.415.641 12.902.086 15.724-.777 3.95-1.928 8.194-3.697 11.817-2.859-1.586-5.797-2.3-9.027-2.757 4.463-4.55 10.81-18.802 11.919-25.047M176.775 67.9q-.46-.408-.902-.835a29 29 0 0 1-2.485-2.725 29 29 0 0 1-2.123-3.015 31 31 0 0 1-1.197-2.148 30 30 0 0 1-1.012-2.24 30 30 0 0 1-1.158-3.502 29 29 0 0 1-.523-2.403c4.561 7.124 10.055 11.918 17.619 15.677-1.155-2.378-1.908-4.524-2.471-7.11 3.559 3.216 7.247 7.478 12.355 7.79 1.992.122 4.15-.345 6.109.005l.273.053c-8.178-.007-16.314.196-24.485.453m-60.335 6.917c3.15-3.003 5.654-6.61 8.11-10.185.939-1.367 1.822-2.983 2.927-4.202.193.386.151.61.097 1.038-.109.862-.501 1.682-.669 2.54-.391 2.002-.57 4.148-1.237 6.083-.42 1.217-1.904 3.17-1.812 4.35-3.721.996-7.396 2.197-11.076 3.334-1.078-1.15-2.308-2.748-2.705-4.297-.135-.53-.158-.778.104-1.255.995-.258 5.012 2.095 6.261 2.594m152.792-12.67c-.815 1.798-1.147 3.719-1.749 5.586-.536 1.659-1.402 3.157-2.298 4.641-1.725-.118-3.432-.421-5.14-.691l-2.719-.374-1.603-.194c3.033-1.697 5.059-4.76 7.851-6.813-.168 2.056-.998 3.982-1.799 5.86 2.552-2.582 4.768-5.592 7.457-8.015"/><path fill="#bfe44f" d="M262.333 66.602c-.657 1.746-1.473 3.406-2.288 5.082l-2.718-.374a53 53 0 0 0 5.006-4.709"/><path fill="#90af31" d="m227.813 68.379.699-.106c-.223-1.159-3.915-5.113-3.35-6.037 3.233.432 5.796 8.719 13.563 2.861 1.524-1.15 2.495-2.56 3.77-3.947-.924 3.028-2.015 5.58-4.003 8.08-3.527-.515-7.14-.44-10.679-.852m-81.065 1.471c1.082-1.52 1.548-2.974 2.315-4.629l.265.188c.375 1.357.018 3.073.245 4.503l.33.23c-1.935.328-3.895.545-5.841.8.697-1.455 1.199-2.89 1.67-4.43q.488 1.675 1.016 3.338"/><path fill="#4d1f6b" d="M106.201 95.456c8.328-8.904 23.368-11.333 34.854-13.878 32.172-7.129 76.85-9.649 109.199-2.064 6.225 1.46 13.232 3.309 18.657 6.767.311 3.583.34 7.207.577 10.802 1.104 16.763 1.785 33.57 3.016 50.32-.805.216-1.624.409-2.418.659 3.842 7.803 4.63 22.359 4.003 31.083-.233 3.226-.749 6.34-1.43 9.501-.273 1.266-.474 2.672-.91 3.89q-.156.422-.339.833a21 21 0 0 1-.273.61c-2.36 2.765-4.791 5.746-8.721 5.985-2.049.123-3.843-.492-5.66-1.345-.195-2.29-.067-4.655-.044-6.954l.18-13.04.398-27.511c.066-2.979-.08-5.965.068-8.941a1.3 1.3 0 0 1 .207-.212c1.083-.886 2.921-.766 4.246-.696 1.661.437 2.965 1.109 4.381 2.067-.109-7.013-.627-14.049-1.011-21.051a1202 1202 0 0 1-1.45-30.78c-5.101-1.856-10.462-3.482-15.787-4.533-2.177-.43-4.392-.633-6.581-.974-3.692-.574-7.273-1.154-11.001-1.47-9.117-.775-18.354-.421-27.492-.169q-16.659.32-33.252 1.87c-12.606 1.29-25.01 3.455-37.427 5.928-5.352 1.067-10.808 1.881-16.091 3.267-1.769.465-3.465 1.16-5.221 1.652-.019 15.506-.935 31.036-1.589 46.527 1.071-.029 2.141-.073 3.211-.022.551.202 1.054.315 1.476.735-.38 13.476.048 27.049.047 40.538 0 3.768.551 10.175-.006 13.636-1.059.239-2.095.381-3.181.253-3.778-.447-5.244-3.786-7.372-6.361l-.169-.199c-.155-1.512-2.068-5.296-2.577-7.135-2.47-8.921-2.215-28.976 2.218-36.933.505-.669 1.064-1.258 1.642-1.862-.437-5.576.103-11.519.292-17.12z"/><path fill="#90af31" d="M288.221 84.826c.538.072.711.108 1.028.572.554.815.856 1.944 1.127 2.889 1.496 5.195 1.102 10.688-.163 15.893-1.372 5.654-3.75 10.588-7.222 15.254-.657-4.936-.683-10.03-1.125-15-.35-4.45-.567-8.906-.964-13.353 1.116-.748 2.233-1.417 3.229-2.33 1.378-1.262 2.581-2.83 4.09-3.925"/><path fill="#bfe44f" d="M288.221 84.826c.821 1.953-2.405 11.976-3.373 14.348-.713 1.746-1.558 3.771-2.795 5.212l-.187.048c-.35-4.45-.567-8.906-.964-13.353 1.116-.748 2.233-1.417 3.229-2.33 1.378-1.262 2.581-2.83 4.09-3.925"/><path fill="#90af31" d="M91.683 135.12c-5.061-4.019-7.465-14.227-8.374-20.342-.405-2.727-1.32-10.219.434-12.581.455-.043.428-.016.791.271 2.427 2.318 4.324 4.508 7.686 5.492-.035 5.345-.218 10.69-.246 16.033-.102 3.684.026 7.46-.291 11.127"/><path fill="#bfe44f" d="M84.534 102.469c2.427 2.318 4.324 4.508 7.686 5.492-.035 5.345-.218 10.691-.246 16.033a12 12 0 0 1-.769-.879c-3.903-4.786-7.306-14.522-6.67-20.646m26.345-5.395c1.756-.493 3.453-1.188 5.222-1.652 5.283-1.386 10.738-2.2 16.091-3.267 12.416-2.474 24.82-4.638 37.427-5.929a451 451 0 0 1 33.252-1.87c9.137-.252 18.374-.606 27.491.169 3.729.316 7.31.896 11.002 1.47 2.189.341 4.403.545 6.58.974 5.325 1.051 10.687 2.678 15.787 4.533q.528 15.399 1.45 30.78c.384 7.002.902 14.039 1.012 21.051-1.416-.958-2.721-1.63-4.382-2.066-1.324-.071-3.162-.19-4.246.695a1.5 1.5 0 0 0-.207.212c-.183.528-.201.668-.623 1.019-.526.03-.763-.063-1.225-.304l-.098-.32c.753-3.598.072-11.226.417-15.452-2.502.762-5.551 1.051-8.16.97-10.477-.329-14.449-7.235-22.829-11.611-.134 4.209-1.986 6.813-4.629 9.94-.878.656-1.706 1.409-2.869 1.36-.168-.119-.341-.221-.476-.379l-.13-.423c-.858-.964-1.396-2.325-2.025-3.455-2.382-4.279-4.605-6.515-9.128-8.385.237 1.397.498 2.795.204 4.204-.024.592.004 1.143-.293 1.675l-.311.062-.293-.264-1.322-1.392c-1.96-2.387-5.112-3.349-8.088-3.628-5.214-.488-11.54.849-15.637 4.26-1.54 1.282-2.546 2.717-3.331 4.566.251 2.546 1.068 4.06 2.706 5.981 3.863 2.539 8.999 2.842 13.437 1.929 1.205-.248 2.889-.554 3.911-1.241l1.442-.187c-1.961 1.517-3.926 2.82-6.242 3.737-8.618 3.413-19.423 1.581-26.866-3.783-1.859-1.34-3.741-4.029-5.846-4.829-.089-.034-.18-.061-.269-.091-1.353-1.144-2.765-2.151-4.443-2.765-2.287-.836-4.182-.733-6.376.288-1.39 2.432-2.246 4.47-1.707 7.346.171.621.348.96.182 1.59l-.371.103c-1.203-.448-2.416-1.652-3.486-2.414-3.394-1.477-13.139-5.992-16.318-4.682-.384.158-.724.452-.888.841-.921 2.175 1.049 5.74 1.686 7.824.44.757.957 1.367 1.529 2.022-1.037-.261-2.159-.467-3.167-.812-1.181-.794-2.634-1.279-3.913-1.904-2.091-1.022-4.144-2.129-6.201-3.219-.046 2.867.579 12.475-.336 14.423l-.265.202c-.475-.168-.464-.227-.734-.662-.421-.421-.925-.534-1.475-.735-1.071-.051-2.14-.007-3.211.021.653-15.49 1.569-31.02 1.588-46.526"/><path fill="#90af31" d="M110.879 97.074c1.756-.493 3.453-1.188 5.221-1.652 5.284-1.386 10.739-2.2 16.092-3.267 12.416-2.474 24.82-4.638 37.427-5.929a451 451 0 0 1 33.252-1.87c9.137-.252 18.374-.606 27.491.169 3.729.316 7.309.896 11.002 1.47 2.189.341 4.403.545 6.58.974 5.325 1.051 10.687 2.678 15.787 4.533q.528 15.399 1.45 30.78c.384 7.002.902 14.039 1.012 21.051-1.416-.958-2.721-1.63-4.382-2.066-.016-3.966-.281-7.96-.446-11.923-.446-10.585-1.103-21.153-1.356-31.746-1.368 1.333-2.91 2.637-4.593 3.558-.517.284-1.007.528-1.605.35-.054-.098-.153-.183-.163-.294-.028-.305 1.177-2.579 1.358-3.04.576-1.474.92-2.926 1.197-4.482-4.248-.32-8.484-.813-12.73-1.14-5.328-.412-10.675-.663-16.01-.967-.104.876-.241 1.66-.616 2.468-.551 1.188-1.599 3.662-2.848 4.115-.105-.092-.255-.15-.316-.277-.144-.288-.578-4.367-.757-5.196-.866 1.784-1.655 3.563-2.693 5.262-1.471 2.412-6.277 8.978-8.551 10.337-.478.286-.692.307-1.217.172-.08-.388-.06-.441.121-.782.408-.76 1.104-1.421 1.595-2.138.725-1.06 1.299-2.309 1.803-3.489 1.491-3.497 2.475-6.923 2.083-10.738-3.742.18-7.51-.003-11.256-.048q-8.722-.136-17.445.003c-.263 1.579-.611 3.276-.493 4.884.065.883.964 2.566.623 3.27-.543.036-.761-.051-1.205-.374-2.455-1.786-4.122-3.604-4.605-6.656-1.225 1.175-2.587 2.256-4.057 3.111-.542.316-1.194.729-1.837.561l-.105-.479-.009.236c.164-1.246 1.982-2.95 2.645-4.165l.124-.232c-7.196.27-14.369 1.24-21.565 1.593.382.639 1.082 1.569 1.085 2.332.002.549-.139.701-.477 1.082-.26.084-.498.15-.776.133-1.734-.106-3.01-1.214-4.13-2.41.671 2.902 1.736 5.47 3.853 7.631 1.422 1.451 3.135 2.548 5.188 2.662.572.032.709.049 1.072.496l-.06.413c-.452.443-.961.623-1.567.765-2.453.573-5.712-.156-7.789-1.526-3.824-2.521-5.447-6.39-6.342-10.7-2.69.237-10.64.953-12.745 1.77-.289.76 1.057 1.433 1.188 2.274-.306.253-.2.24-.573.285-1.364.163-2.755-1.149-3.732-1.968 1.592 3.376 3.581 5.171 6.087 7.783.367.382.456.522.44 1.049-.462.215-.634.16-1.103.03a21 21 0 0 1-.846-.259 21 21 0 0 1-.831-.299l-.41-.165a17 17 0 0 1-.808-.36 21 21 0 0 1-.789-.399 18 18 0 0 1-3.27-2.252 19 19 0 0 1-1.279-1.221 21 21 0 0 1-.593-.656 21 21 0 0 1-.56-.684 23 23 0 0 1-.525-.71 18 18 0 0 1-.945-1.495c-1.59.187-4.92.325-6.166 1.251.007.343.032.666.086 1.004.077.473.126.25-.146.654l-.473.078c-.675-.317-1.112-1.062-1.554-1.643-.162.72-.309 1.463-.282 2.204.036 1.001.703 3.117.137 3.902-.974-.222-2.076-1.946-2.674-2.709-.038 7.83-.631 15.759-1.018 23.583 1.662-2.038 2.867-4.527 3.788-6.983.13-.344.196-.604.457-.875l.321.111c.02.059.047.117.06.178.476 2.088-1.704 7.922-2.943 9.759 2.856 2.278 5.626 4.579 8.817 6.383-1.249-1.69-2.353-3.639-2.605-5.758-.167-1.418.109-2.856 1.015-3.987.99-1.238 2.506-1.833 4.045-2.01 5.867-.677 11.842 2.829 16.239 6.319.581-1.899 1.711-3.568 3.061-5.005 1.292-1.377 4.063-3.834 6.03-3.885.029.606-3.187 3.434-3.738 4.256l-.136.207c-1.39 2.432-2.247 4.47-1.707 7.346.171.621.348.96.182 1.59l-.371.103c-1.204-.448-2.416-1.652-3.486-2.414-3.394-1.477-13.139-5.992-16.318-4.682-.384.158-.724.452-.888.841-.921 2.175 1.049 5.74 1.685 7.824.441.757.958 1.367 1.53 2.022-1.037-.261-2.159-.467-3.167-.812-1.181-.794-2.634-1.279-3.913-1.904-2.091-1.022-4.144-2.129-6.201-3.219-.046 2.867.579 12.475-.336 14.423l-.265.202c-.475-.168-.464-.227-.734-.662-.421-.421-.925-.534-1.475-.735-1.071-.051-2.14-.007-3.211.021.653-15.49 1.569-31.02 1.588-46.526"/><path fill="#bfe44f" d="M113.384 129.025c.669.406 1.294.867 1.928 1.324-.046 2.867.579 12.476-.336 14.423l-.265.202c-.475-.167-.464-.227-.733-.662-.422-.42-.926-.533-1.476-.735q.489-7.272.882-14.552"/><path fill="#ca7864" d="M127.063 134.263c-1.523-1.572-3.678-4.497-3.832-6.748-.05-.733.166-1.429.666-1.973.979-1.063 2.668-1.352 4.043-1.357 4.421-.015 11.55 3.007 14.644 6.095-3.394-1.477-13.14-5.992-16.318-4.683-.384.159-.724.453-.888.842-.921 2.175 1.048 5.74 1.685 7.824"/><path fill="#90af31" d="M223.765 103.809c1.177 3.694 1.591 7.594 2.117 11.42 2.541.26 4.879 1.341 7.177 2.401 6.252 2.885 9.932 4.838 17.05 5.004l.084-.148c2.236-4.117 3.445-9.116 2.173-13.688 1.125 1.247 2.013 2.499 2.605 4.083.982 2.632 1.398 8.697.241 11.162-.192.409-.331.833-.48 1.259.33.437.42.343.936.446.283.42.187.886.161 1.368-2.501.762-5.55 1.051-8.159.969-10.478-.328-14.449-7.234-22.83-11.61-.133 4.209-1.985 6.813-4.628 9.94-.878.656-1.707 1.409-2.87 1.36-.167-.119-.341-.221-.476-.379 3.477-5.18 6.001-11.209 6.648-17.476.203-1.97.038-3.935.229-5.895zm-50.496 22.064a18 18 0 0 1-.395-2.446c-.272-3.339.901-6.655 3.047-9.201 2.573-3.051 5.251-4.267 9.197-4.621-1.698 1.233-3.427 2.423-4.817 4.015q-.246.28-.477.572a15 15 0 0 0-.87 1.211 15 15 0 0 0-1.074 1.959 15.3 15.3 0 0 0-1.125 3.543q-.069.367-.121.736a15 15 0 0 0-.145 2.23q.003.373.024.745c.25 2.546 1.067 4.06 2.705 5.981-1.763.456-3.373.243-5.058-.405-3.028-1.165-5.848-3.622-7.165-6.599-.31-.7-.824-1.726-.53-2.477.484-.155.361-.024.662.322 1.697 1.955 3.48 3.358 5.889 4.335z"/><path fill="#ca7864" d="M203.428 112.999c3.714.208 6.931 2.079 9.388 4.823 2.141 2.388 3.757 5.935 3.92 9.152-.858-.964-1.396-2.325-2.026-3.455-2.381-4.279-4.604-6.515-9.127-8.385.237 1.397.498 2.795.203 4.204-.569-2.294-1.219-4.264-2.358-6.339"/><path fill="#90af31" d="M204.89 120.81c-.798-2.73-2.505-6.086-4.473-8.16-1.153-1.214-5.201-3.351-5.546-4.671l.208-.16c.781-.027 1.51.237 2.234.506 2.344.869 5.006 2.309 6.116 4.674 1.139 2.074 1.788 4.044 2.358 6.338-.024.593.004 1.143-.293 1.676l-.311.062z"/><path fill="#ca7864" d="M115.312 130.351c2.057 1.09 4.11 2.197 6.201 3.219 1.279.625 2.732 1.11 3.913 1.904-2.7-.121-4.857-.548-7.427-1.383-.522 3.595-1.586 7.229-1.748 10.849-.193 4.28.107 8.687.151 12.98l.203 26.383.128 25.401c.018 4.451-.202 9.051.105 13.489.086 1.246.357 2.151 1.092 3.18 1.702 2.384 5.675 5.447 8.621 5.859 4.23.596 10.755.291 15.214.349l30.285.456 52.549.807q6.203.055 12.404.229c2.654.095 5.393.38 8.043.29 1.61-.053 2.972-.466 4.28-1.43 1.383-1.015 3.426-3.302 3.639-5.084.285-2.352.229-4.818.281-7.188l.273-12.935 1.161-47.598c.097-3.389.014-14.545.83-17.239.462.24.699.334 1.225.304.422-.351.44-.491.623-1.019-.147 2.976-.002 5.962-.067 8.941l-.399 27.511-.179 13.04c-.024 2.299-.151 4.665.044 6.954.034 5.884-.199 11.767-.275 17.65-.038 3.061.305 8.57-.338 11.322-.457 1.944-1.946 4.043-3.344 5.437-1.404 1.4-3.157 2.565-4.967 3.368-1.85.543-3.87 1.067-5.818.874-1.906-.595-20.831-.508-24.452-.538q-37.315-.282-74.619-1.217c-2.543-.087-5.099-.225-7.644-.135-3.204.114-6.562.564-9.758.235-2.645-1.111-6.582-4.276-8.563-6.323-1.048-1.084-2.206-2.484-2.576-3.965-.661-2.647-.243-8.349-.258-11.293-.026-5.186-.221-10.358-.126-15.548.557-3.461.006-9.868.006-13.636.001-13.489-.427-27.062-.047-40.538.269.436.258.495.733.662l.265-.201c.915-1.948.29-11.557.336-14.423"/><path fill="#90af31" d="M158.785 126.132q.135.043.269.092c2.105.8 3.987 3.488 5.846 4.828 7.443 5.365 18.248 7.196 26.865 3.783 2.316-.917 4.282-2.22 6.243-3.737.38.064.231-.03.453.27-.65 1.967-3.388 4.25-5.051 5.442q-.216.153-.436.302a26 26 0 0 1-.894.57 26 26 0 0 1-.921.525 21 21 0 0 1-3.403 1.467 19 19 0 0 1-1.014.309q-.255.072-.513.136a23 23 0 0 1-1.034.233 23 23 0 0 1-1.569.252 19 19 0 0 1-1.055.104 19 19 0 0 1-1.059.051 19 19 0 0 1-1.59-.021 24 24 0 0 1-1.057-.08 19 19 0 0 1-1.052-.132 23 23 0 0 1-.523-.085c-7.779-1.319-13.065-5.999-17.472-12.241-.313-.702-.684-1.383-1.033-2.068"/><path fill="#ca7864" d="M224.84 116.475c8.381 4.377 12.352 11.282 22.829 11.611 2.609.082 5.658-.208 8.16-.97-.345 4.226.336 11.855-.416 15.452-1.641-1.747-2.914-9.452-3.318-12.227-1.916.265-3.836.359-5.766.186-9.249-.826-13.774-5.125-19.406-11.846-1.669 3.086-3.559 5.996-6.711 7.734 2.643-3.127 4.495-5.731 4.628-9.94m-48.327 8.141c.784-1.849 1.79-3.284 3.33-4.566 4.097-3.41 10.424-4.748 15.638-4.26 2.975.279 6.127 1.241 8.087 3.629-6.291-2.478-13.499-2.727-19.796-.026-2.043.876-4.455 2.316-5.272 4.492-.373.993-.344 2.067.131 3.021.999 2.01 3.522 3.091 5.573 3.707 4.004 1.202 8.245 1.076 12.362.672-1.022.687-2.706.993-3.911 1.241-4.438.913-9.574.61-13.437-1.929-1.638-1.921-2.455-3.435-2.705-5.981m-28.547-.961c2.194-1.02 4.089-1.124 6.377-.288 1.678.614 3.09 1.621 4.442 2.765.35.685.72 1.366 1.033 2.068-2.194-1.899-4.848-3.798-7.911-3.613-1.419.086-2.728.69-3.677 1.756-1.187 1.336-1.608 2.959-1.971 4.658-.539-2.876.318-4.913 1.707-7.346"/><path fill="#fbbc8c" d="M152.141 150.37c1.781.001 3.589.059 5.358.285 5.705 1.154 10.595 4.265 13.812 9.148 2.117 3.215 4.026 8.284 3.508 12.179-.031.23-.119.405-.218.611-.235.126-.458.25-.707.345l.535.052c.173 1.427-1.817 7.424-2.675 8.727-.141.215-.179.219-.382.386l-.019.102.227.202c.134.441.07.491-.114.897-1.947 4.282-6.823 7.976-11.144 9.52a27 27 0 0 1-1.102.355 21 21 0 0 1-1.118.301 21 21 0 0 1-1.132.246q-.283.054-.57.101a22 22 0 0 1-1.722.221 28 28 0 0 1-1.156.076 22 22 0 0 1-1.158.019 28 28 0 0 1-1.157-.038 28 28 0 0 1-1.154-.096 21 21 0 0 1-1.719-.249 27 27 0 0 1-1.134-.236 27 27 0 0 1-1.121-.292 22 22 0 0 1-1.105-.347 22 22 0 0 1-1.086-.401 25 25 0 0 1-1.065-.454q-.264-.12-.524-.246c-5.731-2.783-10.429-8.01-12.458-14.062-1.061-3.162-1.813-8.058-.11-11.121.278-.5.423-.688.973-.839l.24-.118c-.214-.106-.087-.024-.332-.306.125-.92.55-1.766 1.168-2.457l.08-.223c.023-1.002.915-2.048 1.518-2.821 4.43-5.678 11.813-8.649 18.763-9.467"/><path fill="#fbbc8c" d="M152.141 150.37c1.781.001 3.589.059 5.358.285 5.705 1.154 10.596 4.265 13.812 9.148 2.118 3.215 4.026 8.284 3.508 12.179-.03.23-.119.405-.218.611-.235.126-.458.25-.707.345-2.201-1.224-4.374-2.367-6.749-3.223-1.107-.456-2.248-.804-3.389-1.164-4.245-2.385-18.878-4.929-24.194-5.544-1.654-.191-3.093-.203-4.758-.077-.734.055-1.633.252-2.358.2-.254-.019-.448-.131-.666-.249l.08-.223c.023-1.002.915-2.048 1.518-2.821 4.431-5.678 11.813-8.649 18.763-9.467"/><path fill="#d87f46" d="M152.141 150.37c1.781.001 3.589.059 5.358.285 5.705 1.154 10.595 4.265 13.812 9.148 2.117 3.215 4.026 8.284 3.508 12.179-.031.23-.119.405-.218.611-.235.126-.458.25-.707.345-.425-.769-.391-1.823-.594-2.688-.764-3.238-2.032-6.006-4.205-8.547-3.924-4.59-9.607-7.213-15.592-7.665-5.005-.378-10.92.794-15.143 3.61-1.998 1.333-3.644 3.063-5.463 4.606-.453.384-.443.453-1.037.404.023-1.002.915-2.048 1.518-2.821 4.43-5.678 11.813-8.649 18.763-9.467m19.212 31.835.227.202c.134.441.07.491-.114.897-1.947 4.282-6.823 7.976-11.144 9.52a27 27 0 0 1-1.102.355 21 21 0 0 1-1.118.301 21 21 0 0 1-1.132.246q-.283.054-.57.101a22 22 0 0 1-1.722.221 28 28 0 0 1-1.156.076 22 22 0 0 1-1.158.019 28 28 0 0 1-1.157-.038 28 28 0 0 1-1.154-.096 21 21 0 0 1-1.719-.249 27 27 0 0 1-1.134-.236 27 27 0 0 1-1.121-.292 22 22 0 0 1-1.105-.347 22 22 0 0 1-1.086-.401 25 25 0 0 1-1.065-.454q-.264-.12-.524-.246c-5.731-2.783-10.429-8.01-12.458-14.062-1.061-3.162-1.813-8.058-.11-11.121.278-.5.423-.688.973-.839l.06.315c.336 1.837.265 3.806.556 5.68.948 6.087 3.998 11.913 9.071 15.544 4.401 3.15 9.93 4.149 15.22 3.247 4.609-.786 8.554-2.78 12.23-5.619 1.083-.836 2.329-2.107 3.512-2.724"/><path fill="#fefefe" d="M131.78 162.881c.218.118.411.231.666.249.725.052 1.623-.145 2.357-.2 1.666-.125 3.104-.114 4.758.077 5.317.615 19.949 3.16 24.195 5.544-1.437.579-2.942 1.229-3.558 2.777-.347.874-.288 1.668-.113 2.569-1.74-.533-3.43-1.674-5.127-2.391-5.879-2.481-17.826-7.235-24.014-5.861-.214-.106-.087-.025-.332-.307.125-.92.55-1.766 1.168-2.457"/><path fill="#fefefe" d="M163.756 168.551c1.141.361 2.282.708 3.389 1.165 2.375.855 4.548 1.999 6.749 3.223l.535.052c.173 1.427-1.816 7.424-2.674 8.727-.141.214-.179.219-.383.385-1.747-2.743-4.887-4.493-7.562-6.203a334 334 0 0 1-3.725-2.003c-.175-.901-.233-1.695.114-2.568.615-1.549 2.121-2.199 3.557-2.778"/><path fill="#000" d="M163.756 168.551c1.141.361 2.282.708 3.389 1.165.564 1.095.873 2.052.451 3.266-.409 1.177-1.499 2.072-2.616 2.546-.378.16-.774.269-1.17.372a334 334 0 0 1-3.725-2.003c-.175-.901-.233-1.695.114-2.568.615-1.549 2.121-2.199 3.557-2.778"/><path fill="#fbbc8c" d="M195.825 172.446c-.246-.301-.323-.552-.349-.943-.303-4.69 2.073-9.977 5.174-13.391 3.997-4.399 9.64-6.806 15.541-7.064 6.223-.272 13.455 2.123 17.928 6.577.368.368.48.548.474 1.063 1.262.954 2.519 3.072 3.031 4.563l-.034.24-1.524.283c.399-.032.777-.061 1.169-.141.588.159.823.194 1.146.732.519.867.731 1.878.958 2.849.916 3.896.86 7.361-.327 11.213-1.747 5.67-5.951 10.599-11.187 13.355-5.313 2.795-11.897 3.641-17.671 1.845a21 21 0 0 1-2.378-.883 21 21 0 0 1-1.812-.914 17 17 0 0 1-.868-.523 21 21 0 0 1-.427-.277l-.416-.288a23 23 0 0 1-.814-.607 25 25 0 0 1-.783-.646 20.3 20.3 0 0 1-3.087-3.354 24 24 0 0 1-.579-.834 24 24 0 0 1-.537-.861q-.129-.219-.253-.44a24 24 0 0 1-.241-.447c-.384-.733-.748-1.461-.965-2.262-.167-.193-.21-.223-.339-.486-.788-1.609-1.552-6.636-.843-8.24z"/><path fill="#fbbc8c" d="M195.825 172.446c-.246-.301-.323-.552-.349-.943-.303-4.69 2.073-9.977 5.174-13.391 3.997-4.399 9.64-6.806 15.541-7.064 6.223-.272 13.455 2.123 17.928 6.577.368.368.48.548.474 1.063l-.239.124c-.482.492-9.653 1.982-11.171 2.334-5.272 1.223-12.623 3.378-17.319 5.963a25.6 25.6 0 0 0-3.915 2.003c-1.717.787-4.275 3.05-5.441 3.488-.189.071-.51.015-.696-.035z"/><path fill="#d87f46" d="M195.825 172.446c-.246-.301-.323-.552-.349-.943-.303-4.69 2.073-9.977 5.174-13.391 3.997-4.399 9.64-6.806 15.541-7.064 6.223-.272 13.455 2.123 17.928 6.577.368.368.48.548.474 1.063l-.239.124q-.148-.04-.295-.085c-1.536-.48-3.473-2.142-5.029-2.923a23 23 0 0 0-1.75-.776 20 20 0 0 0-1.201-.433 21 21 0 0 0-1.225-.365 25 25 0 0 0-1.241-.294 22 22 0 0 0-1.259-.223q-.314-.048-.631-.085a23 23 0 0 0-1.91-.147 23 23 0 0 0-2.551.059 20 20 0 0 0-1.271.137 22 22 0 0 0-2.505.49 21 21 0 0 0-1.832.551 22 22 0 0 0-1.781.706q-.293.13-.579.269c-3.957 1.944-7.248 5.099-9.558 8.839a27 27 0 0 0-2.263 4.592c-.335.884-.616 2.112-1.089 2.906-.144.244-.313.315-.559.416m41.41-8.813c.588.159.823.194 1.146.732.519.867.731 1.878.958 2.849.916 3.896.86 7.361-.327 11.213-1.747 5.67-5.951 10.599-11.187 13.355-5.313 2.795-11.897 3.641-17.671 1.845a21 21 0 0 1-2.378-.883 21 21 0 0 1-1.812-.914 17 17 0 0 1-.868-.523 21 21 0 0 1-.427-.277l-.416-.288a23 23 0 0 1-.814-.607 25 25 0 0 1-.783-.646 20.3 20.3 0 0 1-3.087-3.354 24 24 0 0 1-.579-.834 24 24 0 0 1-.537-.861q-.129-.219-.253-.44a24 24 0 0 1-.241-.447c-.384-.733-.748-1.461-.965-2.262l.73-.63c1.276.769 2.496 2.398 3.564 3.471 3.447 3.467 7.916 6.004 12.778 6.843 5.098.881 10.306-.114 14.54-3.146 5.652-4.047 8.598-10.874 8.695-17.709.028-1.879-.48-4.337-.139-6.138.022-.117.05-.233.073-.349"/><path fill="#fefefe" d="M234.592 158.687c1.263.954 2.519 3.072 3.031 4.563l-.034.241-1.523.282c-7.07.393-14.686 2.965-21.25 5.531-1.737.679-3.649 1.976-5.409 2.408-.012-.728-.09-1.528-.373-2.204-.595-1.423-1.834-1.896-3.17-2.4 4.696-2.585 12.047-4.739 17.318-5.963 1.518-.352 10.689-1.842 11.171-2.334z"/><path fill="#fefefe" d="M205.864 167.108c1.337.504 2.575.977 3.171 2.4.283.677.36 1.476.372 2.204-1.589.872-3.206 1.713-4.758 2.649-2.16 1.4-6.212 3.697-6.925 6.3l-.73.629c-.167-.193-.21-.222-.339-.486-.788-1.609-1.552-6.635-.843-8.24.186.05.507.106.695.035 1.167-.438 3.725-2.701 5.442-3.488a25.7 25.7 0 0 1 3.915-2.003"/><path fill="#000" d="M205.864 167.108c1.336.504 2.575.977 3.171 2.4.282.677.36 1.476.372 2.204-1.589.872-3.206 1.713-4.758 2.649q-.102-.031-.205-.067c-1.063-.392-2.083-1.079-2.571-2.138-.496-1.073-.287-1.971.076-3.045a25.7 25.7 0 0 1 3.915-2.003m.193 27.458c2.006-.155 4.081.106 5.921.949 1.954.896 5.206 3.73 5.73 5.919.119.496.046.569-.209.968-1.621-.652-4.059-3.103-6.19-4.175-1.205 3.569-3.402 6.941-5.831 9.795-6.515 7.651-16.853 13.377-26.943 14.138-5.595.422-11.641-.789-15.967-4.559-3.437-2.995-4.991-6.95-5.298-11.425-.02-2.356.269-4.42.853-6.698-1.517.765-4.631 3.627-5.851 3.667l-.245-.287a3 3 0 0 1 .015-.695c.334-1.956 1.878-3.556 3.415-4.702 2.729-2.034 6.51-3.02 9.88-2.477 1.272.205 3.32.876 4.083 1.978l-.086.348c-1.293.784-3.602.299-5.104.414-.726.055-1.451.227-2.161.382-.158.787-.374 1.613-.077 2.39.504 1.32 1.674 2.214 2.936 2.748 10.255 4.336 31.68-2.535 41.733-6.372-1.376-.07-2.784.161-4.151.028-.458-.045-.772-.079-1.063-.451.034-.05.062-.105.101-.151.897-1.034 3.201-1.521 4.509-1.732"/><path fill="#fefefe" d="M186.703 205.099c.31.516-.201 10.44-.203 11.768-1.697.522-3.4.988-5.144 1.327-1.334.259-5.433 1.149-6.572.388l-.073-.486c-.459-3.792-.867-7.642-1.735-11.366 4.665-.189 9.145-.765 13.727-1.631m13.621-3.563.217.034c.227 1.107-1.213 7.116-1.507 8.755a59 59 0 0 1-10.503 5.801l-.136-.119c-.305-.904.174-9.454.159-11.284 3.981-.936 7.867-1.958 11.77-3.187m-36.265 3.527c2.488 1.01 4.766 1.484 7.451 1.574a176 176 0 0 0 1.781 12.021c-2.639-.044-5.401-.739-7.633-2.171-.363-3.806-1.128-7.618-1.599-11.424m-3.344-3.597c.617.574 1.069 1.869 1.792 2.639.472 3.703 1.09 7.407 1.494 11.115l-.369.036c-1.056-.954-1.915-1.856-2.599-3.131-1.818-3.381-1.433-7.131-.318-10.659m46.119-2.291.165.016c.345.607.046 2.505.006 3.277-1.754 2.221-3.634 4.167-5.714 6.073-.436-.612.799-6.517.984-7.66a125 125 0 0 0 4.559-1.706"/><path fill="#bfe44f" d="M150.058 145.62c.288-1.434.516-4.158 1.767-5.046 1.293-.918 3.413-.632 4.877-.317 6.962 1.5 14.205 6.618 17.987 12.636.701 1.115 1.443 2.502 1.512 3.833-1.203.17-2.065-.419-3.109-.936-1.483-.478-2.846-1.331-4.218-2.06-3.376-1.795-7.477-3.385-11.374-3.073-1.77-.227-3.577-.285-5.359-.285l-2.174-1.371c-.536-.996-.14-2.345.091-3.381"/><path fill="#90af31" d="M150.058 145.619c4.518-1.527 11.252 1.345 15.242 3.315 3.236 1.598 8.898 4.776 10.901 7.79-1.203.171-2.065-.419-3.109-.936-1.483-.477-2.846-1.331-4.218-2.06-3.376-1.795-7.477-3.385-11.374-3.073-1.77-.226-3.577-.284-5.359-.285l-2.174-1.371c-.536-.996-.14-2.345.091-3.38"/><path fill="#ca7864" d="M149.967 149.001c6.607-.453 12.25.443 18.187 3.48 1.35.691 2.913 1.474 4.086 2.442.291.241.539.501.783.787l.069.08c-1.483-.478-2.846-1.332-4.217-2.061-3.376-1.795-7.477-3.384-11.375-3.073-1.769-.226-3.577-.284-5.359-.285z"/><path fill="#90af31" d="M193.953 153.82c.284-.638.648-1.251 1.026-1.837 4.293-6.66 11.547-11.526 19.238-13.2a185 185 0 0 0 3.876 3.18c.842.889 2.296 2.13 2.22 3.452-.022.412-.352.781-.623 1.072-.454.801-.908 1.562-1.462 2.301-4.955.119-9.729.712-14.475 2.193-2.83.883-7.895 4.55-10.122 4.47-.065-.715-.073-1.002.322-1.631"/><path fill="#bfe44f" d="M193.953 153.82c.284-.638.648-1.251 1.026-1.837 4.293-6.66 11.546-11.526 19.238-13.2a188 188 0 0 0 3.875 3.18c-8.995.778-17.722 5.669-24.139 11.857"/><path fill="#ca7864" d="M193.631 155.451c1.838-.718 3.41-2.107 5.14-3.045 6.369-3.454 13.634-5.924 20.919-5.919-.454.801-.908 1.562-1.462 2.301-4.955.119-9.729.712-14.475 2.193-2.83.883-7.895 4.55-10.122 4.47"/><path fill="#bfe44f" d="M141.264 149.319c-.407-1.384-.725-2.669-.776-4.121-.055-1.56.006-4.661 1.247-5.733.717-.62 1.805-.34 2.663-.243 1.107.084 2.92.039 3.671.96.272.333.396.756.451 1.175.082.632.076 6.457.003 6.912-.025.159-.112.428-.153.567-.28.538-.374.964-.993 1.191-1.342.491-4.337.498-5.676-.067-.155-.209-.322-.407-.437-.641"/><path fill="#90af31" d="M141.264 149.319c-.407-1.384-.725-2.669-.776-4.121-.055-1.56.006-4.661 1.247-5.733.717-.62 1.805-.34 2.663-.243-.84 4.082-.283 5.994-.445 9.858-.896.092-1.789.189-2.689.239"/><path fill="#ca7864" d="M143.953 149.079q2.21-.108 4.417-.244c-.28.539-.374.965-.993 1.191-1.341.492-4.336.498-5.676-.067-.154-.209-.322-.407-.437-.64.9-.051 1.793-.147 2.689-.24"/><path fill="#bfe44f" d="M222.302 137.242c1.102-.116 2.205.049 3.3.165 1.189 1.872 1.898 4.265 2.311 6.429-.681 1.144-2.408 1.642-3.659 1.962-.623.159-1.167.268-1.804.154-.359-.229-.546-.333-.703-.739-.805-1.823-2.101-3.447-2.864-5.31-.267-.649-.542-1.306-.263-1.995.898-.628 2.597-.569 3.682-.666"/><path fill="#90af31" d="M222.303 137.242c1.101-.116 2.204.049 3.3.165 1.189 1.872 1.898 4.265 2.31 6.429-.932.171-1.868.375-2.806.492-1.099-2.014-2.362-4.848-2.804-7.086"/><path fill="#ca7864" d="M227.913 143.836c-.681 1.144-2.408 1.642-3.659 1.962-.623.159-1.167.268-1.804.154-.358-.229-.546-.333-.703-.739 1.137-.174 2.259-.557 3.36-.885.938-.116 1.874-.32 2.806-.492"/><path fill="#4d1f6b" d="M125.542 235.616c3.196.329 6.554-.121 9.758-.235 2.545-.089 5.101.048 7.644.136q37.304.934 74.619 1.217c3.621.03 22.546-.058 24.452.537 1.948.194 3.968-.33 5.818-.874 1.934.956 1.738 3.679 3.527 4.776 3.778 1.527 6.871 4.469 9.675 7.347.808.334 1.482.912 1.752 1.778.036.114.044.233.066.349.689 1.165 1.607 2.232 2.225 3.423-5.421 1.283-11.747 7.268-14.612 11.918-2.583 4.192-3.703 8.615-3.344 13.519-1.707-.926-3.344-2.434-4.911-3.609-1.15-.412-2.046-1.161-3.006-1.892l-.201.295c.488.737.434 1.238.402 2.101-.197 2.228-.549 4.304-1.155 6.456 1.082.998 2.253 2.217 2.404 3.764.291 1.853.972 4.515-.243 6.158-.342.464-.834.755-1.32 1.048.934 1.735 2.073 3.368 2.983 5.098 1.416 3.123 2.492 6.688 1.261 10.064-.874 2.402-2.699 3.893-4.969 4.909-.721.323-1.512.508-2.279.695 1.962 1.671 3.283 3.34 3.836 5.935 3.091.006 6.961.697 9.199 3.057.349.368.719.87.737 1.398.002.118-.018.235-.026.353 1.817 3.059 1.693 6.546 1.191 9.953.902 1.588 1.227 3.261.757 5.065-.444 1.711-1.591 2.989-3.131 3.818a8.6 8.6 0 0 1-3.033.988c-4.796.589-9.916.223-14.757.3-4.388.072-8.759.166-13.147.168-2.601.002-5.216.071-7.801-.257-1.318-1.066-2.39-2.211-3.967-2.914l-.195.07c-1.406.533-2.633 1.473-3.921 2.234-2.464 1.454-5.573 1.504-8.237.566-.519-2.456-.341-5.13-.299-7.636.038-3.274.43-7.038-.087-10.266-.167-.108-.257-.269-.331-.454-.629-1.588-.989-13.503-.368-15.088.195-.498.533-.514.994-.706l-.268-1.768c-.138-1.731.108-3.163.508-4.828a46 46 0 0 1-4.023 1.618c-.115.695-.18 1.455-.383 2.127-.195 1.503-1.103 3.268-2.29 4.248q-.013.01-.028.017c-1.797-.236-4.394 1.05-6.228 1.484-1.179-.687-2.351-1.36-3.579-1.959-1.645.995-3.15 1.901-5.048 2.332-1.779.402-3.993.161-5.581 1.071-5.794-3.264-12.761-4.913-19.382-3.852-.65.104-1.403.118-2.03.301-.583.171-.596.381-.841.892-.53-.149-1.068-.33-1.535-.629-1.484-.948-1.885-2.36-2.273-3.967-.031-1.773.302-4.37 1.502-5.726.23-.02.488-.03.714-.088.778-.197 1.425-.669 1.792-1.394.567-1.121.309-2.244-.107-3.357.092-1.333.349-2.653.568-3.97l-.428-1.774-.087-.098-.293-.075c-2.118-.572-4.205-1.299-5.316-3.34-2.318-4.26 1.124-9.355 2.398-13.37l.071-.233c-2.124 1.779-2.929 2.89-3.861 5.473.798 2.896-.65 4.692-.724 7.413-1.319-.641-5.817.563-7.55.747-7.572.802-18.244.896-24.775-3.376l-1.32.723c-.394-2.296-.888-4.684-.913-7.016-.036-3.267.694-6.987 1.924-10.01 1.019-2.505 2.835-4.226 4.212-6.477 3.213-5.245 4.215-8.629 8.723-13.301 2.837-4.282 5.344-6.662 10.295-8.219-.535-.395-1.045-.823-1.559-1.245-.78-.46-1.399-.998-2.06-1.605.551-.861 1.056-1.63 1.815-2.331"/><path fill="#90af31" d="M125.542 235.616c3.196.329 6.554-.121 9.758-.235 2.545-.089 5.101.048 7.644.136q37.304.934 74.619 1.217c3.62.03 22.546-.058 24.452.537-.008.859.02 1.446-.464 2.179-4.937 5.734-11.129 10.259-17.07 14.869a248 248 0 0 0-13.751 11.257c-2.737 2.399-5.23 5.148-7.76 7.767-.79.818-1.605 1.971-2.487 2.643-.902.049-1.093-.241-1.745-.789-2.117-2.374-5.611-4.226-8.264-5.971-8.43-5.542-17.053-10.422-26.016-15.036-8.116-4.176-16.072-8.068-24.81-10.812-4.811-1.691-8.795-3.109-13.861-3.826-.78-.46-1.399-.998-2.06-1.605.551-.861 1.056-1.63 1.815-2.331"/><path fill="#4d1f6b" d="M241.551 239.449c-4.937 5.734-11.128 10.259-17.069 14.869a247 247 0 0 0-13.752 11.257c-2.736 2.399-5.23 5.148-7.759 7.767-.791.818-1.605 1.971-2.488 2.643.176-.6.423-1.17.709-1.725 4.981-9.695 30.149-31.495 40.359-34.811"/><path fill="#bfe44f" d="M140.689 239.139c2.853-.079 14.397-.056 16.784.514 4.532 1.08 8.943 4.628 12.794 7.176 3.742 2.475 7.647 5.12 11.677 7.102 6.456 3.178 15.352 4.505 22.271 2.18-2.065-.5-4.208-.77-6.292-1.224-5.213-1.138-10.54-2.93-15.229-5.465-5.931-3.207-10.242-6.955-16.749-9.775 13.993-.032 28.018.478 42.012.675 7.825.403 15.766.277 23.605.359-14.045 6.291-24.226 18.744-31.3 32.034l-.253-.279c-4.372-5.003-9.988-8.886-15.487-12.537-10.096-6.699-20.393-12.433-31.688-16.862a102 102 0 0 0-7.081-2.424c-1.552-.454-3.177-.795-4.697-1.34z"/><path fill="#90af31" d="m215.482 242.331.129.132-.05.344c-1.053 1.446-2.248 2.916-3.813 3.83-5.511 3.218-13.721 1.35-19.786 1.169-2.944-.088-5.851.072-8.719.759-.192-.092-.065-.018-.326-.297.259-.606 1.027-.968 1.592-1.271 5.203-2.788 12.362-1.242 18.036-1.163 2.158.032 4.393-.087 6.51-.526 2.432-.499 4.421-1.545 6.427-2.977"/><path fill="#703794" d="M242.015 237.272c1.948.193 3.967-.331 5.818-.875 1.933.956 1.738 3.679 3.527 4.776 3.778 1.528 6.871 4.469 9.675 7.347.808.335 1.481.912 1.752 1.778.036.114.044.233.066.349.689 1.165 1.607 2.233 2.225 3.423-5.421 1.283-11.747 7.268-14.613 11.918-2.583 4.192-3.702 8.616-3.343 13.519-1.707-.926-3.344-2.434-4.912-3.609-1.149-.412-2.045-1.161-3.005-1.892l-.201.295q-.091-.118-.179-.237c-3.999-5.393-5.039-13.196-3.963-19.677q.172-1.011.43-2.007.257-.994.595-1.964.34-.968.759-1.906.42-.937.918-1.836c.645-1.169 1.554-2.286 1.93-3.571l-.165-.143c-1.311.215-2.96 2.822-3.739 3.911-4.686 6.56-6.488 14.027-5.114 21.959.355 2.053.978 4.087 1.659 6.054-3.525-1.3-6.216-3.62-8.223-6.775.677 3.824 2.671 7.15 5.875 9.418q.747.52 1.522.996c-1.148-.018-2.518-.231-3.611.102.036.41-.05.254.289.535.611.51 1.436.845 2.149 1.195-8.188 4.334-13.284 6.501-22.744 7.249l-.785 2.295-.647 1.422-.291.51-1.008.28c-4.038-.529-7.932-1.224-11.796-2.545l-1.619-.571c-3.705-1.456-7.266-3.071-10.688-5.121-1.026-.529-2.017-1.185-3.01-1.774a107 107 0 0 1-7.447-5.371l-1.339-1.16c-4.152-3.672-7.995-7.641-10.628-12.568l-.033-.074c-.626-1.304-1.482-5.222-1.715-5.551l-.585-.268c-1.151-1.52-2.015-3.255-3.025-4.87 7.271 3.571 14.774 6.634 21.969 10.352 3.19 1.649 6.241 3.52 9.387 5.244 2.876 1.574 5.838 3 8.752 4.503 1.786.922 3.933 2.36 5.854 2.86.652.548.843.838 1.745.789.882-.671 1.697-1.825 2.488-2.643 2.529-2.619 5.022-5.367 7.759-7.767a247 247 0 0 1 13.752-11.257c5.94-4.61 12.132-9.135 17.069-14.869.484-.732.456-1.32.464-2.178"/><path fill="#ddd6ab" d="M251.36 241.173c3.778 1.527 6.871 4.469 9.675 7.347.808.334 1.482.912 1.752 1.778.036.114.044.233.066.349.689 1.165 1.607 2.232 2.225 3.423-5.421 1.283-11.747 7.267-14.612 11.918-2.583 4.192-3.703 8.615-3.344 13.518-1.707-.926-3.344-2.433-4.911-3.608-1.15-.413-2.046-1.161-3.006-1.892l.01-.056c-.316-.307-.464-.58-.617-.988-2.193-5.841-1.103-12.413 1.444-17.954.958-2.175 2.127-4.128 3.503-6.066 2.322-3.129 4.997-5.174 7.815-7.769"/><path fill="#b6ad76" d="M261.035 248.519c.808.334 1.481.912 1.752 1.778.036.114.044.233.066.349-5.955 1.428-11.599 5.048-15.725 9.531-1.544 1.677-2.838 3.555-4.38 5.228l-.153.164a18.3 18.3 0 0 1 2.087-5.405c3.025-5.2 9.358-9.771 15.144-11.305.404-.107.806-.225 1.209-.34m-17.49.422c2.569-.693 9.071-1.87 11.387-.566l.152.369c-1.119.554-2.521.37-3.742.53-4.304.559-8.114 2.935-11.3 5.733.957-2.174 2.127-4.128 3.503-6.066m-4.33 25.008c.028-.095.06-.191.088-.287.741-2.509 1.095-5.917 3.66-7.398.068-.04.142-.066.213-.098l.261.132c.233 1.22-.854 2.728-1.123 3.941-.388 1.74-.147 3.889-.104 5.658-1.149-.412-2.045-1.161-3.005-1.892z"/><path fill="#747377" d="M159.5 262.326c1.958-.586 3.553-.432 5.386.532 2.249 1.185 4.327 3.559 4.981 6.048.191.727.228 1.522.291 2.27 2.462-.844 4.545-1.101 6.998.068 2.09.994 3.2 2.571 4.25 4.539 1.927-.54 3.457-.723 5.308.293 2.695 1.479 5.135 5.144 5.941 8.087.216.787.233 2.53.685 3.139 1.53-1.111 1.076-5.745 6.844-4.849 2.026.316 3.961 1.446 5.176 3.107 1.028 1.406 1.223 2.646 1.247 4.337l-.647 1.422-.291.51-1.008.281c-4.039-.53-7.932-1.225-11.796-2.545l-1.619-.572c-3.705-1.456-7.266-3.071-10.689-5.12-1.025-.53-2.016-1.185-3.01-1.775a107 107 0 0 1-7.447-5.371l-1.338-1.159c-4.153-3.673-7.995-7.642-10.628-12.569z"/><path fill="#9f9ca4" d="M180.557 283.874q.067-.085.132-.171c.506-.671.734-1.263.999-2.049.353-1.046.534-1.705 1.596-2.201 1.135-.528 2.355-.506 3.501-.024 1.93.808 3.271 2.671 4.022 4.563.653 1.645.844 3.081.476 4.821l-.037.181c-3.705-1.455-7.266-3.071-10.689-5.12m12.308 5.692q.496-.748.9-1.549c.727-1.44 1.789-2.44 3.346-2.922q.15-.046.301-.086.152-.038.305-.067a5.4 5.4 0 0 1 .93-.116q.156-.008.312-.008.157.002.313.01t.311.026a7 7 0 0 1 .617.096 6 6 0 0 1 .606.159q.148.048.294.101.147.057.291.118a6 6 0 0 1 .56.277c2.565 1.45 2.326 3.76 4.009 5.716l-.291.509-1.008.281c-4.039-.53-7.932-1.225-11.796-2.545m-21.86-17.496c2.589.249 4.827.703 6.593 2.816 1.013 1.213 1.824 3.127 1.601 4.73-.094.677-.294 1.603-.854 2.041-.23.182-.535.315-.798.443a107 107 0 0 1-7.447-5.372c.76-1.573 1.162-2.887.905-4.658m-11.505-9.743c3.73 1.617 6.948 3.29 8.577 7.278.808 1.975.909 3.861.685 5.964-4.153-3.672-7.995-7.641-10.628-12.569zm24.565 14.097c.164-.01.328-.022.492-.018.991.02 2.22.601 2.898 1.306l-.155.183-.951-.149c-1.107-.107-2.929.321-3.804-.376.324-.574.939-.705 1.52-.946"/><path fill="#bfe44f" d="m193.502 311.177.242.05c2.547.579 4.814 2.129 7.364 2.824 5.62 1.533 15.353 1.524 21.274 1.169 1.04-.852 2.653-1.438 3.947-1.792 3.448-.946 6.648-.628 9.759 1.165 1.962 1.671 3.282 3.34 3.836 5.935 3.091.005 6.96.697 9.199 3.057.348.368.719.87.737 1.398.002.117-.018.235-.026.352 1.816 3.059 1.693 6.546 1.191 9.954.902 1.587 1.227 3.26.757 5.065-.444 1.71-1.592 2.989-3.131 3.817-.96.516-1.954.855-3.033.988-4.796.59-9.916.223-14.758.301-4.387.072-8.759.165-13.146.167-2.601.002-5.216.072-7.801-.257-1.318-1.065-2.39-2.21-3.967-2.913l-.195.069c-1.407.534-2.633 1.474-3.922 2.235-2.463 1.454-5.572 1.504-8.237.566-.519-2.456-.34-5.131-.299-7.636.039-3.274.431-7.038-.086-10.267-.167-.107-.258-.269-.331-.454-.63-1.587-.989-13.503-.369-15.088.196-.498.534-.514.995-.705"/><path fill="#58443d" d="M227.688 335.912c2.673-.315 5.443-.267 8.136-.344a535 535 0 0 1 15.201-.279c.902 1.587 1.227 3.26.757 5.064-.444 1.711-1.591 2.99-3.131 3.818a8.6 8.6 0 0 1-3.033.988c-4.795.589-9.916.223-14.757.301-4.388.071-8.759.165-13.147.167-2.601.002-5.216.072-7.801-.257-1.318-1.065-2.389-2.211-3.967-2.914l-.195.07c-1.406.534-2.633 1.474-3.921 2.235-2.464 1.453-5.573 1.503-8.237.565-.519-2.455-.341-5.13-.299-7.635.606-.375 1.219-.707 1.931-.835 1.771-.321 3.85-.078 5.659-.137 4.399-.148 8.91-.554 13.307-.395.357.269.699.514 1.143.624 2.364.579 8.461.139 11.076.125z"/><path fill="#6e5a53" d="M223.78 339.108c1.026-.092 2.1-.066 3.129-.094.034 1.432.082 2.842.247 4.266q-4.154.01-8.305.193l-3.933.068c.088-1.38-.01-2.752-.082-4.128 2.974-.204 5.967-.188 8.944-.305m12.8-.39c1.45-.112 2.932-.078 4.388-.1-.156 1.46-.184 2.87-.154 4.338-2.31.129-4.628.135-6.94.169-1.51-.004-3.02.05-4.527.082.026-1.393-.169-2.813-.303-4.199 2.476-.275 5.045-.187 7.536-.29m11.709-.383c.517 0 .579-.036.984.271.049.601-.347 1.247-.66 1.743-1.031 1.635-2.288 2.27-4.086 2.664-.359-.026-.628-.059-.958-.199-.564-1.29-.438-2.947-.47-4.329q2.597-.04 5.19-.15m-52.668 1.217c2.79.197 5.641.092 8.441.102-.958.456-1.786.89-2.623 1.551-1.699 2.006-2.959 2.324-5.493 2.579a54 54 0 0 1-.325-4.232m14.42-.058 2.591-.085c-.006 1.115.282 2.885-.168 3.883-.139.307-.272.259-.563.349-.725-.178-1.201-.755-1.717-1.259-1.635-1.356-3.003-2.133-5.017-2.75q2.438-.026 4.874-.138"/><path fill="#90af31" d="m193.502 311.177.242.05c2.547.579 4.814 2.129 7.364 2.824 5.62 1.533 15.353 1.524 21.274 1.169-1.559 1.372-2.688 3.29-4.22 4.581-2.804-1.229-10.641.284-14.031.185-2.129-.064-4.134-.643-6.184-1.171-.171 3.37.193 6.737-.022 10.091-.587-.603-1.23-1.061-1.918-1.539a18 18 0 0 0-2.8.057c-.167-.107-.258-.269-.331-.454-.63-1.587-.989-13.503-.369-15.088.196-.498.534-.514.995-.705"/><path fill="#444d2c" d="M222.382 315.22c1.04-.852 2.653-1.438 3.948-1.793 3.447-.946 6.648-.627 9.758 1.166 1.962 1.67 3.282 3.339 3.836 5.934-1.539.309-3.097.962-4.62 1.175-1.572.22-3.251.11-4.84.2-4.234.241-8.834 1.406-12.445 3.684-.43-.121-.771-.293-1.163-.498-.189-.239-.373-.454-.44-.761-.335-1.507.968-3.312 1.746-4.526 1.532-1.291 2.661-3.209 4.22-4.581"/><path fill="#6e5a53" d="M227.688 335.912c3.499-4.091 6.114-1.076 9.342-3.29 2.205-1.512 2.317-4.68 4.448-6.319 1.517-1.167 3.274-1.02 5.06-.831.709.331 1.627.908 2.412.6.368-.146.621-.456.884-.737 1.817 3.059 1.693 6.546 1.191 9.954q-7.602.032-15.201.278c-2.693.078-5.463.03-8.136.345m-34.481-8.488a18 18 0 0 1 2.8-.058c.689.478 1.332.936 1.918 1.54.921 1.573 1.969 5.094 3.942 5.478 1.018.198 2.086-.486 2.826-1.111 1.715-1.448 4.025-4.23 6.477-3.959 1.03.113 1.872.866 2.45 1.683.39.553.639 1.181.892 1.804-.267 1.205-.614 2.288-.321 3.523-4.397-.159-8.908.247-13.307.395-1.81.059-3.889-.184-5.66.137-.711.127-1.324.46-1.93.834.038-3.274.43-7.038-.087-10.266"/><path fill="#90af31" d="M239.924 320.528c3.091.006 6.961.697 9.199 3.057.349.368.719.87.737 1.398.002.117-.018.235-.026.352-.263.281-.516.592-.884.737-.785.309-1.703-.269-2.412-.599a1.44 1.44 0 0 0-.351-.578c-1.226-1.376-3.754-1.836-5.536-1.924-4.863-.241-9.209 3.079-12.599 6.174.984-1.94 2.075-3.549 3.661-5.046-3.352.039-6.578.324-9.851 1.079-1.2.279-3.666 1.47-4.773 1.322l.93-.914c3.61-2.278 8.211-3.443 12.445-3.684 1.589-.09 3.268.02 4.84-.199 1.523-.213 3.081-.867 4.62-1.175m-31.819 5.716c.012.169.024.268 0 .446-.08.557-.526 1.316-1.026 1.603-.691.4-1.659.247-2.354-.05a3 3 0 0 1-.207-.094 3 3 0 0 1-.203-.103 5 5 0 0 1-.389-.237 6 6 0 0 1-.362-.279 6 6 0 0 1-.169-.151 6 6 0 0 1-.162-.162 6 6 0 0 1-.151-.169 5 5 0 0 1-.279-.36 5 5 0 0 1-.342-.592 4 4 0 0 1-.176-.42c-.225-.631-.306-1.338.086-1.93.476-.725 1.543-1.091 2.35-1.282.779-.186 1.289.139 1.926.547.671.436 1.336.791 1.523 1.633.116.524.01 1.078-.065 1.6"/><path fill="#6e5a53" d="M206.647 323.011c.671.436 1.336.791 1.524 1.633.115.524.01 1.078-.066 1.6-.458.334-.894.611-1.464.709-.635.107-1.32-.03-1.844-.411-.5-.36-.853-.866-.906-1.497-.048-.544.123-.926.482-1.325.591-.653 1.457-.679 2.274-.709"/><path fill="#703794" d="m127.346 240.796.807.432c3.23 1.954 5.544 4.613 8.428 6.937l.614.834a37 37 0 0 1 2.327 2.486c2.988 3.397 5.838 6.757 8.518 10.41.746 1.017 1.67 2.077 2.228 3.198-4.218 5.321-6.337 16.209-5.615 22.819.146 1.347.454 2.948 1.218 4.077-.463-.058-.849-.141-1.309-.034l-.087-.097-.293-.076c-2.118-.572-4.205-1.299-5.316-3.34-2.318-4.26 1.124-9.354 2.398-13.369l.071-.233c-2.124 1.778-2.929 2.89-3.861 5.473.798 2.895-.65 4.692-.724 7.412-1.319-.641-5.817.564-7.55.747-7.572.803-18.244.896-24.775-3.376l-1.32.723c-.394-2.296-.888-4.684-.913-7.016-.036-3.266.694-6.986 1.924-10.01 1.019-2.505 2.835-4.226 4.212-6.476 3.213-5.246 4.215-8.63 8.723-13.302 2.837-4.282 5.344-6.662 10.295-8.219"/><path fill="#bfe44f" d="m127.346 240.796.806.432c3.231 1.954 5.544 4.613 8.428 6.937l.614.834c-.812 4.372-3.369 7.943-7.003 10.47-2.741 1.906-6.231 3.256-9.61 2.615-1.699-.323-3.171-1.265-4.113-2.725-1.297-2.009-1.249-4.566-.703-6.813.171-.705.408-1.396.636-2.083.295-.444.455-.954.65-1.448 2.837-4.282 5.344-6.662 10.295-8.219"/><path fill="#90af31" d="m127.346 240.796.806.432c-4.312 2.667-8.405 6.917-9.561 12.019-.347 1.534-.365 3.041.511 4.408.5.778 1.153 1.183 1.96 1.595 4.135.141 7.41-1.625 10.364-4.412 2.146-2.023 3.388-4.393 5.154-6.673l.614.834c-.812 4.372-3.369 7.943-7.003 10.47-2.741 1.906-6.231 3.256-9.61 2.615-1.699-.323-3.171-1.265-4.113-2.725-1.297-2.009-1.249-4.566-.703-6.813.171-.705.408-1.396.636-2.083.295-.444.455-.954.65-1.448 2.837-4.282 5.344-6.662 10.295-8.219"/><path fill="#90af31" d="M127.78 242.799c.314.126.5.255.769.454.611 1.411-.689 4.719-1.112 6.274 1.589-.775 4.1-2.175 5.845-2.316.448-.036.514.008.846.273.001.201.014.324-.044.529-.318 1.147-5.977 3.4-7.393 4.087-1.26 1.207-2.429 2.488-3.631 3.748-.537.564-.962.713-1.752.739-.254-.159-.17-.05-.262-.323.458-2.449 3.44-4.347 4.608-6.518 1.119-2.079.464-4.989 2.126-6.947"/><path fill="#4d1f6b" d="M137.698 263.411c2.206 3.375 2.246 5.349 2.099 9.201 2.817-2.406 4.89-4.559 6.542-7.885l-.224.06.458.486c-.611 3.529-3.119 6.805-5.238 9.567-2.124 1.779-2.929 2.89-3.861 5.473.797 2.896-.651 4.692-.724 7.413-1.319-.641-5.817.563-7.55.747-7.572.802-18.244.896-24.775-3.376.443-.249.68-.472 1.21-.41 1.525.181 3.06.972 4.601 1.244 8.406 1.486 16.782 1.675 24.581-2.318a21 21 0 0 0-.091-1.336c-.483-5.234-2.295-9.548-6.38-12.931 3.415 1.4 5.623 4.262 7.558 7.295 2.616-4.33 2.692-8.389 1.794-13.23M137.194 249c.82.798 1.584 1.615 2.328 2.485-.911 1.739-1.693 3.444-2.848 5.053-3.028 4.218-7.955 8.048-13.194 8.866-2.348.369-4.926.056-6.852-1.43-1.534-1.183-2.236-2.873-2.454-4.757-.315-2.733.452-6.589 2.227-8.753-.228.687-.465 1.378-.636 2.083-.546 2.246-.594 4.803.703 6.813.942 1.46 2.414 2.402 4.114 2.724 3.378.642 6.868-.709 9.609-2.615 3.634-2.527 6.191-6.098 7.003-10.469"/><path fill="#703794" d="m155.801 257.107.585.269c.232.328 1.089 4.246 1.714 5.55l.034.074c2.633 4.927 6.475 8.896 10.627 12.569l1.339 1.159a107 107 0 0 0 7.447 5.371c.994.59 1.985 1.245 3.01 1.775 3.423 2.049 6.984 3.664 10.689 5.12l1.619.572c3.864 1.32 7.757 2.015 11.796 2.545l1.008-.281c-.779 1.575-2.324 2.406-3.967 2.928l-.166.045c-2.669 4.179-7.486 6.929-12.228 8.01-7.795 1.779-16.035-.328-22.686-4.566-6.903-4.4-12.467-11.563-14.232-19.635-1.153-5.274-.756-11.661 2.228-16.309.169-1.703.076-3.816 1.183-5.196"/><path fill="#bfe44f" d="m155.801 257.107.585.269c.233.328 1.089 4.246 1.715 5.55l.033.074c2.633 4.927 6.475 8.896 10.628 12.569l1.338 1.159a107 107 0 0 0 7.447 5.371c.994.59 1.985 1.245 3.01 1.775 3.423 2.049 6.984 3.664 10.689 5.12l1.619.572c3.864 1.32 7.757 2.015 11.796 2.545l1.008-.281c-.779 1.575-2.324 2.406-3.967 2.928l-.166.045c-1.868.576-3.692 1.06-5.642 1.255-9.971.996-20.33-3.453-27.903-9.689-7.828-6.445-12.421-13.941-13.373-24.066.169-1.703.076-3.816 1.183-5.196"/><path fill="#90af31" d="m155.801 257.107.585.269c-1.308 3.983.708 10.707 2.521 14.305 4.656 9.243 13.816 15.294 23.444 18.42 5.43 1.765 16.713 3.623 22.31 2.01l1.008-.281c-.779 1.575-2.324 2.406-3.967 2.928l-.166.045c-1.868.576-3.692 1.06-5.642 1.255-9.971.996-20.33-3.453-27.903-9.689-7.828-6.445-12.421-13.941-13.373-24.066.169-1.703.076-3.816 1.183-5.196"/><path fill="#bfb5c8" d="M221.512 295.765c6.674.837 11.41 1.279 17.58-1.937.934 1.734 2.073 3.367 2.983 5.098 1.416 3.123 2.491 6.688 1.261 10.063-.875 2.402-2.699 3.894-4.969 4.91-.721.322-1.512.508-2.279.695-3.111-1.793-6.311-2.111-9.758-1.165-1.295.354-2.908.94-3.948 1.792-5.921.355-15.653.365-21.274-1.169-2.549-.695-4.817-2.244-7.364-2.824q-.12-.026-.242-.05l-.268-1.768c-.138-1.731.108-3.163.507-4.828 4.173-2.27 7.357-4.949 10.44-8.54 5.549 2.464 11.707 1.281 17.331-.277"/><path fill="#9f9ca4" d="M221.512 295.765c6.674.837 11.41 1.279 17.58-1.937.934 1.734 2.073 3.367 2.983 5.098-.683 1.082-1.418 1.414-2.671 1.673-3.455.711-8.211-.145-11.467-1.36-5.517 3.997-13.541 4.855-20.111 3.822-3.035 2.288-9.297 5.851-13.241 5.363-.299-.038-.595-.205-.877-.239-.092-.01-.183.028-.274.042q-.105.59-.2 1.183c-.138-1.731.108-3.163.507-4.828 4.173-2.27 7.357-4.949 10.44-8.54 5.549 2.464 11.707 1.281 17.331-.277"/><path fill="#bfb5c8" d="M144.562 291.954c.46-.107.846-.023 1.309.034 2.086.793 5.349.5 7.627.574 5.181 7.462 12.261 12.728 21.325 14.399 5.056.932 9.947.512 14.896-.763-.115.695-.18 1.456-.383 2.127-.195 1.504-1.103 3.268-2.29 4.248q-.013.01-.028.018c-1.797-.237-4.393 1.05-6.228 1.484-1.179-.687-2.351-1.36-3.579-1.96-1.645.996-3.15 1.902-5.048 2.332-1.779.403-3.993.162-5.581 1.072-5.794-3.264-12.761-4.913-19.382-3.852-.65.104-1.403.118-2.029.301-.584.171-.597.38-.842.892-.53-.149-1.068-.331-1.535-.629-1.484-.948-1.885-2.36-2.272-3.968-.032-1.772.301-4.369 1.501-5.725.23-.02.488-.03.714-.088.778-.197 1.425-.669 1.792-1.394.567-1.121.309-2.245-.107-3.358.092-1.332.349-2.653.569-3.969z"/><path fill="#9f9ca4" d="M144.562 291.954c.46-.107.845-.023 1.308.034 2.087.793 5.349.5 7.627.574 5.181 7.462 12.262 12.728 21.325 14.399 5.056.932 9.948.512 14.897-.763-.116.695-.181 1.456-.384 2.127-.502-.135-1.403.876-1.935 1.141-5.782 2.902-14.392 2.207-20.358.271-2.592-.84-4.829-2.222-7.312-3.276-1.61-.683-3.329-1.095-4.927-1.818-4.483-2.026-7.637-6.69-9.813-10.914z"/><path fill="#3e1857" d="M204.181 296.042c.888-1.183 1.659-2.039 1.822-3.557.058-.549 1.203-.306 1.645-.28a37.6 37.6 0 0 0 5.768-.09 37 37 0 0 0 5.686-.976c5.789-1.448 12.445-4.817 16.187-9.541 1.022-1.291 2.719-4.119 3.854-5.003q.13-.1.263-.193c-.197 2.228-.55 4.303-1.155 6.456 1.081.998 2.252 2.217 2.404 3.764.29 1.852.972 4.515-.243 6.158-.343.464-.835.755-1.321 1.048-6.17 3.216-10.905 2.774-17.579 1.938-5.624 1.557-11.782 2.74-17.331.276"/><path fill="#4d1f6b" d="M238.251 282.857c1.082.998 2.253 2.217 2.404 3.764.291 1.852.972 4.515-.243 6.158-.342.464-.834.755-1.32 1.047-6.17 3.217-10.906 2.775-17.58 1.938l.173-.127c1.677-.412 3.306-1.098 4.874-1.815 3.73-1.706 8.119-4.202 10.35-7.791.594-.955.95-2.123 1.342-3.174"/><path fill="#703794" d="M240.655 286.621c.291 1.852.972 4.514-.243 6.158-.342.464-.834.754-1.32 1.047-6.17 3.216-10.906 2.774-17.58 1.938l.173-.128c1.63.1 3.392-.159 5.005-.4 5.788-.866 10.528-3.967 13.965-8.615"/><path fill="#3e1857" d="M125.787 239.551c5.066.717 9.05 2.135 13.861 3.826 1.439 1.991 3.81 3.708 5.633 5.375 3.321 3.039 6.551 6.441 9.061 10.183-1.549 2.003-2.437 4.18-3.81 6.253l-.265-.095c-.557-1.122-1.481-2.181-2.228-3.199-2.679-3.652-5.529-7.012-8.517-10.41a37 37 0 0 0-2.328-2.485l-.614-.835c-2.884-2.324-5.197-4.982-8.428-6.936l-.806-.432c-.536-.395-1.045-.823-1.559-1.245"/><path fill="#fbbc8c" d="M265.077 254.068c1.518 1.458 2.191 2.637 2.966 4.575 1.233.709 2.204 1.127 2.788 2.496.366 1.091 1.01 1.539 2.025 2.043.799.396 1.63.729 2.426 1.129.765.098 1.251.215 1.723.894.328.47.436 1.309.5 1.87l.099.821c5.188.747 10.104 3.947 14.33 6.877l-.329.559c.89 1.771 1.522 3.629 1.494 5.639-.58 1.639-.733 3.742-.934 5.478l1.687 1.458c.416.406.926 1.056 1.549 1.04.402-.012.84-.13 1.235-.213 2.037 2.654 3.216 6.508 2.71 9.852-.253 1.667-1.047 3.581-2.455 4.593-.664.477-1.408.872-2.018 1.418-3.168 2.834-2.292 4.224-7.456 4.236-.446 1.519-1.078 2.593-2.53 3.333-2.087 1.066-4.817.713-6.956-.039-.87-.307-1.749-.674-2.474-1.253-3.626-1.589-5.905-3.304-7.741-6.891-.221.243-.436.478-.705.671-.741.532-2.053.542-2.908.345-1.338-.311-2.294-.956-3.033-2.101-.922-.709-1.88-1.998-2.18-3.129-.367-1.378-.048-2.159.619-3.37a20 20 0 0 1-1.406-1.011c-1.561-1.233-2.517-2.952-2.764-4.914l-.55-.057c-.633-.235-.994-.421-1.462-.913l-.816.108c-.566-.317-.476-.801-.777-1.354q-.056-.093-.112-.182c-2.682-2.326-3.873-5.146-4.501-8.571-.358-4.903.761-9.327 3.344-13.519 2.866-4.65 9.191-10.635 14.612-11.918"/><path fill="#90af31" d="M265.077 254.068c1.518 1.458 2.191 2.637 2.966 4.575 1.233.709 2.204 1.127 2.788 2.496.366 1.091 1.01 1.539 2.025 2.043.799.396 1.63.729 2.426 1.129.765.098 1.251.215 1.723.894.328.47.436 1.309.5 1.87l.099.821c-.153.522-.39 1.119-.46 1.653-6.199.438-11.724 3.927-15.747 8.584-1.888 2.184-3.945 5.295-4.284 8.215-.101.876.016 2.485-.287 3.236-.213.53-.96.801-1.487.89l-.55-.057c-.633-.235-.994-.421-1.462-.913l-.816.108c-.566-.317-.476-.801-.777-1.354q-.056-.093-.112-.182c-2.682-2.326-3.873-5.146-4.501-8.571-.358-4.903.761-9.327 3.344-13.519 2.866-4.65 9.191-10.635 14.612-11.918"/><path fill="#703794" d="M265.077 254.068c1.518 1.458 2.191 2.637 2.966 4.575 1.233.709 2.204 1.127 2.788 2.496-.938-.317-1.267-.21-2.171.243-6.845 3.427-13.487 8.217-15.996 15.799-.787 2.378-1.297 4.755-1.173 7.265.056 1.169.251 2.467.131 3.63-2.682-2.326-3.873-5.146-4.501-8.571-.358-4.903.761-9.327 3.344-13.519 2.866-4.65 9.191-10.635 14.612-11.918"/><path fill="#4d1f6b" d="M251.622 288.079c.12-1.163-.075-2.462-.131-3.631-.123-2.509.386-4.887 1.173-7.265 2.509-7.582 9.151-12.372 15.996-15.799.905-.452 1.233-.56 2.171-.243.367 1.091 1.01 1.539 2.026 2.043.798.396 1.629.729 2.425 1.129-6.17.142-11.567 3.105-15.799 7.51-3.638 3.782-6.753 9.024-6.654 14.427.022 1.122.237 2.169.498 3.257l-.816.107c-.566-.317-.476-.801-.777-1.354q-.056-.093-.112-.181"/><path fill="#bfe44f" d="M254.789 290.417c-.552-4.696 1.675-9.643 4.433-13.317 3.173-4.223 8.046-8.086 13.262-9.329 1.677-.4 3.326-.454 5.021-.695l.099.821c-.153.521-.39 1.119-.46 1.653-6.199.438-11.724 3.927-15.747 8.583-1.888 2.185-3.945 5.296-4.284 8.215-.101.877.016 2.486-.287 3.237-.213.529-.959.8-1.487.89z"/><path fill="#fbbc8c" d="M285.465 288.536c.179.05.223.067.434.095 2.52.319 4.364-.655 6.266-2.18l1.687 1.457c.416.407.926 1.056 1.549 1.04.402-.012.841-.129 1.235-.213 2.037 2.655 3.216 6.508 2.71 9.852-.253 1.667-1.047 3.581-2.455 4.593-.663.478-1.408.872-2.018 1.418-3.168 2.834-2.292 4.224-7.456 4.236-.446 1.519-1.078 2.593-2.529 3.334-2.088 1.065-4.818.713-6.957-.04-.87-.307-1.749-.673-2.473-1.253-3.627-1.589-5.905-3.304-7.742-6.891.446-2.184.851-3.391 2.611-4.857l1.625-.793c1.305-.255 2.191.034 3.428.416l.131-.238c.548-1.01 1.104-1.883 1.956-2.673 2.008-1.864 4.342-1.838 6.901-1.771.109-2.005.741-3.606 1.097-5.532"/><path fill="#ca7864" d="M285.465 288.536c.179.05.223.067.434.095 2.519.319 4.364-.655 6.266-2.18l1.686 1.457c-1.366 1.645-3.987 2.749-6.124 2.886-.39.026-.758-.028-1.141-.081a2.3 2.3 0 0 0-.657.004c-.293.511-.327 1.427-.167 1.991.472 1.671 5.761 3.599 5.648 6.142l-.273.295c-1.189-.454-2.125-1.422-3.214-2.073-2.494-1.49-6.288-2.267-8.992-1.07-1.038.458-1.863 1.231-2.607 2.069 2.553 2.147 5.564 4.989 7.113 7.971-2.152-1.177-4.034-2.966-5.998-4.43-1.709-1.27-3.591-2.312-5.487-3.278 1.305-.255 2.191.034 3.428.416l.131-.238c.548-1.01 1.103-1.883 1.956-2.673 2.007-1.864 4.341-1.838 6.901-1.771.109-2.005.74-3.606 1.097-5.532"/><path fill="#6e5a53" d="M277.491 308.376c.651-.575 1.304-1.206 2.228-1.228 2.201-.054 3.121 2.774 5.742 1.708.237-.095.478-.183.715-.278.416.077.829.155 1.241.254-.446 1.52-1.078 2.593-2.529 3.334-2.088 1.066-4.818.713-6.957-.039-.87-.307-1.749-.674-2.473-1.253.758-.767 1.392-1.635 2.033-2.498"/><path fill="#ca7864" d="M270.327 299.126c-.022 2.494.297 4.671 2.137 6.545 1.36 1.388 3.171 2.216 5.027 2.706-.641.863-1.275 1.731-2.033 2.498-3.627-1.59-5.905-3.304-7.742-6.891.446-2.185.851-3.392 2.611-4.858"/><path fill="#90af31" d="M265.253 291.938c1.287-1.334 14.088-8.5 15.668-8.725.607.269.649.514.976 1.078.94 1.973 2.051 2.776 3.568 4.244-.356 1.926-.987 3.527-1.097 5.532-2.559-.067-4.893-.093-6.901 1.771-.852.791-1.408 1.663-1.955 2.673l-.132.239c-1.237-.383-2.123-.672-3.427-.417l-1.625.793c-1.761 1.466-2.165 2.673-2.611 4.857-.221.243-.437.478-.705.672-.741.531-2.054.541-2.908.344-1.338-.311-2.294-.956-3.033-2.101-.922-.709-1.88-1.998-2.181-3.129-.366-1.378-.048-2.159.619-3.37.594-.774 1.327-1.35 2.076-1.963 1.049-.93 2.298-1.701 3.449-2.504z"/><path fill="#bfe44f" d="M265.253 291.939c1.796-.356 3.669-1.352 5.367-2.055 2.516-1.042 5.003-1.972 7.648-2.651.434.691.974 1.376 1.101 2.197-.703 1.127-2.65 1.589-3.724 2.368-1.159.842-2.195 2.137-3.173 3.188-4.253 1.171-8.946 3.533-11.192 7.537l-.122.223-.087.153c-.922-.709-1.88-1.998-2.181-3.129-.366-1.378-.048-2.159.619-3.37.594-.774 1.327-1.35 2.076-1.963 1.049-.93 2.298-1.701 3.449-2.504z"/><path fill="#6e5a53" d="M291.605 275.333c.891 1.771 1.522 3.629 1.494 5.639-.58 1.639-.733 3.742-.934 5.478-1.902 1.526-3.746 2.5-6.265 2.181-.212-.028-.255-.046-.435-.095-1.517-1.468-2.628-2.271-3.569-4.244 1.237-6.198 3.189-4.404 6.644-7.935l.154-.163c.974-.357 1.89-.671 2.911-.861"/><path fill="#ca7864" d="M277.145 269.549c-.058.516-.01.692-.459 1.018-1.171.853-2.851 1.366-4.132 2.169-5.813 3.643-11.101 8.554-13.128 15.287-.421 1.394-.66 2.842-.877 4.282.94.864 2.048 1.358 3.035 2.131-.748.613-1.481 1.189-2.075 1.964a21 21 0 0 1-1.406-1.012 7.33 7.33 0 0 1-2.764-4.913c.528-.09 1.274-.361 1.488-.89.302-.751.185-2.36.286-3.237.339-2.919 2.396-6.03 4.284-8.215 4.023-4.656 9.548-8.145 15.748-8.584m5.745 8.385c1.805-.723 3.896-1.366 5.804-1.741l-.154.164c-3.455 3.531-5.407 1.736-6.644 7.934-.326-.564-.368-.809-.975-1.077-1.58.225-14.382 7.39-15.668 8.725l-.219-.006c.121-.544.346-.829.763-1.181 1.563-1.329 3.618-2.273 5.369-3.342 2.663-1.629 5.274-3.354 7.882-5.067-1.792-1.932-3.881-3.754-5.437-5.877 2.566 1.153 4.934 2.886 7.3 4.398a20.7 20.7 0 0 1 1.979-2.93"/><path fill="#bfe44f" d="M144.329 312.861c.244-.512.257-.721.841-.893.627-.183 1.38-.197 2.029-.3 6.621-1.062 13.589.587 19.382 3.851 1.588-.91 3.802-.669 5.582-1.071 1.898-.43 3.402-1.336 5.047-2.332 1.228.599 2.401 1.272 3.58 1.96 1.834-.435 4.431-1.721 6.227-1.484-.71 3.354-.096 15.134.057 18.952.061 1.513.53 4.07.068 5.411-.005 1.908 1.471 7.42.657 8.641-.503.755-1.52 1.024-2.361 1.157-1.089.173-8.731.625-9.062.211-.841-1.057-1.039-2.915-2.361-3.646-.333-.184-.661-.297-1.024-.126-1.169.548-1.691 2.111-2.041 3.25-8.94-.157-17.924.124-26.866.156-3.402.012-7.595.396-10.925-.116-.629-.097-1.2-.233-1.558-.816-.697-1.135-.433-3.501-.08-4.748.484-1.715 1.574-3.36 3.16-4.214-.862-2.259-.319-4.25-.676-6.503-.525-1.681-.504-3.843-.038-5.532.525-1.904 1.709-3.336 3.448-4.264 2.931-1.564 6.692-1.671 9.797-.699a611 611 0 0 1-2.883-6.845"/><path fill="#58443d" d="M134.681 336.703c8.869-.356 17.78-.287 26.656-.221.534.544.768.97 1.603.958 2.281-.034 4.567-.261 6.848-.349 4.249-.161 8.629-.153 12.878.014 1.492.022 2.999-.207 4.476-.151-.005 1.908 1.471 7.421.657 8.641-.503.755-1.52 1.024-2.361 1.157-1.089.174-8.731.626-9.062.212-.841-1.058-1.039-2.916-2.361-3.647-.333-.183-.661-.297-1.024-.125-1.169.547-1.691 2.111-2.041 3.25-8.94-.158-17.924.123-26.866.155-3.402.012-7.595.396-10.925-.115-.629-.098-1.2-.233-1.558-.817-.697-1.135-.433-3.501-.08-4.748.484-1.715 1.574-3.36 3.16-4.214"/><path fill="#6e5a53" d="M142.492 338.833q4.908.167 9.82.193a49 49 0 0 0-.18 5.033q-4.586.117-9.171.187c-.198-1.805-.223-3.607-.469-5.413m11.534.213q4.16.1 8.323.157l-.184 4.473c-2.571.006-5.147.128-7.715.235-.225-1.605-.298-3.248-.424-4.865m-17.524-.584c1.396.233 2.883.259 4.297.367-.029 1.82-.119 3.642-.2 5.463l-2.492.037c-1.338.118-2.695.132-4.038.18-.079-.837-.202-1.767-.061-2.599.267-1.574 1.209-2.581 2.494-3.448m36.821.821q4.078.104 8.158.123c-.119 1.775-.244 3.541-.454 5.308l-2.592.52c-1.378-2.239-2.523-3.187-4.912-4.246-.32-.574-.211-1.056-.2-1.705m-9.608-.07c1.272-.002 6.861-.311 7.683.243-.003.639.068 1.356-.074 1.98-.085.37-.745.671-1.063.886-.485.472-.89 1.051-1.309 1.585-1.597-.133-3.201-.163-4.802-.211-.022-1.517-.202-2.985-.435-4.483m19.135.203c.521-.002 1.654-.123 2.026.201.225.946 1.069 3.332.597 4.175l-2.465.486a51 51 0 0 0-.158-4.862"/><path fill="#90af31" d="M166.582 315.519c1.587-.91 3.801-.669 5.581-1.071 1.898-.431 3.403-1.337 5.048-2.333 1.227.6 2.4 1.273 3.579 1.96 1.834-.434 4.431-1.721 6.227-1.484-.71 3.354-.095 15.134.057 18.952.061 1.514.53 4.071.068 5.411-1.477-.055-2.984.174-4.476.152-.013-6.104-.373-12.207-.442-18.311-3.338.731-4.031-.37-6.899-.33-2.523.035-4.91 1.121-7.517 1.169-.228-1.414-.734-2.777-1.226-4.115"/><path fill="#444d2c" d="M144.329 312.861c.245-.512.257-.721.841-.893.627-.183 1.38-.197 2.029-.3 6.621-1.062 13.589.587 19.382 3.851.493 1.339.998 2.701 1.227 4.115.054 1.36-.304 2.738-.565 4.069-4.403-2.474-9.752-3.959-14.812-4.019-1.66-.02-3.666.671-5.219.022a611 611 0 0 1-2.883-6.845"/><path fill="#6e5a53" d="M135.753 329.191c.96-.386 1.611-.494 2.596-.1 2.982 1.191 3.174 4.547 6.988 5.491 1.202-.601 2.757-2.033 4.106-1.669 1.52.41 2.342 1.958 4.118 1.078 2.248-1.118 3.134-4.366 6.255-3.44.8.237 1.828.735 2.239 1.508.739 1.386-.453 3.055-.718 4.423-8.875-.066-17.787-.135-26.655.221-.863-2.258-.319-4.25-.677-6.502.609-.255 1.346-.466 1.748-1.01"/><path fill="#90af31" d="M134.005 330.2c-.525-1.681-.503-3.843-.038-5.532.526-1.904 1.71-3.336 3.449-4.264 2.93-1.564 6.691-1.671 9.796-.699 1.553.649 3.559-.042 5.219-.022 5.061.06 10.409 1.545 14.813 4.019 1.007.719 1.926 1.501 2.739 2.438-6.496-2.846-11.391-4.428-18.618-4.177 2.058 1.629 4.011 3.001 5.135 5.463-4.12-2.625-9.999-7.193-15.214-6.074-2.001.428-3.818 1.541-4.904 3.302-.616 1-1.111 2.894-.837 4.057.061.263.089.28.207.48-.401.543-1.138.754-1.747 1.009m39.172.108c.092.157.174.283.232.46.176.546.071 1.322-.222 1.814-.355.596-.987.97-1.63 1.179-1.173.381-2.465.227-3.552-.338-.805-.419-1.529-1.088-1.776-1.986-.269-.976.018-2.115.515-2.971a2.52 2.52 0 0 1 1.582-1.183c1.147-.291 2.028-.092 3.041.47.932.573 1.494.993 1.738 2.103.057.257.049.233.072.452"/><path fill="#6e5a53" d="M171.367 327.753c.932.574 1.494.994 1.738 2.103.057.257.049.233.072.452a7 7 0 0 1-.36.64c-.382.587-.879.999-1.582 1.131-.633.115-1.273-.064-1.795-.428-.556-.391-1.101-1.082-1.126-1.789-.02-.571.123-.942.519-1.354.648-.675 1.668-.725 2.534-.755"/><path fill="#9f9ca4" d="M104.424 285.097c6.531 4.272 17.203 4.178 24.776 3.376 1.733-.183 6.231-1.388 7.549-.747l-.154 1.117-.001.237c.818 2.062 1.773 3.099 3.466 4.495 1.83.954 3.106 2.53 4.361 4.125.416 1.113.674 2.236.107 3.358-.367.725-1.014 1.197-1.792 1.394-.226.057-.484.067-.714.087-1.199 1.357-1.532 3.954-1.501 5.726-1.205 2.967-2.317 6.011-2.25 9.259-4.058 1.151-8.205 1.657-12.225 3.003-.443-2.28-1.47-4.286-2.095-6.504-.92 2.419-1.709 4.337-3.662 6.132-4.234-1.225-8.54-.974-12.599.812-2.358-1.244-7.679-4.658-8.525-7.277-.167-.518-.158-.928.095-1.416.157-.303.427-.595.642-.858a12.9 12.9 0 0 1 2.853-3.39c-1.362-.558-2.521-1.151-3.566-2.213-2.566-2.603-2.755-5.859-2.721-9.278-.207-1.669.47-3.233 1.36-4.613 1.128-1.748 2.702-3.298 4.786-3.758l.109-1.28c.089-.389.228-.697.382-1.064z"/><path fill="#ca7864" d="M104.424 285.097c6.531 4.272 17.203 4.178 24.776 3.376 1.733-.183 6.231-1.388 7.549-.747l-.154 1.117-.001.237c.818 2.062 1.773 3.099 3.466 4.495 1.83.954 3.106 2.53 4.361 4.125.416 1.113.674 2.236.107 3.358-.367.725-1.014 1.197-1.792 1.394-.226.057-.484.067-.714.087l-1.136-.125c-1.73-.47-2.944-1.331-3.953-2.81-1.53.82-2.817-.102-4.266 1.215-.587.541-1.117 1.306-1.883 1.559-.542-.026-.726-.153-1.146-.488-1.42-1.354-1.294-3.184-2.29-4.748-.601-.944-1.488-1.412-2.545-1.677-1.128.363-1.892 1.382-2.973 1.671-1.683.448-2.786-1.701-4.417-1.804-.113-.008-.227-.008-.34-.012-5.368-.347-9.815-1.711-14.461-4.455-1.873 1.223-3.807 3.624-4.221 5.885-.054.291-.04.332-.03.587l.249.128c-.282.03-.61.081-.891.052-.57-.064-.908-.574-1.251-.982-.207-1.669.47-3.233 1.36-4.613 1.128-1.748 2.702-3.298 4.786-3.758l.109-1.28c.089-.389.228-.697.382-1.064z"/><path fill="#fbbc8c" d="M135.683 292.708c.806.486 1.704 1.442 2.621 1.673.647.163 1.072-.184 1.627-.457l.13-.35c1.83.954 3.105 2.529 4.36 4.124.417 1.114.675 2.237.108 3.358-.367.725-1.014 1.197-1.793 1.394-.225.058-.483.068-.713.088l-1.137-.125c-1.73-.47-2.944-1.331-3.952-2.811-1.53.821-2.818-.101-4.267 1.215-.587.542-1.116 1.307-1.883 1.56-.542-.026-.726-.154-1.146-.488-1.42-1.355-1.294-3.185-2.29-4.748-.601-.944-1.487-1.412-2.544-1.677 1.865-.956 4.054-.749 6.083-1.091 1.71-.291 3.247-.907 4.796-1.665"/><path fill="#6e5a53" d="m139.931 293.925.13-.351c1.83.954 3.105 2.53 4.36 4.125.417 1.113.675 2.236.107 3.358-.367.725-1.013 1.197-1.792 1.394-.226.058-.483.067-.713.087l-1.137-.125c-1.73-.47-2.944-1.33-3.952-2.81l.275-1.06c.67-1.346 1.905-1.924 2.676-3.111.34-.523.159-.95.046-1.507"/><path fill="#ca7864" d="M129.639 301.89c.452-1.151 1.024-2.318 1.832-3.264.671-.783 1.582-1.506 2.656-1.548 1.195-.045 2.267.66 3.082 1.466l-.275 1.06c-1.53.82-2.818-.102-4.267 1.215-.586.541-1.116 1.306-1.883 1.559-.541-.026-.726-.153-1.145-.488"/><path fill="#90af31" d="M104.425 285.097c6.53 4.272 17.202 4.178 24.775 3.376 1.733-.183 6.231-1.388 7.549-.747l-.154 1.117c-5.405 2.532-11.386 3.551-17.336 3.416-5.727-.132-12.402-1.042-16.536-5.375.089-.389.228-.697.382-1.064z"/><path fill="#bfe44f" d="M102.724 286.882c4.134 4.334 10.808 5.244 16.536 5.375 5.949.136 11.93-.884 17.336-3.415l-.002.237c-.022.076-.041.153-.067.229-.362 1.053-1.48 1.629-2.435 2.089-6.896 3.334-17.502 3.422-24.654.892-1.97-.695-5.867-2.147-6.824-4.126z"/><path fill="#fbbc8c" d="m98.61 297.464-.25-.127c-.01-.255-.022-.297.03-.588.415-2.26 2.349-4.662 4.222-5.885 4.646 2.745 9.093 4.109 14.461 4.455l-1.443 1.08c-.454 1.161-.997 2.276-.399 3.505.307.631.897 1.139 1.391 1.623-.098 1.902-.09 3.471.406 5.321-.17.345-.079.363-.405.447-2.242.579-4.162-1.53-6.563-.094-.729.697-1.4 1.093-2.386 1.316-1.084-.804-1.644-1.708-2.288-2.863-.78 1.007-1.466 1.794-2.631 2.371-1.362-.557-2.521-1.151-3.566-2.212-2.566-2.603-2.755-5.859-2.721-9.279.343.408.681.918 1.25.982.282.03.61-.022.892-.052"/><path fill="#6e5a53" d="M96.468 296.535c.343.408.681.918 1.25.981.282.03.61-.022.892-.051 2.726 1.111 2.168 3.883 5.798 4.325.203 1.343.464 2.599.978 3.864-.78 1.008-1.466 1.794-2.631 2.372-1.362-.558-2.521-1.151-3.566-2.213-2.566-2.603-2.755-5.859-2.721-9.278"/><path fill="#ca7864" d="M104.409 301.789c.18-2.286.347-3.967 2.243-5.501.289-.235.402-.324.778-.36q-.065.127-.126.255c-.324.695-.435 1.581-.589 2.336-.469 2.282.481 4.806 1.756 6.699.467.694.972 1.417 1.59 1.982-.73.697-1.401 1.093-2.387 1.317-1.084-.805-1.643-1.709-2.288-2.864-.513-1.265-.775-2.522-.977-3.864"/><path fill="#6e5a53" d="M117.073 295.319c.114.004.227.004.34.012 1.631.104 2.735 2.253 4.417 1.805 1.082-.289 1.845-1.309 2.974-1.671 1.057.265 1.943.733 2.544 1.677.996 1.563.87 3.393 2.29 4.748.42.334.604.462 1.146.488.767-.253 1.296-1.018 1.883-1.56.454 2.52.334 4.929-1.147 7.11-.765 1.125-1.725 1.928-2.828 2.705-1.595.523-3.144.806-4.816.96-2.312-.329-4.096-1.138-6.014-2.434-.997 1.163-2.261 1.583-3.774 1.671-2.336.133-4.68-.767-6.414-2.312.986-.223 1.657-.62 2.387-1.317 2.401-1.436 4.32.673 6.563.094.326-.084.235-.102.404-.446-.496-1.851-.504-3.42-.406-5.322-.494-.484-1.083-.992-1.391-1.623-.598-1.229-.055-2.344.4-3.505z"/><path fill="#747377" d="M102.756 308.025c1.164-.577 1.851-1.364 2.63-2.372.645 1.156 1.205 2.06 2.288 2.864 1.734 1.546 4.078 2.446 6.414 2.312 1.513-.087 2.777-.507 3.774-1.67 1.918 1.296 3.703 2.105 6.015 2.433a15 15 0 0 0-.697 1.603c-.116.307-.219.66-.391.936-.289.467-.539.55-1.049.664-.744-.184-1.174-.634-1.735-1.134-.899.648-2.27 2.582-3.382 2.534-1.126-.05-2.27-1.48-3.049-2.217-1.481.281-2.939.751-4.389 1.163-.942-.701-1.767-1.631-2.6-2.461-1.644.032-4.291.569-5.806-.032-.619-.245-.652-.671-.876-1.233a12.9 12.9 0 0 1 2.853-3.39m34.178-8.422c1.009 1.48 2.222 2.34 3.952 2.81-.813.962-2.791 4.28-4.06 4.224-.554-.024-1.212-.432-1.701-.687-.605 1.46-1.207 4.22-2.816 4.81-1.023.374-2.543.014-3.616-.128 1.103-.776 2.063-1.579 2.827-2.704 1.481-2.181 1.601-4.591 1.147-7.11 1.449-1.317 2.737-.394 4.267-1.215"/><path fill="#bfe44f" d="M303.155 258.443c2.352-.529 8.298 1.307 10.36 2.398.476.472 1.011.791 1.505 1.223l-.42.948c-.303 1.727-2.093 8.315-1.173 9.468.793.996 6.99 2.234 8.444 2.438l1.161.241c1.124 1.874-.346 6.317-.86 8.364-.106.42-.197.853-.337 1.263-.72 1.774-1.424 3.561-2.246 5.293-3.537-1.226-7.19-2.145-10.756-3.302-.429-.203-.793-.269-1.253-.358l-3.025-1.006c-2.538.942-5.638 1.898-7.919 3.322-.394.084-.832.201-1.235.213-.623.016-1.133-.633-1.549-1.039l-1.687-1.458c.201-1.737.355-3.84.934-5.479.028-2.01-.603-3.868-1.494-5.638l.329-.56c1.804-1.597 4.332-2.475 6.52-3.411a342 342 0 0 1 4.316-11.633z"/><path fill="#90af31" d="m321.871 274.918 1.161.241c1.124 1.874-.346 6.317-.86 8.364-.106.42-.197.853-.337 1.263-.721 1.774-1.424 3.561-2.246 5.293-3.537-1.226-7.19-2.145-10.757-3.302-.428-.203-.792-.269-1.252-.358l-3.025-1.006c-2.538.942-5.639 1.898-7.919 3.322-.394.084-.832.201-1.235.213-.623.016-1.133-.633-1.549-1.039l-1.687-1.458c.201-1.737.355-3.84.934-5.479 1.352-.723 2.864-1.318 4.296-1.872 1.137-.442 2.384-.88 3.615-.866 4.277.047 14.6 4.254 18.804 6.114.579-3.153 1.382-6.294 2.057-9.43m-18.717-16.475c2.353-.529 8.299 1.307 10.361 2.398.476.472 1.011.791 1.505 1.223l-.42.948c-2.595-.008-8.839-2.615-11.83-3.282z"/><path fill="#703794" d="M306.273 308.405c.394.281.759.581 1.213.759l.131-.136.251.014c3.232.209 5.821 2.436 9.05 2.494 3.828.067 7.729-2.325 11.477-1.41l1.046.239c1.979.561 3.296 1.625 4.503 3.266.286.261.43.42.555.8.883 2.673-.565 7.078-1.91 9.432a16 16 0 0 1-.4.652 16 16 0 0 1-1.388 1.822 16 16 0 0 1-1.065 1.095q-.28.261-.572.506a16 16 0 0 1-.596.48 17 17 0 0 1-1.258.866q-.325.201-.659.387-.333.187-.678.354a15 15 0 0 1-.693.321q-.35.153-.709.287-.356.135-.721.251-.365.117-.732.217c-3.818 1.005-7.861.047-11.209-1.942a17 17 0 0 1-1.281-.856 16.2 16.2 0 0 1-2.782-2.647q-.243-.299-.474-.608a15.8 15.8 0 0 1-2.629-5.528c-.93-3.77-.494-7.781 1.53-11.115"/><path fill="#4d1f6b" d="M306.273 308.405c.394.281.759.581 1.213.759-.518.557-.478 1.376-.464 2.099.073 3.511 1.965 8.378 4.534 10.824 3.34 3.178 7.13.896 11.165 2.937 7.777-2.925 7.345-9.571 11.223-11.393.286.261.43.42.555.8.883 2.673-.565 7.078-1.91 9.432a16 16 0 0 1-.4.652 16 16 0 0 1-1.388 1.822 16 16 0 0 1-1.065 1.095q-.28.261-.572.506a16 16 0 0 1-.596.48 17 17 0 0 1-1.258.866q-.325.201-.659.387-.333.187-.678.354a15 15 0 0 1-.693.321q-.35.153-.709.287-.356.135-.721.251-.365.117-.732.217c-3.818 1.005-7.861.047-11.209-1.942a17 17 0 0 1-1.281-.856 16.2 16.2 0 0 1-2.782-2.647q-.243-.299-.474-.608a15.8 15.8 0 0 1-2.629-5.528c-.93-3.77-.494-7.781 1.53-11.115"/><path fill="#9f9ca4" d="M307.159 240.588c.398-1.115.882-2.087 1.816-2.852 1.751-1.432 4.069-1.42 6.202-1.262 1.51-.132 2.816.589 3.947 1.559 1.438 1.229 2.605 2.979 2.731 4.909.075 1.153-.287 2.151-.982 3.059.82.58 1.818 1.127 1.964 2.221.29 2.165-4.372 12.457-6.182 13.997-.201.169-.249.173-.46.256a8 8 0 0 1-1.175-.412c-.494-.432-1.03-.751-1.506-1.223-2.061-1.091-8.008-2.927-10.36-2.397-.853-.168-1.661-.267-2.324-.869-.237-.848 3.664-13.481 4.288-14.817.258-.554 1.025-.753 1.559-.958.241-.213.372-.888.482-1.211"/><path fill="#90af31" d="M307.159 240.588c.399-1.115.882-2.087 1.817-2.852 1.75-1.432 4.068-1.42 6.201-1.262 1.51-.132 2.816.589 3.948 1.559 1.437 1.229 2.604 2.979 2.73 4.909.076 1.153-.287 2.151-.982 3.059-.665.112-.689.056-1.095.58-2.336-1.068-4.398-2.414-6.895-3.229-2.035-.663-4.214-.738-6.206-1.553.241-.213.373-.888.482-1.211"/><path fill="#bfe44f" d="M307.159 240.588c.398-1.115.882-2.087 1.816-2.852 1.751-1.432 4.069-1.42 6.202-1.262 2.894 2.214 3.846 4.52 4.322 8.034-2.774-2.755-6.15-4.234-10.093-4.205-.771.006-1.496.134-2.247.285"/><path fill="#747377" d="M320.873 246.002c.821.58 1.819 1.128 1.964 2.221.291 2.165-4.371 12.457-6.182 13.997-.201.169-.249.173-.46.257a8.4 8.4 0 0 1-1.175-.413c-.494-.432-1.029-.75-1.505-1.222 1.754-3.496 5.456-10.582 6.263-14.26.406-.524.43-.468 1.095-.58m-10.429 2.235c.842-.08 1.627-.122 2.437.173.97.353 1.902 1.044 2.334 2.004a2.54 2.54 0 0 1 .012 2.113c-.46 1.051-1.374 1.531-2.376 1.961-.778.12-1.567.126-2.326-.113-.962-.301-1.836-.944-2.276-1.864a2.74 2.74 0 0 1-.114-2.141c.423-1.141 1.271-1.617 2.309-2.133"/><path fill="#9f9ca4" d="M310.71 249.947c.679-.018 1.41-.09 2.02.275.474.287.502.462.641.958-.109.615-.331.87-.735 1.312-.657.048-1.336.096-1.94-.231-.505-.273-.599-.49-.764-1.022.095-.615.366-.866.778-1.292m13.179 22.439c4.933 2.055 10.192 3.013 15.114 4.995q-.063 1.141-.106 2.284c.757.201 1.263.376 1.89.852 1.605 1.377 2.722 2.751 2.884 4.955.056.775-.046 1.552-.183 2.313-.604 2.111-1.653 3.919-3.621 5.032a6.4 6.4 0 0 1-.829.399q-.143.056-.286.107a8 8 0 0 1-.887.245 8 8 0 0 1-.605.096 6 6 0 0 1-.613.042 8 8 0 0 1-.612-.012 7 7 0 0 1-.609-.068 7 7 0 0 1-.303-.054c-.217.476-.414.998-.936 1.211-1.309.538-3.332-.378-4.581-.824.012 2.439-.115 4.875-.125 7.315-.014 3.023.088 6.074-.04 9.093l-1.046-.239c-.372-5.568-.235-11.065-.139-16.636-2.079-.545-7.343-1.897-8.667-3.411.822-1.733 1.525-3.519 2.246-5.294.14-.41.231-.842.337-1.262.514-2.048 1.983-6.491.86-8.365-.01-1.101.327-1.832.857-2.774"/><path fill="#747377" d="m328.774 280.164 1.223.074c.362 1.981.205 4.519-.018 6.524-.414 1.934-.434 5.174-.373 7.194.012 2.439-.115 4.875-.125 7.315-.014 3.023.088 6.074-.04 9.093l-1.045-.239c-.373-5.568-.235-11.065-.14-16.635-2.079-.546-7.343-1.898-8.667-3.412.822-1.732 1.525-3.519 2.246-5.293 2.271.651 4.207 2.162 6.59 2.579-.169-.966-2.069-2.324-2.499-3.629-.209-.633-.197-1.237.118-1.836.517-.99 1.74-1.432 2.73-1.735"/><path fill="#000" d="m328.774 280.164 1.222.074c.363 1.981.205 4.519-.018 6.524-.414 1.934-.434 5.174-.372 7.194.012 2.439-.116 4.875-.125 7.315-.014 3.023.087 6.074-.04 9.093l-1.046-.239c-.372-5.568-.235-11.065-.139-16.635.075-1.888.286-3.776.308-5.662.03-2.492-.253-5.214.21-7.664"/><path fill="#90af31" d="M338.897 279.664c.757.202 1.263.377 1.89.853 1.605 1.376 2.723 2.75 2.884 4.955.056.775-.046 1.551-.183 2.312-.604 2.111-1.653 3.919-3.621 5.033a6 6 0 0 1-.548.277 7 7 0 0 1-.567.229 8 8 0 0 1-1.189.298 8 8 0 0 1-.61.07 8 8 0 0 1-.613.014 5 5 0 0 1-.612-.04 5 5 0 0 1-.302-.04 10 10 0 0 1-.303-.053c.374-1.191.88-2.297 1.203-3.52 1.328-3.389 1.912-6.829 2.571-10.388"/><path fill="#bfe44f" d="M340.787 280.516c1.605 1.376 2.722 2.75 2.884 4.955.055.774-.046 1.551-.184 2.312-1.236.398-2.69 2.103-3.853 2.882-.709.474-1.498.816-2.271 1.165 2.4-3.605 3.374-6.995 3.424-11.314"/><path fill="#747377" d="M329.979 286.763c.039.643-.078 1.125.458 1.577 1.266 1.073 4.258 1.786 5.889 1.711-.323 1.223-.829 2.328-1.203 3.519-.217.476-.414.998-.936 1.211-1.309.537-3.332-.379-4.581-.825-.062-2.019-.042-5.259.373-7.193m.018-6.525c1.147.347 2.119.912 2.706 2a2.88 2.88 0 0 1 .179 2.394c-.302.834-.916 1.428-1.718 1.778-.379.166-.785.261-1.185.353.223-2.006.38-4.543.018-6.525"/><path fill="#000" d="M307.579 286.418c.46.089.825.155 1.253.358.205 5.477.57 11.442-.086 16.879-.223 1.846-.812 3.565-1.129 5.373l-.131.136c-.454-.178-.819-.478-1.213-.759 1.51-7.178 1.127-14.672 1.306-21.987"/></svg>