<svg width="255" height="161" viewBox="0 0 255 161" fill="none" xmlns="http://www.w3.org/2000/svg">
<path d="M62.9064 137.291C70.1032 137.112 77.1508 135.642 83.5027 132.994C94.6283 141.611 109.647 146.464 125.317 146.506C140.986 146.548 156.047 141.775 167.248 133.218C173.013 135.967 179.455 137.736 186.154 138.41C192.853 139.083 199.658 138.647 206.127 137.13C212.596 135.612 218.582 133.046 223.696 129.6C228.81 126.155 232.937 121.906 235.807 117.131C238.678 112.356 240.227 107.162 240.355 101.888C240.483 96.6145 239.186 91.3788 236.549 86.5226C233.911 81.6664 229.993 77.2988 225.05 73.7044C220.106 70.11 214.248 67.3696 207.858 65.6619C207.898 60.4953 206.607 55.3752 204.062 50.6062C201.517 45.8372 197.769 41.5167 193.042 37.9019C188.315 34.287 182.705 31.4517 176.547 29.5645C170.388 27.6773 163.806 26.7769 157.192 26.9168C154.076 23.0997 149.774 19.9597 144.687 17.7886C139.6 15.6175 133.893 14.4857 128.096 14.4983C122.299 14.511 116.6 15.6677 111.529 17.861C106.458 20.0544 102.179 23.2131 99.0895 27.0438C85.8846 27.07 73.207 31.0929 63.7212 38.267C54.2354 45.441 48.6801 55.2075 48.2231 65.5137C37.2676 68.0198 27.8582 73.5598 21.7583 81.0955C15.6584 88.6312 13.2866 97.6455 15.0874 106.449C16.8882 115.253 22.738 123.241 31.5405 128.918C40.343 134.594 51.4941 137.569 62.9041 137.285M80.3136 120.529C76.4385 122.78 71.9555 124.31 67.2072 125.001C62.459 125.692 57.5713 125.526 52.918 124.515C48.2646 123.504 43.9689 121.676 40.3593 119.169C36.7497 116.663 33.9218 113.545 32.0919 110.055C30.262 106.564 29.4786 102.792 29.8016 99.029C30.1245 95.2655 31.5453 91.6095 33.9552 88.3406C36.3651 85.0717 39.7004 82.2765 43.7059 80.1688C47.7115 78.0611 52.2812 76.6966 57.0656 76.1798C59.0585 75.9641 60.8612 75.1417 62.0807 73.892C63.3001 72.6423 63.8373 71.0666 63.5749 69.5089C63.1004 65.401 63.7919 61.2621 65.6001 57.3869C67.4084 53.5117 70.2888 49.9956 74.0362 47.0893C77.7837 44.1829 82.3058 41.9579 87.2804 40.5726C92.255 39.1874 97.5596 38.6761 102.816 39.0751C104.429 39.199 106.051 38.918 107.445 38.2727C108.84 37.6275 109.934 36.6518 110.57 35.4874C112.045 32.7928 114.501 30.4959 117.633 28.8816C120.765 27.2673 124.435 26.4068 128.187 26.4068C131.94 26.4068 135.61 27.2673 138.742 28.8816C141.873 30.4959 144.329 32.7928 145.805 35.4874C146.475 36.7181 147.657 37.7365 149.16 38.3784C150.662 39.0203 152.398 39.2483 154.087 39.0257C159.309 38.4953 164.617 38.9165 169.596 40.2563C174.575 41.5961 179.089 43.8181 182.784 46.7482C186.48 49.6782 189.256 53.2367 190.895 57.1449C192.535 61.053 192.994 65.2046 192.235 69.2743C192.09 70.0483 192.142 70.837 192.387 71.5954C192.633 72.3538 193.067 73.067 193.665 73.6943C194.264 74.3216 195.014 74.8507 195.875 75.2515C196.735 75.6522 197.688 75.9167 198.679 76.0299H198.706C203.621 76.7926 208.248 78.4239 212.231 80.7987C216.214 83.1736 219.448 86.229 221.686 89.7309C223.924 93.2327 225.105 97.0881 225.14 101.002C225.174 104.915 224.062 108.783 221.887 112.309C219.711 115.834 216.532 118.925 212.591 121.342C208.65 123.76 204.053 125.441 199.152 126.257C194.251 127.073 189.175 127.002 184.315 126.05C179.454 125.097 174.937 123.288 171.11 120.761C169.566 119.743 167.567 119.246 165.553 119.378C163.539 119.51 161.675 120.262 160.37 121.467C160.21 121.614 160.059 121.767 159.919 121.926C155.715 125.923 150.422 129.138 144.425 131.335C138.429 133.533 131.88 134.657 125.256 134.626C118.632 134.595 112.101 133.41 106.138 131.158C100.175 128.905 94.9314 125.641 90.789 121.605C89.5596 120.405 87.7821 119.624 85.8304 119.426C83.8788 119.229 81.9052 119.63 80.3249 120.546L80.3136 120.529Z" fill="#600000"/>
<path d="M63.265 151.779C49.2191 152.129 35.1517 148.497 23.6839 141.101C12.1923 133.691 3.59618 122.614 0.883947 109.354C-1.86074 95.9363 1.90877 82.5747 10.4899 71.9737C16.9215 64.0282 25.6616 58.0566 35.4575 54.2842C38.5606 43.3673 45.5709 33.8166 54.9765 26.7032C65.6167 18.6562 78.9281 13.9457 92.6991 12.8141C96.552 9.38471 101.002 6.61813 105.775 4.55386C112.741 1.5408 120.398 0.0169186 128.065 0.000139758C135.732 -0.016619 143.396 1.47385 150.379 4.45401C155.12 6.47758 159.546 9.19233 163.395 12.5585C169.316 12.9305 175.175 13.9805 180.794 15.7023C188.464 18.0525 195.646 21.6406 201.85 26.3851C208.057 31.132 213.236 37.0026 216.853 43.7795C218.749 47.3315 220.18 51.0733 221.108 54.9339C225.541 56.8317 229.735 59.1851 233.576 61.978C240.078 66.7053 245.518 72.6586 249.29 79.6042C253.077 86.5784 255.041 94.3084 254.849 102.239C254.657 110.167 252.323 117.797 248.234 124.6C244.16 131.377 238.48 137.122 231.798 141.624C225.118 146.125 217.485 149.356 209.439 151.244C201.39 153.133 192.974 153.667 184.703 152.835C179.33 152.294 174.042 151.178 168.979 149.503C156.153 157.104 140.795 161.046 125.278 161.004C109.631 160.962 94.1731 156.872 81.339 149.069C75.497 150.722 69.4006 151.632 63.2657 151.784L63.265 151.779ZM62.9691 139.894L63.227 150.222L62.9706 139.894H62.9691ZM128.097 14.4981C122.3 14.5108 116.601 15.6678 111.53 17.8611C106.458 20.0544 102.179 23.2131 99.0897 27.0438C85.885 27.0701 73.2075 31.0928 63.7218 38.2668C54.2359 45.4408 48.6808 55.2077 48.2237 65.5138C37.2683 68.0199 27.859 73.5597 21.7591 81.0953C15.6592 88.631 13.2868 97.6454 15.0876 106.449C16.8884 115.252 22.7384 123.241 31.5409 128.918C40.3433 134.594 51.4944 137.57 62.9043 137.285L63.5809 137.27C70.5433 137.019 77.3496 135.56 83.503 132.994C94.6285 141.611 109.648 146.464 125.317 146.506C140.986 146.548 156.047 141.775 167.248 133.218C173.013 135.966 179.455 137.735 186.154 138.409C192.853 139.083 199.659 138.648 206.128 137.13C212.596 135.612 218.583 133.046 223.697 129.601C228.651 126.262 232.679 122.17 235.535 117.577L235.808 117.131C238.589 112.505 240.13 107.486 240.339 102.383L240.355 101.888C240.483 96.6146 239.186 91.3786 236.549 86.5224C233.912 81.6663 229.994 77.2983 225.051 73.704C220.107 70.1096 214.249 67.3692 207.858 65.6614C207.898 60.4949 206.607 55.3749 204.062 50.606C201.517 45.8371 197.77 41.5164 193.043 37.9016C188.316 34.2868 182.706 31.4519 176.547 29.5647C170.388 27.6775 163.806 26.7765 157.193 26.9164C154.076 23.0994 149.774 19.9599 144.687 17.7888C139.6 15.6177 133.894 14.4855 128.097 14.4981ZM128.188 26.4067C131.94 26.4067 135.61 27.2671 138.742 28.8814C141.874 30.4956 144.33 32.7928 145.805 35.4873C146.476 36.7179 147.658 37.7366 149.161 38.3785C150.663 39.0204 152.399 39.2479 154.088 39.0253C159.31 38.495 164.618 38.9166 169.597 40.2564C174.576 41.5962 179.09 43.8182 182.785 46.7483C186.48 49.6783 189.256 53.2368 190.896 57.1449C192.535 61.0529 192.994 65.2044 192.236 69.274C192.091 70.048 192.142 70.8368 192.388 71.5952C192.633 72.3536 193.067 73.067 193.666 73.6943C194.264 74.3216 195.015 74.851 195.875 75.2517C196.735 75.6524 197.688 75.9165 198.679 76.0297H198.706C203.621 76.7924 208.248 78.4239 212.232 80.7987C216.215 83.1736 219.449 86.2293 221.686 89.7311C223.924 93.2329 225.105 97.0883 225.14 101.002C225.175 104.915 224.062 108.783 221.887 112.309C219.712 115.835 216.532 118.925 212.591 121.343C208.651 123.76 204.054 125.441 199.152 126.257C194.251 127.073 189.176 127.002 184.315 126.05C179.455 125.097 174.937 123.288 171.11 120.761C169.566 119.743 167.567 119.245 165.553 119.378C163.54 119.51 161.675 120.262 160.371 121.467C160.21 121.614 160.06 121.767 159.919 121.925C155.716 125.923 150.422 129.138 144.426 131.335C138.429 133.532 131.88 134.657 125.256 134.626C118.633 134.595 112.101 133.41 106.138 131.157C100.175 128.904 94.9315 125.641 90.7892 121.604C89.5599 120.404 87.7824 119.623 85.8309 119.426C83.8794 119.229 81.9058 119.63 80.3256 120.546L80.3137 120.529C76.4387 122.78 71.9557 124.31 67.2076 125.001C62.4594 125.692 57.5716 125.526 52.9183 124.515C48.265 123.504 43.9696 121.675 40.36 119.169C36.7505 116.663 33.9222 113.545 32.0923 110.055C30.2625 106.564 29.4787 102.792 29.8017 99.0285C30.1247 95.2652 31.5455 91.6093 33.9553 88.3406C36.3652 85.0717 39.701 82.2761 43.7065 80.1683C47.712 78.0607 52.2816 76.6963 57.0659 76.1794C59.0588 75.9637 60.8615 75.1415 62.0809 73.8918C63.3003 72.6421 63.838 71.0665 63.5757 69.5087C63.116 65.5292 63.7501 61.5205 65.4342 57.7507L65.6003 57.387C67.4086 53.5118 70.2889 49.9951 74.0364 47.0888C77.7838 44.1825 82.3064 41.9576 87.281 40.5723C92.2554 39.1872 97.5598 38.6763 102.816 39.0753C104.429 39.1992 106.052 38.9179 107.446 38.2727C108.84 37.6275 109.935 36.6516 110.57 35.4873C112.046 32.7928 114.501 30.4956 117.633 28.8814C120.765 27.2671 124.435 26.4067 128.188 26.4067ZM128.188 40.9047C126.592 40.9047 125.22 41.2813 124.276 41.7683C123.325 42.2583 123.178 42.65 123.288 42.4494L123.287 42.4487C120.934 46.7496 117.282 49.6961 113.534 51.4302C109.774 53.1698 105.664 53.8316 101.719 53.5308V53.5315C98.1052 53.2572 94.4893 53.6147 91.17 54.539C87.8457 55.4647 85.0552 56.8912 82.9218 58.5458C80.7937 60.1962 79.4699 61.9498 78.7384 63.5175C78.0486 64.9961 77.8369 66.3965 77.9634 67.7054C78.8395 74.1213 76.3916 79.9852 72.4574 84.0171C68.5436 88.028 63.4439 90.0717 58.6263 90.5932L58.6233 90.594C55.5387 90.9272 52.7469 91.7941 50.4578 92.9986C48.1659 94.2046 46.5938 95.63 45.6253 96.9436C44.6778 98.2288 44.324 99.3691 44.2468 100.268C44.1709 101.153 44.3286 102.171 44.9331 103.324C45.5586 104.517 46.714 105.931 48.6284 107.26C50.546 108.592 53.0476 109.707 55.9958 110.347C58.9389 110.986 62.0772 111.097 65.1204 110.654C68.1673 110.211 70.8664 109.25 73.0304 107.993L85.0328 101.019L87.6066 105.037C92.2374 105.568 97.0906 107.5 100.907 111.221C103.481 113.729 106.973 115.975 111.262 117.595C115.545 119.213 120.359 120.105 125.323 120.128C130.288 120.151 135.121 119.305 139.438 117.723C143.646 116.181 147.109 114.034 149.713 111.617C149.991 111.332 150.274 111.056 150.564 110.79C154.631 107.047 159.766 105.229 164.603 104.911L165.06 104.886C169.639 104.672 174.479 105.756 178.674 108.389L179.092 108.658L179.098 108.662C181.225 110.066 183.949 111.204 187.104 111.822C190.254 112.44 193.578 112.487 196.772 111.956C199.969 111.423 202.777 110.354 205.009 108.985C207.242 107.615 208.698 106.075 209.548 104.696C210.376 103.354 210.652 102.149 210.643 101.131C210.634 100.11 210.336 98.8926 209.469 97.5367C208.581 96.1465 207.08 94.6065 204.807 93.2512C202.588 91.9282 199.828 90.905 196.709 90.3935C194.355 90.0922 191.995 89.4382 189.753 88.3935C187.409 87.3018 185.135 85.7554 183.175 83.7012C181.207 81.638 179.567 79.0663 178.594 76.0587C177.613 73.028 177.389 69.7884 177.985 66.6063C178.209 65.3916 178.097 64.1135 177.527 62.7537C176.936 61.3454 175.777 59.6942 173.777 58.1084C171.77 56.5167 169.079 55.1304 165.829 54.2558C162.611 53.3898 159.107 53.0988 155.635 53.4414C151.587 53.9151 147.351 53.3706 143.464 51.7104C139.491 50.0127 135.569 46.9864 133.088 42.4487V42.4494C133.198 42.65 133.05 42.2583 132.1 41.7683C131.155 41.2813 129.784 40.9047 128.188 40.9047Z" fill="#73899D"/>
<path fill-rule="evenodd" clip-rule="evenodd" d="M84.8841 124.517C80.0769 127.287 74.5148 129.169 68.6235 130.019C62.7322 130.869 56.6677 130.665 50.894 129.422C45.1203 128.179 39.7905 125.93 35.3122 122.848C30.8339 119.765 27.3258 115.931 25.0563 111.637C22.7869 107.344 21.8162 102.706 22.2185 98.0778C22.6209 93.4495 24.3856 88.9539 27.3776 84.9347C30.3696 80.9155 34.5098 77.4793 39.4812 74.889C44.4526 72.2987 50.1236 70.6229 56.0604 69.9899C55.4267 65.0368 56.2208 60.0366 58.3855 55.3497C60.5502 50.6629 64.0315 46.4063 68.5784 42.8868C73.1253 39.3673 78.6245 36.6726 84.6795 34.9971C90.7345 33.3215 97.1944 32.7068 103.593 33.1973C105.651 29.4608 109.082 26.2749 113.461 24.0357C117.839 21.7964 122.97 20.6026 128.218 20.6026C133.466 20.6026 138.597 21.7964 142.975 24.0357C147.354 26.2749 150.785 29.4608 152.843 33.1973C159.251 32.512 165.778 32.9902 171.906 34.5941C178.035 36.1979 183.598 38.8835 188.154 42.4384C192.71 45.9932 196.136 50.3199 198.16 55.0763C200.183 59.8326 200.749 64.8881 199.813 69.8431C205.892 70.7337 211.626 72.692 216.573 75.5673C221.521 78.4426 225.55 82.1582 228.351 86.4282C231.152 90.6982 232.65 95.4087 232.729 100.197C232.808 104.985 231.468 109.724 228.809 114.048C226.151 118.373 222.247 122.167 217.396 125.14C212.546 128.113 206.879 130.184 200.832 131.196C194.784 132.207 188.518 132.131 182.515 130.973C176.512 129.815 170.932 127.606 166.204 124.517C161.325 129.236 155.137 133.045 148.099 135.662C141.061 138.28 133.353 139.639 125.544 139.639C117.736 139.639 110.027 138.28 102.989 135.662C95.9512 133.045 89.7635 129.236 84.8841 124.517Z" fill="white"/>
</svg>
